<?xml version="1.0" encoding="UTF-8"?>
<svg viewBox="0 0 500 300" xmlns="http://www.w3.org/2000/svg" fill="#000">
  <path d="M438.3 147.2c-2.8-7.4-10.7-12.3-19.6-14.5-8.8-2.1-18.5-2-27.8-2.8-9.4-.8-18.3-2.3-25.4-6.2-7.1-3.8-12.3-9.9-16.4-17-4-7.1-7-15.1-11.7-22.4-4.6-7.3-11-13.9-18.8-18.7-7.8-4.8-17-7.8-26.3-9.9-9.3-2-18.7-3.1-28.1-4.3-9.4-1.1-18.9-2.2-27.4-5.5-8.6-3.3-15.9-8.9-22.8-14.5-6.8-5.6-13.2-11.2-20.8-14.5C165.7 13.7 160.2 12 154.5 12c-5.7 0-11.6 1.8-16.5 5.1-9.8 6.5-14.9 18.7-19.4 29.9-4.5 11.2-8.4 21.5-16.4 27.3-7.9 5.8-20.1 7.4-30.6 9.6-10.5 2.1-20.1 5-26.5 10.9-6.3 5.8-9.4 14.6-7.4 22.9 1.9 8.3 8.3 15.9 16.8 20.1 8.5 4.2 19.1 5.1 29.5 5.5 10.4.4 20.5.3 28.5 3.8 8 3.5 13.9 10.4 18.5 17.8 4.5 7.5 7.8 15.5 12.5 22.4 4.7 7 11 12.7 18.5 16.8 7.5 4.1 16.2 6.6 25.2 8.3 9.1 1.7 18.5 2.6 27.7 3.7 9.2 1 18.3 2.2 25.8 5.6 7.5 3.4 13.3 8.9 19 14.2 5.7 5.3 11.3 10.4 18.5 13.5 7.3 3.1 16.3 4.2 24.9 2.7 8.6-1.5 16.8-5.7 23.4-11.6 6.6-5.9 11.5-13.3 15.4-20.9 3.9-7.6 7-15.4 12.2-21.3 5.2-5.8 12.7-9.8 21.2-12.4 8.5-2.6 17.9-3.8 27.3-5.1 9.4-1.3 18.8-2.7 27-6.4 8.2-3.7 15.2-9.8 18-17.2 2.7-7.4.4-15-2.4-22.4z"/>
</svg>
