<?xml version="1.0" encoding="utf-8" ?>
<svg baseProfile="full" height="1024" version="1.1" width="1024" xmlns="http://www.w3.org/2000/svg" xmlns:ev="http://www.w3.org/2001/xml-events" xmlns:xlink="http://www.w3.org/1999/xlink"><defs /><path d="M 680,919 Z" fill="black" /><path d="M 671,918 L 672,918 Z" fill="black" /><path d="M 665,917 Z" fill="black" /><path d="M 726,914 Z" fill="black" /><path d="M 728,913 Z" fill="black" /><path d="M 735,911 Z" fill="black" /><path d="M 129,906 L 133,906 Z" fill="black" /><path d="M 114,906 Z" fill="black" /><path d="M 98,906 L 100,906 Z" fill="black" /><path d="M 92,905 Z" fill="black" /><path d="M 88,904 Z" fill="black" /><path d="M 150,902 L 151,902 Z" fill="black" /><path d="M 742,901 Z" fill="black" /><path d="M 749,895 L 750,895 Z" fill="black" /><path d="M 743,894 Z" fill="black" /><path d="M 769,893 Z" fill="black" /><path d="M 163,892 Z" fill="black" /><path d="M 786,891 Z" fill="black" /><path d="M 634,889 Z" fill="black" /><path d="M 164,884 Z" fill="black" /><path d="M 164,882 Z" fill="black" /><path d="M 801,881 Z" fill="black" /><path d="M 801,878 Z" fill="black" /><path d="M 268,874 L 283,874 Z" fill="black" /><path d="M 261,873 Z" fill="black" /><path d="M 629,872 Z" fill="black" /><path d="M 311,871 Z" fill="black" /><path d="M 300,871 Z" fill="black" /><path d="M 628,868 L 628,869 Z" fill="black" /><path d="M 59,867 Z" fill="black" /><path d="M 161,866 Z" fill="black" /><path d="M 627,863 Z" fill="black" /><path d="M 159,862 Z" fill="black" /><path d="M 626,860 Z" fill="black" /><path d="M 626,858 Z" fill="black" /><path d="M 58,857 L 58,858 Z" fill="black" /><path d="M 58,855 Z" fill="black" /><path d="M 326,845 Z" fill="black" /><path d="M 140,844 Z" fill="black" /><path d="M 58,844 L 58,846 Z" fill="black" /><path d="M 59,833 L 59,834 Z" fill="black" /><path d="M 769,832 Z" fill="black" /><path d="M 755,830 Z" fill="black" /><path d="M 59,829 Z" fill="black" /><path d="M 318,827 Z" fill="black" /><path d="M 60,820 Z" fill="black" /><path d="M 293,814 L 294,814 Z" fill="black" /><path d="M 286,813 Z" fill="black" /><path d="M 598,812 Z" fill="black" /><path d="M 61,811 L 61,812 Z" fill="black" /><path d="M 599,810 Z" fill="black" /><path d="M 129,810 L 129,812 Z" fill="black" /><path d="M 743,808 Z" fill="black" /><path d="M 62,806 Z" fill="black" /><path d="M 209,803 Z" fill="black" /><path d="M 62,802 Z" fill="black" /><path d="M 208,801 Z" fill="black" /><path d="M 130,801 Z" fill="black" /><path d="M 600,799 Z" fill="black" /><path d="M 592,795 Z" fill="black" /><path d="M 271,790 Z" fill="black" /><path d="M 205,790 Z" fill="black" /><path d="M 132,790 Z" fill="black" /><path d="M 269,785 Z" fill="black" /><path d="M 742,784 L 742,786 Z" fill="black" /><path d="M 64,784 L 64,785 Z" fill="black" /><path d="M 742,781 Z" fill="black" /><path d="M 267,775 L 267,776 Z" fill="black" /><path d="M 584,773 Z" fill="black" /><path d="M 743,770 Z" fill="black" /><path d="M 585,770 Z" fill="black" /><path d="M 266,770 Z" fill="black" /><path d="M 66,765 L 66,767 Z" fill="black" /><path d="M 587,763 Z" fill="black" /><path d="M 744,755 L 744,757 Z" fill="black" /><path d="M 266,754 Z" fill="black" /><path d="M 569,749 Z" fill="black" /><path d="M 267,749 Z" fill="black" /><path d="M 745,745 L 745,746 Z" fill="black" /><path d="M 573,740 Z" fill="black" /><path d="M 270,739 Z" fill="black" /><path d="M 573,738 Z" fill="black" /><path d="M 189,738 Z" fill="black" /><path d="M 746,737 Z" fill="black" /><path d="M 67,734 L 67,741 Z" fill="black" /><path d="M 574,731 Z" fill="black" /><path d="M 68,729 Z" fill="black" /><path d="M 749,712 Z" fill="black" /><path d="M 750,706 Z" fill="black" /><path d="M 560,700 Z" fill="black" /><path d="M 559,696 Z" fill="black" /><path d="M 77,695 Z" fill="black" /><path d="M 82,689 Z" fill="black" /><path d="M 558,686 Z" fill="black" /><path d="M 753,685 Z" fill="black" /><path d="M 85,682 Z" fill="black" /><path d="M 754,681 Z" fill="black" /><path d="M 87,677 Z" fill="black" /><path d="M 547,673 Z" fill="black" /><path d="M 756,670 Z" fill="black" /><path d="M 530,670 Z" fill="black" /><path d="M 549,668 Z" fill="black" /><path d="M 560,667 Z" fill="black" /><path d="M 549,666 Z" fill="black" /><path d="M 546,666 Z" fill="black" /><path d="M 757,665 Z" fill="black" /><path d="M 512,662 L 513,663 Z" fill="black" /><path d="M 90,662 Z" fill="black" /><path d="M 758,660 L 758,661 Z" fill="black" /><path d="M 85,658 L 87,658 Z" fill="black" /><path d="M 760,656 Z" fill="black" /><path d="M 70,656 Z" fill="black" /><path d="M 470,655 Z" fill="black" /><path d="M 344,646 Z" fill="black" /><path d="M 346,642 Z" fill="black" /><path d="M 348,638 Z" fill="black" /><path d="M 431,634 Z" fill="black" /><path d="M 422,631 Z" fill="black" /><path d="M 419,630 Z" fill="black" /><path d="M 816,621 L 817,621 Z" fill="black" /><path d="M 371,616 Z" fill="black" /><path d="M 352,614 Z" fill="black" /><path d="M 65,606 Z" fill="black" /><path d="M 66,603 Z" fill="black" /><path d="M 64,588 Z" fill="black" /><path d="M 63,580 L 63,581 Z" fill="black" /><path d="M 65,554 Z" fill="black" /><path d="M 67,549 Z" fill="black" /><path d="M 65,541 L 66,541 Z" fill="black" /><path d="M 63,540 Z" fill="black" /><path d="M 873,524 Z" fill="black" /><path d="M 876,515 Z" fill="black" /><path d="M 66,515 Z" fill="black" /><path d="M 877,510 L 877,511 Z" fill="black" /><path d="M 71,501 Z" fill="black" /><path d="M 879,500 Z" fill="black" /><path d="M 879,498 Z" fill="black" /><path d="M 879,491 L 879,492 Z" fill="black" /><path d="M 886,483 Z" fill="black" /><path d="M 74,483 Z" fill="black" /><path d="M 878,482 Z" fill="black" /><path d="M 883,457 Z" fill="black" /><path d="M 882,450 Z" fill="black" /><path d="M 882,447 L 882,448 Z" fill="black" /><path d="M 105,424 L 105,425 Z" fill="black" /><path d="M 883,423 L 883,424 L 884,425 L 883,424 Z" fill="black" /><path d="M 106,418 Z" fill="black" /><path d="M 109,409 Z" fill="black" /><path d="M 898,408 L 898,410 Z" fill="black" /><path d="M 898,405 Z" fill="black" /><path d="M 898,403 Z" fill="black" /><path d="M 896,390 Z" fill="black" /><path d="M 895,386 Z" fill="black" /><path d="M 893,380 Z" fill="black" /><path d="M 142,367 Z" fill="black" /><path d="M 229,330 Z" fill="black" /><path d="M 878,328 Z" fill="black" /><path d="M 475,328 Z" fill="black" /><path d="M 473,328 Z" fill="black" /><path d="M 423,328 Z" fill="black" /><path d="M 238,328 Z" fill="black" /><path d="M 487,327 Z" fill="black" /><path d="M 244,327 Z" fill="black" /><path d="M 493,326 Z" fill="black" /><path d="M 490,326 Z" fill="black" /><path d="M 500,325 L 501,325 Z" fill="black" /><path d="M 510,324 Z" fill="black" /><path d="M 508,324 Z" fill="black" /><path d="M 368,324 Z" fill="black" /><path d="M 366,324 Z" fill="black" /><path d="M 364,324 Z" fill="black" /><path d="M 258,324 L 259,324 Z" fill="black" /><path d="M 346,323 Z" fill="black" /><path d="M 265,323 L 266,323 Z" fill="black" /><path d="M 521,322 Z" fill="black" /><path d="M 334,322 Z" fill="black" /><path d="M 330,322 L 331,322 Z" fill="black" /><path d="M 276,322 Z" fill="black" /><path d="M 288,321 Z" fill="black" /><path d="M 532,320 L 533,320 Z" fill="black" /><path d="M 539,319 Z" fill="black" /><path d="M 541,318 L 542,318 Z" fill="black" /><path d="M 545,317 L 546,317 Z" fill="black" /><path d="M 556,315 Z" fill="black" /><path d="M 559,314 Z" fill="black" /><path d="M 878,312 L 878,314 Z" fill="black" /><path d="M 568,312 Z" fill="black" /><path d="M 879,309 Z" fill="black" /><path d="M 911,308 Z" fill="black" /><path d="M 908,308 Z" fill="black" /><path d="M 902,307 Z" fill="black" /><path d="M 900,307 Z" fill="black" /><path d="M 883,307 Z" fill="black" /><path d="M 880,307 L 881,307 Z" fill="black" /><path d="M 588,305 Z" fill="black" /><path d="M 951,301 Z" fill="black" /><path d="M 960,294 Z" fill="black" /><path d="M 620,283 Z" fill="black" /><path d="M 982,271 Z" fill="black" /><path d="M 650,254 Z" fill="black" /><path d="M 1000,230 L 1000,231 Z" fill="black" /><path d="M 659,224 Z" fill="black" /><path d="M 661,217 Z" fill="black" /><path d="M 971,208 Z" fill="black" /><path d="M 923,188 Z" fill="black" /><path d="M 919,169 Z" fill="black" /><path d="M 918,165 Z" fill="black" /><path d="M 918,163 Z" fill="black" /><path d="M 715,128 Z" fill="black" /><path d="M 729,122 Z" fill="black" /><path d="M 735,120 Z" fill="black" /><path d="M 848,107 Z" fill="black" /><path d="M 771,102 Z" fill="black" /><path d="M 784,101 L 783,102 L 778,102 L 777,103 L 774,103 L 773,104 L 771,104 L 770,105 L 768,105 L 767,106 L 765,106 L 764,107 L 763,107 L 762,108 L 760,108 L 759,109 L 757,109 L 756,110 L 753,110 L 752,111 L 739,111 L 739,112 L 740,113 L 740,114 L 741,115 L 741,116 L 742,117 L 742,118 L 743,118 L 744,119 L 742,121 L 738,121 L 737,122 L 735,122 L 734,123 L 731,123 L 730,124 L 728,124 L 727,125 L 726,125 L 725,126 L 723,126 L 722,127 L 721,127 L 720,128 L 719,128 L 717,130 L 716,130 L 715,131 L 714,131 L 712,133 L 711,133 L 699,145 L 699,146 L 697,148 L 697,150 L 696,151 L 696,161 L 697,162 L 697,164 L 698,165 L 698,166 L 700,168 L 700,172 L 699,173 L 699,174 L 675,198 L 675,199 L 672,202 L 672,203 L 670,205 L 670,206 L 668,208 L 668,209 L 666,211 L 666,212 L 665,213 L 665,214 L 664,215 L 664,217 L 663,218 L 663,219 L 662,220 L 662,222 L 661,223 L 661,226 L 660,227 L 660,231 L 659,232 L 659,235 L 658,236 L 658,239 L 657,240 L 657,243 L 656,244 L 656,246 L 655,247 L 655,249 L 654,250 L 654,251 L 653,252 L 653,254 L 652,255 L 652,256 L 651,257 L 651,258 L 650,259 L 650,260 L 648,262 L 648,263 L 646,265 L 646,266 L 644,268 L 644,269 L 634,279 L 633,279 L 631,281 L 630,281 L 628,283 L 627,283 L 626,284 L 623,284 L 622,285 L 620,285 L 619,286 L 614,286 L 615,287 L 616,287 L 618,289 L 620,289 L 621,290 L 623,290 L 624,291 L 623,292 L 622,292 L 621,293 L 620,293 L 619,294 L 617,294 L 616,295 L 615,295 L 614,296 L 612,296 L 611,297 L 609,297 L 608,298 L 606,298 L 605,299 L 604,299 L 603,300 L 601,300 L 600,301 L 599,301 L 598,302 L 597,302 L 595,304 L 594,304 L 592,306 L 591,306 L 590,307 L 588,307 L 587,308 L 586,308 L 585,309 L 584,309 L 583,310 L 581,310 L 580,311 L 578,311 L 577,312 L 575,312 L 574,313 L 572,313 L 571,314 L 567,314 L 566,315 L 564,315 L 563,316 L 560,316 L 559,317 L 556,317 L 555,318 L 551,318 L 550,319 L 547,319 L 546,320 L 542,320 L 541,321 L 537,321 L 536,322 L 531,322 L 530,323 L 526,323 L 525,324 L 520,324 L 519,325 L 514,325 L 513,326 L 507,326 L 506,327 L 500,327 L 499,328 L 493,328 L 492,329 L 484,329 L 483,330 L 470,330 L 469,331 L 422,331 L 421,330 L 405,330 L 404,329 L 392,329 L 391,328 L 380,328 L 379,327 L 368,327 L 367,326 L 351,326 L 350,325 L 337,325 L 336,324 L 318,324 L 317,323 L 283,323 L 282,324 L 272,324 L 271,325 L 265,325 L 264,326 L 259,326 L 258,327 L 253,327 L 252,328 L 248,328 L 247,329 L 243,329 L 242,330 L 238,330 L 237,331 L 234,331 L 233,332 L 229,332 L 228,333 L 225,333 L 224,334 L 221,334 L 220,335 L 217,335 L 216,336 L 213,336 L 212,337 L 210,337 L 209,338 L 206,338 L 205,339 L 202,339 L 201,340 L 199,340 L 198,341 L 196,341 L 195,342 L 193,342 L 192,343 L 191,343 L 190,344 L 188,344 L 187,345 L 186,345 L 185,346 L 183,346 L 182,347 L 181,347 L 180,348 L 179,348 L 178,349 L 176,349 L 175,350 L 174,350 L 173,351 L 172,351 L 171,352 L 170,352 L 169,353 L 168,353 L 167,354 L 166,354 L 165,355 L 164,355 L 162,357 L 161,357 L 160,358 L 159,358 L 157,360 L 156,360 L 155,361 L 154,361 L 152,363 L 151,363 L 149,365 L 148,365 L 145,368 L 144,368 L 140,372 L 139,372 L 123,388 L 123,389 L 119,393 L 119,394 L 118,395 L 118,396 L 116,398 L 116,399 L 115,400 L 115,401 L 114,402 L 114,403 L 113,404 L 113,405 L 112,406 L 112,408 L 111,409 L 111,410 L 110,411 L 110,413 L 109,414 L 109,418 L 108,419 L 108,422 L 107,423 L 107,429 L 106,430 L 106,435 L 104,437 L 103,437 L 94,446 L 94,447 L 90,451 L 90,452 L 88,454 L 88,455 L 86,457 L 86,458 L 84,460 L 84,461 L 83,462 L 83,463 L 82,464 L 82,465 L 81,466 L 81,467 L 80,468 L 80,470 L 79,471 L 79,473 L 78,474 L 78,476 L 77,477 L 77,481 L 76,482 L 76,489 L 75,490 L 75,495 L 74,496 L 74,500 L 73,501 L 73,504 L 72,505 L 72,507 L 71,508 L 71,510 L 70,511 L 70,512 L 69,513 L 69,514 L 68,515 L 68,516 L 66,518 L 66,519 L 57,528 L 56,528 L 55,529 L 54,529 L 53,530 L 53,532 L 56,535 L 57,535 L 58,536 L 59,536 L 60,537 L 61,537 L 62,538 L 64,538 L 65,539 L 68,539 L 69,540 L 73,540 L 74,541 L 72,543 L 72,544 L 71,545 L 71,546 L 70,547 L 70,548 L 69,549 L 69,550 L 68,551 L 68,553 L 67,554 L 67,556 L 66,557 L 66,560 L 65,561 L 65,571 L 64,572 L 64,573 L 65,574 L 65,583 L 66,584 L 66,589 L 67,590 L 67,594 L 68,595 L 68,605 L 67,606 L 67,608 L 65,610 L 65,611 L 64,612 L 63,612 L 60,615 L 58,615 L 58,616 L 59,616 L 60,617 L 65,617 L 66,618 L 68,618 L 69,617 L 73,617 L 74,616 L 75,616 L 76,615 L 77,615 L 80,612 L 81,613 L 81,620 L 80,621 L 80,626 L 79,627 L 79,630 L 78,631 L 78,633 L 77,634 L 77,635 L 76,636 L 76,638 L 74,640 L 74,641 L 73,642 L 73,643 L 69,647 L 68,647 L 65,650 L 67,652 L 68,652 L 70,654 L 72,654 L 73,655 L 75,655 L 76,656 L 87,656 L 88,655 L 90,655 L 91,654 L 92,654 L 93,655 L 93,660 L 92,661 L 92,668 L 91,669 L 91,672 L 90,673 L 90,676 L 89,677 L 89,679 L 88,680 L 88,682 L 87,683 L 87,684 L 86,685 L 86,686 L 85,687 L 85,688 L 84,689 L 84,690 L 82,692 L 82,693 L 80,695 L 79,695 L 79,696 L 94,696 L 95,695 L 96,695 L 97,696 L 77,716 L 77,717 L 74,720 L 74,721 L 72,723 L 72,724 L 71,725 L 71,727 L 70,728 L 70,732 L 69,733 L 69,763 L 68,764 L 68,773 L 67,774 L 67,782 L 66,783 L 66,791 L 65,792 L 65,801 L 64,802 L 64,809 L 63,810 L 63,819 L 62,820 L 62,828 L 61,829 L 61,841 L 60,842 L 60,860 L 61,861 L 61,867 L 62,868 L 62,871 L 63,872 L 63,875 L 64,876 L 64,878 L 65,879 L 65,880 L 66,881 L 66,882 L 67,883 L 67,884 L 68,885 L 68,886 L 71,889 L 71,890 L 77,896 L 78,896 L 80,898 L 81,898 L 82,899 L 83,899 L 84,900 L 85,900 L 86,901 L 87,901 L 88,902 L 91,902 L 92,903 L 97,903 L 98,904 L 115,904 L 116,903 L 118,903 L 119,902 L 120,902 L 121,903 L 126,903 L 127,904 L 135,904 L 136,903 L 140,903 L 141,902 L 143,902 L 144,901 L 145,901 L 146,900 L 153,900 L 154,899 L 155,899 L 156,898 L 157,898 L 159,896 L 159,895 L 160,894 L 160,893 L 161,892 L 161,888 L 162,887 L 162,878 L 161,877 L 161,873 L 160,872 L 160,870 L 159,869 L 159,866 L 158,865 L 158,864 L 157,863 L 157,862 L 156,861 L 156,860 L 154,858 L 154,857 L 147,850 L 146,850 L 144,848 L 143,848 L 142,847 L 141,847 L 140,846 L 138,846 L 137,845 L 136,845 L 135,844 L 134,844 L 133,843 L 132,843 L 127,838 L 127,835 L 126,834 L 126,813 L 127,812 L 127,802 L 128,801 L 128,796 L 129,795 L 129,791 L 130,790 L 130,787 L 131,786 L 131,785 L 132,784 L 132,782 L 133,781 L 133,779 L 134,778 L 134,777 L 135,776 L 135,775 L 136,774 L 136,773 L 137,772 L 137,771 L 138,770 L 138,769 L 140,767 L 140,766 L 141,765 L 141,764 L 143,762 L 143,761 L 147,757 L 147,756 L 151,752 L 151,751 L 171,731 L 172,731 L 177,726 L 178,726 L 182,722 L 183,722 L 185,720 L 186,720 L 188,718 L 189,718 L 191,716 L 192,716 L 194,714 L 195,714 L 197,712 L 198,712 L 199,711 L 200,712 L 200,713 L 199,714 L 199,715 L 198,716 L 198,717 L 197,718 L 197,719 L 196,720 L 196,721 L 195,722 L 195,723 L 194,724 L 194,726 L 193,727 L 193,730 L 192,731 L 192,745 L 193,746 L 193,750 L 194,751 L 194,753 L 195,754 L 195,756 L 196,757 L 196,759 L 197,760 L 197,761 L 198,762 L 198,764 L 199,765 L 199,766 L 200,767 L 200,769 L 201,770 L 201,772 L 202,773 L 202,775 L 203,776 L 203,778 L 204,779 L 204,782 L 205,783 L 205,784 L 206,785 L 206,788 L 207,789 L 207,791 L 208,792 L 208,794 L 209,795 L 209,797 L 210,798 L 210,800 L 211,801 L 211,803 L 212,804 L 212,806 L 213,807 L 213,809 L 214,810 L 214,812 L 215,813 L 215,815 L 216,816 L 216,818 L 217,819 L 217,821 L 218,822 L 218,824 L 219,825 L 219,826 L 220,827 L 220,829 L 221,830 L 221,832 L 222,833 L 222,834 L 223,835 L 223,836 L 224,837 L 224,838 L 225,839 L 225,841 L 227,843 L 227,844 L 228,845 L 228,846 L 229,847 L 229,848 L 231,850 L 231,851 L 234,854 L 234,855 L 241,862 L 242,862 L 245,865 L 246,865 L 247,866 L 248,866 L 249,867 L 250,867 L 251,868 L 252,868 L 253,869 L 255,869 L 256,870 L 259,870 L 260,871 L 266,871 L 267,872 L 285,872 L 286,871 L 290,871 L 291,870 L 294,870 L 295,869 L 296,869 L 297,868 L 298,869 L 313,869 L 314,868 L 316,868 L 317,867 L 318,867 L 319,866 L 320,866 L 322,864 L 323,864 L 324,863 L 324,862 L 325,861 L 325,849 L 324,848 L 324,844 L 323,843 L 323,841 L 322,840 L 322,838 L 321,837 L 321,836 L 320,835 L 320,834 L 319,833 L 319,832 L 318,831 L 318,830 L 309,821 L 308,821 L 307,820 L 306,820 L 305,819 L 304,819 L 303,818 L 301,818 L 300,817 L 296,817 L 295,816 L 288,816 L 287,815 L 284,815 L 283,814 L 282,814 L 276,808 L 276,807 L 274,805 L 274,804 L 273,803 L 273,802 L 272,801 L 272,799 L 271,798 L 271,797 L 270,796 L 270,793 L 269,792 L 269,790 L 268,789 L 268,787 L 267,786 L 267,784 L 266,783 L 266,780 L 265,779 L 265,775 L 264,774 L 264,767 L 263,766 L 263,758 L 264,757 L 264,751 L 265,750 L 265,747 L 266,746 L 266,743 L 267,742 L 267,740 L 268,739 L 268,737 L 270,735 L 270,733 L 272,731 L 272,730 L 273,729 L 273,728 L 275,726 L 275,725 L 277,723 L 277,722 L 280,719 L 280,718 L 306,692 L 307,692 L 321,678 L 321,677 L 325,673 L 325,672 L 329,668 L 329,667 L 332,664 L 332,663 L 334,661 L 334,660 L 336,658 L 336,657 L 337,656 L 337,655 L 338,654 L 338,653 L 339,652 L 339,651 L 341,649 L 341,648 L 342,647 L 342,645 L 343,644 L 343,643 L 344,642 L 344,640 L 345,639 L 345,638 L 346,637 L 346,634 L 347,633 L 347,631 L 348,630 L 348,626 L 349,625 L 349,611 L 350,610 L 351,611 L 352,611 L 353,612 L 354,612 L 355,613 L 356,613 L 357,614 L 359,614 L 360,615 L 364,615 L 365,616 L 369,616 L 368,615 L 368,614 L 365,611 L 365,610 L 364,609 L 364,608 L 363,607 L 363,604 L 364,603 L 366,605 L 365,606 L 366,607 L 367,606 L 368,607 L 369,607 L 376,614 L 377,614 L 380,617 L 381,617 L 390,626 L 393,623 L 393,622 L 394,621 L 394,619 L 395,618 L 395,616 L 396,615 L 396,613 L 397,612 L 405,620 L 406,620 L 408,622 L 409,622 L 410,623 L 411,623 L 413,625 L 414,625 L 415,626 L 416,626 L 417,627 L 419,627 L 420,628 L 421,628 L 422,629 L 424,629 L 425,630 L 427,630 L 428,631 L 430,631 L 431,632 L 433,632 L 434,633 L 438,633 L 439,634 L 443,634 L 444,635 L 446,635 L 447,636 L 449,636 L 450,637 L 452,637 L 453,638 L 454,638 L 455,639 L 456,639 L 458,641 L 459,641 L 460,642 L 461,642 L 471,652 L 471,653 L 472,654 L 472,655 L 473,656 L 473,657 L 474,658 L 474,660 L 475,661 L 474,662 L 475,662 L 477,660 L 477,659 L 479,657 L 479,656 L 480,655 L 480,654 L 481,653 L 481,651 L 482,650 L 482,648 L 483,647 L 484,647 L 490,653 L 491,653 L 493,655 L 494,655 L 496,657 L 497,657 L 498,658 L 499,658 L 500,659 L 501,659 L 502,660 L 503,660 L 504,661 L 505,661 L 506,662 L 508,662 L 509,663 L 510,663 L 510,662 L 509,661 L 509,660 L 508,659 L 508,658 L 509,657 L 512,660 L 513,660 L 515,662 L 516,662 L 517,663 L 518,663 L 519,664 L 521,664 L 522,665 L 523,665 L 524,666 L 526,666 L 527,667 L 529,667 L 530,668 L 533,668 L 534,669 L 538,669 L 539,670 L 544,670 L 545,671 L 548,671 L 544,667 L 544,666 L 542,664 L 542,663 L 541,662 L 542,661 L 543,661 L 544,662 L 545,662 L 546,663 L 547,663 L 548,664 L 550,664 L 551,665 L 551,666 L 552,667 L 551,668 L 552,669 L 551,668 L 553,666 L 555,666 L 556,665 L 560,665 L 561,664 L 563,664 L 564,665 L 563,666 L 563,667 L 562,668 L 562,671 L 561,672 L 561,683 L 560,684 L 560,686 L 561,687 L 561,696 L 562,697 L 562,701 L 563,702 L 563,704 L 564,705 L 564,707 L 565,708 L 565,710 L 566,711 L 566,712 L 567,713 L 567,714 L 568,715 L 568,716 L 569,717 L 569,718 L 570,719 L 570,720 L 571,721 L 571,722 L 573,720 L 574,721 L 574,722 L 574,721 L 573,720 L 574,719 L 574,718 L 575,717 L 576,718 L 576,737 L 575,738 L 575,743 L 574,744 L 574,745 L 573,746 L 573,747 L 572,748 L 572,749 L 569,752 L 568,752 L 567,753 L 566,753 L 565,754 L 563,754 L 563,755 L 564,755 L 567,758 L 568,758 L 569,759 L 571,759 L 572,760 L 573,760 L 574,761 L 587,761 L 589,759 L 590,760 L 590,762 L 589,763 L 589,766 L 588,767 L 588,769 L 587,770 L 587,772 L 586,773 L 586,774 L 585,775 L 585,776 L 583,778 L 583,779 L 580,782 L 580,783 L 577,786 L 576,786 L 574,788 L 573,788 L 574,789 L 575,789 L 576,790 L 578,790 L 579,791 L 581,791 L 582,792 L 598,792 L 599,791 L 602,791 L 603,792 L 603,793 L 602,794 L 602,806 L 601,807 L 601,812 L 600,813 L 600,816 L 599,817 L 599,818 L 598,819 L 598,820 L 594,824 L 593,824 L 594,825 L 597,825 L 598,826 L 609,826 L 610,825 L 611,825 L 612,824 L 613,824 L 614,823 L 615,823 L 616,824 L 615,825 L 616,826 L 616,829 L 617,830 L 617,832 L 618,833 L 618,834 L 619,835 L 619,836 L 620,837 L 620,838 L 621,839 L 621,840 L 622,841 L 622,842 L 623,843 L 623,844 L 624,845 L 624,846 L 625,847 L 625,849 L 626,850 L 626,851 L 627,852 L 627,855 L 628,856 L 628,859 L 629,860 L 629,863 L 630,864 L 630,869 L 631,870 L 631,873 L 632,874 L 632,877 L 633,878 L 633,881 L 634,882 L 634,884 L 635,885 L 635,886 L 636,887 L 636,889 L 637,890 L 637,891 L 638,892 L 638,893 L 639,894 L 639,895 L 641,897 L 641,898 L 643,900 L 643,901 L 650,908 L 651,908 L 653,910 L 654,910 L 655,911 L 656,911 L 657,912 L 658,912 L 659,913 L 661,913 L 662,914 L 664,914 L 665,915 L 669,915 L 670,916 L 678,916 L 679,917 L 686,917 L 687,916 L 693,916 L 694,915 L 696,915 L 697,914 L 698,914 L 699,915 L 718,915 L 719,914 L 721,914 L 722,913 L 723,913 L 724,912 L 726,912 L 727,911 L 728,911 L 729,910 L 732,910 L 733,909 L 734,909 L 735,908 L 736,908 L 737,907 L 737,906 L 739,904 L 739,902 L 740,901 L 740,892 L 741,891 L 742,891 L 743,892 L 748,892 L 749,893 L 758,893 L 759,892 L 765,892 L 766,891 L 769,891 L 770,890 L 772,890 L 773,889 L 786,889 L 787,888 L 789,888 L 790,887 L 792,887 L 794,885 L 795,885 L 798,882 L 798,881 L 799,880 L 799,868 L 798,867 L 798,864 L 797,863 L 797,860 L 796,859 L 796,857 L 795,856 L 795,855 L 794,854 L 794,853 L 793,852 L 793,851 L 791,849 L 791,848 L 788,845 L 788,844 L 787,844 L 783,840 L 782,840 L 780,838 L 779,838 L 778,837 L 777,837 L 776,836 L 774,836 L 773,835 L 770,835 L 769,834 L 757,834 L 755,832 L 754,832 L 751,829 L 751,828 L 748,825 L 748,824 L 746,822 L 746,821 L 745,820 L 745,819 L 744,818 L 744,817 L 743,816 L 743,814 L 742,813 L 742,811 L 741,810 L 741,806 L 740,805 L 740,798 L 739,797 L 739,789 L 740,788 L 740,772 L 741,771 L 741,760 L 742,759 L 742,750 L 743,749 L 743,740 L 744,739 L 744,730 L 745,729 L 745,722 L 746,721 L 746,714 L 747,713 L 747,707 L 748,706 L 748,701 L 749,700 L 749,694 L 750,693 L 750,688 L 751,687 L 751,682 L 752,681 L 752,676 L 753,675 L 753,671 L 754,670 L 754,666 L 755,665 L 755,662 L 756,661 L 756,658 L 757,657 L 757,656 L 762,651 L 763,651 L 766,648 L 767,648 L 770,645 L 771,645 L 775,641 L 776,641 L 784,633 L 785,633 L 788,630 L 788,629 L 795,622 L 795,621 L 797,619 L 797,618 L 799,616 L 799,615 L 801,613 L 802,613 L 803,614 L 804,614 L 806,616 L 807,616 L 808,617 L 810,617 L 811,618 L 814,618 L 815,619 L 818,619 L 819,620 L 819,619 L 818,618 L 818,617 L 817,616 L 817,607 L 818,606 L 818,603 L 819,602 L 819,601 L 820,600 L 820,598 L 822,596 L 822,595 L 834,583 L 835,583 L 837,581 L 837,580 L 842,575 L 842,574 L 844,572 L 844,571 L 845,570 L 845,569 L 846,568 L 846,567 L 847,566 L 847,565 L 848,564 L 848,562 L 849,561 L 849,559 L 850,558 L 850,556 L 851,555 L 851,552 L 852,551 L 852,545 L 853,544 L 853,538 L 854,537 L 855,538 L 855,540 L 856,541 L 856,543 L 855,544 L 855,546 L 855,544 L 856,543 L 857,544 L 857,546 L 858,546 L 861,543 L 861,542 L 863,540 L 863,539 L 864,538 L 864,537 L 866,535 L 866,534 L 867,533 L 867,532 L 868,531 L 868,529 L 869,528 L 869,527 L 870,526 L 870,525 L 871,524 L 871,522 L 872,521 L 872,519 L 873,518 L 873,516 L 874,515 L 874,513 L 875,512 L 875,508 L 876,507 L 876,500 L 877,499 L 877,491 L 876,490 L 876,482 L 875,481 L 875,477 L 876,476 L 877,476 L 879,478 L 880,478 L 881,479 L 882,479 L 883,480 L 884,480 L 885,481 L 892,481 L 893,480 L 894,480 L 895,479 L 896,479 L 897,478 L 895,478 L 894,477 L 893,477 L 892,476 L 891,476 L 886,471 L 886,470 L 884,468 L 884,467 L 883,466 L 883,465 L 882,464 L 882,462 L 881,461 L 881,457 L 880,456 L 880,417 L 881,416 L 882,417 L 882,418 L 884,420 L 884,421 L 885,422 L 885,423 L 886,424 L 886,425 L 887,426 L 887,427 L 888,428 L 888,430 L 889,431 L 889,432 L 889,431 L 890,430 L 890,429 L 892,427 L 892,425 L 893,424 L 893,422 L 894,421 L 894,419 L 895,418 L 895,412 L 896,411 L 896,401 L 895,400 L 895,395 L 894,394 L 894,390 L 893,389 L 893,386 L 892,385 L 892,383 L 891,382 L 891,380 L 890,379 L 890,378 L 889,377 L 889,375 L 888,374 L 888,373 L 887,372 L 887,371 L 886,370 L 886,369 L 887,368 L 888,369 L 889,368 L 893,368 L 894,367 L 896,367 L 897,366 L 898,366 L 899,365 L 900,365 L 901,364 L 902,364 L 905,361 L 905,360 L 904,360 L 903,359 L 901,359 L 900,358 L 899,358 L 898,357 L 897,357 L 896,356 L 895,356 L 893,354 L 892,354 L 889,351 L 888,351 L 885,348 L 885,347 L 881,343 L 881,342 L 880,341 L 880,340 L 879,339 L 879,338 L 878,337 L 878,335 L 877,334 L 877,332 L 876,331 L 876,326 L 875,325 L 875,315 L 876,314 L 876,309 L 877,308 L 877,306 L 878,305 L 886,305 L 887,304 L 894,304 L 895,305 L 909,305 L 910,306 L 934,306 L 935,305 L 937,305 L 938,304 L 940,304 L 941,303 L 942,303 L 943,302 L 945,302 L 946,301 L 947,301 L 948,300 L 949,300 L 951,298 L 952,298 L 954,296 L 955,296 L 963,288 L 963,287 L 966,284 L 966,283 L 968,281 L 969,281 L 970,280 L 971,280 L 974,277 L 975,277 L 975,276 L 980,271 L 980,270 L 982,268 L 982,267 L 983,266 L 983,264 L 984,263 L 984,260 L 985,259 L 985,256 L 990,251 L 990,250 L 992,248 L 992,247 L 994,245 L 994,244 L 995,243 L 995,242 L 996,241 L 996,239 L 997,238 L 997,234 L 998,233 L 998,231 L 997,230 L 997,227 L 996,226 L 996,225 L 991,220 L 990,220 L 988,218 L 987,218 L 986,217 L 985,217 L 984,216 L 983,216 L 982,215 L 981,215 L 980,214 L 978,214 L 977,213 L 976,213 L 975,212 L 973,212 L 972,211 L 971,211 L 970,210 L 968,210 L 967,209 L 966,209 L 965,208 L 963,208 L 962,207 L 960,207 L 959,206 L 957,206 L 956,205 L 954,205 L 953,204 L 952,204 L 951,203 L 949,203 L 948,202 L 946,202 L 945,201 L 944,201 L 943,200 L 942,200 L 941,199 L 939,199 L 938,198 L 937,198 L 936,197 L 934,197 L 933,196 L 932,196 L 931,195 L 930,195 L 929,194 L 928,194 L 926,192 L 925,192 L 923,190 L 922,190 L 920,188 L 919,188 L 915,184 L 915,180 L 916,179 L 916,172 L 917,171 L 916,170 L 916,163 L 915,162 L 915,161 L 914,160 L 914,159 L 913,158 L 913,157 L 912,156 L 912,155 L 909,152 L 909,151 L 907,149 L 906,149 L 901,144 L 901,143 L 899,141 L 899,140 L 895,136 L 895,135 L 891,131 L 890,131 L 884,125 L 883,125 L 881,123 L 880,123 L 878,121 L 877,121 L 876,120 L 875,120 L 874,119 L 873,119 L 872,118 L 871,118 L 870,117 L 869,117 L 868,116 L 867,116 L 866,115 L 864,115 L 863,114 L 862,114 L 861,113 L 860,113 L 859,112 L 861,110 L 862,111 L 861,110 L 861,109 L 863,107 L 857,107 L 856,108 L 852,108 L 851,109 L 848,109 L 847,110 L 846,110 L 845,109 L 846,108 L 846,104 L 845,103 L 845,101 L 839,107 L 838,107 L 837,108 L 836,108 L 834,110 L 832,110 L 831,111 L 829,111 L 828,112 L 823,112 L 822,111 L 821,111 L 820,110 L 819,110 L 818,109 L 817,109 L 815,107 L 814,107 L 813,106 L 812,106 L 811,105 L 809,105 L 808,104 L 807,104 L 806,103 L 803,103 L 802,102 L 795,102 L 794,101 Z" fill="black" /><path d="M 801,100 Z" fill="black" /><path d="M 784,99 L 789,99 Z" fill="black" /></svg>