<?xml version="1.0" encoding="utf-8" ?>
<svg baseProfile="full" height="1024" version="1.1" width="1024" xmlns="http://www.w3.org/2000/svg" xmlns:ev="http://www.w3.org/2001/xml-events" xmlns:xlink="http://www.w3.org/1999/xlink"><defs /><path d="M 718,151 L 717,152 L 710,152 L 709,153 L 704,153 L 703,154 L 700,154 L 699,155 L 696,155 L 695,156 L 692,156 L 691,157 L 689,157 L 688,158 L 686,158 L 685,159 L 683,159 L 682,160 L 681,160 L 680,161 L 678,161 L 677,162 L 676,162 L 675,163 L 673,163 L 672,164 L 671,164 L 670,165 L 669,165 L 668,166 L 667,166 L 665,168 L 664,168 L 663,169 L 662,169 L 660,171 L 659,171 L 657,173 L 656,173 L 654,175 L 653,175 L 649,179 L 648,179 L 636,191 L 636,192 L 629,199 L 629,200 L 624,205 L 624,206 L 621,209 L 621,210 L 617,214 L 617,215 L 615,217 L 615,218 L 612,221 L 612,222 L 610,224 L 610,225 L 608,227 L 608,228 L 607,229 L 607,230 L 605,232 L 605,233 L 604,234 L 604,235 L 602,237 L 602,238 L 601,239 L 601,240 L 600,241 L 600,242 L 598,244 L 598,245 L 597,246 L 597,247 L 596,248 L 596,249 L 595,250 L 595,251 L 594,252 L 594,254 L 593,255 L 593,256 L 592,257 L 592,258 L 591,259 L 591,260 L 590,261 L 590,263 L 589,264 L 589,265 L 588,266 L 588,268 L 587,269 L 587,271 L 586,272 L 586,274 L 585,275 L 585,277 L 584,278 L 584,280 L 583,281 L 583,284 L 582,285 L 582,287 L 581,288 L 581,291 L 580,292 L 580,295 L 579,296 L 579,298 L 578,299 L 578,300 L 577,301 L 577,302 L 576,303 L 576,304 L 575,305 L 575,306 L 574,307 L 574,308 L 573,309 L 573,310 L 572,311 L 572,312 L 570,314 L 570,315 L 569,316 L 569,317 L 567,319 L 567,320 L 565,322 L 565,323 L 563,325 L 563,326 L 559,330 L 559,331 L 551,339 L 551,340 L 548,343 L 547,343 L 540,350 L 539,350 L 536,353 L 535,353 L 533,355 L 532,355 L 530,357 L 529,357 L 527,359 L 526,359 L 525,360 L 524,360 L 523,361 L 522,361 L 521,362 L 520,362 L 519,363 L 517,363 L 516,364 L 515,364 L 514,365 L 512,365 L 511,366 L 509,366 L 508,367 L 506,367 L 505,368 L 503,368 L 502,369 L 499,369 L 498,370 L 495,370 L 494,371 L 490,371 L 489,372 L 485,372 L 484,373 L 480,373 L 479,374 L 474,374 L 473,375 L 467,375 L 466,376 L 458,376 L 457,377 L 447,377 L 446,378 L 429,378 L 428,379 L 402,379 L 401,378 L 369,378 L 368,377 L 367,378 L 366,377 L 340,377 L 339,378 L 314,378 L 313,379 L 302,379 L 301,380 L 292,380 L 291,381 L 285,381 L 284,382 L 279,382 L 278,383 L 273,383 L 272,384 L 267,384 L 266,385 L 259,385 L 258,384 L 257,384 L 256,383 L 255,383 L 253,381 L 252,381 L 249,378 L 248,378 L 240,370 L 240,369 L 237,366 L 237,365 L 235,363 L 235,362 L 234,361 L 234,360 L 233,359 L 233,357 L 232,356 L 232,355 L 231,354 L 231,352 L 230,351 L 230,349 L 229,348 L 229,346 L 228,345 L 228,342 L 227,341 L 227,338 L 226,337 L 226,334 L 225,333 L 225,328 L 224,327 L 224,321 L 223,320 L 223,291 L 224,290 L 224,284 L 225,283 L 225,280 L 226,279 L 226,275 L 227,274 L 227,272 L 228,271 L 228,269 L 229,268 L 229,265 L 230,264 L 230,262 L 231,261 L 231,259 L 232,258 L 232,256 L 233,255 L 233,253 L 234,252 L 234,251 L 235,250 L 235,248 L 236,247 L 236,246 L 237,245 L 237,243 L 238,242 L 238,241 L 239,240 L 239,239 L 240,238 L 240,236 L 241,235 L 241,234 L 242,233 L 242,232 L 243,231 L 243,230 L 244,229 L 244,228 L 246,226 L 246,225 L 247,224 L 247,223 L 249,221 L 249,220 L 250,219 L 250,218 L 252,216 L 252,215 L 255,212 L 255,211 L 258,208 L 258,207 L 262,203 L 262,202 L 264,200 L 264,199 L 266,197 L 266,196 L 268,194 L 268,193 L 269,192 L 269,191 L 270,190 L 270,189 L 272,187 L 272,186 L 273,185 L 273,184 L 274,183 L 274,180 L 275,179 L 275,170 L 274,169 L 274,167 L 273,166 L 273,165 L 272,164 L 272,163 L 271,162 L 271,161 L 269,159 L 269,158 L 267,156 L 266,156 L 264,154 L 263,154 L 262,153 L 260,153 L 259,152 L 246,152 L 245,153 L 242,153 L 241,154 L 239,154 L 238,155 L 236,155 L 235,156 L 234,156 L 233,157 L 232,157 L 231,158 L 230,158 L 229,159 L 228,159 L 227,160 L 226,160 L 225,161 L 224,161 L 222,163 L 221,163 L 218,166 L 217,166 L 215,168 L 214,168 L 210,172 L 209,172 L 201,180 L 200,180 L 200,181 L 188,193 L 188,194 L 185,197 L 185,198 L 182,201 L 182,202 L 179,205 L 179,206 L 177,208 L 177,209 L 176,210 L 176,211 L 174,213 L 174,214 L 172,216 L 172,217 L 171,218 L 171,219 L 170,220 L 170,221 L 169,222 L 169,223 L 168,224 L 168,225 L 167,226 L 167,227 L 166,228 L 166,230 L 165,231 L 165,232 L 164,233 L 164,234 L 163,235 L 163,237 L 162,238 L 162,240 L 161,241 L 161,243 L 160,244 L 160,247 L 159,248 L 159,250 L 158,251 L 158,254 L 157,255 L 157,259 L 156,260 L 156,264 L 155,265 L 155,270 L 154,271 L 154,277 L 153,278 L 153,287 L 152,288 L 152,323 L 153,324 L 153,331 L 154,332 L 154,337 L 155,338 L 155,343 L 156,344 L 156,348 L 157,349 L 157,352 L 158,353 L 158,355 L 159,356 L 159,359 L 160,360 L 160,362 L 161,363 L 161,366 L 162,367 L 162,369 L 163,370 L 163,372 L 164,373 L 164,375 L 165,376 L 165,377 L 166,378 L 166,380 L 167,381 L 167,383 L 168,384 L 168,385 L 169,386 L 169,387 L 170,388 L 170,390 L 171,391 L 171,392 L 172,393 L 172,394 L 173,395 L 173,396 L 174,397 L 174,399 L 175,400 L 175,401 L 176,402 L 176,403 L 177,404 L 177,405 L 178,406 L 178,407 L 179,408 L 179,409 L 180,410 L 180,411 L 181,412 L 181,413 L 182,414 L 182,415 L 183,416 L 183,417 L 184,418 L 184,419 L 185,420 L 185,422 L 186,423 L 186,427 L 185,428 L 185,430 L 184,431 L 184,432 L 183,433 L 183,434 L 181,436 L 181,437 L 179,439 L 179,440 L 177,442 L 177,443 L 173,447 L 173,448 L 170,451 L 170,452 L 167,455 L 167,456 L 165,458 L 165,459 L 163,461 L 163,462 L 162,463 L 162,464 L 161,465 L 161,466 L 160,467 L 160,468 L 159,469 L 159,470 L 158,471 L 158,472 L 157,473 L 157,474 L 156,475 L 156,476 L 155,477 L 155,479 L 154,480 L 154,481 L 153,482 L 153,484 L 152,485 L 152,487 L 151,488 L 151,490 L 150,491 L 150,494 L 149,495 L 149,497 L 148,498 L 148,502 L 147,503 L 147,507 L 146,508 L 146,512 L 145,513 L 145,520 L 144,521 L 144,543 L 143,544 L 143,575 L 142,576 L 142,591 L 141,592 L 141,600 L 140,601 L 140,607 L 139,608 L 139,613 L 138,614 L 138,619 L 137,620 L 137,623 L 136,624 L 136,627 L 135,628 L 135,631 L 134,632 L 134,634 L 133,635 L 133,638 L 132,639 L 132,641 L 131,642 L 131,644 L 130,645 L 130,646 L 129,647 L 129,649 L 128,650 L 128,651 L 127,652 L 127,654 L 126,655 L 126,656 L 125,657 L 125,658 L 124,659 L 124,660 L 122,662 L 122,663 L 121,664 L 121,665 L 118,668 L 118,669 L 106,681 L 105,681 L 101,685 L 101,686 L 99,688 L 99,689 L 98,690 L 98,691 L 97,692 L 97,694 L 96,695 L 96,710 L 95,711 L 95,731 L 94,732 L 94,746 L 93,747 L 93,759 L 92,760 L 92,768 L 91,769 L 91,777 L 90,778 L 90,784 L 89,785 L 89,791 L 88,792 L 88,798 L 87,799 L 87,809 L 86,810 L 86,823 L 87,824 L 87,828 L 88,829 L 88,831 L 89,832 L 89,834 L 90,835 L 90,836 L 91,837 L 91,838 L 96,843 L 97,843 L 99,845 L 100,845 L 102,847 L 103,847 L 104,848 L 106,848 L 107,849 L 109,849 L 110,850 L 114,850 L 115,851 L 130,851 L 131,852 L 140,852 L 141,853 L 150,853 L 151,852 L 158,852 L 159,851 L 162,851 L 163,850 L 164,850 L 165,849 L 167,849 L 169,847 L 170,847 L 174,843 L 174,842 L 175,841 L 175,840 L 176,839 L 176,836 L 177,835 L 177,825 L 176,824 L 176,820 L 175,819 L 175,817 L 174,816 L 174,815 L 173,814 L 173,813 L 172,812 L 172,811 L 171,810 L 171,809 L 169,807 L 169,806 L 166,803 L 166,802 L 163,799 L 162,799 L 158,795 L 158,794 L 157,793 L 157,790 L 156,789 L 156,777 L 157,776 L 157,772 L 158,771 L 158,768 L 159,767 L 159,760 L 160,759 L 160,749 L 161,748 L 161,745 L 162,744 L 162,742 L 163,741 L 163,739 L 164,738 L 164,737 L 165,736 L 165,735 L 167,733 L 167,732 L 168,731 L 168,730 L 172,726 L 172,725 L 186,711 L 187,711 L 194,704 L 195,704 L 199,700 L 200,700 L 205,695 L 206,695 L 211,690 L 212,690 L 218,684 L 219,684 L 231,672 L 232,672 L 232,671 L 246,657 L 246,656 L 252,650 L 252,649 L 257,644 L 258,645 L 258,646 L 257,647 L 257,648 L 256,649 L 256,650 L 255,651 L 255,652 L 254,653 L 254,654 L 253,655 L 253,656 L 252,657 L 252,658 L 251,659 L 251,660 L 249,662 L 249,663 L 248,664 L 248,665 L 246,667 L 246,668 L 241,673 L 241,674 L 232,683 L 232,684 L 230,686 L 230,687 L 228,689 L 228,691 L 227,692 L 227,694 L 226,695 L 226,713 L 227,714 L 227,719 L 228,720 L 228,724 L 229,725 L 229,729 L 230,730 L 230,734 L 231,735 L 231,739 L 232,740 L 232,743 L 233,744 L 233,748 L 234,749 L 234,752 L 235,753 L 235,757 L 236,758 L 236,762 L 237,763 L 237,766 L 238,767 L 238,771 L 239,772 L 239,775 L 240,776 L 240,780 L 241,781 L 241,785 L 242,786 L 242,790 L 243,791 L 243,795 L 244,796 L 244,798 L 245,799 L 245,801 L 246,802 L 246,804 L 247,805 L 247,806 L 248,807 L 248,808 L 249,809 L 249,810 L 251,812 L 251,813 L 257,819 L 258,819 L 260,821 L 261,821 L 262,822 L 263,822 L 264,823 L 266,823 L 267,824 L 270,824 L 271,825 L 278,825 L 279,826 L 314,826 L 315,825 L 317,825 L 318,824 L 319,824 L 320,823 L 321,823 L 323,821 L 324,821 L 328,817 L 328,816 L 330,814 L 330,810 L 331,809 L 330,808 L 330,801 L 329,800 L 329,798 L 328,797 L 328,796 L 327,795 L 327,794 L 326,793 L 326,792 L 324,790 L 324,789 L 322,787 L 321,787 L 318,784 L 317,784 L 316,783 L 315,783 L 314,782 L 312,782 L 311,781 L 308,781 L 307,780 L 302,780 L 301,779 L 298,779 L 297,778 L 296,778 L 295,777 L 294,777 L 290,773 L 290,772 L 289,771 L 289,770 L 288,769 L 288,767 L 287,766 L 287,764 L 286,763 L 286,760 L 285,759 L 285,753 L 284,752 L 284,745 L 283,744 L 283,735 L 284,734 L 284,727 L 285,726 L 285,723 L 286,722 L 286,721 L 287,720 L 287,718 L 288,717 L 288,716 L 289,715 L 289,714 L 291,712 L 291,711 L 296,706 L 296,705 L 315,686 L 316,686 L 318,684 L 318,683 L 327,674 L 327,673 L 332,668 L 332,667 L 335,664 L 335,663 L 338,660 L 338,659 L 340,657 L 340,656 L 342,654 L 342,653 L 344,651 L 344,650 L 345,649 L 345,648 L 347,646 L 347,645 L 348,644 L 348,643 L 349,642 L 349,641 L 350,640 L 350,639 L 352,637 L 352,636 L 353,635 L 353,633 L 354,632 L 354,631 L 355,630 L 355,629 L 356,628 L 356,626 L 357,625 L 357,624 L 358,623 L 358,621 L 359,620 L 359,618 L 360,617 L 360,615 L 361,614 L 361,612 L 362,611 L 362,608 L 363,607 L 363,604 L 364,603 L 364,599 L 365,598 L 366,598 L 367,599 L 368,599 L 369,600 L 370,600 L 371,601 L 372,601 L 374,603 L 375,603 L 376,604 L 377,604 L 378,605 L 379,605 L 380,606 L 381,606 L 383,608 L 384,608 L 385,609 L 386,609 L 387,610 L 388,610 L 390,612 L 391,612 L 392,613 L 393,613 L 395,615 L 396,615 L 398,617 L 399,617 L 400,618 L 401,618 L 402,619 L 403,619 L 405,621 L 406,621 L 407,622 L 408,622 L 410,624 L 411,624 L 412,625 L 413,625 L 415,627 L 416,627 L 417,628 L 418,628 L 419,629 L 420,629 L 421,630 L 422,630 L 423,631 L 424,631 L 425,632 L 426,632 L 427,633 L 428,633 L 429,634 L 430,634 L 431,635 L 432,635 L 433,636 L 434,636 L 435,637 L 436,637 L 437,638 L 439,638 L 440,639 L 441,639 L 442,640 L 444,640 L 445,641 L 446,641 L 447,642 L 448,642 L 449,643 L 451,643 L 452,644 L 453,644 L 454,645 L 456,645 L 457,646 L 458,646 L 459,647 L 461,647 L 462,648 L 464,648 L 465,649 L 467,649 L 468,650 L 470,650 L 471,651 L 473,651 L 474,652 L 476,652 L 477,653 L 480,653 L 481,654 L 483,654 L 484,655 L 487,655 L 488,656 L 492,656 L 493,657 L 496,657 L 497,658 L 500,658 L 501,659 L 505,659 L 506,660 L 510,660 L 511,661 L 511,667 L 512,668 L 512,675 L 513,676 L 513,683 L 514,684 L 514,692 L 515,693 L 515,701 L 516,702 L 516,711 L 517,712 L 517,721 L 518,722 L 518,734 L 519,735 L 519,753 L 520,754 L 520,797 L 521,798 L 521,801 L 522,802 L 522,803 L 523,804 L 523,805 L 524,806 L 524,807 L 525,808 L 525,809 L 527,811 L 527,812 L 529,814 L 529,815 L 530,816 L 530,817 L 531,818 L 531,819 L 532,820 L 532,822 L 533,823 L 533,826 L 534,827 L 534,833 L 535,834 L 535,841 L 536,842 L 536,848 L 537,849 L 537,855 L 538,856 L 538,860 L 539,861 L 539,864 L 540,865 L 540,866 L 541,867 L 541,868 L 542,869 L 542,870 L 548,876 L 549,876 L 550,877 L 551,877 L 552,878 L 553,878 L 554,879 L 555,879 L 556,880 L 558,880 L 559,881 L 561,881 L 562,882 L 565,882 L 566,883 L 571,883 L 572,884 L 579,884 L 580,885 L 609,885 L 610,884 L 614,884 L 615,883 L 618,883 L 619,882 L 621,882 L 622,881 L 623,881 L 624,880 L 625,880 L 626,879 L 627,879 L 628,878 L 629,878 L 631,876 L 632,876 L 633,875 L 633,874 L 636,871 L 636,869 L 637,868 L 637,855 L 636,854 L 636,851 L 635,850 L 635,848 L 634,847 L 634,846 L 633,845 L 633,844 L 631,842 L 631,841 L 623,833 L 622,833 L 620,831 L 619,831 L 618,830 L 616,830 L 615,829 L 614,829 L 613,828 L 611,828 L 609,826 L 608,826 L 606,824 L 606,823 L 605,822 L 605,821 L 604,820 L 604,816 L 603,815 L 603,810 L 602,809 L 602,801 L 601,800 L 601,780 L 602,779 L 602,755 L 603,754 L 603,741 L 604,740 L 604,730 L 605,729 L 605,719 L 606,718 L 606,710 L 607,709 L 607,702 L 608,701 L 608,695 L 609,694 L 609,687 L 610,686 L 610,682 L 611,681 L 611,676 L 612,675 L 612,672 L 613,671 L 613,668 L 614,667 L 614,665 L 615,664 L 616,664 L 618,662 L 619,662 L 620,661 L 621,661 L 622,660 L 624,660 L 625,659 L 626,659 L 627,658 L 629,658 L 630,657 L 633,657 L 634,656 L 637,656 L 638,655 L 641,655 L 642,654 L 644,654 L 645,655 L 645,689 L 646,690 L 646,710 L 647,711 L 647,729 L 648,730 L 648,748 L 649,749 L 649,772 L 650,773 L 650,776 L 651,777 L 651,779 L 652,780 L 652,781 L 653,782 L 653,783 L 654,784 L 654,785 L 656,787 L 656,788 L 659,791 L 659,792 L 663,796 L 663,797 L 664,798 L 664,799 L 665,800 L 665,801 L 666,802 L 666,804 L 667,805 L 667,808 L 668,809 L 668,812 L 669,813 L 669,818 L 670,819 L 670,824 L 671,825 L 671,828 L 672,829 L 672,833 L 673,834 L 673,836 L 674,837 L 674,838 L 675,839 L 675,841 L 676,842 L 676,843 L 677,844 L 677,845 L 680,848 L 680,849 L 681,850 L 682,850 L 685,853 L 686,853 L 688,855 L 689,855 L 690,856 L 692,856 L 693,857 L 695,857 L 696,858 L 698,858 L 699,859 L 703,859 L 704,860 L 713,860 L 714,861 L 731,861 L 732,860 L 745,860 L 746,859 L 761,859 L 762,858 L 764,858 L 765,857 L 766,857 L 767,856 L 768,856 L 772,852 L 772,851 L 774,849 L 774,848 L 775,847 L 775,835 L 774,834 L 774,831 L 773,830 L 773,828 L 772,827 L 772,825 L 771,824 L 771,823 L 770,822 L 770,821 L 769,820 L 769,819 L 767,817 L 767,816 L 765,814 L 765,813 L 761,809 L 760,809 L 757,806 L 756,806 L 755,805 L 754,805 L 753,804 L 751,804 L 750,803 L 749,803 L 748,802 L 745,802 L 744,801 L 741,801 L 740,800 L 737,800 L 736,799 L 734,799 L 733,798 L 732,798 L 729,795 L 729,794 L 728,793 L 728,792 L 727,791 L 727,790 L 726,789 L 726,787 L 725,786 L 725,784 L 724,783 L 724,780 L 723,779 L 723,775 L 722,774 L 722,767 L 721,766 L 721,737 L 722,736 L 722,722 L 723,721 L 723,712 L 724,711 L 724,703 L 725,702 L 725,695 L 726,694 L 726,688 L 727,687 L 727,682 L 728,681 L 728,675 L 729,674 L 729,669 L 730,668 L 730,663 L 731,662 L 731,657 L 732,656 L 732,651 L 733,650 L 733,645 L 734,644 L 734,638 L 735,637 L 735,629 L 736,628 L 736,624 L 737,623 L 737,619 L 738,618 L 738,616 L 739,615 L 739,613 L 740,612 L 740,611 L 741,610 L 741,608 L 742,607 L 742,606 L 743,605 L 743,604 L 744,603 L 744,602 L 745,601 L 745,600 L 746,599 L 746,598 L 747,597 L 747,596 L 748,595 L 748,594 L 749,593 L 749,592 L 750,591 L 750,590 L 751,589 L 751,587 L 752,586 L 752,585 L 753,584 L 753,583 L 754,582 L 754,581 L 755,580 L 755,578 L 756,577 L 756,575 L 757,574 L 757,572 L 758,571 L 758,570 L 759,569 L 759,566 L 760,565 L 760,563 L 761,562 L 761,559 L 762,558 L 762,555 L 763,554 L 763,550 L 764,549 L 764,544 L 765,543 L 765,536 L 766,535 L 766,526 L 767,525 L 767,503 L 766,502 L 766,491 L 765,490 L 765,482 L 764,481 L 764,473 L 763,472 L 763,465 L 762,464 L 762,458 L 763,457 L 763,450 L 764,449 L 764,444 L 765,443 L 765,438 L 766,437 L 766,434 L 767,433 L 767,430 L 768,429 L 768,426 L 769,425 L 769,423 L 770,422 L 770,419 L 771,418 L 771,416 L 772,415 L 772,413 L 773,412 L 773,411 L 774,410 L 774,408 L 775,407 L 775,406 L 776,405 L 776,404 L 777,403 L 777,402 L 778,401 L 778,400 L 779,399 L 779,398 L 780,397 L 780,396 L 782,394 L 782,393 L 785,390 L 785,389 L 790,384 L 791,385 L 791,387 L 792,388 L 792,390 L 793,391 L 793,392 L 796,395 L 796,396 L 797,396 L 800,399 L 801,399 L 803,401 L 804,401 L 805,402 L 806,402 L 807,403 L 809,403 L 810,404 L 813,404 L 814,405 L 819,405 L 820,404 L 823,404 L 824,403 L 826,403 L 828,401 L 829,401 L 832,398 L 832,397 L 834,395 L 834,393 L 835,392 L 835,391 L 836,390 L 836,387 L 837,386 L 837,384 L 836,383 L 837,382 L 851,382 L 852,381 L 859,381 L 860,380 L 864,380 L 865,379 L 867,379 L 868,378 L 870,378 L 871,377 L 872,377 L 873,376 L 874,376 L 875,375 L 876,375 L 877,374 L 887,374 L 888,373 L 890,373 L 891,372 L 893,372 L 894,371 L 896,371 L 897,370 L 898,370 L 899,369 L 900,369 L 901,368 L 902,368 L 903,367 L 904,367 L 905,366 L 906,366 L 908,364 L 909,364 L 915,358 L 915,357 L 917,355 L 917,353 L 918,352 L 918,350 L 919,349 L 919,346 L 920,345 L 920,342 L 921,341 L 921,338 L 922,337 L 922,334 L 923,333 L 923,330 L 924,329 L 924,310 L 926,308 L 926,307 L 927,306 L 927,305 L 928,304 L 928,302 L 929,301 L 929,299 L 930,298 L 930,295 L 931,294 L 931,291 L 932,290 L 932,278 L 931,277 L 931,275 L 930,274 L 930,273 L 928,271 L 928,270 L 923,265 L 922,265 L 921,264 L 920,264 L 919,263 L 918,263 L 917,262 L 916,262 L 915,261 L 913,261 L 912,260 L 911,260 L 910,259 L 909,259 L 908,258 L 906,258 L 905,257 L 904,257 L 903,256 L 901,256 L 900,255 L 899,255 L 898,254 L 897,254 L 896,253 L 894,253 L 893,252 L 892,252 L 891,251 L 889,251 L 888,250 L 887,250 L 886,249 L 884,249 L 883,248 L 882,248 L 881,247 L 879,247 L 878,246 L 877,246 L 876,245 L 874,245 L 873,244 L 872,244 L 871,243 L 869,243 L 868,242 L 867,242 L 866,241 L 864,241 L 863,240 L 862,240 L 861,239 L 861,238 L 860,237 L 860,236 L 859,235 L 859,234 L 858,233 L 858,230 L 857,229 L 857,227 L 856,226 L 856,223 L 855,222 L 855,219 L 854,218 L 854,216 L 853,215 L 853,214 L 852,213 L 852,211 L 851,210 L 851,209 L 850,208 L 850,207 L 849,206 L 849,205 L 848,204 L 848,203 L 846,201 L 846,200 L 843,197 L 843,196 L 835,188 L 834,188 L 829,183 L 828,183 L 824,179 L 823,179 L 819,175 L 818,175 L 816,173 L 815,173 L 813,171 L 812,171 L 810,169 L 809,169 L 807,167 L 806,167 L 804,165 L 803,165 L 802,164 L 801,164 L 800,163 L 799,163 L 798,162 L 797,162 L 796,161 L 795,161 L 794,160 L 793,160 L 792,159 L 790,159 L 789,158 L 788,158 L 787,157 L 785,157 L 784,156 L 781,156 L 780,155 L 777,155 L 776,154 L 772,154 L 771,153 L 765,153 L 764,152 L 755,152 L 754,151 Z" fill="black" /></svg>