<?xml version="1.0" encoding="utf-8" ?>
<svg baseProfile="full" height="1024" version="1.1" width="1024" xmlns="http://www.w3.org/2000/svg" xmlns:ev="http://www.w3.org/2001/xml-events" xmlns:xlink="http://www.w3.org/1999/xlink"><defs /><path d="M 861,428 Z" fill="black" /><path d="M 714,133 L 713,134 L 707,134 L 706,135 L 702,135 L 701,136 L 699,136 L 698,137 L 696,137 L 695,138 L 693,138 L 692,139 L 690,139 L 689,140 L 687,140 L 686,141 L 685,141 L 684,142 L 682,142 L 681,143 L 679,143 L 678,144 L 677,144 L 676,145 L 675,145 L 674,146 L 672,146 L 671,147 L 669,147 L 668,148 L 667,148 L 666,149 L 665,149 L 664,150 L 662,150 L 661,151 L 660,151 L 659,152 L 658,152 L 657,153 L 655,153 L 654,154 L 653,154 L 652,155 L 651,155 L 650,156 L 649,156 L 648,157 L 647,157 L 645,159 L 644,159 L 641,162 L 641,163 L 640,164 L 640,165 L 639,166 L 639,167 L 638,168 L 638,169 L 637,170 L 637,174 L 636,175 L 636,183 L 637,184 L 637,187 L 638,188 L 638,190 L 639,191 L 639,192 L 640,193 L 640,194 L 641,195 L 641,196 L 642,197 L 642,198 L 646,202 L 646,203 L 647,203 L 656,212 L 656,213 L 659,216 L 659,217 L 660,218 L 660,219 L 657,222 L 657,223 L 651,229 L 651,230 L 648,233 L 648,234 L 646,236 L 646,237 L 644,239 L 644,240 L 642,242 L 642,243 L 641,244 L 641,245 L 639,247 L 639,248 L 638,249 L 638,250 L 637,251 L 637,252 L 636,253 L 636,254 L 635,255 L 635,256 L 633,258 L 633,259 L 632,260 L 632,261 L 631,262 L 631,263 L 630,264 L 630,265 L 629,266 L 629,267 L 628,268 L 628,269 L 627,270 L 627,271 L 626,272 L 626,273 L 625,274 L 625,275 L 624,276 L 624,277 L 623,278 L 623,279 L 622,280 L 622,282 L 621,283 L 621,284 L 620,285 L 620,286 L 619,287 L 619,288 L 618,289 L 618,290 L 617,291 L 617,292 L 616,293 L 616,294 L 615,295 L 615,296 L 614,297 L 614,298 L 612,300 L 612,301 L 611,302 L 611,303 L 609,305 L 609,306 L 607,308 L 607,309 L 604,312 L 604,313 L 594,323 L 593,323 L 590,326 L 589,326 L 586,329 L 585,329 L 583,331 L 582,331 L 581,332 L 580,332 L 579,333 L 578,333 L 576,335 L 575,335 L 574,336 L 573,336 L 572,337 L 571,337 L 570,338 L 568,338 L 567,339 L 566,339 L 565,340 L 564,340 L 563,341 L 561,341 L 560,342 L 558,342 L 557,343 L 555,343 L 554,344 L 552,344 L 551,345 L 549,345 L 548,346 L 546,346 L 545,347 L 542,347 L 541,348 L 538,348 L 537,349 L 532,349 L 531,350 L 525,350 L 524,351 L 511,351 L 510,352 L 467,352 L 466,351 L 465,351 L 464,352 L 463,351 L 435,351 L 434,350 L 409,350 L 408,349 L 383,349 L 382,350 L 364,350 L 363,351 L 354,351 L 353,352 L 346,352 L 345,353 L 340,353 L 339,354 L 336,354 L 335,355 L 330,355 L 329,356 L 325,356 L 324,357 L 321,357 L 320,358 L 318,358 L 317,359 L 314,359 L 313,360 L 311,360 L 310,361 L 308,361 L 307,362 L 305,362 L 304,363 L 302,363 L 301,364 L 299,364 L 298,365 L 297,365 L 296,366 L 294,366 L 293,367 L 292,367 L 291,368 L 289,368 L 288,369 L 287,369 L 286,370 L 285,370 L 284,371 L 283,371 L 282,372 L 281,372 L 280,373 L 278,373 L 277,374 L 276,374 L 275,375 L 274,375 L 273,376 L 272,376 L 271,377 L 270,377 L 269,378 L 268,378 L 267,379 L 266,379 L 265,380 L 264,380 L 263,381 L 262,381 L 261,382 L 260,382 L 258,384 L 257,384 L 256,385 L 255,385 L 253,387 L 252,387 L 250,389 L 249,389 L 247,391 L 246,391 L 244,393 L 243,393 L 240,396 L 239,396 L 234,401 L 233,401 L 223,411 L 223,412 L 214,421 L 214,422 L 209,427 L 209,428 L 205,432 L 205,433 L 202,436 L 202,437 L 200,439 L 200,440 L 198,442 L 198,443 L 196,445 L 196,446 L 195,447 L 195,448 L 193,450 L 193,451 L 192,452 L 192,453 L 191,454 L 191,455 L 190,456 L 190,457 L 189,458 L 189,459 L 188,460 L 188,461 L 187,462 L 187,464 L 186,465 L 186,466 L 185,467 L 185,468 L 184,469 L 184,470 L 183,471 L 183,473 L 182,474 L 182,475 L 181,476 L 181,477 L 180,478 L 180,480 L 179,481 L 179,483 L 178,484 L 178,486 L 177,487 L 177,488 L 176,489 L 176,491 L 175,492 L 175,495 L 174,496 L 174,498 L 173,499 L 173,500 L 172,501 L 172,504 L 171,505 L 171,507 L 170,508 L 170,509 L 169,510 L 169,513 L 168,514 L 168,516 L 167,517 L 167,519 L 166,520 L 166,522 L 165,523 L 165,525 L 164,526 L 164,528 L 163,529 L 163,530 L 162,531 L 162,533 L 161,534 L 161,535 L 160,536 L 160,538 L 159,539 L 159,540 L 158,541 L 158,542 L 157,543 L 157,545 L 156,546 L 156,547 L 155,548 L 155,549 L 153,551 L 153,552 L 152,553 L 152,554 L 151,555 L 151,556 L 150,557 L 150,558 L 149,559 L 149,560 L 148,561 L 148,562 L 146,564 L 146,565 L 145,566 L 145,567 L 143,569 L 143,570 L 140,573 L 140,574 L 138,576 L 138,577 L 134,581 L 134,582 L 128,588 L 128,589 L 127,590 L 126,590 L 120,596 L 119,596 L 116,599 L 115,599 L 113,601 L 112,601 L 111,602 L 110,602 L 109,603 L 108,603 L 107,604 L 106,604 L 105,605 L 104,605 L 103,606 L 100,606 L 99,607 L 97,607 L 96,608 L 90,608 L 89,609 L 82,609 L 81,608 L 76,608 L 75,607 L 73,607 L 72,606 L 71,606 L 70,605 L 69,605 L 68,606 L 68,609 L 69,610 L 69,613 L 70,614 L 70,617 L 71,618 L 71,620 L 72,621 L 72,622 L 73,623 L 73,625 L 74,626 L 74,627 L 76,629 L 76,630 L 77,631 L 77,632 L 80,635 L 80,636 L 84,640 L 84,641 L 88,645 L 89,645 L 93,649 L 94,649 L 96,651 L 97,651 L 99,653 L 100,653 L 101,654 L 102,654 L 103,655 L 103,656 L 102,657 L 91,657 L 90,656 L 86,656 L 85,657 L 85,659 L 86,660 L 86,661 L 88,663 L 88,664 L 92,668 L 92,669 L 99,676 L 100,676 L 103,679 L 104,679 L 106,681 L 107,681 L 109,683 L 110,683 L 111,684 L 112,684 L 113,685 L 114,685 L 115,686 L 117,686 L 118,687 L 120,687 L 121,688 L 124,688 L 125,689 L 128,689 L 129,690 L 137,690 L 138,691 L 147,691 L 148,690 L 159,690 L 160,689 L 164,689 L 165,688 L 168,688 L 169,687 L 171,687 L 172,686 L 173,686 L 174,685 L 176,685 L 177,684 L 178,684 L 179,685 L 178,686 L 178,687 L 177,688 L 177,689 L 175,691 L 175,692 L 174,693 L 174,694 L 173,695 L 173,696 L 172,697 L 172,699 L 171,700 L 171,701 L 170,702 L 170,704 L 169,705 L 169,708 L 168,709 L 168,711 L 167,712 L 167,716 L 166,717 L 166,721 L 165,722 L 165,727 L 164,728 L 164,733 L 163,734 L 163,739 L 162,740 L 162,745 L 161,746 L 161,751 L 160,752 L 160,757 L 159,758 L 159,765 L 158,766 L 158,780 L 157,781 L 157,812 L 158,813 L 158,818 L 159,819 L 159,823 L 160,824 L 160,827 L 161,828 L 161,830 L 162,831 L 162,833 L 163,834 L 163,835 L 164,836 L 164,837 L 165,838 L 165,839 L 170,844 L 171,844 L 173,846 L 174,846 L 175,847 L 176,847 L 177,848 L 179,848 L 180,849 L 181,849 L 182,850 L 185,850 L 186,851 L 188,851 L 189,852 L 194,852 L 195,853 L 222,853 L 223,852 L 232,852 L 233,851 L 235,851 L 236,850 L 238,850 L 239,849 L 240,849 L 242,847 L 243,847 L 245,845 L 245,844 L 247,842 L 247,841 L 248,840 L 248,839 L 249,838 L 249,823 L 248,822 L 248,820 L 247,819 L 247,817 L 246,816 L 246,815 L 244,813 L 244,812 L 240,808 L 239,808 L 236,805 L 234,805 L 233,804 L 232,804 L 231,803 L 229,803 L 228,802 L 226,802 L 225,801 L 224,801 L 221,798 L 221,797 L 220,796 L 220,793 L 219,792 L 219,783 L 218,782 L 218,780 L 219,779 L 219,769 L 220,768 L 220,763 L 221,762 L 221,758 L 222,757 L 222,754 L 223,753 L 223,750 L 224,749 L 224,747 L 225,746 L 225,744 L 226,743 L 226,741 L 227,740 L 227,739 L 228,738 L 228,736 L 229,735 L 229,734 L 230,733 L 230,732 L 231,731 L 231,730 L 232,729 L 232,728 L 234,726 L 234,725 L 236,723 L 236,722 L 239,719 L 239,718 L 247,710 L 248,710 L 252,706 L 253,706 L 254,705 L 255,705 L 257,703 L 258,703 L 260,701 L 261,701 L 262,700 L 263,700 L 265,698 L 266,698 L 267,697 L 268,697 L 269,696 L 271,696 L 272,695 L 273,695 L 275,693 L 276,693 L 277,692 L 278,692 L 279,691 L 280,691 L 281,690 L 282,690 L 284,688 L 285,688 L 286,687 L 287,687 L 289,685 L 290,685 L 291,684 L 292,684 L 294,682 L 295,682 L 297,680 L 298,680 L 299,679 L 300,679 L 302,677 L 303,677 L 306,674 L 307,674 L 308,675 L 305,678 L 305,679 L 303,681 L 303,682 L 301,684 L 301,685 L 300,686 L 300,687 L 298,689 L 298,690 L 296,692 L 296,693 L 294,695 L 294,696 L 293,697 L 293,699 L 292,700 L 292,701 L 291,702 L 291,704 L 290,705 L 290,710 L 289,711 L 289,726 L 290,727 L 290,741 L 291,742 L 291,749 L 292,750 L 292,756 L 293,757 L 293,762 L 294,763 L 294,768 L 295,769 L 295,774 L 296,775 L 296,779 L 297,780 L 297,785 L 298,786 L 298,790 L 299,791 L 299,795 L 300,796 L 300,799 L 301,800 L 301,803 L 302,804 L 302,806 L 303,807 L 303,808 L 304,809 L 304,810 L 305,811 L 305,812 L 312,819 L 313,819 L 316,822 L 317,822 L 318,823 L 319,823 L 320,824 L 321,824 L 322,825 L 323,825 L 324,826 L 326,826 L 327,827 L 329,827 L 330,828 L 334,828 L 335,829 L 339,829 L 340,830 L 344,830 L 345,831 L 370,831 L 371,830 L 378,830 L 379,829 L 383,829 L 384,828 L 385,828 L 390,823 L 390,822 L 392,820 L 392,814 L 393,813 L 393,812 L 392,811 L 392,806 L 391,805 L 391,803 L 390,802 L 390,801 L 389,800 L 389,799 L 388,798 L 388,797 L 382,791 L 381,791 L 380,790 L 379,790 L 378,789 L 377,789 L 376,788 L 374,788 L 373,787 L 372,787 L 371,786 L 370,786 L 369,785 L 367,785 L 366,784 L 365,784 L 364,783 L 363,783 L 361,781 L 360,781 L 357,778 L 356,778 L 353,775 L 353,774 L 351,772 L 351,771 L 350,770 L 350,768 L 349,767 L 349,766 L 348,765 L 348,763 L 347,762 L 347,759 L 346,758 L 346,752 L 345,751 L 345,730 L 346,729 L 346,724 L 347,723 L 347,720 L 348,719 L 348,717 L 349,716 L 349,714 L 350,713 L 350,711 L 351,710 L 351,709 L 352,708 L 352,707 L 353,706 L 353,705 L 355,703 L 355,702 L 357,700 L 357,699 L 365,691 L 366,691 L 372,685 L 373,685 L 386,672 L 387,672 L 398,661 L 398,660 L 406,652 L 406,651 L 410,647 L 410,646 L 413,643 L 413,642 L 416,639 L 416,638 L 418,636 L 418,635 L 420,633 L 420,632 L 423,629 L 423,628 L 424,627 L 424,626 L 426,624 L 426,623 L 427,622 L 427,621 L 429,619 L 429,618 L 430,617 L 430,616 L 431,615 L 431,614 L 433,612 L 433,611 L 434,610 L 434,609 L 435,608 L 435,607 L 437,605 L 438,606 L 438,607 L 445,614 L 445,615 L 449,619 L 450,619 L 457,626 L 458,626 L 461,629 L 462,629 L 464,631 L 465,631 L 467,633 L 468,633 L 469,634 L 470,634 L 472,636 L 473,636 L 474,637 L 475,637 L 476,638 L 477,638 L 478,639 L 480,639 L 481,640 L 482,640 L 483,641 L 485,641 L 486,642 L 488,642 L 489,643 L 492,643 L 493,644 L 497,644 L 498,645 L 513,645 L 515,647 L 515,648 L 517,650 L 517,651 L 521,655 L 521,656 L 528,663 L 527,664 L 527,666 L 526,667 L 526,669 L 525,670 L 525,674 L 524,675 L 524,681 L 523,682 L 523,696 L 524,697 L 524,703 L 525,704 L 525,708 L 526,709 L 526,711 L 527,712 L 527,714 L 528,715 L 528,716 L 529,717 L 529,718 L 530,719 L 530,720 L 531,720 L 532,719 L 533,719 L 536,716 L 537,717 L 537,721 L 538,722 L 538,727 L 539,728 L 539,733 L 540,734 L 540,738 L 541,739 L 541,743 L 542,744 L 542,747 L 541,748 L 541,749 L 540,750 L 540,751 L 539,752 L 539,754 L 538,755 L 539,756 L 539,758 L 540,759 L 539,760 L 539,762 L 533,768 L 533,769 L 532,770 L 532,773 L 536,777 L 537,777 L 539,779 L 540,779 L 541,780 L 542,780 L 543,781 L 544,781 L 545,782 L 546,782 L 547,783 L 548,783 L 549,784 L 551,784 L 552,785 L 554,785 L 555,786 L 563,786 L 564,787 L 562,789 L 560,789 L 560,790 L 558,792 L 557,792 L 555,794 L 554,794 L 553,795 L 550,795 L 549,796 L 550,796 L 552,798 L 553,798 L 554,799 L 555,799 L 556,800 L 558,800 L 559,801 L 562,801 L 563,802 L 569,802 L 570,801 L 571,801 L 573,803 L 573,805 L 574,806 L 574,807 L 575,808 L 575,810 L 576,811 L 576,813 L 577,814 L 577,817 L 578,818 L 578,820 L 579,821 L 579,823 L 580,824 L 580,827 L 581,828 L 581,830 L 582,831 L 582,833 L 583,834 L 583,837 L 584,838 L 584,840 L 585,841 L 585,843 L 586,844 L 586,846 L 587,847 L 587,849 L 588,850 L 588,851 L 589,852 L 589,853 L 590,854 L 590,855 L 591,856 L 591,857 L 593,859 L 593,860 L 601,868 L 602,868 L 604,870 L 605,870 L 606,871 L 607,871 L 608,872 L 609,872 L 610,873 L 612,873 L 613,874 L 615,874 L 616,875 L 620,875 L 621,876 L 650,876 L 651,875 L 660,875 L 661,874 L 666,874 L 667,873 L 669,873 L 671,871 L 672,871 L 674,869 L 675,869 L 683,861 L 683,860 L 684,859 L 684,858 L 685,857 L 685,845 L 684,844 L 684,842 L 683,841 L 683,840 L 682,839 L 682,838 L 681,837 L 681,836 L 679,834 L 679,833 L 671,825 L 670,825 L 668,823 L 667,823 L 666,822 L 665,822 L 664,821 L 662,821 L 661,820 L 659,820 L 658,819 L 656,819 L 655,818 L 652,818 L 651,817 L 651,816 L 650,815 L 650,812 L 649,811 L 649,807 L 648,806 L 648,802 L 647,801 L 647,795 L 646,794 L 646,774 L 647,773 L 647,765 L 648,764 L 648,747 L 649,746 L 649,742 L 650,741 L 650,740 L 651,739 L 651,738 L 653,736 L 654,737 L 654,738 L 653,739 L 653,741 L 652,742 L 652,751 L 653,752 L 653,754 L 654,755 L 654,756 L 655,757 L 655,758 L 660,763 L 662,763 L 663,764 L 663,765 L 662,766 L 662,767 L 660,769 L 660,770 L 658,772 L 658,778 L 659,779 L 659,780 L 660,781 L 660,782 L 663,785 L 664,785 L 665,786 L 667,786 L 668,787 L 676,787 L 677,788 L 677,789 L 678,790 L 678,793 L 679,794 L 679,797 L 680,798 L 680,801 L 681,802 L 681,804 L 682,805 L 682,807 L 683,808 L 683,811 L 684,812 L 684,814 L 685,815 L 685,817 L 686,818 L 686,819 L 687,820 L 687,822 L 688,823 L 688,824 L 689,825 L 689,826 L 690,827 L 690,828 L 691,829 L 691,830 L 692,831 L 692,832 L 694,834 L 694,835 L 703,844 L 704,844 L 706,846 L 707,846 L 708,847 L 709,847 L 710,848 L 711,848 L 712,849 L 713,849 L 714,850 L 715,850 L 716,851 L 718,851 L 719,852 L 721,852 L 722,853 L 724,853 L 725,854 L 730,854 L 731,855 L 757,855 L 758,854 L 767,854 L 768,853 L 773,853 L 774,852 L 775,852 L 776,851 L 778,851 L 780,849 L 781,849 L 784,846 L 785,846 L 785,845 L 787,843 L 787,842 L 788,841 L 788,840 L 789,839 L 789,830 L 788,829 L 788,827 L 787,826 L 787,825 L 786,824 L 786,823 L 785,822 L 785,821 L 784,820 L 784,819 L 783,818 L 783,817 L 780,814 L 780,813 L 775,808 L 774,808 L 771,805 L 770,805 L 769,804 L 768,804 L 767,803 L 766,803 L 765,802 L 764,802 L 763,801 L 761,801 L 760,800 L 756,800 L 755,799 L 743,799 L 741,797 L 741,795 L 740,794 L 740,793 L 739,792 L 739,790 L 738,789 L 738,786 L 737,785 L 737,783 L 736,782 L 736,778 L 735,777 L 735,767 L 734,766 L 734,733 L 735,732 L 735,717 L 736,716 L 736,706 L 737,705 L 737,699 L 738,698 L 738,692 L 739,691 L 739,686 L 740,685 L 740,681 L 741,680 L 741,675 L 742,674 L 742,669 L 743,668 L 743,664 L 744,663 L 744,659 L 745,658 L 745,657 L 746,656 L 746,655 L 747,654 L 747,652 L 748,651 L 748,650 L 751,647 L 751,646 L 764,633 L 764,632 L 773,623 L 773,622 L 779,616 L 779,615 L 783,611 L 783,610 L 789,604 L 789,603 L 793,599 L 793,598 L 798,593 L 798,592 L 801,589 L 801,588 L 803,586 L 803,585 L 806,582 L 806,581 L 808,579 L 808,578 L 809,577 L 809,576 L 811,574 L 811,573 L 813,571 L 813,570 L 814,569 L 814,568 L 815,567 L 815,566 L 816,565 L 816,564 L 817,563 L 817,562 L 818,561 L 818,560 L 819,559 L 819,557 L 820,556 L 820,554 L 821,553 L 821,551 L 822,550 L 822,548 L 823,547 L 823,544 L 824,543 L 824,539 L 825,538 L 825,532 L 826,531 L 826,526 L 827,525 L 829,527 L 829,528 L 834,533 L 835,532 L 835,530 L 836,529 L 836,527 L 837,526 L 837,523 L 838,522 L 838,518 L 839,517 L 839,514 L 840,513 L 840,508 L 841,507 L 841,503 L 842,502 L 842,497 L 843,496 L 843,489 L 844,488 L 844,461 L 843,460 L 843,454 L 842,453 L 842,450 L 841,449 L 841,447 L 840,446 L 840,444 L 839,443 L 839,442 L 840,441 L 841,441 L 842,440 L 844,440 L 845,439 L 846,439 L 847,438 L 849,438 L 850,437 L 851,437 L 852,436 L 853,436 L 854,435 L 855,435 L 857,433 L 858,433 L 860,431 L 861,431 L 861,430 L 860,430 L 859,429 L 858,429 L 856,427 L 855,427 L 853,425 L 852,425 L 846,419 L 845,419 L 844,418 L 844,417 L 839,412 L 839,411 L 836,408 L 836,407 L 834,405 L 834,404 L 833,403 L 833,402 L 832,401 L 832,400 L 831,399 L 831,398 L 830,397 L 830,396 L 829,395 L 829,394 L 828,393 L 828,391 L 827,390 L 827,387 L 826,386 L 826,383 L 825,382 L 825,377 L 824,376 L 824,370 L 825,369 L 825,368 L 829,364 L 830,364 L 831,363 L 834,363 L 835,362 L 848,362 L 849,363 L 880,363 L 881,362 L 888,362 L 889,361 L 893,361 L 894,360 L 897,360 L 898,359 L 899,359 L 900,358 L 901,358 L 902,357 L 903,357 L 904,356 L 905,356 L 907,354 L 908,354 L 910,352 L 911,352 L 919,344 L 919,343 L 922,340 L 922,339 L 925,336 L 925,335 L 927,333 L 927,332 L 929,330 L 929,329 L 931,327 L 931,326 L 932,325 L 932,324 L 933,323 L 933,322 L 934,321 L 934,320 L 935,319 L 935,318 L 936,317 L 936,316 L 937,315 L 937,313 L 938,312 L 938,311 L 939,310 L 939,308 L 940,307 L 940,306 L 941,305 L 941,304 L 944,301 L 944,300 L 945,299 L 945,298 L 947,296 L 947,294 L 948,293 L 948,285 L 947,284 L 947,283 L 946,282 L 946,281 L 944,279 L 944,278 L 942,276 L 941,276 L 939,274 L 938,274 L 937,273 L 936,273 L 935,272 L 934,272 L 933,271 L 930,271 L 929,270 L 928,270 L 927,269 L 926,269 L 925,268 L 923,268 L 922,267 L 920,267 L 919,266 L 918,266 L 917,265 L 915,265 L 914,264 L 913,264 L 912,263 L 911,263 L 910,262 L 908,262 L 907,261 L 906,261 L 905,260 L 903,260 L 902,259 L 901,259 L 900,258 L 898,258 L 897,257 L 896,257 L 895,256 L 893,256 L 892,255 L 891,255 L 890,254 L 888,254 L 887,253 L 886,253 L 885,252 L 884,252 L 883,251 L 882,251 L 881,250 L 880,250 L 878,248 L 877,248 L 875,246 L 874,246 L 867,239 L 867,238 L 866,237 L 866,236 L 865,235 L 865,233 L 864,232 L 864,228 L 863,227 L 863,217 L 862,216 L 862,214 L 861,213 L 861,212 L 860,211 L 860,209 L 859,208 L 859,207 L 858,206 L 858,205 L 856,203 L 856,202 L 854,200 L 854,199 L 846,191 L 846,187 L 848,185 L 849,185 L 850,184 L 853,184 L 854,185 L 856,185 L 857,186 L 858,186 L 859,187 L 860,187 L 861,188 L 864,188 L 865,187 L 874,187 L 875,186 L 876,186 L 877,185 L 878,185 L 879,184 L 879,183 L 881,181 L 881,180 L 882,179 L 881,178 L 881,176 L 872,167 L 871,167 L 867,163 L 866,163 L 863,160 L 862,160 L 859,157 L 858,157 L 856,155 L 855,155 L 853,153 L 852,153 L 850,151 L 849,151 L 848,150 L 847,150 L 846,149 L 845,149 L 844,148 L 843,148 L 842,147 L 841,147 L 840,146 L 838,146 L 837,145 L 835,145 L 834,144 L 832,144 L 831,143 L 827,143 L 826,142 L 805,142 L 804,143 L 799,143 L 798,144 L 796,144 L 795,145 L 793,145 L 792,146 L 791,146 L 790,147 L 788,147 L 786,149 L 785,149 L 784,150 L 783,150 L 781,152 L 780,152 L 777,155 L 777,156 L 775,158 L 775,159 L 774,160 L 774,162 L 773,163 L 760,163 L 759,162 L 759,161 L 757,159 L 757,158 L 756,157 L 756,156 L 755,155 L 755,154 L 754,153 L 754,152 L 753,151 L 753,150 L 752,149 L 752,148 L 748,144 L 748,143 L 747,143 L 744,140 L 743,140 L 741,138 L 740,138 L 739,137 L 737,137 L 736,136 L 734,136 L 733,135 L 731,135 L 730,134 L 724,134 L 723,133 Z" fill="black" /></svg>