<?xml version="1.0" encoding="utf-8" ?>
<svg baseProfile="full" height="1024" version="1.1" width="1024" xmlns="http://www.w3.org/2000/svg" xmlns:ev="http://www.w3.org/2001/xml-events" xmlns:xlink="http://www.w3.org/1999/xlink"><defs /><path d="M 744,837 L 744,839 Z" fill="black" /><path d="M 103,796 Z" fill="black" /><path d="M 765,719 Z" fill="black" /><path d="M 774,149 L 773,150 L 760,150 L 759,151 L 751,151 L 750,152 L 746,152 L 745,153 L 742,153 L 741,154 L 738,154 L 737,155 L 735,155 L 734,156 L 732,156 L 731,157 L 729,157 L 728,158 L 726,158 L 725,159 L 724,159 L 723,160 L 722,160 L 721,161 L 720,161 L 719,162 L 718,162 L 716,164 L 715,164 L 709,170 L 708,170 L 707,171 L 707,172 L 705,174 L 705,175 L 704,176 L 704,177 L 703,178 L 703,179 L 702,180 L 702,185 L 703,186 L 703,187 L 704,188 L 704,189 L 705,190 L 705,192 L 706,193 L 706,195 L 707,196 L 707,199 L 708,200 L 708,203 L 709,204 L 709,208 L 702,215 L 702,216 L 698,220 L 698,221 L 695,224 L 695,225 L 693,227 L 693,228 L 691,230 L 691,231 L 689,233 L 689,234 L 688,235 L 688,236 L 686,238 L 686,239 L 685,240 L 685,241 L 684,242 L 684,243 L 682,245 L 682,246 L 681,247 L 681,248 L 680,249 L 680,250 L 679,251 L 679,252 L 678,253 L 678,254 L 677,255 L 677,256 L 676,257 L 676,258 L 675,259 L 675,260 L 674,261 L 674,262 L 673,263 L 673,264 L 672,265 L 672,266 L 671,267 L 671,268 L 670,269 L 670,270 L 669,271 L 669,273 L 668,274 L 668,275 L 667,276 L 667,277 L 666,278 L 666,279 L 665,280 L 665,281 L 664,282 L 664,283 L 663,284 L 663,285 L 662,286 L 662,287 L 661,288 L 661,289 L 660,290 L 660,291 L 658,293 L 658,294 L 657,295 L 657,296 L 655,298 L 655,299 L 653,301 L 653,302 L 651,304 L 651,305 L 647,309 L 647,310 L 639,318 L 638,318 L 634,322 L 633,322 L 631,324 L 630,324 L 629,325 L 628,325 L 627,326 L 626,326 L 624,328 L 622,328 L 621,329 L 620,329 L 619,330 L 618,330 L 617,331 L 616,331 L 615,332 L 614,332 L 613,333 L 611,333 L 610,334 L 609,334 L 608,335 L 607,335 L 606,336 L 604,336 L 603,337 L 602,337 L 601,338 L 599,338 L 598,339 L 597,339 L 596,340 L 594,340 L 593,341 L 591,341 L 590,342 L 589,342 L 588,343 L 586,343 L 585,344 L 583,344 L 582,345 L 581,345 L 580,346 L 578,346 L 577,347 L 575,347 L 574,348 L 573,348 L 572,349 L 570,349 L 569,350 L 566,350 L 565,351 L 563,351 L 562,352 L 560,352 L 559,353 L 556,353 L 555,354 L 552,354 L 551,355 L 547,355 L 546,356 L 545,355 L 544,356 L 542,356 L 541,357 L 535,357 L 534,358 L 524,358 L 523,359 L 514,359 L 513,360 L 498,360 L 497,361 L 431,361 L 430,362 L 405,362 L 404,363 L 392,363 L 391,364 L 384,364 L 383,365 L 376,365 L 375,366 L 369,366 L 368,367 L 363,367 L 362,368 L 357,368 L 356,369 L 352,369 L 351,370 L 346,370 L 345,371 L 340,371 L 339,372 L 336,372 L 335,373 L 331,373 L 330,374 L 327,374 L 326,375 L 323,375 L 322,376 L 321,376 L 320,377 L 318,377 L 317,378 L 315,378 L 314,379 L 313,379 L 312,380 L 310,380 L 309,381 L 308,381 L 307,382 L 306,382 L 305,383 L 304,383 L 303,384 L 302,384 L 301,385 L 300,385 L 298,387 L 297,387 L 296,388 L 295,388 L 294,389 L 292,389 L 291,388 L 290,388 L 289,387 L 288,387 L 287,386 L 286,386 L 285,385 L 284,385 L 283,384 L 282,384 L 281,383 L 279,383 L 278,382 L 277,382 L 276,381 L 275,381 L 274,380 L 272,380 L 271,379 L 269,379 L 268,378 L 266,378 L 265,377 L 263,377 L 262,376 L 246,376 L 245,377 L 243,377 L 242,378 L 241,378 L 240,379 L 239,379 L 238,380 L 237,380 L 235,382 L 234,382 L 231,385 L 231,386 L 229,388 L 229,390 L 228,391 L 228,394 L 227,395 L 228,396 L 228,402 L 229,403 L 229,404 L 230,405 L 230,406 L 231,407 L 231,408 L 234,411 L 234,412 L 239,417 L 240,417 L 243,420 L 244,420 L 246,422 L 247,422 L 248,423 L 249,423 L 250,424 L 251,424 L 252,425 L 253,425 L 254,426 L 254,427 L 251,430 L 251,431 L 248,434 L 248,435 L 246,437 L 246,438 L 244,440 L 244,441 L 242,443 L 242,444 L 240,446 L 240,447 L 239,448 L 239,449 L 238,450 L 238,451 L 237,452 L 237,453 L 235,455 L 235,456 L 234,457 L 234,459 L 233,460 L 233,461 L 232,462 L 232,463 L 231,464 L 231,465 L 230,466 L 230,468 L 229,469 L 229,471 L 228,472 L 228,474 L 227,475 L 227,476 L 226,477 L 226,480 L 225,481 L 225,484 L 224,485 L 224,488 L 223,489 L 223,493 L 222,494 L 222,499 L 221,500 L 221,504 L 220,505 L 221,506 L 220,507 L 220,513 L 219,514 L 219,521 L 218,522 L 219,523 L 218,524 L 218,528 L 217,529 L 217,530 L 218,531 L 217,532 L 217,538 L 216,539 L 216,543 L 215,544 L 215,549 L 214,550 L 214,553 L 213,554 L 213,557 L 212,558 L 212,560 L 211,561 L 211,563 L 210,564 L 210,567 L 209,568 L 209,570 L 208,571 L 208,573 L 207,574 L 207,576 L 206,577 L 206,578 L 205,579 L 205,581 L 204,582 L 204,583 L 203,584 L 203,586 L 202,587 L 202,588 L 201,589 L 201,590 L 200,591 L 200,592 L 199,593 L 199,594 L 198,595 L 198,596 L 197,597 L 197,598 L 196,599 L 196,600 L 195,601 L 195,602 L 194,603 L 194,604 L 193,605 L 193,606 L 191,608 L 191,609 L 189,611 L 189,612 L 187,614 L 187,615 L 186,616 L 186,617 L 183,620 L 183,621 L 181,623 L 181,624 L 177,628 L 177,629 L 173,633 L 173,634 L 164,643 L 164,644 L 161,647 L 160,647 L 149,658 L 148,658 L 144,662 L 143,662 L 140,665 L 139,665 L 137,667 L 136,667 L 134,669 L 133,669 L 130,672 L 129,672 L 125,676 L 125,677 L 123,679 L 123,681 L 122,682 L 122,687 L 121,688 L 121,692 L 120,693 L 120,701 L 119,702 L 119,709 L 118,710 L 118,716 L 117,717 L 117,723 L 116,724 L 116,731 L 115,732 L 115,738 L 114,739 L 114,745 L 113,746 L 113,752 L 112,753 L 112,758 L 111,759 L 111,765 L 110,766 L 110,772 L 109,773 L 109,779 L 108,780 L 108,784 L 107,785 L 107,789 L 106,790 L 106,794 L 105,795 L 105,813 L 106,814 L 106,817 L 107,818 L 107,820 L 108,821 L 108,823 L 109,824 L 109,825 L 110,826 L 110,827 L 112,829 L 112,830 L 117,835 L 118,835 L 119,836 L 120,836 L 121,837 L 124,837 L 125,838 L 128,838 L 129,839 L 164,839 L 165,838 L 169,838 L 170,837 L 172,837 L 174,835 L 175,835 L 176,834 L 177,834 L 178,833 L 178,832 L 180,830 L 180,828 L 181,827 L 181,811 L 180,810 L 180,805 L 179,804 L 179,802 L 178,801 L 178,799 L 177,798 L 177,797 L 176,796 L 176,795 L 174,793 L 174,792 L 171,789 L 170,789 L 169,788 L 168,788 L 167,787 L 166,787 L 165,786 L 163,786 L 162,785 L 156,785 L 155,784 L 155,781 L 156,780 L 156,775 L 157,774 L 157,770 L 158,769 L 158,766 L 159,765 L 159,761 L 160,760 L 160,756 L 161,755 L 161,752 L 162,751 L 162,749 L 163,748 L 163,745 L 164,744 L 164,742 L 165,741 L 165,739 L 166,738 L 166,737 L 167,736 L 167,734 L 168,733 L 168,732 L 169,731 L 169,730 L 170,729 L 170,728 L 171,727 L 171,726 L 172,725 L 172,724 L 173,723 L 173,722 L 174,721 L 174,720 L 175,719 L 175,718 L 177,716 L 177,715 L 179,713 L 179,712 L 180,711 L 180,710 L 183,707 L 183,706 L 186,703 L 186,702 L 193,695 L 193,694 L 197,690 L 198,690 L 204,684 L 205,684 L 209,680 L 210,680 L 212,678 L 213,678 L 215,676 L 216,676 L 218,674 L 219,674 L 220,673 L 221,673 L 223,671 L 224,671 L 226,669 L 227,669 L 228,668 L 229,668 L 230,667 L 231,667 L 232,666 L 233,666 L 234,665 L 235,665 L 236,664 L 237,664 L 238,663 L 239,663 L 240,662 L 241,662 L 242,661 L 243,661 L 244,660 L 245,660 L 246,659 L 247,659 L 248,658 L 249,658 L 250,657 L 251,657 L 252,656 L 253,656 L 255,654 L 256,654 L 257,653 L 258,653 L 260,651 L 261,651 L 263,649 L 264,649 L 266,647 L 267,647 L 270,644 L 271,644 L 274,641 L 275,641 L 280,636 L 281,636 L 288,629 L 289,630 L 289,631 L 288,632 L 288,633 L 287,634 L 287,635 L 286,636 L 286,637 L 285,638 L 285,639 L 283,641 L 283,642 L 281,644 L 281,645 L 279,647 L 279,648 L 273,654 L 273,655 L 264,664 L 263,664 L 253,674 L 252,674 L 247,679 L 247,680 L 246,681 L 246,691 L 247,692 L 247,694 L 248,695 L 248,697 L 249,698 L 249,699 L 250,700 L 250,702 L 251,703 L 251,704 L 252,705 L 252,706 L 253,707 L 253,708 L 254,709 L 254,710 L 255,711 L 255,713 L 256,714 L 256,715 L 257,716 L 257,718 L 258,719 L 258,720 L 259,721 L 259,723 L 260,724 L 260,726 L 261,727 L 261,729 L 262,730 L 262,732 L 263,733 L 263,735 L 264,736 L 264,738 L 265,739 L 265,741 L 266,742 L 266,743 L 267,744 L 267,746 L 268,747 L 268,749 L 269,750 L 269,752 L 270,753 L 270,754 L 271,755 L 271,757 L 272,758 L 272,759 L 273,760 L 273,762 L 274,763 L 274,765 L 275,766 L 275,767 L 276,768 L 276,769 L 277,770 L 277,772 L 278,773 L 278,774 L 279,775 L 279,776 L 280,777 L 280,779 L 281,780 L 281,781 L 282,782 L 282,783 L 283,784 L 283,785 L 284,786 L 284,787 L 285,788 L 285,789 L 286,790 L 286,791 L 287,792 L 287,793 L 288,794 L 288,795 L 289,796 L 289,797 L 290,798 L 290,799 L 291,800 L 291,801 L 292,802 L 292,803 L 293,804 L 293,805 L 295,807 L 295,808 L 302,815 L 303,815 L 304,816 L 307,816 L 308,817 L 311,817 L 312,818 L 320,818 L 321,819 L 336,819 L 337,820 L 349,820 L 350,819 L 356,819 L 357,818 L 359,818 L 360,817 L 361,817 L 365,813 L 365,811 L 366,810 L 366,799 L 365,798 L 365,794 L 364,793 L 364,791 L 363,790 L 363,788 L 362,787 L 362,786 L 361,785 L 361,784 L 360,783 L 360,782 L 358,780 L 358,779 L 355,776 L 354,776 L 351,773 L 350,773 L 349,772 L 348,772 L 347,771 L 345,771 L 344,770 L 342,770 L 341,769 L 339,769 L 338,768 L 331,768 L 330,767 L 325,767 L 324,766 L 322,766 L 321,765 L 320,765 L 318,763 L 318,762 L 317,761 L 317,758 L 316,757 L 316,753 L 315,752 L 315,750 L 314,749 L 314,746 L 313,745 L 313,742 L 312,741 L 312,738 L 311,737 L 311,735 L 310,734 L 310,731 L 309,730 L 309,725 L 308,724 L 308,715 L 309,714 L 309,710 L 310,709 L 310,707 L 311,706 L 311,705 L 312,704 L 312,703 L 313,702 L 313,701 L 315,699 L 315,698 L 318,695 L 318,694 L 324,688 L 324,687 L 332,679 L 333,679 L 344,668 L 345,668 L 351,662 L 352,662 L 360,654 L 361,654 L 377,638 L 377,637 L 382,632 L 382,631 L 385,628 L 385,627 L 388,624 L 388,623 L 390,621 L 390,620 L 392,618 L 392,617 L 393,616 L 393,615 L 394,614 L 394,613 L 396,611 L 396,610 L 397,609 L 397,608 L 398,607 L 398,606 L 399,605 L 399,604 L 400,603 L 400,602 L 401,601 L 401,599 L 402,598 L 402,597 L 403,596 L 403,594 L 404,593 L 404,591 L 405,590 L 405,588 L 406,587 L 406,586 L 407,585 L 407,582 L 408,581 L 408,579 L 409,578 L 409,576 L 410,575 L 410,572 L 411,571 L 411,569 L 412,568 L 412,565 L 413,564 L 413,561 L 414,560 L 414,558 L 415,557 L 415,554 L 416,553 L 416,550 L 417,549 L 417,546 L 418,545 L 418,543 L 419,542 L 419,541 L 420,540 L 420,539 L 421,538 L 421,537 L 422,536 L 422,535 L 427,530 L 428,530 L 429,529 L 432,529 L 433,528 L 437,528 L 438,529 L 443,529 L 444,530 L 447,530 L 448,531 L 450,531 L 451,532 L 452,532 L 453,533 L 455,533 L 456,534 L 457,534 L 458,535 L 459,535 L 460,536 L 461,536 L 462,537 L 463,537 L 464,538 L 465,538 L 466,539 L 467,539 L 468,540 L 469,540 L 470,541 L 471,541 L 473,543 L 474,543 L 475,544 L 476,544 L 478,546 L 479,546 L 480,547 L 481,547 L 483,549 L 484,549 L 485,550 L 486,550 L 488,552 L 489,552 L 490,553 L 491,553 L 493,555 L 494,555 L 495,556 L 496,556 L 498,558 L 499,558 L 500,559 L 501,559 L 502,560 L 503,560 L 504,561 L 505,561 L 507,563 L 508,563 L 509,564 L 510,564 L 511,565 L 512,565 L 513,566 L 514,566 L 515,567 L 516,567 L 517,568 L 518,568 L 519,569 L 520,569 L 521,570 L 522,570 L 523,571 L 525,571 L 526,572 L 527,572 L 528,573 L 529,573 L 530,574 L 532,574 L 533,575 L 534,575 L 535,576 L 537,576 L 538,577 L 539,577 L 540,578 L 542,578 L 543,579 L 545,579 L 546,580 L 548,580 L 549,581 L 551,581 L 552,582 L 554,582 L 555,583 L 557,583 L 558,584 L 561,584 L 562,585 L 565,585 L 566,586 L 568,586 L 569,587 L 573,587 L 574,588 L 578,588 L 579,589 L 583,589 L 584,590 L 591,590 L 592,591 L 601,591 L 602,592 L 603,591 L 604,591 L 605,592 L 620,592 L 621,593 L 621,595 L 622,596 L 622,597 L 624,599 L 624,600 L 627,603 L 627,604 L 628,605 L 628,606 L 629,607 L 629,608 L 630,609 L 630,610 L 631,611 L 631,614 L 632,615 L 632,617 L 633,618 L 633,622 L 634,623 L 634,635 L 635,636 L 635,662 L 636,663 L 636,676 L 637,677 L 637,685 L 638,686 L 638,687 L 637,688 L 638,689 L 638,698 L 639,699 L 639,709 L 640,710 L 640,728 L 641,729 L 640,730 L 641,731 L 641,773 L 642,774 L 642,777 L 643,778 L 643,779 L 644,780 L 644,781 L 645,782 L 645,783 L 646,783 L 647,784 L 648,784 L 649,785 L 650,785 L 651,786 L 652,786 L 653,787 L 653,789 L 654,790 L 654,792 L 655,793 L 655,795 L 656,796 L 656,798 L 657,799 L 657,801 L 658,802 L 658,805 L 659,806 L 659,809 L 660,810 L 660,813 L 661,814 L 661,818 L 662,819 L 662,823 L 663,824 L 663,829 L 664,830 L 664,832 L 665,833 L 665,834 L 666,835 L 666,836 L 667,837 L 667,838 L 668,839 L 668,840 L 674,846 L 675,846 L 677,848 L 679,848 L 680,849 L 681,849 L 682,850 L 684,850 L 685,851 L 688,851 L 689,852 L 695,852 L 696,853 L 712,853 L 713,854 L 714,854 L 715,853 L 716,854 L 733,854 L 734,853 L 736,853 L 737,852 L 738,852 L 739,851 L 740,851 L 741,850 L 741,845 L 742,844 L 742,832 L 741,831 L 741,827 L 740,826 L 740,823 L 741,822 L 742,823 L 743,823 L 745,825 L 747,825 L 748,826 L 749,826 L 750,827 L 752,827 L 753,828 L 756,828 L 757,829 L 760,829 L 761,830 L 767,830 L 768,831 L 777,831 L 778,832 L 795,832 L 796,831 L 804,831 L 805,830 L 807,830 L 808,829 L 810,829 L 811,828 L 812,828 L 815,825 L 815,824 L 816,823 L 816,822 L 817,821 L 817,806 L 816,805 L 816,801 L 815,800 L 815,798 L 814,797 L 814,795 L 813,794 L 813,792 L 811,790 L 811,789 L 808,786 L 808,785 L 807,784 L 806,784 L 803,781 L 802,781 L 801,780 L 800,780 L 799,779 L 797,779 L 796,778 L 793,778 L 792,777 L 788,777 L 787,776 L 779,776 L 778,775 L 776,775 L 775,774 L 774,774 L 773,773 L 772,773 L 770,771 L 770,770 L 768,768 L 768,767 L 767,766 L 767,763 L 766,762 L 766,760 L 765,759 L 765,755 L 764,754 L 764,746 L 763,745 L 763,730 L 762,729 L 763,728 L 763,727 L 762,726 L 762,722 L 763,721 L 763,715 L 762,714 L 762,712 L 763,711 L 763,710 L 762,709 L 762,704 L 763,703 L 762,702 L 762,700 L 763,699 L 763,661 L 764,660 L 764,654 L 763,653 L 764,652 L 764,644 L 765,643 L 765,626 L 766,625 L 766,615 L 767,614 L 767,604 L 768,603 L 768,594 L 769,593 L 769,584 L 770,583 L 770,574 L 771,573 L 771,568 L 772,567 L 772,563 L 773,562 L 773,559 L 774,558 L 774,555 L 775,554 L 775,552 L 776,551 L 776,550 L 777,549 L 777,548 L 778,547 L 778,546 L 780,544 L 780,543 L 783,540 L 783,539 L 785,537 L 785,536 L 787,534 L 787,533 L 789,531 L 789,530 L 790,529 L 790,528 L 791,527 L 791,526 L 792,525 L 792,524 L 793,523 L 793,522 L 794,521 L 794,520 L 795,519 L 795,517 L 796,516 L 796,515 L 797,514 L 797,512 L 798,511 L 798,509 L 799,508 L 799,506 L 800,505 L 800,503 L 801,502 L 801,500 L 802,499 L 802,495 L 803,494 L 803,491 L 804,490 L 804,486 L 805,485 L 805,479 L 806,478 L 806,446 L 805,445 L 805,440 L 804,439 L 804,435 L 803,434 L 803,431 L 802,430 L 802,426 L 801,425 L 801,421 L 800,420 L 800,415 L 799,414 L 799,403 L 798,402 L 798,375 L 799,374 L 799,367 L 800,366 L 800,361 L 801,360 L 801,356 L 802,355 L 802,352 L 803,351 L 803,348 L 804,347 L 804,345 L 805,344 L 805,342 L 806,341 L 806,339 L 807,338 L 807,337 L 808,336 L 808,335 L 809,334 L 809,333 L 810,332 L 810,331 L 812,329 L 812,328 L 814,326 L 814,325 L 816,323 L 817,323 L 819,321 L 825,321 L 826,322 L 827,322 L 831,326 L 831,327 L 833,329 L 833,330 L 842,339 L 843,339 L 844,340 L 845,340 L 847,342 L 849,342 L 850,343 L 852,343 L 853,344 L 858,344 L 859,345 L 861,345 L 862,344 L 867,344 L 868,343 L 871,343 L 872,342 L 874,342 L 875,341 L 877,341 L 878,340 L 880,340 L 881,339 L 882,339 L 883,338 L 884,338 L 886,336 L 887,336 L 889,334 L 890,334 L 891,333 L 904,333 L 905,332 L 910,332 L 911,331 L 914,331 L 915,330 L 916,330 L 917,329 L 918,329 L 919,328 L 920,328 L 921,327 L 922,327 L 924,325 L 925,325 L 934,316 L 934,315 L 936,313 L 936,312 L 938,310 L 938,309 L 939,308 L 939,307 L 940,306 L 940,304 L 941,303 L 941,301 L 942,300 L 942,297 L 943,296 L 943,281 L 942,280 L 942,276 L 941,275 L 941,272 L 940,271 L 940,269 L 939,268 L 939,265 L 938,264 L 938,262 L 937,261 L 937,258 L 936,257 L 936,256 L 935,255 L 935,254 L 933,252 L 933,250 L 934,249 L 934,248 L 935,247 L 935,245 L 936,244 L 936,233 L 935,232 L 935,231 L 933,229 L 933,228 L 932,228 L 930,226 L 929,226 L 928,225 L 925,225 L 924,224 L 921,224 L 920,225 L 919,225 L 918,224 L 915,224 L 914,223 L 909,223 L 908,222 L 905,222 L 904,221 L 903,221 L 900,218 L 900,216 L 901,215 L 901,213 L 902,212 L 902,209 L 903,208 L 903,206 L 904,205 L 904,196 L 902,194 L 902,193 L 901,192 L 900,192 L 885,177 L 885,176 L 877,168 L 876,168 L 874,166 L 873,166 L 871,164 L 870,164 L 869,163 L 868,163 L 867,162 L 866,162 L 865,161 L 864,161 L 863,160 L 861,160 L 860,159 L 858,159 L 857,158 L 855,158 L 854,157 L 851,157 L 850,156 L 847,156 L 846,155 L 842,155 L 841,154 L 837,154 L 836,153 L 831,153 L 830,152 L 823,152 L 822,151 L 814,151 L 813,150 L 796,150 L 795,149 Z" fill="black" /></svg>