<?xml version="1.0" encoding="utf-8" ?>
<svg baseProfile="full" height="1024" version="1.1" width="1024" xmlns="http://www.w3.org/2000/svg" xmlns:ev="http://www.w3.org/2001/xml-events" xmlns:xlink="http://www.w3.org/1999/xlink"><defs /><path d="M 642,826 Z" fill="black" /><path d="M 549,818 Z" fill="black" /><path d="M 769,544 Z" fill="black" /><path d="M 863,80 L 862,81 L 860,81 L 859,82 L 858,82 L 857,83 L 855,83 L 853,85 L 852,85 L 851,86 L 850,86 L 849,87 L 848,87 L 846,89 L 845,89 L 842,92 L 841,92 L 838,95 L 837,95 L 835,97 L 834,97 L 828,103 L 827,103 L 820,110 L 819,110 L 794,135 L 794,136 L 784,146 L 784,147 L 780,151 L 780,152 L 777,155 L 777,156 L 775,158 L 775,159 L 774,160 L 774,161 L 772,163 L 772,164 L 771,165 L 771,167 L 770,168 L 770,169 L 769,170 L 769,172 L 768,173 L 767,172 L 763,172 L 762,171 L 756,171 L 755,170 L 747,170 L 746,169 L 726,169 L 725,170 L 716,170 L 715,171 L 710,171 L 709,172 L 704,172 L 703,173 L 699,173 L 698,174 L 695,174 L 694,175 L 690,175 L 689,176 L 686,176 L 685,177 L 682,177 L 681,178 L 679,178 L 678,179 L 675,179 L 674,180 L 672,180 L 671,181 L 669,181 L 668,182 L 667,182 L 666,183 L 664,183 L 663,184 L 662,184 L 661,185 L 660,184 L 660,183 L 659,182 L 659,181 L 658,180 L 658,179 L 656,177 L 656,176 L 654,174 L 654,173 L 652,171 L 652,170 L 648,166 L 648,165 L 645,162 L 645,161 L 641,157 L 641,156 L 633,148 L 633,147 L 615,129 L 615,128 L 608,121 L 607,121 L 606,120 L 606,119 L 605,119 L 595,109 L 594,109 L 589,104 L 588,104 L 585,101 L 584,101 L 582,99 L 581,99 L 578,96 L 577,96 L 575,94 L 574,94 L 572,92 L 571,92 L 570,91 L 569,91 L 568,90 L 567,90 L 565,88 L 564,88 L 563,87 L 561,87 L 560,86 L 558,86 L 557,85 L 555,85 L 554,84 L 542,84 L 541,85 L 540,85 L 539,86 L 538,86 L 534,90 L 534,91 L 533,92 L 533,93 L 532,94 L 532,97 L 531,98 L 531,102 L 530,103 L 530,109 L 529,110 L 529,122 L 528,123 L 528,162 L 529,163 L 529,177 L 530,178 L 530,186 L 531,187 L 531,192 L 532,193 L 532,197 L 533,198 L 533,201 L 534,202 L 534,205 L 535,206 L 535,208 L 536,209 L 536,211 L 537,212 L 537,214 L 538,215 L 538,238 L 539,239 L 539,244 L 540,245 L 540,249 L 541,250 L 541,252 L 542,253 L 542,255 L 543,256 L 543,257 L 544,258 L 544,260 L 545,261 L 545,262 L 546,263 L 546,264 L 547,265 L 547,266 L 549,268 L 549,269 L 551,271 L 551,272 L 560,281 L 561,281 L 564,284 L 565,284 L 567,286 L 568,286 L 569,287 L 570,287 L 571,288 L 572,288 L 573,289 L 572,290 L 571,290 L 571,291 L 574,294 L 574,295 L 582,303 L 583,303 L 585,305 L 586,305 L 587,306 L 584,309 L 583,309 L 583,310 L 582,311 L 582,312 L 580,314 L 580,315 L 579,316 L 579,317 L 581,317 L 582,316 L 583,316 L 584,317 L 584,319 L 583,320 L 583,324 L 582,325 L 582,329 L 581,330 L 581,335 L 580,336 L 580,341 L 579,342 L 579,346 L 578,347 L 578,352 L 577,353 L 577,358 L 576,359 L 576,364 L 575,365 L 575,368 L 574,369 L 574,372 L 573,373 L 573,375 L 572,376 L 572,378 L 571,379 L 571,380 L 570,381 L 570,383 L 569,384 L 569,385 L 568,386 L 568,387 L 567,388 L 567,389 L 565,391 L 565,392 L 563,394 L 563,395 L 560,398 L 560,399 L 555,404 L 554,404 L 550,408 L 549,408 L 547,410 L 546,410 L 544,412 L 543,412 L 542,413 L 541,413 L 540,414 L 539,414 L 538,415 L 537,415 L 536,416 L 534,416 L 533,417 L 531,417 L 530,418 L 528,418 L 527,419 L 525,419 L 524,420 L 520,420 L 519,421 L 514,421 L 513,422 L 508,422 L 507,423 L 497,423 L 496,424 L 476,424 L 475,423 L 474,424 L 473,423 L 461,423 L 460,422 L 451,422 L 450,421 L 442,421 L 441,420 L 433,420 L 432,419 L 425,419 L 424,418 L 416,418 L 415,417 L 408,417 L 407,416 L 401,416 L 400,415 L 393,415 L 392,414 L 384,414 L 383,413 L 374,413 L 373,412 L 363,412 L 362,411 L 344,411 L 343,410 L 310,410 L 309,411 L 297,411 L 296,412 L 288,412 L 287,413 L 280,413 L 279,414 L 275,414 L 274,415 L 270,415 L 269,416 L 266,416 L 265,417 L 262,417 L 261,418 L 259,418 L 258,419 L 256,419 L 255,420 L 253,420 L 252,421 L 249,421 L 248,422 L 247,422 L 246,423 L 242,423 L 241,422 L 238,422 L 237,421 L 235,421 L 234,420 L 233,420 L 232,419 L 231,419 L 229,417 L 228,417 L 221,410 L 221,409 L 219,407 L 219,406 L 217,404 L 217,403 L 215,401 L 215,400 L 214,399 L 214,397 L 213,396 L 213,395 L 212,394 L 212,393 L 211,392 L 211,391 L 210,390 L 210,388 L 209,387 L 209,385 L 208,384 L 208,381 L 207,380 L 207,377 L 206,376 L 206,371 L 205,370 L 205,363 L 204,362 L 204,351 L 205,350 L 205,342 L 206,341 L 206,338 L 207,337 L 207,333 L 208,332 L 208,330 L 209,329 L 209,327 L 210,326 L 210,324 L 211,323 L 211,322 L 212,321 L 212,319 L 213,318 L 213,317 L 214,316 L 214,315 L 215,314 L 215,313 L 216,312 L 216,311 L 218,309 L 218,308 L 219,307 L 219,306 L 221,304 L 221,303 L 223,301 L 223,300 L 227,296 L 227,295 L 235,287 L 236,287 L 239,284 L 240,284 L 242,282 L 243,282 L 245,280 L 246,280 L 247,279 L 248,279 L 249,278 L 250,278 L 251,277 L 252,277 L 253,276 L 254,276 L 255,275 L 257,275 L 258,274 L 260,274 L 261,273 L 264,273 L 265,272 L 269,272 L 270,271 L 288,271 L 289,272 L 293,272 L 294,273 L 297,273 L 298,274 L 300,274 L 301,275 L 303,275 L 304,276 L 305,276 L 306,277 L 307,277 L 308,278 L 309,278 L 310,279 L 311,279 L 313,281 L 314,281 L 318,285 L 319,285 L 325,291 L 325,292 L 329,296 L 329,297 L 331,299 L 331,300 L 332,301 L 332,302 L 334,304 L 334,306 L 335,307 L 335,308 L 336,309 L 336,311 L 337,312 L 337,314 L 338,315 L 338,317 L 339,316 L 339,315 L 341,313 L 341,312 L 342,311 L 342,309 L 343,308 L 343,307 L 344,306 L 344,304 L 345,303 L 345,300 L 346,299 L 346,293 L 347,292 L 347,280 L 346,279 L 346,274 L 345,273 L 345,270 L 344,269 L 344,266 L 343,265 L 343,263 L 342,262 L 342,260 L 341,259 L 341,258 L 340,257 L 340,256 L 339,255 L 339,254 L 338,253 L 338,252 L 337,251 L 337,250 L 336,249 L 336,248 L 334,246 L 334,245 L 332,243 L 332,242 L 328,238 L 328,237 L 321,230 L 320,230 L 316,226 L 315,226 L 312,223 L 311,223 L 310,222 L 309,222 L 307,220 L 306,220 L 305,219 L 304,219 L 303,218 L 302,218 L 301,217 L 300,217 L 299,216 L 297,216 L 296,215 L 294,215 L 293,214 L 292,214 L 291,213 L 289,213 L 288,212 L 285,212 L 284,211 L 281,211 L 280,210 L 275,210 L 274,209 L 262,209 L 261,208 L 256,208 L 255,209 L 246,209 L 245,210 L 240,210 L 239,211 L 236,211 L 235,212 L 233,212 L 232,213 L 229,213 L 228,214 L 227,214 L 226,215 L 224,215 L 223,216 L 222,216 L 221,217 L 219,217 L 218,218 L 217,218 L 216,219 L 215,219 L 214,220 L 213,220 L 211,222 L 210,222 L 209,223 L 208,223 L 207,224 L 206,224 L 204,226 L 203,226 L 201,228 L 200,228 L 197,231 L 196,231 L 191,236 L 190,236 L 188,238 L 187,237 L 187,236 L 174,249 L 174,250 L 170,254 L 170,255 L 168,257 L 168,258 L 166,260 L 166,261 L 164,263 L 164,264 L 163,265 L 163,266 L 162,267 L 162,268 L 161,269 L 161,270 L 160,271 L 160,272 L 159,273 L 159,274 L 158,275 L 158,277 L 157,278 L 157,279 L 156,280 L 156,281 L 155,282 L 155,284 L 154,285 L 154,287 L 153,288 L 153,290 L 152,291 L 152,294 L 151,295 L 151,298 L 150,299 L 150,301 L 149,302 L 148,301 L 148,290 L 148,291 L 147,292 L 147,294 L 146,295 L 146,297 L 145,298 L 145,300 L 144,301 L 144,304 L 143,305 L 143,309 L 142,310 L 142,316 L 141,317 L 141,325 L 140,326 L 140,356 L 141,357 L 141,365 L 142,366 L 142,371 L 143,372 L 143,377 L 144,378 L 144,382 L 145,383 L 145,386 L 146,387 L 146,390 L 147,391 L 147,394 L 148,395 L 148,397 L 149,398 L 149,401 L 150,402 L 150,404 L 151,405 L 151,407 L 152,408 L 152,410 L 153,411 L 153,413 L 154,414 L 154,415 L 155,416 L 155,418 L 156,419 L 156,420 L 157,421 L 157,423 L 158,424 L 158,425 L 159,426 L 159,427 L 160,428 L 160,430 L 161,431 L 161,432 L 162,433 L 162,434 L 163,435 L 163,436 L 164,437 L 164,438 L 165,439 L 165,440 L 166,441 L 166,442 L 167,443 L 167,444 L 168,445 L 168,446 L 169,447 L 169,448 L 171,450 L 171,451 L 172,452 L 172,453 L 173,454 L 173,455 L 175,457 L 175,458 L 176,459 L 176,460 L 178,462 L 178,463 L 179,464 L 179,465 L 181,467 L 181,468 L 183,470 L 183,471 L 185,473 L 185,474 L 186,475 L 186,478 L 185,479 L 185,480 L 183,482 L 183,483 L 181,485 L 181,486 L 180,487 L 180,488 L 178,490 L 178,491 L 177,492 L 177,493 L 176,494 L 176,495 L 174,497 L 174,498 L 173,499 L 173,500 L 172,501 L 172,502 L 171,503 L 171,504 L 170,505 L 170,506 L 169,507 L 169,508 L 168,509 L 168,510 L 167,511 L 167,513 L 166,514 L 166,515 L 165,516 L 165,517 L 164,518 L 164,520 L 163,521 L 163,523 L 162,524 L 162,526 L 161,527 L 161,529 L 160,530 L 160,533 L 159,534 L 159,537 L 158,538 L 158,542 L 157,543 L 157,550 L 156,551 L 156,584 L 157,585 L 157,592 L 158,593 L 158,599 L 159,600 L 159,606 L 160,607 L 160,611 L 161,612 L 161,617 L 162,618 L 162,623 L 163,624 L 163,628 L 164,629 L 164,634 L 165,635 L 165,640 L 166,641 L 166,648 L 167,649 L 167,679 L 166,680 L 166,686 L 165,687 L 165,691 L 164,692 L 164,695 L 163,696 L 163,698 L 162,699 L 162,701 L 161,702 L 161,704 L 160,705 L 160,707 L 159,708 L 159,709 L 158,710 L 158,711 L 157,712 L 157,713 L 156,714 L 156,715 L 155,716 L 155,717 L 154,718 L 154,719 L 153,720 L 153,721 L 152,722 L 152,723 L 150,725 L 150,726 L 148,728 L 148,729 L 135,742 L 135,743 L 134,744 L 134,745 L 133,746 L 133,747 L 132,748 L 132,750 L 131,751 L 131,771 L 132,772 L 132,781 L 133,782 L 133,797 L 134,798 L 134,817 L 133,818 L 133,831 L 132,832 L 132,842 L 131,843 L 131,852 L 130,853 L 130,866 L 129,867 L 130,868 L 130,869 L 129,870 L 130,871 L 130,878 L 131,879 L 131,882 L 132,883 L 132,885 L 133,886 L 133,888 L 134,889 L 134,890 L 136,892 L 136,893 L 138,895 L 138,896 L 142,900 L 143,900 L 145,902 L 146,902 L 147,903 L 148,903 L 149,904 L 151,904 L 152,905 L 156,905 L 157,906 L 162,906 L 163,907 L 165,907 L 166,906 L 172,906 L 173,905 L 179,905 L 180,906 L 190,906 L 191,905 L 195,905 L 196,904 L 198,904 L 199,903 L 201,903 L 202,902 L 203,902 L 204,901 L 206,901 L 208,899 L 209,899 L 212,896 L 212,894 L 213,893 L 213,884 L 212,883 L 212,881 L 211,880 L 211,878 L 210,877 L 210,876 L 209,875 L 209,874 L 208,873 L 208,872 L 207,871 L 207,870 L 204,867 L 204,866 L 201,863 L 200,863 L 198,861 L 197,861 L 196,860 L 194,860 L 192,858 L 190,858 L 188,856 L 187,856 L 183,852 L 183,851 L 182,850 L 182,846 L 181,845 L 181,837 L 180,836 L 180,805 L 181,804 L 181,796 L 182,795 L 182,792 L 183,791 L 183,788 L 184,787 L 184,785 L 185,784 L 185,782 L 186,781 L 186,780 L 187,779 L 187,777 L 188,776 L 188,775 L 189,774 L 189,773 L 190,772 L 190,771 L 193,768 L 193,767 L 200,760 L 200,759 L 207,752 L 208,752 L 215,745 L 216,745 L 221,740 L 222,740 L 226,736 L 227,736 L 232,731 L 233,731 L 237,727 L 238,727 L 243,722 L 244,722 L 262,704 L 262,703 L 266,699 L 266,698 L 267,697 L 268,698 L 268,700 L 267,701 L 267,703 L 266,704 L 266,705 L 265,706 L 265,708 L 264,709 L 264,710 L 263,711 L 263,712 L 262,713 L 262,714 L 260,716 L 260,717 L 258,719 L 258,720 L 254,724 L 254,725 L 251,728 L 251,729 L 249,731 L 249,732 L 248,733 L 248,734 L 247,735 L 247,738 L 246,739 L 246,752 L 247,753 L 247,756 L 248,757 L 248,759 L 249,760 L 249,762 L 250,763 L 250,765 L 251,766 L 251,767 L 252,768 L 252,770 L 253,771 L 253,772 L 254,773 L 254,775 L 255,776 L 255,777 L 256,778 L 256,780 L 257,781 L 257,783 L 258,784 L 258,788 L 259,789 L 259,791 L 260,792 L 260,795 L 261,796 L 261,799 L 262,800 L 262,803 L 263,804 L 263,808 L 264,809 L 264,812 L 265,813 L 265,817 L 266,818 L 266,821 L 267,822 L 267,826 L 268,827 L 268,831 L 269,832 L 269,835 L 270,836 L 270,839 L 271,840 L 271,843 L 272,844 L 272,846 L 273,847 L 273,849 L 274,850 L 274,852 L 275,853 L 275,854 L 276,855 L 276,856 L 277,857 L 277,858 L 278,859 L 278,860 L 280,862 L 280,863 L 287,870 L 288,870 L 290,872 L 291,872 L 292,873 L 294,873 L 295,874 L 297,874 L 298,875 L 301,875 L 302,876 L 323,876 L 324,875 L 340,875 L 341,874 L 343,874 L 344,873 L 346,873 L 347,872 L 349,872 L 350,871 L 351,871 L 352,870 L 353,870 L 358,865 L 358,864 L 359,863 L 359,855 L 358,854 L 358,852 L 357,851 L 357,850 L 356,849 L 356,848 L 355,847 L 355,846 L 353,844 L 353,843 L 349,839 L 349,838 L 348,838 L 344,834 L 343,834 L 342,833 L 341,833 L 340,832 L 339,832 L 338,831 L 336,831 L 335,830 L 332,830 L 331,829 L 326,829 L 325,828 L 323,828 L 322,827 L 321,827 L 315,821 L 315,820 L 313,818 L 313,817 L 312,816 L 312,815 L 311,814 L 311,813 L 310,812 L 310,810 L 309,809 L 309,807 L 308,806 L 308,804 L 307,803 L 307,800 L 306,799 L 306,795 L 305,794 L 305,790 L 304,789 L 304,783 L 303,782 L 303,771 L 302,770 L 302,768 L 303,767 L 303,759 L 304,758 L 304,754 L 305,753 L 305,751 L 306,750 L 306,748 L 307,747 L 307,746 L 308,745 L 308,744 L 310,742 L 310,741 L 312,739 L 312,738 L 317,733 L 317,732 L 326,723 L 326,722 L 337,711 L 337,710 L 351,696 L 351,695 L 357,689 L 357,688 L 360,685 L 360,684 L 363,681 L 363,680 L 366,677 L 366,676 L 368,674 L 368,673 L 370,671 L 370,670 L 371,669 L 371,668 L 373,666 L 373,665 L 374,664 L 374,663 L 375,662 L 375,661 L 376,660 L 376,659 L 377,658 L 377,657 L 378,656 L 378,655 L 379,654 L 379,653 L 380,652 L 380,650 L 381,649 L 381,648 L 382,647 L 382,645 L 383,644 L 383,642 L 384,641 L 384,639 L 385,638 L 385,636 L 386,635 L 386,632 L 387,631 L 387,628 L 388,627 L 388,625 L 389,624 L 390,625 L 391,625 L 392,626 L 393,626 L 394,627 L 395,627 L 396,628 L 397,628 L 399,630 L 400,630 L 401,631 L 402,631 L 404,633 L 405,633 L 407,635 L 408,635 L 410,637 L 411,637 L 412,638 L 413,638 L 415,640 L 416,640 L 417,641 L 418,641 L 420,643 L 421,643 L 422,644 L 423,644 L 425,646 L 426,646 L 427,647 L 428,647 L 430,649 L 431,649 L 432,650 L 433,650 L 434,651 L 435,651 L 437,653 L 438,653 L 439,654 L 440,654 L 441,655 L 442,655 L 444,657 L 445,657 L 446,658 L 447,658 L 448,659 L 449,659 L 450,660 L 451,660 L 452,661 L 453,661 L 454,662 L 455,662 L 456,663 L 457,663 L 458,664 L 459,664 L 460,665 L 461,665 L 462,666 L 463,666 L 464,667 L 465,667 L 466,668 L 467,668 L 468,669 L 469,669 L 470,670 L 471,670 L 472,671 L 473,671 L 474,672 L 476,672 L 477,673 L 479,673 L 480,674 L 481,674 L 482,675 L 484,675 L 485,676 L 487,676 L 488,677 L 490,677 L 491,678 L 494,678 L 495,679 L 497,679 L 498,680 L 501,680 L 502,681 L 505,681 L 506,682 L 509,682 L 510,683 L 513,683 L 514,684 L 519,684 L 520,685 L 522,685 L 524,687 L 524,690 L 525,691 L 525,693 L 526,694 L 526,695 L 527,696 L 527,698 L 528,699 L 528,700 L 529,701 L 529,703 L 530,704 L 530,705 L 531,706 L 531,707 L 532,708 L 532,710 L 533,711 L 533,713 L 534,714 L 534,716 L 535,717 L 535,719 L 536,720 L 536,722 L 537,723 L 537,726 L 538,727 L 538,729 L 539,730 L 539,734 L 540,735 L 540,738 L 541,739 L 541,742 L 542,743 L 542,747 L 543,748 L 543,753 L 544,754 L 544,759 L 545,760 L 545,765 L 546,766 L 546,772 L 547,773 L 547,781 L 548,782 L 548,789 L 549,790 L 549,797 L 550,798 L 550,808 L 551,809 L 551,821 L 552,822 L 552,850 L 553,851 L 553,854 L 554,855 L 554,857 L 555,858 L 555,859 L 556,860 L 556,861 L 557,862 L 557,863 L 558,864 L 558,865 L 560,867 L 560,868 L 561,869 L 561,870 L 562,871 L 562,873 L 563,874 L 563,878 L 564,879 L 564,886 L 565,887 L 565,896 L 566,897 L 566,905 L 567,906 L 567,911 L 568,912 L 568,916 L 569,917 L 569,919 L 570,920 L 570,922 L 571,923 L 571,925 L 572,926 L 572,927 L 574,929 L 574,930 L 576,932 L 576,933 L 580,937 L 581,937 L 583,939 L 584,939 L 585,940 L 586,940 L 587,941 L 588,941 L 589,942 L 590,942 L 591,943 L 594,943 L 595,944 L 599,944 L 600,945 L 607,945 L 608,944 L 611,944 L 612,943 L 613,944 L 615,944 L 616,945 L 635,945 L 636,944 L 639,944 L 640,943 L 643,943 L 644,942 L 646,942 L 647,941 L 648,941 L 649,940 L 650,940 L 651,939 L 652,939 L 655,936 L 655,935 L 656,934 L 656,931 L 657,930 L 657,926 L 656,925 L 656,920 L 655,919 L 655,917 L 654,916 L 654,915 L 653,914 L 653,912 L 652,911 L 652,910 L 651,909 L 651,908 L 649,906 L 649,905 L 648,904 L 648,903 L 642,897 L 641,897 L 640,896 L 638,896 L 637,895 L 636,895 L 635,894 L 633,894 L 631,892 L 630,892 L 626,888 L 626,887 L 624,885 L 624,884 L 623,883 L 623,882 L 622,881 L 622,879 L 621,878 L 621,877 L 620,876 L 620,874 L 619,873 L 619,871 L 618,870 L 618,868 L 617,867 L 617,865 L 616,864 L 616,861 L 615,860 L 615,856 L 614,855 L 614,851 L 613,850 L 613,816 L 614,815 L 614,812 L 613,811 L 613,810 L 614,809 L 614,808 L 613,807 L 613,781 L 614,780 L 613,779 L 613,778 L 614,777 L 614,758 L 615,757 L 615,748 L 616,747 L 616,740 L 617,739 L 617,733 L 618,732 L 618,727 L 619,726 L 619,722 L 620,721 L 620,718 L 621,717 L 621,713 L 622,712 L 622,709 L 623,708 L 623,706 L 624,705 L 624,703 L 625,702 L 625,700 L 626,699 L 626,697 L 627,696 L 634,696 L 635,695 L 639,695 L 640,694 L 641,694 L 642,695 L 641,696 L 641,703 L 642,704 L 642,730 L 643,731 L 643,751 L 644,752 L 644,777 L 645,778 L 645,818 L 644,819 L 644,827 L 645,828 L 645,831 L 646,832 L 646,833 L 648,835 L 648,836 L 649,837 L 649,838 L 651,840 L 651,841 L 653,843 L 653,844 L 654,845 L 654,847 L 655,848 L 655,851 L 656,852 L 656,866 L 657,867 L 657,873 L 658,874 L 658,876 L 659,877 L 659,878 L 660,879 L 660,880 L 665,885 L 666,885 L 667,886 L 667,887 L 668,888 L 668,892 L 669,893 L 669,894 L 670,895 L 670,896 L 671,897 L 671,898 L 673,900 L 673,901 L 680,908 L 681,908 L 683,910 L 684,910 L 686,912 L 687,912 L 688,913 L 690,913 L 691,914 L 693,914 L 694,915 L 699,915 L 700,916 L 719,916 L 720,915 L 722,915 L 723,914 L 735,914 L 736,913 L 738,913 L 739,912 L 740,912 L 741,911 L 743,911 L 744,910 L 745,910 L 747,908 L 748,908 L 750,906 L 751,906 L 751,905 L 753,903 L 753,902 L 754,901 L 754,899 L 755,898 L 755,895 L 754,894 L 754,890 L 753,889 L 753,887 L 752,886 L 752,885 L 751,884 L 751,883 L 750,882 L 750,881 L 748,879 L 748,878 L 746,876 L 746,875 L 741,870 L 740,870 L 737,867 L 736,867 L 735,866 L 733,866 L 732,865 L 728,865 L 727,864 L 720,864 L 719,863 L 715,863 L 714,862 L 712,862 L 711,861 L 710,861 L 709,860 L 709,859 L 707,857 L 707,856 L 706,855 L 706,854 L 705,853 L 705,851 L 704,850 L 704,849 L 703,848 L 703,845 L 702,844 L 702,842 L 701,841 L 701,837 L 700,836 L 700,833 L 699,832 L 699,824 L 698,823 L 698,799 L 699,798 L 699,786 L 700,785 L 700,777 L 701,776 L 701,768 L 702,767 L 702,760 L 703,759 L 703,753 L 704,752 L 704,745 L 705,744 L 705,739 L 706,738 L 706,733 L 707,732 L 707,726 L 708,725 L 708,720 L 709,719 L 709,714 L 710,713 L 710,708 L 711,707 L 711,703 L 712,702 L 712,698 L 713,697 L 713,694 L 714,693 L 714,689 L 715,688 L 715,685 L 716,684 L 716,683 L 717,682 L 717,680 L 718,679 L 718,677 L 719,676 L 719,675 L 720,674 L 720,672 L 721,671 L 721,670 L 722,669 L 722,668 L 723,667 L 723,666 L 724,665 L 724,664 L 725,663 L 725,662 L 726,661 L 726,660 L 727,659 L 727,658 L 728,657 L 728,656 L 730,654 L 730,653 L 731,652 L 731,651 L 733,649 L 733,648 L 735,646 L 735,645 L 738,642 L 738,641 L 740,639 L 740,638 L 742,636 L 742,635 L 744,633 L 744,632 L 746,630 L 746,629 L 747,628 L 747,627 L 749,625 L 749,624 L 750,623 L 750,622 L 751,621 L 751,620 L 752,619 L 752,618 L 753,617 L 753,616 L 754,615 L 754,614 L 755,613 L 755,611 L 756,610 L 756,609 L 757,608 L 757,606 L 758,605 L 758,603 L 759,602 L 759,600 L 760,599 L 760,597 L 761,596 L 761,593 L 762,592 L 762,589 L 763,588 L 763,584 L 764,583 L 764,578 L 765,577 L 765,571 L 766,570 L 766,558 L 767,557 L 767,535 L 766,534 L 766,529 L 767,528 L 769,530 L 770,530 L 771,531 L 772,531 L 773,532 L 775,532 L 775,531 L 774,530 L 774,528 L 773,527 L 773,523 L 772,522 L 772,518 L 771,517 L 771,513 L 770,512 L 770,506 L 769,505 L 769,497 L 768,496 L 768,476 L 769,475 L 769,468 L 770,467 L 770,463 L 771,462 L 771,459 L 772,458 L 772,455 L 773,454 L 773,453 L 774,452 L 774,450 L 775,449 L 775,448 L 776,447 L 776,446 L 777,445 L 777,444 L 778,443 L 778,442 L 779,441 L 779,440 L 780,439 L 780,438 L 782,436 L 782,435 L 786,431 L 812,431 L 813,430 L 818,430 L 819,429 L 823,429 L 824,428 L 826,428 L 827,427 L 829,427 L 830,426 L 831,426 L 832,425 L 833,425 L 834,424 L 835,424 L 836,423 L 837,423 L 838,422 L 839,422 L 841,420 L 842,420 L 848,414 L 848,413 L 851,410 L 851,409 L 852,408 L 852,407 L 854,405 L 857,405 L 858,404 L 859,404 L 860,403 L 861,403 L 862,402 L 863,402 L 869,396 L 869,395 L 871,393 L 871,392 L 872,391 L 872,389 L 873,388 L 873,386 L 874,385 L 874,383 L 875,382 L 875,377 L 876,376 L 876,360 L 877,359 L 877,358 L 878,357 L 878,356 L 879,355 L 879,347 L 878,346 L 878,343 L 877,342 L 877,340 L 875,338 L 875,337 L 871,333 L 870,333 L 867,330 L 866,330 L 865,329 L 864,329 L 862,327 L 861,327 L 859,325 L 858,325 L 856,323 L 855,323 L 853,321 L 852,321 L 850,319 L 850,318 L 852,316 L 852,315 L 853,314 L 853,313 L 854,312 L 854,310 L 855,309 L 855,305 L 856,304 L 856,295 L 857,294 L 858,294 L 859,293 L 860,293 L 862,291 L 863,291 L 863,290 L 862,291 L 861,290 L 861,287 L 862,286 L 862,273 L 861,272 L 861,270 L 860,269 L 860,267 L 858,265 L 858,264 L 856,262 L 856,261 L 853,258 L 853,257 L 852,256 L 852,255 L 851,254 L 851,253 L 850,252 L 850,251 L 849,250 L 849,247 L 848,246 L 848,244 L 847,243 L 847,241 L 846,240 L 846,237 L 848,235 L 848,234 L 849,233 L 849,232 L 850,231 L 850,229 L 851,228 L 851,227 L 852,226 L 852,224 L 853,223 L 853,220 L 854,219 L 854,216 L 855,215 L 855,208 L 856,207 L 856,206 L 857,205 L 857,204 L 858,203 L 858,202 L 859,201 L 859,200 L 860,199 L 860,198 L 861,197 L 861,196 L 862,195 L 862,194 L 863,193 L 863,192 L 864,191 L 864,189 L 865,188 L 865,187 L 866,186 L 866,184 L 867,183 L 867,182 L 868,181 L 868,179 L 869,178 L 869,175 L 870,174 L 870,172 L 871,171 L 871,169 L 872,168 L 872,165 L 873,164 L 873,161 L 874,160 L 874,157 L 875,156 L 875,152 L 876,151 L 876,148 L 877,147 L 877,143 L 878,142 L 878,136 L 879,135 L 879,129 L 880,128 L 880,117 L 881,116 L 881,100 L 880,99 L 880,93 L 879,92 L 879,89 L 878,88 L 878,87 L 877,86 L 877,85 L 875,83 L 875,82 L 874,82 L 873,81 L 872,81 L 871,80 Z" fill="black" /></svg>