<?xml version="1.0" encoding="utf-8" ?>
<svg baseProfile="full" height="1024" version="1.1" width="1024" xmlns="http://www.w3.org/2000/svg" xmlns:ev="http://www.w3.org/2001/xml-events" xmlns:xlink="http://www.w3.org/1999/xlink"><defs /><path d="M 710,160 L 709,161 L 703,161 L 702,162 L 697,162 L 696,163 L 693,163 L 692,164 L 690,164 L 689,165 L 687,165 L 686,166 L 684,166 L 683,167 L 681,167 L 680,168 L 679,168 L 678,169 L 676,169 L 675,170 L 674,170 L 673,171 L 672,171 L 671,172 L 670,172 L 668,174 L 667,174 L 666,175 L 665,175 L 663,177 L 662,177 L 658,181 L 657,181 L 650,188 L 649,188 L 649,189 L 640,198 L 640,199 L 637,202 L 637,203 L 635,205 L 635,206 L 634,207 L 634,208 L 633,209 L 633,210 L 632,211 L 632,212 L 631,213 L 631,214 L 630,215 L 630,216 L 629,217 L 629,219 L 628,220 L 628,222 L 627,223 L 627,225 L 626,226 L 626,228 L 625,229 L 625,231 L 624,232 L 624,234 L 623,235 L 623,236 L 622,237 L 622,238 L 621,239 L 621,240 L 620,241 L 620,242 L 619,243 L 619,244 L 618,245 L 618,246 L 616,248 L 616,249 L 614,251 L 614,252 L 611,255 L 611,256 L 609,258 L 609,259 L 607,261 L 607,262 L 605,264 L 605,265 L 604,266 L 604,267 L 603,268 L 603,269 L 602,270 L 602,272 L 601,273 L 601,278 L 600,279 L 600,290 L 599,291 L 599,297 L 598,298 L 598,302 L 597,303 L 597,306 L 596,307 L 596,309 L 595,310 L 595,312 L 594,313 L 594,315 L 593,316 L 593,318 L 592,319 L 592,320 L 591,321 L 591,322 L 590,323 L 590,324 L 589,325 L 589,326 L 587,328 L 587,329 L 585,331 L 585,332 L 583,334 L 583,335 L 578,340 L 578,341 L 568,351 L 567,351 L 563,355 L 562,355 L 559,358 L 558,358 L 557,359 L 556,359 L 554,361 L 553,361 L 552,362 L 551,362 L 550,363 L 549,363 L 548,364 L 547,364 L 546,365 L 545,365 L 544,366 L 543,366 L 542,367 L 540,367 L 539,368 L 538,368 L 537,369 L 536,369 L 535,370 L 533,370 L 532,371 L 530,371 L 529,372 L 528,372 L 527,373 L 525,373 L 524,374 L 521,374 L 520,375 L 518,375 L 517,376 L 513,376 L 512,377 L 508,377 L 507,378 L 503,378 L 502,379 L 498,379 L 497,380 L 493,380 L 492,381 L 488,381 L 487,382 L 482,382 L 481,383 L 475,383 L 474,384 L 464,384 L 463,385 L 451,385 L 450,386 L 417,386 L 416,385 L 389,385 L 388,384 L 327,384 L 326,385 L 305,385 L 304,386 L 291,386 L 290,385 L 285,385 L 284,384 L 281,384 L 280,383 L 277,383 L 276,382 L 274,382 L 273,381 L 272,381 L 271,380 L 270,380 L 269,379 L 268,379 L 267,378 L 266,378 L 262,374 L 261,374 L 255,368 L 255,367 L 251,363 L 251,362 L 249,360 L 249,359 L 247,357 L 247,356 L 246,355 L 246,354 L 244,352 L 244,351 L 243,350 L 243,348 L 242,347 L 242,345 L 241,344 L 241,342 L 240,341 L 240,339 L 239,338 L 239,334 L 238,333 L 238,329 L 237,328 L 237,324 L 236,323 L 236,311 L 235,310 L 235,272 L 234,271 L 234,268 L 233,267 L 233,265 L 232,264 L 232,262 L 230,260 L 230,259 L 227,256 L 227,255 L 226,255 L 223,252 L 222,252 L 220,250 L 219,250 L 218,249 L 217,249 L 216,248 L 214,248 L 213,247 L 211,247 L 210,246 L 207,246 L 206,245 L 190,245 L 189,246 L 186,246 L 185,247 L 183,247 L 182,248 L 181,248 L 180,249 L 179,249 L 178,250 L 177,250 L 176,251 L 175,251 L 174,252 L 173,252 L 171,254 L 170,254 L 168,256 L 167,256 L 153,270 L 153,271 L 151,273 L 151,274 L 148,277 L 148,278 L 147,279 L 147,280 L 146,281 L 146,282 L 144,284 L 144,285 L 143,286 L 143,288 L 142,289 L 142,290 L 141,291 L 141,293 L 140,294 L 140,297 L 139,298 L 139,303 L 138,304 L 138,311 L 139,312 L 139,318 L 140,319 L 140,328 L 139,329 L 139,347 L 140,348 L 140,354 L 141,355 L 141,358 L 142,359 L 142,361 L 143,362 L 143,364 L 144,365 L 144,366 L 146,368 L 146,369 L 151,374 L 151,379 L 152,380 L 152,385 L 153,386 L 153,391 L 154,392 L 154,395 L 153,396 L 153,401 L 152,402 L 152,404 L 150,406 L 150,407 L 149,408 L 148,408 L 147,409 L 140,409 L 139,408 L 138,408 L 137,407 L 136,407 L 136,408 L 138,410 L 138,412 L 139,413 L 139,415 L 140,416 L 140,417 L 141,418 L 141,419 L 142,420 L 142,421 L 143,422 L 143,423 L 151,431 L 152,431 L 153,432 L 154,432 L 155,433 L 156,433 L 157,434 L 159,434 L 160,435 L 164,435 L 165,436 L 178,436 L 179,435 L 180,435 L 181,434 L 182,434 L 183,433 L 184,433 L 188,429 L 189,429 L 190,428 L 191,429 L 191,430 L 190,431 L 190,441 L 191,442 L 191,444 L 192,445 L 192,446 L 196,450 L 197,450 L 198,451 L 202,451 L 203,452 L 203,453 L 201,455 L 201,456 L 199,458 L 199,459 L 197,461 L 197,462 L 196,463 L 196,464 L 194,466 L 194,467 L 192,469 L 192,470 L 191,471 L 191,472 L 189,474 L 189,475 L 188,476 L 188,477 L 187,478 L 187,479 L 185,481 L 185,482 L 184,483 L 184,484 L 183,485 L 183,486 L 182,487 L 182,488 L 181,489 L 181,490 L 180,491 L 180,492 L 179,493 L 179,494 L 178,495 L 178,496 L 177,497 L 177,499 L 176,500 L 176,501 L 175,502 L 175,505 L 174,506 L 174,509 L 173,510 L 173,513 L 172,514 L 172,518 L 171,519 L 171,527 L 170,528 L 170,536 L 169,537 L 169,545 L 168,546 L 168,551 L 167,552 L 167,554 L 166,555 L 166,556 L 163,559 L 163,560 L 161,562 L 161,563 L 158,566 L 158,567 L 157,568 L 157,569 L 156,570 L 156,571 L 155,572 L 155,573 L 154,574 L 154,575 L 153,576 L 153,577 L 152,578 L 152,579 L 151,580 L 151,581 L 150,582 L 150,584 L 149,585 L 149,588 L 148,589 L 148,593 L 147,594 L 147,598 L 146,599 L 146,607 L 145,608 L 145,623 L 144,624 L 144,626 L 143,627 L 143,628 L 141,630 L 141,631 L 130,642 L 129,642 L 127,644 L 126,644 L 125,645 L 126,645 L 127,646 L 129,646 L 130,647 L 131,647 L 132,648 L 133,648 L 134,649 L 136,649 L 137,650 L 150,650 L 151,649 L 153,649 L 154,648 L 155,648 L 156,649 L 155,650 L 155,651 L 153,653 L 153,654 L 148,659 L 148,660 L 147,661 L 146,661 L 141,666 L 140,666 L 137,669 L 136,669 L 133,672 L 132,672 L 129,675 L 128,675 L 123,680 L 122,680 L 118,684 L 118,685 L 113,690 L 113,691 L 110,694 L 110,695 L 107,698 L 107,699 L 106,700 L 106,701 L 105,702 L 105,703 L 104,704 L 104,705 L 103,706 L 103,708 L 102,709 L 102,712 L 101,713 L 101,729 L 102,730 L 102,733 L 103,734 L 103,736 L 104,737 L 104,742 L 103,743 L 103,748 L 102,749 L 102,757 L 101,758 L 101,769 L 100,770 L 100,809 L 101,810 L 101,814 L 102,815 L 102,818 L 103,819 L 103,821 L 104,822 L 104,824 L 105,825 L 105,826 L 106,827 L 106,828 L 108,830 L 108,831 L 110,833 L 110,834 L 114,838 L 115,838 L 117,840 L 118,840 L 119,841 L 120,841 L 121,842 L 123,842 L 124,843 L 126,843 L 127,844 L 131,844 L 132,845 L 139,845 L 140,846 L 146,846 L 147,847 L 167,847 L 168,846 L 182,846 L 183,845 L 189,845 L 190,844 L 192,844 L 194,842 L 195,842 L 196,841 L 196,840 L 200,836 L 200,835 L 203,832 L 203,831 L 204,830 L 204,828 L 205,827 L 205,822 L 206,821 L 206,820 L 205,819 L 205,813 L 204,812 L 204,810 L 203,809 L 203,808 L 202,807 L 202,805 L 201,804 L 201,803 L 199,801 L 199,800 L 183,784 L 183,783 L 182,782 L 182,780 L 181,779 L 181,771 L 182,770 L 182,766 L 183,765 L 183,761 L 184,760 L 184,758 L 185,757 L 185,754 L 186,753 L 186,752 L 187,751 L 187,749 L 188,748 L 188,747 L 189,746 L 189,744 L 190,743 L 190,742 L 191,741 L 191,740 L 192,739 L 192,738 L 193,737 L 193,736 L 195,734 L 195,733 L 196,732 L 196,731 L 198,729 L 198,728 L 200,726 L 201,727 L 201,729 L 202,730 L 202,731 L 203,732 L 203,733 L 205,735 L 205,736 L 214,745 L 214,746 L 215,747 L 216,747 L 216,746 L 215,745 L 215,743 L 216,742 L 216,737 L 217,736 L 217,734 L 218,733 L 218,731 L 219,730 L 219,729 L 220,728 L 220,726 L 221,725 L 221,724 L 222,723 L 222,722 L 223,721 L 223,720 L 224,719 L 224,718 L 227,715 L 228,715 L 233,710 L 234,710 L 237,707 L 238,707 L 243,702 L 244,702 L 245,703 L 244,704 L 244,707 L 243,708 L 243,711 L 242,712 L 242,717 L 241,718 L 241,740 L 242,741 L 242,745 L 243,746 L 243,749 L 244,750 L 244,752 L 245,753 L 245,755 L 246,756 L 246,758 L 247,759 L 247,761 L 248,762 L 248,764 L 249,765 L 249,767 L 250,768 L 250,772 L 251,773 L 251,776 L 252,777 L 252,780 L 253,781 L 253,783 L 254,784 L 254,787 L 255,788 L 255,790 L 256,791 L 256,793 L 257,794 L 257,796 L 258,797 L 258,798 L 259,799 L 259,800 L 260,801 L 260,802 L 262,804 L 262,805 L 266,809 L 266,810 L 268,812 L 269,812 L 273,816 L 274,816 L 276,818 L 277,818 L 278,819 L 279,819 L 280,820 L 281,820 L 282,821 L 285,821 L 286,822 L 292,822 L 293,823 L 318,823 L 319,822 L 326,822 L 327,821 L 333,821 L 334,820 L 338,820 L 339,819 L 341,819 L 342,818 L 344,818 L 345,817 L 347,817 L 349,815 L 350,815 L 353,812 L 353,811 L 354,810 L 354,809 L 355,808 L 355,798 L 354,797 L 354,795 L 353,794 L 353,793 L 352,792 L 352,790 L 350,788 L 350,787 L 342,779 L 341,779 L 340,778 L 339,778 L 338,777 L 337,777 L 336,776 L 332,776 L 331,775 L 326,775 L 325,774 L 323,774 L 322,773 L 321,773 L 319,771 L 318,771 L 314,767 L 314,766 L 313,765 L 313,764 L 312,763 L 312,760 L 311,759 L 311,756 L 310,755 L 310,752 L 309,751 L 309,747 L 308,746 L 308,733 L 309,732 L 309,730 L 310,729 L 310,727 L 311,726 L 311,725 L 313,723 L 313,722 L 316,719 L 317,719 L 320,716 L 321,716 L 324,713 L 324,712 L 325,711 L 325,710 L 326,709 L 326,708 L 327,707 L 327,706 L 328,705 L 328,704 L 329,703 L 329,701 L 330,700 L 330,699 L 331,698 L 331,697 L 334,694 L 335,694 L 336,693 L 337,693 L 338,694 L 338,695 L 337,696 L 337,698 L 338,699 L 338,702 L 339,703 L 339,704 L 340,705 L 340,706 L 343,709 L 344,709 L 345,710 L 346,710 L 346,705 L 347,704 L 347,702 L 348,701 L 348,700 L 349,699 L 349,698 L 351,696 L 351,695 L 353,693 L 353,692 L 363,682 L 363,681 L 368,676 L 368,675 L 370,673 L 370,672 L 372,670 L 372,669 L 373,668 L 373,667 L 374,666 L 374,665 L 375,664 L 375,663 L 376,662 L 376,660 L 377,659 L 377,657 L 378,656 L 378,655 L 379,654 L 379,651 L 380,650 L 380,647 L 381,646 L 381,643 L 382,642 L 382,638 L 384,636 L 385,637 L 385,639 L 386,640 L 386,641 L 387,642 L 387,643 L 395,651 L 396,651 L 398,653 L 400,653 L 401,654 L 403,654 L 404,655 L 406,655 L 407,656 L 407,657 L 408,658 L 408,660 L 409,661 L 409,662 L 410,663 L 410,665 L 412,667 L 412,668 L 413,669 L 413,670 L 415,672 L 415,673 L 424,682 L 425,682 L 428,685 L 429,685 L 430,686 L 431,686 L 432,687 L 433,687 L 434,688 L 436,688 L 437,689 L 439,689 L 440,690 L 438,688 L 438,686 L 437,685 L 437,681 L 438,680 L 438,677 L 439,676 L 439,674 L 440,673 L 440,672 L 441,671 L 441,669 L 443,667 L 443,666 L 444,665 L 444,664 L 446,662 L 446,661 L 448,659 L 448,658 L 453,653 L 454,653 L 455,652 L 456,653 L 456,655 L 455,656 L 455,669 L 456,670 L 456,673 L 457,674 L 457,675 L 458,676 L 458,677 L 459,678 L 459,679 L 460,680 L 460,681 L 466,687 L 467,687 L 469,689 L 470,689 L 472,691 L 473,691 L 474,692 L 475,692 L 476,693 L 478,693 L 479,694 L 487,694 L 488,695 L 489,694 L 490,695 L 490,696 L 489,697 L 489,698 L 488,699 L 488,700 L 487,701 L 487,703 L 486,704 L 486,707 L 485,708 L 485,713 L 484,714 L 484,738 L 485,739 L 485,743 L 486,744 L 486,746 L 487,747 L 487,749 L 488,750 L 488,751 L 489,752 L 489,753 L 490,754 L 490,755 L 491,756 L 491,757 L 493,759 L 493,760 L 499,766 L 500,766 L 501,767 L 500,768 L 500,769 L 493,776 L 492,776 L 490,778 L 489,778 L 488,779 L 487,779 L 486,780 L 485,780 L 484,781 L 482,781 L 482,782 L 483,783 L 483,784 L 484,785 L 484,786 L 486,788 L 486,789 L 487,789 L 490,792 L 491,792 L 492,793 L 494,793 L 495,794 L 498,794 L 499,795 L 508,795 L 509,794 L 513,794 L 514,793 L 515,793 L 516,792 L 517,793 L 517,800 L 516,801 L 516,803 L 517,804 L 517,810 L 518,811 L 518,813 L 519,814 L 519,815 L 520,816 L 520,817 L 521,818 L 521,819 L 524,822 L 524,823 L 529,828 L 530,828 L 532,830 L 533,830 L 534,831 L 536,831 L 537,832 L 543,832 L 544,833 L 544,834 L 545,835 L 545,837 L 546,838 L 546,840 L 547,841 L 547,842 L 548,843 L 548,845 L 549,846 L 549,847 L 550,848 L 550,849 L 552,851 L 552,852 L 553,853 L 553,854 L 560,861 L 561,861 L 563,863 L 565,863 L 566,864 L 567,864 L 568,865 L 571,865 L 572,866 L 575,866 L 576,867 L 582,867 L 583,868 L 595,868 L 596,869 L 613,869 L 614,868 L 621,868 L 622,867 L 630,867 L 631,866 L 641,866 L 642,865 L 648,865 L 649,864 L 651,864 L 653,862 L 654,862 L 655,861 L 655,860 L 657,858 L 657,857 L 658,856 L 658,854 L 659,853 L 659,850 L 660,849 L 660,837 L 659,836 L 659,833 L 658,832 L 658,830 L 657,829 L 657,828 L 656,827 L 656,826 L 654,824 L 654,823 L 652,821 L 652,820 L 650,818 L 650,817 L 646,813 L 646,812 L 638,804 L 638,803 L 635,800 L 635,799 L 633,797 L 633,796 L 632,795 L 632,794 L 630,792 L 630,790 L 629,789 L 629,788 L 628,787 L 628,785 L 627,784 L 627,779 L 626,778 L 626,776 L 627,775 L 627,773 L 628,772 L 629,772 L 631,774 L 631,777 L 632,778 L 632,780 L 633,781 L 633,783 L 634,784 L 634,786 L 635,787 L 635,789 L 636,790 L 636,791 L 638,793 L 638,794 L 639,795 L 639,796 L 646,803 L 647,803 L 648,804 L 649,804 L 653,808 L 653,809 L 654,810 L 654,812 L 655,813 L 655,814 L 656,815 L 656,816 L 657,817 L 657,818 L 658,819 L 658,820 L 660,822 L 660,823 L 662,825 L 662,826 L 667,831 L 668,831 L 671,834 L 672,834 L 674,836 L 675,836 L 676,837 L 677,837 L 678,838 L 679,838 L 680,839 L 681,839 L 682,840 L 684,840 L 685,841 L 688,841 L 689,842 L 691,842 L 692,843 L 695,843 L 696,844 L 701,844 L 702,845 L 708,845 L 709,846 L 719,846 L 720,847 L 729,847 L 730,846 L 739,846 L 740,845 L 744,845 L 745,844 L 748,844 L 749,843 L 751,843 L 752,842 L 754,842 L 755,841 L 757,841 L 758,840 L 760,840 L 761,839 L 762,839 L 763,838 L 764,838 L 767,835 L 767,834 L 768,833 L 768,832 L 769,831 L 769,819 L 768,818 L 768,814 L 767,813 L 767,811 L 766,810 L 766,808 L 765,807 L 765,806 L 764,805 L 764,804 L 763,803 L 763,802 L 761,800 L 761,799 L 760,798 L 759,798 L 756,795 L 755,795 L 753,793 L 752,793 L 751,792 L 750,792 L 749,791 L 748,791 L 747,790 L 746,790 L 745,789 L 744,789 L 743,788 L 742,788 L 741,787 L 739,787 L 738,786 L 735,786 L 734,785 L 731,785 L 730,784 L 729,784 L 728,783 L 727,783 L 724,780 L 724,779 L 723,778 L 723,777 L 722,776 L 722,775 L 721,774 L 721,772 L 720,771 L 720,767 L 719,766 L 719,754 L 718,753 L 718,737 L 719,736 L 719,728 L 720,727 L 720,721 L 721,720 L 721,716 L 722,715 L 722,711 L 723,710 L 723,706 L 724,705 L 724,701 L 725,700 L 725,697 L 726,696 L 726,692 L 727,691 L 727,689 L 728,688 L 728,685 L 729,684 L 729,682 L 730,681 L 730,679 L 732,677 L 736,677 L 738,675 L 739,675 L 741,673 L 742,673 L 745,670 L 746,670 L 756,660 L 756,659 L 760,655 L 760,654 L 762,652 L 762,651 L 763,650 L 763,649 L 765,647 L 765,645 L 766,644 L 766,643 L 767,642 L 767,640 L 768,639 L 768,637 L 769,636 L 769,632 L 770,631 L 770,624 L 771,623 L 771,599 L 772,598 L 773,599 L 773,600 L 775,602 L 775,603 L 776,604 L 776,606 L 777,607 L 777,609 L 778,610 L 778,614 L 779,615 L 779,618 L 779,617 L 780,616 L 780,615 L 782,613 L 782,612 L 784,610 L 784,609 L 785,608 L 785,607 L 787,605 L 787,604 L 788,603 L 788,601 L 789,600 L 789,599 L 790,598 L 790,596 L 791,595 L 791,592 L 792,591 L 792,588 L 793,587 L 793,579 L 794,578 L 794,569 L 793,568 L 793,562 L 792,561 L 792,558 L 791,557 L 791,555 L 790,554 L 790,553 L 789,552 L 789,550 L 788,549 L 788,548 L 787,547 L 787,546 L 786,545 L 786,544 L 785,543 L 785,541 L 784,540 L 784,539 L 783,538 L 783,536 L 782,535 L 782,533 L 781,532 L 781,517 L 782,516 L 782,514 L 783,513 L 783,512 L 785,510 L 787,510 L 788,511 L 790,511 L 791,512 L 793,512 L 794,513 L 796,513 L 797,514 L 801,514 L 802,515 L 814,515 L 815,514 L 818,514 L 819,513 L 820,513 L 821,512 L 823,512 L 824,511 L 825,511 L 827,509 L 828,509 L 831,506 L 832,506 L 841,497 L 841,496 L 845,492 L 845,491 L 841,491 L 837,487 L 837,486 L 836,485 L 836,484 L 835,483 L 835,474 L 836,473 L 836,470 L 837,469 L 837,468 L 838,467 L 838,465 L 839,464 L 839,463 L 840,462 L 840,459 L 841,458 L 841,456 L 842,455 L 842,452 L 843,451 L 843,445 L 844,444 L 844,433 L 843,432 L 843,427 L 842,426 L 842,423 L 841,422 L 841,420 L 840,419 L 840,417 L 839,416 L 839,415 L 838,414 L 838,412 L 837,411 L 837,410 L 836,409 L 836,408 L 835,407 L 835,406 L 833,404 L 833,403 L 832,402 L 832,401 L 831,400 L 831,399 L 830,398 L 830,397 L 829,396 L 829,394 L 828,393 L 828,391 L 827,390 L 827,386 L 826,385 L 826,376 L 827,375 L 827,367 L 828,366 L 830,366 L 831,367 L 835,367 L 836,368 L 850,368 L 851,367 L 859,367 L 860,366 L 865,366 L 866,365 L 870,365 L 871,364 L 874,364 L 875,363 L 877,363 L 878,362 L 880,362 L 881,361 L 883,361 L 884,360 L 886,360 L 887,359 L 888,359 L 889,358 L 891,358 L 892,357 L 893,357 L 895,355 L 896,355 L 897,354 L 898,354 L 900,352 L 901,352 L 904,349 L 905,349 L 908,346 L 908,345 L 912,341 L 912,340 L 914,338 L 914,337 L 915,336 L 915,335 L 916,334 L 916,333 L 917,332 L 917,331 L 918,330 L 918,329 L 919,328 L 919,327 L 920,326 L 920,325 L 921,324 L 921,322 L 922,321 L 922,319 L 923,318 L 923,316 L 924,315 L 924,312 L 925,311 L 925,302 L 926,301 L 926,300 L 928,298 L 928,297 L 929,296 L 929,293 L 930,292 L 930,285 L 929,284 L 929,280 L 928,279 L 928,277 L 927,276 L 927,275 L 925,273 L 925,272 L 921,268 L 920,268 L 918,266 L 917,266 L 915,264 L 914,264 L 913,263 L 912,263 L 911,262 L 910,262 L 909,261 L 908,261 L 907,260 L 906,260 L 905,259 L 903,259 L 902,258 L 901,258 L 900,257 L 898,257 L 897,256 L 896,256 L 895,255 L 893,255 L 892,254 L 890,254 L 889,253 L 887,253 L 886,252 L 884,252 L 883,251 L 881,251 L 880,250 L 878,250 L 877,249 L 875,249 L 874,248 L 873,248 L 872,247 L 870,247 L 869,246 L 868,246 L 867,245 L 865,245 L 864,244 L 863,244 L 862,243 L 861,243 L 860,242 L 858,242 L 857,241 L 856,241 L 855,240 L 854,240 L 852,238 L 851,238 L 849,236 L 848,236 L 841,229 L 841,228 L 840,227 L 840,226 L 839,225 L 839,224 L 838,223 L 838,220 L 837,219 L 837,213 L 836,212 L 836,209 L 835,208 L 835,206 L 834,205 L 834,203 L 833,202 L 833,201 L 832,200 L 832,199 L 831,198 L 831,197 L 828,194 L 828,193 L 820,185 L 819,185 L 815,181 L 814,181 L 812,179 L 811,179 L 810,178 L 809,178 L 807,176 L 806,176 L 805,175 L 804,175 L 803,174 L 802,174 L 801,173 L 800,173 L 799,172 L 798,172 L 797,171 L 795,171 L 794,170 L 793,170 L 792,169 L 790,169 L 789,168 L 787,168 L 786,167 L 784,167 L 783,166 L 780,166 L 779,165 L 777,165 L 776,164 L 772,164 L 771,163 L 767,163 L 766,162 L 761,162 L 760,161 L 752,161 L 751,160 Z" fill="black" /></svg>