<?xml version="1.0" encoding="utf-8" ?>
<svg baseProfile="full" height="1024" version="1.1" width="1024" xmlns="http://www.w3.org/2000/svg" xmlns:ev="http://www.w3.org/2001/xml-events" xmlns:xlink="http://www.w3.org/1999/xlink"><defs /><path d="M 704,175 L 703,176 L 697,176 L 696,177 L 691,177 L 690,178 L 685,178 L 684,179 L 681,179 L 680,180 L 677,180 L 676,181 L 674,181 L 673,182 L 671,182 L 670,183 L 668,183 L 667,184 L 665,184 L 664,185 L 663,185 L 662,186 L 661,186 L 660,187 L 659,187 L 658,188 L 657,188 L 656,189 L 655,189 L 654,190 L 653,190 L 652,191 L 651,191 L 650,192 L 649,192 L 647,194 L 646,194 L 644,196 L 643,196 L 638,201 L 637,201 L 636,202 L 635,202 L 634,203 L 632,203 L 631,204 L 630,204 L 629,205 L 628,205 L 627,206 L 626,206 L 625,207 L 624,207 L 623,208 L 622,208 L 620,210 L 619,210 L 618,211 L 617,211 L 615,213 L 614,213 L 612,215 L 611,215 L 608,218 L 607,218 L 601,224 L 600,224 L 585,239 L 585,240 L 575,250 L 575,251 L 567,259 L 567,260 L 563,264 L 563,265 L 560,268 L 560,269 L 556,273 L 556,274 L 554,276 L 554,277 L 552,279 L 552,280 L 550,282 L 550,283 L 549,284 L 549,285 L 548,286 L 548,287 L 547,288 L 547,289 L 546,290 L 546,291 L 545,292 L 545,294 L 544,295 L 544,297 L 543,298 L 543,300 L 542,301 L 542,304 L 541,305 L 541,310 L 540,311 L 540,325 L 541,326 L 541,331 L 542,332 L 542,335 L 543,336 L 543,339 L 544,340 L 544,342 L 545,343 L 545,345 L 546,346 L 546,347 L 547,348 L 547,349 L 548,350 L 548,351 L 549,352 L 549,353 L 550,354 L 550,355 L 551,356 L 551,357 L 552,358 L 552,359 L 554,361 L 554,362 L 556,364 L 556,365 L 558,367 L 558,368 L 560,370 L 560,371 L 563,374 L 563,375 L 567,379 L 567,380 L 571,384 L 571,385 L 576,390 L 576,391 L 578,393 L 578,404 L 577,405 L 577,407 L 576,408 L 576,410 L 575,411 L 575,413 L 574,414 L 574,415 L 573,416 L 573,417 L 571,419 L 571,420 L 570,421 L 570,422 L 566,426 L 566,427 L 558,435 L 557,435 L 554,438 L 553,438 L 550,441 L 549,441 L 547,443 L 546,443 L 545,444 L 544,444 L 543,445 L 542,445 L 540,447 L 538,447 L 537,448 L 536,448 L 535,449 L 534,449 L 533,450 L 531,450 L 530,451 L 528,451 L 527,452 L 524,452 L 523,453 L 521,453 L 520,454 L 517,454 L 516,455 L 512,455 L 511,456 L 507,456 L 506,457 L 501,457 L 500,458 L 494,458 L 493,459 L 486,459 L 485,460 L 476,460 L 475,461 L 454,461 L 453,462 L 438,462 L 437,461 L 408,461 L 407,460 L 387,460 L 386,459 L 373,459 L 372,458 L 360,458 L 359,457 L 349,457 L 348,456 L 336,456 L 335,455 L 322,455 L 321,454 L 301,454 L 300,453 L 277,453 L 276,454 L 259,454 L 258,455 L 247,455 L 246,456 L 237,456 L 236,457 L 229,457 L 228,456 L 224,456 L 223,455 L 221,455 L 220,454 L 219,454 L 218,453 L 217,453 L 215,451 L 214,451 L 213,450 L 212,450 L 211,449 L 210,449 L 208,447 L 207,447 L 204,444 L 203,444 L 200,441 L 199,441 L 188,430 L 188,429 L 184,425 L 184,424 L 182,422 L 182,421 L 180,419 L 180,418 L 179,417 L 179,416 L 177,414 L 177,413 L 176,412 L 176,411 L 175,410 L 175,409 L 174,408 L 174,406 L 173,405 L 173,404 L 172,403 L 172,401 L 171,400 L 171,398 L 170,397 L 170,394 L 169,393 L 169,390 L 168,389 L 168,385 L 167,384 L 167,378 L 166,377 L 166,345 L 167,344 L 167,338 L 168,337 L 168,332 L 169,331 L 169,327 L 170,326 L 170,323 L 171,322 L 171,319 L 172,318 L 172,316 L 173,315 L 173,313 L 174,312 L 174,310 L 175,309 L 175,307 L 176,306 L 176,304 L 177,303 L 177,301 L 178,300 L 178,299 L 179,298 L 179,296 L 180,295 L 180,294 L 181,293 L 181,291 L 182,290 L 182,289 L 183,288 L 183,287 L 184,286 L 184,284 L 185,283 L 185,282 L 186,281 L 186,279 L 187,278 L 187,277 L 188,276 L 188,274 L 189,273 L 189,267 L 188,266 L 188,265 L 185,262 L 181,262 L 180,263 L 178,263 L 177,264 L 176,264 L 175,265 L 174,265 L 173,266 L 172,266 L 170,268 L 169,268 L 167,270 L 166,270 L 159,277 L 158,277 L 158,278 L 152,284 L 152,285 L 149,288 L 149,289 L 147,291 L 147,292 L 145,294 L 145,295 L 143,297 L 143,298 L 141,300 L 141,301 L 140,302 L 140,303 L 139,304 L 139,305 L 138,306 L 138,307 L 137,308 L 137,309 L 136,310 L 136,311 L 135,312 L 135,313 L 134,314 L 134,315 L 133,316 L 133,318 L 132,319 L 132,320 L 131,321 L 131,322 L 130,323 L 130,325 L 129,326 L 129,328 L 128,329 L 128,330 L 127,331 L 127,333 L 126,334 L 126,336 L 125,337 L 125,340 L 124,341 L 124,344 L 123,345 L 123,348 L 122,349 L 122,354 L 121,355 L 121,363 L 120,364 L 120,387 L 121,388 L 121,397 L 122,398 L 122,403 L 123,404 L 123,408 L 124,409 L 124,413 L 125,414 L 125,417 L 126,418 L 126,421 L 127,422 L 127,424 L 128,425 L 128,427 L 129,428 L 129,430 L 130,431 L 130,433 L 131,434 L 131,435 L 132,436 L 132,437 L 133,438 L 133,440 L 134,441 L 134,442 L 135,443 L 135,444 L 136,445 L 136,446 L 137,447 L 137,448 L 138,449 L 138,450 L 139,451 L 139,452 L 140,453 L 140,454 L 142,456 L 142,457 L 143,458 L 143,459 L 144,460 L 144,461 L 146,463 L 146,464 L 148,466 L 148,467 L 149,468 L 149,469 L 152,472 L 152,473 L 154,475 L 154,476 L 156,478 L 156,479 L 159,482 L 159,483 L 161,485 L 161,486 L 164,489 L 148,505 L 148,506 L 142,512 L 142,513 L 139,516 L 139,517 L 136,520 L 136,521 L 133,524 L 133,525 L 131,527 L 131,528 L 129,530 L 129,531 L 128,532 L 128,533 L 126,535 L 126,536 L 125,537 L 125,538 L 123,540 L 123,541 L 122,542 L 122,543 L 121,544 L 121,545 L 120,546 L 120,548 L 119,549 L 119,550 L 118,551 L 118,552 L 117,553 L 117,555 L 116,556 L 116,557 L 115,558 L 115,561 L 114,562 L 114,564 L 113,565 L 113,568 L 112,569 L 112,572 L 111,573 L 111,578 L 110,579 L 110,586 L 109,587 L 109,620 L 108,621 L 108,628 L 107,629 L 107,632 L 106,633 L 106,634 L 105,635 L 105,637 L 104,638 L 104,639 L 103,640 L 103,641 L 101,643 L 101,644 L 99,646 L 99,647 L 85,661 L 85,662 L 83,664 L 83,665 L 82,666 L 82,668 L 81,669 L 81,671 L 80,672 L 80,676 L 79,677 L 79,691 L 80,692 L 80,704 L 81,705 L 80,706 L 81,707 L 81,726 L 80,727 L 80,752 L 79,753 L 79,777 L 80,778 L 80,781 L 81,782 L 81,784 L 82,785 L 82,786 L 83,787 L 83,788 L 85,790 L 85,791 L 87,793 L 87,794 L 92,799 L 93,799 L 96,802 L 97,802 L 98,803 L 99,803 L 100,804 L 101,804 L 102,805 L 104,805 L 105,806 L 107,806 L 108,807 L 112,807 L 113,808 L 143,808 L 144,807 L 148,807 L 149,806 L 152,806 L 153,805 L 154,805 L 155,804 L 156,804 L 158,802 L 159,802 L 162,799 L 162,798 L 163,797 L 163,796 L 164,795 L 164,793 L 165,792 L 165,783 L 164,782 L 164,778 L 163,777 L 163,774 L 162,773 L 162,771 L 161,770 L 161,769 L 160,768 L 160,767 L 159,766 L 159,765 L 158,764 L 158,763 L 153,758 L 153,757 L 152,756 L 151,756 L 150,755 L 150,754 L 143,747 L 143,746 L 142,745 L 142,744 L 141,743 L 141,742 L 140,741 L 140,738 L 139,737 L 139,722 L 140,721 L 140,717 L 141,716 L 141,714 L 142,713 L 142,712 L 143,711 L 143,710 L 152,701 L 153,701 L 155,699 L 156,699 L 157,698 L 158,698 L 159,697 L 160,697 L 161,696 L 162,696 L 163,695 L 164,695 L 165,694 L 167,694 L 168,693 L 169,693 L 170,692 L 171,692 L 172,691 L 174,691 L 175,690 L 176,690 L 177,689 L 179,689 L 180,688 L 182,688 L 183,687 L 184,687 L 185,686 L 187,686 L 188,685 L 189,685 L 190,684 L 191,684 L 192,683 L 194,683 L 195,684 L 195,685 L 196,686 L 196,688 L 197,689 L 197,691 L 198,692 L 198,694 L 199,695 L 199,697 L 200,698 L 200,701 L 201,702 L 201,705 L 202,706 L 202,709 L 203,710 L 203,715 L 204,716 L 204,720 L 205,721 L 205,726 L 206,727 L 206,733 L 207,734 L 207,744 L 208,745 L 208,750 L 209,751 L 209,753 L 210,754 L 210,756 L 211,757 L 211,758 L 212,759 L 212,760 L 215,763 L 215,764 L 220,769 L 221,769 L 223,771 L 224,771 L 226,773 L 227,773 L 228,774 L 229,774 L 230,775 L 231,775 L 232,776 L 233,776 L 234,777 L 235,777 L 236,778 L 239,778 L 240,779 L 243,779 L 244,780 L 264,780 L 265,779 L 269,779 L 270,778 L 274,778 L 275,777 L 277,777 L 278,776 L 281,776 L 282,775 L 283,775 L 284,774 L 285,774 L 286,773 L 287,773 L 291,769 L 291,768 L 292,767 L 292,758 L 291,757 L 291,754 L 290,753 L 290,751 L 289,750 L 289,748 L 287,746 L 287,745 L 286,744 L 286,743 L 279,736 L 278,736 L 276,734 L 274,734 L 273,733 L 271,733 L 270,732 L 268,732 L 267,731 L 265,731 L 264,730 L 263,730 L 258,725 L 258,724 L 256,722 L 256,721 L 255,720 L 255,719 L 254,718 L 254,716 L 253,715 L 253,713 L 252,712 L 252,710 L 251,709 L 251,706 L 250,705 L 250,700 L 249,699 L 249,690 L 250,689 L 250,688 L 251,687 L 251,686 L 254,683 L 255,683 L 256,682 L 257,682 L 258,681 L 261,681 L 262,680 L 265,680 L 266,679 L 269,679 L 270,678 L 273,678 L 274,677 L 276,677 L 277,676 L 279,676 L 280,675 L 283,675 L 284,674 L 285,674 L 286,673 L 288,673 L 289,672 L 290,672 L 291,671 L 292,671 L 294,669 L 295,669 L 297,667 L 298,667 L 301,664 L 302,664 L 306,660 L 307,660 L 309,658 L 310,658 L 311,657 L 312,657 L 313,656 L 314,656 L 315,655 L 318,655 L 319,654 L 324,654 L 325,655 L 326,655 L 327,656 L 329,656 L 330,657 L 332,657 L 333,658 L 334,658 L 335,659 L 336,659 L 337,660 L 339,660 L 340,661 L 341,661 L 342,662 L 343,662 L 344,663 L 346,663 L 347,664 L 348,664 L 349,665 L 350,665 L 351,666 L 352,666 L 353,667 L 354,667 L 355,668 L 356,668 L 357,669 L 358,669 L 359,670 L 360,670 L 361,671 L 362,671 L 363,672 L 365,672 L 366,673 L 367,673 L 369,675 L 370,675 L 371,676 L 373,676 L 375,678 L 376,678 L 377,679 L 378,679 L 379,680 L 380,680 L 381,681 L 382,681 L 383,682 L 384,682 L 385,683 L 386,683 L 387,684 L 388,684 L 389,685 L 390,685 L 391,686 L 392,686 L 393,687 L 394,687 L 395,688 L 396,688 L 397,689 L 398,689 L 399,690 L 400,690 L 401,691 L 402,691 L 403,692 L 404,692 L 405,693 L 406,693 L 407,694 L 408,694 L 409,695 L 410,695 L 411,696 L 412,696 L 413,697 L 414,697 L 415,698 L 416,698 L 417,699 L 418,699 L 419,700 L 420,700 L 421,701 L 422,701 L 423,702 L 425,702 L 426,703 L 427,703 L 428,704 L 429,704 L 430,705 L 431,705 L 432,706 L 433,706 L 434,707 L 436,707 L 437,708 L 438,708 L 439,709 L 440,709 L 441,710 L 442,710 L 443,711 L 445,711 L 446,712 L 447,712 L 448,713 L 450,713 L 451,714 L 452,714 L 453,715 L 455,715 L 456,716 L 457,716 L 458,717 L 460,717 L 461,718 L 462,718 L 463,719 L 465,719 L 466,720 L 467,720 L 468,721 L 470,721 L 471,722 L 473,722 L 474,723 L 476,723 L 477,724 L 479,724 L 480,725 L 481,725 L 482,726 L 484,726 L 485,727 L 487,727 L 488,728 L 490,728 L 491,729 L 494,729 L 495,730 L 497,730 L 498,731 L 501,731 L 502,732 L 504,732 L 505,733 L 507,733 L 508,734 L 510,734 L 512,736 L 513,736 L 515,738 L 515,739 L 516,740 L 516,741 L 517,742 L 517,744 L 518,745 L 518,747 L 519,748 L 519,753 L 520,754 L 520,762 L 519,763 L 519,772 L 520,773 L 520,775 L 521,776 L 521,777 L 522,778 L 522,780 L 523,781 L 523,782 L 524,783 L 524,784 L 525,785 L 525,787 L 526,788 L 526,791 L 527,792 L 527,795 L 528,796 L 528,823 L 529,824 L 529,828 L 530,829 L 530,831 L 531,832 L 531,834 L 532,835 L 532,836 L 533,837 L 533,838 L 534,839 L 534,840 L 536,842 L 536,843 L 542,849 L 543,849 L 546,852 L 547,852 L 548,853 L 549,853 L 550,854 L 551,854 L 552,855 L 554,855 L 555,856 L 557,856 L 558,857 L 562,857 L 563,858 L 570,858 L 571,859 L 599,859 L 600,858 L 608,858 L 609,857 L 613,857 L 614,856 L 616,856 L 617,855 L 619,855 L 620,854 L 621,854 L 623,852 L 624,852 L 627,849 L 627,848 L 629,846 L 629,845 L 630,844 L 630,842 L 631,841 L 631,829 L 630,828 L 630,825 L 629,824 L 629,823 L 628,822 L 628,821 L 627,820 L 627,819 L 626,818 L 626,817 L 622,813 L 622,812 L 621,811 L 620,811 L 617,808 L 616,808 L 615,807 L 614,807 L 612,805 L 611,805 L 609,803 L 608,803 L 606,801 L 605,801 L 603,799 L 602,799 L 598,795 L 598,794 L 597,793 L 597,792 L 596,791 L 596,754 L 595,753 L 595,752 L 596,751 L 596,745 L 597,744 L 600,744 L 601,743 L 604,743 L 605,742 L 609,742 L 610,741 L 614,741 L 615,740 L 618,740 L 619,739 L 623,739 L 624,738 L 628,738 L 629,737 L 632,737 L 633,736 L 637,736 L 638,735 L 641,735 L 642,734 L 643,735 L 643,738 L 642,739 L 642,759 L 643,760 L 643,765 L 644,766 L 644,769 L 645,770 L 645,773 L 646,774 L 646,777 L 647,778 L 647,780 L 648,781 L 648,783 L 649,784 L 649,786 L 650,787 L 650,789 L 651,790 L 651,794 L 652,795 L 652,798 L 653,799 L 653,801 L 654,802 L 654,803 L 655,804 L 655,806 L 657,808 L 657,809 L 659,811 L 659,812 L 668,821 L 669,821 L 672,824 L 673,824 L 674,825 L 675,825 L 677,827 L 679,827 L 680,828 L 681,828 L 682,829 L 684,829 L 685,830 L 687,830 L 688,831 L 691,831 L 692,832 L 698,832 L 699,833 L 718,833 L 719,832 L 731,832 L 732,831 L 737,831 L 738,830 L 742,830 L 743,829 L 745,829 L 746,828 L 747,828 L 749,826 L 750,826 L 752,824 L 752,823 L 753,822 L 753,820 L 754,819 L 754,814 L 753,813 L 753,808 L 752,807 L 752,804 L 751,803 L 751,800 L 750,799 L 750,797 L 749,796 L 749,795 L 748,794 L 748,793 L 747,792 L 747,791 L 746,790 L 746,789 L 744,787 L 744,786 L 739,781 L 738,781 L 736,779 L 735,779 L 734,778 L 733,778 L 732,777 L 731,777 L 730,776 L 724,776 L 723,775 L 721,775 L 720,774 L 719,774 L 718,773 L 717,773 L 715,771 L 714,771 L 711,768 L 711,767 L 709,765 L 709,764 L 708,763 L 708,762 L 707,761 L 707,760 L 706,759 L 706,758 L 705,757 L 705,755 L 704,754 L 704,752 L 703,751 L 703,748 L 702,747 L 702,742 L 701,741 L 701,726 L 702,725 L 702,719 L 703,718 L 703,714 L 704,713 L 704,709 L 705,708 L 705,704 L 706,703 L 706,701 L 727,680 L 727,679 L 733,673 L 733,672 L 736,669 L 736,668 L 740,664 L 740,663 L 742,661 L 742,660 L 745,657 L 745,656 L 747,654 L 747,653 L 749,651 L 749,650 L 750,649 L 750,648 L 752,646 L 752,645 L 754,643 L 754,642 L 755,641 L 755,640 L 756,639 L 756,638 L 757,637 L 757,636 L 759,634 L 759,633 L 760,632 L 760,631 L 761,630 L 761,628 L 762,627 L 762,626 L 763,625 L 763,624 L 764,623 L 764,621 L 765,620 L 765,619 L 766,618 L 766,616 L 767,615 L 767,613 L 768,612 L 768,610 L 769,609 L 769,606 L 770,605 L 770,601 L 771,600 L 771,595 L 772,594 L 772,575 L 771,574 L 771,566 L 770,565 L 770,558 L 769,557 L 769,550 L 768,549 L 768,543 L 767,542 L 767,535 L 766,534 L 766,525 L 765,524 L 765,513 L 764,512 L 764,474 L 765,473 L 765,460 L 766,459 L 766,447 L 767,446 L 767,438 L 768,437 L 768,430 L 769,429 L 769,424 L 770,423 L 770,419 L 771,418 L 771,415 L 772,414 L 772,412 L 773,411 L 773,410 L 778,405 L 779,405 L 780,404 L 782,404 L 783,403 L 805,403 L 806,404 L 812,404 L 813,405 L 819,405 L 820,406 L 828,406 L 829,407 L 860,407 L 861,406 L 867,406 L 868,405 L 872,405 L 873,404 L 876,404 L 877,403 L 880,403 L 881,402 L 884,402 L 885,401 L 887,401 L 888,400 L 890,400 L 891,399 L 892,399 L 893,398 L 895,398 L 896,397 L 897,397 L 898,396 L 899,396 L 900,395 L 901,395 L 902,394 L 903,394 L 904,393 L 905,393 L 906,392 L 907,392 L 908,391 L 909,391 L 911,389 L 912,389 L 913,388 L 914,388 L 916,386 L 917,386 L 920,383 L 921,383 L 926,378 L 927,378 L 931,374 L 931,373 L 937,367 L 937,366 L 939,364 L 939,363 L 941,361 L 941,360 L 943,358 L 943,357 L 945,355 L 945,354 L 946,353 L 946,352 L 954,344 L 954,343 L 956,341 L 956,340 L 957,339 L 957,337 L 958,336 L 958,328 L 957,327 L 957,325 L 956,324 L 956,323 L 954,321 L 954,320 L 948,314 L 947,314 L 945,312 L 944,312 L 943,311 L 942,311 L 941,310 L 940,310 L 938,308 L 937,308 L 936,307 L 935,307 L 934,306 L 933,306 L 932,305 L 931,305 L 929,303 L 928,303 L 927,302 L 926,302 L 925,301 L 924,301 L 923,300 L 922,300 L 921,299 L 920,299 L 919,298 L 918,298 L 917,297 L 916,297 L 914,295 L 913,295 L 912,294 L 911,294 L 910,293 L 909,293 L 908,292 L 907,292 L 906,291 L 905,291 L 904,290 L 903,290 L 902,289 L 901,289 L 899,287 L 898,287 L 897,286 L 896,286 L 895,285 L 894,285 L 893,284 L 892,284 L 891,283 L 890,283 L 889,282 L 888,282 L 886,280 L 885,280 L 884,279 L 883,279 L 882,278 L 881,278 L 880,277 L 879,277 L 878,276 L 877,276 L 876,275 L 875,275 L 873,273 L 872,273 L 871,272 L 870,272 L 869,271 L 868,271 L 867,270 L 866,270 L 864,268 L 863,268 L 862,267 L 861,267 L 859,265 L 858,265 L 855,262 L 855,261 L 853,259 L 853,257 L 852,256 L 852,253 L 851,252 L 851,245 L 850,244 L 850,240 L 849,239 L 849,236 L 848,235 L 848,233 L 847,232 L 847,231 L 846,230 L 846,228 L 845,227 L 845,226 L 843,224 L 843,223 L 842,222 L 842,221 L 837,216 L 836,216 L 834,214 L 833,214 L 832,213 L 831,213 L 830,212 L 829,212 L 827,210 L 826,210 L 825,209 L 824,209 L 823,208 L 822,208 L 820,206 L 819,206 L 809,196 L 808,196 L 805,193 L 804,193 L 802,191 L 801,191 L 800,190 L 799,190 L 798,189 L 797,189 L 796,188 L 795,188 L 794,187 L 793,187 L 792,186 L 790,186 L 789,185 L 788,185 L 787,184 L 785,184 L 784,183 L 782,183 L 781,182 L 778,182 L 777,181 L 775,181 L 774,180 L 770,180 L 769,179 L 765,179 L 764,178 L 758,178 L 757,177 L 748,177 L 747,176 L 734,176 L 733,175 Z" fill="black" /></svg>