<?xml version="1.0" encoding="utf-8" ?>
<svg baseProfile="full" height="1024" version="1.1" width="1024" xmlns="http://www.w3.org/2000/svg" xmlns:ev="http://www.w3.org/2001/xml-events" xmlns:xlink="http://www.w3.org/1999/xlink"><defs /><path d="M 167,869 Z" fill="black" /><path d="M 141,623 Z" fill="black" /><path d="M 141,620 Z" fill="black" /><path d="M 809,562 L 809,563 Z" fill="black" /><path d="M 819,88 L 818,89 L 814,89 L 813,90 L 812,90 L 811,91 L 810,91 L 809,92 L 808,92 L 807,93 L 806,93 L 805,94 L 804,94 L 799,99 L 798,99 L 798,100 L 791,107 L 791,108 L 788,111 L 788,112 L 786,114 L 786,115 L 784,117 L 784,118 L 782,120 L 782,121 L 781,122 L 781,123 L 779,125 L 779,126 L 778,127 L 778,128 L 777,129 L 777,130 L 776,131 L 776,132 L 775,133 L 775,134 L 774,135 L 774,136 L 773,137 L 773,138 L 772,139 L 772,141 L 771,142 L 771,143 L 770,144 L 770,146 L 769,147 L 769,148 L 768,149 L 768,151 L 767,152 L 767,153 L 766,154 L 766,156 L 765,157 L 765,159 L 764,160 L 764,162 L 763,163 L 763,165 L 762,166 L 762,168 L 761,169 L 761,171 L 760,172 L 760,174 L 759,175 L 759,178 L 758,179 L 758,181 L 757,182 L 757,184 L 754,187 L 753,187 L 752,188 L 750,188 L 749,189 L 716,189 L 715,190 L 707,190 L 706,191 L 698,191 L 697,192 L 693,192 L 689,188 L 689,187 L 686,184 L 686,183 L 684,181 L 684,180 L 681,177 L 681,176 L 679,174 L 679,173 L 677,171 L 677,170 L 675,168 L 675,167 L 673,165 L 673,164 L 671,162 L 671,161 L 669,159 L 669,158 L 667,156 L 667,155 L 664,152 L 664,151 L 662,149 L 662,148 L 659,145 L 659,144 L 657,142 L 657,141 L 654,138 L 654,137 L 650,133 L 650,132 L 647,129 L 647,128 L 641,122 L 641,121 L 627,107 L 626,107 L 622,103 L 621,103 L 619,101 L 618,101 L 616,99 L 615,99 L 614,98 L 613,98 L 612,97 L 611,97 L 610,96 L 608,96 L 607,95 L 605,95 L 604,94 L 601,94 L 600,93 L 589,93 L 588,94 L 585,94 L 584,95 L 581,95 L 580,96 L 578,96 L 577,97 L 576,97 L 575,98 L 574,98 L 573,99 L 572,99 L 569,102 L 568,102 L 563,107 L 563,108 L 560,111 L 560,112 L 559,113 L 559,114 L 557,116 L 557,118 L 556,119 L 556,120 L 555,121 L 555,123 L 554,124 L 554,126 L 553,127 L 553,129 L 552,130 L 552,133 L 551,134 L 551,138 L 550,139 L 550,144 L 549,145 L 549,155 L 548,156 L 548,171 L 549,172 L 549,180 L 550,181 L 550,187 L 551,188 L 551,192 L 552,193 L 552,196 L 553,197 L 553,201 L 554,202 L 554,206 L 555,207 L 555,211 L 554,212 L 554,215 L 553,216 L 553,220 L 552,221 L 552,226 L 551,227 L 551,239 L 550,240 L 550,271 L 551,272 L 551,276 L 552,277 L 552,280 L 553,281 L 553,284 L 554,285 L 554,286 L 555,287 L 555,289 L 556,290 L 556,291 L 557,292 L 557,293 L 559,295 L 559,296 L 562,299 L 562,300 L 568,306 L 569,306 L 572,309 L 573,309 L 576,312 L 576,318 L 564,330 L 564,331 L 559,336 L 559,337 L 556,340 L 556,341 L 552,345 L 552,346 L 550,348 L 550,349 L 547,352 L 547,353 L 544,356 L 544,357 L 540,361 L 540,362 L 536,366 L 535,366 L 533,368 L 532,368 L 531,369 L 530,369 L 529,370 L 527,370 L 526,371 L 521,371 L 520,372 L 517,372 L 516,373 L 513,373 L 512,374 L 510,374 L 509,375 L 508,375 L 507,376 L 505,376 L 504,377 L 503,377 L 502,378 L 501,378 L 500,379 L 499,379 L 497,381 L 496,381 L 495,382 L 494,382 L 492,384 L 491,384 L 488,387 L 487,387 L 486,388 L 485,388 L 484,389 L 470,389 L 469,388 L 461,388 L 460,387 L 453,387 L 452,386 L 447,386 L 446,385 L 439,385 L 438,384 L 432,384 L 431,383 L 425,383 L 424,382 L 417,382 L 416,381 L 411,381 L 410,380 L 405,380 L 404,379 L 397,379 L 396,378 L 391,378 L 390,377 L 381,377 L 380,376 L 358,376 L 357,375 L 341,375 L 340,376 L 339,375 L 338,375 L 337,376 L 321,376 L 320,377 L 310,377 L 309,378 L 304,378 L 303,379 L 299,379 L 298,380 L 295,380 L 294,381 L 291,381 L 290,382 L 288,382 L 287,383 L 285,383 L 284,384 L 282,384 L 281,385 L 279,385 L 278,386 L 277,386 L 276,387 L 274,387 L 273,388 L 272,388 L 271,389 L 270,389 L 269,390 L 267,390 L 266,389 L 264,389 L 263,388 L 261,388 L 260,387 L 256,387 L 255,386 L 239,386 L 238,387 L 234,387 L 233,388 L 230,388 L 229,389 L 227,389 L 226,390 L 225,390 L 224,391 L 223,391 L 222,392 L 221,392 L 219,394 L 218,394 L 216,396 L 215,396 L 211,400 L 211,401 L 208,404 L 208,405 L 207,406 L 207,407 L 206,408 L 206,409 L 205,410 L 205,411 L 204,412 L 204,413 L 203,414 L 203,415 L 202,416 L 202,417 L 201,418 L 201,420 L 200,421 L 200,424 L 199,425 L 199,428 L 198,429 L 198,435 L 197,436 L 197,442 L 196,443 L 196,444 L 192,448 L 192,449 L 189,452 L 189,453 L 186,456 L 186,457 L 184,459 L 184,460 L 182,462 L 182,463 L 180,465 L 180,466 L 178,468 L 178,469 L 177,470 L 177,471 L 175,473 L 175,474 L 174,475 L 174,476 L 173,477 L 173,478 L 172,479 L 172,480 L 170,482 L 170,484 L 169,485 L 169,486 L 168,487 L 168,488 L 167,489 L 167,490 L 166,491 L 166,493 L 165,494 L 165,495 L 164,496 L 164,498 L 163,499 L 163,500 L 162,501 L 162,503 L 161,504 L 161,506 L 160,507 L 160,509 L 159,510 L 159,513 L 158,514 L 158,516 L 157,517 L 157,520 L 156,521 L 156,524 L 155,525 L 155,529 L 154,530 L 154,533 L 153,534 L 153,539 L 152,540 L 152,544 L 151,545 L 151,550 L 150,551 L 150,556 L 149,557 L 149,570 L 148,571 L 148,578 L 147,579 L 147,588 L 146,589 L 146,598 L 145,599 L 145,610 L 144,611 L 144,618 L 143,619 L 143,628 L 142,629 L 142,639 L 141,640 L 141,648 L 140,649 L 140,665 L 139,666 L 139,671 L 138,672 L 138,674 L 137,675 L 137,677 L 136,678 L 136,679 L 135,680 L 135,682 L 134,683 L 134,684 L 132,686 L 132,687 L 131,688 L 131,689 L 128,692 L 128,693 L 126,695 L 126,696 L 123,699 L 123,700 L 122,701 L 122,702 L 120,704 L 120,705 L 119,706 L 119,708 L 118,709 L 118,724 L 119,725 L 119,731 L 120,732 L 120,744 L 119,745 L 119,759 L 118,760 L 118,767 L 117,768 L 117,775 L 116,776 L 116,782 L 115,783 L 115,787 L 114,788 L 114,794 L 113,795 L 113,799 L 112,800 L 112,807 L 111,808 L 111,815 L 110,816 L 110,848 L 111,849 L 111,853 L 112,854 L 112,855 L 113,856 L 113,857 L 118,862 L 119,862 L 120,863 L 121,863 L 122,864 L 123,864 L 124,865 L 126,865 L 127,866 L 131,866 L 132,867 L 171,867 L 172,866 L 176,866 L 177,865 L 183,865 L 184,864 L 190,864 L 191,863 L 192,863 L 194,861 L 195,861 L 199,857 L 199,856 L 200,855 L 200,854 L 201,853 L 201,848 L 202,847 L 202,841 L 201,840 L 201,836 L 200,835 L 200,832 L 199,831 L 199,830 L 198,829 L 198,827 L 196,825 L 196,824 L 195,823 L 195,822 L 191,818 L 190,818 L 187,815 L 186,815 L 183,812 L 183,811 L 180,808 L 180,801 L 181,800 L 181,791 L 182,790 L 182,782 L 183,781 L 183,776 L 184,775 L 184,769 L 185,768 L 185,764 L 186,763 L 186,760 L 187,759 L 187,757 L 188,756 L 188,754 L 189,753 L 189,752 L 190,751 L 190,750 L 191,749 L 191,748 L 192,747 L 192,746 L 193,745 L 193,744 L 195,742 L 195,741 L 197,739 L 197,738 L 199,736 L 199,735 L 203,731 L 203,730 L 209,724 L 209,723 L 226,706 L 226,705 L 228,703 L 229,703 L 229,702 L 239,692 L 239,691 L 246,684 L 246,683 L 250,679 L 250,678 L 254,674 L 254,673 L 257,670 L 257,669 L 259,667 L 259,666 L 262,663 L 262,662 L 264,660 L 264,659 L 267,656 L 267,655 L 269,653 L 269,652 L 270,651 L 270,650 L 272,648 L 272,647 L 274,645 L 274,644 L 276,642 L 276,641 L 277,640 L 277,639 L 279,637 L 279,636 L 280,635 L 280,634 L 282,632 L 282,631 L 283,630 L 283,629 L 284,628 L 284,627 L 286,625 L 286,624 L 287,623 L 288,624 L 288,626 L 289,627 L 289,629 L 290,630 L 290,644 L 289,645 L 289,650 L 288,651 L 288,655 L 287,656 L 287,658 L 286,659 L 286,661 L 285,662 L 285,664 L 284,665 L 284,667 L 283,668 L 283,669 L 282,670 L 282,672 L 281,673 L 281,674 L 280,675 L 280,676 L 279,677 L 279,678 L 278,679 L 278,680 L 277,681 L 277,682 L 276,683 L 276,684 L 275,685 L 275,686 L 274,687 L 274,688 L 272,690 L 272,691 L 271,692 L 271,693 L 270,694 L 270,695 L 268,697 L 268,698 L 267,699 L 267,700 L 266,701 L 266,702 L 265,703 L 265,704 L 264,705 L 264,706 L 263,707 L 263,708 L 262,709 L 262,710 L 261,711 L 261,713 L 260,714 L 260,728 L 261,729 L 261,736 L 262,737 L 262,742 L 263,743 L 263,747 L 264,748 L 264,752 L 265,753 L 265,758 L 266,759 L 266,763 L 267,764 L 267,769 L 268,770 L 268,775 L 269,776 L 269,782 L 270,783 L 270,788 L 271,789 L 271,796 L 272,797 L 272,804 L 273,805 L 273,810 L 274,811 L 274,813 L 275,814 L 275,816 L 276,817 L 276,818 L 277,819 L 277,820 L 278,821 L 278,822 L 279,823 L 279,824 L 280,825 L 280,826 L 282,828 L 282,829 L 284,831 L 284,832 L 290,838 L 291,838 L 293,840 L 294,840 L 295,841 L 296,841 L 297,842 L 300,842 L 301,843 L 305,843 L 306,844 L 334,844 L 335,843 L 341,843 L 342,842 L 345,842 L 346,841 L 349,841 L 350,840 L 352,840 L 354,838 L 355,838 L 356,837 L 357,837 L 361,833 L 361,824 L 360,823 L 360,821 L 358,819 L 358,818 L 357,817 L 357,816 L 353,812 L 353,811 L 352,810 L 351,810 L 346,805 L 345,805 L 343,803 L 342,803 L 341,802 L 340,802 L 339,801 L 338,801 L 337,800 L 336,800 L 335,799 L 333,799 L 332,798 L 329,798 L 328,797 L 323,797 L 321,795 L 320,796 L 319,795 L 319,777 L 318,776 L 318,771 L 317,770 L 317,761 L 316,760 L 316,749 L 317,748 L 317,742 L 318,741 L 318,740 L 319,739 L 319,738 L 323,734 L 323,733 L 337,719 L 337,718 L 338,717 L 339,717 L 358,698 L 358,697 L 362,693 L 362,692 L 365,689 L 365,688 L 369,684 L 369,683 L 371,681 L 371,680 L 374,677 L 374,676 L 375,675 L 375,674 L 377,672 L 377,671 L 378,670 L 378,669 L 379,668 L 379,667 L 380,666 L 380,665 L 381,664 L 381,663 L 382,662 L 382,660 L 383,659 L 383,657 L 384,656 L 399,671 L 400,671 L 408,679 L 409,679 L 413,683 L 414,683 L 417,686 L 418,686 L 421,689 L 422,689 L 424,691 L 425,691 L 426,692 L 427,692 L 429,694 L 430,694 L 431,695 L 432,695 L 434,697 L 435,697 L 436,698 L 437,698 L 438,699 L 439,699 L 440,700 L 441,700 L 442,701 L 443,701 L 444,702 L 445,702 L 446,703 L 447,703 L 448,704 L 450,704 L 451,705 L 452,705 L 453,706 L 454,706 L 455,707 L 456,707 L 458,709 L 459,709 L 461,711 L 461,712 L 464,715 L 464,718 L 465,719 L 465,726 L 466,727 L 466,733 L 467,734 L 467,741 L 468,742 L 468,748 L 469,749 L 469,755 L 470,756 L 470,764 L 471,765 L 471,771 L 472,772 L 472,779 L 473,780 L 473,792 L 474,793 L 474,820 L 475,821 L 475,826 L 476,827 L 476,829 L 477,830 L 477,832 L 482,837 L 483,837 L 484,838 L 485,838 L 486,839 L 486,840 L 487,841 L 487,842 L 488,843 L 488,846 L 489,847 L 489,850 L 490,851 L 490,855 L 491,856 L 491,873 L 492,874 L 492,882 L 493,883 L 493,887 L 494,888 L 494,891 L 495,892 L 495,894 L 496,895 L 496,896 L 497,897 L 497,898 L 498,899 L 498,900 L 499,901 L 499,902 L 501,904 L 501,905 L 509,913 L 510,913 L 512,915 L 513,915 L 514,916 L 515,916 L 516,917 L 517,917 L 518,918 L 519,918 L 520,919 L 521,919 L 522,920 L 525,920 L 526,921 L 530,921 L 531,922 L 548,922 L 549,921 L 553,921 L 554,922 L 563,922 L 564,921 L 573,921 L 574,920 L 579,920 L 580,919 L 584,919 L 585,918 L 588,918 L 589,917 L 591,917 L 592,916 L 594,916 L 595,915 L 596,915 L 597,914 L 598,914 L 599,913 L 600,913 L 601,912 L 602,912 L 604,910 L 604,909 L 606,907 L 606,905 L 607,904 L 607,901 L 608,900 L 608,896 L 607,895 L 607,889 L 606,888 L 606,886 L 605,885 L 605,883 L 604,882 L 604,881 L 603,880 L 603,879 L 602,878 L 602,877 L 600,875 L 600,874 L 598,872 L 598,871 L 593,866 L 592,866 L 589,863 L 588,863 L 587,862 L 586,862 L 585,861 L 584,861 L 583,860 L 582,860 L 581,859 L 580,859 L 579,858 L 578,858 L 577,857 L 576,857 L 575,856 L 575,855 L 571,851 L 571,850 L 570,849 L 570,848 L 569,847 L 569,845 L 568,844 L 568,842 L 567,841 L 567,837 L 566,836 L 566,830 L 565,829 L 565,813 L 564,812 L 564,804 L 565,803 L 565,775 L 566,774 L 566,763 L 567,762 L 567,753 L 568,752 L 568,745 L 569,744 L 569,738 L 570,737 L 570,733 L 571,732 L 571,727 L 573,725 L 576,725 L 577,726 L 589,726 L 590,727 L 600,727 L 601,726 L 614,726 L 615,725 L 623,725 L 624,724 L 630,724 L 631,723 L 638,723 L 639,722 L 644,722 L 645,721 L 649,721 L 650,720 L 655,720 L 656,719 L 660,719 L 661,720 L 661,723 L 662,724 L 662,748 L 663,749 L 663,766 L 664,767 L 664,787 L 663,788 L 663,806 L 664,807 L 664,809 L 665,810 L 665,811 L 666,812 L 666,813 L 668,815 L 668,816 L 669,816 L 675,822 L 675,823 L 676,824 L 676,827 L 677,828 L 677,842 L 678,843 L 678,850 L 679,851 L 679,855 L 680,856 L 680,858 L 681,859 L 681,861 L 682,862 L 682,864 L 683,865 L 683,866 L 684,867 L 684,868 L 685,869 L 685,870 L 686,871 L 686,872 L 687,873 L 687,874 L 689,876 L 689,877 L 700,888 L 701,888 L 702,889 L 703,889 L 704,890 L 705,890 L 706,891 L 707,891 L 708,892 L 710,892 L 711,893 L 715,893 L 716,894 L 756,894 L 757,893 L 759,893 L 760,894 L 762,894 L 763,893 L 772,893 L 773,892 L 776,892 L 777,891 L 779,891 L 780,890 L 781,890 L 783,888 L 784,888 L 788,884 L 788,883 L 790,881 L 790,880 L 791,879 L 791,868 L 790,867 L 790,864 L 789,863 L 789,862 L 788,861 L 788,860 L 787,859 L 787,858 L 786,857 L 786,856 L 785,855 L 785,854 L 784,853 L 784,852 L 781,849 L 781,848 L 774,841 L 773,841 L 771,839 L 770,839 L 768,837 L 767,837 L 766,836 L 765,836 L 764,835 L 762,835 L 761,834 L 758,834 L 757,833 L 755,833 L 754,832 L 753,832 L 752,831 L 751,831 L 746,826 L 746,825 L 744,823 L 744,821 L 743,820 L 743,818 L 742,817 L 742,806 L 741,805 L 741,799 L 742,798 L 742,792 L 743,791 L 743,787 L 744,786 L 744,783 L 745,782 L 745,778 L 746,777 L 746,775 L 747,774 L 747,772 L 748,771 L 748,768 L 749,767 L 749,765 L 750,764 L 750,762 L 751,761 L 751,759 L 752,758 L 752,756 L 753,755 L 753,753 L 754,752 L 754,750 L 755,749 L 755,747 L 756,746 L 756,744 L 757,743 L 757,741 L 758,740 L 758,738 L 759,737 L 759,735 L 760,734 L 760,733 L 761,732 L 761,729 L 762,728 L 762,726 L 763,725 L 763,724 L 764,723 L 764,721 L 765,720 L 765,718 L 766,717 L 766,715 L 767,714 L 767,712 L 768,711 L 768,709 L 769,708 L 769,706 L 770,705 L 770,702 L 771,701 L 771,697 L 772,696 L 772,693 L 773,692 L 773,688 L 774,687 L 774,682 L 775,681 L 775,675 L 776,674 L 776,670 L 777,669 L 777,661 L 778,660 L 778,659 L 780,657 L 780,656 L 783,653 L 783,652 L 785,650 L 785,649 L 788,646 L 788,645 L 789,644 L 789,643 L 791,641 L 791,640 L 792,639 L 792,638 L 793,637 L 793,636 L 794,635 L 794,634 L 795,633 L 795,632 L 796,631 L 796,630 L 797,629 L 797,627 L 798,626 L 798,625 L 799,624 L 799,622 L 800,621 L 800,619 L 801,618 L 801,616 L 802,615 L 802,612 L 803,611 L 803,609 L 804,608 L 804,604 L 805,603 L 805,599 L 806,598 L 806,592 L 807,591 L 807,558 L 806,557 L 806,547 L 805,546 L 805,538 L 804,537 L 804,530 L 803,529 L 803,523 L 802,522 L 802,516 L 801,515 L 801,508 L 800,507 L 801,506 L 800,505 L 800,492 L 802,490 L 806,490 L 807,489 L 811,489 L 812,488 L 816,488 L 817,487 L 821,487 L 822,486 L 826,486 L 827,485 L 829,485 L 830,484 L 832,484 L 833,483 L 834,483 L 835,482 L 836,482 L 837,481 L 838,481 L 839,480 L 840,480 L 841,479 L 842,479 L 843,478 L 844,478 L 845,477 L 853,477 L 854,476 L 860,476 L 861,475 L 863,475 L 864,474 L 866,474 L 867,473 L 868,473 L 869,472 L 870,472 L 872,470 L 873,470 L 876,467 L 877,467 L 881,463 L 881,462 L 884,459 L 884,458 L 885,457 L 885,456 L 886,455 L 886,454 L 887,453 L 887,452 L 888,451 L 888,450 L 889,449 L 889,447 L 890,446 L 890,444 L 891,443 L 891,441 L 892,440 L 892,436 L 893,435 L 893,431 L 894,430 L 894,426 L 895,425 L 895,416 L 896,415 L 896,409 L 895,408 L 895,400 L 894,399 L 894,394 L 893,393 L 893,389 L 892,388 L 892,385 L 891,384 L 891,382 L 890,381 L 890,379 L 889,378 L 889,375 L 888,374 L 888,373 L 887,372 L 887,371 L 886,370 L 886,369 L 885,368 L 885,367 L 884,366 L 884,365 L 883,364 L 883,363 L 882,362 L 882,361 L 881,360 L 881,358 L 880,357 L 880,354 L 879,353 L 879,339 L 880,338 L 880,333 L 881,332 L 881,329 L 882,328 L 882,315 L 881,314 L 881,309 L 882,308 L 882,306 L 883,305 L 883,304 L 884,303 L 884,302 L 885,301 L 885,299 L 886,298 L 886,285 L 885,284 L 885,281 L 884,280 L 884,278 L 883,277 L 883,276 L 881,274 L 881,273 L 880,272 L 880,271 L 870,261 L 869,261 L 866,258 L 865,258 L 863,256 L 862,256 L 860,254 L 859,254 L 858,253 L 857,253 L 852,248 L 852,245 L 851,244 L 851,242 L 850,241 L 850,239 L 849,238 L 849,236 L 848,235 L 848,234 L 847,233 L 847,232 L 846,231 L 846,227 L 845,226 L 845,204 L 846,203 L 846,196 L 847,195 L 847,190 L 848,189 L 848,184 L 849,183 L 849,178 L 850,177 L 850,173 L 851,172 L 851,167 L 852,166 L 852,162 L 853,161 L 853,157 L 854,156 L 854,151 L 855,150 L 855,136 L 854,135 L 854,129 L 853,128 L 853,121 L 852,120 L 852,116 L 851,115 L 851,113 L 850,112 L 850,110 L 849,109 L 849,107 L 848,106 L 848,105 L 847,104 L 847,103 L 845,101 L 845,100 L 838,93 L 837,93 L 835,91 L 833,91 L 832,90 L 830,90 L 829,89 L 826,89 L 825,88 Z" fill="black" /></svg>