<?xml version="1.0" encoding="utf-8" ?>
<svg baseProfile="full" height="1024" version="1.1" width="1024" xmlns="http://www.w3.org/2000/svg" xmlns:ev="http://www.w3.org/2001/xml-events" xmlns:xlink="http://www.w3.org/1999/xlink"><defs /><path d="M 823,124 L 821,126 L 820,126 L 819,127 L 819,128 L 815,132 L 815,133 L 814,134 L 814,135 L 813,136 L 813,137 L 812,138 L 812,139 L 811,140 L 811,141 L 810,142 L 810,143 L 809,144 L 809,145 L 808,146 L 808,147 L 807,148 L 807,149 L 806,150 L 806,151 L 805,152 L 805,153 L 804,154 L 804,155 L 802,157 L 802,158 L 801,159 L 801,160 L 799,162 L 799,163 L 798,164 L 798,165 L 796,167 L 796,168 L 795,169 L 795,170 L 793,172 L 793,173 L 791,175 L 791,176 L 789,178 L 789,179 L 787,181 L 787,182 L 785,184 L 785,185 L 783,187 L 783,188 L 782,189 L 782,190 L 780,192 L 780,193 L 778,195 L 778,196 L 777,197 L 777,198 L 776,199 L 776,200 L 775,201 L 775,202 L 774,203 L 774,204 L 773,205 L 773,206 L 772,207 L 772,208 L 771,209 L 771,210 L 770,211 L 770,213 L 769,214 L 769,215 L 768,216 L 768,220 L 767,221 L 767,225 L 766,226 L 766,231 L 760,237 L 760,238 L 757,241 L 757,242 L 754,245 L 754,246 L 751,249 L 751,250 L 749,252 L 749,253 L 746,256 L 746,257 L 744,259 L 744,260 L 741,263 L 741,264 L 738,267 L 738,268 L 735,271 L 735,272 L 732,275 L 732,276 L 729,279 L 729,280 L 725,284 L 725,285 L 722,288 L 722,289 L 718,293 L 718,294 L 714,298 L 714,299 L 709,304 L 709,305 L 703,311 L 703,312 L 694,321 L 694,322 L 688,328 L 687,328 L 680,335 L 679,335 L 676,338 L 675,338 L 673,340 L 672,340 L 670,342 L 669,342 L 667,344 L 665,344 L 664,345 L 663,345 L 662,346 L 661,346 L 660,347 L 659,347 L 658,348 L 657,348 L 656,349 L 655,349 L 654,350 L 653,350 L 652,351 L 650,351 L 649,352 L 648,352 L 647,353 L 645,353 L 644,354 L 642,354 L 641,355 L 639,355 L 638,356 L 636,356 L 635,357 L 634,357 L 633,358 L 631,358 L 630,359 L 628,359 L 627,360 L 625,360 L 624,361 L 622,361 L 621,362 L 618,362 L 617,363 L 614,363 L 613,364 L 610,364 L 609,365 L 606,365 L 605,366 L 601,366 L 600,367 L 594,367 L 593,368 L 585,368 L 584,369 L 579,369 L 578,370 L 569,370 L 568,371 L 561,371 L 560,372 L 552,372 L 551,373 L 542,373 L 541,374 L 533,374 L 532,375 L 523,375 L 522,376 L 514,376 L 513,377 L 502,377 L 501,378 L 490,378 L 489,379 L 477,379 L 476,380 L 463,380 L 462,381 L 449,381 L 448,382 L 439,382 L 438,383 L 429,383 L 428,384 L 421,384 L 420,385 L 414,385 L 413,386 L 407,386 L 406,387 L 400,387 L 399,388 L 395,388 L 394,389 L 389,389 L 388,390 L 385,390 L 384,391 L 381,391 L 380,392 L 377,392 L 376,393 L 373,393 L 372,394 L 369,394 L 368,395 L 366,395 L 365,396 L 363,396 L 362,397 L 360,397 L 359,398 L 357,398 L 356,399 L 354,399 L 353,400 L 351,400 L 350,401 L 349,401 L 348,402 L 346,402 L 345,403 L 344,403 L 343,404 L 342,404 L 341,405 L 339,405 L 338,406 L 337,406 L 336,407 L 335,407 L 334,408 L 333,408 L 332,409 L 331,409 L 330,410 L 329,410 L 328,411 L 327,411 L 326,412 L 325,412 L 324,413 L 323,413 L 322,414 L 321,414 L 320,415 L 319,415 L 318,416 L 317,416 L 315,418 L 314,418 L 313,419 L 312,419 L 311,420 L 310,420 L 308,422 L 307,422 L 306,423 L 305,423 L 303,425 L 302,425 L 300,427 L 299,427 L 297,429 L 296,429 L 294,431 L 293,431 L 290,434 L 289,434 L 288,435 L 287,435 L 285,437 L 284,437 L 281,440 L 280,440 L 277,443 L 276,443 L 272,447 L 271,447 L 266,452 L 265,452 L 250,467 L 250,468 L 245,473 L 245,474 L 242,477 L 242,478 L 239,481 L 239,482 L 236,485 L 236,486 L 234,488 L 234,489 L 232,491 L 232,492 L 230,494 L 230,495 L 229,496 L 229,497 L 227,499 L 227,500 L 226,501 L 226,502 L 225,503 L 225,504 L 223,506 L 223,507 L 222,508 L 222,509 L 221,510 L 221,511 L 220,512 L 220,513 L 219,514 L 219,515 L 218,516 L 218,517 L 217,518 L 217,519 L 215,521 L 215,522 L 214,523 L 214,524 L 213,525 L 213,526 L 212,527 L 212,528 L 211,529 L 211,531 L 210,532 L 210,533 L 209,534 L 209,535 L 208,536 L 208,537 L 207,538 L 207,539 L 206,540 L 206,541 L 205,542 L 205,543 L 204,544 L 204,545 L 203,546 L 203,547 L 201,549 L 201,550 L 200,551 L 200,552 L 198,554 L 198,555 L 197,556 L 197,557 L 195,559 L 195,560 L 194,561 L 194,562 L 192,564 L 192,565 L 190,567 L 190,568 L 188,570 L 188,571 L 186,573 L 186,574 L 183,577 L 183,578 L 179,582 L 179,583 L 175,587 L 175,588 L 163,600 L 163,601 L 162,602 L 161,602 L 151,612 L 150,612 L 145,617 L 144,617 L 140,621 L 139,621 L 136,624 L 135,624 L 133,626 L 132,626 L 130,628 L 129,628 L 127,630 L 126,630 L 124,632 L 123,632 L 122,633 L 121,633 L 120,634 L 119,634 L 117,636 L 116,636 L 115,637 L 114,637 L 113,638 L 112,638 L 111,639 L 110,639 L 109,640 L 108,640 L 107,641 L 106,641 L 105,642 L 104,642 L 103,643 L 102,643 L 101,644 L 100,644 L 99,645 L 97,645 L 96,646 L 95,646 L 94,647 L 92,647 L 91,648 L 90,648 L 89,649 L 87,649 L 86,650 L 84,650 L 83,651 L 81,651 L 80,652 L 77,652 L 76,653 L 73,653 L 72,654 L 69,654 L 68,655 L 65,655 L 64,656 L 62,656 L 61,657 L 60,657 L 59,658 L 58,658 L 57,659 L 56,659 L 55,660 L 54,660 L 54,664 L 58,668 L 59,668 L 61,670 L 62,670 L 63,671 L 64,671 L 65,672 L 68,672 L 69,673 L 71,673 L 72,674 L 74,674 L 75,675 L 76,675 L 77,676 L 79,676 L 80,677 L 82,677 L 83,678 L 86,678 L 87,679 L 90,679 L 91,680 L 96,680 L 97,681 L 103,681 L 104,682 L 113,682 L 114,683 L 130,683 L 131,682 L 141,682 L 142,681 L 148,681 L 149,680 L 153,680 L 154,679 L 157,679 L 158,678 L 161,678 L 162,677 L 164,677 L 165,676 L 167,676 L 168,675 L 170,675 L 171,674 L 172,674 L 173,673 L 174,673 L 175,672 L 177,672 L 178,671 L 179,671 L 180,670 L 181,670 L 182,669 L 183,669 L 185,667 L 186,667 L 187,666 L 188,666 L 190,664 L 191,664 L 193,662 L 194,662 L 199,657 L 200,657 L 209,648 L 209,647 L 211,645 L 212,645 L 212,644 L 220,636 L 220,635 L 221,634 L 222,635 L 222,637 L 221,638 L 221,639 L 220,640 L 220,641 L 219,642 L 219,643 L 218,644 L 218,645 L 217,646 L 217,647 L 216,648 L 216,649 L 215,650 L 215,651 L 213,653 L 213,654 L 212,655 L 212,656 L 210,658 L 210,659 L 207,662 L 207,663 L 204,666 L 204,667 L 192,679 L 191,679 L 188,682 L 187,682 L 185,684 L 184,684 L 182,686 L 181,686 L 180,687 L 179,687 L 177,689 L 176,689 L 174,691 L 174,692 L 171,695 L 171,696 L 170,697 L 170,698 L 169,699 L 169,702 L 168,703 L 168,707 L 167,708 L 167,714 L 166,715 L 166,722 L 165,723 L 165,728 L 164,729 L 164,734 L 163,735 L 163,739 L 162,740 L 162,745 L 161,746 L 161,750 L 160,751 L 160,755 L 159,756 L 159,760 L 158,761 L 158,767 L 157,768 L 157,775 L 156,776 L 156,781 L 155,782 L 155,809 L 156,810 L 156,812 L 157,813 L 157,814 L 158,815 L 158,816 L 159,817 L 159,818 L 163,822 L 163,823 L 170,830 L 171,830 L 172,831 L 173,831 L 174,832 L 176,832 L 177,833 L 221,833 L 222,832 L 229,832 L 230,831 L 231,831 L 232,830 L 233,830 L 235,828 L 235,825 L 236,824 L 236,823 L 235,822 L 235,818 L 234,817 L 234,812 L 233,811 L 233,808 L 232,807 L 232,805 L 231,804 L 231,803 L 230,802 L 230,801 L 229,800 L 229,799 L 228,798 L 228,797 L 222,791 L 221,791 L 220,790 L 219,790 L 218,789 L 217,789 L 216,788 L 214,788 L 213,787 L 210,787 L 209,786 L 205,786 L 204,785 L 202,785 L 201,784 L 201,778 L 202,777 L 202,768 L 203,767 L 203,761 L 204,760 L 204,756 L 205,755 L 205,753 L 206,752 L 206,749 L 207,748 L 207,747 L 208,746 L 208,744 L 209,743 L 209,742 L 210,741 L 210,739 L 211,738 L 211,737 L 212,736 L 212,735 L 213,734 L 213,733 L 214,732 L 214,731 L 216,729 L 216,728 L 217,727 L 217,726 L 223,720 L 223,719 L 227,715 L 228,715 L 234,709 L 235,709 L 238,706 L 239,706 L 241,704 L 242,704 L 243,703 L 244,703 L 246,701 L 247,701 L 248,700 L 249,700 L 251,698 L 252,698 L 253,697 L 254,697 L 255,696 L 256,696 L 257,695 L 258,695 L 259,694 L 260,694 L 261,693 L 262,693 L 263,692 L 264,692 L 265,691 L 266,691 L 267,690 L 268,690 L 269,689 L 270,689 L 271,688 L 272,688 L 273,687 L 274,687 L 275,686 L 276,686 L 277,685 L 278,685 L 280,683 L 281,683 L 282,682 L 283,682 L 284,681 L 285,681 L 287,679 L 288,679 L 290,677 L 291,677 L 293,675 L 294,675 L 295,674 L 296,674 L 299,671 L 300,671 L 302,669 L 303,669 L 306,666 L 307,666 L 310,663 L 311,663 L 316,658 L 317,658 L 324,651 L 325,651 L 339,637 L 339,636 L 340,635 L 341,635 L 342,636 L 341,637 L 341,641 L 340,642 L 340,645 L 339,646 L 339,649 L 338,650 L 338,652 L 337,653 L 337,655 L 336,656 L 336,658 L 335,659 L 335,661 L 334,662 L 334,663 L 333,664 L 333,665 L 332,666 L 332,667 L 331,668 L 331,669 L 329,671 L 329,672 L 327,674 L 327,675 L 325,677 L 325,678 L 322,681 L 322,682 L 313,691 L 313,692 L 310,695 L 310,696 L 308,698 L 308,699 L 307,700 L 307,706 L 308,707 L 308,709 L 309,710 L 309,711 L 310,712 L 310,713 L 311,714 L 311,715 L 312,716 L 312,717 L 314,719 L 314,720 L 315,721 L 315,722 L 316,723 L 316,724 L 318,726 L 318,727 L 319,728 L 319,729 L 320,730 L 320,731 L 322,733 L 322,734 L 323,735 L 323,736 L 325,738 L 325,739 L 326,740 L 326,741 L 327,742 L 327,743 L 329,745 L 329,746 L 330,747 L 330,748 L 332,750 L 332,751 L 333,752 L 333,753 L 334,754 L 334,755 L 335,756 L 335,757 L 336,758 L 336,759 L 338,761 L 338,762 L 339,763 L 339,764 L 340,765 L 340,766 L 341,767 L 341,768 L 342,769 L 342,770 L 343,771 L 343,772 L 344,773 L 344,774 L 345,775 L 345,776 L 346,777 L 346,778 L 347,779 L 347,780 L 348,781 L 348,782 L 349,783 L 349,784 L 351,786 L 351,787 L 352,788 L 352,789 L 353,790 L 353,791 L 355,793 L 355,794 L 357,796 L 357,797 L 359,799 L 359,800 L 364,805 L 365,805 L 368,808 L 369,808 L 371,810 L 372,810 L 374,812 L 375,812 L 376,813 L 377,813 L 378,814 L 379,814 L 380,815 L 382,815 L 383,816 L 386,816 L 387,817 L 391,817 L 392,818 L 416,818 L 417,819 L 432,819 L 433,818 L 435,818 L 436,817 L 437,817 L 438,816 L 439,816 L 440,815 L 440,814 L 442,812 L 442,808 L 443,807 L 443,803 L 442,802 L 442,799 L 441,798 L 441,795 L 440,794 L 440,793 L 439,792 L 439,791 L 438,790 L 438,789 L 435,786 L 435,785 L 429,779 L 428,779 L 426,777 L 425,777 L 424,776 L 423,776 L 422,775 L 421,775 L 420,774 L 417,774 L 416,773 L 411,773 L 410,772 L 394,772 L 390,768 L 390,767 L 389,766 L 389,765 L 387,763 L 387,762 L 385,760 L 385,759 L 384,758 L 384,757 L 383,756 L 383,755 L 381,753 L 381,752 L 380,751 L 380,750 L 379,749 L 379,748 L 377,746 L 377,745 L 376,744 L 376,743 L 375,742 L 375,740 L 374,739 L 374,738 L 373,737 L 373,735 L 372,734 L 372,729 L 371,728 L 371,719 L 372,718 L 372,715 L 373,714 L 373,713 L 374,712 L 374,711 L 375,710 L 375,709 L 376,708 L 376,707 L 377,706 L 377,705 L 380,702 L 380,701 L 384,697 L 384,696 L 395,685 L 396,685 L 403,678 L 404,678 L 426,656 L 426,655 L 430,651 L 430,650 L 433,647 L 433,646 L 435,644 L 435,643 L 437,641 L 437,640 L 439,638 L 439,637 L 440,636 L 440,635 L 441,634 L 441,633 L 442,632 L 442,631 L 443,630 L 443,629 L 444,628 L 444,627 L 445,626 L 445,625 L 446,624 L 446,622 L 447,621 L 447,620 L 448,619 L 448,617 L 449,616 L 449,614 L 450,613 L 450,611 L 451,610 L 451,608 L 452,607 L 452,604 L 453,603 L 453,601 L 454,600 L 454,597 L 455,596 L 455,593 L 456,592 L 456,588 L 457,587 L 457,583 L 458,582 L 458,578 L 459,577 L 459,572 L 461,570 L 462,571 L 463,571 L 464,572 L 466,572 L 467,573 L 469,573 L 470,574 L 471,574 L 472,575 L 474,575 L 475,576 L 476,576 L 477,577 L 479,577 L 480,578 L 481,578 L 482,579 L 484,579 L 485,580 L 486,580 L 487,581 L 489,581 L 490,582 L 491,582 L 492,583 L 494,583 L 495,584 L 496,584 L 497,585 L 499,585 L 500,586 L 501,586 L 502,587 L 504,587 L 505,588 L 506,588 L 507,589 L 509,589 L 510,590 L 511,590 L 512,591 L 514,591 L 515,592 L 516,592 L 517,593 L 519,593 L 520,594 L 522,594 L 523,595 L 524,595 L 525,596 L 527,596 L 528,597 L 530,597 L 531,598 L 533,598 L 534,599 L 535,599 L 536,600 L 538,600 L 539,601 L 541,601 L 542,602 L 545,602 L 546,603 L 548,603 L 549,604 L 551,604 L 552,605 L 555,605 L 556,606 L 559,606 L 560,607 L 564,607 L 565,608 L 569,608 L 570,609 L 574,609 L 575,610 L 581,610 L 582,611 L 589,611 L 590,612 L 626,612 L 627,611 L 633,611 L 634,612 L 636,612 L 640,616 L 640,617 L 642,619 L 642,620 L 643,621 L 643,622 L 644,623 L 644,626 L 645,627 L 645,633 L 646,634 L 646,646 L 647,647 L 647,656 L 648,657 L 648,669 L 649,670 L 649,681 L 650,682 L 650,698 L 651,699 L 651,716 L 652,717 L 652,764 L 653,765 L 653,768 L 654,769 L 654,771 L 655,772 L 655,773 L 656,774 L 656,775 L 662,781 L 663,781 L 665,783 L 665,784 L 666,785 L 666,786 L 667,787 L 667,789 L 668,790 L 668,792 L 669,793 L 669,795 L 670,796 L 670,799 L 671,800 L 671,803 L 672,804 L 672,806 L 673,807 L 673,810 L 674,811 L 674,813 L 675,814 L 675,816 L 676,817 L 676,818 L 678,820 L 678,821 L 681,824 L 681,825 L 684,828 L 685,828 L 688,831 L 689,831 L 691,833 L 692,833 L 693,834 L 694,834 L 695,835 L 696,835 L 697,836 L 699,836 L 700,837 L 702,837 L 703,838 L 706,838 L 707,839 L 711,839 L 712,840 L 719,840 L 720,841 L 755,841 L 756,840 L 759,840 L 760,839 L 761,839 L 762,838 L 763,838 L 764,837 L 764,828 L 763,827 L 763,826 L 764,825 L 776,825 L 777,824 L 787,824 L 788,823 L 793,823 L 794,822 L 800,822 L 801,821 L 804,821 L 805,820 L 807,820 L 808,819 L 810,819 L 811,818 L 812,818 L 813,817 L 813,811 L 812,810 L 812,808 L 811,807 L 811,806 L 810,805 L 810,804 L 809,803 L 809,802 L 808,801 L 808,800 L 807,799 L 807,798 L 806,797 L 806,796 L 805,795 L 805,794 L 804,793 L 804,792 L 803,791 L 803,790 L 801,788 L 801,787 L 795,781 L 794,781 L 793,780 L 792,780 L 791,779 L 790,779 L 789,778 L 788,778 L 787,777 L 785,777 L 784,776 L 781,776 L 780,775 L 776,775 L 775,774 L 771,774 L 770,773 L 766,773 L 765,772 L 764,772 L 762,770 L 762,769 L 761,768 L 761,767 L 759,765 L 759,764 L 757,762 L 757,761 L 756,760 L 756,758 L 755,757 L 755,755 L 754,754 L 754,753 L 753,752 L 753,750 L 752,749 L 752,746 L 751,745 L 751,708 L 752,707 L 752,695 L 753,694 L 753,684 L 754,683 L 754,675 L 755,674 L 755,666 L 756,665 L 756,658 L 757,657 L 757,651 L 758,650 L 758,644 L 759,643 L 759,637 L 760,636 L 760,631 L 761,630 L 761,625 L 762,624 L 762,620 L 763,619 L 763,615 L 764,614 L 764,611 L 765,610 L 765,606 L 766,605 L 766,602 L 767,601 L 767,598 L 768,597 L 768,595 L 769,594 L 769,592 L 770,591 L 770,590 L 771,589 L 771,588 L 777,582 L 778,582 L 785,575 L 785,574 L 791,568 L 791,567 L 794,564 L 794,563 L 796,561 L 796,560 L 799,557 L 799,556 L 801,554 L 801,553 L 802,552 L 802,551 L 804,549 L 804,548 L 805,547 L 805,546 L 806,545 L 806,544 L 808,542 L 808,541 L 809,540 L 809,539 L 810,538 L 810,536 L 812,534 L 812,532 L 813,531 L 813,530 L 814,529 L 814,528 L 815,527 L 815,526 L 816,525 L 816,523 L 817,522 L 817,520 L 818,519 L 818,516 L 819,515 L 819,511 L 820,510 L 820,499 L 821,498 L 821,490 L 822,489 L 822,484 L 823,483 L 823,480 L 824,479 L 824,475 L 825,474 L 825,472 L 826,471 L 826,469 L 827,468 L 827,466 L 828,465 L 828,463 L 829,462 L 829,461 L 830,460 L 830,458 L 831,457 L 831,456 L 832,455 L 832,453 L 833,452 L 833,451 L 834,450 L 834,448 L 835,447 L 835,445 L 836,444 L 836,443 L 837,442 L 837,440 L 838,439 L 838,437 L 839,436 L 839,433 L 840,432 L 840,430 L 841,429 L 841,427 L 842,426 L 842,424 L 843,423 L 843,421 L 844,420 L 844,418 L 845,417 L 845,414 L 846,413 L 846,411 L 847,410 L 847,407 L 848,406 L 848,403 L 849,402 L 849,400 L 850,399 L 850,396 L 851,395 L 851,392 L 852,391 L 852,389 L 853,388 L 853,386 L 854,385 L 854,383 L 855,382 L 855,380 L 856,379 L 856,377 L 857,376 L 857,374 L 858,373 L 858,372 L 859,371 L 859,370 L 861,368 L 861,367 L 863,365 L 863,364 L 865,362 L 866,362 L 868,360 L 869,360 L 870,359 L 884,359 L 885,360 L 890,360 L 891,361 L 895,361 L 896,362 L 899,362 L 900,363 L 907,363 L 908,364 L 917,364 L 918,363 L 924,363 L 925,362 L 929,362 L 930,361 L 932,361 L 933,360 L 936,360 L 937,359 L 938,359 L 939,358 L 940,358 L 941,357 L 942,357 L 943,356 L 944,356 L 946,354 L 947,354 L 951,350 L 952,350 L 959,343 L 960,343 L 960,342 L 961,341 L 962,341 L 968,335 L 969,335 L 974,330 L 974,329 L 977,326 L 977,324 L 978,323 L 978,316 L 977,315 L 977,314 L 972,309 L 971,309 L 969,307 L 968,307 L 965,304 L 964,304 L 961,301 L 960,301 L 957,298 L 956,298 L 953,295 L 952,295 L 949,292 L 948,292 L 945,289 L 944,289 L 942,287 L 941,287 L 940,286 L 939,286 L 938,285 L 937,285 L 935,283 L 934,283 L 933,282 L 932,282 L 931,281 L 930,281 L 929,280 L 928,280 L 926,278 L 925,278 L 924,277 L 923,277 L 921,275 L 920,275 L 919,274 L 918,274 L 916,272 L 915,272 L 911,268 L 911,267 L 910,266 L 910,262 L 909,261 L 909,257 L 908,256 L 908,253 L 907,252 L 907,250 L 906,249 L 906,248 L 905,247 L 905,246 L 904,245 L 904,244 L 903,243 L 903,242 L 896,235 L 895,235 L 893,233 L 892,233 L 891,232 L 890,232 L 888,230 L 887,230 L 881,224 L 881,223 L 880,222 L 880,217 L 881,216 L 881,212 L 882,211 L 882,209 L 883,208 L 883,205 L 884,204 L 884,202 L 885,201 L 885,198 L 886,197 L 886,194 L 887,193 L 887,189 L 888,188 L 888,184 L 889,183 L 889,179 L 890,178 L 890,173 L 891,172 L 891,166 L 892,165 L 892,152 L 893,151 L 893,150 L 892,149 L 892,140 L 891,139 L 891,136 L 890,135 L 890,134 L 888,132 L 886,132 L 885,131 L 883,131 L 882,132 L 881,132 L 880,133 L 879,133 L 879,134 L 877,136 L 877,137 L 875,139 L 875,140 L 873,142 L 873,143 L 872,144 L 872,145 L 870,147 L 870,148 L 869,149 L 869,150 L 867,152 L 867,153 L 866,154 L 866,155 L 864,157 L 864,158 L 862,160 L 862,161 L 861,162 L 861,163 L 859,165 L 859,166 L 858,167 L 858,168 L 856,170 L 856,171 L 854,173 L 854,174 L 853,175 L 853,176 L 851,178 L 851,179 L 850,180 L 850,181 L 848,183 L 848,184 L 847,185 L 846,184 L 846,182 L 845,181 L 845,176 L 844,175 L 844,171 L 843,170 L 843,166 L 842,165 L 842,162 L 841,161 L 841,157 L 840,156 L 840,154 L 839,153 L 839,150 L 838,149 L 838,147 L 837,146 L 837,145 L 836,144 L 836,142 L 835,141 L 835,140 L 834,139 L 834,138 L 833,137 L 833,135 L 832,134 L 832,133 L 830,131 L 830,130 L 829,129 L 829,128 L 827,126 L 826,126 L 825,125 L 824,125 Z" fill="black" /></svg>