<?xml version="1.0" encoding="utf-8" ?>
<svg baseProfile="full" height="1024" version="1.1" width="1024" xmlns="http://www.w3.org/2000/svg" xmlns:ev="http://www.w3.org/2001/xml-events" xmlns:xlink="http://www.w3.org/1999/xlink"><defs /><path d="M 193,853 Z" fill="black" /><path d="M 771,837 Z" fill="black" /><path d="M 217,835 Z" fill="black" /><path d="M 214,824 Z" fill="black" /><path d="M 309,821 Z" fill="black" /><path d="M 348,766 Z" fill="black" /><path d="M 269,759 Z" fill="black" /><path d="M 172,745 Z" fill="black" /><path d="M 777,738 Z" fill="black" /><path d="M 264,737 Z" fill="black" /><path d="M 777,734 L 777,735 Z" fill="black" /><path d="M 668,731 Z" fill="black" /><path d="M 179,720 L 179,721 Z" fill="black" /><path d="M 323,718 Z" fill="black" /><path d="M 175,717 Z" fill="black" /><path d="M 626,716 Z" fill="black" /><path d="M 667,710 L 666,711 L 666,715 L 665,716 L 665,719 L 664,720 L 664,723 L 663,724 L 663,744 L 664,745 L 664,746 L 664,744 L 665,743 L 665,737 L 666,736 L 666,714 L 667,713 Z" fill="black" /><path d="M 779,702 Z" fill="black" /><path d="M 195,697 L 194,698 L 193,698 L 192,699 L 191,699 L 185,705 L 185,706 L 184,707 L 184,708 L 183,709 L 183,711 L 182,712 L 182,715 L 181,716 L 181,728 L 182,728 L 182,725 L 183,724 L 183,723 L 184,722 L 184,720 L 185,719 L 185,718 L 186,717 L 186,715 L 187,714 L 187,713 L 188,712 L 188,710 L 189,709 L 189,708 L 191,706 L 191,705 L 192,704 L 192,703 L 198,697 Z" fill="black" /><path d="M 198,694 Z" fill="black" /><path d="M 664,652 L 663,653 L 661,653 L 660,654 L 659,654 L 658,655 L 657,655 L 655,657 L 654,657 L 651,660 L 651,661 L 649,663 L 649,664 L 648,665 L 648,666 L 647,667 L 647,669 L 646,670 L 646,678 L 645,679 L 645,686 L 646,687 L 646,694 L 646,693 L 647,692 L 647,688 L 648,687 L 648,683 L 649,682 L 649,679 L 650,678 L 650,676 L 651,675 L 651,673 L 652,672 L 652,671 L 653,670 L 653,669 L 654,668 L 654,667 L 655,666 L 655,665 L 657,663 L 657,662 L 658,661 L 658,660 L 662,656 L 662,655 L 665,652 Z" fill="black" /><path d="M 221,652 L 220,653 L 220,654 L 218,656 L 218,657 L 215,660 L 215,661 L 213,663 L 213,664 L 208,669 L 208,670 L 198,680 L 197,680 L 195,682 L 195,683 L 196,682 L 198,682 L 199,681 L 201,681 L 202,680 L 203,680 L 205,678 L 206,678 L 208,676 L 209,676 L 213,672 L 213,671 L 216,668 L 216,667 L 217,666 L 217,665 L 218,664 L 218,663 L 219,662 L 219,659 L 220,658 L 220,655 L 221,654 Z" fill="black" /><path d="M 212,645 Z" fill="black" /><path d="M 720,642 Z" fill="black" /><path d="M 597,635 L 597,636 Z" fill="black" /><path d="M 664,631 L 663,632 L 662,632 L 660,634 L 659,634 L 656,637 L 656,638 L 654,640 L 654,641 L 653,642 L 653,643 L 652,644 L 652,645 L 654,643 L 655,643 L 657,641 L 658,641 L 665,634 L 665,633 L 667,631 L 668,631 Z" fill="black" /><path d="M 98,628 Z" fill="black" /><path d="M 225,621 Z" fill="black" /><path d="M 740,619 Z" fill="black" /><path d="M 607,619 Z" fill="black" /><path d="M 611,608 Z" fill="black" /><path d="M 726,607 Z" fill="black" /><path d="M 246,606 L 242,610 L 241,610 L 237,614 L 236,614 L 232,618 L 231,618 L 219,630 L 219,631 L 218,632 L 218,633 L 217,634 L 217,636 L 216,637 L 216,639 L 215,640 L 215,643 L 214,644 L 214,646 L 218,642 L 218,641 L 239,620 L 239,619 L 242,616 L 242,615 L 243,614 L 243,613 L 244,612 L 244,611 L 245,610 L 245,609 L 246,608 Z" fill="black" /><path d="M 673,594 L 672,595 L 672,596 L 667,601 L 666,601 L 664,603 L 663,603 L 662,604 L 661,604 L 659,606 L 658,606 L 657,607 L 656,607 L 655,608 L 654,608 L 653,609 L 652,609 L 651,610 L 650,610 L 649,611 L 649,612 L 653,612 L 654,611 L 657,611 L 658,610 L 659,610 L 660,609 L 661,609 L 663,607 L 664,607 L 671,600 L 671,599 L 672,598 L 672,596 L 673,595 Z" fill="black" /><path d="M 509,591 Z" fill="black" /><path d="M 343,584 Z" fill="black" /><path d="M 626,577 Z" fill="black" /><path d="M 327,575 L 327,581 L 326,582 L 326,585 L 325,586 L 325,589 L 324,590 L 324,592 L 323,593 L 323,596 L 322,597 L 322,599 L 321,600 L 321,601 L 320,602 L 320,604 L 319,605 L 319,607 L 318,608 L 318,609 L 317,610 L 317,612 L 316,613 L 316,614 L 315,615 L 315,616 L 314,617 L 314,618 L 313,619 L 313,620 L 317,616 L 317,615 L 318,614 L 319,614 L 319,613 L 321,611 L 321,610 L 323,608 L 323,607 L 324,606 L 324,605 L 325,604 L 325,602 L 326,601 L 326,599 L 327,598 L 327,594 L 328,593 L 328,575 Z" fill="black" /><path d="M 465,571 Z" fill="black" /><path d="M 360,571 Z" fill="black" /><path d="M 369,559 Z" fill="black" /><path d="M 668,557 L 668,558 L 667,559 L 667,560 L 665,562 L 665,563 L 663,565 L 663,566 L 661,568 L 661,569 L 660,570 L 660,571 L 658,573 L 658,574 L 657,575 L 657,576 L 656,577 L 656,578 L 655,579 L 655,580 L 653,582 L 653,583 L 652,584 L 653,584 L 660,577 L 660,576 L 661,575 L 661,574 L 663,572 L 663,571 L 664,570 L 664,568 L 665,567 L 665,566 L 666,565 L 666,563 L 667,562 L 667,560 L 668,559 Z" fill="black" /><path d="M 770,553 Z" fill="black" /><path d="M 825,543 Z" fill="black" /><path d="M 818,541 Z" fill="black" /><path d="M 277,538 L 275,540 L 275,541 L 271,545 L 271,546 L 266,551 L 266,552 L 260,558 L 260,559 L 250,569 L 251,569 L 252,568 L 253,568 L 254,567 L 255,567 L 256,566 L 257,566 L 258,565 L 259,565 L 262,562 L 263,562 L 268,557 L 268,556 L 270,554 L 270,553 L 271,552 L 271,551 L 272,550 L 272,549 L 273,548 L 273,547 L 274,546 L 274,545 L 275,544 L 275,542 L 276,541 L 276,540 L 277,539 Z" fill="black" /><path d="M 591,536 L 590,537 L 590,548 L 589,549 L 589,554 L 590,555 L 590,561 L 591,562 L 591,565 L 592,566 L 592,568 L 593,569 L 593,570 L 594,571 L 594,573 L 595,574 L 595,575 L 596,576 L 596,577 L 598,579 L 598,580 L 602,584 L 602,585 L 603,586 L 603,584 L 602,583 L 602,581 L 601,580 L 601,578 L 600,577 L 600,574 L 599,573 L 599,571 L 598,570 L 598,568 L 597,567 L 597,564 L 596,563 L 596,561 L 595,560 L 595,557 L 594,556 L 594,554 L 593,553 L 593,549 L 592,548 L 592,544 L 591,543 Z" fill="black" /><path d="M 784,535 Z" fill="black" /><path d="M 144,535 Z" fill="black" /><path d="M 550,533 L 550,535 L 549,536 L 549,539 L 548,540 L 548,553 L 549,554 L 549,557 L 550,558 L 550,560 L 551,561 L 551,562 L 552,563 L 552,564 L 553,565 L 553,566 L 554,567 L 554,568 L 557,571 L 557,572 L 561,576 L 562,576 L 564,578 L 565,578 L 567,580 L 568,580 L 566,578 L 566,577 L 564,575 L 564,574 L 563,573 L 563,572 L 562,571 L 562,570 L 561,569 L 561,568 L 560,567 L 560,566 L 559,565 L 559,564 L 558,563 L 558,561 L 557,560 L 557,559 L 556,558 L 556,556 L 555,555 L 555,553 L 554,552 L 554,550 L 553,549 L 553,547 L 552,546 L 552,542 L 551,541 L 551,538 L 550,537 Z" fill="black" /><path d="M 124,533 L 120,537 L 119,537 L 116,540 L 115,540 L 113,542 L 112,542 L 111,543 L 110,543 L 109,544 L 108,544 L 107,545 L 105,545 L 104,546 L 102,546 L 101,547 L 97,547 L 96,548 L 92,548 L 91,549 L 89,549 L 88,550 L 86,550 L 85,551 L 84,551 L 86,551 L 87,552 L 90,552 L 91,553 L 100,553 L 101,552 L 104,552 L 105,551 L 107,551 L 108,550 L 109,550 L 110,549 L 111,549 L 121,539 L 121,538 L 122,537 L 122,536 L 124,534 Z" fill="black" /><path d="M 784,532 Z" fill="black" /><path d="M 531,532 L 532,533 L 532,546 L 533,547 L 533,552 L 534,553 L 534,555 L 535,556 L 535,558 L 536,559 L 536,560 L 537,561 L 537,562 L 538,563 L 538,564 L 540,566 L 540,567 L 545,572 L 546,572 L 546,570 L 545,569 L 545,567 L 544,566 L 544,565 L 543,564 L 543,562 L 542,561 L 542,559 L 541,558 L 541,557 L 540,556 L 540,554 L 539,553 L 539,552 L 538,551 L 538,549 L 537,548 L 537,547 L 536,546 L 536,544 L 535,543 L 535,541 L 534,540 L 534,538 L 533,537 L 533,535 L 532,534 L 532,532 Z" fill="black" /><path d="M 344,532 L 344,535 L 345,536 L 345,541 L 346,542 L 346,548 L 347,549 L 347,572 L 346,573 L 346,581 L 345,582 L 345,586 L 344,587 L 344,590 L 345,589 L 345,588 L 346,587 L 346,586 L 347,585 L 347,584 L 348,583 L 348,582 L 349,581 L 349,580 L 350,579 L 350,577 L 351,576 L 351,574 L 352,573 L 352,570 L 353,569 L 353,550 L 352,549 L 352,546 L 351,545 L 351,543 L 350,542 L 350,541 L 349,540 L 349,539 L 347,537 L 347,536 L 344,533 Z" fill="black" /><path d="M 176,532 L 176,535 L 175,536 L 175,538 L 174,539 L 174,541 L 173,542 L 173,544 L 172,545 L 172,547 L 171,548 L 171,550 L 170,551 L 170,553 L 169,554 L 169,556 L 168,557 L 168,559 L 167,560 L 167,562 L 166,563 L 166,564 L 165,565 L 165,567 L 164,568 L 164,570 L 163,571 L 163,572 L 162,573 L 162,575 L 161,576 L 161,578 L 160,579 L 160,581 L 159,582 L 159,584 L 158,585 L 158,587 L 157,588 L 157,589 L 164,582 L 164,581 L 166,579 L 166,578 L 167,577 L 167,576 L 168,575 L 168,574 L 169,573 L 169,572 L 170,571 L 170,570 L 171,569 L 171,567 L 172,566 L 172,563 L 173,562 L 173,559 L 174,558 L 174,553 L 175,552 L 175,545 L 176,544 L 176,534 L 177,533 L 177,532 Z" fill="black" /><path d="M 69,529 Z" fill="black" /><path d="M 157,526 Z" fill="black" /><path d="M 142,525 L 142,526 L 141,527 L 141,529 L 140,530 L 140,531 L 139,532 L 139,534 L 138,535 L 138,536 L 137,537 L 137,538 L 136,539 L 136,540 L 135,541 L 135,542 L 133,544 L 133,545 L 131,547 L 131,548 L 128,551 L 128,552 L 116,564 L 115,564 L 110,569 L 109,569 L 105,573 L 104,573 L 101,576 L 100,576 L 96,580 L 95,580 L 93,582 L 92,582 L 91,583 L 93,583 L 94,582 L 97,582 L 98,581 L 100,581 L 101,580 L 103,580 L 104,579 L 105,579 L 106,578 L 107,578 L 108,577 L 109,577 L 110,576 L 111,576 L 112,575 L 113,575 L 114,574 L 115,574 L 117,572 L 118,572 L 121,569 L 122,569 L 133,558 L 133,557 L 135,555 L 135,554 L 136,553 L 136,552 L 137,551 L 137,550 L 138,549 L 138,548 L 139,547 L 139,545 L 140,544 L 140,542 L 141,541 L 141,537 L 142,536 Z" fill="black" /><path d="M 854,524 Z" fill="black" /><path d="M 566,523 Z" fill="black" /><path d="M 43,523 Z" fill="black" /><path d="M 273,515 Z" fill="black" /><path d="M 467,513 L 467,516 L 468,517 L 468,519 L 469,520 L 469,522 L 470,523 L 470,524 L 471,525 L 471,526 L 472,527 L 472,529 L 473,530 L 473,531 L 474,532 L 474,533 L 475,534 L 475,535 L 477,537 L 477,538 L 480,541 L 480,542 L 483,545 L 483,546 L 491,554 L 491,555 L 494,558 L 494,559 L 496,561 L 496,562 L 497,563 L 497,564 L 498,565 L 498,566 L 499,567 L 499,568 L 500,569 L 500,557 L 499,556 L 499,554 L 498,553 L 498,551 L 497,550 L 497,549 L 496,548 L 496,547 L 494,545 L 494,544 L 489,539 L 489,538 L 474,523 L 474,522 L 470,518 L 470,517 L 468,515 L 468,514 Z" fill="black" /><path d="M 777,511 L 778,512 L 778,522 L 777,523 L 777,531 L 776,532 L 776,538 L 775,539 L 775,544 L 774,545 L 774,549 L 773,550 L 773,554 L 772,555 L 772,557 L 771,558 L 771,561 L 770,562 L 770,563 L 769,564 L 769,565 L 770,565 L 770,564 L 771,563 L 771,562 L 774,559 L 774,558 L 776,556 L 776,555 L 777,554 L 777,553 L 778,552 L 778,550 L 779,549 L 779,547 L 780,546 L 780,544 L 781,543 L 781,539 L 782,538 L 782,525 L 781,524 L 781,519 L 780,518 L 780,517 L 779,516 L 779,514 L 778,513 L 778,511 Z" fill="black" /><path d="M 573,508 L 572,509 L 572,511 L 571,512 L 571,514 L 570,515 L 570,517 L 569,518 L 569,521 L 568,522 L 568,530 L 567,531 L 567,534 L 568,535 L 568,543 L 569,544 L 569,547 L 570,548 L 570,550 L 571,551 L 571,552 L 572,553 L 572,554 L 573,555 L 573,556 L 574,557 L 574,558 L 576,560 L 576,561 L 584,569 L 585,569 L 584,568 L 584,567 L 583,566 L 583,565 L 582,564 L 582,563 L 581,562 L 581,561 L 580,560 L 580,559 L 579,558 L 579,557 L 578,556 L 578,554 L 577,553 L 577,550 L 576,549 L 576,546 L 575,545 L 575,541 L 574,540 L 574,534 L 573,533 Z" fill="black" /><path d="M 271,507 L 270,508 L 270,510 L 269,511 L 269,513 L 268,514 L 268,515 L 267,516 L 267,517 L 266,518 L 266,519 L 265,520 L 265,522 L 264,523 L 264,524 L 263,525 L 263,526 L 262,527 L 262,528 L 260,530 L 260,531 L 259,532 L 259,533 L 257,535 L 257,536 L 254,539 L 254,540 L 252,542 L 252,543 L 249,546 L 249,547 L 247,549 L 247,550 L 245,552 L 245,553 L 243,555 L 243,556 L 244,555 L 245,555 L 246,554 L 247,554 L 249,552 L 250,552 L 253,549 L 254,549 L 262,541 L 262,540 L 263,539 L 263,538 L 265,536 L 265,535 L 266,534 L 266,533 L 267,532 L 267,530 L 268,529 L 268,528 L 269,527 L 269,524 L 270,523 L 270,519 L 271,518 Z" fill="black" /><path d="M 491,503 Z" fill="black" /><path d="M 480,502 Z" fill="black" /><path d="M 348,502 L 348,504 L 349,505 L 349,506 L 350,507 L 350,508 L 351,509 L 351,511 L 352,512 L 352,513 L 353,514 L 353,516 L 354,517 L 354,519 L 355,520 L 355,521 L 356,522 L 356,524 L 357,525 L 357,527 L 358,528 L 358,530 L 359,531 L 359,534 L 360,535 L 360,538 L 361,539 L 361,544 L 362,545 L 362,556 L 363,557 L 362,558 L 362,559 L 363,560 L 363,564 L 362,565 L 362,572 L 361,573 L 362,573 L 362,572 L 363,571 L 363,570 L 364,569 L 364,567 L 365,566 L 365,564 L 366,563 L 366,560 L 367,559 L 367,555 L 368,554 L 368,539 L 367,538 L 367,534 L 366,533 L 366,530 L 365,529 L 365,527 L 364,526 L 364,524 L 363,523 L 363,522 L 362,521 L 362,520 L 361,519 L 361,518 L 359,516 L 359,515 L 358,514 L 358,513 L 350,505 L 350,504 Z" fill="black" /><path d="M 789,501 Z" fill="black" /><path d="M 798,499 Z" fill="black" /><path d="M 106,499 Z" fill="black" /><path d="M 495,495 Z" fill="black" /><path d="M 262,494 L 262,495 L 260,497 L 260,498 L 258,500 L 258,501 L 255,504 L 255,505 L 254,506 L 254,507 L 252,509 L 252,510 L 250,512 L 250,513 L 249,514 L 249,515 L 248,516 L 248,517 L 245,520 L 246,520 L 247,519 L 248,519 L 250,517 L 251,517 L 254,514 L 254,513 L 256,511 L 256,510 L 258,508 L 258,507 L 259,506 L 259,504 L 260,503 L 260,502 L 261,501 L 261,498 L 262,497 L 262,495 L 263,494 Z" fill="black" /><path d="M 492,493 L 492,496 L 493,497 L 493,507 L 494,508 L 494,514 L 495,515 L 495,518 L 496,519 L 496,522 L 497,523 L 497,525 L 498,526 L 498,527 L 499,528 L 499,529 L 500,530 L 500,531 L 501,532 L 501,533 L 502,534 L 502,535 L 504,537 L 504,538 L 507,541 L 507,542 L 514,549 L 515,549 L 518,552 L 519,552 L 520,553 L 521,553 L 522,554 L 523,554 L 524,555 L 525,555 L 524,554 L 524,553 L 522,551 L 522,550 L 520,548 L 520,547 L 518,545 L 518,544 L 516,542 L 516,541 L 514,539 L 514,538 L 511,535 L 511,534 L 509,532 L 509,531 L 507,529 L 507,528 L 506,527 L 506,526 L 505,525 L 505,524 L 503,522 L 503,521 L 502,520 L 502,518 L 501,517 L 501,516 L 500,515 L 500,514 L 499,513 L 499,511 L 498,510 L 498,509 L 497,508 L 497,506 L 496,505 L 496,503 L 495,502 L 495,501 L 494,500 L 494,498 L 493,497 L 493,494 Z" fill="black" /><path d="M 419,489 L 419,492 L 420,493 L 420,498 L 421,499 L 421,502 L 422,503 L 422,506 L 423,507 L 423,510 L 424,511 L 424,512 L 425,513 L 425,514 L 426,515 L 426,516 L 427,517 L 427,518 L 428,519 L 428,520 L 431,523 L 431,524 L 451,544 L 452,544 L 453,545 L 453,546 L 454,546 L 454,545 L 452,543 L 452,542 L 451,541 L 451,540 L 450,539 L 450,538 L 449,537 L 449,536 L 448,535 L 448,534 L 446,532 L 446,531 L 445,530 L 445,529 L 444,528 L 444,527 L 442,525 L 442,524 L 440,522 L 440,521 L 438,519 L 438,518 L 435,515 L 435,514 L 432,511 L 432,510 L 430,508 L 430,507 L 428,505 L 428,504 L 426,502 L 426,501 L 424,499 L 424,498 L 423,497 L 423,496 L 422,495 L 422,494 L 421,493 L 421,492 L 420,491 L 420,490 Z" fill="black" /><path d="M 789,488 L 789,489 L 790,490 L 790,494 L 791,495 L 791,502 L 792,503 L 792,532 L 791,533 L 791,539 L 790,540 L 790,544 L 789,545 L 789,548 L 788,549 L 788,550 L 790,548 L 790,547 L 791,546 L 791,545 L 793,543 L 793,542 L 794,541 L 794,540 L 795,539 L 795,537 L 796,536 L 796,534 L 797,533 L 797,531 L 798,530 L 798,526 L 799,525 L 799,508 L 798,507 L 798,504 L 797,503 L 797,502 L 796,501 L 796,499 L 795,498 L 795,497 L 793,495 L 793,494 L 791,492 L 791,491 L 790,490 L 790,489 Z" fill="black" /><path d="M 162,487 L 162,489 L 161,490 L 161,494 L 160,495 L 160,525 L 159,526 L 159,534 L 158,535 L 158,536 L 159,536 L 159,535 L 160,534 L 160,533 L 161,532 L 161,531 L 162,530 L 162,529 L 163,528 L 163,527 L 164,526 L 164,524 L 165,523 L 165,520 L 166,519 L 166,501 L 165,500 L 165,497 L 164,496 L 164,494 L 163,493 L 163,489 L 162,488 Z" fill="black" /><path d="M 639,484 L 639,485 L 638,486 L 638,488 L 637,489 L 637,491 L 636,492 L 636,493 L 635,494 L 635,496 L 634,497 L 634,499 L 633,500 L 633,502 L 632,503 L 632,504 L 631,505 L 631,507 L 630,508 L 630,509 L 629,510 L 629,511 L 628,512 L 628,513 L 627,514 L 627,515 L 626,516 L 626,517 L 625,518 L 625,519 L 623,521 L 623,522 L 621,524 L 621,525 L 615,531 L 614,531 L 612,533 L 614,533 L 615,532 L 618,532 L 619,531 L 621,531 L 622,530 L 623,530 L 624,529 L 625,529 L 633,521 L 633,520 L 635,518 L 635,517 L 636,516 L 636,514 L 637,513 L 637,511 L 638,510 L 638,507 L 639,506 Z" fill="black" /><path d="M 179,482 Z" fill="black" /><path d="M 665,481 L 664,482 L 664,484 L 663,485 L 663,487 L 662,488 L 662,489 L 661,490 L 661,492 L 660,493 L 660,494 L 659,495 L 659,497 L 658,498 L 658,499 L 657,500 L 657,502 L 656,503 L 656,504 L 655,505 L 655,507 L 654,508 L 654,509 L 653,510 L 653,511 L 652,512 L 652,514 L 651,515 L 651,516 L 650,517 L 650,518 L 649,519 L 649,520 L 648,521 L 648,522 L 647,523 L 647,524 L 644,527 L 644,528 L 639,533 L 641,533 L 642,532 L 644,532 L 645,531 L 646,531 L 647,530 L 648,530 L 654,524 L 654,523 L 656,521 L 656,520 L 657,519 L 657,518 L 658,517 L 658,515 L 659,514 L 659,513 L 660,512 L 660,509 L 661,508 L 661,506 L 662,505 L 662,501 L 663,500 L 663,493 L 664,492 L 664,483 L 665,482 Z" fill="black" /><path d="M 626,481 Z" fill="black" /><path d="M 396,473 L 396,487 L 397,488 L 397,491 L 398,492 L 398,495 L 399,496 L 399,497 L 400,498 L 400,500 L 401,501 L 401,502 L 402,503 L 402,504 L 403,505 L 403,506 L 405,508 L 405,509 L 408,512 L 408,513 L 412,517 L 412,518 L 415,521 L 415,522 L 418,525 L 418,526 L 420,528 L 420,529 L 421,530 L 421,531 L 422,532 L 422,533 L 423,534 L 423,533 L 422,532 L 422,523 L 421,522 L 421,520 L 420,519 L 420,517 L 419,516 L 419,515 L 418,514 L 418,513 L 417,512 L 417,511 L 416,510 L 416,509 L 414,507 L 414,506 L 412,504 L 412,503 L 410,501 L 410,500 L 408,498 L 408,497 L 406,495 L 406,494 L 404,492 L 404,491 L 403,490 L 403,489 L 402,488 L 402,487 L 401,486 L 401,485 L 400,484 L 400,483 L 399,482 L 399,481 L 398,480 L 398,478 L 397,477 L 397,475 L 396,474 Z" fill="black" /><path d="M 627,471 Z" fill="black" /><path d="M 626,458 Z" fill="black" /><path d="M 339,455 L 339,458 L 340,459 L 340,463 L 341,464 L 341,466 L 342,467 L 342,469 L 343,470 L 343,471 L 344,472 L 344,473 L 345,474 L 345,475 L 346,476 L 346,477 L 347,478 L 347,479 L 350,482 L 350,483 L 354,487 L 354,488 L 362,496 L 362,497 L 365,500 L 365,501 L 368,504 L 368,505 L 369,506 L 369,507 L 371,509 L 371,510 L 372,511 L 372,513 L 372,505 L 371,504 L 371,501 L 370,500 L 370,498 L 369,497 L 369,495 L 368,494 L 368,493 L 367,492 L 367,491 L 365,489 L 365,488 L 363,486 L 363,485 L 359,481 L 359,480 L 348,469 L 348,468 L 344,464 L 344,463 L 342,461 L 342,460 L 341,459 L 341,458 L 340,457 L 340,456 Z" fill="black" /><path d="M 187,455 L 187,456 L 186,457 L 186,459 L 185,460 L 185,462 L 184,463 L 184,466 L 183,467 L 183,471 L 182,472 L 182,478 L 181,479 L 181,495 L 182,496 L 182,503 L 183,504 L 183,509 L 184,510 L 184,515 L 185,516 L 185,521 L 186,522 L 186,528 L 187,529 L 187,532 L 187,530 L 188,529 L 188,525 L 189,524 L 189,502 L 188,501 L 188,493 L 187,492 L 187,482 L 186,481 L 186,466 L 187,465 L 187,457 L 188,456 L 188,455 Z" fill="black" /><path d="M 620,452 Z" fill="black" /><path d="M 622,451 L 622,457 L 621,458 L 621,463 L 620,464 L 620,468 L 619,469 L 619,474 L 618,475 L 618,478 L 617,479 L 617,481 L 616,482 L 616,484 L 615,485 L 615,487 L 614,488 L 614,489 L 613,490 L 613,492 L 612,493 L 612,494 L 611,495 L 611,496 L 610,497 L 610,498 L 608,500 L 608,501 L 607,502 L 607,503 L 604,506 L 606,506 L 607,505 L 608,505 L 609,504 L 610,504 L 612,502 L 613,502 L 616,499 L 616,498 L 619,495 L 619,494 L 620,493 L 620,492 L 621,491 L 621,490 L 622,489 L 622,487 L 623,486 L 623,483 L 624,482 L 624,477 L 625,476 L 625,467 L 624,466 L 624,458 L 623,457 L 623,451 Z" fill="black" /><path d="M 456,449 L 456,464 L 457,465 L 457,470 L 458,471 L 458,474 L 459,475 L 459,477 L 460,478 L 460,481 L 461,482 L 461,483 L 462,484 L 462,485 L 464,487 L 464,488 L 465,489 L 465,490 L 467,492 L 467,493 L 468,494 L 468,495 L 470,497 L 470,498 L 472,500 L 472,501 L 474,503 L 474,504 L 476,506 L 476,507 L 477,508 L 477,509 L 479,511 L 479,512 L 479,509 L 478,508 L 478,503 L 477,502 L 477,498 L 476,497 L 476,495 L 475,494 L 475,493 L 474,492 L 474,491 L 473,490 L 473,488 L 472,487 L 472,486 L 471,485 L 471,484 L 470,483 L 470,482 L 469,481 L 469,480 L 468,479 L 468,478 L 467,477 L 467,476 L 466,475 L 466,474 L 465,473 L 465,471 L 464,470 L 464,469 L 463,468 L 463,467 L 462,466 L 462,465 L 461,464 L 461,462 L 460,461 L 460,460 L 459,459 L 459,458 L 458,457 L 458,455 L 457,454 L 457,452 L 456,451 Z" fill="black" /><path d="M 809,444 L 810,445 L 810,446 L 812,448 L 812,449 L 813,450 L 813,451 L 814,452 L 814,453 L 815,454 L 815,455 L 816,456 L 816,457 L 817,458 L 817,460 L 818,461 L 818,462 L 819,463 L 819,465 L 820,466 L 820,468 L 821,469 L 821,473 L 822,474 L 822,478 L 823,479 L 823,485 L 824,486 L 824,501 L 823,502 L 823,504 L 823,503 L 824,502 L 824,501 L 825,500 L 825,499 L 826,498 L 826,497 L 827,496 L 827,494 L 828,493 L 828,489 L 829,488 L 829,472 L 828,471 L 828,467 L 827,466 L 827,465 L 826,464 L 826,462 L 825,461 L 825,460 L 824,459 L 824,458 L 822,456 L 822,455 L 814,447 L 813,447 L 810,444 Z" fill="black" /><path d="M 608,443 Z" fill="black" /><path d="M 860,438 Z" fill="black" /><path d="M 834,435 Z" fill="black" /><path d="M 440,435 L 440,436 L 439,437 L 439,451 L 440,452 L 440,455 L 441,456 L 441,458 L 442,459 L 442,460 L 443,461 L 443,462 L 444,463 L 444,464 L 445,465 L 445,466 L 446,467 L 446,468 L 448,470 L 448,469 L 447,468 L 447,464 L 446,463 L 446,459 L 445,458 L 445,456 L 444,455 L 444,453 L 443,452 L 443,450 L 442,449 L 442,446 L 441,445 L 441,443 L 440,442 Z" fill="black" /><path d="M 240,434 Z" fill="black" /><path d="M 779,433 L 779,439 L 780,440 L 780,444 L 781,445 L 781,448 L 782,449 L 782,451 L 783,452 L 783,454 L 784,455 L 784,456 L 785,457 L 785,458 L 786,459 L 786,460 L 787,461 L 787,462 L 789,464 L 789,465 L 791,467 L 791,468 L 794,471 L 794,472 L 797,475 L 797,476 L 799,478 L 799,479 L 801,481 L 801,482 L 803,484 L 803,485 L 805,487 L 805,488 L 806,489 L 806,490 L 808,492 L 808,493 L 808,481 L 807,480 L 807,478 L 806,477 L 806,475 L 805,474 L 805,473 L 804,472 L 804,471 L 803,470 L 803,469 L 802,468 L 802,467 L 800,465 L 800,464 L 798,462 L 798,461 L 796,459 L 796,458 L 793,455 L 793,454 L 791,452 L 791,451 L 788,448 L 788,447 L 786,445 L 786,444 L 784,442 L 784,441 L 782,439 L 782,438 L 781,437 L 781,436 L 780,435 L 780,434 Z" fill="black" /><path d="M 259,431 L 258,432 L 258,434 L 257,435 L 257,436 L 256,437 L 256,438 L 254,440 L 254,441 L 253,442 L 253,443 L 252,444 L 252,445 L 251,446 L 251,447 L 250,448 L 250,449 L 249,450 L 249,451 L 248,452 L 248,453 L 247,454 L 247,455 L 246,456 L 246,457 L 245,458 L 245,459 L 244,460 L 244,461 L 243,462 L 243,463 L 242,464 L 242,465 L 241,466 L 241,468 L 239,470 L 239,471 L 238,472 L 238,473 L 235,476 L 236,476 L 237,475 L 238,475 L 240,473 L 241,473 L 247,467 L 247,466 L 249,464 L 249,463 L 251,461 L 251,460 L 252,459 L 252,457 L 253,456 L 253,455 L 254,454 L 254,452 L 255,451 L 255,448 L 256,447 L 256,444 L 257,443 L 257,438 L 258,437 L 258,434 L 259,433 Z" fill="black" /><path d="M 417,421 L 417,425 L 416,426 L 416,447 L 417,448 L 417,451 L 418,452 L 418,455 L 419,456 L 419,457 L 420,458 L 420,459 L 421,460 L 421,461 L 422,462 L 422,463 L 423,464 L 423,465 L 424,466 L 424,467 L 426,469 L 426,470 L 427,471 L 427,472 L 429,474 L 429,475 L 431,477 L 431,478 L 433,480 L 433,481 L 435,483 L 435,484 L 436,485 L 436,486 L 437,487 L 437,488 L 438,489 L 438,490 L 439,491 L 439,492 L 440,493 L 440,495 L 441,496 L 441,498 L 442,499 L 442,501 L 443,502 L 443,506 L 444,505 L 444,504 L 445,503 L 445,501 L 446,500 L 446,491 L 445,490 L 445,487 L 444,486 L 444,484 L 443,483 L 443,482 L 442,481 L 442,479 L 441,478 L 441,477 L 439,475 L 439,474 L 438,473 L 438,472 L 436,470 L 436,469 L 434,467 L 434,466 L 432,464 L 432,463 L 430,461 L 430,460 L 429,459 L 429,458 L 428,457 L 428,456 L 427,455 L 427,454 L 426,453 L 426,452 L 425,451 L 425,450 L 424,449 L 424,448 L 423,447 L 423,445 L 422,444 L 422,442 L 421,441 L 421,438 L 420,437 L 420,434 L 419,433 L 419,428 L 418,427 L 418,421 Z" fill="black" /><path d="M 418,419 Z" fill="black" /><path d="M 588,407 Z" fill="black" /><path d="M 402,407 L 402,408 L 401,409 L 401,411 L 400,412 L 400,414 L 399,415 L 399,419 L 398,420 L 398,427 L 399,428 L 399,433 L 400,434 L 400,435 L 401,436 L 401,438 L 402,439 L 402,440 L 404,442 L 404,443 L 407,446 L 407,447 L 408,448 L 408,447 L 407,446 L 407,443 L 406,442 L 406,437 L 405,436 L 405,430 L 404,429 L 404,422 L 403,421 L 403,411 L 402,410 Z" fill="black" /><path d="M 349,407 L 349,409 L 348,410 L 348,411 L 347,412 L 347,414 L 346,415 L 346,418 L 345,419 L 345,433 L 346,434 L 346,437 L 347,438 L 347,440 L 348,441 L 348,442 L 349,443 L 349,444 L 350,445 L 350,446 L 351,447 L 351,448 L 353,450 L 353,451 L 355,453 L 355,454 L 358,457 L 358,458 L 362,462 L 362,463 L 365,466 L 365,467 L 367,469 L 367,470 L 369,472 L 369,473 L 371,475 L 371,476 L 372,477 L 372,478 L 373,479 L 373,480 L 374,481 L 374,482 L 375,483 L 375,485 L 376,486 L 376,488 L 377,489 L 377,491 L 378,492 L 378,495 L 379,495 L 379,492 L 380,491 L 380,488 L 381,487 L 381,485 L 380,484 L 380,478 L 379,477 L 379,474 L 378,473 L 378,472 L 377,471 L 377,470 L 376,469 L 376,468 L 375,467 L 375,466 L 374,465 L 374,464 L 372,462 L 372,461 L 369,458 L 369,457 L 365,453 L 365,452 L 360,447 L 360,446 L 357,443 L 357,442 L 355,440 L 355,439 L 354,438 L 354,437 L 352,435 L 352,433 L 351,432 L 351,430 L 350,429 L 350,427 L 349,426 L 349,420 L 348,419 L 348,417 L 349,416 L 348,415 L 349,414 Z" fill="black" /><path d="M 219,406 L 217,408 L 217,409 L 212,414 L 212,415 L 210,417 L 210,418 L 208,420 L 208,421 L 207,422 L 207,423 L 206,424 L 206,425 L 205,426 L 205,428 L 204,429 L 204,430 L 203,431 L 203,435 L 202,436 L 202,451 L 203,450 L 203,447 L 204,446 L 204,445 L 205,444 L 205,443 L 206,442 L 206,441 L 207,440 L 207,438 L 208,437 L 208,435 L 209,434 L 209,433 L 210,432 L 210,430 L 211,429 L 211,427 L 212,426 L 212,425 L 213,424 L 213,422 L 214,421 L 214,419 L 215,418 L 215,416 L 216,415 L 216,413 L 217,412 L 217,410 L 218,409 L 218,408 L 220,406 Z" fill="black" /><path d="M 599,403 L 599,406 L 598,407 L 598,411 L 597,412 L 597,432 L 598,433 L 598,437 L 599,438 L 599,440 L 600,441 L 600,444 L 601,445 L 601,447 L 602,448 L 602,449 L 603,450 L 603,453 L 604,454 L 604,455 L 605,456 L 605,461 L 606,461 L 606,441 L 605,440 L 605,435 L 604,434 L 604,430 L 603,429 L 603,424 L 602,423 L 602,419 L 601,418 L 601,413 L 600,412 L 600,403 Z" fill="black" /><path d="M 387,401 L 386,402 L 386,404 L 385,405 L 385,408 L 384,409 L 384,419 L 385,420 L 385,422 L 386,423 L 386,425 L 387,426 L 387,427 L 388,428 L 388,429 L 389,430 L 389,431 L 390,432 L 390,433 L 390,426 L 389,425 L 389,418 L 388,417 L 388,410 L 387,409 Z" fill="black" /><path d="M 269,399 L 267,401 L 266,401 L 265,402 L 264,402 L 262,404 L 261,404 L 251,414 L 251,415 L 249,417 L 249,418 L 248,419 L 248,420 L 247,421 L 247,422 L 246,423 L 246,424 L 245,425 L 245,426 L 244,427 L 244,429 L 243,430 L 243,433 L 242,434 L 242,437 L 241,438 L 241,452 L 241,451 L 242,450 L 242,448 L 243,447 L 243,446 L 244,445 L 244,443 L 245,442 L 245,441 L 246,440 L 246,438 L 247,437 L 247,435 L 248,434 L 248,433 L 249,432 L 249,430 L 250,429 L 250,428 L 251,427 L 251,426 L 252,425 L 252,424 L 253,423 L 253,422 L 254,421 L 254,420 L 255,419 L 255,418 L 257,416 L 257,415 L 258,414 L 258,413 L 261,410 L 261,409 L 263,407 L 263,406 L 269,400 Z" fill="black" /><path d="M 767,398 Z" fill="black" /><path d="M 368,398 L 367,399 L 367,400 L 366,401 L 366,402 L 365,403 L 365,404 L 364,405 L 364,406 L 363,407 L 363,409 L 362,410 L 362,412 L 361,413 L 361,424 L 362,425 L 362,427 L 363,428 L 363,430 L 364,431 L 364,432 L 365,433 L 365,434 L 371,440 L 372,440 L 371,439 L 371,438 L 370,437 L 370,435 L 369,434 L 369,431 L 368,430 L 368,423 L 367,422 L 367,402 L 368,401 Z" fill="black" /><path d="M 728,394 L 728,395 L 733,400 L 733,401 L 738,406 L 738,407 L 741,410 L 741,411 L 744,414 L 744,415 L 746,417 L 746,418 L 747,419 L 747,420 L 749,422 L 749,423 L 750,424 L 750,425 L 752,427 L 752,428 L 753,429 L 753,430 L 754,431 L 754,432 L 755,433 L 755,434 L 757,436 L 757,437 L 758,438 L 758,439 L 761,442 L 761,443 L 762,444 L 762,436 L 761,435 L 761,430 L 760,429 L 760,426 L 759,425 L 759,423 L 758,422 L 758,420 L 757,419 L 757,418 L 755,416 L 755,415 L 750,410 L 750,409 L 749,409 L 744,404 L 743,404 L 740,401 L 739,401 L 737,399 L 736,399 L 735,398 L 734,398 L 732,396 L 731,396 L 729,394 Z" fill="black" /><path d="M 215,392 Z" fill="black" /><path d="M 843,391 Z" fill="black" /><path d="M 798,387 L 799,388 L 799,389 L 802,392 L 802,393 L 803,394 L 803,395 L 805,397 L 805,398 L 807,400 L 807,401 L 808,402 L 808,403 L 809,404 L 809,405 L 810,406 L 810,407 L 812,409 L 812,410 L 813,411 L 813,412 L 814,413 L 814,414 L 815,415 L 815,416 L 817,418 L 817,419 L 818,420 L 818,421 L 819,422 L 819,423 L 820,424 L 820,425 L 821,426 L 821,427 L 822,428 L 822,429 L 823,430 L 823,431 L 824,432 L 824,433 L 825,434 L 825,436 L 826,437 L 826,439 L 827,440 L 827,441 L 828,442 L 828,445 L 829,446 L 829,449 L 830,450 L 830,454 L 831,455 L 831,456 L 831,451 L 832,450 L 832,435 L 831,434 L 831,430 L 830,429 L 830,427 L 829,426 L 829,424 L 828,423 L 828,422 L 827,421 L 827,420 L 826,419 L 826,418 L 825,417 L 825,416 L 824,415 L 824,414 L 822,412 L 822,411 L 820,409 L 820,408 L 814,402 L 814,401 L 811,398 L 810,398 L 802,390 L 801,390 Z" fill="black" /><path d="M 585,386 L 585,387 L 584,388 L 584,390 L 583,391 L 583,393 L 582,394 L 582,396 L 581,397 L 581,401 L 580,402 L 580,414 L 581,415 L 581,418 L 582,419 L 582,420 L 583,421 L 583,423 L 585,425 L 585,426 L 587,428 L 587,429 L 589,431 L 589,430 L 588,429 L 588,425 L 587,424 L 587,418 L 586,417 L 586,407 L 585,406 Z" fill="black" /><path d="M 759,375 L 759,376 L 760,377 L 760,378 L 761,379 L 761,380 L 762,381 L 762,382 L 764,384 L 764,385 L 765,386 L 765,387 L 766,388 L 766,389 L 767,390 L 767,391 L 768,392 L 768,393 L 769,394 L 769,395 L 770,396 L 770,397 L 771,398 L 771,399 L 773,401 L 773,402 L 774,403 L 774,404 L 778,408 L 778,409 L 782,413 L 783,413 L 787,417 L 788,417 L 789,418 L 790,418 L 791,419 L 792,419 L 793,420 L 795,420 L 796,421 L 797,421 L 798,422 L 798,421 L 797,421 L 795,419 L 795,418 L 791,414 L 791,413 L 788,410 L 788,409 L 786,407 L 786,406 L 783,403 L 783,402 L 780,399 L 780,398 L 776,394 L 776,393 L 769,386 L 769,385 L 764,380 L 763,380 L 761,378 L 761,377 Z" fill="black" /><path d="M 632,373 L 632,374 L 631,375 L 631,378 L 630,379 L 630,395 L 631,396 L 631,400 L 632,401 L 632,404 L 633,405 L 633,406 L 634,407 L 634,409 L 635,410 L 635,411 L 637,413 L 637,414 L 640,417 L 640,418 L 643,421 L 644,421 L 647,424 L 648,424 L 649,425 L 650,425 L 651,426 L 652,426 L 650,424 L 650,423 L 648,421 L 648,420 L 647,419 L 647,418 L 646,417 L 646,416 L 645,415 L 645,414 L 644,413 L 644,412 L 642,410 L 642,408 L 641,407 L 641,406 L 640,405 L 640,404 L 639,403 L 639,401 L 638,400 L 638,398 L 637,397 L 637,395 L 636,394 L 636,392 L 635,391 L 635,388 L 634,387 L 634,384 L 633,383 L 633,378 L 632,377 Z" fill="black" /><path d="M 718,355 L 719,356 L 719,361 L 720,362 L 720,365 L 721,366 L 721,368 L 722,369 L 722,370 L 723,371 L 723,372 L 725,374 L 725,375 L 729,379 L 729,380 L 734,385 L 735,385 L 739,389 L 740,389 L 741,390 L 742,390 L 744,392 L 745,392 L 747,394 L 748,394 L 750,396 L 751,396 L 754,399 L 755,399 L 756,400 L 756,401 L 757,401 L 760,404 L 760,405 L 761,405 L 762,406 L 762,407 L 765,410 L 765,411 L 766,412 L 766,413 L 768,415 L 768,417 L 769,418 L 769,409 L 768,408 L 768,406 L 767,405 L 767,403 L 766,402 L 766,401 L 765,400 L 765,399 L 764,398 L 764,397 L 754,387 L 753,387 L 750,384 L 749,384 L 747,382 L 746,382 L 744,380 L 743,380 L 741,378 L 740,378 L 738,376 L 737,376 L 733,372 L 732,372 L 725,365 L 725,364 L 722,361 L 722,360 L 721,359 L 721,358 L 719,356 L 719,355 Z" fill="black" /><path d="M 342,347 Z" fill="black" /><path d="M 758,343 L 761,346 L 761,347 L 765,351 L 765,352 L 766,353 L 767,353 L 773,359 L 774,359 L 776,361 L 777,361 L 779,363 L 780,363 L 781,364 L 782,364 L 784,366 L 785,366 L 786,367 L 787,367 L 788,368 L 789,368 L 790,369 L 791,369 L 792,370 L 793,370 L 794,371 L 795,371 L 797,373 L 798,373 L 799,374 L 800,374 L 802,376 L 803,376 L 804,377 L 805,377 L 807,379 L 808,379 L 811,382 L 812,382 L 816,386 L 816,385 L 815,384 L 815,383 L 813,381 L 813,380 L 811,378 L 811,377 L 806,372 L 806,371 L 805,371 L 799,365 L 798,365 L 796,363 L 795,363 L 793,361 L 792,361 L 791,360 L 790,360 L 789,359 L 788,359 L 786,357 L 785,357 L 784,356 L 783,356 L 782,355 L 781,355 L 780,354 L 779,354 L 778,353 L 777,353 L 776,352 L 775,352 L 774,351 L 773,351 L 772,350 L 771,350 L 770,349 L 769,349 L 768,348 L 767,348 L 766,347 L 765,347 L 763,345 L 762,345 L 761,344 L 760,344 L 759,343 Z" fill="black" /><path d="M 668,343 L 667,344 L 667,346 L 666,347 L 666,353 L 665,354 L 665,362 L 666,363 L 666,367 L 667,368 L 667,370 L 668,371 L 668,372 L 669,373 L 669,375 L 671,377 L 671,378 L 672,379 L 672,380 L 676,384 L 676,385 L 677,385 L 683,391 L 684,391 L 687,394 L 688,394 L 690,396 L 691,396 L 692,397 L 693,397 L 694,398 L 695,398 L 697,400 L 698,400 L 699,401 L 700,401 L 701,402 L 702,402 L 704,404 L 705,404 L 706,405 L 707,405 L 710,408 L 711,408 L 720,417 L 720,418 L 721,419 L 721,420 L 722,421 L 722,418 L 721,417 L 721,414 L 720,413 L 720,412 L 719,411 L 719,410 L 718,409 L 718,408 L 716,406 L 716,405 L 712,401 L 712,400 L 711,399 L 710,399 L 705,394 L 704,394 L 702,392 L 701,392 L 699,390 L 698,390 L 697,389 L 696,389 L 694,387 L 693,387 L 691,385 L 690,385 L 688,383 L 687,383 L 677,373 L 677,372 L 675,370 L 675,369 L 674,368 L 674,367 L 673,366 L 673,365 L 672,364 L 672,362 L 671,361 L 671,360 L 670,359 L 670,356 L 669,355 L 669,351 L 668,350 Z" fill="black" /><path d="M 853,342 L 853,345 L 854,346 L 854,349 L 855,350 L 855,354 L 856,355 L 856,360 L 857,361 L 857,365 L 858,366 L 858,372 L 859,373 L 859,380 L 860,381 L 860,385 L 861,386 L 861,388 L 861,386 L 862,385 L 862,382 L 863,381 L 863,364 L 862,363 L 862,360 L 861,359 L 861,357 L 860,356 L 860,355 L 859,354 L 859,353 L 858,352 L 858,351 L 857,350 L 857,349 L 856,348 L 856,347 L 854,345 L 854,344 L 853,343 Z" fill="black" /><path d="M 633,341 L 623,351 L 623,352 L 622,353 L 622,354 L 620,356 L 620,358 L 619,359 L 619,360 L 618,361 L 618,364 L 617,365 L 617,370 L 616,371 L 616,372 L 617,373 L 617,381 L 618,382 L 618,385 L 619,386 L 619,388 L 620,389 L 620,390 L 621,391 L 621,392 L 622,393 L 622,394 L 623,395 L 623,396 L 623,392 L 622,391 L 622,371 L 623,370 L 623,365 L 624,364 L 624,361 L 625,360 L 625,358 L 626,357 L 626,355 L 627,354 L 627,353 L 628,352 L 628,350 L 629,349 L 629,348 L 630,347 L 630,346 L 632,344 L 632,343 L 633,342 Z" fill="black" /><path d="M 537,334 Z" fill="black" /><path d="M 493,334 Z" fill="black" /><path d="M 684,328 Z" fill="black" /><path d="M 823,321 L 823,324 L 824,325 L 824,328 L 825,329 L 825,332 L 826,333 L 826,335 L 827,336 L 827,338 L 828,339 L 828,341 L 829,342 L 829,344 L 830,345 L 830,347 L 831,348 L 831,350 L 832,351 L 832,353 L 833,354 L 833,356 L 834,357 L 834,358 L 835,359 L 835,360 L 835,358 L 836,357 L 836,344 L 835,343 L 835,341 L 834,340 L 834,338 L 833,337 L 833,335 L 832,334 L 832,333 L 831,332 L 831,331 L 829,329 L 829,328 L 826,325 L 826,324 Z" fill="black" /><path d="M 861,319 Z" fill="black" /><path d="M 781,317 L 781,320 L 782,321 L 782,323 L 783,324 L 783,326 L 784,327 L 784,329 L 785,330 L 785,331 L 787,333 L 787,334 L 788,335 L 788,336 L 791,339 L 791,340 L 800,349 L 801,349 L 805,353 L 806,353 L 810,357 L 811,357 L 823,369 L 823,370 L 827,374 L 827,375 L 829,377 L 829,378 L 830,379 L 830,380 L 832,382 L 832,383 L 833,384 L 833,385 L 834,386 L 834,387 L 836,389 L 836,390 L 837,391 L 837,392 L 838,393 L 838,394 L 839,395 L 839,396 L 840,397 L 840,398 L 841,399 L 841,401 L 842,402 L 842,395 L 841,394 L 841,389 L 840,388 L 840,385 L 839,384 L 839,381 L 838,380 L 838,378 L 837,377 L 837,375 L 836,374 L 836,373 L 835,372 L 835,371 L 834,370 L 834,369 L 832,367 L 832,366 L 831,365 L 831,364 L 828,361 L 828,360 L 819,351 L 818,351 L 815,348 L 814,348 L 811,345 L 810,345 L 808,343 L 807,343 L 804,340 L 803,340 L 799,336 L 798,336 L 794,332 L 793,332 L 787,326 L 787,325 L 782,320 L 782,319 L 781,318 Z" fill="black" /><path d="M 692,314 L 692,315 L 691,316 L 691,317 L 689,319 L 689,321 L 688,322 L 688,323 L 687,324 L 687,327 L 686,328 L 686,334 L 685,335 L 685,336 L 686,337 L 686,345 L 687,346 L 687,349 L 688,350 L 688,351 L 689,352 L 689,353 L 690,354 L 690,355 L 691,356 L 691,357 L 692,358 L 692,359 L 694,361 L 694,362 L 706,374 L 707,374 L 706,373 L 706,372 L 704,370 L 704,369 L 703,368 L 703,367 L 702,366 L 702,365 L 701,364 L 701,363 L 700,362 L 700,361 L 699,360 L 699,359 L 698,358 L 698,356 L 697,355 L 697,354 L 696,353 L 696,351 L 695,350 L 695,347 L 694,346 L 694,344 L 693,343 L 693,339 L 692,338 L 692,331 L 691,330 L 691,323 L 692,322 L 692,316 L 693,315 L 693,314 Z" fill="black" /><path d="M 751,302 Z" fill="black" /><path d="M 909,290 Z" fill="black" /><path d="M 849,286 L 846,289 L 845,289 L 840,294 L 840,295 L 839,296 L 839,297 L 838,298 L 838,305 L 839,306 L 839,307 L 840,308 L 840,309 L 840,307 L 841,306 L 841,303 L 842,302 L 842,300 L 843,299 L 843,298 L 844,297 L 844,296 L 845,295 L 845,294 L 846,293 L 846,292 L 847,291 L 847,290 L 848,289 L 848,288 L 849,287 Z" fill="black" /><path d="M 744,286 L 744,289 L 743,290 L 743,293 L 742,294 L 742,302 L 743,303 L 743,307 L 744,308 L 744,310 L 745,311 L 745,313 L 746,314 L 746,316 L 747,317 L 747,318 L 748,319 L 748,320 L 749,321 L 749,322 L 752,325 L 752,326 L 759,333 L 760,333 L 762,335 L 763,335 L 764,336 L 765,336 L 766,337 L 767,337 L 768,338 L 770,338 L 771,339 L 772,339 L 772,338 L 771,338 L 770,337 L 770,336 L 766,332 L 766,331 L 763,328 L 763,327 L 760,324 L 760,323 L 758,321 L 758,320 L 756,318 L 756,317 L 755,316 L 755,315 L 754,314 L 754,313 L 753,312 L 753,311 L 752,310 L 752,309 L 751,308 L 751,307 L 750,306 L 750,305 L 749,304 L 749,302 L 748,301 L 748,300 L 747,299 L 747,296 L 746,295 L 746,293 L 745,292 L 745,286 Z" fill="black" /><path d="M 721,283 L 721,284 L 720,285 L 720,289 L 719,290 L 719,299 L 720,300 L 720,303 L 721,304 L 721,306 L 722,307 L 722,309 L 723,310 L 723,311 L 724,312 L 724,313 L 725,314 L 725,315 L 728,318 L 728,319 L 731,322 L 731,323 L 736,328 L 736,329 L 740,333 L 740,334 L 741,335 L 741,326 L 740,325 L 740,323 L 739,322 L 739,321 L 738,320 L 738,319 L 737,318 L 737,317 L 736,316 L 736,315 L 734,313 L 734,312 L 733,311 L 733,310 L 731,308 L 731,307 L 729,305 L 729,304 L 727,302 L 727,301 L 726,300 L 726,299 L 725,298 L 725,297 L 724,296 L 724,295 L 723,294 L 723,293 L 722,292 L 722,289 L 721,288 Z" fill="black" /><path d="M 831,276 Z" fill="black" /><path d="M 876,269 Z" fill="black" /><path d="M 884,267 L 885,267 Z" fill="black" /><path d="M 874,261 L 873,262 L 870,262 L 869,263 L 868,263 L 865,266 L 865,267 L 864,268 L 864,278 L 864,277 L 867,274 L 867,273 L 869,271 L 870,271 L 873,268 L 874,268 L 876,266 L 877,266 L 878,265 L 879,265 L 880,264 L 881,264 L 882,263 L 883,263 L 884,262 L 887,262 L 885,262 L 884,261 Z" fill="black" /><path d="M 949,259 L 948,260 L 948,261 L 949,262 L 950,262 L 951,261 L 951,259 Z" fill="black" /><path d="M 938,259 L 936,261 L 936,263 L 938,263 L 939,262 L 939,259 Z" fill="black" /><path d="M 854,257 L 850,261 L 850,262 L 848,264 L 848,266 L 847,267 L 847,272 L 848,273 L 848,274 L 849,275 L 849,277 L 851,279 L 851,280 L 852,281 L 852,276 L 851,275 L 851,266 L 852,265 L 852,262 L 853,261 L 853,259 L 854,258 Z" fill="black" /><path d="M 958,252 L 958,256 L 959,256 L 960,255 L 960,252 Z" fill="black" /><path d="M 945,249 L 945,252 L 947,252 L 947,250 L 946,249 Z" fill="black" /><path d="M 832,245 L 832,247 Z" fill="black" /><path d="M 705,219 Z" fill="black" /><path d="M 892,215 L 891,216 L 890,216 L 889,217 L 888,217 L 878,227 L 879,227 L 881,225 L 882,225 L 883,224 L 884,224 L 886,222 L 887,222 L 888,221 L 889,221 L 892,218 Z" fill="black" /><path d="M 801,197 Z" fill="black" /><path d="M 772,194 L 772,195 L 771,196 L 771,197 L 770,198 L 770,199 L 769,200 L 769,202 L 768,203 L 768,208 L 767,209 L 767,211 L 768,212 L 768,218 L 769,219 L 769,221 L 770,222 L 770,223 L 771,224 L 771,225 L 772,226 L 772,227 L 774,229 L 774,230 L 777,233 L 777,232 L 776,231 L 776,227 L 775,226 L 775,222 L 774,221 L 774,217 L 773,216 L 773,203 L 772,202 L 772,195 L 773,194 Z" fill="black" /><path d="M 762,193 L 762,194 L 761,195 L 761,196 L 759,198 L 759,199 L 755,203 L 755,204 L 752,207 L 752,208 L 751,209 L 751,210 L 750,211 L 750,212 L 749,213 L 749,215 L 748,216 L 748,223 L 749,224 L 749,225 L 750,224 L 749,223 L 750,222 L 750,219 L 751,218 L 751,217 L 752,216 L 752,215 L 753,214 L 753,213 L 755,211 L 755,210 L 757,208 L 757,207 L 759,205 L 759,204 L 760,203 L 760,202 L 761,201 L 761,198 L 762,197 Z" fill="black" /><path d="M 832,191 L 832,192 L 831,193 L 831,200 L 833,202 L 840,202 L 841,201 L 843,201 L 844,200 L 846,200 L 847,199 L 848,199 L 849,198 L 850,198 L 852,196 L 853,196 L 854,195 L 855,195 L 856,194 L 857,194 L 858,193 L 854,193 L 853,194 L 849,194 L 848,195 L 846,195 L 845,196 L 841,196 L 840,197 L 835,197 L 832,194 L 832,192 L 833,191 Z" fill="black" /><path d="M 866,189 Z" fill="black" /><path d="M 902,178 Z" fill="black" /><path d="M 889,160 L 888,161 L 880,161 L 879,162 L 877,162 L 876,163 L 875,163 L 870,168 L 869,168 L 868,169 L 868,170 L 869,169 L 870,169 L 871,168 L 872,168 L 873,167 L 874,167 L 875,166 L 881,166 L 882,167 L 883,167 L 884,168 L 885,168 L 887,170 L 888,170 L 896,178 L 896,179 L 895,180 L 891,176 L 886,176 L 885,177 L 884,177 L 883,178 L 881,178 L 879,180 L 878,180 L 876,182 L 875,182 L 874,183 L 873,183 L 872,184 L 871,184 L 870,185 L 869,185 L 869,186 L 868,187 L 868,191 L 873,196 L 874,196 L 875,197 L 876,197 L 877,198 L 878,198 L 879,199 L 880,199 L 881,200 L 883,200 L 884,201 L 887,201 L 888,200 L 890,200 L 893,197 L 895,197 L 902,204 L 902,205 L 903,205 L 903,204 L 902,203 L 902,199 L 901,198 L 901,196 L 900,195 L 900,193 L 899,192 L 899,191 L 898,190 L 898,188 L 897,187 L 897,185 L 896,184 L 896,182 L 897,181 L 898,182 L 898,183 L 899,184 L 899,182 L 900,181 L 900,177 L 899,176 L 899,174 L 898,173 L 898,172 L 897,171 L 897,170 L 896,169 L 896,168 L 895,167 L 895,165 L 894,164 L 894,163 L 892,161 L 890,161 Z" fill="black" /><path d="M 798,160 Z" fill="black" /><path d="M 831,128 Z" fill="black" /><path d="M 824,116 L 823,117 L 814,117 L 813,118 L 808,118 L 807,119 L 803,119 L 802,120 L 799,120 L 798,121 L 796,121 L 795,122 L 793,122 L 792,123 L 790,123 L 789,124 L 787,124 L 786,125 L 785,125 L 784,126 L 783,126 L 782,127 L 781,127 L 780,128 L 779,128 L 778,129 L 777,129 L 776,130 L 775,130 L 773,132 L 772,132 L 771,133 L 770,133 L 767,136 L 766,136 L 763,139 L 762,139 L 757,144 L 756,144 L 750,150 L 749,150 L 747,152 L 746,152 L 744,154 L 743,154 L 742,155 L 741,155 L 740,156 L 739,156 L 738,157 L 737,157 L 739,159 L 741,159 L 742,160 L 746,160 L 747,161 L 744,164 L 743,164 L 740,167 L 739,167 L 735,171 L 734,171 L 722,183 L 722,184 L 719,187 L 719,188 L 718,189 L 718,190 L 716,192 L 716,193 L 715,194 L 715,196 L 714,197 L 714,198 L 713,199 L 713,201 L 712,202 L 712,204 L 711,205 L 711,208 L 710,209 L 710,211 L 709,212 L 709,215 L 708,216 L 708,218 L 707,219 L 707,221 L 706,222 L 706,224 L 705,225 L 705,226 L 704,227 L 704,228 L 703,229 L 708,229 L 709,228 L 711,228 L 712,227 L 713,227 L 714,228 L 713,229 L 713,231 L 712,232 L 712,234 L 711,235 L 711,237 L 710,238 L 710,240 L 709,241 L 709,242 L 708,243 L 708,245 L 707,246 L 707,247 L 706,248 L 706,249 L 705,250 L 705,251 L 704,252 L 704,254 L 703,255 L 703,256 L 702,257 L 702,258 L 701,259 L 701,260 L 700,261 L 700,262 L 698,264 L 698,265 L 697,266 L 697,267 L 695,269 L 695,270 L 694,271 L 694,272 L 692,274 L 692,275 L 689,278 L 689,279 L 683,285 L 683,286 L 679,290 L 678,290 L 672,296 L 671,296 L 668,299 L 667,299 L 665,301 L 664,301 L 663,302 L 662,302 L 660,304 L 659,304 L 658,305 L 657,305 L 656,306 L 655,306 L 654,307 L 652,307 L 651,308 L 650,308 L 649,309 L 648,309 L 647,310 L 645,310 L 644,311 L 643,311 L 642,312 L 641,312 L 640,313 L 638,313 L 637,314 L 635,314 L 634,315 L 632,315 L 631,316 L 629,316 L 628,317 L 626,317 L 625,318 L 623,318 L 622,319 L 620,319 L 619,320 L 617,320 L 616,321 L 614,321 L 613,322 L 611,322 L 610,323 L 608,323 L 607,324 L 604,324 L 603,325 L 601,325 L 600,326 L 597,326 L 596,327 L 593,327 L 592,328 L 589,328 L 588,329 L 585,329 L 584,330 L 581,330 L 580,331 L 576,331 L 575,332 L 572,332 L 571,333 L 567,333 L 566,334 L 560,334 L 559,335 L 551,335 L 550,336 L 537,336 L 536,337 L 495,337 L 494,336 L 479,336 L 478,335 L 465,335 L 464,334 L 454,334 L 453,333 L 441,333 L 440,332 L 429,332 L 428,331 L 410,331 L 409,330 L 381,330 L 380,331 L 362,331 L 361,332 L 352,332 L 351,333 L 344,333 L 343,334 L 337,334 L 336,335 L 330,335 L 329,336 L 325,336 L 324,337 L 320,337 L 319,338 L 316,338 L 315,339 L 312,339 L 311,340 L 309,340 L 308,341 L 305,341 L 304,342 L 302,342 L 301,343 L 299,343 L 298,344 L 295,344 L 294,345 L 292,345 L 291,346 L 289,346 L 288,347 L 286,347 L 285,348 L 283,348 L 282,349 L 280,349 L 279,350 L 277,350 L 276,351 L 273,351 L 272,352 L 270,352 L 269,353 L 267,353 L 266,354 L 263,354 L 262,355 L 260,355 L 259,356 L 256,356 L 255,357 L 253,357 L 252,358 L 250,358 L 249,359 L 247,359 L 246,360 L 244,360 L 243,361 L 242,361 L 241,362 L 239,362 L 238,363 L 237,363 L 236,364 L 234,364 L 233,365 L 232,365 L 231,366 L 230,366 L 229,367 L 228,367 L 227,368 L 226,368 L 225,369 L 224,369 L 222,371 L 221,371 L 219,373 L 218,373 L 216,375 L 215,375 L 213,377 L 212,377 L 209,380 L 208,380 L 204,384 L 203,384 L 184,403 L 184,404 L 179,409 L 179,410 L 177,412 L 177,413 L 175,415 L 175,416 L 173,418 L 173,419 L 171,421 L 171,422 L 169,424 L 169,425 L 168,426 L 168,427 L 167,428 L 167,429 L 165,431 L 165,432 L 164,433 L 164,434 L 162,436 L 162,437 L 161,438 L 161,439 L 159,441 L 159,442 L 158,443 L 158,444 L 156,446 L 156,447 L 154,449 L 154,450 L 152,452 L 152,453 L 150,455 L 150,456 L 148,458 L 148,459 L 145,462 L 145,463 L 142,466 L 142,467 L 139,470 L 139,471 L 134,476 L 134,477 L 117,494 L 116,494 L 113,497 L 112,497 L 109,500 L 108,500 L 106,502 L 105,502 L 104,503 L 103,503 L 102,504 L 101,504 L 100,505 L 99,505 L 98,506 L 97,506 L 96,507 L 95,507 L 94,508 L 93,508 L 92,509 L 90,509 L 89,510 L 86,510 L 85,511 L 82,511 L 81,512 L 77,512 L 76,513 L 61,513 L 60,512 L 56,512 L 55,511 L 53,511 L 52,510 L 51,510 L 50,509 L 49,509 L 48,508 L 47,508 L 42,503 L 41,504 L 42,505 L 41,506 L 41,511 L 42,512 L 42,515 L 43,516 L 43,518 L 44,519 L 44,521 L 46,523 L 46,524 L 47,525 L 47,526 L 50,529 L 50,530 L 52,532 L 53,532 L 54,533 L 52,535 L 51,535 L 50,536 L 49,536 L 47,538 L 46,538 L 36,548 L 36,549 L 34,551 L 34,552 L 32,554 L 32,555 L 31,556 L 31,557 L 30,558 L 30,559 L 29,560 L 29,562 L 28,563 L 28,565 L 27,566 L 27,568 L 26,569 L 26,573 L 25,574 L 25,579 L 24,580 L 24,581 L 26,579 L 27,579 L 29,577 L 30,577 L 32,575 L 33,575 L 34,574 L 36,574 L 37,573 L 39,573 L 40,572 L 41,572 L 42,573 L 41,574 L 41,577 L 40,578 L 40,580 L 39,581 L 39,584 L 38,585 L 38,600 L 39,601 L 39,604 L 40,605 L 40,607 L 41,608 L 41,610 L 42,611 L 42,613 L 43,614 L 43,616 L 44,617 L 44,622 L 45,623 L 45,625 L 44,626 L 45,627 L 45,626 L 48,623 L 49,623 L 51,621 L 52,621 L 54,619 L 56,619 L 57,618 L 58,618 L 59,617 L 60,617 L 61,616 L 64,616 L 65,615 L 69,615 L 70,614 L 75,614 L 76,615 L 74,617 L 74,618 L 73,619 L 73,620 L 72,621 L 72,622 L 71,623 L 71,624 L 72,624 L 73,625 L 76,625 L 77,626 L 82,626 L 83,627 L 94,627 L 95,626 L 100,626 L 101,625 L 102,625 L 103,626 L 104,626 L 105,627 L 107,627 L 108,628 L 109,628 L 110,629 L 113,629 L 114,630 L 135,630 L 136,629 L 140,629 L 141,628 L 142,628 L 143,629 L 141,631 L 141,632 L 140,633 L 148,633 L 149,632 L 153,632 L 154,631 L 157,631 L 158,630 L 160,630 L 161,629 L 162,629 L 163,628 L 164,628 L 165,627 L 166,627 L 167,626 L 168,626 L 169,625 L 170,625 L 172,623 L 173,623 L 176,620 L 177,620 L 184,613 L 185,613 L 185,612 L 191,606 L 192,607 L 192,608 L 191,609 L 191,610 L 190,611 L 190,613 L 189,614 L 189,617 L 188,618 L 188,626 L 187,627 L 187,629 L 188,630 L 188,638 L 189,639 L 189,641 L 190,641 L 190,639 L 191,638 L 191,637 L 194,634 L 195,635 L 195,642 L 194,643 L 194,648 L 193,649 L 193,652 L 192,653 L 192,655 L 191,656 L 191,658 L 190,659 L 190,660 L 189,661 L 189,662 L 188,663 L 188,664 L 185,667 L 185,668 L 166,687 L 166,688 L 164,690 L 164,692 L 163,693 L 163,696 L 162,697 L 162,720 L 161,721 L 161,732 L 160,733 L 160,742 L 159,743 L 159,752 L 158,753 L 158,761 L 157,762 L 157,769 L 156,770 L 156,775 L 155,776 L 155,785 L 154,786 L 154,796 L 153,797 L 153,811 L 154,812 L 154,818 L 155,819 L 155,822 L 156,823 L 156,824 L 157,825 L 157,827 L 158,828 L 158,829 L 160,831 L 160,832 L 161,833 L 161,834 L 171,844 L 172,844 L 174,846 L 175,846 L 176,847 L 177,847 L 178,848 L 180,848 L 181,849 L 183,849 L 184,850 L 188,850 L 189,851 L 201,851 L 202,850 L 206,850 L 207,849 L 209,849 L 210,848 L 225,848 L 226,847 L 229,847 L 230,846 L 234,846 L 235,845 L 237,845 L 238,844 L 240,844 L 241,843 L 242,843 L 243,842 L 244,842 L 246,840 L 246,839 L 247,838 L 247,837 L 248,836 L 248,823 L 247,822 L 247,819 L 246,818 L 246,816 L 245,815 L 245,813 L 244,812 L 244,811 L 243,810 L 243,809 L 241,807 L 241,806 L 236,801 L 235,801 L 234,800 L 233,800 L 232,799 L 231,799 L 230,798 L 227,798 L 226,797 L 223,797 L 222,796 L 219,796 L 218,795 L 217,795 L 213,791 L 213,789 L 212,788 L 212,778 L 213,777 L 213,768 L 214,767 L 214,762 L 215,761 L 215,757 L 216,756 L 216,753 L 217,752 L 217,750 L 218,749 L 218,747 L 219,746 L 219,744 L 220,743 L 220,742 L 221,741 L 221,739 L 222,738 L 222,737 L 224,735 L 224,734 L 225,733 L 225,732 L 226,731 L 226,730 L 229,727 L 229,726 L 231,724 L 231,723 L 234,720 L 234,719 L 239,714 L 239,713 L 248,704 L 249,704 L 254,699 L 255,699 L 258,696 L 259,696 L 261,694 L 262,695 L 262,696 L 261,697 L 261,703 L 260,704 L 260,705 L 261,706 L 261,716 L 262,717 L 262,722 L 263,723 L 263,726 L 264,727 L 264,730 L 265,731 L 265,734 L 266,735 L 266,738 L 267,739 L 267,742 L 268,743 L 268,746 L 269,747 L 269,750 L 270,751 L 270,755 L 271,756 L 271,759 L 272,760 L 272,763 L 273,764 L 273,768 L 274,769 L 274,772 L 275,773 L 275,776 L 276,777 L 276,780 L 277,781 L 277,784 L 278,785 L 278,788 L 279,789 L 279,791 L 280,792 L 280,793 L 281,794 L 281,795 L 282,796 L 282,797 L 283,798 L 283,799 L 285,801 L 285,802 L 287,804 L 287,805 L 295,813 L 296,813 L 298,815 L 299,815 L 300,816 L 302,816 L 303,817 L 304,817 L 305,818 L 308,818 L 309,819 L 313,819 L 314,820 L 330,820 L 331,819 L 336,819 L 337,818 L 348,818 L 349,819 L 352,819 L 353,818 L 359,818 L 360,817 L 362,817 L 363,816 L 364,816 L 365,815 L 366,815 L 367,814 L 368,814 L 369,813 L 370,813 L 371,812 L 371,811 L 372,810 L 372,805 L 373,804 L 373,802 L 372,801 L 372,797 L 371,796 L 371,793 L 370,792 L 370,791 L 369,790 L 369,788 L 368,787 L 368,786 L 366,784 L 366,783 L 365,782 L 365,781 L 361,777 L 361,776 L 358,773 L 357,773 L 355,771 L 354,771 L 353,770 L 352,770 L 351,769 L 350,769 L 349,768 L 337,768 L 336,767 L 334,767 L 332,765 L 331,765 L 329,763 L 329,762 L 328,761 L 328,760 L 327,759 L 327,758 L 326,757 L 326,755 L 325,754 L 325,751 L 324,750 L 324,748 L 323,747 L 323,743 L 322,742 L 322,738 L 321,737 L 321,714 L 322,713 L 322,710 L 323,709 L 323,706 L 324,705 L 324,704 L 325,703 L 325,701 L 326,700 L 326,699 L 327,698 L 327,697 L 328,696 L 328,695 L 329,694 L 329,693 L 330,692 L 330,691 L 331,690 L 331,689 L 332,688 L 332,687 L 334,685 L 334,684 L 336,682 L 336,681 L 338,679 L 338,678 L 343,673 L 343,672 L 353,662 L 353,661 L 363,651 L 363,650 L 370,643 L 370,642 L 374,638 L 374,637 L 377,634 L 377,633 L 380,630 L 380,629 L 382,627 L 382,626 L 385,623 L 385,622 L 387,620 L 387,619 L 388,618 L 388,617 L 390,615 L 390,614 L 391,613 L 391,612 L 392,611 L 392,610 L 393,609 L 393,608 L 394,607 L 394,605 L 395,604 L 395,603 L 396,602 L 396,600 L 397,599 L 397,598 L 398,597 L 398,595 L 399,594 L 399,591 L 400,590 L 400,587 L 401,586 L 401,583 L 402,582 L 402,577 L 403,576 L 407,580 L 407,581 L 411,585 L 411,586 L 414,589 L 414,590 L 416,592 L 416,593 L 417,594 L 417,595 L 418,596 L 418,598 L 419,597 L 419,596 L 420,595 L 420,593 L 421,592 L 421,591 L 422,590 L 422,587 L 423,586 L 423,584 L 424,583 L 424,579 L 425,578 L 426,579 L 426,580 L 428,582 L 428,583 L 433,588 L 433,589 L 441,597 L 441,598 L 446,603 L 446,604 L 448,606 L 448,607 L 449,608 L 449,609 L 450,608 L 450,604 L 451,603 L 451,596 L 452,595 L 451,594 L 451,593 L 452,592 L 460,600 L 461,600 L 464,603 L 465,603 L 467,605 L 468,605 L 470,607 L 471,607 L 472,608 L 473,608 L 474,609 L 476,609 L 477,610 L 478,610 L 479,611 L 480,611 L 481,612 L 484,612 L 485,613 L 487,613 L 488,614 L 490,614 L 491,615 L 492,615 L 492,614 L 491,613 L 491,611 L 490,610 L 490,609 L 489,608 L 490,607 L 491,607 L 494,610 L 495,610 L 497,612 L 498,612 L 500,614 L 501,614 L 502,615 L 503,615 L 505,617 L 506,617 L 507,618 L 508,618 L 510,620 L 511,620 L 512,621 L 513,621 L 515,623 L 516,623 L 517,624 L 518,624 L 520,626 L 521,626 L 524,629 L 525,629 L 529,633 L 529,634 L 531,636 L 531,637 L 531,632 L 532,631 L 532,620 L 533,619 L 536,622 L 537,622 L 539,624 L 540,624 L 542,626 L 543,626 L 545,628 L 546,628 L 548,630 L 549,630 L 551,632 L 552,632 L 556,636 L 557,636 L 561,640 L 561,637 L 560,636 L 560,626 L 561,625 L 564,628 L 565,628 L 568,631 L 569,631 L 572,634 L 573,634 L 575,636 L 576,636 L 577,637 L 578,637 L 579,638 L 580,638 L 581,639 L 582,639 L 583,640 L 584,640 L 585,641 L 587,641 L 588,642 L 589,642 L 590,643 L 592,643 L 593,644 L 594,644 L 595,645 L 596,645 L 596,642 L 595,641 L 595,635 L 594,634 L 594,631 L 595,630 L 596,631 L 597,631 L 599,633 L 600,633 L 601,634 L 602,634 L 603,635 L 604,635 L 605,636 L 606,636 L 607,637 L 609,637 L 610,638 L 611,638 L 612,639 L 612,641 L 611,642 L 611,645 L 610,646 L 610,651 L 609,652 L 609,673 L 609,672 L 610,671 L 610,670 L 614,666 L 615,666 L 617,664 L 618,665 L 618,666 L 617,667 L 617,691 L 618,692 L 618,705 L 617,706 L 617,708 L 616,709 L 616,711 L 614,713 L 622,713 L 623,712 L 624,712 L 625,711 L 626,711 L 627,710 L 628,710 L 629,711 L 629,712 L 628,713 L 628,721 L 627,722 L 627,725 L 626,726 L 626,728 L 625,729 L 625,730 L 624,731 L 624,732 L 623,733 L 623,734 L 622,735 L 622,736 L 616,742 L 614,742 L 614,743 L 615,743 L 616,744 L 617,744 L 618,745 L 619,745 L 620,746 L 631,746 L 632,745 L 633,745 L 634,744 L 635,744 L 636,743 L 637,743 L 638,742 L 639,743 L 639,746 L 638,747 L 638,750 L 637,751 L 637,753 L 636,754 L 636,755 L 635,756 L 635,757 L 631,761 L 631,762 L 630,763 L 629,763 L 626,766 L 625,766 L 624,767 L 625,767 L 627,769 L 628,769 L 629,770 L 630,770 L 631,771 L 632,771 L 633,772 L 645,772 L 646,771 L 647,771 L 648,772 L 648,773 L 647,774 L 647,775 L 646,776 L 646,777 L 644,779 L 644,780 L 643,781 L 643,782 L 640,785 L 640,786 L 638,788 L 639,788 L 640,789 L 642,789 L 643,790 L 646,790 L 647,791 L 658,791 L 659,790 L 662,790 L 663,789 L 664,790 L 664,792 L 665,793 L 665,796 L 666,797 L 666,801 L 667,802 L 667,807 L 668,808 L 668,811 L 669,812 L 669,817 L 670,818 L 670,823 L 671,824 L 671,828 L 672,829 L 672,831 L 673,832 L 673,833 L 674,834 L 674,836 L 675,837 L 675,838 L 676,839 L 676,840 L 678,842 L 678,843 L 681,846 L 681,847 L 683,849 L 684,849 L 688,853 L 689,853 L 691,855 L 693,855 L 694,856 L 695,856 L 696,857 L 697,857 L 698,858 L 700,858 L 701,859 L 705,859 L 706,860 L 724,860 L 725,859 L 727,859 L 728,858 L 730,858 L 731,857 L 733,857 L 734,858 L 750,858 L 751,857 L 753,857 L 754,856 L 756,856 L 757,855 L 759,855 L 760,854 L 761,854 L 763,852 L 764,852 L 768,848 L 768,847 L 769,846 L 769,835 L 770,834 L 771,835 L 791,835 L 792,834 L 796,834 L 797,833 L 800,833 L 801,832 L 814,832 L 815,831 L 818,831 L 819,830 L 820,830 L 821,829 L 822,829 L 823,828 L 824,828 L 829,823 L 829,820 L 830,819 L 830,814 L 829,813 L 829,810 L 828,809 L 828,807 L 827,806 L 827,804 L 826,803 L 826,802 L 825,801 L 825,800 L 824,799 L 824,798 L 823,797 L 823,796 L 822,795 L 822,794 L 819,791 L 819,790 L 815,786 L 814,786 L 812,784 L 811,784 L 810,783 L 808,783 L 807,782 L 803,782 L 802,781 L 798,781 L 797,782 L 796,781 L 789,781 L 788,780 L 787,780 L 782,775 L 782,774 L 781,773 L 781,772 L 780,771 L 780,770 L 779,769 L 779,767 L 778,766 L 778,764 L 777,763 L 777,761 L 776,760 L 776,757 L 775,756 L 775,751 L 774,750 L 774,735 L 775,734 L 775,718 L 776,717 L 776,705 L 777,704 L 777,695 L 778,694 L 778,684 L 779,683 L 779,675 L 780,674 L 780,668 L 781,667 L 781,662 L 782,661 L 782,656 L 783,655 L 783,650 L 784,649 L 784,645 L 785,644 L 785,640 L 786,639 L 786,635 L 787,634 L 787,630 L 788,629 L 788,625 L 789,624 L 789,621 L 790,620 L 790,619 L 793,616 L 794,616 L 809,601 L 810,602 L 810,603 L 813,606 L 814,606 L 815,607 L 816,607 L 817,608 L 817,599 L 818,598 L 818,596 L 819,595 L 819,594 L 820,593 L 820,592 L 821,591 L 821,590 L 824,587 L 824,586 L 830,580 L 830,579 L 836,573 L 836,572 L 840,568 L 840,567 L 841,566 L 841,565 L 842,564 L 843,565 L 843,575 L 842,576 L 842,577 L 843,577 L 843,576 L 846,573 L 846,572 L 852,566 L 852,565 L 855,562 L 855,561 L 857,559 L 857,558 L 858,557 L 858,556 L 859,555 L 859,554 L 860,553 L 860,552 L 861,551 L 861,549 L 862,548 L 862,547 L 863,546 L 863,544 L 864,543 L 864,541 L 865,540 L 865,536 L 866,535 L 866,531 L 867,530 L 867,526 L 868,525 L 868,518 L 869,517 L 870,517 L 871,518 L 872,518 L 873,519 L 874,519 L 875,520 L 876,520 L 877,521 L 886,521 L 887,520 L 889,520 L 890,519 L 891,519 L 890,518 L 889,518 L 886,515 L 887,514 L 886,515 L 883,512 L 883,511 L 882,510 L 882,509 L 881,508 L 881,505 L 880,504 L 880,484 L 881,483 L 882,484 L 882,485 L 883,486 L 883,487 L 884,488 L 884,489 L 886,491 L 886,492 L 889,495 L 889,496 L 890,497 L 890,495 L 889,494 L 889,483 L 890,482 L 890,478 L 891,477 L 891,474 L 892,473 L 892,470 L 893,469 L 893,464 L 894,463 L 894,449 L 893,448 L 893,443 L 892,442 L 892,438 L 891,437 L 892,436 L 893,436 L 894,437 L 896,437 L 897,438 L 908,438 L 909,437 L 912,437 L 913,436 L 914,436 L 912,436 L 910,434 L 909,434 L 900,425 L 900,424 L 898,422 L 898,421 L 897,420 L 897,419 L 896,418 L 896,417 L 895,416 L 895,415 L 894,414 L 894,412 L 893,411 L 893,409 L 892,408 L 892,405 L 891,404 L 891,400 L 890,399 L 890,394 L 889,393 L 889,392 L 890,391 L 896,397 L 896,398 L 901,403 L 901,404 L 902,405 L 902,403 L 901,402 L 901,398 L 900,397 L 900,378 L 901,377 L 900,376 L 900,366 L 899,365 L 899,360 L 898,359 L 898,357 L 897,356 L 897,355 L 896,355 L 895,354 L 894,354 L 893,353 L 892,353 L 891,352 L 890,352 L 888,350 L 887,350 L 883,346 L 882,346 L 883,347 L 883,348 L 884,349 L 884,351 L 885,352 L 885,353 L 886,354 L 886,356 L 887,357 L 887,359 L 888,360 L 888,363 L 889,364 L 889,368 L 890,369 L 890,374 L 889,375 L 888,374 L 888,373 L 887,372 L 887,371 L 885,369 L 885,368 L 884,367 L 884,366 L 882,364 L 882,363 L 880,361 L 880,360 L 878,358 L 878,357 L 876,355 L 876,354 L 875,353 L 875,352 L 873,350 L 873,349 L 871,347 L 871,346 L 871,348 L 872,349 L 872,353 L 873,354 L 873,357 L 874,358 L 874,361 L 875,362 L 875,364 L 876,365 L 876,368 L 877,369 L 877,372 L 878,373 L 878,379 L 879,380 L 879,396 L 880,397 L 880,402 L 881,403 L 881,406 L 882,407 L 882,410 L 883,411 L 883,413 L 884,414 L 884,415 L 885,416 L 885,417 L 886,418 L 886,420 L 888,422 L 888,423 L 887,424 L 886,423 L 885,423 L 883,421 L 882,421 L 880,419 L 879,419 L 876,416 L 875,416 L 873,414 L 873,413 L 868,408 L 868,407 L 867,406 L 867,407 L 868,408 L 868,409 L 869,410 L 869,412 L 870,413 L 870,414 L 871,415 L 871,416 L 872,417 L 872,419 L 873,420 L 873,421 L 874,422 L 874,423 L 875,424 L 875,425 L 876,426 L 876,428 L 877,429 L 877,430 L 878,431 L 878,433 L 879,434 L 879,436 L 880,437 L 880,439 L 881,440 L 881,443 L 882,444 L 882,450 L 883,451 L 883,460 L 882,461 L 882,465 L 881,466 L 880,465 L 880,462 L 879,461 L 879,460 L 878,459 L 878,457 L 877,456 L 877,455 L 876,454 L 876,453 L 875,452 L 875,451 L 874,450 L 874,449 L 872,447 L 872,446 L 871,445 L 871,444 L 869,442 L 869,441 L 867,439 L 867,438 L 862,433 L 862,432 L 858,428 L 858,427 L 858,429 L 859,430 L 859,431 L 860,432 L 860,433 L 861,434 L 861,435 L 862,436 L 862,438 L 863,439 L 863,440 L 864,441 L 864,443 L 865,444 L 865,446 L 866,447 L 866,449 L 867,450 L 867,452 L 868,453 L 868,456 L 869,457 L 869,462 L 870,463 L 870,481 L 869,482 L 869,500 L 868,501 L 867,500 L 867,498 L 866,497 L 866,496 L 865,495 L 865,493 L 864,492 L 864,490 L 863,489 L 863,488 L 862,487 L 862,486 L 861,485 L 861,483 L 860,482 L 860,481 L 859,480 L 859,479 L 858,478 L 858,476 L 857,475 L 857,474 L 856,473 L 856,472 L 855,471 L 855,470 L 854,469 L 854,468 L 853,467 L 853,466 L 852,465 L 852,464 L 852,466 L 853,467 L 853,471 L 854,472 L 854,479 L 855,480 L 855,486 L 856,487 L 856,499 L 857,500 L 857,516 L 856,517 L 856,527 L 855,528 L 855,533 L 854,534 L 854,537 L 853,538 L 853,540 L 852,541 L 852,543 L 851,544 L 851,546 L 850,547 L 850,548 L 849,549 L 849,550 L 848,551 L 847,550 L 847,548 L 848,547 L 848,524 L 847,523 L 847,518 L 846,517 L 846,514 L 845,513 L 845,510 L 844,509 L 844,506 L 843,505 L 843,508 L 844,509 L 844,520 L 843,521 L 843,526 L 842,527 L 842,532 L 841,533 L 841,536 L 840,537 L 840,540 L 839,541 L 839,543 L 838,544 L 838,545 L 837,546 L 837,548 L 836,549 L 836,551 L 835,552 L 835,553 L 834,554 L 834,555 L 833,556 L 833,557 L 832,558 L 832,559 L 831,560 L 831,561 L 829,563 L 829,564 L 826,567 L 826,568 L 822,572 L 822,573 L 819,576 L 818,575 L 818,574 L 819,573 L 819,571 L 820,570 L 820,568 L 821,567 L 821,563 L 822,562 L 822,554 L 823,553 L 823,551 L 822,550 L 822,536 L 823,535 L 823,533 L 822,533 L 822,536 L 821,537 L 821,539 L 820,540 L 820,543 L 819,544 L 819,546 L 818,547 L 818,549 L 817,550 L 817,552 L 816,553 L 816,555 L 815,556 L 815,558 L 814,559 L 814,561 L 813,562 L 813,564 L 812,565 L 812,567 L 811,568 L 811,570 L 810,571 L 810,573 L 809,574 L 809,576 L 808,577 L 808,579 L 807,580 L 807,582 L 806,583 L 806,585 L 805,586 L 805,587 L 804,588 L 804,589 L 802,591 L 802,592 L 798,596 L 798,597 L 796,599 L 795,598 L 795,597 L 796,596 L 796,594 L 797,593 L 797,590 L 798,589 L 798,567 L 797,566 L 797,565 L 797,568 L 796,569 L 796,572 L 795,573 L 795,575 L 794,576 L 794,578 L 793,579 L 793,581 L 792,582 L 792,583 L 791,584 L 791,585 L 789,587 L 789,588 L 788,589 L 788,590 L 786,592 L 786,593 L 783,596 L 783,597 L 778,602 L 778,603 L 770,611 L 769,611 L 763,617 L 762,617 L 761,616 L 763,614 L 763,613 L 764,612 L 764,610 L 765,609 L 765,607 L 766,606 L 766,604 L 767,603 L 767,600 L 768,599 L 768,596 L 769,595 L 769,592 L 770,591 L 770,586 L 771,585 L 771,584 L 770,584 L 770,586 L 769,587 L 769,588 L 768,589 L 768,590 L 767,591 L 767,592 L 766,593 L 766,594 L 764,596 L 764,597 L 763,598 L 763,599 L 760,602 L 760,603 L 757,606 L 757,607 L 747,617 L 746,617 L 742,621 L 741,621 L 738,624 L 737,623 L 737,620 L 738,619 L 738,617 L 739,616 L 739,613 L 740,612 L 740,610 L 741,609 L 741,606 L 742,605 L 742,603 L 743,602 L 743,600 L 744,599 L 744,597 L 745,596 L 745,594 L 746,593 L 746,591 L 747,590 L 747,589 L 748,588 L 748,587 L 749,586 L 749,585 L 750,584 L 750,583 L 751,582 L 751,581 L 752,580 L 752,579 L 754,577 L 754,576 L 756,574 L 756,573 L 757,572 L 757,571 L 758,570 L 758,569 L 759,568 L 759,566 L 760,565 L 760,564 L 761,563 L 761,561 L 762,560 L 762,558 L 763,557 L 763,551 L 764,550 L 764,546 L 763,545 L 763,540 L 762,539 L 762,536 L 761,537 L 761,541 L 760,542 L 760,544 L 759,545 L 759,547 L 758,548 L 758,550 L 757,551 L 757,552 L 756,553 L 756,554 L 755,555 L 755,556 L 754,557 L 754,558 L 753,559 L 753,560 L 752,561 L 752,562 L 750,564 L 750,565 L 749,566 L 749,567 L 747,569 L 747,570 L 745,572 L 745,573 L 743,575 L 743,576 L 741,578 L 741,579 L 739,581 L 739,582 L 737,584 L 737,585 L 735,587 L 735,588 L 734,589 L 734,590 L 733,591 L 733,593 L 732,594 L 732,595 L 731,596 L 731,599 L 730,600 L 730,602 L 729,603 L 729,605 L 728,606 L 728,610 L 727,611 L 727,615 L 726,616 L 726,620 L 725,621 L 725,627 L 724,628 L 724,633 L 723,634 L 723,640 L 722,641 L 722,647 L 721,648 L 721,654 L 720,655 L 720,663 L 719,664 L 719,672 L 718,673 L 718,683 L 717,684 L 717,696 L 716,697 L 716,719 L 715,720 L 715,736 L 714,737 L 714,752 L 713,753 L 713,776 L 714,777 L 714,784 L 715,785 L 715,787 L 716,788 L 716,791 L 717,792 L 717,794 L 718,795 L 718,797 L 719,798 L 719,800 L 721,802 L 721,803 L 722,804 L 722,805 L 728,811 L 729,811 L 730,812 L 731,812 L 732,813 L 733,813 L 734,814 L 737,814 L 738,815 L 740,815 L 741,816 L 744,816 L 746,818 L 747,818 L 749,820 L 750,820 L 753,823 L 753,824 L 755,826 L 755,827 L 756,828 L 756,829 L 757,830 L 757,831 L 758,832 L 758,834 L 759,835 L 759,837 L 758,838 L 757,837 L 757,836 L 756,835 L 756,833 L 755,832 L 755,831 L 753,829 L 753,828 L 748,823 L 747,823 L 745,821 L 744,821 L 746,823 L 746,824 L 747,825 L 747,827 L 748,828 L 748,829 L 749,830 L 749,832 L 750,833 L 750,836 L 751,837 L 751,841 L 752,842 L 752,846 L 751,847 L 750,847 L 749,848 L 744,848 L 743,849 L 739,849 L 738,848 L 737,848 L 736,847 L 736,844 L 735,843 L 735,839 L 734,838 L 734,836 L 733,835 L 733,834 L 731,832 L 731,831 L 726,826 L 725,826 L 724,825 L 723,825 L 722,824 L 720,824 L 719,823 L 716,823 L 715,822 L 713,822 L 720,829 L 720,830 L 723,833 L 723,834 L 724,835 L 724,836 L 725,837 L 725,839 L 726,840 L 726,846 L 725,847 L 725,848 L 724,849 L 721,849 L 720,850 L 711,850 L 710,849 L 706,849 L 705,848 L 703,848 L 702,847 L 700,847 L 699,846 L 698,846 L 696,844 L 695,844 L 689,838 L 689,837 L 686,834 L 686,833 L 685,832 L 685,831 L 684,830 L 684,829 L 683,828 L 683,826 L 682,825 L 682,823 L 681,822 L 681,818 L 680,817 L 680,812 L 679,811 L 679,808 L 678,807 L 678,803 L 677,802 L 677,798 L 676,797 L 676,792 L 675,791 L 675,787 L 674,786 L 674,781 L 673,780 L 673,774 L 672,773 L 672,770 L 671,771 L 671,772 L 665,778 L 664,778 L 662,780 L 661,780 L 660,781 L 657,781 L 656,782 L 655,781 L 655,780 L 656,779 L 656,778 L 657,777 L 657,776 L 658,775 L 658,773 L 659,772 L 659,768 L 660,767 L 660,756 L 656,760 L 655,760 L 654,761 L 653,761 L 652,762 L 650,762 L 649,763 L 646,763 L 645,764 L 644,764 L 643,763 L 643,762 L 644,761 L 644,760 L 645,759 L 645,757 L 646,756 L 646,754 L 647,753 L 647,751 L 648,750 L 648,747 L 649,746 L 649,741 L 650,740 L 650,736 L 651,735 L 651,732 L 652,731 L 652,728 L 653,727 L 653,724 L 654,723 L 654,721 L 655,720 L 655,716 L 656,715 L 656,711 L 657,710 L 657,706 L 658,705 L 658,699 L 659,698 L 659,696 L 658,696 L 658,698 L 657,699 L 657,701 L 656,702 L 656,703 L 655,704 L 655,706 L 654,707 L 654,708 L 653,709 L 653,710 L 652,711 L 652,712 L 651,713 L 651,715 L 650,716 L 650,717 L 649,718 L 649,719 L 648,720 L 648,721 L 646,723 L 646,724 L 644,726 L 644,727 L 640,731 L 639,731 L 636,734 L 635,734 L 633,736 L 632,735 L 632,734 L 633,733 L 633,732 L 634,731 L 634,729 L 635,728 L 635,726 L 636,725 L 636,721 L 637,720 L 637,716 L 638,715 L 638,698 L 637,697 L 637,684 L 638,683 L 638,680 L 639,679 L 639,677 L 640,676 L 640,675 L 641,674 L 641,673 L 643,671 L 643,670 L 642,670 L 634,678 L 634,679 L 632,681 L 632,682 L 631,683 L 631,684 L 630,685 L 630,686 L 629,687 L 629,688 L 628,689 L 628,690 L 627,691 L 627,692 L 626,693 L 625,692 L 625,681 L 626,680 L 626,673 L 627,672 L 627,669 L 628,668 L 628,665 L 629,664 L 629,663 L 630,662 L 630,660 L 631,659 L 631,657 L 632,656 L 632,655 L 633,654 L 633,653 L 634,652 L 634,651 L 635,650 L 635,649 L 637,647 L 637,646 L 639,644 L 639,643 L 641,641 L 641,640 L 644,637 L 644,636 L 650,630 L 650,629 L 652,627 L 652,626 L 653,625 L 652,625 L 651,626 L 649,626 L 648,627 L 647,627 L 646,628 L 644,628 L 643,629 L 642,629 L 640,631 L 639,631 L 638,632 L 637,632 L 628,641 L 628,642 L 626,644 L 626,645 L 624,647 L 624,648 L 622,650 L 622,651 L 621,652 L 620,651 L 620,649 L 621,648 L 621,644 L 622,643 L 622,640 L 623,639 L 623,637 L 624,636 L 624,634 L 625,633 L 625,631 L 626,630 L 626,629 L 627,628 L 627,627 L 628,626 L 628,625 L 629,624 L 629,623 L 630,622 L 630,621 L 631,620 L 631,619 L 633,617 L 633,616 L 640,609 L 639,610 L 638,610 L 637,611 L 636,611 L 635,612 L 634,612 L 633,613 L 632,613 L 630,615 L 629,615 L 626,618 L 625,618 L 620,623 L 619,622 L 619,621 L 620,620 L 620,617 L 621,616 L 621,614 L 622,613 L 622,612 L 624,610 L 624,609 L 626,607 L 626,606 L 632,600 L 633,600 L 636,597 L 637,597 L 639,595 L 640,595 L 643,592 L 644,592 L 647,589 L 648,589 L 648,588 L 647,589 L 646,589 L 645,590 L 642,590 L 641,591 L 639,591 L 638,592 L 634,592 L 633,593 L 632,593 L 631,592 L 630,592 L 629,591 L 632,588 L 633,588 L 633,587 L 634,586 L 635,586 L 638,583 L 638,582 L 641,579 L 641,578 L 644,575 L 644,574 L 645,573 L 645,572 L 646,571 L 646,570 L 647,569 L 647,568 L 648,567 L 648,565 L 649,564 L 649,562 L 650,561 L 650,558 L 651,557 L 651,554 L 652,553 L 652,551 L 653,550 L 653,548 L 654,547 L 654,546 L 655,545 L 655,543 L 656,542 L 656,539 L 657,538 L 657,537 L 658,536 L 658,534 L 657,535 L 657,536 L 649,544 L 648,544 L 646,546 L 645,546 L 643,548 L 642,548 L 641,549 L 640,549 L 639,550 L 638,550 L 637,551 L 636,551 L 635,552 L 633,552 L 632,553 L 628,553 L 627,554 L 622,554 L 621,553 L 619,553 L 618,552 L 618,553 L 619,553 L 622,556 L 623,556 L 624,557 L 625,557 L 626,558 L 628,558 L 629,559 L 634,559 L 635,558 L 637,558 L 638,557 L 639,558 L 639,559 L 638,560 L 638,562 L 637,563 L 637,564 L 636,565 L 636,567 L 635,568 L 635,569 L 633,571 L 633,572 L 631,574 L 631,575 L 624,582 L 623,582 L 620,585 L 619,585 L 617,587 L 616,587 L 614,589 L 613,589 L 612,590 L 611,590 L 610,591 L 609,591 L 611,593 L 612,593 L 613,594 L 614,594 L 615,595 L 616,595 L 617,596 L 619,596 L 620,597 L 619,598 L 619,599 L 616,602 L 616,603 L 615,604 L 615,605 L 614,606 L 614,607 L 613,608 L 613,609 L 612,610 L 612,612 L 611,613 L 611,615 L 610,616 L 610,619 L 609,620 L 609,623 L 608,624 L 608,625 L 607,626 L 605,624 L 604,624 L 601,621 L 600,621 L 595,616 L 594,616 L 587,609 L 587,608 L 584,605 L 584,604 L 582,602 L 582,601 L 580,599 L 580,598 L 579,597 L 579,596 L 578,595 L 578,594 L 578,600 L 577,601 L 577,604 L 578,605 L 577,606 L 578,607 L 578,612 L 579,613 L 579,617 L 580,618 L 580,621 L 581,622 L 581,624 L 582,625 L 582,626 L 581,627 L 578,624 L 577,624 L 575,622 L 574,622 L 570,618 L 569,618 L 565,614 L 564,614 L 557,607 L 556,607 L 548,599 L 548,598 L 541,591 L 541,590 L 538,587 L 538,586 L 537,585 L 537,587 L 538,588 L 538,589 L 539,590 L 539,592 L 540,593 L 540,595 L 541,596 L 541,597 L 542,598 L 542,600 L 543,601 L 543,603 L 544,604 L 544,605 L 545,606 L 545,608 L 546,609 L 546,611 L 547,612 L 547,613 L 548,614 L 548,615 L 547,616 L 546,615 L 545,615 L 543,613 L 542,613 L 540,611 L 539,611 L 538,610 L 537,610 L 534,607 L 533,607 L 529,603 L 528,603 L 525,600 L 525,599 L 522,596 L 522,595 L 520,593 L 520,592 L 519,591 L 519,590 L 518,589 L 518,588 L 516,586 L 516,585 L 515,584 L 515,583 L 514,582 L 514,580 L 512,578 L 512,576 L 511,575 L 511,574 L 511,591 L 512,592 L 512,595 L 513,596 L 513,599 L 514,600 L 514,602 L 515,603 L 515,604 L 516,605 L 516,607 L 517,608 L 517,609 L 516,610 L 515,610 L 514,609 L 513,609 L 512,608 L 511,608 L 509,606 L 508,606 L 507,605 L 506,605 L 504,603 L 503,603 L 501,601 L 500,601 L 497,598 L 496,598 L 492,594 L 491,594 L 486,589 L 486,588 L 482,584 L 482,583 L 479,580 L 479,579 L 477,577 L 477,576 L 475,574 L 475,573 L 473,571 L 473,570 L 472,569 L 472,568 L 471,567 L 471,566 L 469,564 L 469,563 L 468,562 L 468,561 L 467,560 L 467,559 L 466,558 L 466,557 L 466,564 L 467,565 L 467,572 L 468,573 L 468,576 L 469,577 L 469,580 L 470,581 L 470,583 L 471,584 L 471,586 L 472,587 L 472,588 L 473,589 L 473,591 L 474,592 L 474,593 L 475,594 L 475,595 L 474,596 L 473,595 L 472,595 L 470,593 L 469,593 L 466,590 L 465,590 L 454,579 L 454,578 L 451,575 L 451,574 L 448,571 L 448,570 L 446,568 L 446,567 L 444,565 L 444,564 L 442,562 L 442,561 L 441,560 L 441,559 L 439,557 L 439,556 L 438,555 L 438,554 L 438,557 L 439,558 L 439,560 L 440,561 L 440,565 L 441,566 L 441,570 L 442,571 L 442,576 L 443,577 L 443,582 L 442,583 L 436,577 L 436,576 L 433,573 L 433,572 L 430,569 L 430,568 L 428,566 L 428,565 L 426,563 L 426,562 L 424,560 L 424,559 L 423,558 L 423,557 L 421,555 L 421,554 L 420,553 L 420,552 L 419,551 L 419,550 L 418,549 L 418,548 L 416,546 L 416,545 L 415,544 L 415,543 L 414,542 L 414,541 L 413,540 L 413,539 L 412,538 L 412,539 L 413,540 L 413,544 L 414,545 L 414,550 L 415,551 L 415,558 L 416,559 L 416,572 L 415,573 L 414,572 L 414,571 L 413,570 L 413,569 L 411,567 L 411,566 L 410,565 L 410,564 L 409,563 L 409,562 L 408,561 L 408,560 L 407,559 L 407,558 L 406,557 L 406,556 L 405,555 L 405,553 L 404,552 L 404,551 L 403,550 L 403,549 L 402,548 L 402,547 L 401,546 L 401,544 L 400,543 L 400,542 L 399,541 L 399,539 L 398,538 L 398,536 L 397,535 L 397,534 L 396,533 L 396,531 L 395,530 L 395,529 L 394,528 L 394,526 L 393,525 L 393,523 L 392,522 L 392,521 L 391,520 L 391,517 L 390,516 L 390,520 L 391,521 L 391,528 L 392,529 L 392,541 L 393,542 L 393,555 L 392,556 L 392,562 L 391,563 L 391,567 L 390,568 L 390,570 L 389,571 L 389,573 L 388,574 L 388,575 L 387,576 L 387,578 L 385,580 L 385,581 L 384,582 L 384,583 L 383,584 L 382,583 L 382,580 L 383,579 L 383,555 L 382,554 L 382,549 L 381,548 L 381,544 L 380,543 L 380,540 L 379,540 L 379,557 L 378,558 L 378,564 L 377,565 L 377,568 L 376,569 L 376,573 L 375,574 L 375,576 L 374,577 L 374,579 L 373,580 L 373,582 L 372,583 L 372,585 L 371,586 L 371,587 L 370,588 L 370,590 L 369,591 L 369,592 L 368,593 L 368,595 L 367,596 L 367,597 L 366,598 L 366,599 L 365,600 L 365,601 L 364,602 L 364,604 L 363,605 L 363,606 L 362,607 L 362,608 L 361,609 L 361,610 L 360,611 L 360,612 L 359,613 L 359,614 L 357,616 L 356,615 L 356,611 L 357,610 L 357,594 L 357,597 L 356,598 L 356,600 L 355,601 L 355,602 L 354,603 L 354,604 L 353,605 L 353,606 L 352,607 L 352,608 L 351,609 L 351,610 L 350,611 L 350,612 L 349,613 L 349,614 L 348,615 L 348,616 L 347,617 L 347,618 L 345,620 L 345,621 L 344,622 L 344,623 L 343,624 L 343,625 L 341,627 L 341,628 L 338,631 L 338,632 L 335,635 L 335,636 L 330,641 L 330,642 L 326,646 L 325,645 L 325,644 L 326,643 L 326,640 L 327,639 L 327,636 L 328,635 L 328,629 L 329,628 L 329,624 L 330,623 L 329,623 L 328,624 L 328,625 L 327,626 L 327,627 L 325,629 L 325,630 L 324,631 L 324,632 L 321,635 L 321,636 L 317,640 L 317,641 L 310,648 L 309,648 L 304,653 L 303,653 L 300,656 L 299,656 L 296,659 L 295,659 L 292,662 L 291,662 L 289,664 L 288,664 L 286,666 L 285,666 L 283,668 L 282,668 L 280,670 L 279,670 L 277,672 L 276,672 L 274,674 L 273,674 L 272,675 L 271,675 L 269,677 L 268,677 L 267,678 L 266,678 L 264,680 L 263,680 L 262,681 L 261,681 L 259,683 L 258,683 L 256,685 L 255,685 L 253,687 L 252,687 L 250,689 L 249,689 L 245,693 L 244,693 L 230,707 L 230,708 L 225,713 L 225,714 L 222,717 L 222,718 L 220,720 L 220,721 L 218,723 L 218,724 L 216,726 L 216,727 L 214,729 L 214,730 L 213,731 L 213,732 L 212,733 L 212,734 L 211,735 L 211,737 L 210,738 L 210,739 L 209,740 L 209,742 L 208,743 L 208,745 L 207,746 L 207,749 L 206,750 L 206,753 L 205,754 L 205,757 L 204,758 L 204,762 L 203,763 L 203,769 L 202,770 L 202,794 L 203,795 L 203,797 L 204,798 L 204,799 L 208,803 L 209,803 L 210,804 L 211,804 L 212,805 L 214,805 L 215,806 L 218,806 L 219,807 L 223,807 L 224,808 L 226,808 L 227,809 L 228,809 L 234,815 L 234,816 L 235,817 L 235,818 L 236,819 L 236,820 L 237,821 L 237,823 L 238,824 L 238,828 L 239,829 L 239,831 L 238,832 L 237,831 L 237,830 L 236,829 L 236,827 L 235,826 L 235,825 L 234,824 L 234,823 L 233,822 L 233,821 L 225,813 L 224,813 L 223,812 L 223,813 L 225,815 L 225,816 L 226,817 L 226,818 L 227,819 L 227,821 L 228,822 L 228,824 L 229,825 L 229,827 L 230,828 L 230,832 L 231,833 L 231,835 L 229,837 L 227,837 L 226,838 L 216,838 L 215,837 L 215,834 L 214,833 L 214,829 L 213,828 L 213,826 L 212,825 L 212,824 L 211,823 L 211,822 L 208,819 L 208,818 L 207,818 L 204,815 L 203,815 L 202,814 L 201,814 L 200,813 L 199,813 L 198,812 L 195,812 L 194,811 L 194,812 L 198,816 L 198,817 L 200,819 L 200,820 L 201,821 L 201,822 L 202,823 L 202,824 L 203,825 L 203,827 L 204,828 L 204,831 L 205,832 L 205,838 L 203,840 L 200,840 L 199,841 L 195,841 L 194,840 L 189,840 L 188,839 L 186,839 L 185,838 L 183,838 L 182,837 L 181,837 L 179,835 L 178,835 L 172,829 L 172,828 L 170,826 L 170,825 L 168,823 L 168,822 L 167,821 L 167,819 L 166,818 L 166,816 L 165,815 L 165,810 L 164,809 L 164,794 L 165,793 L 165,783 L 166,782 L 166,774 L 167,773 L 167,765 L 168,764 L 168,756 L 169,755 L 169,748 L 170,747 L 170,739 L 171,738 L 171,729 L 172,728 L 172,719 L 173,718 L 173,698 L 174,697 L 174,696 L 175,695 L 175,694 L 177,692 L 177,691 L 184,684 L 185,684 L 193,676 L 193,675 L 196,672 L 196,671 L 197,670 L 197,669 L 198,668 L 198,667 L 199,666 L 199,665 L 200,664 L 200,662 L 201,661 L 201,659 L 202,658 L 202,656 L 203,655 L 203,652 L 204,651 L 204,647 L 205,646 L 205,642 L 206,641 L 206,636 L 207,635 L 207,630 L 208,629 L 208,626 L 217,617 L 218,617 L 225,610 L 226,610 L 230,606 L 230,605 L 234,601 L 234,600 L 236,598 L 236,597 L 237,596 L 237,595 L 238,594 L 238,592 L 239,591 L 239,589 L 240,588 L 240,584 L 241,583 L 240,583 L 240,584 L 238,586 L 238,587 L 237,588 L 236,588 L 235,589 L 235,590 L 233,592 L 232,592 L 226,598 L 225,598 L 221,602 L 220,602 L 216,606 L 215,606 L 211,610 L 210,610 L 207,613 L 206,613 L 202,617 L 201,617 L 200,618 L 199,617 L 199,615 L 200,614 L 200,612 L 201,611 L 201,610 L 202,609 L 202,608 L 203,607 L 203,606 L 204,605 L 204,604 L 205,603 L 205,602 L 207,600 L 207,599 L 211,595 L 211,594 L 224,581 L 224,580 L 227,577 L 227,576 L 229,574 L 229,573 L 230,572 L 230,571 L 231,570 L 231,569 L 233,567 L 233,565 L 234,564 L 234,563 L 235,562 L 233,564 L 233,565 L 227,571 L 226,571 L 221,576 L 220,576 L 217,579 L 216,579 L 214,581 L 213,581 L 211,583 L 210,583 L 209,584 L 208,584 L 207,585 L 206,585 L 205,586 L 204,586 L 203,587 L 202,587 L 201,588 L 199,588 L 198,589 L 197,589 L 196,588 L 197,587 L 197,586 L 201,582 L 201,581 L 203,579 L 203,578 L 205,576 L 205,575 L 206,574 L 206,573 L 207,572 L 207,571 L 208,570 L 208,569 L 209,568 L 209,567 L 210,566 L 210,565 L 211,564 L 211,563 L 212,562 L 212,561 L 214,559 L 214,558 L 215,557 L 215,556 L 217,554 L 217,553 L 218,552 L 218,551 L 220,549 L 220,548 L 221,547 L 221,546 L 222,545 L 222,543 L 223,542 L 223,540 L 224,539 L 224,537 L 225,536 L 225,527 L 226,526 L 226,522 L 225,522 L 225,525 L 224,526 L 224,528 L 223,529 L 223,530 L 222,531 L 222,532 L 221,533 L 221,534 L 219,536 L 219,537 L 216,540 L 216,541 L 208,549 L 207,548 L 207,547 L 208,546 L 208,540 L 209,539 L 209,535 L 210,534 L 210,531 L 211,530 L 211,528 L 212,527 L 212,524 L 213,523 L 213,520 L 214,519 L 214,516 L 215,515 L 215,505 L 216,504 L 216,497 L 217,496 L 217,494 L 218,493 L 218,491 L 219,490 L 219,489 L 215,493 L 215,494 L 213,496 L 213,497 L 212,498 L 212,499 L 211,500 L 211,501 L 210,502 L 210,504 L 209,505 L 208,504 L 208,491 L 209,490 L 209,486 L 210,485 L 210,482 L 211,481 L 211,479 L 212,478 L 212,476 L 213,475 L 213,474 L 214,473 L 214,472 L 215,471 L 215,470 L 216,469 L 216,468 L 217,467 L 217,466 L 218,465 L 218,454 L 219,453 L 219,452 L 220,451 L 220,449 L 221,448 L 221,446 L 222,445 L 222,444 L 223,443 L 223,442 L 224,441 L 224,440 L 225,439 L 225,437 L 226,436 L 226,435 L 227,434 L 227,433 L 228,432 L 228,430 L 229,429 L 229,428 L 230,427 L 229,427 L 226,430 L 225,430 L 215,440 L 215,441 L 213,443 L 213,444 L 212,445 L 212,446 L 211,447 L 211,448 L 210,449 L 210,450 L 209,451 L 209,453 L 208,454 L 208,460 L 207,461 L 207,463 L 206,464 L 206,466 L 205,467 L 205,468 L 204,469 L 204,470 L 203,471 L 203,472 L 202,473 L 202,475 L 201,476 L 201,477 L 200,478 L 200,481 L 199,482 L 199,485 L 198,486 L 198,525 L 200,523 L 201,524 L 201,526 L 200,527 L 200,529 L 199,530 L 199,534 L 198,535 L 198,540 L 197,541 L 197,552 L 196,553 L 196,557 L 195,558 L 195,561 L 194,562 L 194,564 L 193,565 L 193,566 L 192,567 L 192,568 L 191,569 L 191,570 L 195,570 L 196,569 L 197,570 L 197,571 L 194,574 L 194,575 L 190,579 L 190,580 L 187,583 L 186,583 L 181,588 L 180,588 L 178,590 L 177,590 L 175,592 L 173,592 L 172,593 L 174,593 L 175,594 L 176,594 L 177,595 L 178,595 L 179,596 L 180,596 L 182,598 L 182,599 L 177,604 L 177,605 L 175,607 L 174,607 L 169,612 L 168,612 L 166,614 L 165,614 L 163,616 L 162,616 L 160,618 L 159,618 L 158,617 L 159,616 L 159,615 L 160,614 L 160,613 L 161,612 L 161,611 L 162,610 L 162,609 L 163,608 L 163,607 L 164,606 L 164,605 L 165,604 L 165,603 L 160,608 L 159,608 L 157,610 L 156,610 L 154,612 L 153,612 L 151,614 L 150,614 L 149,615 L 147,615 L 146,616 L 145,616 L 144,617 L 141,617 L 140,618 L 135,618 L 134,619 L 124,619 L 123,618 L 124,617 L 125,617 L 126,616 L 127,616 L 129,614 L 130,614 L 139,605 L 139,604 L 141,602 L 141,601 L 143,599 L 143,598 L 144,597 L 144,596 L 145,595 L 145,594 L 146,593 L 146,592 L 147,591 L 147,590 L 148,589 L 148,588 L 149,587 L 149,585 L 150,584 L 150,582 L 151,581 L 151,578 L 152,577 L 152,573 L 153,572 L 153,564 L 154,563 L 154,560 L 153,560 L 153,564 L 152,565 L 152,567 L 151,568 L 151,570 L 150,571 L 150,572 L 149,573 L 149,574 L 148,575 L 148,576 L 147,577 L 147,578 L 146,579 L 146,580 L 144,582 L 144,583 L 141,586 L 141,587 L 137,591 L 137,592 L 124,605 L 123,605 L 121,607 L 120,607 L 119,608 L 118,608 L 117,609 L 116,609 L 115,610 L 114,610 L 113,611 L 111,611 L 110,612 L 108,612 L 107,613 L 104,613 L 103,614 L 99,614 L 98,615 L 94,615 L 93,614 L 94,613 L 96,613 L 98,611 L 99,611 L 101,609 L 102,609 L 106,605 L 107,605 L 111,601 L 111,600 L 115,596 L 115,595 L 117,593 L 117,592 L 115,594 L 114,594 L 113,595 L 112,595 L 111,596 L 109,596 L 108,597 L 107,597 L 106,598 L 104,598 L 103,599 L 101,599 L 100,600 L 97,600 L 96,601 L 92,601 L 91,602 L 85,602 L 84,603 L 69,603 L 68,604 L 63,604 L 62,605 L 60,605 L 59,606 L 58,606 L 57,607 L 56,607 L 55,606 L 57,604 L 57,602 L 58,601 L 58,600 L 59,599 L 59,598 L 60,597 L 60,596 L 61,595 L 61,594 L 63,592 L 63,591 L 65,589 L 65,588 L 68,585 L 68,584 L 76,576 L 76,575 L 78,573 L 74,573 L 73,574 L 69,574 L 68,575 L 67,575 L 66,576 L 65,576 L 64,577 L 63,577 L 62,578 L 61,578 L 56,583 L 55,583 L 55,584 L 52,587 L 52,588 L 51,589 L 51,590 L 50,591 L 50,592 L 49,593 L 48,592 L 48,590 L 49,589 L 49,585 L 50,584 L 50,583 L 51,582 L 51,580 L 52,579 L 52,578 L 53,577 L 53,576 L 54,575 L 54,574 L 56,572 L 56,571 L 59,568 L 59,567 L 65,561 L 66,561 L 69,558 L 70,558 L 71,557 L 72,557 L 73,556 L 60,556 L 59,557 L 55,557 L 54,558 L 51,558 L 50,559 L 48,559 L 47,560 L 45,560 L 44,561 L 42,561 L 41,560 L 42,559 L 42,558 L 44,556 L 44,555 L 55,544 L 56,544 L 58,542 L 59,542 L 61,540 L 62,540 L 63,539 L 64,539 L 65,538 L 66,538 L 67,537 L 68,537 L 69,536 L 71,536 L 72,535 L 73,535 L 74,534 L 75,534 L 76,533 L 77,533 L 79,531 L 78,532 L 72,532 L 71,531 L 67,531 L 66,530 L 65,530 L 63,528 L 62,528 L 59,525 L 59,524 L 60,523 L 64,523 L 65,524 L 78,524 L 79,523 L 84,523 L 85,522 L 88,522 L 89,521 L 92,521 L 93,520 L 95,520 L 96,519 L 97,519 L 98,518 L 99,518 L 100,517 L 102,517 L 103,516 L 104,516 L 105,515 L 106,515 L 107,514 L 108,514 L 109,513 L 110,513 L 112,511 L 113,511 L 115,509 L 116,509 L 118,507 L 119,507 L 123,503 L 124,503 L 143,484 L 143,483 L 148,478 L 148,477 L 151,474 L 151,473 L 154,470 L 154,469 L 156,467 L 156,466 L 159,463 L 159,462 L 161,460 L 161,459 L 163,457 L 163,456 L 165,454 L 165,453 L 167,451 L 167,450 L 168,449 L 168,448 L 170,446 L 170,445 L 172,443 L 172,442 L 173,441 L 173,440 L 174,439 L 174,438 L 176,436 L 176,435 L 177,434 L 177,433 L 179,431 L 179,430 L 180,429 L 180,428 L 182,426 L 182,425 L 184,423 L 184,422 L 186,420 L 186,419 L 190,415 L 190,414 L 195,409 L 195,408 L 210,393 L 211,393 L 215,389 L 216,389 L 219,386 L 220,386 L 222,384 L 223,384 L 225,382 L 226,382 L 228,380 L 229,380 L 230,379 L 231,379 L 232,378 L 233,378 L 234,377 L 235,377 L 236,376 L 237,376 L 238,375 L 239,375 L 240,374 L 242,374 L 243,373 L 245,373 L 246,372 L 247,372 L 248,371 L 250,371 L 251,370 L 252,370 L 253,369 L 255,369 L 256,370 L 252,374 L 252,375 L 248,379 L 248,380 L 247,381 L 247,382 L 245,384 L 245,385 L 244,386 L 244,388 L 243,389 L 243,390 L 242,391 L 242,393 L 241,394 L 241,397 L 240,398 L 240,403 L 239,404 L 239,406 L 240,405 L 240,403 L 242,401 L 242,400 L 243,399 L 243,398 L 246,395 L 246,394 L 249,391 L 249,390 L 259,380 L 260,380 L 265,375 L 266,375 L 269,372 L 270,372 L 272,370 L 273,370 L 275,368 L 276,368 L 278,366 L 279,366 L 280,365 L 281,365 L 283,363 L 284,363 L 285,362 L 286,362 L 287,361 L 288,361 L 289,360 L 290,360 L 291,359 L 292,359 L 293,358 L 294,358 L 295,357 L 297,357 L 298,356 L 299,356 L 300,355 L 302,355 L 303,354 L 304,354 L 305,353 L 307,353 L 308,352 L 310,352 L 311,351 L 314,351 L 315,350 L 317,350 L 318,349 L 321,349 L 322,348 L 325,348 L 326,347 L 330,347 L 331,346 L 335,346 L 336,345 L 341,345 L 342,344 L 350,344 L 351,343 L 359,343 L 360,342 L 373,342 L 374,341 L 419,341 L 420,342 L 434,342 L 435,343 L 446,343 L 447,344 L 460,344 L 461,345 L 471,345 L 472,346 L 483,346 L 484,347 L 503,347 L 504,348 L 528,348 L 529,347 L 547,347 L 548,346 L 558,346 L 559,345 L 566,345 L 567,344 L 572,344 L 573,345 L 568,350 L 567,350 L 565,352 L 564,352 L 562,354 L 561,354 L 559,356 L 558,356 L 557,357 L 556,357 L 555,358 L 553,358 L 553,359 L 554,359 L 555,358 L 559,358 L 560,357 L 563,357 L 564,356 L 567,356 L 568,355 L 569,355 L 570,354 L 572,354 L 573,353 L 574,353 L 575,352 L 576,352 L 577,351 L 578,351 L 579,350 L 580,350 L 582,348 L 583,348 L 584,347 L 585,347 L 586,346 L 587,346 L 589,344 L 590,344 L 591,343 L 592,343 L 593,342 L 594,342 L 595,341 L 596,341 L 597,340 L 599,340 L 600,339 L 601,339 L 602,338 L 603,338 L 604,337 L 606,337 L 607,336 L 608,336 L 609,335 L 611,335 L 612,336 L 611,337 L 611,338 L 609,340 L 609,341 L 608,342 L 608,343 L 607,344 L 607,346 L 606,347 L 606,349 L 605,350 L 605,353 L 604,354 L 604,370 L 605,370 L 605,365 L 606,364 L 606,362 L 607,361 L 607,359 L 608,358 L 608,356 L 609,355 L 609,354 L 610,353 L 610,352 L 611,351 L 611,350 L 612,349 L 612,348 L 614,346 L 614,345 L 617,342 L 617,341 L 625,333 L 626,333 L 629,330 L 630,330 L 632,328 L 633,328 L 635,326 L 636,326 L 637,325 L 638,325 L 639,324 L 640,324 L 641,323 L 642,323 L 643,322 L 644,322 L 645,321 L 646,321 L 647,320 L 649,320 L 650,319 L 652,319 L 653,318 L 655,318 L 656,317 L 658,317 L 659,316 L 660,316 L 661,315 L 662,315 L 663,314 L 664,314 L 665,313 L 666,313 L 667,312 L 668,312 L 669,311 L 670,311 L 672,309 L 673,309 L 674,308 L 675,308 L 677,306 L 678,306 L 682,302 L 683,302 L 694,291 L 694,290 L 698,286 L 698,285 L 701,282 L 701,281 L 703,279 L 703,278 L 704,277 L 704,276 L 706,274 L 706,273 L 707,272 L 707,271 L 708,270 L 708,269 L 709,268 L 709,267 L 711,265 L 711,263 L 713,261 L 713,259 L 714,258 L 714,257 L 715,256 L 715,255 L 716,254 L 716,253 L 717,252 L 717,251 L 718,250 L 718,248 L 719,247 L 719,246 L 720,245 L 720,244 L 721,243 L 723,245 L 723,246 L 733,256 L 734,256 L 737,259 L 738,259 L 739,260 L 740,260 L 742,262 L 744,262 L 746,264 L 747,264 L 748,265 L 749,265 L 750,266 L 751,266 L 753,268 L 754,268 L 755,269 L 755,270 L 757,272 L 757,273 L 758,274 L 758,275 L 759,276 L 759,278 L 760,279 L 760,280 L 761,281 L 761,283 L 762,284 L 762,285 L 763,286 L 763,288 L 764,289 L 764,290 L 765,291 L 765,292 L 766,293 L 766,295 L 767,296 L 767,297 L 767,292 L 766,291 L 766,287 L 767,286 L 767,282 L 768,281 L 774,287 L 775,287 L 778,290 L 779,290 L 780,291 L 781,291 L 783,293 L 784,293 L 788,297 L 789,297 L 790,298 L 790,299 L 794,303 L 794,304 L 796,306 L 796,307 L 798,309 L 798,310 L 799,311 L 799,312 L 803,316 L 803,317 L 804,317 L 805,318 L 805,319 L 807,321 L 807,320 L 806,319 L 806,317 L 805,316 L 805,315 L 804,314 L 804,312 L 803,311 L 803,310 L 802,309 L 802,306 L 801,305 L 801,299 L 800,298 L 800,297 L 801,296 L 806,296 L 807,295 L 810,295 L 811,294 L 813,294 L 814,293 L 815,293 L 816,292 L 817,292 L 819,290 L 820,290 L 823,287 L 823,286 L 825,284 L 825,283 L 827,281 L 827,279 L 828,278 L 828,276 L 829,275 L 829,272 L 830,271 L 830,270 L 832,268 L 832,267 L 834,265 L 834,264 L 835,263 L 835,262 L 836,261 L 836,260 L 837,259 L 837,248 L 836,247 L 836,245 L 835,244 L 835,243 L 834,242 L 834,252 L 833,253 L 833,255 L 831,257 L 830,256 L 830,248 L 829,247 L 829,234 L 828,233 L 828,228 L 827,227 L 827,224 L 826,223 L 826,220 L 825,219 L 825,216 L 824,215 L 824,213 L 823,212 L 823,209 L 822,208 L 822,206 L 821,205 L 821,201 L 820,200 L 820,196 L 819,195 L 819,191 L 818,190 L 818,184 L 817,183 L 817,177 L 816,176 L 816,163 L 817,162 L 817,158 L 818,157 L 818,156 L 815,159 L 814,159 L 811,162 L 810,162 L 809,163 L 808,163 L 807,164 L 805,164 L 804,163 L 796,163 L 795,162 L 794,162 L 794,163 L 795,163 L 800,168 L 801,168 L 803,170 L 803,171 L 805,173 L 805,174 L 806,175 L 806,176 L 807,177 L 807,180 L 808,181 L 808,192 L 809,193 L 809,198 L 808,199 L 807,198 L 807,196 L 806,195 L 806,193 L 805,192 L 805,187 L 805,188 L 804,189 L 804,192 L 803,193 L 803,205 L 804,206 L 804,210 L 805,211 L 805,213 L 806,214 L 806,215 L 807,216 L 807,218 L 808,219 L 808,220 L 809,221 L 809,222 L 810,223 L 810,225 L 811,226 L 811,227 L 812,228 L 812,229 L 813,230 L 813,231 L 814,232 L 814,234 L 815,235 L 815,237 L 816,238 L 816,242 L 817,243 L 817,248 L 818,249 L 818,265 L 817,266 L 817,269 L 816,270 L 816,273 L 815,274 L 815,275 L 814,276 L 814,277 L 812,279 L 812,280 L 810,282 L 809,282 L 807,284 L 805,284 L 804,285 L 798,285 L 797,284 L 794,284 L 793,283 L 791,283 L 790,282 L 789,282 L 788,281 L 787,281 L 786,280 L 785,280 L 782,277 L 781,277 L 776,272 L 776,271 L 774,269 L 774,268 L 772,266 L 772,265 L 771,264 L 771,263 L 769,261 L 769,260 L 767,258 L 767,257 L 763,253 L 763,252 L 756,245 L 756,244 L 754,242 L 754,243 L 755,244 L 755,246 L 756,247 L 756,248 L 757,249 L 757,251 L 758,252 L 758,254 L 759,255 L 759,256 L 758,257 L 757,256 L 756,256 L 753,253 L 752,253 L 742,243 L 742,242 L 740,240 L 740,239 L 739,238 L 739,237 L 738,236 L 738,234 L 737,233 L 737,229 L 737,230 L 736,231 L 736,233 L 737,234 L 737,239 L 738,240 L 738,243 L 739,244 L 739,246 L 738,247 L 737,247 L 734,244 L 734,243 L 731,240 L 731,239 L 730,238 L 730,237 L 729,236 L 729,234 L 728,233 L 728,228 L 727,227 L 728,226 L 728,219 L 729,218 L 729,215 L 730,214 L 730,212 L 731,211 L 731,210 L 732,209 L 732,208 L 733,207 L 733,206 L 735,204 L 735,203 L 736,202 L 736,201 L 734,203 L 733,203 L 730,206 L 729,206 L 721,214 L 720,213 L 720,212 L 721,211 L 721,209 L 722,208 L 722,205 L 723,204 L 723,203 L 724,202 L 724,201 L 725,200 L 725,199 L 726,198 L 726,197 L 727,196 L 727,195 L 729,193 L 729,192 L 733,188 L 733,187 L 740,180 L 741,180 L 754,167 L 754,166 L 758,162 L 758,161 L 761,158 L 761,157 L 765,153 L 765,152 L 774,143 L 775,143 L 778,140 L 779,140 L 780,139 L 781,139 L 783,137 L 784,137 L 785,136 L 786,136 L 787,135 L 788,135 L 789,134 L 790,134 L 791,133 L 793,133 L 794,132 L 796,132 L 797,131 L 799,131 L 800,130 L 802,130 L 803,129 L 806,129 L 807,128 L 812,128 L 813,127 L 818,127 L 819,126 L 846,126 L 847,127 L 854,127 L 855,128 L 859,128 L 860,129 L 864,129 L 865,130 L 868,130 L 869,131 L 871,131 L 872,132 L 874,132 L 875,133 L 878,133 L 879,134 L 880,134 L 881,135 L 883,135 L 884,136 L 885,136 L 886,137 L 887,137 L 888,138 L 889,138 L 890,139 L 891,139 L 892,140 L 893,140 L 894,141 L 895,141 L 897,143 L 898,143 L 900,145 L 901,145 L 911,155 L 911,156 L 913,158 L 913,159 L 914,160 L 914,161 L 915,162 L 915,164 L 916,165 L 916,175 L 917,176 L 917,178 L 918,179 L 918,181 L 919,182 L 919,183 L 922,186 L 922,187 L 925,190 L 926,190 L 928,192 L 929,192 L 931,194 L 932,194 L 933,195 L 934,195 L 935,196 L 937,196 L 938,197 L 940,197 L 941,198 L 943,198 L 944,199 L 946,199 L 947,200 L 949,200 L 950,201 L 953,201 L 954,202 L 956,202 L 957,203 L 959,203 L 960,204 L 962,204 L 963,205 L 964,205 L 965,206 L 967,206 L 968,207 L 969,207 L 970,208 L 963,215 L 963,216 L 962,217 L 962,219 L 961,220 L 961,229 L 962,230 L 962,231 L 964,233 L 964,234 L 966,236 L 967,236 L 968,237 L 969,237 L 970,238 L 971,238 L 972,239 L 973,239 L 974,240 L 975,240 L 976,241 L 977,241 L 980,244 L 980,247 L 979,248 L 979,249 L 978,250 L 978,251 L 976,253 L 976,254 L 965,265 L 964,265 L 960,269 L 959,269 L 957,271 L 956,271 L 955,272 L 954,272 L 953,273 L 952,273 L 951,274 L 949,274 L 948,275 L 946,275 L 945,276 L 942,276 L 941,277 L 938,277 L 937,278 L 919,278 L 918,277 L 912,277 L 911,276 L 909,276 L 908,275 L 906,275 L 905,274 L 903,274 L 902,273 L 900,273 L 899,272 L 897,272 L 896,271 L 895,271 L 894,270 L 891,270 L 890,269 L 882,269 L 881,270 L 878,270 L 877,271 L 876,271 L 873,274 L 873,275 L 871,277 L 871,278 L 872,279 L 873,279 L 876,282 L 877,282 L 878,283 L 879,283 L 880,284 L 882,284 L 883,283 L 888,283 L 889,282 L 899,282 L 900,283 L 905,283 L 906,284 L 911,284 L 912,285 L 917,285 L 918,286 L 939,286 L 940,285 L 944,285 L 945,284 L 947,284 L 948,283 L 950,283 L 951,282 L 953,282 L 954,281 L 955,281 L 956,280 L 957,280 L 958,279 L 960,279 L 961,278 L 962,278 L 963,277 L 964,277 L 966,275 L 967,275 L 968,276 L 967,277 L 967,278 L 966,279 L 966,280 L 965,281 L 965,282 L 960,287 L 959,287 L 957,289 L 956,289 L 955,290 L 954,290 L 953,291 L 951,291 L 950,292 L 948,292 L 947,293 L 941,293 L 940,294 L 922,294 L 921,293 L 914,293 L 913,292 L 895,292 L 894,291 L 887,291 L 886,290 L 879,290 L 878,289 L 872,289 L 871,288 L 866,288 L 865,289 L 864,289 L 862,291 L 864,293 L 865,293 L 866,294 L 865,295 L 865,296 L 863,298 L 863,299 L 862,300 L 862,301 L 861,302 L 861,303 L 860,304 L 860,305 L 859,306 L 859,307 L 858,308 L 858,311 L 857,312 L 857,318 L 858,319 L 858,320 L 859,319 L 859,318 L 860,317 L 860,316 L 862,314 L 862,313 L 866,309 L 867,309 L 871,305 L 872,305 L 873,304 L 874,304 L 876,302 L 877,303 L 877,304 L 876,305 L 876,307 L 875,308 L 875,325 L 876,326 L 876,329 L 877,330 L 877,331 L 878,332 L 878,334 L 879,335 L 879,336 L 881,338 L 881,339 L 884,342 L 884,343 L 886,345 L 887,345 L 890,348 L 891,348 L 892,349 L 893,349 L 894,350 L 895,350 L 896,351 L 904,351 L 905,350 L 907,350 L 908,349 L 909,349 L 908,348 L 905,348 L 904,347 L 903,347 L 902,346 L 901,346 L 898,343 L 897,343 L 894,340 L 894,339 L 891,336 L 891,335 L 890,334 L 890,333 L 889,332 L 889,330 L 888,329 L 888,327 L 887,326 L 887,321 L 886,320 L 886,315 L 887,314 L 887,310 L 888,309 L 888,307 L 889,306 L 889,305 L 892,302 L 894,302 L 895,301 L 916,301 L 917,302 L 927,302 L 928,303 L 936,303 L 937,302 L 947,302 L 948,301 L 952,301 L 953,300 L 955,300 L 956,299 L 958,299 L 959,298 L 960,298 L 961,297 L 962,297 L 963,296 L 964,296 L 966,294 L 967,294 L 970,291 L 971,291 L 971,290 L 975,286 L 975,285 L 976,284 L 976,283 L 977,282 L 977,280 L 978,279 L 978,272 L 979,271 L 979,270 L 982,267 L 982,266 L 984,264 L 985,264 L 990,259 L 990,258 L 991,257 L 991,256 L 992,255 L 992,253 L 993,252 L 993,250 L 994,249 L 994,246 L 995,245 L 995,242 L 996,241 L 996,239 L 997,238 L 997,236 L 998,235 L 998,234 L 999,233 L 999,232 L 1001,230 L 1001,228 L 1002,227 L 1002,226 L 1003,225 L 1003,222 L 1004,221 L 1004,216 L 1003,215 L 1003,213 L 1001,211 L 1001,210 L 997,206 L 996,206 L 995,205 L 994,205 L 993,204 L 991,204 L 990,203 L 987,203 L 986,202 L 985,202 L 984,201 L 982,201 L 981,200 L 979,200 L 978,199 L 976,199 L 975,198 L 973,198 L 972,197 L 970,197 L 969,196 L 966,196 L 965,195 L 963,195 L 962,194 L 959,194 L 958,193 L 956,193 L 955,192 L 953,192 L 952,191 L 950,191 L 949,190 L 947,190 L 946,189 L 945,189 L 944,188 L 943,188 L 942,187 L 941,187 L 940,186 L 939,186 L 937,184 L 936,184 L 932,180 L 932,179 L 930,177 L 930,176 L 929,175 L 929,174 L 928,173 L 928,170 L 927,169 L 927,164 L 926,163 L 926,160 L 925,159 L 925,157 L 924,156 L 924,155 L 923,154 L 923,153 L 921,151 L 921,150 L 909,138 L 908,138 L 906,136 L 905,136 L 903,134 L 902,134 L 901,133 L 900,133 L 899,132 L 898,132 L 896,130 L 895,130 L 894,129 L 892,129 L 891,128 L 890,128 L 889,127 L 888,127 L 887,126 L 885,126 L 884,125 L 882,125 L 881,124 L 879,124 L 878,123 L 876,123 L 875,122 L 873,122 L 872,121 L 869,121 L 868,120 L 865,120 L 864,119 L 860,119 L 859,118 L 853,118 L 852,117 L 844,117 L 843,116 Z" fill="black" /></svg>