<?xml version="1.0" encoding="utf-8" ?>
<svg baseProfile="full" height="1024" version="1.1" width="1024" xmlns="http://www.w3.org/2000/svg" xmlns:ev="http://www.w3.org/2001/xml-events" xmlns:xlink="http://www.w3.org/1999/xlink"><defs /><path d="M 360,813 Z" fill="black" /><path d="M 292,793 Z" fill="black" /><path d="M 335,777 Z" fill="black" /><path d="M 367,752 Z" fill="black" /><path d="M 198,694 Z" fill="black" /><path d="M 598,674 Z" fill="black" /><path d="M 219,545 Z" fill="black" /><path d="M 246,488 Z" fill="black" /><path d="M 825,451 Z" fill="black" /><path d="M 825,422 Z" fill="black" /><path d="M 599,360 Z" fill="black" /><path d="M 808,332 Z" fill="black" /><path d="M 913,294 Z" fill="black" /><path d="M 802,68 L 798,72 L 797,72 L 797,73 L 793,77 L 793,78 L 790,81 L 790,82 L 787,85 L 787,86 L 785,88 L 785,89 L 783,91 L 783,92 L 782,93 L 782,94 L 780,96 L 780,97 L 778,99 L 778,100 L 777,101 L 777,102 L 775,104 L 775,105 L 774,106 L 774,107 L 772,109 L 772,110 L 771,111 L 771,112 L 770,113 L 770,114 L 768,116 L 768,117 L 767,118 L 767,119 L 766,120 L 766,121 L 765,122 L 765,123 L 764,124 L 764,125 L 763,126 L 763,127 L 762,128 L 762,129 L 761,130 L 761,131 L 760,132 L 760,133 L 759,134 L 759,135 L 758,136 L 758,137 L 757,138 L 757,140 L 756,141 L 756,142 L 755,143 L 755,145 L 754,146 L 754,149 L 753,150 L 753,154 L 752,155 L 752,165 L 753,166 L 753,169 L 751,171 L 751,172 L 747,176 L 747,177 L 744,180 L 744,181 L 740,185 L 740,186 L 738,188 L 738,189 L 735,192 L 735,193 L 734,194 L 734,195 L 733,196 L 733,197 L 732,198 L 732,199 L 731,200 L 731,201 L 730,202 L 730,203 L 729,204 L 729,205 L 728,206 L 728,207 L 727,208 L 727,209 L 726,210 L 726,212 L 725,213 L 725,214 L 724,215 L 724,216 L 723,217 L 723,218 L 722,219 L 722,221 L 721,222 L 721,223 L 720,224 L 720,225 L 719,226 L 719,228 L 718,229 L 718,230 L 717,231 L 717,233 L 716,234 L 716,235 L 715,236 L 715,238 L 714,239 L 714,241 L 713,242 L 713,243 L 712,244 L 712,246 L 711,247 L 711,248 L 710,249 L 710,251 L 709,252 L 709,254 L 708,255 L 708,257 L 707,258 L 707,260 L 706,261 L 706,262 L 705,263 L 705,265 L 704,266 L 704,268 L 703,269 L 703,271 L 702,272 L 702,273 L 701,274 L 701,276 L 700,277 L 700,279 L 699,280 L 699,282 L 698,283 L 698,285 L 697,286 L 697,287 L 696,288 L 696,290 L 695,291 L 695,293 L 694,294 L 694,295 L 693,296 L 693,298 L 692,299 L 692,301 L 691,302 L 691,304 L 690,305 L 690,306 L 689,307 L 689,308 L 688,309 L 688,310 L 687,311 L 687,313 L 685,315 L 685,316 L 684,317 L 684,318 L 683,319 L 683,320 L 681,322 L 681,323 L 678,326 L 678,327 L 669,336 L 668,336 L 664,340 L 663,340 L 661,342 L 660,342 L 659,343 L 658,343 L 657,344 L 656,344 L 654,346 L 653,346 L 652,347 L 651,347 L 650,348 L 649,348 L 647,350 L 646,350 L 645,351 L 644,351 L 643,352 L 642,352 L 640,354 L 639,354 L 638,355 L 637,355 L 636,356 L 635,356 L 633,358 L 632,358 L 631,359 L 630,359 L 629,360 L 628,360 L 627,361 L 626,361 L 625,362 L 624,362 L 623,363 L 622,363 L 621,364 L 619,364 L 618,365 L 617,365 L 616,366 L 614,366 L 613,367 L 611,367 L 610,368 L 608,368 L 607,369 L 605,369 L 604,370 L 602,370 L 601,371 L 598,371 L 597,372 L 594,372 L 593,373 L 589,373 L 588,374 L 582,374 L 581,375 L 575,375 L 574,376 L 565,376 L 564,377 L 552,377 L 551,378 L 526,378 L 525,379 L 495,379 L 494,380 L 473,380 L 472,381 L 454,381 L 453,382 L 437,382 L 436,383 L 423,383 L 422,384 L 414,384 L 413,385 L 408,385 L 407,386 L 402,386 L 401,387 L 396,387 L 395,388 L 391,388 L 390,389 L 385,389 L 384,390 L 380,390 L 379,391 L 376,391 L 375,392 L 373,392 L 372,393 L 369,393 L 368,394 L 366,394 L 365,395 L 363,395 L 362,396 L 360,396 L 359,397 L 357,397 L 356,398 L 354,398 L 353,399 L 352,399 L 351,400 L 350,400 L 349,401 L 348,401 L 347,402 L 345,402 L 344,403 L 343,403 L 342,404 L 341,404 L 340,405 L 339,405 L 338,406 L 337,406 L 336,407 L 335,407 L 334,408 L 333,408 L 331,410 L 330,410 L 329,411 L 328,411 L 327,412 L 326,412 L 325,413 L 324,413 L 322,415 L 321,415 L 320,416 L 319,416 L 317,418 L 316,418 L 314,420 L 313,420 L 311,422 L 310,422 L 307,425 L 306,425 L 303,428 L 302,428 L 298,432 L 297,432 L 287,442 L 286,442 L 285,443 L 285,444 L 276,453 L 276,454 L 271,459 L 271,460 L 268,463 L 268,464 L 266,466 L 266,467 L 264,469 L 264,470 L 262,472 L 262,473 L 261,474 L 261,475 L 260,476 L 260,477 L 258,479 L 258,480 L 257,481 L 257,483 L 255,485 L 255,486 L 254,487 L 254,489 L 253,490 L 253,491 L 252,492 L 252,493 L 251,494 L 251,495 L 250,496 L 250,498 L 249,499 L 249,500 L 248,501 L 248,502 L 247,503 L 247,505 L 246,506 L 246,507 L 245,508 L 245,510 L 244,511 L 244,513 L 243,514 L 243,515 L 242,516 L 242,517 L 241,518 L 241,520 L 240,521 L 240,522 L 239,523 L 239,525 L 238,526 L 238,528 L 237,529 L 237,530 L 236,531 L 236,532 L 235,533 L 235,534 L 234,535 L 234,537 L 233,538 L 233,539 L 232,540 L 232,541 L 231,542 L 231,543 L 230,544 L 230,545 L 229,546 L 229,547 L 228,548 L 228,549 L 227,550 L 227,551 L 226,552 L 226,553 L 225,554 L 225,555 L 224,556 L 224,557 L 223,558 L 223,559 L 222,560 L 222,561 L 221,562 L 221,563 L 219,565 L 219,566 L 218,567 L 218,568 L 216,570 L 216,571 L 214,573 L 214,574 L 211,577 L 211,578 L 209,580 L 209,581 L 203,587 L 203,588 L 194,597 L 193,597 L 187,603 L 186,603 L 183,606 L 182,606 L 180,608 L 179,608 L 178,609 L 177,609 L 175,611 L 174,611 L 173,612 L 172,612 L 171,613 L 170,613 L 169,614 L 168,614 L 167,615 L 166,615 L 165,616 L 164,616 L 163,617 L 161,617 L 160,618 L 158,618 L 157,619 L 155,619 L 154,620 L 152,620 L 151,621 L 148,621 L 147,622 L 143,622 L 142,623 L 116,623 L 115,622 L 111,622 L 110,621 L 107,621 L 106,620 L 104,620 L 103,619 L 101,619 L 100,618 L 99,618 L 98,617 L 97,617 L 96,616 L 95,616 L 94,615 L 92,615 L 91,614 L 90,614 L 88,612 L 87,612 L 86,611 L 84,611 L 83,610 L 76,610 L 75,611 L 75,617 L 76,618 L 76,619 L 79,622 L 79,623 L 80,624 L 81,624 L 90,633 L 91,633 L 94,636 L 95,636 L 97,638 L 98,638 L 100,640 L 101,640 L 102,641 L 103,641 L 104,642 L 105,642 L 106,643 L 108,643 L 109,644 L 110,644 L 111,645 L 113,645 L 114,646 L 116,646 L 117,647 L 120,647 L 121,648 L 124,648 L 125,649 L 131,649 L 132,650 L 151,650 L 152,649 L 158,649 L 159,648 L 163,648 L 164,647 L 166,647 L 167,646 L 170,646 L 171,645 L 173,645 L 174,644 L 175,644 L 176,643 L 178,643 L 179,642 L 180,642 L 181,641 L 182,641 L 183,640 L 184,640 L 185,639 L 187,639 L 188,638 L 189,638 L 191,636 L 192,636 L 193,635 L 194,635 L 195,634 L 196,634 L 198,632 L 199,632 L 201,630 L 202,630 L 204,628 L 205,628 L 207,626 L 208,626 L 212,622 L 213,622 L 220,615 L 221,615 L 221,614 L 222,613 L 223,613 L 227,609 L 227,608 L 235,600 L 235,599 L 238,596 L 238,595 L 241,592 L 241,591 L 243,589 L 243,588 L 246,585 L 246,584 L 247,583 L 247,582 L 249,580 L 249,579 L 250,578 L 250,577 L 252,575 L 252,574 L 253,573 L 253,572 L 254,571 L 254,570 L 255,569 L 255,568 L 256,567 L 256,566 L 257,565 L 257,564 L 258,563 L 258,562 L 259,561 L 259,560 L 260,559 L 260,558 L 261,557 L 261,556 L 262,555 L 262,554 L 263,553 L 263,551 L 264,550 L 264,549 L 265,548 L 265,547 L 266,546 L 266,544 L 267,543 L 267,542 L 268,541 L 268,540 L 269,539 L 269,537 L 270,536 L 270,534 L 272,532 L 273,533 L 273,536 L 272,537 L 272,554 L 271,555 L 271,564 L 270,565 L 270,572 L 269,573 L 269,578 L 268,579 L 268,583 L 267,584 L 267,588 L 266,589 L 266,592 L 265,593 L 265,596 L 264,597 L 264,600 L 263,601 L 263,603 L 262,604 L 262,606 L 261,607 L 261,609 L 260,610 L 260,612 L 259,613 L 259,615 L 258,616 L 258,617 L 257,618 L 257,620 L 256,621 L 256,622 L 255,623 L 255,624 L 254,625 L 254,626 L 253,627 L 253,628 L 252,629 L 252,630 L 251,631 L 251,632 L 250,633 L 250,634 L 248,636 L 248,637 L 247,638 L 247,639 L 246,640 L 246,641 L 245,642 L 245,643 L 243,645 L 243,646 L 242,647 L 242,648 L 239,651 L 239,652 L 237,654 L 237,655 L 235,657 L 235,658 L 232,661 L 232,662 L 227,667 L 227,668 L 222,673 L 222,674 L 213,683 L 213,684 L 204,693 L 204,694 L 192,706 L 191,706 L 181,716 L 181,717 L 180,718 L 180,719 L 179,720 L 179,722 L 178,723 L 178,728 L 177,729 L 177,734 L 176,735 L 176,741 L 175,742 L 175,745 L 174,746 L 174,751 L 173,752 L 173,756 L 172,757 L 172,760 L 171,761 L 171,766 L 170,767 L 170,771 L 169,772 L 169,775 L 168,776 L 168,780 L 167,781 L 167,784 L 166,785 L 166,788 L 165,789 L 165,793 L 164,794 L 164,797 L 163,798 L 163,801 L 162,802 L 162,805 L 161,806 L 161,809 L 160,810 L 160,812 L 159,813 L 159,816 L 158,817 L 158,819 L 157,820 L 157,823 L 156,824 L 156,826 L 155,827 L 155,830 L 154,831 L 154,835 L 153,836 L 153,842 L 154,843 L 154,846 L 155,847 L 155,849 L 156,850 L 156,852 L 157,853 L 157,855 L 158,856 L 158,858 L 159,859 L 159,862 L 160,863 L 160,868 L 161,869 L 161,870 L 162,871 L 162,872 L 163,872 L 165,874 L 166,874 L 167,875 L 168,875 L 169,876 L 170,876 L 171,877 L 174,877 L 175,878 L 184,878 L 185,879 L 199,879 L 200,878 L 210,878 L 211,877 L 214,877 L 215,876 L 216,876 L 217,875 L 219,875 L 221,873 L 221,872 L 222,871 L 222,870 L 223,869 L 223,856 L 222,855 L 222,853 L 221,852 L 221,850 L 220,849 L 220,847 L 219,846 L 219,845 L 218,844 L 218,843 L 216,841 L 216,840 L 210,834 L 209,834 L 208,833 L 199,833 L 198,832 L 198,831 L 197,830 L 197,822 L 198,821 L 198,814 L 199,813 L 199,807 L 200,806 L 200,801 L 201,800 L 201,796 L 202,795 L 202,792 L 203,791 L 203,788 L 204,787 L 204,784 L 205,783 L 205,780 L 206,779 L 206,777 L 207,776 L 207,774 L 208,773 L 208,771 L 209,770 L 209,768 L 210,767 L 210,766 L 211,765 L 211,764 L 212,763 L 212,761 L 213,760 L 213,759 L 215,757 L 215,756 L 216,755 L 216,754 L 217,753 L 217,752 L 220,749 L 220,748 L 222,746 L 222,745 L 226,741 L 226,740 L 230,736 L 230,735 L 238,727 L 238,726 L 245,719 L 246,719 L 246,718 L 247,717 L 248,717 L 259,706 L 260,706 L 263,703 L 264,703 L 266,701 L 267,701 L 269,699 L 270,699 L 272,697 L 273,697 L 275,695 L 276,695 L 278,693 L 279,693 L 281,691 L 282,691 L 285,688 L 286,688 L 287,687 L 288,687 L 290,685 L 291,685 L 294,682 L 295,682 L 297,680 L 298,680 L 300,678 L 301,678 L 303,676 L 304,676 L 306,674 L 307,674 L 310,671 L 311,671 L 313,669 L 314,669 L 318,665 L 319,665 L 323,661 L 324,661 L 328,657 L 329,658 L 329,659 L 328,660 L 328,661 L 327,662 L 327,663 L 326,664 L 326,665 L 324,667 L 324,668 L 323,669 L 323,670 L 322,671 L 322,672 L 320,674 L 320,675 L 317,678 L 317,679 L 314,682 L 314,683 L 310,687 L 310,688 L 289,709 L 289,710 L 287,712 L 287,713 L 286,714 L 286,717 L 285,718 L 285,727 L 286,728 L 286,734 L 287,735 L 287,738 L 288,739 L 288,743 L 289,744 L 289,747 L 290,748 L 290,751 L 291,752 L 291,756 L 292,757 L 292,760 L 293,761 L 293,764 L 294,765 L 294,769 L 295,770 L 295,774 L 296,775 L 296,779 L 297,780 L 297,784 L 298,785 L 298,789 L 299,790 L 299,794 L 300,795 L 300,799 L 301,800 L 301,804 L 302,805 L 302,810 L 303,811 L 303,815 L 304,816 L 304,822 L 305,823 L 305,827 L 306,828 L 306,831 L 307,832 L 307,833 L 308,834 L 308,835 L 309,836 L 309,837 L 311,839 L 311,840 L 314,843 L 314,844 L 317,847 L 317,848 L 321,852 L 321,853 L 322,853 L 323,854 L 323,855 L 324,855 L 326,857 L 327,857 L 328,858 L 330,858 L 331,859 L 376,859 L 377,858 L 379,858 L 382,855 L 382,854 L 383,853 L 383,846 L 382,845 L 382,843 L 381,842 L 381,841 L 380,840 L 380,838 L 379,837 L 379,836 L 378,835 L 378,834 L 377,833 L 377,832 L 376,831 L 376,830 L 374,828 L 374,827 L 367,820 L 366,820 L 365,819 L 364,819 L 363,818 L 361,818 L 360,817 L 357,817 L 356,816 L 345,816 L 343,814 L 343,813 L 342,812 L 342,811 L 341,810 L 341,808 L 340,807 L 340,805 L 339,804 L 339,802 L 338,801 L 338,799 L 337,798 L 337,795 L 336,794 L 336,792 L 335,791 L 335,787 L 334,786 L 334,782 L 333,781 L 333,774 L 332,773 L 332,759 L 333,758 L 333,751 L 334,750 L 334,746 L 335,745 L 335,743 L 336,742 L 336,739 L 337,738 L 337,737 L 338,736 L 338,734 L 339,733 L 339,732 L 340,731 L 340,730 L 341,729 L 341,728 L 342,727 L 342,726 L 344,724 L 344,723 L 345,722 L 345,721 L 348,718 L 348,717 L 350,715 L 350,714 L 353,711 L 353,710 L 357,706 L 357,705 L 360,702 L 360,701 L 364,697 L 364,696 L 369,691 L 369,690 L 375,684 L 375,683 L 383,675 L 383,674 L 393,664 L 393,663 L 407,649 L 407,648 L 414,641 L 414,640 L 419,635 L 419,634 L 422,631 L 422,630 L 425,627 L 425,626 L 427,624 L 427,623 L 428,622 L 428,621 L 430,619 L 430,618 L 431,617 L 431,616 L 432,615 L 432,614 L 433,613 L 433,612 L 434,611 L 434,609 L 435,608 L 435,607 L 436,606 L 436,605 L 437,604 L 437,602 L 438,601 L 438,599 L 439,598 L 439,596 L 440,595 L 440,592 L 441,591 L 441,588 L 442,587 L 442,584 L 443,583 L 443,579 L 444,578 L 444,574 L 445,573 L 445,569 L 446,568 L 446,565 L 447,564 L 447,561 L 448,560 L 448,558 L 449,557 L 449,554 L 450,553 L 450,552 L 451,551 L 451,549 L 452,548 L 452,547 L 453,546 L 453,545 L 454,544 L 454,543 L 456,541 L 456,540 L 458,538 L 458,537 L 460,535 L 460,534 L 464,530 L 464,529 L 467,526 L 468,526 L 471,523 L 475,523 L 476,524 L 480,524 L 481,525 L 485,525 L 486,526 L 489,526 L 490,527 L 492,527 L 493,528 L 495,528 L 496,529 L 498,529 L 499,530 L 501,530 L 502,531 L 504,531 L 505,532 L 507,532 L 508,533 L 510,533 L 511,534 L 512,534 L 513,535 L 515,535 L 516,536 L 517,536 L 518,537 L 519,537 L 520,538 L 521,538 L 522,539 L 523,539 L 524,540 L 525,540 L 526,541 L 527,541 L 528,542 L 529,542 L 530,543 L 531,543 L 533,545 L 534,545 L 535,546 L 536,546 L 537,547 L 538,547 L 539,548 L 540,548 L 541,549 L 542,549 L 544,551 L 545,551 L 546,552 L 547,552 L 548,553 L 549,553 L 550,554 L 551,554 L 552,555 L 553,555 L 554,556 L 555,556 L 557,558 L 558,558 L 559,559 L 560,559 L 562,561 L 564,561 L 565,562 L 566,562 L 567,563 L 568,563 L 570,565 L 571,565 L 572,566 L 574,566 L 575,567 L 576,567 L 577,568 L 578,568 L 579,569 L 580,569 L 581,570 L 582,570 L 583,571 L 584,571 L 585,572 L 587,572 L 588,573 L 589,573 L 590,574 L 591,574 L 592,575 L 594,575 L 595,576 L 596,576 L 597,577 L 599,577 L 600,578 L 601,578 L 602,579 L 604,579 L 605,580 L 607,580 L 608,581 L 610,581 L 611,582 L 613,582 L 614,583 L 616,583 L 617,584 L 620,584 L 621,585 L 624,585 L 625,586 L 629,586 L 630,587 L 635,587 L 636,588 L 641,588 L 642,589 L 648,589 L 649,590 L 654,590 L 655,591 L 664,591 L 665,592 L 666,592 L 668,594 L 668,595 L 669,596 L 669,598 L 670,599 L 670,601 L 671,602 L 671,603 L 672,604 L 672,606 L 673,607 L 673,609 L 674,610 L 674,612 L 675,613 L 675,617 L 676,618 L 676,623 L 677,624 L 677,635 L 678,636 L 678,650 L 677,651 L 678,652 L 677,653 L 677,691 L 676,692 L 676,711 L 675,712 L 675,723 L 674,724 L 674,735 L 673,736 L 673,745 L 672,746 L 672,753 L 671,754 L 671,761 L 670,762 L 670,768 L 669,769 L 669,774 L 668,775 L 668,780 L 667,781 L 667,784 L 666,785 L 666,797 L 667,798 L 667,799 L 672,804 L 673,804 L 674,805 L 674,806 L 676,808 L 676,809 L 677,810 L 677,811 L 678,812 L 678,814 L 679,815 L 679,819 L 680,820 L 680,828 L 681,829 L 681,848 L 682,849 L 682,861 L 683,862 L 683,866 L 684,867 L 684,869 L 685,870 L 685,872 L 687,874 L 687,875 L 690,878 L 691,878 L 693,880 L 694,880 L 695,881 L 696,881 L 697,882 L 699,882 L 700,883 L 704,883 L 705,884 L 713,884 L 714,885 L 731,885 L 732,884 L 743,884 L 744,883 L 749,883 L 750,882 L 753,882 L 756,879 L 756,878 L 757,877 L 757,875 L 758,874 L 758,868 L 759,867 L 758,866 L 758,863 L 759,862 L 761,864 L 763,864 L 764,865 L 765,865 L 766,866 L 771,866 L 772,867 L 807,867 L 808,866 L 811,866 L 812,865 L 814,865 L 815,864 L 816,864 L 817,863 L 817,862 L 818,861 L 818,859 L 819,858 L 819,849 L 818,848 L 818,845 L 817,844 L 817,842 L 816,841 L 816,840 L 815,839 L 815,838 L 814,837 L 814,836 L 813,835 L 813,834 L 811,832 L 811,831 L 805,825 L 804,825 L 803,824 L 802,824 L 801,823 L 797,823 L 796,822 L 784,822 L 783,821 L 781,821 L 779,819 L 779,818 L 778,817 L 778,815 L 777,814 L 777,813 L 776,812 L 776,810 L 775,809 L 775,806 L 774,805 L 774,800 L 773,799 L 773,792 L 772,791 L 772,780 L 771,779 L 771,756 L 772,755 L 772,735 L 773,734 L 773,720 L 774,719 L 774,709 L 775,708 L 775,696 L 776,695 L 776,683 L 777,682 L 777,668 L 778,667 L 778,657 L 779,656 L 779,645 L 780,644 L 780,636 L 781,635 L 781,627 L 782,626 L 782,619 L 783,618 L 783,612 L 784,611 L 784,605 L 785,604 L 785,600 L 786,599 L 786,595 L 787,594 L 787,590 L 788,589 L 788,586 L 789,585 L 789,582 L 790,581 L 790,579 L 791,578 L 791,576 L 792,575 L 792,573 L 793,572 L 793,570 L 794,569 L 794,568 L 795,567 L 795,565 L 796,564 L 796,562 L 797,561 L 797,560 L 798,559 L 798,557 L 799,556 L 799,554 L 800,553 L 800,552 L 801,551 L 801,549 L 802,548 L 802,546 L 803,545 L 803,544 L 804,543 L 804,541 L 805,540 L 805,539 L 806,538 L 806,536 L 807,535 L 807,534 L 808,533 L 808,532 L 809,531 L 809,530 L 810,529 L 810,528 L 811,527 L 811,525 L 812,524 L 812,523 L 813,522 L 813,520 L 814,519 L 814,517 L 815,516 L 815,514 L 816,513 L 816,511 L 817,510 L 817,507 L 818,506 L 818,504 L 819,503 L 819,499 L 820,498 L 820,494 L 821,493 L 821,487 L 822,486 L 822,479 L 823,478 L 823,449 L 822,448 L 822,441 L 821,440 L 821,435 L 820,434 L 820,429 L 819,428 L 819,425 L 818,424 L 818,421 L 817,420 L 817,418 L 816,417 L 816,414 L 815,413 L 815,411 L 814,410 L 814,407 L 813,406 L 813,404 L 812,403 L 812,400 L 811,399 L 811,396 L 810,395 L 810,392 L 809,391 L 809,387 L 808,386 L 808,380 L 807,379 L 807,370 L 806,369 L 806,316 L 807,315 L 807,308 L 808,307 L 808,303 L 809,302 L 809,299 L 810,298 L 810,296 L 811,295 L 811,293 L 812,292 L 812,290 L 813,289 L 813,287 L 814,286 L 814,285 L 815,284 L 815,283 L 816,282 L 816,281 L 817,280 L 817,279 L 818,278 L 818,277 L 820,275 L 820,274 L 821,273 L 821,272 L 825,268 L 827,268 L 828,269 L 829,269 L 830,270 L 831,270 L 844,283 L 844,284 L 849,289 L 850,289 L 853,292 L 854,292 L 856,294 L 857,294 L 858,295 L 859,295 L 860,296 L 861,296 L 862,297 L 881,297 L 882,296 L 885,296 L 886,295 L 888,295 L 889,294 L 891,294 L 892,293 L 893,293 L 894,292 L 895,292 L 897,290 L 899,290 L 900,289 L 901,289 L 902,288 L 908,288 L 909,287 L 911,287 L 912,286 L 913,286 L 922,277 L 922,276 L 924,274 L 924,273 L 925,272 L 925,271 L 927,269 L 927,268 L 928,267 L 928,265 L 929,264 L 929,262 L 930,261 L 930,259 L 931,258 L 931,253 L 932,252 L 932,243 L 933,242 L 933,232 L 932,231 L 932,227 L 936,223 L 936,222 L 938,220 L 938,218 L 939,217 L 939,209 L 938,208 L 938,207 L 937,206 L 937,205 L 935,203 L 934,203 L 933,202 L 931,202 L 930,201 L 928,201 L 927,200 L 924,200 L 923,199 L 920,199 L 919,198 L 917,198 L 916,197 L 913,197 L 912,196 L 909,196 L 908,195 L 905,195 L 904,194 L 902,194 L 901,193 L 898,193 L 897,192 L 895,192 L 894,191 L 892,191 L 891,190 L 889,190 L 888,189 L 886,189 L 885,188 L 883,188 L 882,187 L 881,187 L 880,186 L 879,186 L 877,184 L 876,184 L 872,180 L 872,177 L 871,176 L 871,171 L 870,170 L 870,168 L 869,167 L 869,166 L 864,161 L 863,161 L 861,159 L 860,159 L 859,158 L 858,158 L 857,157 L 856,157 L 855,156 L 854,156 L 853,155 L 852,155 L 851,154 L 850,154 L 849,153 L 848,153 L 847,152 L 846,152 L 845,151 L 843,151 L 842,150 L 841,150 L 840,149 L 838,149 L 837,148 L 836,148 L 835,147 L 832,147 L 831,146 L 828,146 L 826,144 L 826,124 L 825,123 L 825,119 L 826,118 L 825,117 L 826,116 L 826,100 L 827,99 L 827,78 L 826,77 L 826,75 L 825,74 L 825,73 L 824,72 L 824,71 L 821,68 L 818,68 L 817,69 L 816,69 L 816,70 L 815,71 L 815,76 L 814,77 L 814,84 L 813,85 L 813,91 L 812,92 L 812,94 L 811,95 L 811,97 L 810,98 L 810,100 L 809,101 L 809,103 L 808,104 L 808,105 L 807,106 L 807,108 L 806,109 L 805,108 L 805,102 L 806,101 L 806,94 L 807,93 L 807,86 L 808,85 L 808,72 L 807,71 L 807,70 L 805,68 Z" fill="black" /></svg>