<?xml version="1.0" encoding="utf-8" ?>
<svg baseProfile="full" height="1024" version="1.1" width="1024" xmlns="http://www.w3.org/2000/svg" xmlns:ev="http://www.w3.org/2001/xml-events" xmlns:xlink="http://www.w3.org/1999/xlink"><defs /><path d="M 794,130 L 794,131 L 793,132 L 780,132 L 779,133 L 775,133 L 774,134 L 773,134 L 772,135 L 771,135 L 770,136 L 769,136 L 767,138 L 766,138 L 765,139 L 763,139 L 762,140 L 759,140 L 758,141 L 756,141 L 755,142 L 753,142 L 752,143 L 751,143 L 742,152 L 742,153 L 739,156 L 739,157 L 736,160 L 736,161 L 733,164 L 733,165 L 731,167 L 731,176 L 732,177 L 732,178 L 731,179 L 731,180 L 727,184 L 727,185 L 725,187 L 725,188 L 722,191 L 722,192 L 720,194 L 720,195 L 719,196 L 719,197 L 718,198 L 718,199 L 716,201 L 716,202 L 715,203 L 715,204 L 713,206 L 713,207 L 712,208 L 712,209 L 710,211 L 710,212 L 709,213 L 709,214 L 708,215 L 708,216 L 706,218 L 706,219 L 708,221 L 708,222 L 709,223 L 708,224 L 708,225 L 706,227 L 706,228 L 703,231 L 703,232 L 700,235 L 700,236 L 698,238 L 698,239 L 697,240 L 697,241 L 695,243 L 695,244 L 693,246 L 693,247 L 691,249 L 691,250 L 689,252 L 689,253 L 686,256 L 686,257 L 682,261 L 682,262 L 674,270 L 674,271 L 672,273 L 672,274 L 673,275 L 674,275 L 675,274 L 676,274 L 677,273 L 678,273 L 679,274 L 679,275 L 675,279 L 674,279 L 674,280 L 672,282 L 671,282 L 668,285 L 667,285 L 666,286 L 665,286 L 664,287 L 663,287 L 662,288 L 661,288 L 660,289 L 658,289 L 657,290 L 656,290 L 655,291 L 653,291 L 652,292 L 651,292 L 650,293 L 648,293 L 647,294 L 645,294 L 644,295 L 642,295 L 641,296 L 639,296 L 638,297 L 636,297 L 636,301 L 635,302 L 631,302 L 630,303 L 625,303 L 624,304 L 618,304 L 617,305 L 611,305 L 610,306 L 606,306 L 605,307 L 601,307 L 600,308 L 599,308 L 599,309 L 600,309 L 601,310 L 602,310 L 603,311 L 604,311 L 606,313 L 605,314 L 604,314 L 603,315 L 599,315 L 598,316 L 593,316 L 592,317 L 587,317 L 586,318 L 580,318 L 579,319 L 573,319 L 572,320 L 566,320 L 566,322 L 568,324 L 568,325 L 567,326 L 549,326 L 548,327 L 528,327 L 527,326 L 502,326 L 501,325 L 484,325 L 483,324 L 471,324 L 470,323 L 457,323 L 456,322 L 444,322 L 443,321 L 431,321 L 430,320 L 414,320 L 413,319 L 359,319 L 358,320 L 349,320 L 348,321 L 340,321 L 339,322 L 334,322 L 333,323 L 328,323 L 327,324 L 323,324 L 322,325 L 319,325 L 318,326 L 314,326 L 313,327 L 311,327 L 310,328 L 307,328 L 306,329 L 304,329 L 303,330 L 301,330 L 300,331 L 298,331 L 297,332 L 295,332 L 294,333 L 293,333 L 292,334 L 290,334 L 289,335 L 287,335 L 286,336 L 285,336 L 284,337 L 283,337 L 282,338 L 280,338 L 279,339 L 278,339 L 277,340 L 276,340 L 275,341 L 274,341 L 273,342 L 272,342 L 271,343 L 270,343 L 269,344 L 268,344 L 267,345 L 266,345 L 265,346 L 264,346 L 263,347 L 262,347 L 260,349 L 259,349 L 258,350 L 257,350 L 255,352 L 254,352 L 252,354 L 251,354 L 249,356 L 248,356 L 244,360 L 243,360 L 240,363 L 239,363 L 231,371 L 230,371 L 220,381 L 220,382 L 217,385 L 217,386 L 214,389 L 214,390 L 212,392 L 212,393 L 210,395 L 210,396 L 208,398 L 208,399 L 206,401 L 206,402 L 205,403 L 205,404 L 203,406 L 203,407 L 202,408 L 202,409 L 201,410 L 201,411 L 200,412 L 200,413 L 199,414 L 199,415 L 198,416 L 198,417 L 197,418 L 197,419 L 196,420 L 196,421 L 195,422 L 195,424 L 194,425 L 194,427 L 193,428 L 193,429 L 192,430 L 192,432 L 191,433 L 191,435 L 190,436 L 190,439 L 189,440 L 189,442 L 188,443 L 188,445 L 187,446 L 187,449 L 186,450 L 186,452 L 185,453 L 185,457 L 184,458 L 184,461 L 183,462 L 183,465 L 182,466 L 182,469 L 181,470 L 181,474 L 180,475 L 180,478 L 179,479 L 179,483 L 178,484 L 178,488 L 177,489 L 177,494 L 176,495 L 176,499 L 175,500 L 175,504 L 174,505 L 174,508 L 173,509 L 173,512 L 172,513 L 172,516 L 171,517 L 171,520 L 170,521 L 170,523 L 169,524 L 169,526 L 168,527 L 168,529 L 167,530 L 167,532 L 166,533 L 166,535 L 165,536 L 165,538 L 164,539 L 164,540 L 163,541 L 163,543 L 162,544 L 162,545 L 161,546 L 161,547 L 160,548 L 160,549 L 159,550 L 159,551 L 158,552 L 158,553 L 157,554 L 157,555 L 156,556 L 156,557 L 155,558 L 155,559 L 153,561 L 153,562 L 152,563 L 152,564 L 150,566 L 150,567 L 148,569 L 148,570 L 145,573 L 145,574 L 140,579 L 140,580 L 139,581 L 138,581 L 131,588 L 130,588 L 127,591 L 126,591 L 125,592 L 124,592 L 122,594 L 121,594 L 120,595 L 119,595 L 118,596 L 117,596 L 116,597 L 115,597 L 114,598 L 112,598 L 111,599 L 109,599 L 108,600 L 106,600 L 105,601 L 102,601 L 101,602 L 84,602 L 83,601 L 80,601 L 79,600 L 78,600 L 77,599 L 76,599 L 75,598 L 74,598 L 73,597 L 72,597 L 69,594 L 68,594 L 62,588 L 62,587 L 61,587 L 60,586 L 58,588 L 58,600 L 59,601 L 59,603 L 60,604 L 60,605 L 61,606 L 61,607 L 62,608 L 62,609 L 63,610 L 63,611 L 64,612 L 64,613 L 68,617 L 68,618 L 69,618 L 74,623 L 75,623 L 77,625 L 78,625 L 80,627 L 78,629 L 78,631 L 82,635 L 83,635 L 84,636 L 85,636 L 86,637 L 87,637 L 88,638 L 89,638 L 90,639 L 92,639 L 93,640 L 95,640 L 96,641 L 100,641 L 101,642 L 113,642 L 114,643 L 113,644 L 112,644 L 111,645 L 111,647 L 112,648 L 113,648 L 114,649 L 121,649 L 122,648 L 127,648 L 128,647 L 130,647 L 131,646 L 133,646 L 134,645 L 135,645 L 136,644 L 137,644 L 139,642 L 140,642 L 141,641 L 142,641 L 144,639 L 145,639 L 147,637 L 148,638 L 148,640 L 149,641 L 153,641 L 154,640 L 155,640 L 156,639 L 157,639 L 158,638 L 159,638 L 161,636 L 162,636 L 176,622 L 176,621 L 178,619 L 178,618 L 180,616 L 180,615 L 181,614 L 181,613 L 182,612 L 184,614 L 184,615 L 185,616 L 186,616 L 190,612 L 190,611 L 192,609 L 192,608 L 194,606 L 194,605 L 195,604 L 195,603 L 197,601 L 197,600 L 198,599 L 198,597 L 199,596 L 199,595 L 200,594 L 200,593 L 201,592 L 201,590 L 202,589 L 202,588 L 203,587 L 203,585 L 204,584 L 204,582 L 205,581 L 205,578 L 206,577 L 206,575 L 207,574 L 207,571 L 208,570 L 208,567 L 209,566 L 209,563 L 210,562 L 210,558 L 211,557 L 211,553 L 212,552 L 212,548 L 213,547 L 213,542 L 214,541 L 214,535 L 215,534 L 215,528 L 216,527 L 216,521 L 217,520 L 218,520 L 219,521 L 220,521 L 221,522 L 221,526 L 220,527 L 220,535 L 219,536 L 219,545 L 218,546 L 218,561 L 220,561 L 221,562 L 222,562 L 223,561 L 224,561 L 225,562 L 225,563 L 224,564 L 224,570 L 223,571 L 223,574 L 222,575 L 222,579 L 221,580 L 221,584 L 220,585 L 220,588 L 219,589 L 219,591 L 218,592 L 218,594 L 217,595 L 217,597 L 216,598 L 216,600 L 215,601 L 215,602 L 214,603 L 214,605 L 213,606 L 213,607 L 212,608 L 212,609 L 211,610 L 211,611 L 210,612 L 210,613 L 209,614 L 209,615 L 208,616 L 208,618 L 207,619 L 207,620 L 205,622 L 205,623 L 204,624 L 204,625 L 203,626 L 203,627 L 201,629 L 201,630 L 200,631 L 200,632 L 198,634 L 198,635 L 196,637 L 196,638 L 194,640 L 194,641 L 191,644 L 191,645 L 189,647 L 189,648 L 187,650 L 187,651 L 182,656 L 182,657 L 176,663 L 176,664 L 172,668 L 172,669 L 170,671 L 170,672 L 169,673 L 169,674 L 167,676 L 167,678 L 166,679 L 166,695 L 167,696 L 167,712 L 166,713 L 166,729 L 165,730 L 165,740 L 164,741 L 164,749 L 163,750 L 163,757 L 162,758 L 162,764 L 161,765 L 161,771 L 160,772 L 160,781 L 159,782 L 159,802 L 160,803 L 160,807 L 161,808 L 161,810 L 162,811 L 162,812 L 163,813 L 163,814 L 164,815 L 164,816 L 170,822 L 171,822 L 173,824 L 174,824 L 175,825 L 177,825 L 178,826 L 181,826 L 182,827 L 187,827 L 188,828 L 203,828 L 204,829 L 205,828 L 222,828 L 223,827 L 229,827 L 230,826 L 232,826 L 233,825 L 235,825 L 236,824 L 237,824 L 238,823 L 239,823 L 240,822 L 241,822 L 242,821 L 242,820 L 243,819 L 243,818 L 244,817 L 244,805 L 243,804 L 243,802 L 242,801 L 242,800 L 241,799 L 241,797 L 240,796 L 240,795 L 238,793 L 238,792 L 236,790 L 236,789 L 230,783 L 229,783 L 228,782 L 227,782 L 225,780 L 223,780 L 222,779 L 220,779 L 219,778 L 216,778 L 213,775 L 213,773 L 212,772 L 212,768 L 211,767 L 211,756 L 212,755 L 212,746 L 213,745 L 213,741 L 214,740 L 214,736 L 215,735 L 215,733 L 216,732 L 216,729 L 217,728 L 217,727 L 218,726 L 218,724 L 219,723 L 219,722 L 220,721 L 220,719 L 221,718 L 221,717 L 222,716 L 222,715 L 223,714 L 223,713 L 224,712 L 224,711 L 225,710 L 225,709 L 226,708 L 226,707 L 227,706 L 227,705 L 228,704 L 228,703 L 229,702 L 229,701 L 231,699 L 231,698 L 233,696 L 233,695 L 234,694 L 234,693 L 236,691 L 236,690 L 238,688 L 238,687 L 240,685 L 240,684 L 243,681 L 243,680 L 246,677 L 246,676 L 249,673 L 249,672 L 253,668 L 253,667 L 257,663 L 257,662 L 264,655 L 264,654 L 294,624 L 295,624 L 298,621 L 298,620 L 299,619 L 300,619 L 301,620 L 300,621 L 300,624 L 299,625 L 299,627 L 298,628 L 298,630 L 297,631 L 297,633 L 296,634 L 296,635 L 295,636 L 295,638 L 294,639 L 294,640 L 292,642 L 292,643 L 291,644 L 291,645 L 290,646 L 290,647 L 289,648 L 289,649 L 287,651 L 287,652 L 286,653 L 286,654 L 285,655 L 285,656 L 283,658 L 283,659 L 282,660 L 282,661 L 281,662 L 281,663 L 280,664 L 280,665 L 279,666 L 279,667 L 278,668 L 278,670 L 277,671 L 277,674 L 276,675 L 276,679 L 277,680 L 277,685 L 278,686 L 278,688 L 279,689 L 279,691 L 280,692 L 280,694 L 281,695 L 281,697 L 282,698 L 282,700 L 283,701 L 283,704 L 284,705 L 284,707 L 285,708 L 285,711 L 286,712 L 286,715 L 287,716 L 287,719 L 288,720 L 288,722 L 289,723 L 289,726 L 290,727 L 290,730 L 291,731 L 291,734 L 292,735 L 292,738 L 293,739 L 293,742 L 294,743 L 294,746 L 295,747 L 295,749 L 296,750 L 296,753 L 297,754 L 297,757 L 298,758 L 298,761 L 299,762 L 299,764 L 300,765 L 300,768 L 301,769 L 301,771 L 302,772 L 302,775 L 303,776 L 303,778 L 304,779 L 304,780 L 305,781 L 305,783 L 306,784 L 306,785 L 307,786 L 307,787 L 308,788 L 308,789 L 309,790 L 309,791 L 316,798 L 317,798 L 318,799 L 319,799 L 320,800 L 322,800 L 323,801 L 326,801 L 327,802 L 332,802 L 333,803 L 363,803 L 364,802 L 371,802 L 372,801 L 378,801 L 379,800 L 381,800 L 382,799 L 383,799 L 384,798 L 385,798 L 386,797 L 386,796 L 387,795 L 387,792 L 388,791 L 388,787 L 387,786 L 387,782 L 386,781 L 386,779 L 385,778 L 385,776 L 384,775 L 384,774 L 383,773 L 383,772 L 381,770 L 381,769 L 380,768 L 380,767 L 374,761 L 373,761 L 371,759 L 370,759 L 369,758 L 368,758 L 367,757 L 364,757 L 363,756 L 357,756 L 356,755 L 349,755 L 345,751 L 345,750 L 344,749 L 344,748 L 343,747 L 343,746 L 342,745 L 342,743 L 341,742 L 341,741 L 340,740 L 340,738 L 339,737 L 339,735 L 338,734 L 338,731 L 337,730 L 337,728 L 336,727 L 336,724 L 335,723 L 335,718 L 334,717 L 334,710 L 333,709 L 333,696 L 334,695 L 334,689 L 335,688 L 335,685 L 336,684 L 336,681 L 337,680 L 337,679 L 338,678 L 338,676 L 339,675 L 339,674 L 340,673 L 340,671 L 341,670 L 341,669 L 342,668 L 342,667 L 343,666 L 343,665 L 344,664 L 344,663 L 345,662 L 345,661 L 347,659 L 347,658 L 348,657 L 348,656 L 350,654 L 350,653 L 352,651 L 352,650 L 354,648 L 354,647 L 357,644 L 357,643 L 361,639 L 361,638 L 364,635 L 364,634 L 368,630 L 368,629 L 372,625 L 372,624 L 376,620 L 376,619 L 379,616 L 379,615 L 382,612 L 382,611 L 384,609 L 384,608 L 387,605 L 387,604 L 389,602 L 389,601 L 391,599 L 391,598 L 392,597 L 392,596 L 394,594 L 394,593 L 395,592 L 395,591 L 397,589 L 397,588 L 398,587 L 398,586 L 400,584 L 400,583 L 401,582 L 401,581 L 403,579 L 403,578 L 404,577 L 404,576 L 405,575 L 405,574 L 406,573 L 406,572 L 407,571 L 407,570 L 408,569 L 408,568 L 409,567 L 409,566 L 410,565 L 410,564 L 411,563 L 411,562 L 412,561 L 412,559 L 413,558 L 413,557 L 414,556 L 414,554 L 415,553 L 415,551 L 416,550 L 416,548 L 417,547 L 417,545 L 418,544 L 418,541 L 419,540 L 419,537 L 420,536 L 420,532 L 421,531 L 421,526 L 422,525 L 422,520 L 423,519 L 423,512 L 424,511 L 423,510 L 424,509 L 424,507 L 425,506 L 426,506 L 427,507 L 429,507 L 430,508 L 433,508 L 434,509 L 435,509 L 436,510 L 438,510 L 439,511 L 441,511 L 442,512 L 443,512 L 444,513 L 446,513 L 447,514 L 449,514 L 450,515 L 451,515 L 452,516 L 453,516 L 454,517 L 456,517 L 457,518 L 458,518 L 459,519 L 461,519 L 462,520 L 464,520 L 465,521 L 467,521 L 468,522 L 469,522 L 470,523 L 469,524 L 468,524 L 467,525 L 467,526 L 472,531 L 473,531 L 475,533 L 476,533 L 477,534 L 478,534 L 479,535 L 480,535 L 481,536 L 483,536 L 484,537 L 485,537 L 486,538 L 489,538 L 490,539 L 493,539 L 494,540 L 504,540 L 505,541 L 506,540 L 507,540 L 508,541 L 506,543 L 500,543 L 499,544 L 499,546 L 501,548 L 502,548 L 503,549 L 505,549 L 506,550 L 509,550 L 510,551 L 515,551 L 516,552 L 528,552 L 529,553 L 533,553 L 534,554 L 533,555 L 532,555 L 532,556 L 533,557 L 533,558 L 534,558 L 536,560 L 538,560 L 539,561 L 542,561 L 543,562 L 547,562 L 548,563 L 572,563 L 573,564 L 572,565 L 569,565 L 568,566 L 566,566 L 564,568 L 567,571 L 569,571 L 570,572 L 573,572 L 574,573 L 584,573 L 585,574 L 586,574 L 587,573 L 597,573 L 598,574 L 598,578 L 600,578 L 601,579 L 605,579 L 606,578 L 610,578 L 611,577 L 612,577 L 613,576 L 614,576 L 615,575 L 616,576 L 617,576 L 618,575 L 619,575 L 620,574 L 622,574 L 623,573 L 624,574 L 624,577 L 623,578 L 623,581 L 622,582 L 622,593 L 623,594 L 623,595 L 624,596 L 624,597 L 625,598 L 629,598 L 630,599 L 630,601 L 632,603 L 632,605 L 631,606 L 631,611 L 630,612 L 630,636 L 631,637 L 635,637 L 635,634 L 637,632 L 638,632 L 639,633 L 639,636 L 638,637 L 638,643 L 637,644 L 637,650 L 636,651 L 636,659 L 635,660 L 635,670 L 636,671 L 636,674 L 637,675 L 637,676 L 638,677 L 640,677 L 641,678 L 642,677 L 642,676 L 643,675 L 644,675 L 645,676 L 645,681 L 644,682 L 645,683 L 645,685 L 644,686 L 644,707 L 643,708 L 643,720 L 642,721 L 642,727 L 641,728 L 641,733 L 640,734 L 640,738 L 639,739 L 639,741 L 640,742 L 640,744 L 641,745 L 643,745 L 644,746 L 644,751 L 643,752 L 643,761 L 644,762 L 644,764 L 645,765 L 645,766 L 649,770 L 653,770 L 654,769 L 656,771 L 656,772 L 657,773 L 657,774 L 658,775 L 658,778 L 659,779 L 659,782 L 660,783 L 660,786 L 661,787 L 661,791 L 662,792 L 662,796 L 663,797 L 663,802 L 664,803 L 664,807 L 665,808 L 665,811 L 666,812 L 666,815 L 667,816 L 667,818 L 668,819 L 668,820 L 669,821 L 669,822 L 670,823 L 670,824 L 675,829 L 676,829 L 677,830 L 678,830 L 679,831 L 681,831 L 682,832 L 684,832 L 685,833 L 688,833 L 689,834 L 693,834 L 694,835 L 700,835 L 701,836 L 726,836 L 727,835 L 733,835 L 734,834 L 737,834 L 738,833 L 742,833 L 743,832 L 745,832 L 746,831 L 748,831 L 749,830 L 750,830 L 753,827 L 753,826 L 754,825 L 754,824 L 755,823 L 755,817 L 756,816 L 774,816 L 775,815 L 784,815 L 785,814 L 790,814 L 791,813 L 795,813 L 796,812 L 799,812 L 800,811 L 802,811 L 803,810 L 804,810 L 805,809 L 806,809 L 809,806 L 809,805 L 810,804 L 810,794 L 809,793 L 809,790 L 808,789 L 808,787 L 807,786 L 807,785 L 806,784 L 806,783 L 805,782 L 805,781 L 803,779 L 803,778 L 795,770 L 794,770 L 792,768 L 791,768 L 790,767 L 788,767 L 787,766 L 785,766 L 784,765 L 765,765 L 762,762 L 762,761 L 760,759 L 760,758 L 759,757 L 759,755 L 758,754 L 758,753 L 757,752 L 757,749 L 756,748 L 756,745 L 755,744 L 755,739 L 754,738 L 754,727 L 753,726 L 753,711 L 754,710 L 754,685 L 755,684 L 755,671 L 756,670 L 756,659 L 757,658 L 757,649 L 758,648 L 758,639 L 759,638 L 759,630 L 760,629 L 760,622 L 761,621 L 761,613 L 762,612 L 762,607 L 763,606 L 763,599 L 764,598 L 764,593 L 765,592 L 765,586 L 766,585 L 766,579 L 767,578 L 767,572 L 768,571 L 768,567 L 769,566 L 769,562 L 770,561 L 770,557 L 771,556 L 771,552 L 772,551 L 772,547 L 773,546 L 773,544 L 774,543 L 774,542 L 775,541 L 775,540 L 778,537 L 778,536 L 780,534 L 781,535 L 781,539 L 783,539 L 786,536 L 787,536 L 787,535 L 790,532 L 790,531 L 792,529 L 792,528 L 793,527 L 793,526 L 794,525 L 794,524 L 795,523 L 795,522 L 796,521 L 796,519 L 797,518 L 797,517 L 798,516 L 798,514 L 799,513 L 799,510 L 800,509 L 800,506 L 801,505 L 801,500 L 803,498 L 805,498 L 807,496 L 807,495 L 808,494 L 808,493 L 809,492 L 809,490 L 810,489 L 810,487 L 811,486 L 811,483 L 812,482 L 812,478 L 813,477 L 813,470 L 814,469 L 814,447 L 815,446 L 816,446 L 817,447 L 818,447 L 819,448 L 825,448 L 826,447 L 824,445 L 824,444 L 822,442 L 822,441 L 821,440 L 821,438 L 820,437 L 820,434 L 819,433 L 819,401 L 818,400 L 818,397 L 819,396 L 823,396 L 823,395 L 824,394 L 824,392 L 825,391 L 825,388 L 826,387 L 826,383 L 827,382 L 827,375 L 828,374 L 828,345 L 827,344 L 827,339 L 828,338 L 829,339 L 830,339 L 831,340 L 832,340 L 833,341 L 838,341 L 839,340 L 839,338 L 836,335 L 836,334 L 835,333 L 835,332 L 834,331 L 834,329 L 833,328 L 833,322 L 832,321 L 832,308 L 833,307 L 833,300 L 834,299 L 834,294 L 835,293 L 835,290 L 836,289 L 836,288 L 838,286 L 842,290 L 842,291 L 849,298 L 850,298 L 851,297 L 852,297 L 852,296 L 853,295 L 861,303 L 861,304 L 863,306 L 863,307 L 867,311 L 868,311 L 869,312 L 870,312 L 873,309 L 874,309 L 881,316 L 882,316 L 884,318 L 889,318 L 890,317 L 892,319 L 892,320 L 900,328 L 903,328 L 904,327 L 905,327 L 910,332 L 913,332 L 913,328 L 914,327 L 914,322 L 915,321 L 915,318 L 916,317 L 916,316 L 917,315 L 918,316 L 918,317 L 919,318 L 919,321 L 920,322 L 920,325 L 922,325 L 922,324 L 923,323 L 923,322 L 924,321 L 924,320 L 925,319 L 925,318 L 926,317 L 926,316 L 927,315 L 927,314 L 929,312 L 929,311 L 930,310 L 930,309 L 933,306 L 933,305 L 936,302 L 936,301 L 937,300 L 937,299 L 939,297 L 939,296 L 940,295 L 940,294 L 941,293 L 941,292 L 942,291 L 942,290 L 943,289 L 943,288 L 944,287 L 944,286 L 946,284 L 947,285 L 947,286 L 949,288 L 951,288 L 951,287 L 953,285 L 953,284 L 955,282 L 955,281 L 956,280 L 956,279 L 957,278 L 957,276 L 958,275 L 958,273 L 959,272 L 959,268 L 960,267 L 960,255 L 963,252 L 963,251 L 964,250 L 964,249 L 966,247 L 966,245 L 967,244 L 967,242 L 968,241 L 968,236 L 967,235 L 967,233 L 965,231 L 965,230 L 962,227 L 961,227 L 957,223 L 956,223 L 954,221 L 953,221 L 950,218 L 949,218 L 947,216 L 946,216 L 944,214 L 943,214 L 941,212 L 940,212 L 938,210 L 937,210 L 936,209 L 935,209 L 933,207 L 932,207 L 931,206 L 930,206 L 929,205 L 928,205 L 926,203 L 925,203 L 924,202 L 923,202 L 922,201 L 921,201 L 920,200 L 919,200 L 917,198 L 916,198 L 915,197 L 914,197 L 912,195 L 911,195 L 910,194 L 909,194 L 907,192 L 906,192 L 904,190 L 903,190 L 896,183 L 896,182 L 895,181 L 895,178 L 897,176 L 899,176 L 900,175 L 901,175 L 902,176 L 903,176 L 904,177 L 905,177 L 906,178 L 907,178 L 908,179 L 909,179 L 909,178 L 910,177 L 911,178 L 911,180 L 912,181 L 912,182 L 913,182 L 913,181 L 914,180 L 914,176 L 913,175 L 913,173 L 912,172 L 912,170 L 911,169 L 911,168 L 909,166 L 909,165 L 904,160 L 904,159 L 903,159 L 901,157 L 900,157 L 898,155 L 899,154 L 901,154 L 902,155 L 903,155 L 904,156 L 905,156 L 906,155 L 905,154 L 905,153 L 904,152 L 903,152 L 901,150 L 900,150 L 899,149 L 898,149 L 897,148 L 893,148 L 892,147 L 888,147 L 887,148 L 883,148 L 882,149 L 879,149 L 878,148 L 876,148 L 875,147 L 874,147 L 873,146 L 872,146 L 871,145 L 870,145 L 869,144 L 867,144 L 866,143 L 864,143 L 863,142 L 862,142 L 861,141 L 859,141 L 858,140 L 855,140 L 854,139 L 853,139 L 852,138 L 848,138 L 847,137 L 844,137 L 843,136 L 840,136 L 839,135 L 836,135 L 835,134 L 831,134 L 830,133 L 825,133 L 824,132 L 819,132 L 818,131 L 811,131 L 810,130 Z" fill="black" /></svg>