<?xml version="1.0" encoding="utf-8" ?>
<svg baseProfile="full" height="1024" version="1.1" width="1024" xmlns="http://www.w3.org/2000/svg" xmlns:ev="http://www.w3.org/2001/xml-events" xmlns:xlink="http://www.w3.org/1999/xlink"><defs /><path d="M 771,126 L 770,127 L 766,127 L 765,128 L 763,128 L 762,129 L 761,129 L 760,130 L 759,130 L 758,131 L 757,131 L 756,132 L 755,132 L 748,139 L 748,140 L 746,142 L 745,141 L 732,141 L 731,140 L 723,140 L 722,141 L 686,141 L 685,142 L 681,142 L 680,141 L 679,141 L 678,140 L 678,139 L 676,137 L 676,136 L 675,135 L 674,135 L 672,133 L 671,133 L 670,132 L 669,132 L 668,131 L 666,131 L 665,130 L 650,130 L 649,131 L 644,131 L 643,132 L 639,132 L 638,133 L 634,133 L 633,134 L 630,134 L 629,135 L 626,135 L 625,136 L 623,136 L 622,137 L 619,137 L 618,138 L 616,138 L 615,139 L 613,139 L 612,140 L 610,140 L 609,141 L 606,141 L 605,142 L 604,142 L 603,143 L 601,143 L 600,144 L 598,144 L 597,145 L 596,145 L 595,146 L 593,146 L 592,147 L 590,147 L 589,148 L 588,148 L 587,149 L 586,149 L 585,150 L 583,150 L 582,151 L 580,151 L 579,152 L 577,152 L 576,153 L 574,153 L 573,154 L 572,154 L 571,155 L 569,155 L 568,156 L 567,156 L 566,157 L 564,157 L 563,158 L 562,158 L 561,159 L 559,159 L 558,160 L 556,160 L 554,162 L 552,162 L 550,164 L 548,164 L 546,166 L 545,166 L 541,170 L 541,171 L 539,173 L 539,174 L 538,175 L 538,178 L 537,179 L 537,186 L 538,187 L 538,189 L 539,190 L 539,192 L 540,193 L 540,194 L 542,196 L 542,197 L 544,199 L 544,200 L 547,203 L 547,204 L 551,208 L 551,209 L 555,213 L 555,214 L 564,223 L 564,224 L 575,235 L 575,236 L 576,236 L 579,239 L 579,240 L 581,242 L 581,247 L 580,248 L 580,251 L 579,252 L 579,256 L 578,257 L 578,259 L 577,260 L 577,262 L 576,263 L 576,265 L 575,266 L 575,268 L 574,269 L 574,271 L 573,272 L 573,273 L 572,274 L 572,276 L 571,277 L 571,278 L 570,279 L 570,281 L 569,282 L 569,284 L 568,285 L 568,286 L 567,287 L 567,289 L 566,290 L 566,291 L 565,292 L 565,294 L 564,295 L 564,296 L 563,297 L 563,299 L 562,300 L 562,301 L 561,302 L 561,304 L 560,305 L 560,306 L 559,307 L 559,309 L 558,310 L 558,311 L 557,312 L 557,314 L 556,315 L 556,316 L 555,317 L 555,318 L 554,319 L 554,321 L 553,322 L 553,323 L 552,324 L 552,326 L 551,327 L 551,328 L 550,329 L 550,330 L 549,331 L 549,332 L 548,333 L 548,334 L 547,335 L 547,336 L 546,337 L 546,339 L 545,340 L 545,341 L 544,342 L 544,343 L 543,344 L 543,345 L 542,346 L 542,347 L 541,348 L 541,349 L 539,351 L 539,352 L 538,353 L 538,354 L 534,358 L 533,358 L 531,360 L 530,360 L 527,363 L 526,363 L 523,366 L 522,366 L 520,368 L 519,368 L 518,369 L 517,369 L 515,371 L 514,371 L 513,372 L 511,372 L 510,373 L 509,373 L 508,374 L 507,374 L 506,375 L 505,375 L 504,376 L 502,376 L 501,377 L 499,377 L 498,378 L 496,378 L 495,379 L 493,379 L 492,380 L 489,380 L 488,381 L 485,381 L 484,382 L 480,382 L 479,383 L 476,383 L 475,384 L 471,384 L 470,385 L 465,385 L 464,386 L 456,386 L 455,387 L 445,387 L 444,388 L 440,388 L 439,387 L 438,387 L 437,388 L 432,388 L 431,387 L 430,388 L 424,388 L 423,387 L 410,387 L 409,386 L 399,386 L 398,385 L 389,385 L 388,384 L 381,384 L 380,383 L 379,384 L 378,383 L 373,383 L 372,382 L 371,383 L 370,383 L 369,382 L 364,382 L 363,381 L 354,381 L 353,380 L 338,380 L 337,379 L 307,379 L 306,380 L 292,380 L 291,379 L 288,379 L 287,378 L 286,378 L 285,377 L 284,377 L 283,376 L 282,376 L 280,374 L 279,374 L 270,365 L 270,364 L 268,362 L 268,360 L 267,359 L 267,358 L 266,357 L 266,356 L 265,355 L 265,353 L 264,352 L 264,350 L 263,349 L 263,346 L 262,345 L 262,340 L 261,339 L 261,335 L 260,334 L 260,314 L 261,313 L 261,307 L 262,306 L 262,301 L 263,300 L 263,297 L 264,296 L 264,292 L 265,291 L 265,287 L 266,286 L 266,284 L 267,283 L 267,281 L 268,280 L 268,278 L 269,277 L 269,275 L 270,274 L 270,273 L 271,272 L 271,270 L 272,269 L 272,267 L 273,266 L 273,260 L 274,259 L 273,258 L 274,257 L 274,251 L 273,250 L 273,247 L 272,246 L 272,245 L 271,244 L 271,243 L 266,238 L 265,238 L 264,237 L 263,237 L 262,236 L 256,236 L 255,237 L 252,237 L 251,238 L 250,238 L 249,239 L 247,239 L 246,240 L 245,240 L 244,241 L 242,241 L 240,243 L 239,243 L 238,244 L 237,244 L 235,246 L 234,246 L 232,248 L 231,248 L 225,254 L 224,254 L 223,255 L 223,256 L 216,263 L 216,264 L 213,267 L 213,268 L 211,270 L 211,271 L 209,273 L 209,274 L 207,276 L 207,277 L 206,278 L 206,279 L 204,281 L 204,282 L 203,283 L 203,284 L 202,285 L 202,286 L 201,287 L 201,289 L 200,290 L 200,291 L 199,292 L 199,293 L 198,294 L 198,296 L 197,297 L 197,299 L 196,300 L 196,302 L 195,303 L 195,306 L 194,307 L 194,309 L 193,310 L 193,314 L 192,315 L 192,319 L 191,320 L 191,331 L 190,332 L 190,346 L 191,347 L 191,358 L 192,359 L 192,364 L 193,365 L 193,368 L 194,369 L 194,372 L 195,373 L 195,376 L 196,377 L 196,379 L 197,380 L 197,382 L 198,383 L 198,386 L 199,387 L 199,388 L 200,389 L 200,390 L 201,391 L 201,393 L 203,395 L 203,397 L 205,399 L 205,400 L 206,401 L 206,402 L 207,403 L 207,404 L 208,405 L 208,406 L 210,408 L 210,409 L 212,411 L 212,412 L 214,414 L 214,415 L 215,416 L 215,417 L 216,418 L 216,420 L 215,421 L 215,422 L 214,423 L 213,423 L 213,424 L 208,429 L 208,430 L 204,434 L 204,435 L 200,439 L 200,440 L 196,444 L 196,445 L 194,447 L 194,448 L 191,451 L 191,452 L 188,455 L 188,456 L 186,458 L 186,459 L 184,461 L 184,462 L 182,464 L 182,465 L 181,466 L 181,467 L 179,469 L 179,470 L 178,471 L 178,472 L 177,473 L 177,474 L 175,476 L 175,477 L 174,478 L 174,480 L 172,482 L 172,484 L 171,485 L 171,486 L 170,487 L 170,488 L 169,489 L 169,491 L 168,492 L 168,493 L 167,494 L 167,496 L 166,497 L 166,499 L 165,500 L 165,502 L 164,503 L 164,505 L 163,506 L 163,509 L 162,510 L 162,512 L 161,513 L 161,517 L 160,518 L 160,523 L 159,524 L 159,528 L 158,529 L 158,534 L 157,535 L 157,541 L 156,542 L 156,551 L 155,552 L 155,562 L 154,563 L 154,573 L 153,574 L 153,589 L 152,590 L 152,596 L 153,597 L 152,598 L 152,607 L 151,608 L 151,617 L 150,618 L 150,626 L 149,627 L 149,633 L 148,634 L 148,639 L 147,640 L 147,643 L 146,644 L 146,647 L 145,648 L 145,650 L 144,651 L 144,653 L 143,654 L 143,655 L 142,656 L 142,657 L 141,658 L 141,659 L 139,661 L 139,662 L 136,665 L 136,666 L 134,668 L 134,669 L 129,674 L 129,675 L 127,677 L 127,678 L 126,679 L 126,680 L 124,682 L 124,684 L 123,685 L 123,686 L 122,687 L 122,689 L 121,690 L 121,696 L 120,697 L 120,707 L 121,708 L 121,712 L 120,713 L 120,727 L 119,728 L 119,739 L 118,740 L 118,748 L 117,749 L 117,755 L 116,756 L 116,762 L 115,763 L 115,769 L 114,770 L 114,776 L 113,777 L 113,783 L 112,784 L 112,790 L 111,791 L 111,799 L 110,800 L 110,813 L 111,814 L 111,818 L 112,819 L 112,820 L 113,821 L 113,823 L 114,824 L 114,825 L 117,828 L 117,829 L 119,831 L 120,831 L 123,834 L 124,834 L 126,836 L 127,836 L 128,837 L 129,837 L 130,838 L 131,838 L 132,839 L 134,839 L 135,840 L 138,840 L 139,841 L 143,841 L 144,842 L 153,842 L 154,843 L 155,842 L 156,843 L 166,843 L 167,842 L 176,842 L 177,841 L 181,841 L 182,840 L 184,840 L 185,839 L 187,839 L 188,838 L 189,838 L 190,837 L 191,837 L 193,835 L 194,835 L 198,831 L 198,830 L 199,829 L 199,828 L 200,827 L 200,826 L 201,825 L 201,813 L 200,812 L 200,810 L 199,809 L 199,807 L 198,806 L 198,804 L 197,803 L 197,802 L 196,801 L 196,800 L 195,799 L 195,798 L 194,797 L 194,796 L 190,792 L 190,791 L 183,784 L 183,783 L 178,778 L 178,775 L 177,774 L 177,764 L 178,763 L 178,758 L 179,757 L 179,752 L 180,751 L 180,748 L 181,747 L 181,742 L 182,741 L 182,737 L 183,736 L 183,732 L 184,731 L 184,728 L 185,727 L 185,724 L 186,723 L 186,721 L 187,720 L 187,719 L 190,716 L 190,715 L 194,711 L 194,710 L 197,707 L 198,707 L 210,695 L 211,695 L 219,687 L 220,687 L 264,643 L 264,642 L 272,634 L 272,633 L 275,630 L 275,629 L 279,625 L 279,624 L 282,621 L 282,620 L 284,618 L 284,617 L 287,614 L 287,613 L 288,612 L 289,613 L 289,615 L 290,616 L 290,620 L 291,621 L 291,636 L 290,637 L 290,641 L 289,642 L 289,645 L 288,646 L 288,648 L 287,649 L 287,651 L 286,652 L 286,654 L 285,655 L 285,656 L 284,657 L 284,658 L 283,659 L 283,660 L 282,661 L 282,662 L 281,663 L 281,664 L 280,665 L 280,666 L 279,667 L 279,668 L 278,669 L 278,670 L 276,672 L 276,673 L 275,674 L 275,675 L 274,676 L 274,677 L 273,678 L 273,679 L 272,680 L 272,681 L 271,682 L 271,683 L 270,684 L 270,685 L 269,686 L 269,688 L 268,689 L 268,691 L 267,692 L 267,699 L 266,700 L 266,701 L 267,702 L 267,709 L 268,710 L 268,714 L 269,715 L 269,717 L 270,718 L 270,721 L 271,722 L 271,724 L 272,725 L 272,727 L 273,728 L 273,730 L 274,731 L 274,735 L 275,736 L 275,741 L 276,742 L 276,746 L 277,747 L 277,752 L 278,753 L 278,759 L 279,760 L 279,766 L 280,767 L 280,772 L 281,773 L 281,779 L 282,780 L 282,784 L 283,785 L 283,789 L 284,790 L 284,793 L 285,794 L 285,796 L 286,797 L 286,799 L 287,800 L 287,801 L 288,802 L 288,803 L 289,804 L 289,805 L 290,806 L 290,807 L 292,809 L 292,810 L 294,812 L 295,812 L 297,814 L 298,814 L 299,815 L 300,815 L 301,816 L 303,816 L 304,817 L 308,817 L 309,818 L 316,818 L 317,819 L 340,819 L 341,818 L 351,818 L 352,817 L 356,817 L 357,816 L 358,816 L 359,815 L 361,815 L 362,814 L 363,814 L 366,811 L 366,810 L 367,809 L 367,808 L 368,807 L 368,805 L 369,804 L 369,794 L 368,793 L 368,790 L 367,789 L 367,787 L 366,786 L 366,785 L 365,784 L 365,783 L 362,780 L 362,779 L 360,777 L 359,777 L 357,775 L 356,775 L 354,773 L 353,773 L 352,772 L 350,772 L 349,771 L 348,771 L 347,770 L 345,770 L 344,769 L 342,769 L 341,768 L 340,768 L 339,767 L 338,767 L 336,765 L 335,765 L 331,761 L 331,759 L 330,758 L 330,757 L 329,756 L 329,755 L 328,754 L 328,753 L 327,752 L 327,750 L 326,749 L 326,744 L 325,743 L 325,722 L 326,721 L 326,717 L 327,716 L 327,715 L 328,714 L 328,712 L 329,711 L 329,710 L 330,709 L 330,707 L 332,705 L 332,704 L 333,703 L 333,702 L 335,700 L 335,699 L 338,696 L 338,695 L 361,672 L 361,671 L 366,666 L 366,665 L 369,662 L 369,661 L 372,658 L 372,657 L 375,654 L 375,653 L 377,651 L 377,650 L 378,649 L 378,648 L 380,646 L 380,645 L 381,644 L 381,643 L 382,642 L 382,641 L 384,639 L 384,638 L 385,637 L 385,636 L 386,635 L 386,634 L 387,633 L 387,632 L 388,631 L 388,630 L 389,629 L 389,628 L 390,627 L 390,626 L 391,625 L 391,624 L 392,623 L 392,621 L 393,620 L 394,621 L 395,621 L 396,622 L 397,622 L 399,624 L 400,624 L 401,625 L 402,625 L 403,626 L 404,626 L 406,628 L 407,628 L 408,629 L 409,629 L 411,631 L 412,631 L 413,632 L 414,632 L 416,634 L 417,634 L 419,636 L 420,636 L 422,638 L 423,638 L 425,640 L 426,640 L 427,641 L 428,641 L 430,643 L 431,643 L 433,645 L 434,645 L 436,647 L 437,647 L 439,649 L 440,649 L 441,650 L 442,650 L 444,652 L 445,652 L 446,653 L 447,653 L 449,655 L 450,655 L 451,656 L 452,656 L 454,658 L 455,658 L 456,659 L 457,659 L 458,660 L 459,660 L 461,662 L 462,662 L 463,663 L 464,663 L 465,664 L 466,664 L 467,665 L 468,665 L 469,666 L 470,666 L 471,667 L 472,667 L 473,668 L 474,668 L 478,672 L 478,677 L 479,678 L 479,683 L 480,684 L 480,689 L 481,690 L 481,695 L 482,696 L 482,701 L 483,702 L 482,703 L 482,704 L 483,705 L 483,710 L 484,711 L 484,720 L 485,721 L 485,732 L 486,733 L 486,746 L 487,747 L 487,762 L 488,763 L 488,806 L 489,807 L 489,809 L 490,810 L 490,811 L 491,812 L 491,813 L 496,818 L 496,819 L 497,820 L 497,822 L 498,823 L 498,835 L 499,836 L 499,864 L 500,865 L 500,867 L 501,868 L 501,871 L 502,872 L 502,873 L 503,874 L 503,876 L 504,877 L 504,878 L 506,880 L 506,881 L 512,887 L 513,887 L 516,890 L 517,890 L 518,891 L 519,891 L 520,892 L 521,892 L 522,893 L 523,893 L 524,894 L 528,894 L 529,895 L 531,895 L 532,896 L 538,896 L 539,897 L 578,897 L 579,896 L 583,896 L 584,895 L 587,895 L 588,894 L 590,894 L 591,893 L 593,893 L 594,892 L 595,892 L 596,891 L 597,891 L 599,889 L 600,889 L 604,885 L 604,884 L 605,883 L 605,882 L 606,881 L 606,880 L 607,879 L 607,867 L 606,866 L 606,864 L 605,863 L 605,861 L 604,860 L 604,859 L 603,858 L 603,857 L 602,856 L 602,855 L 600,853 L 600,852 L 598,850 L 598,849 L 595,846 L 595,845 L 589,839 L 588,839 L 583,834 L 582,834 L 577,829 L 577,828 L 575,826 L 575,825 L 573,823 L 573,822 L 572,821 L 572,819 L 571,818 L 571,815 L 570,814 L 570,809 L 569,808 L 569,799 L 568,798 L 568,750 L 569,749 L 569,740 L 570,739 L 570,735 L 571,734 L 570,733 L 571,732 L 571,725 L 572,724 L 572,719 L 573,718 L 573,713 L 574,712 L 574,704 L 575,703 L 575,697 L 576,696 L 576,691 L 577,690 L 577,687 L 578,686 L 578,683 L 579,682 L 579,681 L 581,679 L 591,679 L 592,678 L 596,678 L 597,677 L 601,677 L 602,676 L 605,676 L 606,675 L 610,675 L 611,674 L 613,674 L 614,673 L 616,673 L 617,672 L 620,672 L 621,671 L 623,671 L 624,670 L 626,670 L 627,669 L 629,669 L 630,668 L 631,669 L 631,722 L 632,723 L 632,771 L 631,772 L 631,783 L 632,784 L 631,785 L 632,786 L 632,788 L 633,789 L 633,790 L 634,791 L 634,792 L 636,794 L 636,795 L 644,803 L 644,804 L 645,805 L 645,807 L 646,808 L 646,812 L 647,813 L 647,816 L 648,817 L 648,821 L 649,822 L 649,825 L 650,826 L 650,829 L 651,830 L 651,832 L 652,833 L 652,835 L 653,836 L 653,837 L 654,838 L 654,840 L 655,841 L 655,842 L 656,843 L 656,844 L 658,846 L 658,847 L 659,848 L 659,849 L 666,856 L 666,857 L 667,857 L 670,860 L 671,860 L 673,862 L 674,862 L 675,863 L 676,863 L 677,864 L 679,864 L 680,865 L 682,865 L 683,866 L 686,866 L 687,867 L 691,867 L 692,868 L 696,868 L 697,869 L 698,868 L 699,869 L 720,869 L 721,868 L 730,868 L 731,867 L 736,867 L 737,866 L 740,866 L 741,865 L 743,865 L 744,864 L 745,864 L 746,863 L 747,863 L 748,862 L 749,862 L 751,860 L 752,860 L 757,855 L 757,854 L 758,853 L 758,850 L 759,849 L 759,842 L 758,841 L 758,838 L 757,837 L 757,835 L 756,834 L 756,833 L 755,832 L 755,830 L 753,828 L 753,827 L 750,824 L 750,823 L 745,818 L 744,818 L 740,814 L 739,814 L 738,813 L 737,813 L 736,812 L 735,812 L 734,811 L 732,811 L 731,810 L 729,810 L 728,809 L 726,809 L 725,808 L 723,808 L 722,807 L 719,807 L 718,806 L 717,806 L 714,803 L 714,802 L 713,801 L 713,800 L 712,799 L 712,797 L 711,796 L 711,794 L 710,793 L 710,788 L 709,787 L 709,782 L 708,781 L 708,774 L 707,773 L 707,756 L 708,755 L 708,746 L 709,745 L 709,740 L 710,739 L 710,735 L 711,734 L 711,730 L 712,729 L 712,726 L 713,725 L 713,722 L 714,721 L 714,717 L 715,716 L 715,713 L 716,712 L 716,709 L 717,708 L 717,704 L 718,703 L 718,701 L 719,700 L 719,696 L 720,695 L 720,692 L 721,691 L 721,687 L 722,686 L 722,682 L 723,681 L 723,676 L 724,675 L 724,672 L 725,671 L 725,666 L 726,665 L 726,659 L 727,658 L 727,654 L 728,653 L 728,644 L 729,643 L 729,635 L 730,634 L 730,631 L 731,630 L 731,629 L 732,628 L 732,627 L 733,626 L 733,625 L 734,624 L 734,623 L 735,622 L 735,620 L 736,619 L 736,618 L 737,617 L 737,616 L 738,615 L 738,614 L 739,613 L 739,612 L 740,611 L 740,609 L 741,608 L 741,607 L 742,606 L 742,604 L 743,603 L 743,601 L 744,600 L 744,598 L 745,597 L 745,595 L 746,594 L 746,591 L 747,590 L 747,588 L 748,587 L 748,584 L 749,583 L 749,578 L 750,577 L 750,573 L 751,572 L 751,549 L 752,548 L 752,538 L 751,537 L 751,523 L 750,522 L 750,514 L 749,513 L 749,508 L 748,507 L 748,502 L 747,501 L 748,500 L 747,499 L 747,496 L 746,495 L 746,494 L 747,493 L 746,492 L 746,489 L 745,488 L 745,482 L 744,481 L 744,475 L 743,474 L 743,468 L 742,467 L 742,454 L 741,453 L 741,415 L 742,414 L 742,409 L 743,408 L 743,405 L 744,404 L 744,402 L 745,401 L 745,400 L 747,398 L 747,397 L 748,396 L 750,396 L 751,395 L 752,396 L 753,395 L 754,396 L 756,396 L 757,397 L 759,397 L 760,398 L 761,398 L 762,399 L 764,399 L 765,400 L 767,400 L 768,401 L 769,401 L 770,402 L 772,402 L 774,404 L 776,404 L 777,405 L 779,405 L 780,406 L 781,406 L 782,407 L 784,407 L 785,408 L 787,408 L 788,409 L 790,409 L 791,410 L 793,410 L 794,411 L 795,411 L 796,412 L 799,412 L 800,413 L 802,413 L 803,414 L 805,414 L 806,415 L 809,415 L 810,416 L 814,416 L 815,417 L 821,417 L 822,418 L 831,418 L 832,417 L 837,417 L 838,416 L 842,416 L 843,415 L 844,415 L 845,414 L 847,414 L 848,413 L 849,413 L 850,412 L 851,412 L 852,411 L 853,411 L 855,409 L 856,409 L 858,407 L 859,407 L 865,401 L 866,401 L 870,397 L 871,397 L 872,396 L 873,396 L 875,394 L 877,394 L 878,393 L 879,393 L 880,392 L 881,392 L 883,390 L 884,390 L 886,388 L 887,388 L 892,383 L 892,382 L 895,379 L 895,378 L 896,377 L 896,376 L 897,375 L 897,374 L 898,373 L 898,372 L 899,371 L 899,369 L 900,368 L 900,365 L 901,364 L 901,352 L 902,351 L 902,347 L 903,346 L 903,345 L 904,344 L 904,343 L 905,342 L 905,341 L 907,339 L 907,338 L 908,337 L 908,335 L 909,334 L 909,324 L 908,323 L 908,322 L 907,321 L 907,320 L 906,319 L 906,318 L 897,309 L 896,309 L 892,305 L 891,305 L 885,299 L 884,299 L 878,293 L 877,293 L 869,285 L 868,285 L 860,277 L 859,277 L 854,272 L 853,272 L 848,267 L 847,267 L 843,263 L 843,262 L 842,261 L 842,243 L 841,242 L 841,241 L 842,240 L 843,241 L 845,241 L 846,242 L 847,242 L 848,243 L 850,243 L 851,244 L 858,244 L 859,243 L 861,243 L 864,240 L 864,239 L 865,238 L 865,233 L 864,232 L 864,229 L 863,228 L 863,226 L 862,225 L 862,218 L 861,217 L 861,203 L 862,202 L 862,200 L 861,199 L 861,198 L 862,197 L 862,189 L 863,188 L 863,180 L 862,179 L 862,172 L 861,171 L 861,167 L 860,166 L 860,165 L 859,164 L 859,162 L 856,159 L 856,158 L 855,157 L 854,157 L 851,154 L 850,154 L 849,153 L 848,153 L 847,152 L 846,152 L 845,151 L 844,151 L 843,150 L 841,150 L 840,149 L 839,149 L 838,148 L 836,148 L 835,147 L 834,147 L 833,146 L 831,146 L 830,145 L 828,145 L 827,144 L 825,144 L 824,143 L 823,143 L 822,142 L 819,142 L 818,141 L 816,141 L 815,140 L 813,140 L 812,139 L 810,139 L 809,138 L 807,138 L 806,137 L 805,137 L 804,136 L 803,136 L 802,135 L 800,135 L 798,133 L 796,133 L 795,132 L 794,132 L 793,131 L 792,131 L 791,130 L 790,130 L 789,129 L 787,129 L 786,128 L 785,128 L 784,127 L 779,127 L 778,126 Z" fill="black" /></svg>