<?xml version="1.0" encoding="utf-8" ?>
<svg baseProfile="full" height="1024" version="1.1" width="1024" xmlns="http://www.w3.org/2000/svg" xmlns:ev="http://www.w3.org/2001/xml-events" xmlns:xlink="http://www.w3.org/1999/xlink"><defs /><path d="M 985,1014 Z" fill="black" /><path d="M 720,1007 Z" fill="black" /><path d="M 657,1004 Z" fill="black" /><path d="M 911,982 Z" fill="black" /><path d="M 102,962 Z" fill="black" /><path d="M 274,941 Z" fill="black" /><path d="M 846,930 Z" fill="black" /><path d="M 7,918 Z" fill="black" /><path d="M 970,913 Z" fill="black" /><path d="M 281,906 Z" fill="black" /><path d="M 308,879 Z" fill="black" /><path d="M 25,878 Z" fill="black" /><path d="M 612,850 Z" fill="black" /><path d="M 767,846 Z" fill="black" /><path d="M 701,846 Z" fill="black" /><path d="M 725,841 Z" fill="black" /><path d="M 710,841 Z" fill="black" /><path d="M 739,840 L 742,840 Z" fill="black" /><path d="M 932,828 Z" fill="black" /><path d="M 191,826 Z" fill="black" /><path d="M 169,826 Z" fill="black" /><path d="M 160,826 Z" fill="black" /><path d="M 772,824 Z" fill="black" /><path d="M 214,824 Z" fill="black" /><path d="M 205,824 Z" fill="black" /><path d="M 202,824 L 203,824 Z" fill="black" /><path d="M 678,814 Z" fill="black" /><path d="M 99,814 Z" fill="black" /><path d="M 360,813 Z" fill="black" /><path d="M 472,812 Z" fill="black" /><path d="M 800,811 Z" fill="black" /><path d="M 819,809 Z" fill="black" /><path d="M 824,808 Z" fill="black" /><path d="M 239,806 Z" fill="black" /><path d="M 311,797 L 312,797 Z" fill="black" /><path d="M 353,795 Z" fill="black" /><path d="M 292,793 Z" fill="black" /><path d="M 133,793 Z" fill="black" /><path d="M 279,787 Z" fill="black" /><path d="M 428,786 Z" fill="black" /><path d="M 369,779 Z" fill="black" /><path d="M 489,772 Z" fill="black" /><path d="M 132,772 Z" fill="black" /><path d="M 197,771 Z" fill="black" /><path d="M 476,769 Z" fill="black" /><path d="M 595,760 Z" fill="black" /><path d="M 798,756 Z" fill="black" /><path d="M 367,752 Z" fill="black" /><path d="M 656,749 Z" fill="black" /><path d="M 191,746 L 191,748 Z" fill="black" /><path d="M 136,742 Z" fill="black" /><path d="M 339,741 Z" fill="black" /><path d="M 335,741 L 336,741 Z" fill="black" /><path d="M 192,739 Z" fill="black" /><path d="M 207,734 Z" fill="black" /><path d="M 648,733 Z" fill="black" /><path d="M 322,733 Z" fill="black" /><path d="M 137,732 Z" fill="black" /><path d="M 657,731 Z" fill="black" /><path d="M 783,725 L 783,726 Z" fill="black" /><path d="M 656,724 Z" fill="black" /><path d="M 195,724 Z" fill="black" /><path d="M 138,724 L 138,725 Z" fill="black" /><path d="M 264,721 Z" fill="black" /><path d="M 530,716 Z" fill="black" /><path d="M 139,715 Z" fill="black" /><path d="M 262,714 Z" fill="black" /><path d="M 250,712 Z" fill="black" /><path d="M 315,706 Z" fill="black" /><path d="M 654,704 Z" fill="black" /><path d="M 654,702 Z" fill="black" /><path d="M 1011,698 Z" fill="black" /><path d="M 257,696 Z" fill="black" /><path d="M 843,694 Z" fill="black" /><path d="M 927,690 Z" fill="black" /><path d="M 783,689 Z" fill="black" /><path d="M 315,689 Z" fill="black" /><path d="M 142,687 Z" fill="black" /><path d="M 516,686 Z" fill="black" /><path d="M 317,680 Z" fill="black" /><path d="M 598,674 Z" fill="black" /><path d="M 650,665 L 650,666 Z" fill="black" /><path d="M 785,664 Z" fill="black" /><path d="M 144,662 Z" fill="black" /><path d="M 785,661 Z" fill="black" /><path d="M 145,660 Z" fill="black" /><path d="M 649,656 Z" fill="black" /><path d="M 786,654 Z" fill="black" /><path d="M 460,654 Z" fill="black" /><path d="M 641,653 Z" fill="black" /><path d="M 582,649 Z" fill="black" /><path d="M 644,647 Z" fill="black" /><path d="M 344,646 Z" fill="black" /><path d="M 351,644 Z" fill="black" /><path d="M 500,640 Z" fill="black" /><path d="M 789,636 Z" fill="black" /><path d="M 108,623 Z" fill="black" /><path d="M 645,619 Z" fill="black" /><path d="M 792,614 Z" fill="black" /><path d="M 644,613 L 644,614 Z" fill="black" /><path d="M 793,610 L 793,611 Z" fill="black" /><path d="M 429,607 Z" fill="black" /><path d="M 794,604 Z" fill="black" /><path d="M 170,603 Z" fill="black" /><path d="M 378,602 Z" fill="black" /><path d="M 795,598 Z" fill="black" /><path d="M 193,596 Z" fill="black" /><path d="M 640,595 Z" fill="black" /><path d="M 623,594 Z" fill="black" /><path d="M 616,594 L 617,594 Z" fill="black" /><path d="M 613,594 Z" fill="black" /><path d="M 604,593 Z" fill="black" /><path d="M 598,592 L 599,592 Z" fill="black" /><path d="M 797,587 Z" fill="black" /><path d="M 801,586 Z" fill="black" /><path d="M 804,572 Z" fill="black" /><path d="M 521,572 Z" fill="black" /><path d="M 508,567 Z" fill="black" /><path d="M 984,560 Z" fill="black" /><path d="M 205,552 Z" fill="black" /><path d="M 465,547 Z" fill="black" /><path d="M 442,547 Z" fill="black" /><path d="M 816,546 Z" fill="black" /><path d="M 412,544 Z" fill="black" /><path d="M 206,543 Z" fill="black" /><path d="M 207,540 Z" fill="black" /><path d="M 824,537 Z" fill="black" /><path d="M 10,533 Z" fill="black" /><path d="M 829,525 Z" fill="black" /><path d="M 209,523 Z" fill="black" /><path d="M 211,505 L 211,506 Z" fill="black" /><path d="M 214,478 L 214,479 Z" fill="black" /><path d="M 844,477 Z" fill="black" /><path d="M 215,473 Z" fill="black" /><path d="M 164,461 Z" fill="black" /><path d="M 218,458 Z" fill="black" /><path d="M 860,457 Z" fill="black" /><path d="M 846,456 Z" fill="black" /><path d="M 220,450 Z" fill="black" /><path d="M 847,447 Z" fill="black" /><path d="M 105,425 Z" fill="black" /><path d="M 855,423 Z" fill="black" /><path d="M 856,420 Z" fill="black" /><path d="M 103,416 Z" fill="black" /><path d="M 236,414 Z" fill="black" /><path d="M 191,414 Z" fill="black" /><path d="M 189,414 Z" fill="black" /><path d="M 858,412 Z" fill="black" /><path d="M 167,411 Z" fill="black" /><path d="M 121,409 Z" fill="black" /><path d="M 59,406 Z" fill="black" /><path d="M 70,401 Z" fill="black" /><path d="M 124,398 Z" fill="black" /><path d="M 122,397 Z" fill="black" /><path d="M 87,391 Z" fill="black" /><path d="M 96,385 Z" fill="black" /><path d="M 864,382 L 864,383 Z" fill="black" /><path d="M 920,368 Z" fill="black" /><path d="M 867,366 Z" fill="black" /><path d="M 236,357 L 237,357 Z" fill="black" /><path d="M 266,356 Z" fill="black" /><path d="M 870,353 Z" fill="black" /><path d="M 191,353 L 193,353 Z" fill="black" /><path d="M 186,352 Z" fill="black" /><path d="M 184,352 Z" fill="black" /><path d="M 181,351 Z" fill="black" /><path d="M 179,351 Z" fill="black" /><path d="M 915,347 Z" fill="black" /><path d="M 310,346 Z" fill="black" /><path d="M 150,344 Z" fill="black" /><path d="M 147,343 Z" fill="black" /><path d="M 873,341 Z" fill="black" /><path d="M 547,338 L 548,338 Z" fill="black" /><path d="M 516,338 Z" fill="black" /><path d="M 565,337 L 566,337 Z" fill="black" /><path d="M 488,337 Z" fill="black" /><path d="M 575,336 Z" fill="black" /><path d="M 949,334 Z" fill="black" /><path d="M 493,334 Z" fill="black" /><path d="M 448,334 Z" fill="black" /><path d="M 361,334 L 362,334 Z" fill="black" /><path d="M 371,333 Z" fill="black" /><path d="M 876,332 Z" fill="black" /><path d="M 415,332 Z" fill="black" /><path d="M 413,332 Z" fill="black" /><path d="M 405,332 Z" fill="black" /><path d="M 384,332 Z" fill="black" /><path d="M 111,332 Z" fill="black" /><path d="M 619,328 Z" fill="black" /><path d="M 623,327 Z" fill="black" /><path d="M 105,327 Z" fill="black" /><path d="M 92,325 Z" fill="black" /><path d="M 633,324 L 634,324 Z" fill="black" /><path d="M 651,319 Z" fill="black" /><path d="M 507,319 Z" fill="black" /><path d="M 533,318 Z" fill="black" /><path d="M 890,317 Z" fill="black" /><path d="M 342,317 Z" fill="black" /><path d="M 507,316 Z" fill="black" /><path d="M 639,315 Z" fill="black" /><path d="M 906,314 Z" fill="black" /><path d="M 61,314 Z" fill="black" /><path d="M 434,311 Z" fill="black" /><path d="M 300,309 Z" fill="black" /><path d="M 56,307 Z" fill="black" /><path d="M 947,306 L 948,306 Z" fill="black" /><path d="M 372,303 Z" fill="black" /><path d="M 188,298 Z" fill="black" /><path d="M 683,297 Z" fill="black" /><path d="M 321,297 Z" fill="black" /><path d="M 194,294 Z" fill="black" /><path d="M 992,277 Z" fill="black" /><path d="M 995,269 Z" fill="black" /><path d="M 997,257 Z" fill="black" /><path d="M 706,257 Z" fill="black" /><path d="M 998,254 Z" fill="black" /><path d="M 710,249 Z" fill="black" /><path d="M 667,247 Z" fill="black" /><path d="M 625,224 Z" fill="black" /><path d="M 710,215 Z" fill="black" /><path d="M 979,213 L 980,213 Z" fill="black" /><path d="M 977,212 Z" fill="black" /><path d="M 712,208 Z" fill="black" /><path d="M 951,204 Z" fill="black" /><path d="M 946,202 Z" fill="black" /><path d="M 203,195 Z" fill="black" /><path d="M 923,172 Z" fill="black" /><path d="M 909,157 Z" fill="black" /><path d="M 768,142 Z" fill="black" /><path d="M 791,140 Z" fill="black" /><path d="M 813,139 L 812,140 L 804,140 L 803,141 L 797,141 L 796,142 L 792,142 L 791,143 L 787,143 L 786,144 L 783,144 L 782,145 L 780,145 L 779,146 L 777,146 L 776,147 L 774,147 L 773,148 L 771,148 L 770,149 L 769,149 L 768,150 L 766,150 L 765,151 L 764,151 L 763,152 L 762,152 L 760,154 L 759,154 L 756,157 L 755,157 L 750,162 L 750,163 L 739,174 L 738,174 L 726,186 L 726,187 L 723,190 L 723,191 L 721,193 L 721,194 L 720,195 L 720,196 L 718,198 L 718,199 L 717,200 L 717,202 L 716,203 L 716,204 L 715,205 L 715,207 L 714,208 L 714,211 L 713,212 L 713,215 L 712,216 L 712,226 L 713,227 L 713,230 L 714,231 L 714,233 L 715,234 L 715,235 L 716,236 L 716,237 L 717,238 L 717,240 L 716,241 L 716,242 L 715,243 L 715,244 L 714,245 L 714,246 L 713,247 L 713,248 L 712,249 L 712,250 L 711,251 L 711,252 L 710,253 L 710,254 L 709,255 L 709,256 L 708,257 L 708,258 L 707,259 L 707,260 L 706,261 L 706,262 L 705,263 L 705,264 L 704,265 L 704,266 L 703,267 L 703,269 L 701,271 L 701,273 L 700,274 L 700,275 L 698,277 L 698,279 L 696,281 L 696,282 L 695,283 L 695,284 L 694,285 L 694,286 L 692,288 L 692,289 L 690,291 L 690,292 L 687,295 L 687,296 L 683,300 L 683,301 L 677,307 L 676,307 L 671,312 L 670,312 L 668,314 L 667,314 L 666,315 L 665,315 L 664,316 L 663,316 L 662,317 L 661,317 L 660,318 L 659,318 L 658,319 L 657,319 L 656,320 L 654,320 L 653,321 L 651,321 L 650,322 L 648,322 L 647,323 L 645,323 L 644,324 L 641,324 L 640,325 L 637,325 L 636,326 L 633,326 L 632,327 L 630,327 L 629,328 L 626,328 L 625,329 L 622,329 L 621,330 L 618,330 L 617,331 L 613,331 L 612,332 L 609,332 L 608,333 L 605,333 L 604,334 L 599,334 L 598,335 L 594,335 L 593,336 L 588,336 L 587,337 L 581,337 L 580,338 L 573,338 L 572,339 L 562,339 L 561,340 L 544,340 L 543,341 L 517,341 L 516,340 L 494,340 L 493,339 L 478,339 L 477,338 L 464,338 L 463,337 L 452,337 L 451,336 L 438,336 L 437,335 L 419,335 L 418,334 L 382,334 L 381,335 L 368,335 L 367,336 L 359,336 L 358,337 L 352,337 L 351,338 L 347,338 L 346,339 L 341,339 L 340,340 L 337,340 L 336,341 L 332,341 L 331,342 L 329,342 L 328,343 L 325,343 L 324,344 L 322,344 L 321,345 L 318,345 L 317,346 L 315,346 L 314,347 L 313,347 L 312,348 L 310,348 L 309,349 L 307,349 L 306,350 L 305,350 L 304,351 L 302,351 L 301,352 L 300,352 L 299,353 L 298,353 L 297,354 L 295,354 L 294,355 L 293,355 L 292,356 L 289,356 L 288,357 L 281,357 L 280,358 L 265,358 L 264,359 L 226,359 L 225,358 L 211,358 L 210,357 L 202,357 L 201,356 L 194,356 L 193,355 L 188,355 L 187,354 L 182,354 L 181,353 L 177,353 L 176,352 L 172,352 L 171,351 L 167,351 L 166,350 L 163,350 L 162,349 L 159,349 L 158,348 L 155,348 L 154,347 L 151,347 L 150,346 L 148,346 L 147,345 L 144,345 L 143,344 L 141,344 L 140,343 L 138,343 L 137,342 L 134,342 L 133,341 L 131,341 L 130,340 L 128,340 L 127,339 L 125,339 L 124,338 L 121,338 L 120,337 L 119,337 L 118,336 L 116,336 L 115,335 L 113,335 L 112,334 L 110,334 L 109,333 L 107,333 L 106,332 L 104,332 L 103,331 L 101,331 L 100,330 L 98,330 L 97,329 L 96,329 L 95,328 L 93,328 L 92,327 L 90,327 L 89,326 L 87,326 L 86,325 L 85,325 L 84,324 L 82,324 L 81,323 L 79,323 L 78,322 L 76,322 L 75,321 L 73,321 L 72,320 L 71,320 L 70,319 L 68,319 L 67,318 L 65,318 L 64,317 L 62,317 L 61,316 L 59,316 L 58,315 L 56,315 L 55,314 L 53,314 L 52,313 L 49,313 L 48,312 L 42,312 L 41,311 L 39,311 L 38,312 L 35,312 L 32,315 L 31,315 L 31,316 L 30,317 L 30,319 L 29,320 L 29,323 L 30,324 L 30,326 L 31,327 L 31,329 L 33,331 L 33,332 L 35,334 L 35,335 L 38,338 L 38,339 L 55,356 L 56,356 L 60,360 L 61,360 L 64,363 L 65,363 L 68,366 L 69,366 L 72,369 L 73,369 L 75,371 L 76,371 L 78,373 L 79,373 L 80,374 L 81,374 L 83,376 L 84,376 L 85,377 L 86,377 L 88,379 L 89,379 L 90,380 L 91,380 L 92,381 L 93,381 L 94,382 L 95,382 L 96,383 L 97,383 L 98,384 L 99,384 L 100,385 L 101,385 L 102,386 L 103,386 L 104,387 L 105,387 L 106,388 L 107,388 L 108,389 L 109,389 L 110,390 L 111,390 L 112,391 L 113,391 L 114,392 L 116,392 L 117,393 L 118,393 L 119,394 L 120,394 L 121,395 L 123,395 L 124,396 L 125,396 L 126,397 L 128,397 L 129,398 L 131,398 L 132,399 L 134,399 L 135,400 L 137,400 L 138,401 L 140,401 L 141,402 L 143,402 L 144,403 L 146,403 L 147,404 L 149,404 L 150,405 L 153,405 L 154,406 L 158,406 L 159,407 L 162,407 L 163,408 L 166,408 L 167,409 L 172,409 L 173,410 L 178,410 L 179,411 L 187,411 L 188,412 L 236,412 L 237,411 L 238,411 L 239,412 L 239,413 L 238,414 L 238,415 L 236,417 L 236,418 L 235,419 L 235,420 L 234,421 L 234,422 L 233,423 L 233,424 L 232,425 L 232,426 L 231,427 L 231,428 L 230,429 L 230,430 L 229,431 L 229,433 L 228,434 L 228,435 L 227,436 L 227,438 L 226,439 L 226,440 L 225,441 L 225,443 L 224,444 L 224,446 L 223,447 L 223,449 L 222,450 L 222,453 L 221,454 L 221,456 L 220,457 L 220,460 L 219,461 L 219,465 L 218,466 L 218,470 L 217,471 L 217,475 L 216,476 L 216,482 L 215,483 L 215,490 L 214,491 L 214,500 L 213,501 L 213,510 L 212,511 L 212,520 L 211,521 L 211,529 L 210,530 L 210,537 L 209,538 L 209,543 L 208,544 L 208,550 L 207,551 L 207,556 L 206,557 L 206,560 L 205,561 L 205,565 L 204,566 L 204,569 L 203,570 L 203,573 L 202,574 L 202,577 L 201,578 L 201,581 L 200,582 L 200,584 L 199,585 L 199,587 L 198,588 L 198,590 L 197,591 L 197,593 L 196,594 L 196,595 L 195,596 L 195,597 L 194,598 L 194,600 L 193,601 L 193,602 L 192,603 L 192,604 L 191,605 L 191,606 L 190,607 L 190,608 L 188,610 L 188,611 L 187,612 L 187,613 L 185,615 L 185,616 L 183,618 L 183,619 L 181,621 L 181,622 L 178,625 L 178,626 L 171,633 L 171,634 L 157,648 L 156,648 L 156,649 L 154,651 L 153,651 L 152,652 L 152,653 L 149,656 L 149,657 L 148,658 L 148,659 L 147,660 L 147,662 L 146,663 L 146,672 L 145,673 L 145,686 L 144,687 L 144,698 L 143,699 L 143,706 L 142,707 L 142,713 L 141,714 L 141,722 L 140,723 L 140,730 L 139,731 L 139,739 L 138,740 L 138,747 L 137,748 L 137,755 L 136,756 L 136,762 L 135,763 L 135,768 L 134,769 L 134,778 L 133,779 L 133,780 L 134,781 L 134,789 L 135,790 L 135,794 L 136,795 L 136,798 L 137,799 L 137,802 L 138,803 L 138,805 L 139,806 L 139,808 L 140,809 L 140,810 L 141,811 L 141,812 L 144,815 L 144,816 L 146,818 L 147,818 L 149,820 L 150,820 L 151,821 L 152,821 L 153,822 L 155,822 L 156,823 L 158,823 L 159,824 L 171,824 L 172,823 L 174,823 L 175,822 L 178,822 L 179,823 L 181,823 L 182,824 L 192,824 L 193,823 L 196,823 L 197,822 L 206,822 L 207,821 L 210,821 L 211,820 L 212,820 L 213,819 L 214,819 L 219,814 L 219,812 L 220,811 L 220,801 L 219,800 L 219,798 L 218,797 L 218,796 L 217,795 L 217,794 L 216,793 L 216,791 L 215,790 L 215,789 L 213,787 L 213,786 L 212,785 L 212,784 L 205,777 L 204,777 L 203,776 L 202,776 L 200,774 L 198,774 L 197,773 L 196,773 L 195,772 L 193,772 L 192,771 L 191,771 L 188,768 L 188,750 L 189,749 L 189,742 L 190,741 L 190,736 L 191,735 L 191,730 L 192,729 L 192,725 L 193,724 L 193,721 L 194,720 L 194,717 L 195,716 L 195,714 L 196,713 L 196,711 L 197,710 L 197,708 L 198,707 L 198,705 L 199,704 L 199,702 L 200,701 L 200,700 L 201,699 L 201,698 L 202,697 L 202,696 L 204,694 L 204,693 L 206,691 L 206,690 L 208,688 L 208,687 L 210,685 L 210,684 L 214,680 L 214,679 L 220,673 L 220,672 L 224,668 L 225,668 L 233,660 L 234,660 L 239,655 L 240,655 L 245,650 L 246,650 L 249,647 L 250,647 L 253,644 L 254,644 L 256,642 L 257,642 L 260,639 L 261,639 L 263,637 L 264,637 L 266,635 L 267,635 L 270,632 L 271,632 L 273,630 L 274,630 L 275,631 L 272,634 L 272,635 L 269,638 L 269,639 L 266,642 L 266,643 L 265,644 L 264,644 L 264,645 L 259,650 L 259,651 L 257,653 L 257,654 L 256,655 L 256,656 L 255,657 L 255,658 L 254,659 L 254,661 L 253,662 L 253,676 L 254,677 L 254,680 L 255,681 L 255,684 L 256,685 L 256,687 L 257,688 L 257,690 L 258,691 L 258,694 L 259,695 L 259,697 L 260,698 L 260,700 L 261,701 L 261,703 L 262,704 L 262,707 L 263,708 L 263,711 L 264,712 L 264,714 L 265,715 L 265,718 L 266,719 L 266,721 L 267,722 L 267,725 L 268,726 L 268,728 L 269,729 L 269,731 L 270,732 L 270,734 L 271,735 L 271,738 L 272,739 L 272,741 L 273,742 L 273,744 L 274,745 L 274,747 L 275,748 L 275,751 L 276,752 L 276,755 L 277,756 L 277,758 L 278,759 L 278,762 L 279,763 L 279,766 L 280,767 L 280,768 L 281,769 L 281,771 L 282,772 L 282,773 L 283,774 L 283,775 L 285,777 L 285,778 L 286,779 L 286,780 L 289,783 L 289,784 L 293,788 L 294,788 L 296,790 L 297,790 L 298,791 L 299,791 L 300,792 L 301,792 L 302,793 L 304,793 L 305,794 L 309,794 L 310,795 L 333,795 L 334,794 L 346,794 L 347,793 L 353,793 L 354,792 L 357,792 L 358,791 L 359,791 L 360,790 L 361,790 L 362,789 L 363,789 L 364,788 L 364,787 L 365,786 L 365,785 L 366,784 L 366,772 L 365,771 L 365,769 L 364,768 L 364,767 L 363,766 L 363,765 L 362,764 L 362,763 L 361,762 L 361,761 L 360,760 L 360,759 L 358,757 L 358,756 L 355,753 L 355,752 L 350,747 L 349,747 L 347,745 L 345,745 L 344,744 L 342,744 L 341,743 L 334,743 L 333,744 L 328,744 L 327,743 L 326,743 L 321,738 L 321,737 L 320,736 L 320,734 L 319,733 L 319,731 L 318,730 L 318,728 L 317,727 L 317,724 L 316,723 L 316,719 L 315,718 L 315,716 L 314,715 L 314,711 L 313,710 L 313,706 L 312,705 L 312,691 L 313,690 L 313,684 L 314,683 L 314,681 L 315,680 L 315,678 L 316,677 L 316,675 L 317,674 L 317,673 L 318,672 L 318,671 L 319,670 L 319,669 L 320,668 L 320,667 L 322,665 L 322,664 L 324,662 L 324,661 L 327,658 L 327,657 L 330,654 L 330,653 L 335,648 L 335,647 L 348,634 L 348,633 L 358,623 L 358,622 L 365,615 L 365,614 L 370,609 L 370,608 L 374,604 L 374,603 L 377,600 L 377,599 L 380,596 L 380,595 L 382,593 L 382,592 L 385,589 L 385,588 L 386,587 L 386,586 L 388,584 L 388,583 L 390,581 L 390,580 L 391,579 L 391,578 L 393,576 L 393,575 L 394,574 L 394,573 L 395,572 L 395,571 L 397,569 L 397,568 L 398,567 L 398,566 L 399,565 L 399,564 L 400,563 L 400,562 L 401,561 L 401,560 L 402,559 L 402,558 L 404,556 L 404,555 L 405,554 L 405,553 L 406,552 L 406,550 L 408,548 L 408,547 L 409,546 L 409,545 L 410,544 L 410,543 L 411,542 L 411,541 L 412,540 L 412,539 L 415,536 L 415,535 L 418,532 L 419,532 L 420,531 L 428,531 L 429,532 L 433,532 L 434,533 L 437,533 L 438,534 L 440,534 L 441,535 L 444,535 L 445,536 L 446,536 L 447,537 L 449,537 L 450,538 L 451,538 L 452,539 L 453,539 L 454,540 L 455,540 L 456,541 L 458,541 L 459,542 L 460,542 L 461,543 L 462,543 L 463,544 L 464,544 L 465,545 L 466,545 L 467,546 L 468,546 L 469,547 L 471,547 L 472,548 L 473,548 L 474,549 L 475,549 L 476,550 L 477,550 L 478,551 L 479,551 L 480,552 L 482,552 L 483,553 L 484,553 L 485,554 L 486,554 L 487,555 L 488,555 L 489,556 L 490,556 L 491,557 L 492,557 L 493,558 L 495,558 L 496,559 L 497,559 L 498,560 L 499,560 L 500,561 L 501,561 L 502,562 L 503,562 L 504,563 L 505,563 L 506,564 L 508,564 L 509,565 L 510,565 L 511,566 L 512,566 L 513,567 L 515,567 L 516,568 L 517,568 L 518,569 L 519,569 L 520,570 L 522,570 L 523,571 L 525,571 L 526,572 L 527,572 L 528,573 L 530,573 L 531,574 L 533,574 L 534,575 L 536,575 L 537,576 L 539,576 L 540,577 L 543,577 L 544,578 L 546,578 L 547,579 L 550,579 L 551,580 L 553,580 L 554,581 L 557,581 L 558,582 L 560,582 L 561,583 L 564,583 L 565,584 L 569,584 L 570,585 L 573,585 L 574,586 L 578,586 L 579,587 L 583,587 L 584,588 L 589,588 L 590,589 L 596,589 L 597,590 L 603,590 L 604,591 L 614,591 L 615,592 L 640,592 L 641,593 L 642,592 L 643,593 L 643,594 L 644,595 L 644,599 L 645,600 L 645,605 L 646,606 L 646,612 L 647,613 L 647,621 L 648,622 L 648,631 L 649,632 L 649,639 L 650,640 L 650,649 L 651,650 L 651,658 L 652,659 L 652,668 L 653,669 L 653,678 L 654,679 L 654,687 L 655,688 L 655,696 L 656,697 L 656,705 L 657,706 L 657,714 L 658,715 L 658,723 L 659,724 L 659,733 L 660,734 L 660,746 L 661,747 L 661,749 L 660,750 L 660,752 L 659,753 L 659,756 L 658,757 L 658,759 L 659,760 L 659,765 L 660,766 L 660,767 L 661,768 L 661,769 L 666,774 L 667,774 L 671,778 L 671,779 L 673,781 L 673,783 L 674,784 L 674,785 L 675,786 L 675,788 L 676,789 L 676,792 L 677,793 L 677,797 L 678,798 L 678,803 L 679,804 L 679,810 L 680,811 L 680,815 L 681,816 L 681,818 L 682,819 L 682,820 L 683,821 L 683,822 L 684,823 L 684,824 L 692,832 L 693,832 L 695,834 L 696,834 L 697,835 L 698,835 L 699,836 L 701,836 L 702,837 L 703,837 L 704,838 L 707,838 L 708,839 L 725,839 L 726,838 L 729,838 L 730,837 L 734,837 L 735,838 L 746,838 L 747,837 L 750,837 L 751,836 L 753,836 L 754,835 L 757,835 L 758,834 L 760,834 L 761,833 L 762,833 L 769,826 L 769,825 L 770,824 L 770,823 L 771,822 L 771,813 L 770,812 L 770,811 L 769,810 L 769,809 L 768,808 L 768,807 L 769,806 L 770,807 L 771,807 L 772,808 L 776,808 L 777,809 L 786,809 L 787,810 L 792,810 L 793,809 L 800,809 L 801,808 L 803,808 L 804,807 L 807,807 L 808,808 L 812,808 L 813,807 L 821,807 L 822,806 L 825,806 L 826,805 L 828,805 L 829,804 L 830,804 L 833,801 L 833,800 L 835,798 L 835,796 L 836,795 L 836,791 L 835,790 L 835,787 L 834,786 L 834,784 L 833,783 L 833,782 L 832,781 L 832,780 L 831,779 L 831,778 L 829,776 L 829,775 L 828,774 L 828,773 L 826,771 L 826,770 L 818,762 L 817,762 L 816,761 L 815,761 L 814,760 L 813,760 L 812,759 L 808,759 L 807,758 L 803,758 L 802,759 L 800,759 L 799,758 L 797,758 L 796,757 L 795,757 L 791,753 L 791,752 L 789,750 L 789,749 L 788,748 L 788,747 L 787,746 L 787,745 L 786,744 L 786,743 L 785,742 L 785,741 L 784,740 L 784,738 L 783,737 L 783,735 L 782,734 L 782,731 L 781,730 L 781,721 L 780,720 L 780,695 L 781,694 L 781,678 L 782,677 L 782,666 L 783,665 L 783,657 L 784,656 L 784,649 L 785,648 L 785,643 L 786,642 L 786,638 L 787,637 L 787,632 L 788,631 L 788,624 L 789,623 L 789,617 L 790,616 L 790,611 L 791,610 L 791,605 L 792,604 L 792,599 L 793,598 L 793,594 L 794,593 L 794,589 L 795,588 L 795,585 L 796,584 L 796,580 L 797,579 L 797,576 L 798,575 L 798,572 L 799,571 L 799,568 L 800,567 L 800,565 L 801,564 L 801,562 L 802,561 L 802,559 L 808,553 L 808,552 L 812,548 L 812,547 L 815,544 L 815,543 L 818,540 L 818,539 L 820,537 L 820,536 L 821,535 L 821,534 L 823,532 L 823,531 L 824,530 L 824,529 L 825,528 L 825,527 L 826,526 L 826,525 L 828,523 L 828,521 L 829,520 L 829,519 L 830,518 L 830,517 L 831,516 L 831,514 L 832,513 L 832,512 L 833,511 L 833,509 L 834,508 L 834,506 L 835,505 L 835,503 L 836,502 L 836,500 L 837,499 L 837,497 L 838,496 L 838,493 L 839,492 L 839,488 L 840,487 L 840,483 L 841,482 L 841,478 L 842,477 L 842,471 L 843,470 L 843,460 L 844,459 L 844,449 L 845,448 L 845,444 L 846,443 L 846,441 L 847,440 L 847,438 L 848,437 L 848,435 L 849,434 L 849,433 L 850,432 L 850,430 L 851,429 L 851,427 L 852,426 L 852,424 L 853,423 L 853,421 L 854,420 L 854,417 L 855,416 L 855,413 L 856,412 L 856,408 L 857,407 L 857,404 L 858,403 L 858,399 L 859,398 L 859,394 L 860,393 L 860,389 L 861,388 L 861,384 L 862,383 L 862,379 L 863,378 L 863,373 L 864,372 L 864,368 L 865,367 L 865,363 L 866,362 L 866,359 L 867,358 L 867,354 L 868,353 L 868,350 L 869,349 L 869,346 L 870,345 L 870,343 L 871,342 L 871,339 L 872,338 L 872,336 L 873,335 L 873,333 L 874,332 L 874,330 L 875,329 L 875,328 L 876,327 L 876,326 L 878,324 L 878,323 L 879,322 L 879,321 L 884,316 L 885,316 L 886,315 L 890,315 L 891,314 L 897,314 L 898,313 L 901,313 L 902,312 L 905,312 L 906,311 L 908,311 L 909,310 L 910,310 L 911,309 L 913,309 L 914,308 L 915,308 L 916,307 L 918,307 L 919,306 L 936,306 L 937,305 L 943,305 L 944,304 L 948,304 L 949,303 L 953,303 L 954,302 L 957,302 L 958,301 L 961,301 L 962,300 L 964,300 L 965,299 L 966,299 L 967,298 L 968,298 L 969,297 L 970,297 L 971,296 L 972,296 L 974,294 L 975,294 L 978,291 L 979,291 L 985,285 L 985,284 L 987,282 L 987,281 L 989,279 L 989,278 L 990,277 L 990,276 L 991,275 L 991,273 L 992,272 L 992,270 L 993,269 L 993,267 L 994,266 L 994,259 L 995,258 L 995,256 L 996,255 L 996,253 L 997,252 L 997,251 L 998,250 L 998,249 L 999,248 L 999,247 L 1000,246 L 1000,245 L 1001,244 L 1001,243 L 1002,242 L 1002,240 L 1003,239 L 1003,229 L 1002,228 L 1002,227 L 997,222 L 996,222 L 994,220 L 993,220 L 992,219 L 990,219 L 989,218 L 987,218 L 986,217 L 984,217 L 983,216 L 981,216 L 980,215 L 978,215 L 977,214 L 974,214 L 973,213 L 972,213 L 971,212 L 969,212 L 968,211 L 966,211 L 965,210 L 963,210 L 962,209 L 959,209 L 958,208 L 956,208 L 955,207 L 953,207 L 952,206 L 950,206 L 949,205 L 947,205 L 946,204 L 943,204 L 942,203 L 941,203 L 940,202 L 939,202 L 938,201 L 936,201 L 935,200 L 934,200 L 932,198 L 931,198 L 928,195 L 927,195 L 926,194 L 926,193 L 925,192 L 925,191 L 924,190 L 924,188 L 923,187 L 923,177 L 922,176 L 922,174 L 921,173 L 921,172 L 919,170 L 919,169 L 909,159 L 908,159 L 904,155 L 903,155 L 901,153 L 900,153 L 898,151 L 897,151 L 896,150 L 895,150 L 894,149 L 893,149 L 892,148 L 890,148 L 889,147 L 887,147 L 886,146 L 884,146 L 883,145 L 881,145 L 880,144 L 877,144 L 876,143 L 873,143 L 872,142 L 867,142 L 866,141 L 861,141 L 860,140 L 849,140 L 848,139 Z" fill="black" /><path d="M 806,138 L 807,138 Z" fill="black" /><path d="M 831,135 Z" fill="black" /><path d="M 751,120 Z" fill="black" /><path d="M 771,39 Z" fill="black" /></svg>