<?xml version="1.0" encoding="utf-8" ?>
<svg baseProfile="full" height="1024" version="1.1" width="1024" xmlns="http://www.w3.org/2000/svg" xmlns:ev="http://www.w3.org/2001/xml-events" xmlns:xlink="http://www.w3.org/1999/xlink"><defs /><path d="M 292,793 Z" fill="black" /><path d="M 271,779 Z" fill="black" /><path d="M 367,752 Z" fill="black" /><path d="M 258,724 Z" fill="black" /><path d="M 180,710 Z" fill="black" /><path d="M 180,682 Z" fill="black" /><path d="M 609,648 Z" fill="black" /><path d="M 357,647 Z" fill="black" /><path d="M 469,588 Z" fill="black" /><path d="M 804,572 Z" fill="black" /><path d="M 865,509 Z" fill="black" /><path d="M 507,319 Z" fill="black" /><path d="M 913,199 Z" fill="black" /><path d="M 814,137 L 813,138 L 807,138 L 806,139 L 802,139 L 801,140 L 798,140 L 797,141 L 794,141 L 793,142 L 790,142 L 789,143 L 787,143 L 786,144 L 785,144 L 784,145 L 782,145 L 781,146 L 780,146 L 779,147 L 778,147 L 777,148 L 775,148 L 773,150 L 772,150 L 771,151 L 770,151 L 769,152 L 768,152 L 767,153 L 766,153 L 764,155 L 763,155 L 758,160 L 757,160 L 756,161 L 756,162 L 751,167 L 750,167 L 749,168 L 748,168 L 746,170 L 745,170 L 744,171 L 743,171 L 740,174 L 739,174 L 737,176 L 736,176 L 725,187 L 725,188 L 723,190 L 723,191 L 721,193 L 721,194 L 720,195 L 720,197 L 719,198 L 719,199 L 718,200 L 718,202 L 717,203 L 717,206 L 716,207 L 716,210 L 715,211 L 715,212 L 714,213 L 714,215 L 713,216 L 713,217 L 712,218 L 712,220 L 710,222 L 710,223 L 707,226 L 707,227 L 699,235 L 698,235 L 698,236 L 699,236 L 701,238 L 689,250 L 689,251 L 687,253 L 687,254 L 685,256 L 685,257 L 684,258 L 684,259 L 682,261 L 682,262 L 680,264 L 680,265 L 677,268 L 677,269 L 672,274 L 672,275 L 664,283 L 663,283 L 661,285 L 660,285 L 659,286 L 658,286 L 657,287 L 656,287 L 654,289 L 653,289 L 653,291 L 655,293 L 653,295 L 652,295 L 651,296 L 649,296 L 648,297 L 647,297 L 646,298 L 644,298 L 643,299 L 642,299 L 641,300 L 638,300 L 637,301 L 635,301 L 634,302 L 637,305 L 635,307 L 634,307 L 633,308 L 632,308 L 631,309 L 630,309 L 629,310 L 628,310 L 627,311 L 625,311 L 624,312 L 622,312 L 621,313 L 619,313 L 618,314 L 616,314 L 615,315 L 611,315 L 610,316 L 605,316 L 604,317 L 603,317 L 602,318 L 602,319 L 603,320 L 602,321 L 600,321 L 599,322 L 595,322 L 594,323 L 587,323 L 586,324 L 578,324 L 577,325 L 565,325 L 564,326 L 563,326 L 562,325 L 561,326 L 531,326 L 530,325 L 515,325 L 514,324 L 503,324 L 502,323 L 501,323 L 500,324 L 498,324 L 497,323 L 487,323 L 486,322 L 474,322 L 473,321 L 464,321 L 463,320 L 451,320 L 450,319 L 440,319 L 439,318 L 429,318 L 428,317 L 418,317 L 417,316 L 404,316 L 403,315 L 359,315 L 358,316 L 346,316 L 345,317 L 337,317 L 336,318 L 332,318 L 331,319 L 326,319 L 325,320 L 322,320 L 321,321 L 318,321 L 317,322 L 314,322 L 313,323 L 310,323 L 309,324 L 307,324 L 306,325 L 305,325 L 304,326 L 302,326 L 301,327 L 299,327 L 298,328 L 296,328 L 295,329 L 294,329 L 293,330 L 292,330 L 291,331 L 290,331 L 289,332 L 287,332 L 286,333 L 285,333 L 284,334 L 283,334 L 282,335 L 281,335 L 280,336 L 279,336 L 278,337 L 277,337 L 275,339 L 274,339 L 273,340 L 272,340 L 270,342 L 269,342 L 268,343 L 267,343 L 266,344 L 265,344 L 263,346 L 262,346 L 260,348 L 259,348 L 256,351 L 255,351 L 253,353 L 252,353 L 249,356 L 248,356 L 244,360 L 243,360 L 238,365 L 237,365 L 222,380 L 222,381 L 216,387 L 216,388 L 212,392 L 212,393 L 210,395 L 210,396 L 207,399 L 207,400 L 205,402 L 205,403 L 204,404 L 204,405 L 203,406 L 203,407 L 201,409 L 201,410 L 200,411 L 200,412 L 199,413 L 199,414 L 198,415 L 198,416 L 197,417 L 197,419 L 196,420 L 196,421 L 195,422 L 195,423 L 194,424 L 194,426 L 193,427 L 193,429 L 192,430 L 192,432 L 191,433 L 191,435 L 190,436 L 190,439 L 189,440 L 189,442 L 188,443 L 188,445 L 187,446 L 187,449 L 186,450 L 186,453 L 185,454 L 185,457 L 184,458 L 184,462 L 183,463 L 183,466 L 182,467 L 182,470 L 181,471 L 181,474 L 180,475 L 180,478 L 179,479 L 179,483 L 178,484 L 178,488 L 177,489 L 177,492 L 176,493 L 176,495 L 175,496 L 175,499 L 174,500 L 174,503 L 173,504 L 173,506 L 172,507 L 172,509 L 171,510 L 171,513 L 170,514 L 170,516 L 169,517 L 169,518 L 168,519 L 168,521 L 167,522 L 167,524 L 166,525 L 166,526 L 165,527 L 165,529 L 164,530 L 164,531 L 163,532 L 163,533 L 162,534 L 162,535 L 161,536 L 161,537 L 160,538 L 160,540 L 158,542 L 158,543 L 157,544 L 157,545 L 156,546 L 156,547 L 154,549 L 154,550 L 152,552 L 152,553 L 151,554 L 151,555 L 149,557 L 149,558 L 146,561 L 146,562 L 140,568 L 140,569 L 132,577 L 131,577 L 126,582 L 125,582 L 122,585 L 121,585 L 117,589 L 116,589 L 113,592 L 112,592 L 109,595 L 108,595 L 93,610 L 93,611 L 90,614 L 90,615 L 88,617 L 88,618 L 86,620 L 86,621 L 85,622 L 85,623 L 83,625 L 83,626 L 82,627 L 82,628 L 81,629 L 81,631 L 80,632 L 80,634 L 79,635 L 79,637 L 78,638 L 78,641 L 77,642 L 77,646 L 76,647 L 76,664 L 77,665 L 77,669 L 78,670 L 78,673 L 79,674 L 79,677 L 80,678 L 80,681 L 81,682 L 81,684 L 82,685 L 82,686 L 83,686 L 84,687 L 90,687 L 91,688 L 91,690 L 92,691 L 92,692 L 94,694 L 94,695 L 101,702 L 102,702 L 103,703 L 104,703 L 105,704 L 111,704 L 112,703 L 112,701 L 113,700 L 113,696 L 114,695 L 114,694 L 116,692 L 120,692 L 121,691 L 124,691 L 125,690 L 128,690 L 129,689 L 131,689 L 132,688 L 133,688 L 134,687 L 135,687 L 136,686 L 137,686 L 138,685 L 146,685 L 147,684 L 149,684 L 150,683 L 152,683 L 153,682 L 154,682 L 155,681 L 156,681 L 157,680 L 158,680 L 160,678 L 161,678 L 163,676 L 164,676 L 171,669 L 172,669 L 174,671 L 175,670 L 178,670 L 179,669 L 180,669 L 183,666 L 184,666 L 197,653 L 197,652 L 199,650 L 200,651 L 200,652 L 199,653 L 199,654 L 198,655 L 198,656 L 197,657 L 197,658 L 195,660 L 195,661 L 192,664 L 192,665 L 188,669 L 188,670 L 185,673 L 185,674 L 184,675 L 184,677 L 183,678 L 183,680 L 182,681 L 182,694 L 183,695 L 183,708 L 182,709 L 183,710 L 183,711 L 182,712 L 182,713 L 183,714 L 182,715 L 182,731 L 181,732 L 181,746 L 180,747 L 180,791 L 181,792 L 181,796 L 182,797 L 182,800 L 183,801 L 183,803 L 184,804 L 184,806 L 185,807 L 185,808 L 186,809 L 186,810 L 188,812 L 188,813 L 195,820 L 196,820 L 197,821 L 198,821 L 199,822 L 201,822 L 202,823 L 205,823 L 206,824 L 216,824 L 217,825 L 223,825 L 224,824 L 245,824 L 246,823 L 250,823 L 251,822 L 253,822 L 254,821 L 256,821 L 257,820 L 258,820 L 259,819 L 263,819 L 265,817 L 266,817 L 270,813 L 270,812 L 271,811 L 271,800 L 270,799 L 270,796 L 269,795 L 269,793 L 268,792 L 268,791 L 267,790 L 267,789 L 266,788 L 266,787 L 263,784 L 263,783 L 259,779 L 258,779 L 256,777 L 255,777 L 254,776 L 253,776 L 252,775 L 250,775 L 249,774 L 247,774 L 246,773 L 243,773 L 242,772 L 240,772 L 239,771 L 239,767 L 238,766 L 238,757 L 239,756 L 239,748 L 240,747 L 240,743 L 241,742 L 241,739 L 242,738 L 242,735 L 243,734 L 243,732 L 244,731 L 244,729 L 245,728 L 245,726 L 246,725 L 246,723 L 247,722 L 247,720 L 248,719 L 248,717 L 249,716 L 249,715 L 250,714 L 250,712 L 251,711 L 251,710 L 252,709 L 252,708 L 253,707 L 253,705 L 254,704 L 254,703 L 255,702 L 255,701 L 256,700 L 256,699 L 257,698 L 257,697 L 258,696 L 258,695 L 259,694 L 259,693 L 260,692 L 261,692 L 262,693 L 262,711 L 263,712 L 263,719 L 264,720 L 264,726 L 265,727 L 265,733 L 266,734 L 266,738 L 267,739 L 267,742 L 268,743 L 268,748 L 269,749 L 269,752 L 270,753 L 270,756 L 271,757 L 271,760 L 272,761 L 272,762 L 273,763 L 273,766 L 274,767 L 274,768 L 275,769 L 275,771 L 276,772 L 276,773 L 277,774 L 277,775 L 279,777 L 279,778 L 281,780 L 281,781 L 284,784 L 284,785 L 285,785 L 290,790 L 291,790 L 292,791 L 293,791 L 294,792 L 295,792 L 296,793 L 299,793 L 300,794 L 307,794 L 308,795 L 329,795 L 330,794 L 335,794 L 336,793 L 350,793 L 351,792 L 354,792 L 355,791 L 356,791 L 357,790 L 358,790 L 361,787 L 361,786 L 362,785 L 362,782 L 363,781 L 363,778 L 362,777 L 362,772 L 361,771 L 361,769 L 360,768 L 360,767 L 359,766 L 359,765 L 358,764 L 358,763 L 357,762 L 357,761 L 356,760 L 356,759 L 353,756 L 353,755 L 350,752 L 349,752 L 346,749 L 345,749 L 344,748 L 343,748 L 342,747 L 341,747 L 340,746 L 338,746 L 337,745 L 333,745 L 332,744 L 326,744 L 325,743 L 323,743 L 322,742 L 322,741 L 321,740 L 321,737 L 320,736 L 320,733 L 319,732 L 319,725 L 318,724 L 318,709 L 319,708 L 319,702 L 320,701 L 320,697 L 321,696 L 321,693 L 322,692 L 322,689 L 323,688 L 323,686 L 324,685 L 324,683 L 325,682 L 325,681 L 326,680 L 326,678 L 327,677 L 327,676 L 328,675 L 328,674 L 330,672 L 330,671 L 331,670 L 331,669 L 333,667 L 333,666 L 335,664 L 335,663 L 341,657 L 341,656 L 343,654 L 344,654 L 358,640 L 359,640 L 382,617 L 382,616 L 390,608 L 390,607 L 393,604 L 393,603 L 395,601 L 395,600 L 398,597 L 398,596 L 399,595 L 399,594 L 401,592 L 401,591 L 402,590 L 402,589 L 403,588 L 403,587 L 404,586 L 404,585 L 405,584 L 405,583 L 406,582 L 406,580 L 407,579 L 407,578 L 408,577 L 408,576 L 409,575 L 409,573 L 410,572 L 410,570 L 411,569 L 411,568 L 412,567 L 412,564 L 413,563 L 414,563 L 416,565 L 417,565 L 418,566 L 419,566 L 420,567 L 421,567 L 422,568 L 424,568 L 425,569 L 428,569 L 429,570 L 439,570 L 440,571 L 440,572 L 441,572 L 448,579 L 449,579 L 450,580 L 451,580 L 453,582 L 454,582 L 455,583 L 456,583 L 457,584 L 460,584 L 461,585 L 463,585 L 466,582 L 466,580 L 467,579 L 469,579 L 471,581 L 472,581 L 473,582 L 474,582 L 475,583 L 476,583 L 477,584 L 478,584 L 479,585 L 481,585 L 482,586 L 483,586 L 484,587 L 487,587 L 488,588 L 491,588 L 492,589 L 498,589 L 499,590 L 500,590 L 501,591 L 502,591 L 503,592 L 504,592 L 505,593 L 506,593 L 507,594 L 508,594 L 509,595 L 510,595 L 511,596 L 512,596 L 513,597 L 515,597 L 516,598 L 517,598 L 518,599 L 520,599 L 521,600 L 524,600 L 525,601 L 529,601 L 530,602 L 535,602 L 536,601 L 536,600 L 538,598 L 539,598 L 540,599 L 541,599 L 542,600 L 543,600 L 545,602 L 547,602 L 548,603 L 549,603 L 550,604 L 552,604 L 553,605 L 556,605 L 557,606 L 561,606 L 562,607 L 565,607 L 566,608 L 570,608 L 571,607 L 572,607 L 572,606 L 573,605 L 573,604 L 575,602 L 577,604 L 578,604 L 581,607 L 582,607 L 583,608 L 584,608 L 585,609 L 586,609 L 587,610 L 589,610 L 590,611 L 591,611 L 592,612 L 597,612 L 598,611 L 599,611 L 600,612 L 602,612 L 604,614 L 604,615 L 605,616 L 605,618 L 611,618 L 612,619 L 612,620 L 611,621 L 611,649 L 612,650 L 612,653 L 613,654 L 613,655 L 615,655 L 617,657 L 617,676 L 618,677 L 618,683 L 619,684 L 619,687 L 620,688 L 620,692 L 621,693 L 621,695 L 622,696 L 622,698 L 623,699 L 624,699 L 625,700 L 626,700 L 627,701 L 627,715 L 628,716 L 628,719 L 629,720 L 629,722 L 630,723 L 630,725 L 631,726 L 631,727 L 632,728 L 632,730 L 633,731 L 633,732 L 634,733 L 634,734 L 636,736 L 636,737 L 637,738 L 637,739 L 642,744 L 642,745 L 643,746 L 643,749 L 644,750 L 644,753 L 645,754 L 645,758 L 646,759 L 646,762 L 647,763 L 647,766 L 648,767 L 648,770 L 649,771 L 649,775 L 650,776 L 650,779 L 651,780 L 651,783 L 652,784 L 652,786 L 653,787 L 653,790 L 654,791 L 654,793 L 655,794 L 655,796 L 656,797 L 656,798 L 657,799 L 657,801 L 658,802 L 658,803 L 659,804 L 659,805 L 660,806 L 660,807 L 661,808 L 661,809 L 662,810 L 662,811 L 663,812 L 663,813 L 665,815 L 665,816 L 667,818 L 667,819 L 672,824 L 673,824 L 676,827 L 677,827 L 678,828 L 679,828 L 680,829 L 681,829 L 682,830 L 684,830 L 685,831 L 687,831 L 688,832 L 696,832 L 697,833 L 715,833 L 716,832 L 720,832 L 721,833 L 731,833 L 732,832 L 738,832 L 739,831 L 741,831 L 742,830 L 747,830 L 748,829 L 750,829 L 751,828 L 753,828 L 758,823 L 758,822 L 759,821 L 759,813 L 760,812 L 762,812 L 763,813 L 772,813 L 773,814 L 778,814 L 779,813 L 780,814 L 781,813 L 783,813 L 784,814 L 785,813 L 790,813 L 791,812 L 793,812 L 794,811 L 795,811 L 796,812 L 797,811 L 808,811 L 809,810 L 812,810 L 813,809 L 814,809 L 815,808 L 816,808 L 820,804 L 820,803 L 821,802 L 821,790 L 820,789 L 820,787 L 819,786 L 819,784 L 818,783 L 818,782 L 817,781 L 817,780 L 816,779 L 816,777 L 814,775 L 814,774 L 813,773 L 813,772 L 808,767 L 807,767 L 805,765 L 804,765 L 803,764 L 802,764 L 801,763 L 799,763 L 798,762 L 795,762 L 794,761 L 789,761 L 788,760 L 779,760 L 777,758 L 777,757 L 776,756 L 776,755 L 775,754 L 775,753 L 774,752 L 774,750 L 773,749 L 773,747 L 772,746 L 772,743 L 771,742 L 771,738 L 770,737 L 770,711 L 771,710 L 771,700 L 772,699 L 772,692 L 773,691 L 773,685 L 774,684 L 774,678 L 775,677 L 775,671 L 776,670 L 776,662 L 777,661 L 777,656 L 778,655 L 778,649 L 779,648 L 779,642 L 780,641 L 780,636 L 781,635 L 781,629 L 782,628 L 782,623 L 783,622 L 783,617 L 784,616 L 784,611 L 785,610 L 785,605 L 786,604 L 786,600 L 787,599 L 787,594 L 788,593 L 788,590 L 789,589 L 789,585 L 790,584 L 790,580 L 791,579 L 791,578 L 795,574 L 796,574 L 808,562 L 808,561 L 811,558 L 811,557 L 812,556 L 815,556 L 816,557 L 817,557 L 818,556 L 819,556 L 831,544 L 831,543 L 833,541 L 833,540 L 835,538 L 835,537 L 837,535 L 837,534 L 838,533 L 838,532 L 839,531 L 839,530 L 840,529 L 840,528 L 841,527 L 841,526 L 842,525 L 843,525 L 844,526 L 849,526 L 849,525 L 853,521 L 853,520 L 855,518 L 855,517 L 857,515 L 857,514 L 858,513 L 858,512 L 859,511 L 859,510 L 861,508 L 861,507 L 862,506 L 862,505 L 863,504 L 863,502 L 864,501 L 864,500 L 865,499 L 865,496 L 866,495 L 866,493 L 867,492 L 867,487 L 868,486 L 868,480 L 872,476 L 872,475 L 874,473 L 874,472 L 876,470 L 876,469 L 877,468 L 877,467 L 878,466 L 878,465 L 879,464 L 879,462 L 880,461 L 880,459 L 881,458 L 881,456 L 882,455 L 882,452 L 883,451 L 883,447 L 884,446 L 884,424 L 885,423 L 886,423 L 887,422 L 888,422 L 889,421 L 889,420 L 890,419 L 890,418 L 891,417 L 891,402 L 890,401 L 890,396 L 889,395 L 889,391 L 888,390 L 888,388 L 887,387 L 887,384 L 886,383 L 886,382 L 885,381 L 885,379 L 886,378 L 890,378 L 891,377 L 893,377 L 893,376 L 894,375 L 894,369 L 892,369 L 885,362 L 885,361 L 884,360 L 884,359 L 883,358 L 883,357 L 882,356 L 882,354 L 881,353 L 881,351 L 880,350 L 880,345 L 879,344 L 879,340 L 880,339 L 880,334 L 884,330 L 885,330 L 886,329 L 888,329 L 889,328 L 891,328 L 892,327 L 894,327 L 895,326 L 896,326 L 897,325 L 898,325 L 899,324 L 900,324 L 901,323 L 903,323 L 904,322 L 905,322 L 907,320 L 914,320 L 915,321 L 916,320 L 923,320 L 924,319 L 928,319 L 929,318 L 931,318 L 932,317 L 934,317 L 935,316 L 936,316 L 937,315 L 938,315 L 939,314 L 940,314 L 941,313 L 942,313 L 944,311 L 945,311 L 955,301 L 955,300 L 956,299 L 956,298 L 958,296 L 958,295 L 959,294 L 959,293 L 960,292 L 960,290 L 961,289 L 961,287 L 962,286 L 962,284 L 963,283 L 963,279 L 964,278 L 964,271 L 965,270 L 965,246 L 964,245 L 964,240 L 965,239 L 965,236 L 966,235 L 966,233 L 967,232 L 967,225 L 968,224 L 967,223 L 967,219 L 964,216 L 962,216 L 961,215 L 959,215 L 958,214 L 955,214 L 954,213 L 950,213 L 949,212 L 944,212 L 943,211 L 939,211 L 938,210 L 933,210 L 932,209 L 928,209 L 927,208 L 923,208 L 922,207 L 918,207 L 917,206 L 915,206 L 914,205 L 913,205 L 912,204 L 911,204 L 910,203 L 910,202 L 909,201 L 910,200 L 910,197 L 911,196 L 911,193 L 912,192 L 912,186 L 911,185 L 911,181 L 910,180 L 910,178 L 909,177 L 909,176 L 908,175 L 908,173 L 906,171 L 906,170 L 905,169 L 905,168 L 903,166 L 903,165 L 898,160 L 898,159 L 896,157 L 895,157 L 894,156 L 894,155 L 893,155 L 891,153 L 890,153 L 888,151 L 887,151 L 886,150 L 885,150 L 883,148 L 882,148 L 881,147 L 880,147 L 879,146 L 878,146 L 877,145 L 875,145 L 874,144 L 873,144 L 872,143 L 871,143 L 870,142 L 867,142 L 866,141 L 864,141 L 863,140 L 860,140 L 859,139 L 855,139 L 854,138 L 848,138 L 847,137 Z" fill="black" /></svg>