<?xml version="1.0" encoding="utf-8" ?>
<svg baseProfile="full" height="1024" version="1.1" width="1024" xmlns="http://www.w3.org/2000/svg" xmlns:ev="http://www.w3.org/2001/xml-events" xmlns:xlink="http://www.w3.org/1999/xlink"><defs /><path d="M 508,824 Z" fill="black" /><path d="M 498,806 Z" fill="black" /><path d="M 498,803 L 498,804 Z" fill="black" /><path d="M 645,775 Z" fill="black" /><path d="M 259,755 Z" fill="black" /><path d="M 628,734 Z" fill="black" /><path d="M 139,409 Z" fill="black" /><path d="M 491,385 Z" fill="black" /><path d="M 403,372 L 403,373 Z" fill="black" /><path d="M 913,294 Z" fill="black" /><path d="M 172,288 Z" fill="black" /><path d="M 945,235 Z" fill="black" /><path d="M 933,235 Z" fill="black" /><path d="M 469,185 Z" fill="black" /><path d="M 472,174 Z" fill="black" /><path d="M 942,168 Z" fill="black" /><path d="M 510,69 L 509,70 L 505,70 L 504,71 L 502,71 L 501,72 L 499,72 L 498,73 L 497,73 L 496,74 L 495,74 L 494,75 L 493,75 L 492,76 L 491,76 L 490,77 L 491,77 L 492,76 L 497,76 L 498,75 L 505,75 L 506,76 L 506,77 L 505,78 L 501,78 L 500,79 L 497,79 L 496,80 L 494,80 L 493,81 L 491,81 L 490,82 L 489,82 L 488,83 L 487,83 L 486,84 L 485,84 L 483,86 L 482,86 L 480,88 L 479,88 L 477,90 L 476,90 L 469,97 L 469,98 L 467,100 L 468,100 L 469,99 L 471,99 L 472,98 L 473,98 L 474,97 L 475,98 L 475,99 L 469,105 L 469,106 L 467,108 L 467,109 L 465,111 L 465,112 L 464,113 L 464,114 L 463,115 L 463,116 L 461,118 L 461,120 L 460,121 L 460,122 L 459,123 L 459,124 L 458,125 L 458,126 L 457,127 L 457,129 L 456,130 L 456,133 L 455,134 L 455,138 L 454,139 L 454,146 L 453,147 L 453,160 L 454,159 L 454,155 L 455,154 L 455,152 L 456,151 L 456,149 L 457,148 L 457,147 L 458,146 L 458,145 L 459,144 L 459,142 L 460,141 L 460,140 L 462,138 L 462,137 L 463,136 L 463,135 L 465,133 L 465,132 L 469,128 L 469,127 L 478,118 L 479,118 L 482,115 L 483,115 L 484,116 L 481,119 L 481,120 L 476,125 L 476,126 L 474,128 L 474,129 L 472,131 L 472,132 L 471,133 L 471,134 L 470,135 L 470,136 L 469,137 L 469,138 L 468,139 L 468,140 L 467,141 L 467,142 L 466,143 L 466,145 L 465,146 L 465,148 L 464,149 L 464,151 L 463,152 L 463,154 L 462,155 L 462,158 L 461,159 L 461,161 L 460,162 L 460,166 L 459,167 L 459,171 L 458,172 L 458,177 L 457,178 L 457,185 L 456,186 L 456,194 L 455,195 L 455,206 L 454,207 L 454,218 L 453,219 L 453,231 L 452,232 L 452,240 L 451,241 L 451,246 L 450,247 L 450,251 L 449,252 L 449,255 L 448,256 L 448,259 L 447,260 L 447,262 L 446,263 L 446,265 L 445,266 L 445,267 L 444,268 L 444,269 L 443,270 L 446,267 L 446,266 L 447,265 L 447,264 L 449,262 L 449,261 L 450,260 L 450,259 L 451,258 L 451,257 L 452,256 L 452,255 L 453,254 L 453,253 L 454,252 L 454,250 L 455,249 L 455,248 L 456,247 L 456,245 L 457,244 L 457,241 L 458,240 L 458,238 L 459,237 L 459,233 L 460,232 L 460,229 L 461,228 L 461,223 L 462,222 L 462,218 L 463,217 L 463,211 L 464,210 L 464,203 L 465,202 L 465,195 L 466,194 L 466,188 L 467,187 L 467,182 L 468,181 L 468,178 L 469,177 L 469,174 L 470,173 L 470,171 L 471,170 L 471,168 L 472,167 L 472,165 L 473,164 L 473,163 L 474,162 L 474,161 L 475,160 L 475,159 L 476,158 L 476,157 L 477,156 L 477,155 L 478,154 L 478,153 L 479,152 L 480,153 L 480,155 L 479,156 L 479,158 L 478,159 L 478,160 L 477,161 L 477,163 L 476,164 L 476,167 L 475,168 L 475,172 L 474,173 L 474,177 L 473,178 L 473,184 L 472,185 L 472,196 L 471,197 L 471,233 L 472,234 L 472,256 L 471,257 L 471,269 L 470,270 L 470,276 L 469,277 L 469,282 L 468,283 L 468,286 L 467,287 L 467,290 L 466,291 L 466,293 L 465,294 L 465,297 L 464,298 L 464,300 L 463,301 L 463,302 L 462,303 L 462,305 L 461,306 L 461,308 L 460,309 L 460,310 L 459,311 L 459,312 L 458,313 L 458,314 L 457,315 L 457,317 L 456,318 L 456,319 L 454,321 L 454,322 L 453,323 L 453,324 L 451,326 L 451,327 L 448,330 L 448,331 L 444,335 L 445,334 L 446,334 L 448,332 L 449,332 L 451,330 L 452,330 L 461,321 L 461,320 L 464,317 L 464,316 L 466,314 L 466,313 L 467,312 L 467,311 L 469,309 L 469,308 L 470,307 L 470,306 L 471,305 L 471,304 L 473,302 L 473,300 L 474,299 L 474,298 L 475,297 L 475,296 L 476,295 L 476,294 L 477,293 L 477,291 L 478,290 L 478,288 L 479,287 L 479,286 L 480,285 L 480,282 L 481,281 L 481,280 L 482,279 L 482,276 L 483,275 L 483,273 L 484,272 L 484,269 L 485,268 L 485,264 L 486,263 L 487,264 L 487,292 L 486,293 L 486,300 L 485,301 L 485,307 L 484,308 L 484,312 L 483,313 L 483,316 L 482,317 L 482,321 L 481,322 L 481,326 L 480,327 L 480,332 L 479,333 L 479,337 L 478,338 L 478,343 L 477,344 L 477,349 L 476,350 L 476,363 L 475,364 L 475,367 L 476,368 L 476,383 L 477,384 L 477,387 L 478,388 L 478,391 L 479,392 L 479,394 L 480,395 L 480,397 L 481,398 L 481,399 L 482,400 L 482,401 L 483,402 L 483,404 L 484,405 L 484,403 L 483,402 L 483,397 L 482,396 L 482,367 L 483,366 L 483,360 L 484,359 L 484,354 L 485,353 L 485,349 L 486,348 L 486,344 L 487,343 L 487,340 L 488,339 L 488,335 L 489,334 L 489,331 L 491,329 L 491,328 L 492,327 L 492,326 L 493,325 L 493,323 L 494,322 L 494,320 L 495,319 L 495,315 L 496,314 L 496,311 L 497,310 L 498,311 L 498,339 L 497,340 L 497,352 L 496,353 L 496,361 L 495,362 L 495,370 L 494,371 L 494,380 L 493,381 L 493,415 L 494,416 L 494,419 L 495,420 L 495,425 L 496,426 L 496,427 L 496,406 L 497,405 L 497,396 L 498,395 L 498,392 L 499,391 L 499,389 L 500,388 L 500,385 L 501,384 L 501,382 L 502,381 L 502,379 L 503,378 L 503,375 L 504,374 L 504,372 L 505,371 L 505,367 L 506,366 L 507,367 L 507,388 L 506,389 L 507,390 L 507,414 L 508,415 L 508,422 L 509,423 L 509,426 L 508,427 L 506,427 L 505,428 L 504,428 L 503,429 L 500,429 L 499,430 L 497,430 L 496,431 L 493,431 L 492,432 L 489,432 L 488,433 L 486,433 L 485,434 L 480,434 L 479,435 L 475,435 L 474,436 L 469,436 L 468,437 L 461,437 L 460,438 L 449,438 L 448,439 L 447,438 L 446,439 L 419,439 L 418,438 L 416,438 L 415,439 L 414,438 L 399,438 L 398,437 L 388,437 L 387,436 L 375,436 L 374,435 L 364,435 L 363,434 L 353,434 L 351,432 L 370,413 L 371,414 L 371,416 L 370,417 L 370,419 L 369,420 L 369,422 L 368,423 L 368,424 L 367,425 L 367,427 L 365,429 L 366,429 L 368,427 L 369,427 L 371,425 L 372,425 L 375,422 L 376,422 L 383,415 L 383,414 L 387,410 L 387,409 L 388,408 L 388,407 L 390,405 L 390,404 L 392,402 L 392,401 L 393,400 L 393,399 L 394,398 L 394,397 L 395,396 L 395,394 L 396,393 L 396,392 L 397,391 L 397,389 L 398,388 L 398,385 L 399,384 L 399,381 L 400,380 L 400,376 L 401,375 L 401,356 L 402,355 L 403,356 L 403,359 L 404,360 L 404,364 L 405,365 L 405,375 L 406,376 L 406,388 L 405,389 L 405,392 L 405,391 L 406,390 L 406,389 L 407,388 L 407,386 L 408,385 L 408,384 L 409,383 L 409,382 L 410,381 L 410,379 L 411,378 L 411,377 L 412,376 L 412,374 L 413,373 L 413,370 L 414,369 L 414,366 L 415,365 L 415,361 L 416,360 L 416,355 L 417,354 L 417,326 L 416,325 L 416,321 L 415,320 L 415,317 L 414,316 L 414,313 L 413,312 L 413,310 L 412,309 L 412,308 L 411,307 L 411,305 L 410,304 L 410,302 L 409,301 L 409,300 L 408,299 L 408,298 L 406,296 L 406,295 L 405,294 L 405,293 L 403,291 L 403,290 L 402,289 L 402,288 L 400,286 L 400,285 L 395,280 L 395,279 L 385,269 L 384,269 L 380,265 L 379,265 L 376,262 L 375,262 L 373,260 L 374,259 L 375,259 L 376,260 L 377,260 L 378,261 L 380,261 L 381,262 L 382,262 L 383,263 L 384,263 L 385,264 L 387,264 L 388,265 L 389,265 L 391,267 L 392,267 L 393,268 L 394,268 L 396,270 L 397,270 L 399,272 L 400,272 L 404,276 L 405,276 L 414,285 L 414,286 L 414,284 L 413,283 L 413,282 L 412,281 L 412,279 L 411,278 L 411,277 L 410,276 L 410,275 L 409,274 L 409,273 L 408,272 L 408,271 L 406,269 L 406,268 L 405,267 L 405,266 L 403,264 L 403,263 L 399,259 L 399,258 L 384,243 L 383,243 L 380,240 L 379,240 L 377,238 L 376,238 L 374,236 L 373,236 L 371,234 L 370,234 L 369,233 L 368,233 L 367,232 L 366,232 L 365,231 L 364,231 L 363,230 L 362,230 L 361,229 L 360,229 L 359,228 L 358,228 L 357,227 L 355,227 L 354,226 L 352,226 L 351,225 L 350,225 L 349,224 L 347,224 L 346,223 L 343,223 L 342,222 L 340,222 L 339,221 L 335,221 L 334,220 L 331,220 L 330,219 L 325,219 L 324,218 L 317,218 L 316,217 L 296,217 L 295,218 L 288,218 L 287,217 L 288,216 L 289,216 L 290,215 L 292,215 L 293,214 L 295,214 L 296,213 L 298,213 L 299,212 L 303,212 L 304,211 L 308,211 L 309,210 L 317,210 L 318,209 L 330,209 L 331,210 L 336,210 L 335,210 L 334,209 L 333,209 L 332,208 L 330,208 L 329,207 L 328,207 L 327,206 L 325,206 L 324,205 L 321,205 L 320,204 L 317,204 L 316,203 L 311,203 L 310,202 L 287,202 L 286,203 L 280,203 L 279,204 L 274,204 L 273,205 L 269,205 L 268,206 L 264,206 L 263,207 L 261,207 L 260,208 L 258,208 L 257,209 L 255,209 L 254,210 L 252,210 L 251,211 L 249,211 L 248,212 L 247,212 L 246,213 L 245,213 L 244,214 L 242,214 L 241,215 L 240,215 L 239,216 L 238,216 L 237,217 L 236,217 L 235,218 L 234,218 L 232,220 L 231,220 L 230,221 L 229,221 L 227,223 L 226,223 L 225,224 L 224,224 L 221,227 L 220,227 L 218,229 L 217,229 L 213,233 L 212,233 L 197,248 L 197,249 L 193,253 L 193,254 L 189,258 L 189,259 L 187,261 L 187,262 L 186,263 L 186,264 L 184,266 L 184,267 L 183,268 L 183,269 L 181,271 L 181,272 L 180,273 L 180,274 L 179,275 L 179,276 L 178,277 L 178,279 L 177,280 L 177,281 L 176,282 L 176,284 L 175,285 L 175,287 L 174,288 L 174,289 L 173,290 L 173,293 L 172,294 L 172,296 L 171,297 L 171,300 L 170,301 L 169,300 L 169,291 L 170,290 L 170,281 L 171,280 L 171,274 L 172,273 L 172,269 L 173,268 L 173,265 L 174,264 L 174,261 L 175,260 L 175,257 L 176,256 L 176,255 L 177,254 L 177,252 L 178,251 L 178,249 L 179,248 L 179,247 L 180,246 L 180,244 L 181,243 L 181,242 L 182,241 L 182,240 L 183,239 L 183,238 L 184,237 L 184,236 L 185,235 L 185,234 L 186,233 L 186,232 L 187,231 L 187,230 L 189,228 L 189,227 L 190,226 L 190,225 L 193,222 L 193,221 L 195,219 L 195,218 L 199,214 L 199,213 L 197,215 L 196,215 L 194,217 L 193,217 L 192,218 L 191,218 L 188,221 L 187,221 L 184,224 L 183,224 L 172,235 L 172,236 L 168,240 L 168,241 L 165,244 L 165,245 L 163,247 L 163,248 L 161,250 L 161,251 L 160,252 L 160,253 L 158,255 L 158,256 L 157,257 L 157,258 L 156,259 L 156,260 L 155,261 L 155,262 L 154,263 L 154,264 L 153,265 L 153,267 L 152,268 L 152,269 L 151,270 L 151,271 L 150,272 L 150,274 L 149,275 L 149,277 L 148,278 L 148,280 L 147,281 L 147,283 L 146,284 L 146,287 L 145,288 L 145,291 L 144,292 L 144,296 L 143,297 L 143,302 L 142,303 L 142,310 L 141,311 L 141,332 L 142,333 L 142,340 L 143,341 L 143,345 L 144,346 L 144,350 L 145,351 L 145,352 L 146,353 L 146,356 L 147,357 L 147,359 L 148,360 L 148,362 L 149,363 L 149,365 L 150,366 L 150,367 L 151,368 L 151,369 L 150,370 L 145,365 L 145,364 L 140,359 L 140,358 L 138,356 L 138,355 L 136,353 L 136,352 L 135,351 L 135,350 L 134,349 L 134,348 L 133,347 L 133,346 L 132,345 L 132,344 L 131,343 L 131,342 L 130,341 L 130,340 L 129,339 L 129,338 L 128,337 L 128,335 L 127,334 L 127,332 L 126,331 L 126,329 L 125,328 L 125,326 L 124,325 L 124,322 L 123,321 L 123,317 L 122,316 L 122,311 L 121,310 L 121,302 L 120,301 L 120,289 L 121,288 L 121,285 L 121,286 L 120,287 L 120,288 L 119,289 L 119,291 L 118,292 L 118,293 L 117,294 L 117,296 L 116,297 L 116,300 L 115,301 L 115,304 L 114,305 L 114,309 L 113,310 L 113,320 L 112,321 L 112,329 L 113,330 L 113,342 L 114,343 L 114,348 L 115,349 L 115,354 L 116,355 L 116,358 L 117,359 L 117,362 L 118,363 L 118,365 L 119,366 L 119,368 L 120,369 L 120,371 L 121,372 L 121,374 L 122,375 L 122,376 L 123,377 L 123,378 L 124,379 L 124,381 L 125,382 L 125,383 L 127,385 L 127,386 L 128,387 L 128,388 L 129,389 L 129,390 L 131,392 L 131,393 L 133,395 L 133,396 L 135,398 L 135,399 L 137,401 L 137,402 L 150,415 L 151,415 L 153,417 L 152,418 L 151,418 L 150,417 L 149,417 L 148,416 L 147,416 L 146,415 L 145,415 L 144,414 L 143,414 L 142,413 L 141,413 L 140,412 L 139,412 L 137,410 L 136,410 L 134,408 L 133,408 L 131,406 L 130,406 L 126,402 L 125,402 L 113,390 L 113,389 L 109,385 L 109,384 L 106,381 L 106,380 L 104,378 L 104,377 L 102,375 L 102,374 L 101,373 L 101,372 L 100,371 L 100,370 L 99,369 L 99,368 L 98,367 L 98,366 L 97,365 L 97,363 L 96,362 L 96,361 L 96,365 L 97,366 L 97,373 L 98,374 L 98,377 L 99,378 L 99,382 L 100,383 L 100,385 L 101,386 L 101,388 L 102,389 L 102,390 L 103,391 L 103,393 L 104,394 L 104,395 L 105,396 L 105,397 L 106,398 L 106,399 L 107,400 L 107,401 L 108,402 L 108,403 L 110,405 L 110,406 L 111,407 L 111,408 L 113,410 L 113,411 L 116,414 L 116,415 L 121,420 L 121,421 L 122,421 L 123,422 L 123,423 L 124,423 L 125,424 L 125,425 L 127,427 L 128,427 L 135,434 L 136,434 L 139,437 L 140,437 L 142,439 L 143,439 L 145,441 L 146,441 L 148,443 L 149,443 L 150,444 L 151,444 L 153,446 L 154,446 L 155,447 L 157,447 L 158,448 L 159,448 L 160,449 L 161,449 L 162,450 L 163,450 L 164,451 L 165,451 L 166,452 L 168,452 L 169,453 L 171,453 L 172,454 L 174,454 L 175,455 L 178,455 L 179,456 L 178,457 L 166,457 L 165,456 L 159,456 L 158,455 L 153,455 L 152,454 L 149,454 L 148,453 L 145,453 L 144,452 L 142,452 L 141,451 L 139,451 L 138,450 L 137,450 L 136,449 L 135,449 L 134,448 L 132,448 L 131,447 L 130,447 L 129,446 L 128,446 L 126,444 L 125,444 L 124,443 L 123,443 L 121,441 L 120,441 L 115,436 L 114,436 L 111,433 L 111,432 L 110,431 L 110,432 L 111,433 L 111,434 L 113,436 L 113,437 L 115,439 L 115,440 L 119,444 L 119,445 L 130,456 L 131,456 L 136,461 L 137,461 L 139,463 L 140,463 L 141,464 L 142,464 L 144,466 L 145,466 L 146,467 L 147,467 L 148,468 L 149,468 L 150,469 L 151,469 L 152,470 L 153,470 L 154,471 L 156,471 L 157,472 L 158,472 L 159,473 L 161,473 L 162,474 L 164,474 L 165,475 L 168,475 L 169,476 L 172,476 L 173,477 L 176,477 L 177,478 L 182,478 L 183,479 L 206,479 L 207,480 L 206,481 L 204,481 L 203,482 L 200,482 L 199,483 L 197,483 L 196,484 L 192,484 L 191,485 L 185,485 L 184,486 L 165,486 L 164,485 L 161,485 L 160,484 L 158,484 L 159,485 L 160,485 L 164,489 L 165,489 L 166,490 L 167,490 L 168,491 L 169,491 L 170,492 L 171,492 L 172,493 L 174,493 L 175,494 L 177,494 L 178,495 L 181,495 L 182,496 L 187,496 L 188,497 L 204,497 L 205,498 L 204,499 L 204,500 L 200,504 L 200,505 L 198,507 L 198,508 L 196,510 L 196,511 L 194,513 L 194,514 L 192,516 L 192,517 L 191,518 L 191,519 L 189,521 L 189,522 L 188,523 L 188,524 L 187,525 L 187,526 L 186,527 L 186,528 L 185,529 L 185,530 L 184,531 L 184,532 L 183,533 L 183,534 L 182,535 L 182,536 L 181,537 L 181,538 L 180,539 L 180,540 L 179,541 L 179,542 L 178,543 L 178,544 L 177,545 L 177,547 L 176,548 L 176,550 L 175,551 L 175,552 L 174,553 L 174,555 L 173,556 L 173,557 L 172,558 L 172,561 L 171,562 L 171,563 L 170,564 L 170,567 L 169,568 L 169,570 L 168,571 L 168,574 L 167,575 L 167,578 L 166,579 L 166,582 L 165,583 L 165,586 L 164,587 L 164,591 L 163,592 L 163,597 L 162,598 L 162,604 L 161,605 L 161,621 L 160,622 L 160,634 L 161,635 L 161,646 L 162,645 L 162,644 L 163,643 L 163,642 L 164,641 L 164,640 L 165,639 L 165,637 L 166,636 L 166,635 L 167,634 L 167,633 L 168,632 L 168,630 L 169,629 L 170,630 L 170,633 L 169,634 L 169,641 L 168,642 L 168,647 L 167,648 L 167,653 L 166,654 L 166,657 L 165,658 L 165,662 L 164,663 L 164,665 L 163,666 L 163,668 L 162,669 L 162,671 L 161,672 L 161,673 L 160,674 L 160,676 L 159,677 L 159,678 L 158,679 L 158,680 L 156,682 L 156,683 L 153,686 L 153,687 L 148,692 L 147,692 L 147,693 L 148,692 L 151,692 L 152,691 L 154,691 L 155,690 L 157,690 L 158,689 L 159,689 L 160,688 L 161,688 L 162,687 L 163,687 L 164,686 L 165,686 L 167,684 L 168,684 L 176,676 L 177,677 L 177,681 L 176,682 L 176,685 L 175,686 L 175,688 L 174,689 L 174,691 L 173,692 L 173,694 L 172,695 L 172,696 L 171,697 L 171,698 L 170,699 L 170,700 L 169,701 L 169,703 L 167,705 L 167,706 L 166,707 L 166,708 L 164,710 L 164,711 L 155,720 L 154,720 L 153,721 L 152,721 L 151,722 L 150,722 L 149,723 L 146,723 L 147,724 L 150,724 L 151,725 L 162,725 L 163,724 L 167,724 L 168,723 L 170,723 L 171,722 L 173,722 L 174,721 L 175,721 L 176,720 L 177,720 L 179,718 L 180,719 L 180,720 L 179,721 L 179,722 L 177,724 L 177,725 L 174,728 L 174,729 L 160,743 L 160,744 L 158,746 L 158,747 L 157,748 L 157,749 L 156,750 L 156,752 L 155,753 L 155,789 L 156,790 L 156,810 L 155,811 L 155,838 L 154,839 L 154,869 L 155,870 L 155,875 L 156,876 L 156,878 L 157,879 L 157,881 L 158,882 L 158,883 L 159,884 L 159,885 L 160,886 L 160,887 L 161,888 L 161,889 L 167,895 L 168,895 L 170,897 L 171,897 L 172,898 L 173,898 L 174,899 L 176,899 L 177,900 L 179,900 L 180,901 L 189,901 L 190,902 L 191,901 L 199,901 L 200,900 L 203,900 L 204,901 L 205,900 L 215,900 L 216,899 L 219,899 L 220,898 L 222,898 L 224,896 L 226,896 L 227,895 L 228,895 L 229,894 L 230,894 L 232,892 L 233,892 L 233,891 L 234,890 L 234,889 L 235,888 L 235,878 L 234,877 L 234,875 L 233,874 L 233,872 L 232,871 L 232,869 L 231,868 L 231,867 L 230,866 L 230,865 L 228,863 L 228,862 L 221,855 L 220,855 L 218,853 L 217,853 L 216,852 L 214,852 L 213,851 L 211,851 L 209,849 L 208,849 L 207,848 L 207,847 L 206,846 L 206,845 L 205,844 L 205,842 L 204,841 L 204,838 L 203,837 L 203,811 L 204,810 L 204,805 L 205,804 L 205,800 L 206,799 L 206,796 L 207,795 L 207,793 L 208,792 L 208,790 L 209,789 L 209,787 L 210,786 L 210,785 L 211,784 L 211,783 L 212,782 L 212,781 L 213,780 L 213,779 L 215,777 L 215,776 L 217,774 L 217,773 L 219,771 L 219,770 L 224,765 L 224,764 L 231,757 L 232,757 L 237,752 L 238,752 L 241,749 L 242,749 L 244,747 L 245,747 L 246,746 L 247,746 L 249,744 L 250,744 L 251,743 L 252,743 L 253,742 L 254,742 L 255,741 L 256,741 L 257,740 L 259,740 L 260,739 L 261,739 L 262,738 L 263,738 L 264,737 L 265,737 L 266,738 L 266,739 L 265,740 L 265,741 L 264,742 L 264,744 L 263,745 L 263,747 L 262,748 L 262,751 L 261,752 L 261,761 L 262,762 L 262,765 L 263,766 L 263,768 L 264,769 L 264,771 L 265,772 L 265,773 L 266,774 L 266,775 L 267,776 L 267,778 L 268,779 L 268,780 L 269,781 L 269,782 L 270,783 L 270,784 L 271,785 L 271,787 L 272,788 L 272,790 L 273,791 L 273,793 L 274,794 L 274,796 L 275,797 L 275,799 L 276,800 L 276,803 L 277,804 L 277,807 L 278,808 L 278,812 L 279,813 L 279,816 L 280,817 L 280,821 L 281,822 L 281,825 L 282,826 L 282,829 L 283,830 L 283,834 L 284,835 L 284,839 L 285,840 L 285,842 L 286,843 L 286,845 L 287,846 L 287,847 L 288,848 L 288,849 L 289,850 L 289,851 L 291,853 L 291,854 L 299,862 L 300,862 L 303,865 L 304,865 L 305,866 L 306,866 L 307,867 L 308,867 L 309,868 L 311,868 L 312,869 L 316,869 L 317,870 L 327,870 L 328,869 L 347,869 L 348,868 L 350,868 L 351,867 L 353,867 L 354,866 L 356,866 L 357,865 L 359,865 L 360,864 L 361,864 L 366,859 L 366,857 L 367,856 L 367,847 L 366,846 L 366,844 L 365,843 L 365,842 L 364,841 L 364,840 L 363,839 L 363,838 L 362,837 L 362,836 L 353,827 L 352,827 L 351,826 L 350,826 L 349,825 L 348,825 L 347,824 L 345,824 L 344,823 L 341,823 L 340,822 L 336,822 L 335,821 L 331,821 L 330,820 L 328,820 L 327,819 L 326,819 L 323,816 L 323,815 L 322,814 L 322,813 L 321,812 L 321,811 L 320,810 L 320,809 L 319,808 L 319,807 L 318,806 L 318,804 L 317,803 L 317,800 L 316,799 L 316,797 L 315,796 L 315,791 L 314,790 L 314,785 L 313,784 L 313,776 L 312,775 L 312,765 L 313,764 L 313,762 L 314,761 L 314,759 L 315,758 L 315,756 L 316,755 L 316,754 L 317,753 L 317,752 L 318,751 L 318,750 L 319,749 L 319,748 L 321,746 L 321,745 L 323,743 L 323,742 L 327,738 L 327,737 L 331,733 L 332,733 L 336,729 L 337,729 L 343,723 L 344,723 L 359,708 L 359,707 L 363,703 L 363,702 L 366,699 L 366,698 L 369,695 L 369,694 L 371,692 L 371,691 L 374,688 L 374,687 L 377,684 L 377,683 L 379,681 L 379,680 L 383,676 L 383,675 L 386,672 L 386,671 L 387,670 L 388,670 L 389,671 L 389,672 L 402,685 L 403,685 L 407,689 L 408,689 L 410,691 L 411,691 L 413,693 L 414,693 L 416,695 L 417,695 L 418,696 L 419,696 L 420,697 L 421,697 L 422,698 L 423,698 L 424,699 L 425,699 L 421,695 L 421,694 L 420,693 L 420,692 L 418,690 L 418,689 L 417,688 L 417,687 L 416,686 L 416,685 L 415,684 L 415,683 L 414,682 L 414,681 L 413,680 L 413,679 L 412,678 L 412,677 L 411,676 L 411,675 L 410,674 L 410,673 L 411,672 L 420,681 L 420,682 L 424,686 L 424,687 L 426,689 L 426,690 L 428,692 L 428,693 L 432,697 L 432,698 L 437,703 L 438,703 L 442,707 L 443,707 L 445,709 L 446,709 L 448,711 L 449,711 L 450,712 L 451,712 L 452,713 L 453,713 L 450,710 L 450,709 L 447,706 L 447,705 L 446,704 L 446,703 L 444,701 L 444,700 L 443,699 L 443,698 L 442,697 L 442,696 L 441,695 L 441,694 L 439,692 L 440,691 L 441,691 L 444,694 L 445,694 L 449,698 L 450,698 L 452,700 L 453,700 L 455,702 L 456,702 L 457,703 L 458,703 L 459,704 L 460,704 L 461,705 L 463,705 L 464,706 L 466,706 L 467,707 L 471,707 L 472,708 L 475,708 L 476,709 L 480,709 L 481,710 L 481,711 L 478,714 L 478,715 L 476,717 L 476,718 L 474,720 L 474,722 L 473,723 L 473,724 L 472,725 L 472,727 L 471,728 L 471,730 L 470,731 L 470,733 L 469,734 L 469,738 L 468,739 L 468,762 L 469,763 L 469,767 L 470,768 L 470,770 L 471,771 L 471,773 L 472,774 L 472,776 L 473,777 L 473,778 L 474,779 L 474,781 L 475,782 L 475,768 L 476,767 L 476,762 L 477,761 L 477,757 L 478,756 L 478,753 L 479,752 L 479,751 L 481,749 L 481,748 L 486,743 L 487,744 L 487,747 L 486,748 L 486,750 L 485,751 L 485,755 L 484,756 L 484,760 L 483,761 L 483,782 L 484,783 L 484,787 L 485,788 L 485,791 L 486,792 L 486,795 L 487,796 L 487,798 L 488,799 L 488,801 L 489,802 L 489,803 L 490,804 L 490,806 L 491,807 L 491,808 L 492,809 L 492,810 L 493,811 L 493,812 L 495,814 L 495,815 L 495,807 L 496,806 L 496,799 L 497,798 L 497,795 L 498,794 L 498,793 L 499,792 L 499,790 L 500,789 L 501,790 L 501,802 L 500,803 L 500,811 L 499,812 L 499,815 L 498,816 L 498,818 L 497,819 L 497,820 L 496,821 L 496,822 L 495,823 L 495,824 L 493,826 L 493,827 L 491,829 L 490,829 L 488,831 L 493,831 L 494,830 L 496,830 L 497,829 L 498,829 L 499,828 L 500,828 L 501,827 L 502,827 L 510,819 L 511,820 L 511,821 L 510,822 L 510,827 L 509,828 L 509,832 L 508,833 L 508,836 L 507,837 L 507,839 L 506,840 L 506,841 L 505,842 L 505,843 L 498,850 L 497,850 L 496,851 L 495,851 L 496,851 L 497,852 L 511,852 L 512,851 L 515,851 L 516,850 L 517,850 L 518,849 L 520,849 L 521,848 L 522,849 L 522,850 L 520,852 L 520,853 L 518,855 L 518,856 L 517,857 L 517,858 L 516,859 L 516,860 L 515,861 L 515,863 L 514,864 L 514,865 L 513,866 L 513,871 L 512,872 L 512,874 L 513,874 L 513,873 L 519,867 L 520,867 L 521,866 L 522,866 L 523,865 L 524,865 L 525,864 L 526,864 L 527,863 L 529,863 L 530,862 L 531,862 L 532,861 L 533,861 L 534,860 L 535,860 L 536,859 L 537,859 L 538,858 L 539,859 L 539,862 L 540,863 L 540,866 L 541,867 L 541,869 L 542,870 L 542,871 L 543,872 L 543,874 L 544,875 L 544,876 L 545,877 L 545,878 L 546,879 L 546,880 L 547,881 L 547,882 L 548,883 L 548,885 L 549,886 L 549,888 L 550,889 L 550,892 L 551,893 L 551,897 L 552,898 L 552,904 L 553,905 L 553,911 L 554,912 L 554,916 L 555,917 L 555,920 L 556,921 L 556,923 L 557,924 L 557,925 L 558,926 L 558,927 L 559,928 L 559,929 L 562,932 L 562,933 L 567,938 L 568,938 L 570,940 L 571,940 L 572,941 L 573,941 L 575,943 L 577,943 L 578,944 L 581,944 L 582,945 L 584,945 L 585,946 L 593,946 L 594,947 L 595,946 L 600,946 L 601,945 L 604,945 L 605,946 L 623,946 L 624,945 L 626,945 L 627,944 L 628,944 L 629,943 L 630,943 L 632,941 L 635,941 L 636,940 L 637,940 L 639,938 L 640,938 L 640,937 L 643,934 L 643,933 L 644,932 L 644,920 L 643,919 L 643,917 L 642,916 L 642,914 L 641,913 L 641,912 L 640,911 L 640,910 L 639,909 L 639,908 L 637,906 L 637,905 L 631,899 L 630,899 L 628,897 L 627,897 L 626,896 L 625,896 L 624,895 L 622,895 L 621,894 L 619,894 L 618,893 L 617,893 L 611,887 L 611,886 L 609,884 L 609,883 L 608,882 L 608,880 L 607,879 L 607,877 L 606,876 L 606,874 L 605,873 L 605,870 L 604,869 L 604,866 L 603,865 L 603,861 L 602,860 L 602,853 L 601,852 L 601,838 L 602,837 L 602,825 L 603,824 L 603,796 L 604,795 L 604,786 L 605,785 L 605,778 L 606,777 L 606,773 L 607,772 L 607,769 L 608,768 L 608,765 L 609,764 L 609,762 L 610,761 L 610,760 L 611,759 L 611,757 L 612,756 L 612,755 L 613,754 L 613,753 L 614,752 L 614,751 L 615,750 L 615,749 L 617,747 L 617,746 L 618,745 L 618,744 L 620,742 L 620,741 L 622,739 L 622,738 L 625,735 L 625,734 L 630,729 L 631,730 L 631,733 L 630,734 L 630,737 L 629,738 L 629,743 L 628,744 L 628,767 L 629,768 L 629,771 L 630,772 L 630,774 L 631,775 L 631,777 L 632,778 L 632,779 L 633,780 L 633,781 L 634,782 L 634,783 L 636,785 L 636,786 L 640,790 L 640,791 L 641,791 L 640,790 L 640,788 L 639,787 L 639,773 L 640,772 L 640,768 L 641,767 L 641,765 L 642,764 L 642,762 L 643,761 L 643,760 L 644,759 L 644,758 L 645,757 L 645,756 L 646,755 L 646,753 L 647,752 L 648,753 L 648,758 L 647,759 L 647,778 L 648,779 L 648,801 L 647,802 L 647,811 L 646,812 L 646,817 L 645,818 L 645,822 L 644,823 L 644,825 L 643,826 L 643,828 L 642,829 L 642,831 L 641,832 L 641,834 L 640,835 L 640,836 L 639,837 L 639,838 L 638,839 L 638,840 L 637,841 L 637,842 L 635,844 L 635,845 L 641,845 L 642,844 L 644,844 L 645,843 L 647,843 L 648,842 L 649,842 L 650,841 L 651,841 L 653,839 L 654,839 L 656,837 L 657,838 L 657,839 L 658,840 L 658,845 L 659,846 L 659,848 L 660,849 L 660,850 L 661,851 L 661,852 L 662,853 L 662,854 L 663,855 L 663,856 L 664,857 L 664,858 L 665,859 L 665,860 L 666,861 L 666,862 L 667,863 L 667,865 L 668,866 L 668,868 L 669,869 L 669,871 L 670,872 L 670,874 L 671,875 L 671,879 L 672,880 L 672,882 L 673,883 L 673,886 L 674,887 L 674,889 L 675,890 L 675,892 L 676,893 L 676,894 L 678,896 L 678,897 L 680,899 L 680,900 L 685,905 L 686,905 L 687,906 L 688,906 L 690,908 L 691,908 L 692,909 L 694,909 L 695,910 L 697,910 L 698,911 L 701,911 L 702,912 L 706,912 L 707,913 L 725,913 L 726,912 L 740,912 L 741,911 L 742,911 L 743,912 L 744,911 L 746,911 L 747,910 L 748,910 L 749,909 L 750,909 L 751,908 L 752,908 L 753,907 L 755,907 L 756,906 L 757,906 L 762,901 L 762,900 L 763,899 L 763,888 L 762,887 L 762,885 L 761,884 L 761,883 L 760,882 L 760,881 L 759,880 L 759,879 L 758,878 L 758,877 L 756,875 L 756,874 L 753,871 L 753,870 L 752,870 L 748,866 L 747,866 L 746,865 L 745,865 L 744,864 L 742,864 L 741,863 L 738,863 L 737,862 L 732,862 L 731,861 L 724,861 L 723,860 L 721,860 L 716,855 L 716,854 L 715,853 L 715,852 L 713,850 L 713,848 L 712,847 L 712,846 L 711,845 L 711,844 L 710,843 L 710,840 L 709,839 L 709,836 L 708,835 L 708,830 L 707,829 L 707,810 L 708,809 L 708,800 L 709,799 L 709,790 L 710,789 L 710,782 L 711,781 L 711,776 L 712,775 L 712,770 L 713,769 L 713,765 L 714,764 L 714,759 L 715,758 L 715,755 L 716,754 L 716,750 L 717,749 L 717,745 L 718,744 L 718,740 L 719,739 L 719,736 L 720,735 L 720,732 L 721,731 L 721,728 L 722,727 L 722,725 L 723,724 L 723,721 L 724,720 L 724,718 L 725,717 L 725,715 L 726,714 L 726,712 L 727,711 L 727,709 L 728,708 L 728,706 L 729,705 L 729,703 L 730,702 L 730,700 L 731,699 L 731,698 L 732,697 L 732,696 L 733,695 L 733,694 L 735,692 L 735,691 L 736,690 L 736,689 L 737,688 L 737,687 L 738,686 L 738,685 L 740,683 L 740,682 L 741,681 L 741,680 L 742,679 L 742,678 L 743,677 L 743,676 L 744,675 L 745,676 L 745,693 L 746,694 L 746,697 L 747,698 L 747,699 L 748,700 L 748,702 L 750,704 L 750,705 L 752,707 L 752,708 L 757,713 L 758,713 L 758,712 L 756,710 L 756,707 L 755,706 L 755,696 L 756,695 L 756,691 L 757,690 L 757,688 L 758,687 L 758,685 L 759,684 L 759,682 L 760,681 L 760,680 L 761,679 L 761,678 L 762,677 L 762,676 L 763,675 L 763,674 L 764,673 L 764,672 L 765,671 L 765,670 L 767,668 L 767,667 L 769,665 L 769,664 L 770,663 L 770,662 L 772,660 L 772,659 L 773,658 L 773,657 L 775,655 L 775,654 L 776,653 L 776,652 L 777,651 L 777,650 L 778,649 L 778,648 L 779,647 L 779,645 L 780,644 L 780,643 L 781,642 L 781,640 L 782,639 L 782,637 L 783,636 L 784,637 L 784,639 L 785,640 L 785,642 L 786,643 L 786,644 L 787,645 L 787,647 L 789,649 L 789,650 L 795,656 L 796,656 L 797,657 L 798,657 L 799,658 L 800,658 L 801,659 L 802,659 L 798,655 L 798,654 L 797,653 L 797,652 L 796,651 L 796,650 L 795,649 L 795,646 L 794,645 L 794,640 L 793,639 L 793,628 L 794,627 L 794,621 L 795,620 L 795,618 L 796,617 L 796,614 L 797,613 L 797,611 L 798,610 L 798,609 L 799,608 L 799,606 L 800,605 L 800,603 L 801,602 L 801,600 L 802,599 L 802,597 L 803,596 L 803,594 L 804,593 L 804,591 L 805,590 L 805,587 L 806,586 L 806,583 L 807,582 L 807,578 L 808,577 L 808,572 L 809,571 L 809,560 L 810,559 L 810,556 L 811,555 L 812,556 L 812,569 L 813,570 L 813,584 L 812,585 L 812,595 L 811,596 L 811,601 L 810,602 L 811,602 L 811,601 L 812,600 L 812,599 L 813,598 L 813,596 L 814,595 L 814,594 L 815,593 L 815,592 L 816,591 L 816,589 L 817,588 L 817,586 L 818,585 L 818,584 L 819,583 L 819,580 L 820,579 L 820,577 L 821,576 L 821,574 L 822,573 L 822,570 L 823,569 L 823,566 L 824,565 L 824,561 L 825,560 L 825,556 L 826,555 L 826,549 L 827,548 L 827,541 L 828,540 L 828,501 L 827,500 L 827,492 L 826,491 L 826,484 L 825,483 L 825,477 L 826,476 L 826,472 L 827,471 L 827,465 L 828,464 L 828,430 L 829,429 L 830,430 L 830,432 L 831,433 L 831,435 L 832,436 L 832,437 L 833,438 L 833,440 L 834,441 L 834,443 L 835,444 L 835,447 L 836,448 L 836,451 L 837,452 L 837,455 L 838,456 L 838,462 L 839,463 L 839,473 L 840,474 L 840,491 L 839,492 L 839,495 L 838,496 L 839,495 L 839,494 L 840,493 L 840,491 L 841,490 L 841,489 L 842,488 L 842,486 L 843,485 L 843,483 L 844,482 L 844,480 L 845,479 L 845,476 L 846,475 L 846,470 L 847,469 L 847,440 L 846,439 L 846,434 L 845,433 L 845,430 L 844,429 L 844,426 L 843,425 L 843,423 L 842,422 L 842,419 L 841,418 L 841,416 L 840,415 L 840,413 L 839,412 L 839,411 L 838,410 L 838,408 L 837,407 L 837,405 L 836,404 L 836,402 L 835,401 L 835,399 L 834,398 L 834,397 L 833,396 L 833,394 L 832,393 L 832,391 L 831,390 L 831,388 L 830,387 L 830,385 L 829,384 L 829,382 L 828,381 L 828,380 L 827,379 L 827,376 L 826,375 L 826,374 L 825,373 L 825,371 L 824,370 L 824,367 L 825,366 L 826,367 L 826,369 L 827,370 L 827,371 L 828,372 L 828,374 L 829,375 L 829,376 L 830,377 L 830,378 L 831,379 L 831,380 L 832,381 L 832,383 L 833,384 L 833,385 L 834,386 L 834,387 L 835,388 L 835,389 L 836,390 L 836,391 L 837,392 L 837,393 L 838,394 L 838,395 L 839,396 L 839,397 L 840,398 L 840,399 L 841,400 L 841,401 L 843,403 L 843,404 L 844,405 L 844,406 L 845,407 L 845,408 L 846,409 L 846,410 L 847,411 L 847,412 L 848,413 L 848,414 L 849,415 L 849,416 L 851,418 L 851,419 L 852,420 L 852,421 L 853,422 L 853,423 L 854,424 L 854,426 L 855,427 L 855,428 L 856,429 L 856,430 L 857,431 L 857,433 L 858,434 L 858,435 L 859,436 L 859,438 L 860,439 L 860,441 L 861,442 L 861,446 L 862,447 L 862,451 L 863,452 L 863,460 L 864,461 L 864,471 L 863,472 L 863,480 L 862,481 L 862,486 L 861,487 L 861,490 L 860,491 L 860,494 L 859,495 L 859,496 L 858,497 L 858,499 L 857,500 L 857,501 L 856,502 L 856,503 L 855,504 L 855,506 L 853,508 L 853,509 L 852,510 L 852,511 L 847,516 L 848,515 L 849,515 L 854,510 L 855,510 L 855,509 L 856,508 L 857,508 L 862,503 L 862,502 L 867,497 L 867,496 L 869,494 L 869,493 L 871,491 L 871,490 L 872,489 L 872,488 L 874,486 L 874,485 L 875,484 L 875,483 L 876,482 L 876,481 L 877,480 L 877,478 L 878,477 L 878,476 L 879,475 L 879,474 L 880,473 L 880,471 L 881,470 L 881,468 L 882,467 L 882,465 L 883,464 L 883,461 L 884,460 L 884,456 L 885,455 L 885,450 L 886,449 L 886,438 L 887,437 L 887,426 L 886,425 L 886,415 L 885,414 L 885,408 L 884,407 L 884,404 L 883,403 L 883,400 L 882,399 L 882,396 L 881,395 L 881,394 L 880,393 L 880,392 L 881,391 L 883,393 L 883,394 L 885,396 L 885,397 L 887,399 L 887,400 L 888,401 L 888,402 L 890,404 L 890,405 L 891,406 L 891,408 L 892,409 L 892,410 L 893,411 L 893,412 L 894,413 L 894,415 L 895,416 L 895,418 L 896,419 L 896,421 L 897,422 L 897,425 L 898,426 L 898,429 L 899,430 L 899,434 L 900,435 L 900,441 L 901,442 L 901,457 L 900,458 L 900,464 L 899,465 L 899,468 L 899,467 L 900,466 L 900,464 L 901,463 L 901,461 L 902,460 L 902,457 L 903,456 L 903,452 L 904,451 L 904,444 L 905,443 L 905,432 L 904,431 L 904,424 L 903,423 L 903,419 L 902,418 L 902,416 L 901,415 L 901,412 L 900,411 L 900,409 L 899,408 L 899,406 L 898,405 L 898,403 L 897,402 L 897,401 L 896,400 L 896,399 L 895,398 L 895,397 L 894,396 L 894,394 L 893,393 L 893,392 L 892,391 L 892,390 L 891,389 L 891,387 L 890,386 L 890,384 L 889,383 L 889,381 L 888,380 L 888,378 L 887,377 L 887,374 L 886,373 L 886,369 L 885,368 L 885,364 L 884,363 L 884,358 L 883,357 L 883,351 L 882,350 L 882,346 L 881,345 L 881,341 L 882,340 L 883,341 L 883,343 L 884,344 L 884,346 L 885,347 L 885,348 L 886,349 L 886,351 L 887,352 L 887,353 L 888,354 L 888,355 L 889,356 L 889,357 L 890,358 L 890,359 L 891,360 L 891,361 L 892,362 L 892,363 L 893,364 L 893,365 L 894,366 L 894,367 L 895,368 L 895,369 L 897,371 L 897,372 L 898,373 L 898,374 L 900,376 L 900,377 L 902,379 L 902,380 L 904,382 L 904,383 L 907,386 L 907,387 L 912,392 L 912,393 L 921,402 L 922,402 L 925,405 L 926,405 L 928,407 L 929,407 L 925,403 L 925,402 L 923,400 L 923,399 L 922,398 L 922,397 L 920,395 L 920,394 L 919,393 L 919,392 L 918,391 L 918,390 L 916,388 L 916,387 L 915,386 L 915,385 L 914,384 L 914,382 L 913,381 L 913,380 L 912,379 L 912,378 L 911,377 L 911,376 L 910,375 L 910,373 L 909,372 L 909,371 L 908,370 L 908,368 L 907,367 L 907,365 L 906,364 L 906,361 L 905,360 L 905,357 L 904,356 L 904,353 L 903,352 L 903,348 L 902,347 L 902,339 L 901,338 L 901,316 L 902,315 L 902,307 L 903,306 L 903,300 L 904,299 L 904,295 L 905,294 L 905,290 L 906,289 L 906,286 L 907,285 L 907,282 L 908,281 L 908,279 L 909,278 L 909,276 L 910,275 L 910,272 L 911,271 L 912,272 L 912,280 L 913,281 L 913,286 L 914,287 L 914,290 L 915,291 L 915,294 L 916,295 L 916,297 L 917,298 L 917,300 L 918,301 L 918,303 L 919,304 L 919,306 L 920,307 L 920,308 L 921,309 L 921,310 L 922,311 L 922,313 L 924,315 L 924,316 L 925,317 L 925,318 L 926,319 L 926,320 L 928,322 L 928,323 L 930,325 L 930,326 L 934,330 L 934,331 L 937,334 L 938,334 L 942,338 L 943,338 L 944,339 L 945,339 L 947,341 L 948,341 L 949,342 L 950,342 L 945,337 L 945,336 L 942,333 L 942,332 L 940,330 L 940,329 L 938,327 L 938,326 L 937,325 L 937,324 L 936,323 L 936,322 L 935,321 L 935,320 L 934,319 L 934,317 L 933,316 L 933,315 L 932,314 L 932,312 L 931,311 L 931,310 L 930,309 L 930,306 L 929,305 L 929,302 L 928,301 L 928,298 L 927,297 L 927,292 L 926,291 L 926,286 L 925,285 L 925,276 L 924,275 L 924,258 L 925,257 L 925,247 L 926,246 L 926,240 L 927,239 L 927,231 L 928,230 L 928,225 L 929,224 L 929,217 L 930,216 L 930,194 L 931,193 L 932,194 L 932,198 L 933,199 L 933,203 L 934,204 L 934,212 L 935,213 L 935,258 L 934,259 L 934,266 L 933,267 L 933,272 L 932,273 L 932,278 L 931,279 L 931,282 L 931,281 L 932,280 L 932,279 L 933,278 L 933,277 L 934,276 L 934,274 L 935,273 L 935,272 L 936,271 L 936,269 L 937,268 L 937,266 L 938,265 L 938,262 L 939,261 L 939,258 L 940,257 L 940,253 L 941,252 L 941,247 L 942,246 L 942,240 L 943,239 L 943,226 L 944,225 L 944,199 L 943,198 L 943,188 L 942,187 L 942,178 L 941,177 L 941,172 L 940,171 L 940,167 L 939,166 L 939,163 L 938,162 L 938,158 L 937,157 L 937,155 L 936,154 L 936,151 L 935,150 L 935,148 L 934,147 L 934,145 L 933,144 L 933,142 L 932,141 L 932,140 L 931,139 L 931,138 L 930,137 L 930,135 L 929,134 L 929,133 L 927,131 L 927,130 L 926,129 L 926,128 L 924,126 L 924,125 L 925,124 L 929,128 L 929,129 L 931,131 L 931,132 L 933,134 L 933,135 L 934,136 L 934,137 L 936,139 L 936,140 L 937,141 L 937,142 L 938,143 L 938,144 L 939,145 L 939,147 L 940,148 L 940,149 L 941,150 L 941,151 L 942,152 L 942,154 L 943,155 L 943,157 L 944,158 L 944,161 L 945,162 L 945,164 L 946,165 L 946,168 L 947,169 L 947,172 L 948,173 L 948,175 L 948,151 L 947,150 L 947,145 L 946,144 L 946,140 L 945,139 L 945,136 L 944,135 L 944,133 L 943,132 L 943,130 L 942,129 L 942,127 L 941,126 L 941,125 L 940,124 L 940,122 L 939,121 L 939,120 L 938,119 L 938,118 L 937,117 L 937,116 L 936,115 L 936,114 L 935,113 L 935,112 L 933,110 L 933,109 L 931,107 L 931,106 L 927,102 L 927,101 L 922,96 L 921,96 L 916,91 L 915,91 L 914,90 L 913,90 L 911,88 L 910,88 L 909,87 L 908,87 L 907,86 L 905,86 L 904,85 L 903,85 L 902,84 L 899,84 L 898,83 L 895,83 L 894,82 L 888,82 L 887,81 L 888,80 L 904,80 L 905,81 L 909,81 L 910,82 L 916,82 L 917,83 L 917,82 L 916,82 L 915,81 L 914,81 L 912,79 L 911,79 L 910,78 L 909,78 L 908,77 L 907,77 L 906,76 L 904,76 L 903,75 L 901,75 L 900,74 L 898,74 L 897,73 L 893,73 L 892,72 L 874,72 L 873,73 L 868,73 L 867,74 L 863,74 L 862,75 L 859,75 L 858,76 L 856,76 L 855,77 L 853,77 L 852,78 L 850,78 L 849,79 L 847,79 L 846,80 L 845,80 L 844,81 L 842,81 L 841,82 L 840,82 L 839,83 L 838,83 L 837,84 L 836,84 L 835,85 L 834,85 L 833,86 L 832,86 L 831,87 L 830,87 L 829,88 L 828,88 L 827,89 L 826,89 L 824,91 L 823,91 L 822,92 L 821,92 L 819,94 L 818,94 L 816,96 L 815,96 L 813,98 L 812,98 L 810,100 L 809,100 L 806,103 L 805,103 L 801,107 L 800,107 L 794,113 L 793,113 L 793,114 L 792,115 L 791,115 L 785,121 L 785,122 L 777,130 L 777,131 L 773,135 L 773,136 L 770,139 L 770,140 L 768,142 L 768,143 L 766,145 L 766,146 L 764,148 L 764,149 L 763,150 L 763,151 L 762,152 L 762,153 L 761,154 L 761,155 L 759,157 L 759,158 L 758,159 L 758,160 L 757,161 L 757,163 L 756,164 L 756,165 L 755,166 L 755,167 L 754,168 L 754,170 L 753,171 L 753,172 L 752,173 L 752,175 L 751,176 L 751,178 L 749,180 L 748,179 L 746,179 L 745,178 L 743,178 L 742,177 L 739,177 L 738,176 L 735,176 L 734,175 L 730,175 L 729,174 L 725,174 L 724,173 L 716,173 L 715,172 L 699,172 L 698,173 L 690,173 L 689,174 L 684,174 L 683,175 L 679,175 L 678,176 L 675,176 L 674,177 L 671,177 L 670,178 L 667,178 L 666,179 L 664,179 L 663,180 L 662,180 L 661,181 L 659,181 L 658,182 L 657,182 L 656,183 L 655,183 L 654,184 L 652,184 L 651,183 L 651,179 L 650,178 L 650,175 L 649,174 L 649,171 L 648,170 L 648,168 L 647,167 L 647,165 L 646,164 L 646,162 L 645,161 L 645,160 L 644,159 L 644,158 L 643,157 L 643,155 L 642,154 L 642,153 L 641,152 L 641,151 L 640,150 L 640,149 L 639,148 L 639,147 L 638,146 L 638,145 L 636,143 L 636,142 L 635,141 L 635,140 L 633,138 L 633,137 L 631,135 L 631,134 L 629,132 L 629,131 L 627,129 L 627,128 L 625,126 L 625,125 L 621,121 L 621,120 L 615,114 L 615,113 L 606,104 L 605,104 L 599,98 L 598,98 L 594,94 L 593,94 L 591,92 L 590,92 L 588,90 L 587,90 L 585,88 L 584,88 L 582,86 L 581,86 L 580,85 L 579,85 L 578,84 L 577,84 L 575,82 L 574,82 L 573,81 L 572,81 L 571,80 L 570,80 L 569,79 L 567,79 L 566,78 L 565,78 L 564,77 L 563,77 L 562,76 L 560,76 L 559,75 L 557,75 L 556,74 L 554,74 L 553,73 L 550,73 L 549,72 L 547,72 L 546,71 L 542,71 L 541,70 L 535,70 L 534,69 Z" fill="black" /></svg>