<?xml version="1.0" encoding="utf-8" ?>
<svg baseProfile="full" height="1024" version="1.1" width="1024" xmlns="http://www.w3.org/2000/svg" xmlns:ev="http://www.w3.org/2001/xml-events" xmlns:xlink="http://www.w3.org/1999/xlink"><defs /><path d="M 763,118 L 762,119 L 759,119 L 758,120 L 755,120 L 754,121 L 752,121 L 751,122 L 749,122 L 748,123 L 747,123 L 746,124 L 745,124 L 744,125 L 743,125 L 742,126 L 741,126 L 740,127 L 739,127 L 738,128 L 737,128 L 736,129 L 735,129 L 732,132 L 731,132 L 729,134 L 728,134 L 723,139 L 722,139 L 722,140 L 713,149 L 713,150 L 709,154 L 703,154 L 702,153 L 700,153 L 699,152 L 696,152 L 695,151 L 692,151 L 691,150 L 654,150 L 653,151 L 648,151 L 647,152 L 642,152 L 641,153 L 640,153 L 639,152 L 637,152 L 632,147 L 632,146 L 623,137 L 622,137 L 619,134 L 618,134 L 615,131 L 614,131 L 613,130 L 612,130 L 611,129 L 610,129 L 609,128 L 608,128 L 607,127 L 606,127 L 605,126 L 604,126 L 603,125 L 601,125 L 600,124 L 598,124 L 597,123 L 595,123 L 594,122 L 577,122 L 576,123 L 573,123 L 572,124 L 571,124 L 570,125 L 568,125 L 567,126 L 566,126 L 564,128 L 563,128 L 559,132 L 558,132 L 556,134 L 556,135 L 552,139 L 552,140 L 550,142 L 550,143 L 549,144 L 549,145 L 548,146 L 548,147 L 547,148 L 547,149 L 546,150 L 546,151 L 545,152 L 545,154 L 544,155 L 544,156 L 543,157 L 543,159 L 542,160 L 542,162 L 541,163 L 541,165 L 540,166 L 540,169 L 539,170 L 539,172 L 538,173 L 538,176 L 537,177 L 537,179 L 536,180 L 536,182 L 534,184 L 534,185 L 532,187 L 531,187 L 530,188 L 526,188 L 525,189 L 522,189 L 521,190 L 519,190 L 518,191 L 516,191 L 515,192 L 514,192 L 512,194 L 512,195 L 510,197 L 510,198 L 509,199 L 509,200 L 508,201 L 508,202 L 510,202 L 511,201 L 513,201 L 514,200 L 518,200 L 519,199 L 522,199 L 523,200 L 521,202 L 520,202 L 520,203 L 518,205 L 517,205 L 508,214 L 508,215 L 501,222 L 501,223 L 496,228 L 496,229 L 491,234 L 491,235 L 489,237 L 489,238 L 487,240 L 487,241 L 486,242 L 486,243 L 484,245 L 484,246 L 481,249 L 481,250 L 478,253 L 478,254 L 476,256 L 476,257 L 475,258 L 475,259 L 473,261 L 473,262 L 472,263 L 472,264 L 470,266 L 470,267 L 468,269 L 468,270 L 466,272 L 466,273 L 464,275 L 464,276 L 460,280 L 460,281 L 454,287 L 454,288 L 449,293 L 448,292 L 448,291 L 449,290 L 449,284 L 450,283 L 450,256 L 449,255 L 449,251 L 448,250 L 448,247 L 447,246 L 447,244 L 446,243 L 446,242 L 445,241 L 445,239 L 444,238 L 444,237 L 443,236 L 443,235 L 442,234 L 442,233 L 441,232 L 441,231 L 440,230 L 440,229 L 439,228 L 439,227 L 438,226 L 438,225 L 436,223 L 436,222 L 434,220 L 434,219 L 427,212 L 427,211 L 425,209 L 424,209 L 417,202 L 416,202 L 413,199 L 412,199 L 410,197 L 409,197 L 407,195 L 406,195 L 404,193 L 403,193 L 401,191 L 400,191 L 401,192 L 401,193 L 403,195 L 403,196 L 404,197 L 404,198 L 405,199 L 405,200 L 406,201 L 406,202 L 407,203 L 407,204 L 408,205 L 408,208 L 409,209 L 409,212 L 410,213 L 410,218 L 411,219 L 411,240 L 410,241 L 409,240 L 409,237 L 408,236 L 408,235 L 407,234 L 407,232 L 406,231 L 406,230 L 405,229 L 405,228 L 404,227 L 404,225 L 403,224 L 403,223 L 402,222 L 402,221 L 400,219 L 400,218 L 399,217 L 399,216 L 397,214 L 397,213 L 396,212 L 396,211 L 394,209 L 394,208 L 391,205 L 391,204 L 383,196 L 383,195 L 382,194 L 381,194 L 374,187 L 373,187 L 370,184 L 369,184 L 367,182 L 366,182 L 364,180 L 363,180 L 362,179 L 361,179 L 360,178 L 359,178 L 358,177 L 357,177 L 356,176 L 355,176 L 354,175 L 353,175 L 352,174 L 350,174 L 349,173 L 347,173 L 346,172 L 344,172 L 343,171 L 341,171 L 340,170 L 338,170 L 337,169 L 335,169 L 334,168 L 332,168 L 331,167 L 328,167 L 327,166 L 324,166 L 323,165 L 317,165 L 316,164 L 309,164 L 308,163 L 289,163 L 289,164 L 290,164 L 291,165 L 292,165 L 293,166 L 294,166 L 295,167 L 297,167 L 298,168 L 299,168 L 301,170 L 302,170 L 303,171 L 304,171 L 306,173 L 307,173 L 309,175 L 310,175 L 312,177 L 313,177 L 317,181 L 318,181 L 335,198 L 335,199 L 337,201 L 337,204 L 336,205 L 335,205 L 334,204 L 333,204 L 331,202 L 330,202 L 328,200 L 327,200 L 326,199 L 325,199 L 324,198 L 323,198 L 321,196 L 320,196 L 319,195 L 318,195 L 317,194 L 316,194 L 315,193 L 313,193 L 312,192 L 310,192 L 309,191 L 307,191 L 306,190 L 304,190 L 303,189 L 299,189 L 298,188 L 291,188 L 290,187 L 262,187 L 261,188 L 255,188 L 254,189 L 249,189 L 248,190 L 243,190 L 242,191 L 239,191 L 238,192 L 235,192 L 234,193 L 232,193 L 231,194 L 229,194 L 228,195 L 226,195 L 225,196 L 223,196 L 222,197 L 220,197 L 219,198 L 217,198 L 216,199 L 215,199 L 214,200 L 213,200 L 212,201 L 210,201 L 209,202 L 208,202 L 207,203 L 206,203 L 205,204 L 204,204 L 203,205 L 202,205 L 201,206 L 200,206 L 199,207 L 198,207 L 196,209 L 195,209 L 194,210 L 193,210 L 190,213 L 189,213 L 180,222 L 179,222 L 172,229 L 172,230 L 167,235 L 167,236 L 164,239 L 164,240 L 167,237 L 168,237 L 169,236 L 170,236 L 172,234 L 174,234 L 175,233 L 176,233 L 177,232 L 179,232 L 180,231 L 183,231 L 184,230 L 187,230 L 188,229 L 192,229 L 193,228 L 212,228 L 213,229 L 212,230 L 211,230 L 210,231 L 208,231 L 207,232 L 205,232 L 204,233 L 203,233 L 202,234 L 200,234 L 199,235 L 198,235 L 197,236 L 196,236 L 195,237 L 194,237 L 193,238 L 192,238 L 191,239 L 190,239 L 188,241 L 187,241 L 186,242 L 185,242 L 183,244 L 182,244 L 179,247 L 178,247 L 175,250 L 174,250 L 169,255 L 168,255 L 168,256 L 166,258 L 165,258 L 160,263 L 160,264 L 152,272 L 152,273 L 148,277 L 148,278 L 145,281 L 145,282 L 142,285 L 142,286 L 140,288 L 140,289 L 138,291 L 138,292 L 136,294 L 136,295 L 135,296 L 135,297 L 133,299 L 133,300 L 132,301 L 132,302 L 131,303 L 131,304 L 130,305 L 130,306 L 129,307 L 129,308 L 128,309 L 128,310 L 127,311 L 127,313 L 126,314 L 126,315 L 125,316 L 125,317 L 124,318 L 124,320 L 123,321 L 123,322 L 122,323 L 122,324 L 121,325 L 121,327 L 120,328 L 120,330 L 119,331 L 119,333 L 118,334 L 118,336 L 117,337 L 117,340 L 116,341 L 116,343 L 115,344 L 115,347 L 114,348 L 114,351 L 113,352 L 113,356 L 112,357 L 112,361 L 111,362 L 111,368 L 110,369 L 110,374 L 109,375 L 109,383 L 108,384 L 108,405 L 109,406 L 109,414 L 110,415 L 110,420 L 111,421 L 111,424 L 112,425 L 112,429 L 113,430 L 113,433 L 114,434 L 114,436 L 115,437 L 115,439 L 116,440 L 116,442 L 117,443 L 117,445 L 118,446 L 118,447 L 119,448 L 119,451 L 120,452 L 120,454 L 121,455 L 121,456 L 122,457 L 122,458 L 123,459 L 123,460 L 124,461 L 124,462 L 125,463 L 125,464 L 126,465 L 126,466 L 127,467 L 127,469 L 128,470 L 128,468 L 127,467 L 127,464 L 128,463 L 128,454 L 129,453 L 129,448 L 130,447 L 130,443 L 131,442 L 131,440 L 132,439 L 132,436 L 133,435 L 134,436 L 134,439 L 135,440 L 135,449 L 136,450 L 136,456 L 137,457 L 137,462 L 138,463 L 138,469 L 139,470 L 139,489 L 138,490 L 138,493 L 137,494 L 137,497 L 136,498 L 136,500 L 135,501 L 135,502 L 134,503 L 134,504 L 133,505 L 133,506 L 132,507 L 132,508 L 131,509 L 131,510 L 129,512 L 129,513 L 127,515 L 127,516 L 123,520 L 122,520 L 121,521 L 119,521 L 118,522 L 115,522 L 114,523 L 113,523 L 112,522 L 111,523 L 113,523 L 115,525 L 117,525 L 118,526 L 120,526 L 121,527 L 123,527 L 124,528 L 139,528 L 140,527 L 144,527 L 145,526 L 148,526 L 149,525 L 151,525 L 152,524 L 154,524 L 155,523 L 156,523 L 157,522 L 158,522 L 159,521 L 160,521 L 162,519 L 163,519 L 164,518 L 165,518 L 169,514 L 170,514 L 171,513 L 172,514 L 172,515 L 171,516 L 171,517 L 170,518 L 170,519 L 169,520 L 169,521 L 167,523 L 167,525 L 166,526 L 166,527 L 165,528 L 165,529 L 164,530 L 164,531 L 163,532 L 163,533 L 162,534 L 162,536 L 161,537 L 161,538 L 160,539 L 160,541 L 159,542 L 159,544 L 158,545 L 158,546 L 157,547 L 157,549 L 156,550 L 156,552 L 155,553 L 155,555 L 154,556 L 154,557 L 153,558 L 153,560 L 152,561 L 152,562 L 151,563 L 151,565 L 150,566 L 150,568 L 149,569 L 149,571 L 148,572 L 148,575 L 147,576 L 147,577 L 146,578 L 146,581 L 145,582 L 145,583 L 144,584 L 144,586 L 143,587 L 143,590 L 142,591 L 142,595 L 141,596 L 141,607 L 140,608 L 140,620 L 141,621 L 141,629 L 142,630 L 142,634 L 143,635 L 143,638 L 144,639 L 144,642 L 145,643 L 145,645 L 146,646 L 146,648 L 147,649 L 147,651 L 148,652 L 148,653 L 149,654 L 149,656 L 150,657 L 150,654 L 151,653 L 151,649 L 152,648 L 152,645 L 153,644 L 153,643 L 154,642 L 154,640 L 155,639 L 155,638 L 156,637 L 156,636 L 157,635 L 157,634 L 159,632 L 159,631 L 162,628 L 163,629 L 163,631 L 162,632 L 162,636 L 161,637 L 161,640 L 160,641 L 160,644 L 159,645 L 159,647 L 158,648 L 158,651 L 157,652 L 157,659 L 156,660 L 156,674 L 157,675 L 157,678 L 158,679 L 158,685 L 159,686 L 159,689 L 160,690 L 160,692 L 161,693 L 161,695 L 162,696 L 162,697 L 163,698 L 163,700 L 164,701 L 164,702 L 165,703 L 165,704 L 166,705 L 166,706 L 167,707 L 167,708 L 168,709 L 168,710 L 169,711 L 169,712 L 170,713 L 170,714 L 171,715 L 171,716 L 173,718 L 173,719 L 175,721 L 175,722 L 177,724 L 177,725 L 180,728 L 180,729 L 182,731 L 182,732 L 184,734 L 184,735 L 188,739 L 188,740 L 189,741 L 188,742 L 188,743 L 187,744 L 187,746 L 186,747 L 186,749 L 185,750 L 185,754 L 184,755 L 184,759 L 183,760 L 183,786 L 184,787 L 184,809 L 183,810 L 183,854 L 184,855 L 184,859 L 185,860 L 185,862 L 186,863 L 186,865 L 187,866 L 187,867 L 188,868 L 188,869 L 189,870 L 189,871 L 190,872 L 190,873 L 196,879 L 197,879 L 198,880 L 199,880 L 200,881 L 201,881 L 202,882 L 203,882 L 204,883 L 207,883 L 208,884 L 211,884 L 212,885 L 218,885 L 219,886 L 243,886 L 244,885 L 250,885 L 251,884 L 254,884 L 255,883 L 256,883 L 257,882 L 258,882 L 259,881 L 260,881 L 262,879 L 263,879 L 267,875 L 268,875 L 268,874 L 271,871 L 271,870 L 272,869 L 272,868 L 273,867 L 273,864 L 274,863 L 274,862 L 273,861 L 273,856 L 272,855 L 272,851 L 271,850 L 271,848 L 270,847 L 270,846 L 269,845 L 269,844 L 267,842 L 267,841 L 264,838 L 264,837 L 263,837 L 259,833 L 258,833 L 255,830 L 254,830 L 253,829 L 253,828 L 250,825 L 250,824 L 249,823 L 249,822 L 248,821 L 248,816 L 247,815 L 247,814 L 248,813 L 248,809 L 249,808 L 249,802 L 250,801 L 250,796 L 251,795 L 251,792 L 252,791 L 252,788 L 253,787 L 253,786 L 254,785 L 254,783 L 255,782 L 255,780 L 256,779 L 256,778 L 257,777 L 257,776 L 258,775 L 258,774 L 261,771 L 261,770 L 264,767 L 264,766 L 268,762 L 268,761 L 272,757 L 273,757 L 274,756 L 276,756 L 277,755 L 279,755 L 280,754 L 281,754 L 282,753 L 283,753 L 284,752 L 285,752 L 287,750 L 288,750 L 289,749 L 290,749 L 292,747 L 293,747 L 295,745 L 296,745 L 300,741 L 301,741 L 316,726 L 316,725 L 319,722 L 319,721 L 320,720 L 321,721 L 321,732 L 320,733 L 320,741 L 319,742 L 319,746 L 318,747 L 318,758 L 319,759 L 319,764 L 320,765 L 320,769 L 321,770 L 321,774 L 322,775 L 322,778 L 323,779 L 323,783 L 324,784 L 324,787 L 325,788 L 325,793 L 326,794 L 326,797 L 327,798 L 327,802 L 328,803 L 328,806 L 329,807 L 329,810 L 330,811 L 330,814 L 331,815 L 331,819 L 332,820 L 332,823 L 333,824 L 333,826 L 334,827 L 334,829 L 335,830 L 335,832 L 336,833 L 336,835 L 337,836 L 337,837 L 338,838 L 338,839 L 340,841 L 340,842 L 346,848 L 347,848 L 349,850 L 350,850 L 351,851 L 353,851 L 354,852 L 356,852 L 357,853 L 359,853 L 360,854 L 384,854 L 385,855 L 386,855 L 387,854 L 393,854 L 394,853 L 397,853 L 398,852 L 400,852 L 401,851 L 402,851 L 403,850 L 404,850 L 405,849 L 406,849 L 409,846 L 409,845 L 410,844 L 410,843 L 411,842 L 411,835 L 410,834 L 410,831 L 409,830 L 409,829 L 408,828 L 408,827 L 406,825 L 406,824 L 399,817 L 398,817 L 396,815 L 395,815 L 393,813 L 392,813 L 391,812 L 390,812 L 388,810 L 387,810 L 382,805 L 382,802 L 381,801 L 381,770 L 382,769 L 382,761 L 383,760 L 383,759 L 386,756 L 387,756 L 391,752 L 392,752 L 398,746 L 399,746 L 408,737 L 409,737 L 410,736 L 410,735 L 417,728 L 417,727 L 420,724 L 420,723 L 421,722 L 421,721 L 422,720 L 423,721 L 423,723 L 422,724 L 423,725 L 423,726 L 422,727 L 422,736 L 423,737 L 423,743 L 424,744 L 424,750 L 425,751 L 425,754 L 426,755 L 426,758 L 427,759 L 427,761 L 428,762 L 428,763 L 429,764 L 429,766 L 430,767 L 430,768 L 431,769 L 431,770 L 432,771 L 432,772 L 432,767 L 433,766 L 433,762 L 434,761 L 434,759 L 435,758 L 435,757 L 436,756 L 436,755 L 437,754 L 437,753 L 439,751 L 439,750 L 440,749 L 440,748 L 442,746 L 442,745 L 443,744 L 444,745 L 444,748 L 443,749 L 443,755 L 442,756 L 442,778 L 443,779 L 443,784 L 444,785 L 444,787 L 445,788 L 445,791 L 446,792 L 446,794 L 447,795 L 447,796 L 448,797 L 448,799 L 449,800 L 449,801 L 451,803 L 451,804 L 452,805 L 452,806 L 454,808 L 454,809 L 456,811 L 456,812 L 461,817 L 461,818 L 463,820 L 463,819 L 462,818 L 462,817 L 461,816 L 461,814 L 460,813 L 460,802 L 461,801 L 461,800 L 462,799 L 462,798 L 463,797 L 464,798 L 464,801 L 465,802 L 465,803 L 466,804 L 466,805 L 467,806 L 467,808 L 468,809 L 468,810 L 469,811 L 469,812 L 470,813 L 470,814 L 471,815 L 471,817 L 473,819 L 473,820 L 474,821 L 474,823 L 475,824 L 475,825 L 476,826 L 476,828 L 477,829 L 477,832 L 478,833 L 478,837 L 479,838 L 479,844 L 478,845 L 478,849 L 476,851 L 476,852 L 478,852 L 479,853 L 482,853 L 483,854 L 491,854 L 492,855 L 493,854 L 494,855 L 496,855 L 497,854 L 498,855 L 499,854 L 502,854 L 503,853 L 505,853 L 506,852 L 508,852 L 510,854 L 510,855 L 511,856 L 511,860 L 512,861 L 512,866 L 513,867 L 513,870 L 514,871 L 514,874 L 515,875 L 515,877 L 516,878 L 516,880 L 517,881 L 517,883 L 518,884 L 518,886 L 519,887 L 519,888 L 520,889 L 520,891 L 522,893 L 522,894 L 523,895 L 523,896 L 524,897 L 524,898 L 534,908 L 535,908 L 537,910 L 538,910 L 539,911 L 540,911 L 541,912 L 543,912 L 544,913 L 545,913 L 546,914 L 549,914 L 550,915 L 554,915 L 555,916 L 562,916 L 563,917 L 593,917 L 594,916 L 601,916 L 602,915 L 605,915 L 606,914 L 608,914 L 609,913 L 610,913 L 611,912 L 612,912 L 613,911 L 614,911 L 615,910 L 616,910 L 621,905 L 621,904 L 622,903 L 622,902 L 623,901 L 623,899 L 624,898 L 624,888 L 623,887 L 623,883 L 622,882 L 622,881 L 621,880 L 621,879 L 620,878 L 620,877 L 619,876 L 619,875 L 616,872 L 616,871 L 614,869 L 613,869 L 597,853 L 597,852 L 596,851 L 596,850 L 595,849 L 595,847 L 594,846 L 594,840 L 593,839 L 593,825 L 594,824 L 594,815 L 595,814 L 595,806 L 596,805 L 596,799 L 597,798 L 597,795 L 598,794 L 598,788 L 599,787 L 599,783 L 600,782 L 601,783 L 602,783 L 603,784 L 604,784 L 609,789 L 610,789 L 611,790 L 621,790 L 622,789 L 623,789 L 624,788 L 626,788 L 627,787 L 628,787 L 629,786 L 635,786 L 637,788 L 637,790 L 638,791 L 638,794 L 639,795 L 641,793 L 643,793 L 644,792 L 645,792 L 646,791 L 647,791 L 648,790 L 649,790 L 651,788 L 652,788 L 653,789 L 652,790 L 652,800 L 651,801 L 651,816 L 650,817 L 651,818 L 650,819 L 650,828 L 650,827 L 652,825 L 652,824 L 653,823 L 653,822 L 654,821 L 654,820 L 655,819 L 656,819 L 657,820 L 657,833 L 658,834 L 658,839 L 659,840 L 659,843 L 660,844 L 660,846 L 661,847 L 661,850 L 662,851 L 662,853 L 663,854 L 663,855 L 664,856 L 664,858 L 665,859 L 665,861 L 666,862 L 666,863 L 667,864 L 667,865 L 668,866 L 668,867 L 669,868 L 669,869 L 670,870 L 670,871 L 673,874 L 673,875 L 675,877 L 675,878 L 679,882 L 680,882 L 682,884 L 683,884 L 685,886 L 686,886 L 687,887 L 688,887 L 689,888 L 690,888 L 691,889 L 694,889 L 695,890 L 721,890 L 722,891 L 725,891 L 726,890 L 733,890 L 734,889 L 742,889 L 743,888 L 747,888 L 748,887 L 749,887 L 750,886 L 751,886 L 752,885 L 753,885 L 755,883 L 756,883 L 759,880 L 759,879 L 761,877 L 761,876 L 762,875 L 762,873 L 763,872 L 763,858 L 762,857 L 762,856 L 761,855 L 761,853 L 759,851 L 759,850 L 757,848 L 757,847 L 748,838 L 747,838 L 745,836 L 744,836 L 743,835 L 742,835 L 741,834 L 740,834 L 739,833 L 738,833 L 736,831 L 735,831 L 734,830 L 734,829 L 731,826 L 731,825 L 729,823 L 729,820 L 728,819 L 728,803 L 727,802 L 728,801 L 728,787 L 729,786 L 729,780 L 730,779 L 730,774 L 731,773 L 731,765 L 732,764 L 732,757 L 733,756 L 733,749 L 734,748 L 734,741 L 735,740 L 735,738 L 736,737 L 736,736 L 737,735 L 737,734 L 740,731 L 741,731 L 743,729 L 744,729 L 745,728 L 746,728 L 748,726 L 749,726 L 751,724 L 752,724 L 779,697 L 779,696 L 783,692 L 783,691 L 785,689 L 785,688 L 787,686 L 787,685 L 788,684 L 788,683 L 790,681 L 790,680 L 791,679 L 791,678 L 792,677 L 792,676 L 794,674 L 794,673 L 795,672 L 796,673 L 796,688 L 797,689 L 797,694 L 798,695 L 798,698 L 799,699 L 799,701 L 799,700 L 800,699 L 800,696 L 801,695 L 801,694 L 802,693 L 802,691 L 803,690 L 803,689 L 804,688 L 804,687 L 805,686 L 805,685 L 806,684 L 806,683 L 808,681 L 808,680 L 809,679 L 809,678 L 810,677 L 810,676 L 811,675 L 811,674 L 813,672 L 813,671 L 814,670 L 814,669 L 817,666 L 817,665 L 821,661 L 821,660 L 824,657 L 824,656 L 827,653 L 827,652 L 830,649 L 830,648 L 833,645 L 833,644 L 835,642 L 835,641 L 837,639 L 837,638 L 839,636 L 839,635 L 841,633 L 841,632 L 843,630 L 843,629 L 845,627 L 845,626 L 846,625 L 846,624 L 847,623 L 847,622 L 849,620 L 849,619 L 850,618 L 850,617 L 851,616 L 851,615 L 852,614 L 852,613 L 853,612 L 853,611 L 854,610 L 854,609 L 856,607 L 856,605 L 857,604 L 857,603 L 858,602 L 858,600 L 859,599 L 859,598 L 860,597 L 860,596 L 861,595 L 861,593 L 862,592 L 862,590 L 863,589 L 863,588 L 864,587 L 864,585 L 865,584 L 865,581 L 866,580 L 866,578 L 867,577 L 867,574 L 868,573 L 868,570 L 869,569 L 869,565 L 870,564 L 870,559 L 871,558 L 871,552 L 872,551 L 872,545 L 873,544 L 873,538 L 874,537 L 875,538 L 875,541 L 876,542 L 876,546 L 877,547 L 877,553 L 878,554 L 878,564 L 879,565 L 879,571 L 879,570 L 880,569 L 880,567 L 881,566 L 881,564 L 882,563 L 882,560 L 883,559 L 883,556 L 884,555 L 884,553 L 885,552 L 885,548 L 886,547 L 886,544 L 887,543 L 887,540 L 888,539 L 888,534 L 889,533 L 889,528 L 890,527 L 890,519 L 891,518 L 891,496 L 892,495 L 892,465 L 893,464 L 894,465 L 894,467 L 895,468 L 895,470 L 896,471 L 896,472 L 897,473 L 897,475 L 898,476 L 898,479 L 899,480 L 899,486 L 900,487 L 900,488 L 900,482 L 901,481 L 901,457 L 900,456 L 900,447 L 899,446 L 899,435 L 898,434 L 898,428 L 897,427 L 897,424 L 896,423 L 896,419 L 895,418 L 895,416 L 894,415 L 894,412 L 893,411 L 893,408 L 892,407 L 892,404 L 891,403 L 891,399 L 890,398 L 890,395 L 889,394 L 889,392 L 888,391 L 888,388 L 887,387 L 887,385 L 886,384 L 886,382 L 885,381 L 885,378 L 884,377 L 884,375 L 883,374 L 883,373 L 884,372 L 886,374 L 887,374 L 889,376 L 890,376 L 892,378 L 893,378 L 894,379 L 895,379 L 897,381 L 897,379 L 896,378 L 896,375 L 895,374 L 895,372 L 894,371 L 894,369 L 893,368 L 893,366 L 892,365 L 892,363 L 891,362 L 891,360 L 890,359 L 890,357 L 889,356 L 889,354 L 888,353 L 888,351 L 887,350 L 887,349 L 886,348 L 886,346 L 885,345 L 885,344 L 884,343 L 884,341 L 883,340 L 883,339 L 882,338 L 882,337 L 881,336 L 881,335 L 880,334 L 880,332 L 879,331 L 879,330 L 878,329 L 878,327 L 877,326 L 877,325 L 876,324 L 876,323 L 875,322 L 875,320 L 874,319 L 874,318 L 873,317 L 873,316 L 871,314 L 871,313 L 870,312 L 870,311 L 868,309 L 868,308 L 866,306 L 866,305 L 864,303 L 864,302 L 862,300 L 862,299 L 860,297 L 860,296 L 859,295 L 859,294 L 857,292 L 857,291 L 856,290 L 856,289 L 857,288 L 862,288 L 863,289 L 866,289 L 867,290 L 873,290 L 874,291 L 875,291 L 875,290 L 869,284 L 869,283 L 866,280 L 866,279 L 864,277 L 864,276 L 863,275 L 863,274 L 861,272 L 861,271 L 860,270 L 860,269 L 859,268 L 859,267 L 857,265 L 857,264 L 855,262 L 855,261 L 854,260 L 854,259 L 853,258 L 853,257 L 851,255 L 851,254 L 849,252 L 849,251 L 846,248 L 846,247 L 844,245 L 844,244 L 842,242 L 842,241 L 840,239 L 840,238 L 838,236 L 838,235 L 837,234 L 837,233 L 835,231 L 835,230 L 833,228 L 833,227 L 831,225 L 831,224 L 829,222 L 829,221 L 826,218 L 826,217 L 824,215 L 823,215 L 822,214 L 822,213 L 821,212 L 820,212 L 818,210 L 817,210 L 815,208 L 818,205 L 821,205 L 822,206 L 824,206 L 825,207 L 826,207 L 827,208 L 828,208 L 829,209 L 830,209 L 831,210 L 832,210 L 833,211 L 835,211 L 836,212 L 836,208 L 835,207 L 835,206 L 834,205 L 834,204 L 830,200 L 829,200 L 828,199 L 827,199 L 826,198 L 824,198 L 823,197 L 821,197 L 820,196 L 819,196 L 817,194 L 817,193 L 816,192 L 816,191 L 815,190 L 815,187 L 814,186 L 814,180 L 813,179 L 813,174 L 812,173 L 812,168 L 811,167 L 811,162 L 810,161 L 810,157 L 809,156 L 809,152 L 808,151 L 808,147 L 807,146 L 807,143 L 806,142 L 806,140 L 805,139 L 805,137 L 804,136 L 804,135 L 803,134 L 803,133 L 802,132 L 802,131 L 800,129 L 800,128 L 797,125 L 797,124 L 796,124 L 793,121 L 792,121 L 791,120 L 790,120 L 789,119 L 786,119 L 785,118 Z" fill="black" /></svg>