<?xml version="1.0" encoding="utf-8" ?>
<svg baseProfile="full" height="1024" version="1.1" width="1024" xmlns="http://www.w3.org/2000/svg" xmlns:ev="http://www.w3.org/2001/xml-events" xmlns:xlink="http://www.w3.org/1999/xlink"><defs /><path d="M 241,632 L 240,633 L 240,636 L 239,637 L 239,638 L 238,639 L 238,641 L 237,642 L 237,643 L 236,644 L 236,645 L 235,646 L 235,648 L 234,649 L 234,650 L 233,651 L 233,652 L 232,653 L 232,654 L 231,655 L 231,656 L 230,657 L 230,658 L 229,659 L 229,660 L 228,661 L 228,662 L 227,663 L 227,664 L 226,665 L 226,666 L 225,667 L 225,668 L 224,669 L 224,670 L 223,671 L 223,672 L 222,673 L 222,674 L 221,675 L 221,676 L 219,678 L 219,679 L 218,680 L 218,681 L 217,682 L 217,683 L 215,685 L 215,686 L 214,687 L 214,688 L 212,690 L 212,691 L 211,692 L 211,693 L 209,695 L 209,696 L 207,698 L 207,699 L 205,701 L 205,702 L 203,704 L 203,705 L 200,708 L 200,709 L 198,711 L 198,712 L 195,715 L 195,716 L 190,721 L 190,722 L 185,727 L 185,728 L 178,735 L 177,735 L 175,737 L 176,736 L 182,736 L 183,735 L 185,735 L 186,734 L 188,734 L 189,733 L 190,733 L 191,732 L 192,732 L 193,731 L 194,731 L 196,729 L 197,729 L 199,727 L 200,727 L 209,718 L 209,717 L 214,712 L 214,711 L 216,709 L 216,708 L 218,706 L 218,705 L 220,703 L 220,702 L 221,701 L 221,700 L 223,698 L 223,697 L 224,696 L 224,694 L 225,693 L 225,692 L 226,691 L 226,690 L 227,689 L 227,687 L 228,686 L 228,685 L 229,684 L 229,682 L 230,681 L 230,680 L 231,679 L 231,677 L 232,676 L 232,674 L 233,673 L 233,671 L 234,670 L 234,667 L 235,666 L 235,664 L 236,663 L 236,660 L 237,659 L 237,655 L 238,654 L 238,650 L 239,649 L 239,643 L 240,642 L 240,636 L 241,635 Z" fill="black" /><path d="M 549,558 L 548,559 L 547,559 L 551,559 L 550,558 Z" fill="black" /><path d="M 652,550 L 652,551 L 653,552 L 653,557 L 654,558 L 654,562 L 655,563 L 655,566 L 656,567 L 656,569 L 657,570 L 657,572 L 658,573 L 658,575 L 659,576 L 659,577 L 660,578 L 660,580 L 661,581 L 661,582 L 662,583 L 662,584 L 663,585 L 663,586 L 664,587 L 664,588 L 666,590 L 666,591 L 667,592 L 667,593 L 668,594 L 668,595 L 669,596 L 669,597 L 670,598 L 670,599 L 671,600 L 671,601 L 672,602 L 672,603 L 673,604 L 673,605 L 674,606 L 674,607 L 675,608 L 675,610 L 676,611 L 676,612 L 677,613 L 677,614 L 678,615 L 678,617 L 679,618 L 679,619 L 680,620 L 680,622 L 681,623 L 681,624 L 682,625 L 682,627 L 683,628 L 683,630 L 684,631 L 684,633 L 685,634 L 685,636 L 686,637 L 686,640 L 687,641 L 687,644 L 688,645 L 688,648 L 689,649 L 689,655 L 690,656 L 690,661 L 691,662 L 691,673 L 692,674 L 692,692 L 691,693 L 691,695 L 692,694 L 692,692 L 693,691 L 693,689 L 694,688 L 694,687 L 695,686 L 695,684 L 696,683 L 696,680 L 697,679 L 697,676 L 698,675 L 698,669 L 699,668 L 699,655 L 700,654 L 699,653 L 699,642 L 698,641 L 698,636 L 697,635 L 697,631 L 696,630 L 696,627 L 695,626 L 695,624 L 694,623 L 694,621 L 693,620 L 693,618 L 692,617 L 692,616 L 691,615 L 691,614 L 690,613 L 690,611 L 689,610 L 689,609 L 688,608 L 688,607 L 687,606 L 687,605 L 685,603 L 685,602 L 684,601 L 684,600 L 682,598 L 682,597 L 680,595 L 680,594 L 678,592 L 678,591 L 676,589 L 676,588 L 672,584 L 672,583 L 668,579 L 668,578 L 665,575 L 665,574 L 662,571 L 662,570 L 660,568 L 660,567 L 658,565 L 658,564 L 657,563 L 657,562 L 656,561 L 656,560 L 655,559 L 655,558 L 654,557 L 654,555 L 653,554 L 653,552 L 652,551 Z" fill="black" /><path d="M 799,424 L 796,427 L 796,428 L 793,431 L 793,432 L 791,434 L 791,435 L 788,438 L 788,439 L 786,441 L 786,442 L 785,443 L 785,444 L 783,446 L 783,447 L 782,448 L 782,449 L 780,451 L 780,452 L 779,453 L 779,454 L 777,456 L 777,457 L 776,458 L 776,459 L 775,460 L 775,461 L 774,462 L 774,463 L 773,464 L 773,465 L 772,466 L 772,468 L 771,469 L 771,470 L 770,471 L 770,473 L 769,474 L 769,476 L 768,477 L 768,479 L 767,480 L 767,483 L 766,484 L 766,488 L 765,489 L 765,494 L 764,495 L 764,513 L 765,514 L 765,518 L 766,519 L 766,522 L 767,523 L 767,526 L 768,527 L 768,529 L 769,530 L 769,533 L 770,533 L 770,531 L 769,530 L 769,526 L 770,525 L 770,515 L 771,514 L 771,508 L 772,507 L 772,502 L 773,501 L 773,497 L 774,496 L 774,493 L 775,492 L 775,489 L 776,488 L 776,485 L 777,484 L 777,482 L 778,481 L 778,479 L 779,478 L 779,476 L 780,475 L 780,473 L 781,472 L 781,470 L 782,469 L 782,468 L 783,467 L 783,465 L 784,464 L 784,463 L 785,462 L 785,460 L 786,459 L 786,458 L 787,457 L 787,455 L 788,454 L 788,453 L 789,452 L 789,450 L 790,449 L 790,448 L 791,447 L 791,446 L 792,445 L 792,443 L 793,442 L 793,440 L 794,439 L 794,438 L 795,437 L 795,435 L 796,434 L 796,432 L 797,431 L 797,429 L 798,428 L 798,425 Z" fill="black" /><path d="M 831,395 L 831,401 L 830,402 L 830,405 L 829,406 L 829,408 L 828,409 L 828,411 L 827,412 L 827,414 L 826,415 L 826,417 L 825,418 L 825,419 L 824,420 L 824,422 L 823,423 L 823,424 L 822,425 L 822,427 L 821,428 L 821,429 L 820,430 L 820,432 L 819,433 L 819,434 L 818,435 L 818,437 L 817,438 L 817,439 L 816,440 L 816,442 L 815,443 L 815,444 L 814,445 L 814,447 L 813,448 L 813,450 L 812,451 L 812,452 L 811,453 L 811,455 L 810,456 L 810,458 L 809,459 L 809,461 L 808,462 L 808,464 L 807,465 L 807,467 L 806,468 L 806,470 L 805,471 L 805,472 L 804,473 L 804,474 L 803,475 L 804,475 L 807,472 L 807,471 L 811,467 L 811,466 L 814,463 L 814,462 L 816,460 L 816,459 L 818,457 L 818,456 L 819,455 L 819,454 L 820,453 L 820,452 L 821,451 L 821,450 L 822,449 L 822,448 L 823,447 L 823,445 L 824,444 L 824,443 L 825,442 L 825,440 L 826,439 L 826,437 L 827,436 L 827,433 L 828,432 L 828,429 L 829,428 L 829,425 L 830,424 L 830,420 L 831,419 L 831,410 L 832,409 L 832,395 Z" fill="black" /><path d="M 293,355 L 293,362 L 292,363 L 292,365 L 291,366 L 291,369 L 290,370 L 290,371 L 289,372 L 289,374 L 288,375 L 288,376 L 287,377 L 287,378 L 286,379 L 286,380 L 285,381 L 285,382 L 284,383 L 284,384 L 282,386 L 282,387 L 280,389 L 280,390 L 278,392 L 278,393 L 275,396 L 275,397 L 254,418 L 253,418 L 249,422 L 248,422 L 244,426 L 243,426 L 239,430 L 238,430 L 230,438 L 229,438 L 222,445 L 222,446 L 213,455 L 213,456 L 209,460 L 209,461 L 207,463 L 207,464 L 204,467 L 204,468 L 202,470 L 202,471 L 201,472 L 201,473 L 199,475 L 199,476 L 198,477 L 198,478 L 197,479 L 197,480 L 196,481 L 196,482 L 195,483 L 195,485 L 194,486 L 194,487 L 193,488 L 193,490 L 192,491 L 192,492 L 191,493 L 191,495 L 190,496 L 190,499 L 189,500 L 189,502 L 188,503 L 188,507 L 187,508 L 187,515 L 186,516 L 186,541 L 187,542 L 187,548 L 188,549 L 188,553 L 189,554 L 189,557 L 190,558 L 190,561 L 191,562 L 191,565 L 192,566 L 192,568 L 193,569 L 193,570 L 193,569 L 192,568 L 192,552 L 193,551 L 193,544 L 194,543 L 194,539 L 195,538 L 195,534 L 196,533 L 196,529 L 197,528 L 197,525 L 198,524 L 198,522 L 199,521 L 199,519 L 200,518 L 200,516 L 201,515 L 201,513 L 202,512 L 202,510 L 203,509 L 203,508 L 204,507 L 204,505 L 205,504 L 205,503 L 206,502 L 206,501 L 207,500 L 207,499 L 208,498 L 208,497 L 209,496 L 209,495 L 210,494 L 210,493 L 211,492 L 211,491 L 212,490 L 212,489 L 213,488 L 213,487 L 214,486 L 214,485 L 216,483 L 216,482 L 218,480 L 218,479 L 220,477 L 220,476 L 222,474 L 222,473 L 226,469 L 226,468 L 231,463 L 231,462 L 247,446 L 248,446 L 258,436 L 259,436 L 269,426 L 270,426 L 274,422 L 274,421 L 278,417 L 278,416 L 280,414 L 280,413 L 282,411 L 282,410 L 283,409 L 283,408 L 285,406 L 285,405 L 286,404 L 286,403 L 287,402 L 287,401 L 288,400 L 288,399 L 289,398 L 289,396 L 290,395 L 290,394 L 291,393 L 291,391 L 292,390 L 292,388 L 293,387 L 293,385 L 294,384 L 294,380 L 295,379 L 295,371 L 296,370 L 296,366 L 295,365 L 295,359 L 294,358 L 294,356 Z" fill="black" /><path d="M 840,230 L 839,231 L 837,231 L 836,232 L 835,232 L 834,233 L 833,233 L 831,235 L 830,235 L 825,240 L 824,240 L 824,241 L 820,245 L 820,246 L 818,248 L 818,249 L 817,250 L 817,251 L 815,253 L 815,254 L 814,255 L 814,257 L 814,256 L 817,253 L 817,252 L 820,249 L 821,249 L 826,244 L 827,244 L 829,242 L 830,242 L 831,241 L 833,241 L 834,240 L 836,240 L 837,239 L 849,239 L 850,240 L 852,240 L 853,241 L 854,241 L 855,242 L 856,242 L 857,243 L 858,243 L 859,244 L 860,244 L 862,246 L 863,246 L 866,249 L 866,248 L 865,247 L 865,246 L 864,245 L 864,244 L 862,242 L 862,241 L 861,240 L 861,239 L 856,234 L 855,234 L 853,232 L 852,232 L 851,231 L 849,231 L 848,230 Z" fill="black" /><path d="M 748,229 L 747,230 L 740,230 L 739,231 L 736,231 L 735,232 L 732,232 L 731,233 L 729,233 L 728,234 L 727,234 L 726,235 L 724,235 L 723,236 L 722,236 L 721,237 L 720,237 L 719,238 L 717,238 L 715,240 L 714,240 L 713,241 L 712,241 L 711,242 L 710,242 L 709,243 L 708,243 L 706,245 L 705,245 L 702,248 L 701,248 L 700,249 L 698,249 L 702,249 L 703,248 L 705,248 L 706,247 L 708,247 L 709,246 L 711,246 L 712,245 L 714,245 L 715,244 L 717,244 L 718,243 L 721,243 L 722,242 L 725,242 L 726,241 L 731,241 L 732,240 L 746,240 L 747,241 L 750,241 L 751,242 L 753,242 L 754,243 L 755,243 L 756,244 L 757,244 L 765,252 L 765,253 L 766,254 L 766,255 L 768,257 L 768,258 L 769,259 L 769,260 L 770,261 L 770,263 L 770,262 L 771,261 L 773,263 L 773,264 L 774,265 L 774,266 L 775,267 L 775,269 L 776,270 L 776,271 L 777,272 L 777,276 L 778,277 L 778,278 L 778,267 L 777,266 L 777,256 L 776,255 L 776,250 L 775,249 L 775,247 L 774,246 L 774,244 L 773,243 L 773,242 L 772,241 L 772,240 L 770,238 L 770,237 L 768,235 L 767,235 L 765,233 L 764,233 L 763,232 L 762,232 L 761,231 L 759,231 L 758,230 L 753,230 L 752,229 Z" fill="black" /><path d="M 701,147 L 700,148 L 683,148 L 682,149 L 676,149 L 675,150 L 671,150 L 670,151 L 666,151 L 665,152 L 662,152 L 661,153 L 659,153 L 658,154 L 656,154 L 655,155 L 653,155 L 652,156 L 650,156 L 649,157 L 648,157 L 647,158 L 645,158 L 644,159 L 643,159 L 642,160 L 641,160 L 640,161 L 639,161 L 638,162 L 637,162 L 636,163 L 635,163 L 634,164 L 633,164 L 632,165 L 631,165 L 630,166 L 629,166 L 627,168 L 626,168 L 625,169 L 624,169 L 623,170 L 622,170 L 620,172 L 619,172 L 618,173 L 617,173 L 614,176 L 613,176 L 611,178 L 610,178 L 608,180 L 607,180 L 603,184 L 602,184 L 596,190 L 595,190 L 580,205 L 580,206 L 573,213 L 573,214 L 569,218 L 569,219 L 565,223 L 565,224 L 562,227 L 562,228 L 559,231 L 559,232 L 557,234 L 557,235 L 555,237 L 555,238 L 553,240 L 553,241 L 551,243 L 551,244 L 549,246 L 549,247 L 547,249 L 547,250 L 546,251 L 546,252 L 544,254 L 544,255 L 543,256 L 543,257 L 541,259 L 541,260 L 540,261 L 540,262 L 539,263 L 539,264 L 537,266 L 537,267 L 536,268 L 536,269 L 535,270 L 535,271 L 534,272 L 534,273 L 533,274 L 533,275 L 532,276 L 532,277 L 531,278 L 531,279 L 530,280 L 530,281 L 529,282 L 529,283 L 528,284 L 528,285 L 527,286 L 527,287 L 526,288 L 526,290 L 525,291 L 525,292 L 524,293 L 524,294 L 523,295 L 523,296 L 522,297 L 522,299 L 521,300 L 521,301 L 520,302 L 520,304 L 519,305 L 519,306 L 518,307 L 518,309 L 517,310 L 517,312 L 516,313 L 516,314 L 515,315 L 515,317 L 514,318 L 514,320 L 513,321 L 513,323 L 512,324 L 512,326 L 511,327 L 511,329 L 510,330 L 510,332 L 509,333 L 509,335 L 508,336 L 508,338 L 507,339 L 507,342 L 506,343 L 506,345 L 505,346 L 505,349 L 504,350 L 504,352 L 503,353 L 503,356 L 502,357 L 502,360 L 501,361 L 501,364 L 500,365 L 500,368 L 499,369 L 499,372 L 498,373 L 498,376 L 497,377 L 497,380 L 496,381 L 496,383 L 495,384 L 495,388 L 494,389 L 494,392 L 493,393 L 493,396 L 492,397 L 492,400 L 491,401 L 489,401 L 488,402 L 484,402 L 483,403 L 478,403 L 477,404 L 470,404 L 469,405 L 459,405 L 458,406 L 424,406 L 423,405 L 417,405 L 416,404 L 415,404 L 414,403 L 414,402 L 415,401 L 415,397 L 416,396 L 416,393 L 417,392 L 417,389 L 418,388 L 418,385 L 419,384 L 419,380 L 420,379 L 420,375 L 421,374 L 421,366 L 422,365 L 422,347 L 421,346 L 421,339 L 420,338 L 420,333 L 419,332 L 419,328 L 418,327 L 418,323 L 417,322 L 417,320 L 416,319 L 416,316 L 415,315 L 415,313 L 414,312 L 414,310 L 413,309 L 413,307 L 412,306 L 412,305 L 411,304 L 411,302 L 410,301 L 410,300 L 409,299 L 409,298 L 408,297 L 408,295 L 407,294 L 407,293 L 406,292 L 406,291 L 405,290 L 405,289 L 404,288 L 404,287 L 402,285 L 402,284 L 401,283 L 401,282 L 399,280 L 399,279 L 398,278 L 398,277 L 396,275 L 396,274 L 394,272 L 394,271 L 392,269 L 392,268 L 390,266 L 390,265 L 387,262 L 387,261 L 383,257 L 383,256 L 375,248 L 375,247 L 374,246 L 373,246 L 366,239 L 365,239 L 360,234 L 359,234 L 357,232 L 356,232 L 354,230 L 353,230 L 351,228 L 350,228 L 349,227 L 348,227 L 347,226 L 346,226 L 344,224 L 343,224 L 342,223 L 341,223 L 340,222 L 338,222 L 337,221 L 336,221 L 335,220 L 334,220 L 333,219 L 331,219 L 330,218 L 328,218 L 327,217 L 324,217 L 323,216 L 321,216 L 320,215 L 315,215 L 314,214 L 308,214 L 307,213 L 285,213 L 287,213 L 288,214 L 290,214 L 291,215 L 293,215 L 294,216 L 295,216 L 296,217 L 298,217 L 300,219 L 301,219 L 302,220 L 303,220 L 304,221 L 305,221 L 308,224 L 309,224 L 317,232 L 316,233 L 315,233 L 314,232 L 313,232 L 312,231 L 311,231 L 310,230 L 308,230 L 307,229 L 306,229 L 305,228 L 303,228 L 302,227 L 300,227 L 299,226 L 297,226 L 296,225 L 294,225 L 293,224 L 290,224 L 289,223 L 285,223 L 284,222 L 279,222 L 278,221 L 269,221 L 268,220 L 254,220 L 253,221 L 244,221 L 243,222 L 238,222 L 237,223 L 234,223 L 233,224 L 231,224 L 230,225 L 227,225 L 226,226 L 224,226 L 223,227 L 221,227 L 220,228 L 219,228 L 218,229 L 216,229 L 215,230 L 214,230 L 213,231 L 212,231 L 211,232 L 209,232 L 208,233 L 207,233 L 206,234 L 205,234 L 204,235 L 203,235 L 202,236 L 201,236 L 199,238 L 198,238 L 197,239 L 196,239 L 194,241 L 193,241 L 191,243 L 190,243 L 188,245 L 187,245 L 184,248 L 183,248 L 172,259 L 171,259 L 171,260 L 170,261 L 169,261 L 167,263 L 167,264 L 161,270 L 161,271 L 158,274 L 158,275 L 155,278 L 155,279 L 153,281 L 153,282 L 150,285 L 150,286 L 149,287 L 149,288 L 147,290 L 147,291 L 145,293 L 145,294 L 143,296 L 143,297 L 142,298 L 142,299 L 141,300 L 141,301 L 140,302 L 140,303 L 139,304 L 139,305 L 138,306 L 138,307 L 137,308 L 137,309 L 136,310 L 136,311 L 135,312 L 135,313 L 134,314 L 134,316 L 133,317 L 133,319 L 132,320 L 132,322 L 131,323 L 131,325 L 130,326 L 130,329 L 129,330 L 129,333 L 128,334 L 128,338 L 127,339 L 127,343 L 126,344 L 126,349 L 125,350 L 125,356 L 124,357 L 124,360 L 123,361 L 123,362 L 122,363 L 123,362 L 123,361 L 124,360 L 124,359 L 125,358 L 125,357 L 127,355 L 127,354 L 128,353 L 128,352 L 130,350 L 130,349 L 133,346 L 133,345 L 136,342 L 136,341 L 139,338 L 139,337 L 141,335 L 142,336 L 142,338 L 141,339 L 141,341 L 140,342 L 140,344 L 139,345 L 139,348 L 138,349 L 138,351 L 137,352 L 137,355 L 136,356 L 136,359 L 135,360 L 135,363 L 134,364 L 134,368 L 133,369 L 133,372 L 132,373 L 132,377 L 131,378 L 131,383 L 130,384 L 130,390 L 129,391 L 129,396 L 128,397 L 128,401 L 127,402 L 127,405 L 126,406 L 126,408 L 125,409 L 125,410 L 124,411 L 124,413 L 123,414 L 123,415 L 122,416 L 122,417 L 121,418 L 121,419 L 119,421 L 119,422 L 117,424 L 117,425 L 111,431 L 110,431 L 108,433 L 106,433 L 105,434 L 95,434 L 96,434 L 97,435 L 98,435 L 99,436 L 100,436 L 101,437 L 102,437 L 103,438 L 105,438 L 106,439 L 108,439 L 109,440 L 121,440 L 122,439 L 125,439 L 126,438 L 129,438 L 130,437 L 132,437 L 133,436 L 134,436 L 135,435 L 136,435 L 137,434 L 138,434 L 139,433 L 140,433 L 143,430 L 144,430 L 150,424 L 150,423 L 153,420 L 153,419 L 155,417 L 155,416 L 156,415 L 156,414 L 157,413 L 157,412 L 158,411 L 158,410 L 160,408 L 160,406 L 161,405 L 161,404 L 162,403 L 162,402 L 163,401 L 163,400 L 164,399 L 164,397 L 165,396 L 165,395 L 166,394 L 166,392 L 167,391 L 167,390 L 168,389 L 168,387 L 169,386 L 169,385 L 170,384 L 170,383 L 171,382 L 171,380 L 172,379 L 172,377 L 173,376 L 173,375 L 174,374 L 174,373 L 175,372 L 175,371 L 176,370 L 176,368 L 177,367 L 177,366 L 178,365 L 178,364 L 179,363 L 179,362 L 181,360 L 181,359 L 182,358 L 182,357 L 184,355 L 184,354 L 185,353 L 185,352 L 187,350 L 187,349 L 189,347 L 189,346 L 191,344 L 191,343 L 194,340 L 194,339 L 200,333 L 200,332 L 213,319 L 214,319 L 218,315 L 219,315 L 221,313 L 222,313 L 224,311 L 225,311 L 226,310 L 227,310 L 228,309 L 229,309 L 231,307 L 233,307 L 234,306 L 235,306 L 236,305 L 237,305 L 238,304 L 240,304 L 241,303 L 244,303 L 245,302 L 247,302 L 248,301 L 250,301 L 246,301 L 245,302 L 241,302 L 240,303 L 236,303 L 235,304 L 232,304 L 231,305 L 228,305 L 227,306 L 226,306 L 225,307 L 223,307 L 222,308 L 221,308 L 220,309 L 218,309 L 217,310 L 216,310 L 215,311 L 214,311 L 213,312 L 212,312 L 210,314 L 209,314 L 208,315 L 207,315 L 206,316 L 205,316 L 203,318 L 202,318 L 200,320 L 199,320 L 196,323 L 195,323 L 183,335 L 183,336 L 178,341 L 178,342 L 175,345 L 175,346 L 172,349 L 172,350 L 170,352 L 170,353 L 168,355 L 168,356 L 167,357 L 167,358 L 165,360 L 165,361 L 164,362 L 164,363 L 162,365 L 162,366 L 161,367 L 161,368 L 160,369 L 160,370 L 159,371 L 159,372 L 157,374 L 157,375 L 156,376 L 156,377 L 155,378 L 155,379 L 154,380 L 154,381 L 153,382 L 153,383 L 152,384 L 152,385 L 151,386 L 151,387 L 150,388 L 149,387 L 149,381 L 150,380 L 150,376 L 151,375 L 151,373 L 152,372 L 152,369 L 153,368 L 153,365 L 154,364 L 154,360 L 155,359 L 155,356 L 156,355 L 156,353 L 157,352 L 157,350 L 158,349 L 158,348 L 159,347 L 159,345 L 160,344 L 160,343 L 161,342 L 161,340 L 162,339 L 162,338 L 163,337 L 163,336 L 164,335 L 164,334 L 165,333 L 165,331 L 167,329 L 167,328 L 168,327 L 168,326 L 169,325 L 169,324 L 170,323 L 170,322 L 172,320 L 172,319 L 173,318 L 173,317 L 175,315 L 175,314 L 177,312 L 177,311 L 179,309 L 179,308 L 182,305 L 182,304 L 189,297 L 189,296 L 191,294 L 192,294 L 198,288 L 199,288 L 202,285 L 203,285 L 205,283 L 206,283 L 207,282 L 208,282 L 209,281 L 210,281 L 211,280 L 212,280 L 213,279 L 214,279 L 215,278 L 217,278 L 218,277 L 219,277 L 220,276 L 223,276 L 224,275 L 226,275 L 227,274 L 230,274 L 231,273 L 236,273 L 237,272 L 252,272 L 253,273 L 259,273 L 260,274 L 264,274 L 265,275 L 267,275 L 268,276 L 269,276 L 270,277 L 271,277 L 270,276 L 269,276 L 267,274 L 265,274 L 264,273 L 263,273 L 262,272 L 261,272 L 260,271 L 259,271 L 258,270 L 256,270 L 255,269 L 253,269 L 252,268 L 251,268 L 250,267 L 247,267 L 246,266 L 243,266 L 242,265 L 237,265 L 236,264 L 215,264 L 214,265 L 208,265 L 207,266 L 205,266 L 204,267 L 202,267 L 201,268 L 199,268 L 198,269 L 197,269 L 196,270 L 195,270 L 194,271 L 193,271 L 192,272 L 191,272 L 189,274 L 188,274 L 186,276 L 185,276 L 182,279 L 181,279 L 174,286 L 173,286 L 173,287 L 166,294 L 165,293 L 165,292 L 167,290 L 167,289 L 170,286 L 170,285 L 172,283 L 172,282 L 178,276 L 178,275 L 185,268 L 186,268 L 191,263 L 192,263 L 195,260 L 196,260 L 199,257 L 200,257 L 202,255 L 203,255 L 205,253 L 206,253 L 207,252 L 208,252 L 209,251 L 210,251 L 211,250 L 212,250 L 213,249 L 214,249 L 215,248 L 216,248 L 217,247 L 219,247 L 220,246 L 221,246 L 222,245 L 224,245 L 225,244 L 227,244 L 228,243 L 230,243 L 231,242 L 233,242 L 234,241 L 237,241 L 238,240 L 242,240 L 243,239 L 247,239 L 248,238 L 255,238 L 256,237 L 269,237 L 270,238 L 276,238 L 277,239 L 281,239 L 282,240 L 286,240 L 287,241 L 290,241 L 291,242 L 293,242 L 294,243 L 296,243 L 297,244 L 298,244 L 299,245 L 301,245 L 302,246 L 303,246 L 304,247 L 305,247 L 306,248 L 307,248 L 308,249 L 309,249 L 310,250 L 311,250 L 312,251 L 313,251 L 315,253 L 316,253 L 317,254 L 318,254 L 320,256 L 321,256 L 324,259 L 325,259 L 331,265 L 332,265 L 338,271 L 338,272 L 344,278 L 344,279 L 347,282 L 347,283 L 349,285 L 349,286 L 351,288 L 351,289 L 352,290 L 352,291 L 353,292 L 353,294 L 354,295 L 354,296 L 355,297 L 354,296 L 354,291 L 353,290 L 353,285 L 352,284 L 352,280 L 351,279 L 351,276 L 350,275 L 350,273 L 349,272 L 349,269 L 348,268 L 348,267 L 347,266 L 347,264 L 346,263 L 346,261 L 345,260 L 345,259 L 344,258 L 344,257 L 343,256 L 343,255 L 342,254 L 342,253 L 341,252 L 341,251 L 340,250 L 340,249 L 338,247 L 338,246 L 336,244 L 336,243 L 333,240 L 333,239 L 334,238 L 336,240 L 337,240 L 339,242 L 340,242 L 342,244 L 343,244 L 347,248 L 348,248 L 353,253 L 354,253 L 368,267 L 368,268 L 373,273 L 373,274 L 376,277 L 376,278 L 379,281 L 379,282 L 381,284 L 381,285 L 383,287 L 383,288 L 385,290 L 385,291 L 386,292 L 386,293 L 387,294 L 387,295 L 388,296 L 388,297 L 389,298 L 389,299 L 391,301 L 391,302 L 392,303 L 392,304 L 393,305 L 393,307 L 394,308 L 394,309 L 395,310 L 395,312 L 396,313 L 396,314 L 397,315 L 397,317 L 398,318 L 398,320 L 399,321 L 399,323 L 400,324 L 400,327 L 401,328 L 401,330 L 402,331 L 402,335 L 403,336 L 403,342 L 404,343 L 404,352 L 405,353 L 405,363 L 404,364 L 404,371 L 403,372 L 403,376 L 402,377 L 402,380 L 401,381 L 401,384 L 400,385 L 399,384 L 399,379 L 400,378 L 400,364 L 399,363 L 399,356 L 398,355 L 398,352 L 397,351 L 397,348 L 396,347 L 396,344 L 395,343 L 395,342 L 394,341 L 394,339 L 393,338 L 393,336 L 392,335 L 392,334 L 391,333 L 391,332 L 390,331 L 390,329 L 389,328 L 389,327 L 388,326 L 388,325 L 386,323 L 386,322 L 385,321 L 385,320 L 383,318 L 383,317 L 381,315 L 381,314 L 379,312 L 379,311 L 378,310 L 378,311 L 380,313 L 380,314 L 381,315 L 381,318 L 382,319 L 382,322 L 383,323 L 383,328 L 384,329 L 384,336 L 385,337 L 385,358 L 384,359 L 384,366 L 383,367 L 383,372 L 382,373 L 382,377 L 381,378 L 381,381 L 380,382 L 380,385 L 379,386 L 379,389 L 378,390 L 378,392 L 377,393 L 377,395 L 376,396 L 376,397 L 375,398 L 375,400 L 374,401 L 374,402 L 373,403 L 373,405 L 372,406 L 372,407 L 371,408 L 371,409 L 370,410 L 370,411 L 368,413 L 368,414 L 367,415 L 367,416 L 366,417 L 366,418 L 364,420 L 364,421 L 362,423 L 362,424 L 357,429 L 357,430 L 346,441 L 345,441 L 342,444 L 341,444 L 339,446 L 338,446 L 336,448 L 335,448 L 334,449 L 333,449 L 331,451 L 330,451 L 329,452 L 328,452 L 327,453 L 326,453 L 325,454 L 323,454 L 322,453 L 322,452 L 325,449 L 325,448 L 327,446 L 327,445 L 331,441 L 331,440 L 333,438 L 333,437 L 335,435 L 335,434 L 337,432 L 337,431 L 338,430 L 338,429 L 340,427 L 340,426 L 341,425 L 341,424 L 342,423 L 342,421 L 343,420 L 343,419 L 344,418 L 344,417 L 345,416 L 345,414 L 346,413 L 346,412 L 347,411 L 347,409 L 348,408 L 348,405 L 349,404 L 349,402 L 350,401 L 350,397 L 351,396 L 351,391 L 352,390 L 352,381 L 353,380 L 353,358 L 352,357 L 352,342 L 352,344 L 351,345 L 352,346 L 351,347 L 352,348 L 352,351 L 351,352 L 351,360 L 350,361 L 350,365 L 349,366 L 349,370 L 348,371 L 348,373 L 347,374 L 347,376 L 346,377 L 346,379 L 345,380 L 345,381 L 344,382 L 344,383 L 343,384 L 343,386 L 342,387 L 342,388 L 341,389 L 341,390 L 339,392 L 339,393 L 338,394 L 338,395 L 337,396 L 337,397 L 336,398 L 336,399 L 334,401 L 334,402 L 333,403 L 333,404 L 332,405 L 332,406 L 330,408 L 330,409 L 328,411 L 328,412 L 325,415 L 325,416 L 310,431 L 309,431 L 305,435 L 304,435 L 302,437 L 301,437 L 298,440 L 297,440 L 295,442 L 294,442 L 292,444 L 291,444 L 289,446 L 288,446 L 287,447 L 286,447 L 284,449 L 283,449 L 281,451 L 280,451 L 279,452 L 278,452 L 276,454 L 275,454 L 274,455 L 273,455 L 271,457 L 270,457 L 268,459 L 267,459 L 265,461 L 264,461 L 262,463 L 261,463 L 258,466 L 257,466 L 253,470 L 252,470 L 243,479 L 243,480 L 239,484 L 239,485 L 237,487 L 237,488 L 236,489 L 236,490 L 235,491 L 235,492 L 234,493 L 234,494 L 233,495 L 233,496 L 232,497 L 232,498 L 231,499 L 231,500 L 230,501 L 230,503 L 229,504 L 229,508 L 228,509 L 228,512 L 227,513 L 227,514 L 228,513 L 228,512 L 229,511 L 229,510 L 232,507 L 232,506 L 236,502 L 236,501 L 246,491 L 247,491 L 252,486 L 253,486 L 255,484 L 256,484 L 258,482 L 259,482 L 261,480 L 262,480 L 263,479 L 264,479 L 265,478 L 266,478 L 268,476 L 269,476 L 270,475 L 271,475 L 272,474 L 273,474 L 274,473 L 275,473 L 276,472 L 277,472 L 278,471 L 279,471 L 280,470 L 281,470 L 282,469 L 283,469 L 284,468 L 286,468 L 287,467 L 288,467 L 289,466 L 290,466 L 291,465 L 293,465 L 294,464 L 295,464 L 296,465 L 295,466 L 295,467 L 293,469 L 293,470 L 291,472 L 291,473 L 289,475 L 289,476 L 287,478 L 287,479 L 286,480 L 286,481 L 285,482 L 285,483 L 284,484 L 284,485 L 283,486 L 283,487 L 282,488 L 282,490 L 281,491 L 281,494 L 280,495 L 280,503 L 280,502 L 282,500 L 282,499 L 292,489 L 293,489 L 295,487 L 296,487 L 298,485 L 299,485 L 300,484 L 301,484 L 303,482 L 304,482 L 305,481 L 306,481 L 307,480 L 309,480 L 311,478 L 313,478 L 314,477 L 315,477 L 316,476 L 317,476 L 318,475 L 319,475 L 320,474 L 321,474 L 322,473 L 323,473 L 324,472 L 325,472 L 326,471 L 328,471 L 329,470 L 330,470 L 331,469 L 332,469 L 333,468 L 334,468 L 335,467 L 336,467 L 337,466 L 338,466 L 339,465 L 340,465 L 342,463 L 343,463 L 344,462 L 345,462 L 346,461 L 347,461 L 349,459 L 350,459 L 352,457 L 353,457 L 355,455 L 356,455 L 359,452 L 360,452 L 374,438 L 374,437 L 378,433 L 378,432 L 380,430 L 380,429 L 382,427 L 382,426 L 383,425 L 383,424 L 384,423 L 384,422 L 385,421 L 385,420 L 388,417 L 389,418 L 393,418 L 394,419 L 398,419 L 399,420 L 405,420 L 406,421 L 415,421 L 416,422 L 426,422 L 427,423 L 468,423 L 469,422 L 477,422 L 478,421 L 482,421 L 483,422 L 483,425 L 482,426 L 482,428 L 481,429 L 481,431 L 480,432 L 480,433 L 479,434 L 479,435 L 478,436 L 478,437 L 477,438 L 477,439 L 476,440 L 476,441 L 474,443 L 474,444 L 473,445 L 473,446 L 470,449 L 470,450 L 466,454 L 466,455 L 458,463 L 457,463 L 453,467 L 452,467 L 450,469 L 449,469 L 448,470 L 446,470 L 445,471 L 437,471 L 437,472 L 438,472 L 444,478 L 445,478 L 447,480 L 448,480 L 449,481 L 451,481 L 452,482 L 453,482 L 454,483 L 456,483 L 457,484 L 466,484 L 467,485 L 468,485 L 469,484 L 476,484 L 477,483 L 480,483 L 481,482 L 482,482 L 483,483 L 482,484 L 482,485 L 480,487 L 480,488 L 478,490 L 478,491 L 476,493 L 476,494 L 472,498 L 472,499 L 466,505 L 466,506 L 462,510 L 461,510 L 458,513 L 457,513 L 456,514 L 457,515 L 459,515 L 460,516 L 462,516 L 463,517 L 467,517 L 468,518 L 475,518 L 476,519 L 491,519 L 492,518 L 497,518 L 498,517 L 502,517 L 503,516 L 505,516 L 506,515 L 509,515 L 510,514 L 512,514 L 513,515 L 501,527 L 500,527 L 497,530 L 496,530 L 494,532 L 493,532 L 492,533 L 491,533 L 489,535 L 488,535 L 487,536 L 486,536 L 485,537 L 481,537 L 482,538 L 489,538 L 490,539 L 515,539 L 516,538 L 522,538 L 523,537 L 527,537 L 528,536 L 531,536 L 532,535 L 534,535 L 535,534 L 537,534 L 538,533 L 540,533 L 541,532 L 542,532 L 543,531 L 544,531 L 545,530 L 546,530 L 547,529 L 548,529 L 550,527 L 551,527 L 553,525 L 554,525 L 557,522 L 558,522 L 565,515 L 566,515 L 566,514 L 577,503 L 578,503 L 579,504 L 578,505 L 578,507 L 577,508 L 577,509 L 576,510 L 576,511 L 575,512 L 575,513 L 574,514 L 574,515 L 573,516 L 573,517 L 572,518 L 572,519 L 571,520 L 571,521 L 570,522 L 570,523 L 569,524 L 569,525 L 567,527 L 567,528 L 566,529 L 566,530 L 564,532 L 564,533 L 562,535 L 562,536 L 560,538 L 560,539 L 557,542 L 557,543 L 553,547 L 553,548 L 546,555 L 545,555 L 543,557 L 542,557 L 541,558 L 543,558 L 544,557 L 547,557 L 548,556 L 552,556 L 553,555 L 555,555 L 556,554 L 559,554 L 560,553 L 562,553 L 563,552 L 565,552 L 566,551 L 568,551 L 569,550 L 571,550 L 572,549 L 573,549 L 574,548 L 576,548 L 577,547 L 578,547 L 579,546 L 580,546 L 581,545 L 582,545 L 583,544 L 584,544 L 585,543 L 586,543 L 588,541 L 589,541 L 590,540 L 591,540 L 593,538 L 594,538 L 596,536 L 597,536 L 601,532 L 602,532 L 610,524 L 611,524 L 614,521 L 614,520 L 622,512 L 622,511 L 624,509 L 624,508 L 626,506 L 626,505 L 628,503 L 628,502 L 629,501 L 629,500 L 630,499 L 630,498 L 631,497 L 631,496 L 632,495 L 632,494 L 633,493 L 633,492 L 634,491 L 634,490 L 635,489 L 635,487 L 636,486 L 636,484 L 637,483 L 637,481 L 638,480 L 638,478 L 639,477 L 639,474 L 640,473 L 640,469 L 641,468 L 641,464 L 642,463 L 642,457 L 643,456 L 643,448 L 644,447 L 644,428 L 645,427 L 644,426 L 645,425 L 645,403 L 644,402 L 644,382 L 643,381 L 643,358 L 642,357 L 642,315 L 643,314 L 643,302 L 644,301 L 644,293 L 645,292 L 645,286 L 646,285 L 646,281 L 647,280 L 647,276 L 648,275 L 648,272 L 649,271 L 649,268 L 650,267 L 650,265 L 651,264 L 651,262 L 652,261 L 652,259 L 653,258 L 653,256 L 654,255 L 654,253 L 655,252 L 655,250 L 656,249 L 656,248 L 657,247 L 657,245 L 658,244 L 658,243 L 659,242 L 659,240 L 660,239 L 660,238 L 661,237 L 661,236 L 662,235 L 662,234 L 663,233 L 663,232 L 664,231 L 664,230 L 665,229 L 665,228 L 666,227 L 666,226 L 668,224 L 668,223 L 669,222 L 669,221 L 670,220 L 668,222 L 668,223 L 664,227 L 664,228 L 660,232 L 660,233 L 658,235 L 658,236 L 656,238 L 656,239 L 654,241 L 654,242 L 653,243 L 653,244 L 651,246 L 651,247 L 650,248 L 650,249 L 649,250 L 649,251 L 648,252 L 648,253 L 647,254 L 647,255 L 646,256 L 646,257 L 645,258 L 645,259 L 644,260 L 644,261 L 643,262 L 643,263 L 642,264 L 642,265 L 641,266 L 641,268 L 640,269 L 640,270 L 639,271 L 639,273 L 638,274 L 638,276 L 637,277 L 637,279 L 636,280 L 636,283 L 635,284 L 635,286 L 634,287 L 634,290 L 633,291 L 633,294 L 632,295 L 632,300 L 631,301 L 631,305 L 630,306 L 630,311 L 629,312 L 629,323 L 628,324 L 628,335 L 627,336 L 627,423 L 626,424 L 626,437 L 625,438 L 625,446 L 624,447 L 624,454 L 623,455 L 623,459 L 622,460 L 622,463 L 621,464 L 621,467 L 620,468 L 620,471 L 619,472 L 619,474 L 618,475 L 618,477 L 617,478 L 617,480 L 616,481 L 616,483 L 615,484 L 615,485 L 614,486 L 614,487 L 613,488 L 613,490 L 612,491 L 612,492 L 610,494 L 610,495 L 609,496 L 609,497 L 608,498 L 608,499 L 606,501 L 606,502 L 604,504 L 604,505 L 600,509 L 600,510 L 594,516 L 594,517 L 593,518 L 592,517 L 592,514 L 593,513 L 593,512 L 594,511 L 594,509 L 595,508 L 595,506 L 596,505 L 596,503 L 597,502 L 597,500 L 598,499 L 598,497 L 599,496 L 599,494 L 600,493 L 600,491 L 601,490 L 601,487 L 602,486 L 602,483 L 603,482 L 603,479 L 604,478 L 604,474 L 605,473 L 605,469 L 606,468 L 606,460 L 607,459 L 607,449 L 608,448 L 608,399 L 607,398 L 607,378 L 606,377 L 606,361 L 605,360 L 605,348 L 604,347 L 604,338 L 603,337 L 603,330 L 602,329 L 602,322 L 601,321 L 601,314 L 600,313 L 600,309 L 600,314 L 599,315 L 599,321 L 598,322 L 598,329 L 597,330 L 597,337 L 596,338 L 596,346 L 595,347 L 595,358 L 594,359 L 594,371 L 593,372 L 593,384 L 592,385 L 592,397 L 591,398 L 591,409 L 590,410 L 590,419 L 589,420 L 589,427 L 588,428 L 588,432 L 587,433 L 587,438 L 586,439 L 586,442 L 585,443 L 585,446 L 584,447 L 584,450 L 583,451 L 583,454 L 582,455 L 582,457 L 581,458 L 581,460 L 580,461 L 580,462 L 579,463 L 579,465 L 578,466 L 578,467 L 577,468 L 577,470 L 576,471 L 576,472 L 575,473 L 575,474 L 574,475 L 574,476 L 572,478 L 572,479 L 571,480 L 571,481 L 570,482 L 570,483 L 568,485 L 568,486 L 565,489 L 565,490 L 561,494 L 561,495 L 550,506 L 549,506 L 545,510 L 544,510 L 542,512 L 541,512 L 539,514 L 538,514 L 536,516 L 535,516 L 533,518 L 532,517 L 532,516 L 537,511 L 537,510 L 540,507 L 540,506 L 542,504 L 542,503 L 544,501 L 544,500 L 546,498 L 546,497 L 548,495 L 548,494 L 549,493 L 549,492 L 551,490 L 551,489 L 552,488 L 552,487 L 553,486 L 553,485 L 554,484 L 554,483 L 555,482 L 555,481 L 556,480 L 556,479 L 557,478 L 557,476 L 558,475 L 558,473 L 559,472 L 559,471 L 560,470 L 560,468 L 561,467 L 561,465 L 562,464 L 562,461 L 563,460 L 563,458 L 564,457 L 564,454 L 565,453 L 565,449 L 566,448 L 566,444 L 567,443 L 567,437 L 568,436 L 568,426 L 569,425 L 569,371 L 568,370 L 568,354 L 567,354 L 567,361 L 566,362 L 566,367 L 565,368 L 565,374 L 564,375 L 564,380 L 563,381 L 563,385 L 562,386 L 562,390 L 561,391 L 561,396 L 560,397 L 560,400 L 559,401 L 559,405 L 558,406 L 558,409 L 557,410 L 557,413 L 556,414 L 556,417 L 555,418 L 555,421 L 554,422 L 554,424 L 553,425 L 553,428 L 552,429 L 552,431 L 551,432 L 551,434 L 550,435 L 550,437 L 549,438 L 549,439 L 548,440 L 548,442 L 547,443 L 547,445 L 546,446 L 546,447 L 545,448 L 545,449 L 544,450 L 544,451 L 543,452 L 543,453 L 542,454 L 542,455 L 541,456 L 541,457 L 540,458 L 540,459 L 539,460 L 539,461 L 537,463 L 537,464 L 536,465 L 536,466 L 533,469 L 533,470 L 530,473 L 530,474 L 521,483 L 520,483 L 515,488 L 514,488 L 512,490 L 511,490 L 509,492 L 508,492 L 506,494 L 505,494 L 504,495 L 503,495 L 502,496 L 501,496 L 500,497 L 499,497 L 498,498 L 497,498 L 496,499 L 495,499 L 494,500 L 493,500 L 492,499 L 495,496 L 495,495 L 499,491 L 499,490 L 501,488 L 501,487 L 503,485 L 503,484 L 505,482 L 505,481 L 507,479 L 507,478 L 508,477 L 508,476 L 510,474 L 510,473 L 511,472 L 511,471 L 512,470 L 512,469 L 514,467 L 514,466 L 515,465 L 515,464 L 516,463 L 516,461 L 517,460 L 517,459 L 518,458 L 518,457 L 519,456 L 519,454 L 520,453 L 520,452 L 521,451 L 521,449 L 522,448 L 522,446 L 523,445 L 523,442 L 524,441 L 524,439 L 525,438 L 525,435 L 526,434 L 526,431 L 527,430 L 527,426 L 528,425 L 528,420 L 529,419 L 529,412 L 530,411 L 530,402 L 531,401 L 531,388 L 532,387 L 532,372 L 532,380 L 531,381 L 531,387 L 530,388 L 530,391 L 529,392 L 529,395 L 528,396 L 528,398 L 527,399 L 527,401 L 526,402 L 526,404 L 525,405 L 525,407 L 524,408 L 524,410 L 523,411 L 523,412 L 522,413 L 522,415 L 521,416 L 521,417 L 520,418 L 520,420 L 519,421 L 519,422 L 518,423 L 518,424 L 517,425 L 517,426 L 516,427 L 516,428 L 515,429 L 515,430 L 514,431 L 514,432 L 512,434 L 512,435 L 511,436 L 511,437 L 509,439 L 509,440 L 507,442 L 507,443 L 503,447 L 503,448 L 494,457 L 493,457 L 489,461 L 488,461 L 486,463 L 485,463 L 483,465 L 482,465 L 480,467 L 479,466 L 479,465 L 482,462 L 482,461 L 484,459 L 484,458 L 486,456 L 486,455 L 487,454 L 487,453 L 489,451 L 489,450 L 490,449 L 490,448 L 491,447 L 491,446 L 492,445 L 492,444 L 494,442 L 494,441 L 495,440 L 495,439 L 496,438 L 496,437 L 497,436 L 497,435 L 498,434 L 498,433 L 499,432 L 499,430 L 500,429 L 500,428 L 501,427 L 501,426 L 502,425 L 502,423 L 503,422 L 503,421 L 504,420 L 504,418 L 505,417 L 505,415 L 506,414 L 506,412 L 507,411 L 507,409 L 508,408 L 508,406 L 509,405 L 509,402 L 510,401 L 510,399 L 511,398 L 511,395 L 512,394 L 512,392 L 513,391 L 513,388 L 514,387 L 514,384 L 515,383 L 515,381 L 516,380 L 516,376 L 517,375 L 517,372 L 518,371 L 518,368 L 519,367 L 519,364 L 520,363 L 520,360 L 521,359 L 521,357 L 522,356 L 522,353 L 523,352 L 523,350 L 524,349 L 524,346 L 525,345 L 525,343 L 526,342 L 526,340 L 527,339 L 527,336 L 528,335 L 528,333 L 529,332 L 529,330 L 530,329 L 530,327 L 531,326 L 531,324 L 532,323 L 532,322 L 533,321 L 533,319 L 534,318 L 534,316 L 535,315 L 535,314 L 536,313 L 536,311 L 537,310 L 537,308 L 538,307 L 538,306 L 539,305 L 539,304 L 540,303 L 540,302 L 541,301 L 541,299 L 542,298 L 542,297 L 543,296 L 543,295 L 544,294 L 544,293 L 545,292 L 545,291 L 546,290 L 546,288 L 547,287 L 547,286 L 548,285 L 548,284 L 549,283 L 549,282 L 550,281 L 550,280 L 552,278 L 552,277 L 553,276 L 553,275 L 554,274 L 554,273 L 556,271 L 556,270 L 557,269 L 557,268 L 559,266 L 559,265 L 561,263 L 561,262 L 562,261 L 562,260 L 564,258 L 564,257 L 566,255 L 566,254 L 568,252 L 568,251 L 571,248 L 571,247 L 573,245 L 573,244 L 576,241 L 576,240 L 579,237 L 579,236 L 583,232 L 583,231 L 588,226 L 588,225 L 615,198 L 616,198 L 620,194 L 621,194 L 624,191 L 625,191 L 628,188 L 629,188 L 631,186 L 632,186 L 633,185 L 634,185 L 636,183 L 637,183 L 638,182 L 639,182 L 640,181 L 641,181 L 642,180 L 643,180 L 645,178 L 646,178 L 647,177 L 648,177 L 649,176 L 650,176 L 651,175 L 652,175 L 653,174 L 655,174 L 656,173 L 657,173 L 658,172 L 660,172 L 661,171 L 662,171 L 663,170 L 665,170 L 666,169 L 669,169 L 670,168 L 673,168 L 674,167 L 677,167 L 678,166 L 683,166 L 684,165 L 689,165 L 690,164 L 714,164 L 715,165 L 719,165 L 720,166 L 723,166 L 724,167 L 728,167 L 729,168 L 733,168 L 734,169 L 736,169 L 737,170 L 740,170 L 741,171 L 744,171 L 745,172 L 747,172 L 748,173 L 750,173 L 751,174 L 753,174 L 754,175 L 756,175 L 757,176 L 759,176 L 760,177 L 761,177 L 762,178 L 764,178 L 765,179 L 767,179 L 768,180 L 769,180 L 770,181 L 771,181 L 773,183 L 774,183 L 775,184 L 772,181 L 772,180 L 761,169 L 760,169 L 758,167 L 759,166 L 772,166 L 773,167 L 782,167 L 783,168 L 786,168 L 787,169 L 790,169 L 791,170 L 794,170 L 795,171 L 796,171 L 797,172 L 799,172 L 800,173 L 802,173 L 803,174 L 804,174 L 805,175 L 806,175 L 807,176 L 808,176 L 809,177 L 810,177 L 811,178 L 812,178 L 813,179 L 814,179 L 816,181 L 817,181 L 818,182 L 819,182 L 821,184 L 822,184 L 824,186 L 825,186 L 829,190 L 830,190 L 837,197 L 837,198 L 842,203 L 842,204 L 848,210 L 848,211 L 851,214 L 851,215 L 853,217 L 853,218 L 855,220 L 855,221 L 858,224 L 858,225 L 859,226 L 859,227 L 861,229 L 861,230 L 862,231 L 862,232 L 864,234 L 864,235 L 865,236 L 865,237 L 866,238 L 866,239 L 867,240 L 867,241 L 868,242 L 868,243 L 869,244 L 869,245 L 870,246 L 870,248 L 871,249 L 871,251 L 872,252 L 872,254 L 873,255 L 873,257 L 874,258 L 874,261 L 875,262 L 875,266 L 876,267 L 876,271 L 877,272 L 877,277 L 878,278 L 878,282 L 879,283 L 879,287 L 880,288 L 880,293 L 881,294 L 881,307 L 880,308 L 875,303 L 875,302 L 872,299 L 872,298 L 871,297 L 871,296 L 869,294 L 869,293 L 868,292 L 868,291 L 867,290 L 867,289 L 866,288 L 866,287 L 865,286 L 865,285 L 863,283 L 863,282 L 862,281 L 862,280 L 861,279 L 861,278 L 860,277 L 860,276 L 858,274 L 858,273 L 857,272 L 857,271 L 855,269 L 855,268 L 852,265 L 852,264 L 849,261 L 848,261 L 846,259 L 845,259 L 844,258 L 843,258 L 842,257 L 839,257 L 838,256 L 837,256 L 836,257 L 832,257 L 831,258 L 830,258 L 829,259 L 828,259 L 825,262 L 824,262 L 823,263 L 823,264 L 821,266 L 821,267 L 820,268 L 820,269 L 819,270 L 819,273 L 818,274 L 818,277 L 817,278 L 795,278 L 794,279 L 790,279 L 789,280 L 786,280 L 785,281 L 782,281 L 781,282 L 779,282 L 778,283 L 777,283 L 776,284 L 774,284 L 773,285 L 772,285 L 771,286 L 770,286 L 769,287 L 768,287 L 767,288 L 766,288 L 765,289 L 764,289 L 763,290 L 762,290 L 760,292 L 759,292 L 758,293 L 756,293 L 755,292 L 756,291 L 756,289 L 757,288 L 757,285 L 758,284 L 758,273 L 757,272 L 757,270 L 755,268 L 755,267 L 754,266 L 753,266 L 751,264 L 750,264 L 749,263 L 748,263 L 747,262 L 745,262 L 744,261 L 726,261 L 725,262 L 723,262 L 722,263 L 721,263 L 720,264 L 719,264 L 718,265 L 717,265 L 716,266 L 715,266 L 713,268 L 712,268 L 707,273 L 706,273 L 699,280 L 699,281 L 693,287 L 693,288 L 690,291 L 690,292 L 687,295 L 687,296 L 685,298 L 685,299 L 683,301 L 683,302 L 681,304 L 681,305 L 680,306 L 680,307 L 679,308 L 679,309 L 677,311 L 677,312 L 676,313 L 676,314 L 675,315 L 675,316 L 674,317 L 674,318 L 673,319 L 673,320 L 672,321 L 672,322 L 671,323 L 671,325 L 670,326 L 670,327 L 669,328 L 669,330 L 668,331 L 668,333 L 667,334 L 667,336 L 666,337 L 666,339 L 665,340 L 666,339 L 666,337 L 668,335 L 668,334 L 669,333 L 669,332 L 672,329 L 672,328 L 675,325 L 675,324 L 677,322 L 677,321 L 682,316 L 682,315 L 696,301 L 697,301 L 700,298 L 701,298 L 705,302 L 706,302 L 708,304 L 709,304 L 710,305 L 711,305 L 712,306 L 713,306 L 714,307 L 715,307 L 716,308 L 718,308 L 719,309 L 722,309 L 723,310 L 733,310 L 734,311 L 725,320 L 725,321 L 724,322 L 723,322 L 723,323 L 715,331 L 715,332 L 712,335 L 712,336 L 710,338 L 710,339 L 707,342 L 707,343 L 705,345 L 705,346 L 703,348 L 703,349 L 702,350 L 702,351 L 700,353 L 700,354 L 699,355 L 699,356 L 698,357 L 698,358 L 696,360 L 696,361 L 695,362 L 695,363 L 694,364 L 694,365 L 693,366 L 693,367 L 692,368 L 692,369 L 691,370 L 691,371 L 690,372 L 690,374 L 689,375 L 689,376 L 688,377 L 688,378 L 687,379 L 687,381 L 686,382 L 686,383 L 685,384 L 685,386 L 684,387 L 684,389 L 683,390 L 683,392 L 682,393 L 682,395 L 681,396 L 681,398 L 680,399 L 680,401 L 679,402 L 679,404 L 678,405 L 678,408 L 677,409 L 677,412 L 676,413 L 676,418 L 675,419 L 675,425 L 674,426 L 674,434 L 673,435 L 673,449 L 674,450 L 674,461 L 675,462 L 675,466 L 676,467 L 676,470 L 677,471 L 677,474 L 678,475 L 678,478 L 679,479 L 679,481 L 680,482 L 680,484 L 681,485 L 681,487 L 682,488 L 682,489 L 683,490 L 683,491 L 684,492 L 684,494 L 685,495 L 685,496 L 686,497 L 686,498 L 687,499 L 687,500 L 688,501 L 688,502 L 690,504 L 690,505 L 691,506 L 691,507 L 693,509 L 693,510 L 696,513 L 696,514 L 699,517 L 699,518 L 703,522 L 703,523 L 711,531 L 712,531 L 718,537 L 719,537 L 716,534 L 716,533 L 714,531 L 714,530 L 712,528 L 712,527 L 711,526 L 711,525 L 710,524 L 710,522 L 709,521 L 709,520 L 708,519 L 708,518 L 707,517 L 707,515 L 706,514 L 706,513 L 705,512 L 705,510 L 704,509 L 704,507 L 703,506 L 703,505 L 702,504 L 702,501 L 701,500 L 701,498 L 700,497 L 700,495 L 699,494 L 699,492 L 698,491 L 698,488 L 697,487 L 697,484 L 696,483 L 696,480 L 695,479 L 695,476 L 694,475 L 694,470 L 693,469 L 693,464 L 692,463 L 692,457 L 691,456 L 691,447 L 690,446 L 690,420 L 691,419 L 691,413 L 692,412 L 692,408 L 693,407 L 693,403 L 694,402 L 694,399 L 695,398 L 695,395 L 696,394 L 696,392 L 697,391 L 697,389 L 698,388 L 698,386 L 699,385 L 699,383 L 700,382 L 700,381 L 701,380 L 701,378 L 702,377 L 702,376 L 703,375 L 703,374 L 704,373 L 704,371 L 705,370 L 705,369 L 706,368 L 706,367 L 707,366 L 707,365 L 708,364 L 708,363 L 709,362 L 709,361 L 710,360 L 710,359 L 712,357 L 712,356 L 713,355 L 713,354 L 715,352 L 715,351 L 716,350 L 716,349 L 718,347 L 718,346 L 721,343 L 721,342 L 724,339 L 724,338 L 727,335 L 727,334 L 732,329 L 732,328 L 748,312 L 749,312 L 754,307 L 755,307 L 758,304 L 759,304 L 761,302 L 762,302 L 764,300 L 765,300 L 766,299 L 767,299 L 768,298 L 769,298 L 771,296 L 772,296 L 773,295 L 775,295 L 776,294 L 777,294 L 778,293 L 780,293 L 781,292 L 783,292 L 784,291 L 787,291 L 788,290 L 791,290 L 792,289 L 797,289 L 798,288 L 814,288 L 815,289 L 818,289 L 819,290 L 822,290 L 823,291 L 826,291 L 827,292 L 829,292 L 830,293 L 832,293 L 833,294 L 834,294 L 835,295 L 836,295 L 837,296 L 838,296 L 839,297 L 840,297 L 841,298 L 842,298 L 844,300 L 845,300 L 847,302 L 848,302 L 850,304 L 851,304 L 853,306 L 854,306 L 859,311 L 860,311 L 869,320 L 869,321 L 872,324 L 872,325 L 875,328 L 875,329 L 877,331 L 877,332 L 878,333 L 878,334 L 879,335 L 879,336 L 881,338 L 881,339 L 882,340 L 882,341 L 883,342 L 883,344 L 884,345 L 884,346 L 885,347 L 885,348 L 886,349 L 886,351 L 887,352 L 887,353 L 888,354 L 888,356 L 889,357 L 889,359 L 890,360 L 890,362 L 891,363 L 891,366 L 892,367 L 892,370 L 893,371 L 893,373 L 894,374 L 894,378 L 895,379 L 895,382 L 896,383 L 896,388 L 897,389 L 897,395 L 898,396 L 898,426 L 897,427 L 897,432 L 896,433 L 896,437 L 895,438 L 895,442 L 894,443 L 894,445 L 893,446 L 893,448 L 892,449 L 892,451 L 891,452 L 891,454 L 890,455 L 890,456 L 889,457 L 889,458 L 888,459 L 888,461 L 887,462 L 887,463 L 886,464 L 886,465 L 885,466 L 885,467 L 884,468 L 884,469 L 882,471 L 881,470 L 881,469 L 882,468 L 882,466 L 883,465 L 883,462 L 884,461 L 884,456 L 885,455 L 885,428 L 884,427 L 884,417 L 883,416 L 883,409 L 882,408 L 882,403 L 881,402 L 881,398 L 881,409 L 880,410 L 880,417 L 879,418 L 879,424 L 878,425 L 878,429 L 877,430 L 877,434 L 876,435 L 876,438 L 875,439 L 875,441 L 874,442 L 874,445 L 873,446 L 873,448 L 872,449 L 872,451 L 871,452 L 871,454 L 870,455 L 870,457 L 869,458 L 869,459 L 868,460 L 868,462 L 867,463 L 867,464 L 866,465 L 866,466 L 865,467 L 865,469 L 864,470 L 864,471 L 863,472 L 863,473 L 862,474 L 862,475 L 861,476 L 861,477 L 860,478 L 860,479 L 859,480 L 859,482 L 858,483 L 858,484 L 857,485 L 857,486 L 856,487 L 856,488 L 855,489 L 855,490 L 854,491 L 854,492 L 851,495 L 851,496 L 850,497 L 850,498 L 849,499 L 849,500 L 848,501 L 848,502 L 847,503 L 847,505 L 846,506 L 846,508 L 845,509 L 845,515 L 844,516 L 843,515 L 843,506 L 844,505 L 844,500 L 845,499 L 845,495 L 846,494 L 846,492 L 847,491 L 847,488 L 848,487 L 848,484 L 849,483 L 849,480 L 850,479 L 850,476 L 851,475 L 851,473 L 852,472 L 852,469 L 853,468 L 853,465 L 854,464 L 854,461 L 855,460 L 855,456 L 856,455 L 856,451 L 857,450 L 857,445 L 858,444 L 858,437 L 859,436 L 859,409 L 858,408 L 858,402 L 857,401 L 857,396 L 856,395 L 856,392 L 855,391 L 855,389 L 854,388 L 854,386 L 853,385 L 853,384 L 852,383 L 852,382 L 851,381 L 851,380 L 850,379 L 850,378 L 849,377 L 849,376 L 848,375 L 848,374 L 846,372 L 846,371 L 838,363 L 837,363 L 835,361 L 834,361 L 833,360 L 831,360 L 830,359 L 827,359 L 826,358 L 825,358 L 824,357 L 824,354 L 825,353 L 825,344 L 826,343 L 826,341 L 835,332 L 835,331 L 837,329 L 836,329 L 835,328 L 838,325 L 838,323 L 839,322 L 839,314 L 838,313 L 838,312 L 837,311 L 837,310 L 831,304 L 830,304 L 829,303 L 828,303 L 827,302 L 826,302 L 825,301 L 823,301 L 822,300 L 809,300 L 808,301 L 807,301 L 806,302 L 804,302 L 803,303 L 802,303 L 801,304 L 800,304 L 798,306 L 797,306 L 793,310 L 793,311 L 792,312 L 792,313 L 791,314 L 791,324 L 793,326 L 793,327 L 797,331 L 798,331 L 799,332 L 800,332 L 801,333 L 803,333 L 804,334 L 807,334 L 808,335 L 810,335 L 813,338 L 813,339 L 814,340 L 814,343 L 815,344 L 815,346 L 814,347 L 814,350 L 813,351 L 813,353 L 808,358 L 807,358 L 806,359 L 805,359 L 804,360 L 803,360 L 802,361 L 801,361 L 800,362 L 799,362 L 798,363 L 797,363 L 795,365 L 794,365 L 793,366 L 792,366 L 790,368 L 789,368 L 787,370 L 786,370 L 783,373 L 782,373 L 780,375 L 779,375 L 777,377 L 776,377 L 774,379 L 773,379 L 769,383 L 768,383 L 762,389 L 762,390 L 755,397 L 755,398 L 752,401 L 752,402 L 749,405 L 749,406 L 747,408 L 747,409 L 745,411 L 745,412 L 743,414 L 743,415 L 742,416 L 742,417 L 740,419 L 740,420 L 739,421 L 739,422 L 738,423 L 738,424 L 737,425 L 737,426 L 736,427 L 736,428 L 735,429 L 735,430 L 734,431 L 734,432 L 733,433 L 733,435 L 732,436 L 732,438 L 731,439 L 731,440 L 730,441 L 730,443 L 729,444 L 729,446 L 728,447 L 728,450 L 727,451 L 727,455 L 726,456 L 726,461 L 725,462 L 725,490 L 724,491 L 723,490 L 723,486 L 722,485 L 722,468 L 721,467 L 721,410 L 722,409 L 722,407 L 721,408 L 721,410 L 720,411 L 720,413 L 719,414 L 719,415 L 718,416 L 718,418 L 717,419 L 717,421 L 716,422 L 716,424 L 715,425 L 715,427 L 714,428 L 714,431 L 713,432 L 713,435 L 712,436 L 712,440 L 711,441 L 711,450 L 710,451 L 710,458 L 711,459 L 711,471 L 712,472 L 712,476 L 713,477 L 713,480 L 714,481 L 714,483 L 715,484 L 715,486 L 716,487 L 716,489 L 717,490 L 717,492 L 718,493 L 718,495 L 719,496 L 719,497 L 720,498 L 720,500 L 721,501 L 721,502 L 722,503 L 722,505 L 723,506 L 723,507 L 724,508 L 724,509 L 725,510 L 725,511 L 726,512 L 726,514 L 727,515 L 727,516 L 728,517 L 728,518 L 729,519 L 729,520 L 730,521 L 730,522 L 731,523 L 731,524 L 732,525 L 732,526 L 733,527 L 733,528 L 734,529 L 734,530 L 735,531 L 735,532 L 736,533 L 736,534 L 737,535 L 737,536 L 739,538 L 739,539 L 740,540 L 740,541 L 742,543 L 742,544 L 744,546 L 744,547 L 746,549 L 745,548 L 745,547 L 744,546 L 744,545 L 743,544 L 743,542 L 742,541 L 742,539 L 741,538 L 741,536 L 740,535 L 740,532 L 739,531 L 739,528 L 738,527 L 738,521 L 737,520 L 737,507 L 736,506 L 736,500 L 737,499 L 737,487 L 738,486 L 738,479 L 739,478 L 739,473 L 740,472 L 740,467 L 741,466 L 741,462 L 742,461 L 742,458 L 743,457 L 743,454 L 744,453 L 744,451 L 745,450 L 745,447 L 746,446 L 746,444 L 747,443 L 747,441 L 748,440 L 748,438 L 749,437 L 749,436 L 750,435 L 750,433 L 751,432 L 751,431 L 752,430 L 752,429 L 753,428 L 753,426 L 754,425 L 754,424 L 755,423 L 755,422 L 756,421 L 756,420 L 757,419 L 757,418 L 758,417 L 758,416 L 759,415 L 759,414 L 760,413 L 760,412 L 762,410 L 762,409 L 763,408 L 763,407 L 765,405 L 765,404 L 767,402 L 767,401 L 769,399 L 769,398 L 771,396 L 771,395 L 772,394 L 772,393 L 775,390 L 776,390 L 778,388 L 779,388 L 780,387 L 781,387 L 782,386 L 783,386 L 785,384 L 786,384 L 787,383 L 788,383 L 789,382 L 790,382 L 791,381 L 792,381 L 793,380 L 794,380 L 795,379 L 796,379 L 797,378 L 798,378 L 799,377 L 800,377 L 801,376 L 803,376 L 804,375 L 805,375 L 806,374 L 807,374 L 808,373 L 809,373 L 814,368 L 815,368 L 816,369 L 817,369 L 818,370 L 820,370 L 821,371 L 823,371 L 824,372 L 826,372 L 827,373 L 828,373 L 830,375 L 831,375 L 833,377 L 834,377 L 839,382 L 839,383 L 841,385 L 841,387 L 842,388 L 842,390 L 843,391 L 843,396 L 844,397 L 844,422 L 843,423 L 843,428 L 842,429 L 842,433 L 841,434 L 841,437 L 840,438 L 840,441 L 839,442 L 839,446 L 838,447 L 838,449 L 837,450 L 837,454 L 836,455 L 836,458 L 835,459 L 835,462 L 834,463 L 834,466 L 833,467 L 833,470 L 832,471 L 832,473 L 831,474 L 831,476 L 830,477 L 830,480 L 829,481 L 829,484 L 828,485 L 828,488 L 827,489 L 827,494 L 826,495 L 826,505 L 825,506 L 825,522 L 826,523 L 826,535 L 827,536 L 827,545 L 828,546 L 828,554 L 829,555 L 829,561 L 830,562 L 830,572 L 831,573 L 831,584 L 832,585 L 832,606 L 831,607 L 831,616 L 830,617 L 830,623 L 829,624 L 829,629 L 828,630 L 828,634 L 827,635 L 827,637 L 826,638 L 826,641 L 825,642 L 824,641 L 824,616 L 823,615 L 823,609 L 822,608 L 822,603 L 821,602 L 821,598 L 820,597 L 820,594 L 819,593 L 819,590 L 818,589 L 818,587 L 817,586 L 817,583 L 816,582 L 816,580 L 815,579 L 815,577 L 814,576 L 814,574 L 813,573 L 813,572 L 812,571 L 812,569 L 811,568 L 811,567 L 810,566 L 810,565 L 809,564 L 809,562 L 808,561 L 808,560 L 807,559 L 807,558 L 806,557 L 806,556 L 805,555 L 805,554 L 804,553 L 804,551 L 803,550 L 803,548 L 802,548 L 802,550 L 803,551 L 803,557 L 804,558 L 804,566 L 805,567 L 805,573 L 806,574 L 806,583 L 807,584 L 807,595 L 808,596 L 808,631 L 807,632 L 807,642 L 806,643 L 806,649 L 805,650 L 805,655 L 804,656 L 804,660 L 803,661 L 803,664 L 802,665 L 802,668 L 801,669 L 801,671 L 800,672 L 800,675 L 799,676 L 799,678 L 798,679 L 798,680 L 797,681 L 797,683 L 796,684 L 796,685 L 795,686 L 795,687 L 794,688 L 794,689 L 793,690 L 793,691 L 792,692 L 792,693 L 791,694 L 791,695 L 789,697 L 789,698 L 787,700 L 787,701 L 785,703 L 785,704 L 781,708 L 781,709 L 778,712 L 777,711 L 777,709 L 778,708 L 778,706 L 779,705 L 779,703 L 780,702 L 780,699 L 781,698 L 781,695 L 782,694 L 782,691 L 783,690 L 783,685 L 784,684 L 784,656 L 783,655 L 783,648 L 782,647 L 782,643 L 781,642 L 781,638 L 780,637 L 780,634 L 779,633 L 779,631 L 778,630 L 778,627 L 777,626 L 777,624 L 776,623 L 776,621 L 775,620 L 775,618 L 774,617 L 774,615 L 773,614 L 773,612 L 772,611 L 772,609 L 772,613 L 773,614 L 773,629 L 774,630 L 774,637 L 773,638 L 773,650 L 772,651 L 772,658 L 771,659 L 771,664 L 770,665 L 770,669 L 769,670 L 769,674 L 768,675 L 768,678 L 767,679 L 767,682 L 766,683 L 766,686 L 765,687 L 765,689 L 764,690 L 764,692 L 763,693 L 763,696 L 762,697 L 762,699 L 761,700 L 761,701 L 760,702 L 760,704 L 759,705 L 759,707 L 758,708 L 758,709 L 757,710 L 757,711 L 756,712 L 756,714 L 755,715 L 755,716 L 754,717 L 754,718 L 753,719 L 753,720 L 751,722 L 751,723 L 750,724 L 750,725 L 748,727 L 748,728 L 747,729 L 747,730 L 744,733 L 744,734 L 741,737 L 741,738 L 725,754 L 724,754 L 720,758 L 719,758 L 718,759 L 717,758 L 717,757 L 719,755 L 719,754 L 720,753 L 720,752 L 721,751 L 721,750 L 722,749 L 722,747 L 723,746 L 723,745 L 724,744 L 724,743 L 725,742 L 725,741 L 726,740 L 726,739 L 727,738 L 727,736 L 728,735 L 728,733 L 729,732 L 729,730 L 730,729 L 730,727 L 731,726 L 731,724 L 732,723 L 732,720 L 733,719 L 733,716 L 734,715 L 734,711 L 735,710 L 735,705 L 736,704 L 736,690 L 737,689 L 737,676 L 736,675 L 736,654 L 735,653 L 735,644 L 735,665 L 734,666 L 734,671 L 733,672 L 733,677 L 732,678 L 732,681 L 731,682 L 731,685 L 730,686 L 730,688 L 729,689 L 729,691 L 728,692 L 728,694 L 727,695 L 727,697 L 726,698 L 726,700 L 725,701 L 725,702 L 724,703 L 724,704 L 723,705 L 723,707 L 722,708 L 722,709 L 721,710 L 721,711 L 720,712 L 720,713 L 719,714 L 719,715 L 718,716 L 718,717 L 717,718 L 717,719 L 715,721 L 715,722 L 714,723 L 714,724 L 713,725 L 713,726 L 712,727 L 712,728 L 710,730 L 710,731 L 709,732 L 709,733 L 707,735 L 707,736 L 706,737 L 706,738 L 704,740 L 704,741 L 702,743 L 702,744 L 699,747 L 699,748 L 696,751 L 696,752 L 692,756 L 692,757 L 678,771 L 677,771 L 674,774 L 673,774 L 670,777 L 669,777 L 668,778 L 667,778 L 665,780 L 664,780 L 663,781 L 662,781 L 661,782 L 660,782 L 659,781 L 659,780 L 661,778 L 661,777 L 662,776 L 662,775 L 663,774 L 663,773 L 664,772 L 664,771 L 665,770 L 665,768 L 666,767 L 666,766 L 667,765 L 667,762 L 668,761 L 668,758 L 669,757 L 669,753 L 670,752 L 670,746 L 671,745 L 671,729 L 672,728 L 672,727 L 671,726 L 672,725 L 672,724 L 671,723 L 671,721 L 671,726 L 670,727 L 670,732 L 669,733 L 669,735 L 668,736 L 668,738 L 667,739 L 667,741 L 666,742 L 666,744 L 665,745 L 665,746 L 664,747 L 664,748 L 663,749 L 663,750 L 662,751 L 662,752 L 660,754 L 660,755 L 658,757 L 658,758 L 656,760 L 656,761 L 654,763 L 654,764 L 651,767 L 651,768 L 647,772 L 647,773 L 643,777 L 642,777 L 640,775 L 640,771 L 641,770 L 641,761 L 642,760 L 642,753 L 643,752 L 643,746 L 644,745 L 644,740 L 645,739 L 645,733 L 646,732 L 646,725 L 647,724 L 647,714 L 648,713 L 648,696 L 647,695 L 647,688 L 646,687 L 646,683 L 645,682 L 645,679 L 644,678 L 644,676 L 643,675 L 643,673 L 642,672 L 642,670 L 641,669 L 641,668 L 640,667 L 640,665 L 639,664 L 639,663 L 638,662 L 638,661 L 637,660 L 637,659 L 636,658 L 636,657 L 635,656 L 635,655 L 633,653 L 633,652 L 632,651 L 632,650 L 629,647 L 630,648 L 630,649 L 631,650 L 631,652 L 632,653 L 632,656 L 633,657 L 633,661 L 634,662 L 634,668 L 635,669 L 635,680 L 636,681 L 636,689 L 635,690 L 635,699 L 634,700 L 634,706 L 633,707 L 633,711 L 632,712 L 632,716 L 631,717 L 631,721 L 630,722 L 630,725 L 629,726 L 629,731 L 628,732 L 628,736 L 627,737 L 627,742 L 626,743 L 626,748 L 625,749 L 625,755 L 624,756 L 624,765 L 623,766 L 623,778 L 622,779 L 622,791 L 623,792 L 623,799 L 624,800 L 624,805 L 625,806 L 625,810 L 626,811 L 626,813 L 627,814 L 626,815 L 625,815 L 621,811 L 620,811 L 618,809 L 618,808 L 615,805 L 615,804 L 613,802 L 613,801 L 612,800 L 612,799 L 611,798 L 611,796 L 610,795 L 610,793 L 609,792 L 609,789 L 608,788 L 608,782 L 607,781 L 607,776 L 608,775 L 608,772 L 608,773 L 607,774 L 607,776 L 606,777 L 606,781 L 605,782 L 605,799 L 606,800 L 606,803 L 607,804 L 607,806 L 608,807 L 608,808 L 609,809 L 609,810 L 610,811 L 610,812 L 613,815 L 613,816 L 617,820 L 617,821 L 621,825 L 622,825 L 626,829 L 627,829 L 629,831 L 630,831 L 631,832 L 632,832 L 634,834 L 635,834 L 637,836 L 638,836 L 641,839 L 641,840 L 643,842 L 643,844 L 644,845 L 644,848 L 645,849 L 645,853 L 644,854 L 644,857 L 643,858 L 643,859 L 642,860 L 642,861 L 639,864 L 638,864 L 637,863 L 637,857 L 636,856 L 636,854 L 635,853 L 635,852 L 634,851 L 634,850 L 632,848 L 632,847 L 629,844 L 628,844 L 625,841 L 625,842 L 626,843 L 626,844 L 627,845 L 627,848 L 628,849 L 628,859 L 627,860 L 627,862 L 626,863 L 626,864 L 625,865 L 625,866 L 624,867 L 623,867 L 622,868 L 616,868 L 615,869 L 613,869 L 611,867 L 612,866 L 611,865 L 611,861 L 610,860 L 610,858 L 609,857 L 609,856 L 608,855 L 608,854 L 606,852 L 606,851 L 603,848 L 603,847 L 594,838 L 595,839 L 595,840 L 596,841 L 596,842 L 597,843 L 597,844 L 598,845 L 598,848 L 599,849 L 599,861 L 598,862 L 598,863 L 597,864 L 597,865 L 596,866 L 596,867 L 595,868 L 592,868 L 591,867 L 582,867 L 581,866 L 577,866 L 576,865 L 573,865 L 572,864 L 569,864 L 568,863 L 566,863 L 565,862 L 564,862 L 563,861 L 562,861 L 561,860 L 560,860 L 557,857 L 557,856 L 555,854 L 555,853 L 554,852 L 554,851 L 553,850 L 553,849 L 552,848 L 552,847 L 551,846 L 551,845 L 550,844 L 550,842 L 549,841 L 549,840 L 548,839 L 548,836 L 547,835 L 547,832 L 546,831 L 546,828 L 545,827 L 545,822 L 544,821 L 544,809 L 543,808 L 544,807 L 544,794 L 545,793 L 544,794 L 544,795 L 543,796 L 543,798 L 542,799 L 542,800 L 541,801 L 541,802 L 540,803 L 540,804 L 539,805 L 539,806 L 538,807 L 538,809 L 537,810 L 537,812 L 536,813 L 536,815 L 535,816 L 535,818 L 534,819 L 534,822 L 533,823 L 533,828 L 532,829 L 532,843 L 533,844 L 532,845 L 531,845 L 530,844 L 530,843 L 529,842 L 529,841 L 527,839 L 527,838 L 526,837 L 526,835 L 525,834 L 525,833 L 524,832 L 524,830 L 523,829 L 523,828 L 522,827 L 522,824 L 521,823 L 521,821 L 520,820 L 520,816 L 519,815 L 519,809 L 518,808 L 518,788 L 519,787 L 519,778 L 520,777 L 520,773 L 521,772 L 521,768 L 522,767 L 522,763 L 523,762 L 523,759 L 524,758 L 524,756 L 525,755 L 525,754 L 526,753 L 526,752 L 527,751 L 527,750 L 528,749 L 526,751 L 526,752 L 524,754 L 524,755 L 523,756 L 523,757 L 521,759 L 521,760 L 520,761 L 520,762 L 518,764 L 518,765 L 517,766 L 517,767 L 516,768 L 516,769 L 514,771 L 514,772 L 513,773 L 513,774 L 512,775 L 512,776 L 511,777 L 511,778 L 510,779 L 510,781 L 509,782 L 509,783 L 508,784 L 508,786 L 507,787 L 507,788 L 506,789 L 506,792 L 505,793 L 505,797 L 504,798 L 504,805 L 503,806 L 502,805 L 502,803 L 501,802 L 501,800 L 500,799 L 500,796 L 499,795 L 499,788 L 498,787 L 498,781 L 499,780 L 499,771 L 500,770 L 500,765 L 501,764 L 501,761 L 502,760 L 502,757 L 503,756 L 503,754 L 504,753 L 504,750 L 505,749 L 505,747 L 506,746 L 506,744 L 507,743 L 507,742 L 508,741 L 508,739 L 509,738 L 509,736 L 510,735 L 510,734 L 511,733 L 511,731 L 512,730 L 512,728 L 513,727 L 513,726 L 514,725 L 514,723 L 515,722 L 515,720 L 516,719 L 516,717 L 517,716 L 517,713 L 518,712 L 518,709 L 519,708 L 519,705 L 520,704 L 520,700 L 521,699 L 521,693 L 522,692 L 522,673 L 523,672 L 523,667 L 523,668 L 522,669 L 522,673 L 521,674 L 521,677 L 520,678 L 520,680 L 519,681 L 519,683 L 518,684 L 518,686 L 517,687 L 517,689 L 516,690 L 516,691 L 515,692 L 515,693 L 514,694 L 514,695 L 513,696 L 513,698 L 512,699 L 512,700 L 511,701 L 511,702 L 509,704 L 509,705 L 508,706 L 508,707 L 507,708 L 507,709 L 506,710 L 506,711 L 504,713 L 504,714 L 503,715 L 503,716 L 501,718 L 501,719 L 499,721 L 499,722 L 498,723 L 498,724 L 496,726 L 496,727 L 494,729 L 494,730 L 492,732 L 492,733 L 491,734 L 491,735 L 489,737 L 489,738 L 488,739 L 488,740 L 486,742 L 486,743 L 485,744 L 485,745 L 484,746 L 484,747 L 483,748 L 483,749 L 481,751 L 481,752 L 480,753 L 480,754 L 479,755 L 479,756 L 478,757 L 478,759 L 477,760 L 477,761 L 476,762 L 476,764 L 475,765 L 475,767 L 473,769 L 472,768 L 472,746 L 473,745 L 473,740 L 474,739 L 474,736 L 475,735 L 475,733 L 476,732 L 476,730 L 477,729 L 477,727 L 478,726 L 478,724 L 479,723 L 479,722 L 480,721 L 480,720 L 481,719 L 481,717 L 482,716 L 482,715 L 483,714 L 483,712 L 484,711 L 484,710 L 485,709 L 485,708 L 486,707 L 486,705 L 487,704 L 487,703 L 488,702 L 488,700 L 489,699 L 489,697 L 490,696 L 490,695 L 491,694 L 491,691 L 492,690 L 492,688 L 493,687 L 493,685 L 494,684 L 494,680 L 495,679 L 495,675 L 496,674 L 496,667 L 497,666 L 497,654 L 498,653 L 498,641 L 497,640 L 497,634 L 496,633 L 496,632 L 496,637 L 495,638 L 495,641 L 494,642 L 494,645 L 493,646 L 493,648 L 492,649 L 492,650 L 491,651 L 491,653 L 490,654 L 490,655 L 489,656 L 489,657 L 488,658 L 488,659 L 487,660 L 487,661 L 486,662 L 486,663 L 485,664 L 485,665 L 484,666 L 484,667 L 482,669 L 482,670 L 481,671 L 481,672 L 479,674 L 479,675 L 477,677 L 477,678 L 474,681 L 474,682 L 470,686 L 470,687 L 460,697 L 460,698 L 459,699 L 458,699 L 456,701 L 456,702 L 443,715 L 443,716 L 439,720 L 439,721 L 436,724 L 436,725 L 434,727 L 434,728 L 433,729 L 433,730 L 432,731 L 432,732 L 431,733 L 431,734 L 430,735 L 430,736 L 429,737 L 429,738 L 428,739 L 428,741 L 427,742 L 427,745 L 426,746 L 426,750 L 425,751 L 425,754 L 424,755 L 423,754 L 423,752 L 422,751 L 422,749 L 421,748 L 421,746 L 420,745 L 420,741 L 419,740 L 419,725 L 420,724 L 420,719 L 421,718 L 421,716 L 422,715 L 422,713 L 423,712 L 423,710 L 424,709 L 424,708 L 425,707 L 425,705 L 426,704 L 426,703 L 427,702 L 427,701 L 428,700 L 428,699 L 429,698 L 429,697 L 430,696 L 430,695 L 431,694 L 431,693 L 432,692 L 432,691 L 433,690 L 433,688 L 434,687 L 434,686 L 435,685 L 435,684 L 436,683 L 436,682 L 437,681 L 437,679 L 438,678 L 438,676 L 439,675 L 439,674 L 440,673 L 440,671 L 441,670 L 441,668 L 442,667 L 442,665 L 443,664 L 443,661 L 444,660 L 444,656 L 445,655 L 445,650 L 446,649 L 446,644 L 447,643 L 447,635 L 448,634 L 448,629 L 449,628 L 449,623 L 450,622 L 450,617 L 451,616 L 451,614 L 452,613 L 452,611 L 453,610 L 452,611 L 452,612 L 451,613 L 451,614 L 450,615 L 450,616 L 449,617 L 449,619 L 448,620 L 448,621 L 447,622 L 447,624 L 446,625 L 446,626 L 445,627 L 445,629 L 444,630 L 444,631 L 443,632 L 443,634 L 442,635 L 442,636 L 441,637 L 441,638 L 440,639 L 440,641 L 439,642 L 439,643 L 438,644 L 438,645 L 437,646 L 437,647 L 436,648 L 436,649 L 435,650 L 435,651 L 434,652 L 434,653 L 432,655 L 432,656 L 431,657 L 431,658 L 429,660 L 429,661 L 427,663 L 427,664 L 425,666 L 425,667 L 423,669 L 423,670 L 420,673 L 420,674 L 417,677 L 417,678 L 414,681 L 414,682 L 410,686 L 410,687 L 405,692 L 405,693 L 401,697 L 401,698 L 398,701 L 398,702 L 395,705 L 395,706 L 392,709 L 392,710 L 391,711 L 391,712 L 389,714 L 389,715 L 388,716 L 388,717 L 387,718 L 387,719 L 386,720 L 386,722 L 385,723 L 385,724 L 384,725 L 384,727 L 383,728 L 383,731 L 382,732 L 380,730 L 380,728 L 379,727 L 379,725 L 378,724 L 378,722 L 377,721 L 377,716 L 376,715 L 376,704 L 377,703 L 377,696 L 378,695 L 378,692 L 379,691 L 379,688 L 380,687 L 380,685 L 381,684 L 381,682 L 382,681 L 382,679 L 383,678 L 383,677 L 384,676 L 384,674 L 385,673 L 385,672 L 386,671 L 386,669 L 387,668 L 387,667 L 388,666 L 388,665 L 389,664 L 389,663 L 390,662 L 390,661 L 391,660 L 391,658 L 392,657 L 392,656 L 393,655 L 393,654 L 394,653 L 394,652 L 395,651 L 395,650 L 396,649 L 396,648 L 397,647 L 397,646 L 398,645 L 398,643 L 399,642 L 399,641 L 400,640 L 400,639 L 401,638 L 401,636 L 402,635 L 402,634 L 403,633 L 403,632 L 404,631 L 404,629 L 405,628 L 405,627 L 406,626 L 406,623 L 407,622 L 407,621 L 408,620 L 408,617 L 409,616 L 409,613 L 410,612 L 410,609 L 411,608 L 411,604 L 412,603 L 412,598 L 413,597 L 413,588 L 414,587 L 414,553 L 413,554 L 413,563 L 412,564 L 412,568 L 411,569 L 411,573 L 410,574 L 410,577 L 409,578 L 409,582 L 408,583 L 408,586 L 407,587 L 407,589 L 406,590 L 406,592 L 405,593 L 405,595 L 404,596 L 404,598 L 403,599 L 403,601 L 402,602 L 402,603 L 401,604 L 401,605 L 400,606 L 400,607 L 399,608 L 399,609 L 398,610 L 398,611 L 397,612 L 397,613 L 396,614 L 396,615 L 395,616 L 395,617 L 394,618 L 394,619 L 392,621 L 392,622 L 391,623 L 391,624 L 389,626 L 389,627 L 387,629 L 387,630 L 384,633 L 384,634 L 381,637 L 381,638 L 365,654 L 364,654 L 362,656 L 361,656 L 359,658 L 358,658 L 356,660 L 355,660 L 354,661 L 353,661 L 352,662 L 351,662 L 350,663 L 349,663 L 348,664 L 346,664 L 345,665 L 344,665 L 343,666 L 341,666 L 340,667 L 339,667 L 338,668 L 336,668 L 335,669 L 332,669 L 331,670 L 329,670 L 328,671 L 323,671 L 322,670 L 326,666 L 326,665 L 331,660 L 331,659 L 335,655 L 335,654 L 338,651 L 338,650 L 340,648 L 340,647 L 342,645 L 342,644 L 344,642 L 344,641 L 346,639 L 346,638 L 347,637 L 347,636 L 349,634 L 349,633 L 350,632 L 350,631 L 351,630 L 351,629 L 352,628 L 352,627 L 353,626 L 353,625 L 354,624 L 354,623 L 355,622 L 355,621 L 356,620 L 356,619 L 357,618 L 357,617 L 358,616 L 358,615 L 359,614 L 359,612 L 360,611 L 360,610 L 361,609 L 361,607 L 362,606 L 362,605 L 363,604 L 363,602 L 364,601 L 364,599 L 365,598 L 365,595 L 366,594 L 366,591 L 367,590 L 367,587 L 368,586 L 368,580 L 369,579 L 369,573 L 370,572 L 370,552 L 371,551 L 371,525 L 372,524 L 372,521 L 372,523 L 371,524 L 371,530 L 370,531 L 370,539 L 369,540 L 369,544 L 368,545 L 368,549 L 367,550 L 367,554 L 366,555 L 366,557 L 365,558 L 365,561 L 364,562 L 364,564 L 363,565 L 363,567 L 362,568 L 362,570 L 361,571 L 361,573 L 360,574 L 360,576 L 359,577 L 359,578 L 358,579 L 358,581 L 357,582 L 357,583 L 356,584 L 356,585 L 355,586 L 355,587 L 354,588 L 354,589 L 353,590 L 353,591 L 352,592 L 352,594 L 351,595 L 351,596 L 350,597 L 350,598 L 349,599 L 349,600 L 347,602 L 347,603 L 346,604 L 346,605 L 345,606 L 345,607 L 344,608 L 344,609 L 342,611 L 342,612 L 341,613 L 341,614 L 340,615 L 340,616 L 338,618 L 338,619 L 336,621 L 336,622 L 334,624 L 334,625 L 332,627 L 332,628 L 330,630 L 330,631 L 328,633 L 328,634 L 325,637 L 325,638 L 322,641 L 322,642 L 318,646 L 318,647 L 313,652 L 313,653 L 291,675 L 290,675 L 285,680 L 284,680 L 280,684 L 279,684 L 274,689 L 273,688 L 273,687 L 276,684 L 276,683 L 278,681 L 278,680 L 280,678 L 280,677 L 281,676 L 281,675 L 283,673 L 283,672 L 284,671 L 284,670 L 285,669 L 285,668 L 287,666 L 287,665 L 288,664 L 288,662 L 289,661 L 289,660 L 290,659 L 290,658 L 291,657 L 291,656 L 292,655 L 292,654 L 293,653 L 293,652 L 294,651 L 294,650 L 295,649 L 295,648 L 296,647 L 296,646 L 297,645 L 297,643 L 298,642 L 298,641 L 299,640 L 299,638 L 300,637 L 300,635 L 301,634 L 301,632 L 302,631 L 302,628 L 303,627 L 303,624 L 304,623 L 304,621 L 305,620 L 305,617 L 306,616 L 306,612 L 307,611 L 307,606 L 308,605 L 308,600 L 309,599 L 309,591 L 310,590 L 310,578 L 311,577 L 311,571 L 312,570 L 312,568 L 311,569 L 311,571 L 310,572 L 310,575 L 309,576 L 309,579 L 308,580 L 308,582 L 307,583 L 307,585 L 306,586 L 306,588 L 305,589 L 305,591 L 304,592 L 304,594 L 303,595 L 303,597 L 302,598 L 302,600 L 301,601 L 301,602 L 300,603 L 300,605 L 299,606 L 299,607 L 298,608 L 298,610 L 297,611 L 297,612 L 296,613 L 296,614 L 295,615 L 295,616 L 294,617 L 294,618 L 293,619 L 293,621 L 292,622 L 292,623 L 291,624 L 291,625 L 290,626 L 290,627 L 289,628 L 289,629 L 288,630 L 288,631 L 287,632 L 287,633 L 286,634 L 286,635 L 285,636 L 285,637 L 284,638 L 284,639 L 283,640 L 283,641 L 281,643 L 281,644 L 280,645 L 280,646 L 279,647 L 279,648 L 277,650 L 277,651 L 276,652 L 276,653 L 275,654 L 275,655 L 273,657 L 273,658 L 272,659 L 272,660 L 270,662 L 270,663 L 269,664 L 269,665 L 266,668 L 266,669 L 264,671 L 264,672 L 262,674 L 262,675 L 259,678 L 259,679 L 257,681 L 257,682 L 253,686 L 253,687 L 249,691 L 249,692 L 243,698 L 243,699 L 236,706 L 236,707 L 230,713 L 230,714 L 226,718 L 226,719 L 223,722 L 223,723 L 221,725 L 221,726 L 219,728 L 219,729 L 217,731 L 217,732 L 216,733 L 216,734 L 215,735 L 215,736 L 214,737 L 214,739 L 213,740 L 213,741 L 212,742 L 212,744 L 211,745 L 211,747 L 210,748 L 210,751 L 209,752 L 209,755 L 208,756 L 208,762 L 207,763 L 207,775 L 208,776 L 208,779 L 209,780 L 209,782 L 210,783 L 210,784 L 212,786 L 212,787 L 217,792 L 218,792 L 228,802 L 228,803 L 229,804 L 229,805 L 230,806 L 230,815 L 229,816 L 229,818 L 228,819 L 228,821 L 227,822 L 227,823 L 222,828 L 221,827 L 221,820 L 220,819 L 220,817 L 219,816 L 219,815 L 218,814 L 218,813 L 216,811 L 216,810 L 213,807 L 212,807 L 209,804 L 208,804 L 207,803 L 209,805 L 209,807 L 210,808 L 210,822 L 209,823 L 209,824 L 208,825 L 208,827 L 207,828 L 206,828 L 205,829 L 198,829 L 196,827 L 196,824 L 195,823 L 195,821 L 194,820 L 194,819 L 193,818 L 193,817 L 192,816 L 192,815 L 190,813 L 190,812 L 186,808 L 186,807 L 183,804 L 183,813 L 182,814 L 182,825 L 180,827 L 176,827 L 175,826 L 171,826 L 170,825 L 167,825 L 166,824 L 165,824 L 164,823 L 163,823 L 162,822 L 161,822 L 160,821 L 159,821 L 152,814 L 152,813 L 150,811 L 150,810 L 149,809 L 149,808 L 148,807 L 148,806 L 147,805 L 147,803 L 146,802 L 146,798 L 145,797 L 145,761 L 146,760 L 146,747 L 147,746 L 147,737 L 148,736 L 148,728 L 149,727 L 149,720 L 150,719 L 150,713 L 151,712 L 151,706 L 152,705 L 152,700 L 153,699 L 153,696 L 154,695 L 154,694 L 155,693 L 155,692 L 156,691 L 153,694 L 153,695 L 149,699 L 149,700 L 146,703 L 146,704 L 143,707 L 143,708 L 141,710 L 141,711 L 139,713 L 139,714 L 138,715 L 138,716 L 136,718 L 136,719 L 135,720 L 135,721 L 133,723 L 132,722 L 132,718 L 133,717 L 133,715 L 134,714 L 134,712 L 135,711 L 135,709 L 136,708 L 136,707 L 137,706 L 137,705 L 139,703 L 139,702 L 140,701 L 140,700 L 141,699 L 141,698 L 142,697 L 142,696 L 143,695 L 143,694 L 144,693 L 144,692 L 145,691 L 145,690 L 147,688 L 147,687 L 148,686 L 148,685 L 149,684 L 149,683 L 150,682 L 150,681 L 151,680 L 151,679 L 152,678 L 152,677 L 153,676 L 153,674 L 154,673 L 154,672 L 155,671 L 155,670 L 156,669 L 156,667 L 157,666 L 157,665 L 158,664 L 158,662 L 159,661 L 159,660 L 160,659 L 160,657 L 161,656 L 161,654 L 162,653 L 162,651 L 163,650 L 163,647 L 164,646 L 164,644 L 165,643 L 165,640 L 166,639 L 166,636 L 167,635 L 167,631 L 168,630 L 168,625 L 169,624 L 169,618 L 170,617 L 170,607 L 171,606 L 171,580 L 172,579 L 172,577 L 171,578 L 171,581 L 170,582 L 170,584 L 169,585 L 169,587 L 168,588 L 168,590 L 167,591 L 167,592 L 166,593 L 166,595 L 165,596 L 165,598 L 164,599 L 164,601 L 163,602 L 163,604 L 162,605 L 162,606 L 161,607 L 161,609 L 160,610 L 160,611 L 159,612 L 159,614 L 158,615 L 158,616 L 157,617 L 157,619 L 156,620 L 156,622 L 155,623 L 155,624 L 154,625 L 154,627 L 153,628 L 153,630 L 152,631 L 152,632 L 151,633 L 151,634 L 150,635 L 150,637 L 149,638 L 149,639 L 148,640 L 148,641 L 147,642 L 146,641 L 146,632 L 147,631 L 147,596 L 148,595 L 148,580 L 149,579 L 149,572 L 150,571 L 150,566 L 151,565 L 151,560 L 152,559 L 152,556 L 153,555 L 153,553 L 154,552 L 154,549 L 155,548 L 155,545 L 156,544 L 156,542 L 157,541 L 157,539 L 158,538 L 158,535 L 159,534 L 159,532 L 160,531 L 160,530 L 161,529 L 161,527 L 162,526 L 162,524 L 163,523 L 163,521 L 164,520 L 164,519 L 165,518 L 165,516 L 166,515 L 166,513 L 167,512 L 167,511 L 168,510 L 168,509 L 169,508 L 169,507 L 170,506 L 170,505 L 166,509 L 166,510 L 161,515 L 161,516 L 158,519 L 158,520 L 155,523 L 155,524 L 153,526 L 153,527 L 151,529 L 151,530 L 149,532 L 149,533 L 147,535 L 147,536 L 146,537 L 146,538 L 145,539 L 145,540 L 144,541 L 144,542 L 143,543 L 143,544 L 142,545 L 142,546 L 141,547 L 141,548 L 140,549 L 140,551 L 139,552 L 139,553 L 138,554 L 138,556 L 137,557 L 137,559 L 136,560 L 136,563 L 135,564 L 135,567 L 134,568 L 133,567 L 133,546 L 134,545 L 134,539 L 135,538 L 135,535 L 136,534 L 136,530 L 137,529 L 137,527 L 138,526 L 138,523 L 139,522 L 139,520 L 140,519 L 140,517 L 141,516 L 141,514 L 142,513 L 142,512 L 143,511 L 143,509 L 144,508 L 144,507 L 145,506 L 145,504 L 146,503 L 146,502 L 147,501 L 147,500 L 148,499 L 148,498 L 149,497 L 149,496 L 150,495 L 150,494 L 151,493 L 151,491 L 153,489 L 153,488 L 154,487 L 154,486 L 155,485 L 155,484 L 156,483 L 156,482 L 157,481 L 157,480 L 159,478 L 159,477 L 160,476 L 160,475 L 161,474 L 161,473 L 162,472 L 162,471 L 163,470 L 163,469 L 165,467 L 165,466 L 166,465 L 166,464 L 167,463 L 167,462 L 169,460 L 169,459 L 170,458 L 170,457 L 171,456 L 171,455 L 172,454 L 172,453 L 173,452 L 173,451 L 174,450 L 174,449 L 176,447 L 176,446 L 177,445 L 177,444 L 178,443 L 178,442 L 179,441 L 179,440 L 180,439 L 180,438 L 181,437 L 181,436 L 182,435 L 182,434 L 183,433 L 183,432 L 184,431 L 184,430 L 185,429 L 185,428 L 186,427 L 186,426 L 187,425 L 187,424 L 188,423 L 188,422 L 189,421 L 189,420 L 190,419 L 190,418 L 191,417 L 191,416 L 192,415 L 192,414 L 193,413 L 193,411 L 195,409 L 195,408 L 196,407 L 196,406 L 197,405 L 197,404 L 198,403 L 198,402 L 199,401 L 199,400 L 200,399 L 200,398 L 201,397 L 201,395 L 203,393 L 203,391 L 205,389 L 205,388 L 206,387 L 206,386 L 207,385 L 207,384 L 208,383 L 208,382 L 209,381 L 209,380 L 210,379 L 210,378 L 212,376 L 212,375 L 214,373 L 214,372 L 218,368 L 215,371 L 214,371 L 207,378 L 206,378 L 196,388 L 196,389 L 191,394 L 191,395 L 188,398 L 188,399 L 185,402 L 185,403 L 183,405 L 183,406 L 181,408 L 181,409 L 179,411 L 179,412 L 177,414 L 177,415 L 175,417 L 175,418 L 174,419 L 174,420 L 172,422 L 172,423 L 170,425 L 170,426 L 168,428 L 168,429 L 165,432 L 165,433 L 162,436 L 162,437 L 159,440 L 159,441 L 152,448 L 151,448 L 146,453 L 145,453 L 143,455 L 142,455 L 141,456 L 140,456 L 138,458 L 137,458 L 136,459 L 134,459 L 133,460 L 132,460 L 131,461 L 129,461 L 128,462 L 125,462 L 124,463 L 121,463 L 120,464 L 109,464 L 110,464 L 111,465 L 112,465 L 113,466 L 114,466 L 115,467 L 117,467 L 118,468 L 118,469 L 117,470 L 110,470 L 111,471 L 112,471 L 113,472 L 114,472 L 115,473 L 116,473 L 117,474 L 119,474 L 120,475 L 122,475 L 123,476 L 125,476 L 126,477 L 139,477 L 140,478 L 138,480 L 138,481 L 136,483 L 136,484 L 135,485 L 135,486 L 133,488 L 133,489 L 132,490 L 132,491 L 130,493 L 130,494 L 129,495 L 129,496 L 128,497 L 128,498 L 127,499 L 127,500 L 126,501 L 126,502 L 125,503 L 125,504 L 124,505 L 124,507 L 123,508 L 123,510 L 122,511 L 122,513 L 121,514 L 121,516 L 120,517 L 120,520 L 119,521 L 119,524 L 118,525 L 118,529 L 117,530 L 117,536 L 116,537 L 116,545 L 115,546 L 115,575 L 116,576 L 116,581 L 117,582 L 117,587 L 118,588 L 118,590 L 119,591 L 119,594 L 120,595 L 120,597 L 121,598 L 121,600 L 122,601 L 122,603 L 123,604 L 123,606 L 124,607 L 124,609 L 125,610 L 125,613 L 126,614 L 126,618 L 127,619 L 127,623 L 128,624 L 128,641 L 127,642 L 127,649 L 126,650 L 126,653 L 125,654 L 125,657 L 124,658 L 124,660 L 123,661 L 123,662 L 122,663 L 122,665 L 121,666 L 121,667 L 119,669 L 119,670 L 118,671 L 118,672 L 110,680 L 109,680 L 108,681 L 106,681 L 105,682 L 100,682 L 101,682 L 103,684 L 105,684 L 106,685 L 108,685 L 109,686 L 112,686 L 113,687 L 119,687 L 120,686 L 123,686 L 124,685 L 126,685 L 127,684 L 128,684 L 129,683 L 130,683 L 132,681 L 133,681 L 134,682 L 133,683 L 133,684 L 132,685 L 132,686 L 130,688 L 130,689 L 129,690 L 129,691 L 127,693 L 127,694 L 126,695 L 126,696 L 124,698 L 124,699 L 123,700 L 123,701 L 122,702 L 122,703 L 121,704 L 121,705 L 120,706 L 120,708 L 119,709 L 119,711 L 118,712 L 118,715 L 117,716 L 117,722 L 116,723 L 116,746 L 117,747 L 117,753 L 118,754 L 118,757 L 119,758 L 119,760 L 120,761 L 120,762 L 121,763 L 121,764 L 122,765 L 122,766 L 123,767 L 123,769 L 124,770 L 124,771 L 124,763 L 125,762 L 125,758 L 126,757 L 126,753 L 127,752 L 127,749 L 128,748 L 128,744 L 129,743 L 130,744 L 130,769 L 129,770 L 129,780 L 128,781 L 128,806 L 129,807 L 129,811 L 130,812 L 130,814 L 131,815 L 131,816 L 132,817 L 132,818 L 133,819 L 133,820 L 134,821 L 134,822 L 136,824 L 136,825 L 142,831 L 143,831 L 146,834 L 147,834 L 149,836 L 150,836 L 151,837 L 152,837 L 153,838 L 155,838 L 156,839 L 157,839 L 158,840 L 160,840 L 161,841 L 163,841 L 164,842 L 167,842 L 168,843 L 172,843 L 173,844 L 178,844 L 179,845 L 209,845 L 210,844 L 218,844 L 219,843 L 222,843 L 223,842 L 225,842 L 226,841 L 228,841 L 229,840 L 230,840 L 231,839 L 232,839 L 233,838 L 234,838 L 237,835 L 238,835 L 239,834 L 239,833 L 243,829 L 243,828 L 244,827 L 244,826 L 245,825 L 245,823 L 246,822 L 246,818 L 247,817 L 247,812 L 246,811 L 246,806 L 245,805 L 245,803 L 244,802 L 244,800 L 243,799 L 243,798 L 241,796 L 241,795 L 238,792 L 238,791 L 232,785 L 231,785 L 227,781 L 227,780 L 226,779 L 226,776 L 225,775 L 225,765 L 226,764 L 226,761 L 227,760 L 227,758 L 228,757 L 228,756 L 229,755 L 229,753 L 230,752 L 230,751 L 231,750 L 231,749 L 232,748 L 232,747 L 233,746 L 233,745 L 235,743 L 235,742 L 236,741 L 236,740 L 238,738 L 238,737 L 241,734 L 241,733 L 246,728 L 246,727 L 248,725 L 249,725 L 253,721 L 254,722 L 254,726 L 255,727 L 255,737 L 256,738 L 256,748 L 257,749 L 257,757 L 258,758 L 258,764 L 259,765 L 259,770 L 260,771 L 260,775 L 261,776 L 261,779 L 262,780 L 262,782 L 263,783 L 263,785 L 264,786 L 264,788 L 265,789 L 265,790 L 266,791 L 266,792 L 267,793 L 267,794 L 268,795 L 268,796 L 270,798 L 270,799 L 273,802 L 273,803 L 277,807 L 278,807 L 281,810 L 282,810 L 283,811 L 284,811 L 285,812 L 286,812 L 287,813 L 288,813 L 289,814 L 291,814 L 292,815 L 295,815 L 296,816 L 300,816 L 301,817 L 308,817 L 309,818 L 328,818 L 329,819 L 330,818 L 347,818 L 348,817 L 355,817 L 356,816 L 358,816 L 359,815 L 360,815 L 362,813 L 363,813 L 366,810 L 366,809 L 367,808 L 367,807 L 368,806 L 368,803 L 369,802 L 369,794 L 368,793 L 368,789 L 367,788 L 367,786 L 366,785 L 366,784 L 365,783 L 365,782 L 362,779 L 362,778 L 358,774 L 357,774 L 353,770 L 352,770 L 344,762 L 344,761 L 343,760 L 343,759 L 342,758 L 342,755 L 341,754 L 341,746 L 342,745 L 342,740 L 343,739 L 343,737 L 344,736 L 344,734 L 345,733 L 345,731 L 346,730 L 346,729 L 347,728 L 347,726 L 349,724 L 349,723 L 350,722 L 350,721 L 352,719 L 352,718 L 354,716 L 354,715 L 357,712 L 357,711 L 358,710 L 359,711 L 359,712 L 360,713 L 360,717 L 361,718 L 361,721 L 362,722 L 362,725 L 363,726 L 363,729 L 364,730 L 364,733 L 365,734 L 365,736 L 366,737 L 366,738 L 367,739 L 367,741 L 369,743 L 369,744 L 370,745 L 370,746 L 372,748 L 372,749 L 374,751 L 374,752 L 383,761 L 383,762 L 384,762 L 390,768 L 391,768 L 394,771 L 395,771 L 394,770 L 394,769 L 393,768 L 393,766 L 392,765 L 392,751 L 393,750 L 393,746 L 394,745 L 394,742 L 395,741 L 395,739 L 396,738 L 396,736 L 397,735 L 397,734 L 398,733 L 398,732 L 399,731 L 399,729 L 401,727 L 402,728 L 402,729 L 403,730 L 403,736 L 404,737 L 404,741 L 405,742 L 405,745 L 406,746 L 406,749 L 407,750 L 407,752 L 408,753 L 408,754 L 409,755 L 409,757 L 410,758 L 410,759 L 411,760 L 411,761 L 412,762 L 412,763 L 413,764 L 413,765 L 415,767 L 415,768 L 416,769 L 416,770 L 418,772 L 418,773 L 426,781 L 427,781 L 430,784 L 431,784 L 433,786 L 434,786 L 436,788 L 437,788 L 438,789 L 439,789 L 440,790 L 441,790 L 442,791 L 443,791 L 444,792 L 445,792 L 446,793 L 443,790 L 443,789 L 442,788 L 442,786 L 441,785 L 441,783 L 440,782 L 440,780 L 439,779 L 439,764 L 440,763 L 440,760 L 441,759 L 441,757 L 442,756 L 442,754 L 443,753 L 443,752 L 444,751 L 444,749 L 445,748 L 445,747 L 446,746 L 446,745 L 448,743 L 448,742 L 449,741 L 449,740 L 451,738 L 451,737 L 453,735 L 454,736 L 454,764 L 455,765 L 455,769 L 456,770 L 456,773 L 457,774 L 457,776 L 458,777 L 458,779 L 459,780 L 459,781 L 460,782 L 460,783 L 461,784 L 461,785 L 462,786 L 462,787 L 464,789 L 464,790 L 467,793 L 467,794 L 472,799 L 473,799 L 479,805 L 480,805 L 484,809 L 484,810 L 485,811 L 485,812 L 486,813 L 486,814 L 487,815 L 487,816 L 488,817 L 488,818 L 489,819 L 489,820 L 490,821 L 490,822 L 492,824 L 492,825 L 493,826 L 493,827 L 496,830 L 496,831 L 504,839 L 504,840 L 504,838 L 503,837 L 503,836 L 502,835 L 502,834 L 501,833 L 501,832 L 502,831 L 506,835 L 506,836 L 507,837 L 507,838 L 508,839 L 508,840 L 509,841 L 509,842 L 510,843 L 510,844 L 512,846 L 512,847 L 514,849 L 514,850 L 517,853 L 517,854 L 523,860 L 524,860 L 527,863 L 528,863 L 530,865 L 531,865 L 532,866 L 533,866 L 534,867 L 535,867 L 537,869 L 538,869 L 539,870 L 541,870 L 542,871 L 543,871 L 544,872 L 545,872 L 546,873 L 547,873 L 548,874 L 549,874 L 550,875 L 552,875 L 553,876 L 555,876 L 556,877 L 557,877 L 558,878 L 561,878 L 562,879 L 564,879 L 565,880 L 568,880 L 569,881 L 572,881 L 573,882 L 578,882 L 579,883 L 586,883 L 587,884 L 622,884 L 623,883 L 630,883 L 631,882 L 636,882 L 637,881 L 640,881 L 641,880 L 643,880 L 644,879 L 646,879 L 647,878 L 648,878 L 649,877 L 650,877 L 651,876 L 652,876 L 659,869 L 659,868 L 660,867 L 660,866 L 661,865 L 661,864 L 662,863 L 662,860 L 663,859 L 663,848 L 662,847 L 662,845 L 661,844 L 661,842 L 660,841 L 660,840 L 659,839 L 659,838 L 657,836 L 657,835 L 654,832 L 654,831 L 653,830 L 653,829 L 652,828 L 652,827 L 651,826 L 651,824 L 650,823 L 650,821 L 649,820 L 649,818 L 648,817 L 648,815 L 647,814 L 648,813 L 653,813 L 654,812 L 656,812 L 657,811 L 658,811 L 659,810 L 661,810 L 662,809 L 663,809 L 664,808 L 665,808 L 666,807 L 667,807 L 668,806 L 669,806 L 670,807 L 670,810 L 671,811 L 671,814 L 672,815 L 672,817 L 673,818 L 673,819 L 674,820 L 674,822 L 675,823 L 675,824 L 676,825 L 676,826 L 677,827 L 677,828 L 680,831 L 680,832 L 683,835 L 684,835 L 689,840 L 690,840 L 692,842 L 693,842 L 694,843 L 695,843 L 696,844 L 697,844 L 698,845 L 699,845 L 700,846 L 701,846 L 702,847 L 703,847 L 704,848 L 706,848 L 707,849 L 709,849 L 710,850 L 713,850 L 714,851 L 716,851 L 717,852 L 719,852 L 720,853 L 723,853 L 724,854 L 729,854 L 730,855 L 736,855 L 737,856 L 773,856 L 774,855 L 779,855 L 780,854 L 784,854 L 785,853 L 787,853 L 788,852 L 790,852 L 791,851 L 792,851 L 793,850 L 794,850 L 796,848 L 797,848 L 800,845 L 801,845 L 801,844 L 804,841 L 804,840 L 805,839 L 805,838 L 806,837 L 806,836 L 807,835 L 807,821 L 806,820 L 806,817 L 805,816 L 805,814 L 804,813 L 804,812 L 802,810 L 802,809 L 794,801 L 793,801 L 790,798 L 789,798 L 787,796 L 786,796 L 784,794 L 783,794 L 781,792 L 780,792 L 777,789 L 776,789 L 774,787 L 774,786 L 773,785 L 773,784 L 772,783 L 772,782 L 771,781 L 771,780 L 770,779 L 770,777 L 769,776 L 769,773 L 768,772 L 768,753 L 769,752 L 769,747 L 770,746 L 770,745 L 787,728 L 787,727 L 792,722 L 792,721 L 795,718 L 795,717 L 798,714 L 798,713 L 801,710 L 801,709 L 803,707 L 803,706 L 804,705 L 804,704 L 805,703 L 805,702 L 807,700 L 807,699 L 808,698 L 808,697 L 809,696 L 809,695 L 810,694 L 810,693 L 811,692 L 811,691 L 812,690 L 812,689 L 813,688 L 813,687 L 814,686 L 814,684 L 815,683 L 815,682 L 816,681 L 817,682 L 817,687 L 816,688 L 816,692 L 815,693 L 815,698 L 814,699 L 814,701 L 813,702 L 814,702 L 814,701 L 816,699 L 816,698 L 818,696 L 818,695 L 819,694 L 819,693 L 821,691 L 821,690 L 823,688 L 823,687 L 825,685 L 825,684 L 826,683 L 826,682 L 827,681 L 827,680 L 829,678 L 829,677 L 830,676 L 830,675 L 831,674 L 831,673 L 832,672 L 832,671 L 833,670 L 833,668 L 834,667 L 834,666 L 835,665 L 835,663 L 836,662 L 836,660 L 837,659 L 837,658 L 838,657 L 838,655 L 839,654 L 839,652 L 840,651 L 840,649 L 841,648 L 841,646 L 842,645 L 842,641 L 843,640 L 843,637 L 844,636 L 844,633 L 845,632 L 845,627 L 846,626 L 846,621 L 847,620 L 847,612 L 848,611 L 848,563 L 849,562 L 850,563 L 851,563 L 856,568 L 857,568 L 858,569 L 859,569 L 860,570 L 861,570 L 862,571 L 864,571 L 865,572 L 875,572 L 876,571 L 877,571 L 879,569 L 879,568 L 880,567 L 878,567 L 877,568 L 876,568 L 872,564 L 872,563 L 871,562 L 871,561 L 870,560 L 870,559 L 869,558 L 869,556 L 868,555 L 868,553 L 867,552 L 867,549 L 866,548 L 866,531 L 867,530 L 867,525 L 868,524 L 868,521 L 869,520 L 869,517 L 870,516 L 871,517 L 871,520 L 872,521 L 872,525 L 873,526 L 873,528 L 874,529 L 874,530 L 875,531 L 875,532 L 877,534 L 877,535 L 880,538 L 881,538 L 883,540 L 884,540 L 886,542 L 888,542 L 889,543 L 892,543 L 893,544 L 895,544 L 896,545 L 893,542 L 893,541 L 891,539 L 891,537 L 890,536 L 890,534 L 889,533 L 889,528 L 888,527 L 888,516 L 889,515 L 889,508 L 890,507 L 890,503 L 891,502 L 891,499 L 892,498 L 892,495 L 893,494 L 893,493 L 894,492 L 894,490 L 895,489 L 895,487 L 896,486 L 896,485 L 897,484 L 897,483 L 898,482 L 898,481 L 899,480 L 899,479 L 900,478 L 900,477 L 901,476 L 901,475 L 902,474 L 902,473 L 903,472 L 903,471 L 904,470 L 904,469 L 905,468 L 905,466 L 906,465 L 906,464 L 907,463 L 907,461 L 908,460 L 908,459 L 909,458 L 909,456 L 910,455 L 910,453 L 911,452 L 911,450 L 912,449 L 912,447 L 913,446 L 913,443 L 914,442 L 914,438 L 915,437 L 915,430 L 916,429 L 916,397 L 915,396 L 915,388 L 914,387 L 914,382 L 913,381 L 913,377 L 912,376 L 912,371 L 911,370 L 911,366 L 910,365 L 910,362 L 909,361 L 909,358 L 908,357 L 908,353 L 907,352 L 907,348 L 906,347 L 906,343 L 905,342 L 905,337 L 904,336 L 904,331 L 903,330 L 903,325 L 902,324 L 902,318 L 901,317 L 901,310 L 900,309 L 900,302 L 899,301 L 899,295 L 898,294 L 898,288 L 897,287 L 897,283 L 896,282 L 896,277 L 895,276 L 895,273 L 894,272 L 894,269 L 893,268 L 893,264 L 892,263 L 892,261 L 891,260 L 891,258 L 890,257 L 890,254 L 889,253 L 889,250 L 888,249 L 888,247 L 887,246 L 887,244 L 886,243 L 886,241 L 885,240 L 885,239 L 884,238 L 884,236 L 883,235 L 883,234 L 882,233 L 882,231 L 881,230 L 881,229 L 880,228 L 880,227 L 879,226 L 879,225 L 878,224 L 878,223 L 877,222 L 877,221 L 876,220 L 876,219 L 875,218 L 875,217 L 873,215 L 873,214 L 872,213 L 872,212 L 870,210 L 870,209 L 868,207 L 868,206 L 865,203 L 865,202 L 862,199 L 862,198 L 858,194 L 858,193 L 854,189 L 854,188 L 845,179 L 844,179 L 840,175 L 839,175 L 836,172 L 835,172 L 833,170 L 832,170 L 830,168 L 829,168 L 828,167 L 827,167 L 825,165 L 824,165 L 823,164 L 822,164 L 821,163 L 820,163 L 819,162 L 818,162 L 817,161 L 816,161 L 815,160 L 814,160 L 813,159 L 812,159 L 811,158 L 810,158 L 809,157 L 807,157 L 806,156 L 804,156 L 803,155 L 802,155 L 801,154 L 798,154 L 797,153 L 795,153 L 794,152 L 792,152 L 791,151 L 788,151 L 787,150 L 782,150 L 781,149 L 754,149 L 753,150 L 746,150 L 745,151 L 738,151 L 737,150 L 731,150 L 730,149 L 723,149 L 722,148 L 702,148 Z" fill="black" /></svg>