<?xml version="1.0" encoding="utf-8" ?>
<svg baseProfile="full" height="1024" version="1.1" width="1024" xmlns="http://www.w3.org/2000/svg" xmlns:ev="http://www.w3.org/2001/xml-events" xmlns:xlink="http://www.w3.org/1999/xlink"><defs /><path d="M 541,676 L 541,677 L 540,678 L 540,680 L 539,681 L 539,683 L 538,684 L 538,685 L 537,686 L 537,688 L 536,689 L 536,691 L 535,692 L 535,693 L 534,694 L 534,696 L 533,697 L 533,698 L 532,699 L 532,701 L 531,702 L 531,703 L 530,704 L 530,705 L 529,706 L 529,708 L 528,709 L 528,710 L 527,711 L 527,712 L 526,713 L 526,715 L 525,716 L 525,717 L 524,718 L 524,719 L 523,720 L 523,722 L 522,723 L 522,724 L 521,725 L 521,726 L 520,727 L 520,729 L 519,730 L 519,732 L 518,733 L 518,735 L 517,736 L 517,738 L 516,739 L 516,743 L 515,744 L 515,747 L 514,748 L 514,752 L 513,753 L 513,758 L 512,759 L 512,766 L 511,767 L 511,795 L 512,796 L 512,801 L 513,802 L 513,805 L 514,806 L 514,809 L 515,810 L 515,812 L 516,813 L 516,815 L 517,816 L 517,818 L 518,819 L 518,821 L 519,822 L 519,823 L 520,824 L 520,826 L 521,827 L 521,828 L 522,829 L 522,830 L 523,831 L 523,832 L 524,833 L 524,834 L 525,835 L 525,836 L 526,837 L 526,839 L 527,840 L 527,838 L 526,837 L 526,834 L 525,833 L 525,830 L 524,829 L 524,823 L 523,822 L 523,816 L 522,815 L 522,805 L 521,804 L 521,776 L 522,775 L 522,760 L 523,759 L 523,750 L 524,749 L 524,744 L 525,743 L 525,739 L 526,738 L 526,734 L 527,733 L 527,729 L 528,728 L 528,725 L 529,724 L 529,721 L 530,720 L 530,717 L 531,716 L 531,714 L 532,713 L 532,710 L 533,709 L 533,706 L 534,705 L 534,702 L 535,701 L 535,699 L 536,698 L 536,695 L 537,694 L 537,690 L 538,689 L 538,686 L 539,685 L 539,683 L 540,682 L 540,679 L 541,678 Z" fill="black" /><path d="M 569,652 L 568,653 L 568,654 L 566,656 L 566,657 L 565,658 L 565,659 L 563,661 L 563,662 L 562,663 L 562,664 L 561,665 L 561,666 L 560,667 L 560,668 L 559,669 L 559,670 L 558,671 L 558,673 L 557,674 L 557,676 L 556,677 L 556,679 L 555,680 L 555,683 L 554,684 L 554,687 L 553,688 L 553,690 L 552,691 L 552,694 L 551,695 L 551,698 L 550,699 L 550,702 L 549,703 L 549,707 L 548,708 L 548,712 L 547,713 L 547,717 L 546,718 L 546,723 L 545,724 L 545,731 L 544,732 L 544,770 L 545,771 L 545,778 L 546,779 L 546,783 L 547,784 L 547,788 L 548,789 L 548,793 L 549,794 L 549,797 L 550,798 L 550,802 L 551,803 L 551,806 L 552,807 L 552,811 L 553,812 L 553,814 L 553,784 L 552,783 L 552,759 L 553,758 L 553,743 L 554,742 L 554,729 L 555,728 L 555,718 L 556,717 L 556,710 L 557,709 L 557,703 L 558,702 L 558,697 L 559,696 L 559,690 L 560,689 L 560,686 L 561,685 L 561,680 L 562,679 L 562,675 L 563,674 L 563,671 L 564,670 L 564,667 L 565,666 L 565,663 L 566,662 L 566,660 L 567,659 L 567,658 L 568,657 L 568,654 L 569,653 Z" fill="black" /><path d="M 606,522 L 606,524 L 607,525 L 607,528 L 608,529 L 608,530 L 609,531 L 609,532 L 610,533 L 610,535 L 611,536 L 611,537 L 612,538 L 612,541 L 613,542 L 613,544 L 614,545 L 614,548 L 615,549 L 615,551 L 616,552 L 616,555 L 617,556 L 617,558 L 618,559 L 618,561 L 619,562 L 619,565 L 620,566 L 620,570 L 621,571 L 621,574 L 622,575 L 622,579 L 623,580 L 623,583 L 624,584 L 624,588 L 625,589 L 625,594 L 626,595 L 626,602 L 627,603 L 627,633 L 626,634 L 626,642 L 625,643 L 625,652 L 624,653 L 624,658 L 623,659 L 623,662 L 622,663 L 622,664 L 621,665 L 621,667 L 619,669 L 619,670 L 620,669 L 621,669 L 622,668 L 622,667 L 623,666 L 623,664 L 624,663 L 624,660 L 625,659 L 625,657 L 626,656 L 626,655 L 627,654 L 627,653 L 628,652 L 628,651 L 629,650 L 629,648 L 630,647 L 630,645 L 631,644 L 631,642 L 632,641 L 632,638 L 633,637 L 633,634 L 634,633 L 634,629 L 635,628 L 635,622 L 636,621 L 636,591 L 635,590 L 635,584 L 634,583 L 634,579 L 633,578 L 633,575 L 632,574 L 632,571 L 631,570 L 631,569 L 630,568 L 630,566 L 629,565 L 629,563 L 628,562 L 628,561 L 627,560 L 627,558 L 626,557 L 626,556 L 625,555 L 625,554 L 624,553 L 624,552 L 623,551 L 623,550 L 622,549 L 622,548 L 621,547 L 621,546 L 619,544 L 619,543 L 618,542 L 618,541 L 616,539 L 616,538 L 615,537 L 615,536 L 614,535 L 614,534 L 612,532 L 612,531 L 611,530 L 611,529 L 609,527 L 609,526 L 607,524 L 607,523 Z" fill="black" /><path d="M 566,438 L 566,446 L 567,447 L 567,450 L 568,451 L 568,453 L 569,454 L 569,459 L 570,460 L 570,463 L 571,464 L 571,467 L 572,468 L 572,471 L 573,472 L 573,474 L 574,475 L 574,478 L 575,479 L 575,481 L 576,482 L 576,484 L 577,485 L 577,487 L 578,488 L 578,489 L 579,490 L 579,492 L 580,493 L 580,494 L 581,495 L 581,496 L 582,497 L 582,498 L 583,499 L 583,500 L 584,501 L 584,502 L 585,503 L 585,504 L 586,505 L 586,506 L 587,507 L 587,508 L 588,509 L 588,510 L 589,511 L 589,512 L 590,513 L 590,514 L 591,515 L 591,516 L 592,517 L 592,518 L 593,519 L 593,518 L 592,517 L 592,516 L 591,515 L 591,513 L 590,512 L 590,510 L 589,509 L 589,506 L 588,505 L 588,502 L 587,501 L 587,499 L 586,498 L 586,495 L 585,494 L 585,492 L 584,491 L 584,490 L 583,489 L 583,487 L 582,486 L 582,484 L 581,483 L 581,482 L 580,481 L 580,479 L 579,478 L 579,477 L 578,476 L 578,474 L 577,473 L 577,471 L 576,470 L 576,468 L 575,467 L 575,466 L 574,465 L 574,462 L 573,461 L 573,459 L 572,458 L 572,455 L 571,454 L 571,451 L 570,450 L 570,447 L 569,446 L 569,445 L 567,443 L 567,439 Z" fill="black" /><path d="M 651,400 L 651,408 L 650,409 L 650,417 L 649,418 L 649,437 L 650,438 L 650,449 L 651,450 L 651,454 L 652,455 L 652,459 L 653,460 L 653,465 L 654,466 L 654,469 L 655,470 L 655,474 L 656,475 L 656,477 L 657,478 L 657,480 L 658,481 L 658,483 L 659,484 L 659,486 L 660,487 L 660,489 L 661,490 L 661,492 L 662,493 L 662,495 L 663,496 L 663,499 L 664,500 L 664,501 L 665,502 L 665,505 L 666,506 L 666,508 L 667,509 L 667,511 L 668,512 L 668,514 L 669,515 L 669,518 L 670,519 L 670,520 L 671,521 L 671,523 L 672,524 L 672,526 L 673,527 L 673,530 L 674,531 L 674,535 L 675,536 L 675,540 L 676,541 L 676,548 L 677,549 L 677,559 L 676,560 L 676,563 L 677,563 L 677,559 L 678,558 L 678,552 L 679,551 L 679,547 L 680,546 L 680,536 L 681,535 L 681,534 L 680,533 L 680,518 L 679,517 L 679,513 L 678,512 L 678,508 L 677,507 L 677,504 L 676,503 L 676,502 L 675,501 L 675,499 L 674,498 L 674,496 L 673,495 L 673,493 L 672,492 L 672,490 L 671,489 L 671,487 L 670,486 L 670,485 L 669,484 L 669,482 L 668,481 L 668,479 L 667,478 L 667,477 L 666,476 L 666,474 L 665,473 L 665,471 L 664,470 L 664,469 L 663,468 L 663,466 L 662,465 L 662,463 L 661,462 L 661,460 L 660,459 L 660,456 L 659,455 L 659,453 L 658,452 L 658,450 L 657,449 L 657,447 L 656,446 L 656,442 L 655,441 L 655,438 L 654,437 L 654,433 L 653,432 L 653,428 L 652,427 L 652,408 L 651,407 L 651,405 L 652,404 L 652,400 Z" fill="black" /><path d="M 717,329 L 716,330 L 712,330 L 711,331 L 709,331 L 708,332 L 705,332 L 704,333 L 703,333 L 702,334 L 700,334 L 699,335 L 698,335 L 697,336 L 696,336 L 695,337 L 694,337 L 692,339 L 691,339 L 686,344 L 685,344 L 685,345 L 680,350 L 680,351 L 678,353 L 678,354 L 676,356 L 676,357 L 674,359 L 674,361 L 673,362 L 673,363 L 672,364 L 672,365 L 671,366 L 671,367 L 670,368 L 670,370 L 669,371 L 669,372 L 668,373 L 668,375 L 667,376 L 667,379 L 666,380 L 666,382 L 665,383 L 665,388 L 664,389 L 664,396 L 663,397 L 663,425 L 664,425 L 664,414 L 665,413 L 665,407 L 666,406 L 666,402 L 667,401 L 667,397 L 668,396 L 668,393 L 669,392 L 669,389 L 670,388 L 670,386 L 671,385 L 671,383 L 672,382 L 672,380 L 673,379 L 673,377 L 674,376 L 674,375 L 675,374 L 675,373 L 676,372 L 676,371 L 678,369 L 678,368 L 679,367 L 679,366 L 680,365 L 680,364 L 682,362 L 682,361 L 683,360 L 683,359 L 686,356 L 686,355 L 699,342 L 700,342 L 702,340 L 703,340 L 704,339 L 705,339 L 707,337 L 708,337 L 710,335 L 711,335 L 712,334 L 713,334 L 716,331 L 717,331 L 718,330 L 719,330 L 720,329 Z" fill="black" /><path d="M 595,322 L 595,324 L 594,325 L 594,328 L 593,329 L 593,331 L 592,332 L 592,334 L 591,335 L 591,338 L 590,339 L 590,342 L 589,343 L 589,345 L 588,346 L 588,349 L 587,350 L 587,354 L 586,355 L 586,359 L 585,360 L 585,365 L 584,366 L 584,373 L 583,374 L 583,388 L 582,389 L 582,411 L 583,412 L 583,423 L 584,424 L 584,432 L 585,433 L 585,437 L 586,438 L 586,442 L 587,443 L 587,446 L 588,447 L 588,450 L 589,451 L 589,453 L 590,454 L 590,457 L 591,458 L 591,460 L 592,461 L 592,462 L 593,463 L 593,465 L 594,466 L 594,467 L 595,468 L 595,470 L 596,471 L 596,472 L 597,473 L 597,474 L 598,475 L 598,476 L 599,477 L 599,478 L 600,479 L 600,480 L 601,481 L 601,483 L 603,485 L 603,486 L 604,487 L 604,488 L 605,489 L 605,490 L 607,492 L 607,493 L 608,494 L 608,495 L 609,496 L 609,497 L 610,498 L 610,499 L 611,500 L 611,501 L 613,503 L 613,504 L 614,505 L 614,506 L 615,507 L 615,508 L 616,509 L 616,510 L 617,511 L 617,512 L 618,513 L 618,514 L 619,515 L 619,514 L 618,513 L 618,511 L 617,510 L 617,509 L 616,508 L 616,505 L 615,504 L 615,502 L 614,501 L 614,499 L 613,498 L 613,494 L 612,493 L 612,491 L 611,490 L 611,487 L 610,486 L 610,484 L 609,483 L 609,481 L 608,480 L 608,477 L 607,476 L 607,474 L 606,473 L 606,471 L 605,470 L 605,468 L 604,467 L 604,465 L 603,464 L 603,461 L 602,460 L 602,458 L 601,457 L 601,455 L 600,454 L 600,452 L 599,451 L 599,447 L 598,446 L 598,444 L 597,443 L 597,439 L 596,438 L 596,434 L 595,433 L 595,429 L 594,428 L 594,424 L 593,423 L 593,418 L 592,417 L 592,411 L 591,410 L 591,401 L 590,400 L 590,358 L 591,357 L 591,348 L 592,347 L 592,341 L 593,340 L 593,334 L 594,333 L 594,328 L 595,327 Z" fill="black" /><path d="M 697,303 L 696,304 L 690,304 L 689,305 L 687,305 L 686,306 L 684,306 L 683,307 L 681,307 L 680,308 L 678,308 L 677,309 L 676,309 L 675,310 L 674,310 L 673,311 L 672,311 L 670,313 L 669,313 L 667,315 L 666,315 L 664,317 L 663,317 L 654,326 L 654,327 L 650,331 L 650,332 L 648,334 L 648,335 L 646,337 L 646,338 L 644,340 L 644,341 L 642,343 L 642,344 L 641,345 L 641,346 L 640,347 L 640,348 L 639,349 L 639,350 L 637,352 L 637,353 L 636,354 L 636,355 L 635,356 L 635,358 L 634,359 L 634,360 L 633,361 L 633,362 L 632,363 L 632,365 L 631,366 L 631,368 L 630,369 L 630,370 L 629,371 L 629,374 L 628,375 L 628,377 L 627,378 L 627,381 L 626,382 L 626,385 L 625,386 L 625,390 L 624,391 L 624,395 L 623,396 L 623,410 L 622,411 L 622,413 L 621,414 L 620,413 L 620,408 L 619,407 L 619,399 L 618,398 L 618,385 L 617,384 L 617,383 L 618,382 L 618,367 L 619,366 L 619,361 L 620,360 L 620,355 L 621,354 L 621,351 L 622,350 L 622,347 L 623,346 L 623,344 L 624,343 L 624,342 L 623,343 L 623,344 L 622,345 L 622,346 L 621,347 L 621,348 L 620,349 L 620,350 L 618,352 L 618,354 L 617,355 L 617,356 L 616,357 L 616,358 L 615,359 L 615,362 L 614,363 L 614,365 L 613,366 L 613,368 L 612,369 L 612,372 L 611,373 L 611,378 L 610,379 L 610,385 L 609,386 L 609,414 L 610,415 L 610,422 L 611,423 L 611,427 L 612,428 L 612,432 L 613,433 L 613,437 L 614,438 L 614,441 L 615,442 L 615,444 L 616,445 L 616,448 L 617,449 L 617,451 L 618,452 L 618,453 L 619,454 L 619,456 L 620,457 L 620,459 L 621,460 L 621,461 L 622,462 L 622,464 L 623,465 L 623,466 L 624,467 L 624,468 L 625,469 L 625,470 L 626,471 L 626,472 L 627,473 L 627,474 L 628,475 L 628,476 L 629,477 L 629,478 L 630,479 L 630,480 L 631,481 L 631,482 L 632,483 L 632,484 L 633,485 L 633,486 L 634,487 L 634,488 L 635,489 L 635,490 L 636,491 L 636,492 L 638,494 L 638,495 L 639,496 L 639,497 L 640,498 L 640,499 L 641,500 L 641,501 L 642,502 L 642,503 L 643,504 L 643,506 L 644,507 L 644,508 L 645,509 L 645,510 L 646,511 L 646,513 L 647,514 L 647,516 L 648,517 L 648,518 L 649,519 L 649,521 L 650,522 L 650,524 L 651,525 L 651,529 L 652,530 L 652,534 L 653,535 L 653,538 L 654,539 L 654,551 L 655,552 L 655,559 L 654,560 L 654,568 L 654,567 L 655,566 L 655,563 L 656,562 L 656,561 L 657,560 L 657,559 L 658,558 L 658,557 L 659,556 L 659,554 L 660,553 L 660,545 L 661,544 L 661,518 L 660,517 L 660,514 L 659,513 L 659,510 L 658,509 L 658,507 L 657,506 L 657,504 L 656,503 L 656,501 L 655,500 L 655,499 L 654,498 L 654,497 L 653,496 L 653,494 L 652,493 L 652,492 L 651,491 L 651,490 L 650,489 L 650,487 L 649,486 L 649,485 L 648,484 L 648,482 L 647,481 L 647,480 L 646,479 L 646,477 L 645,476 L 645,474 L 644,473 L 644,471 L 643,470 L 643,468 L 642,467 L 642,465 L 641,464 L 641,461 L 640,460 L 640,458 L 639,457 L 639,454 L 638,453 L 638,450 L 637,449 L 637,444 L 636,443 L 636,434 L 635,433 L 635,419 L 636,418 L 636,407 L 637,406 L 637,400 L 638,399 L 638,394 L 639,393 L 639,390 L 640,389 L 640,386 L 641,385 L 641,382 L 642,381 L 642,379 L 643,378 L 643,376 L 644,375 L 644,373 L 645,372 L 645,370 L 646,369 L 646,367 L 647,366 L 647,365 L 648,364 L 648,362 L 649,361 L 649,360 L 650,359 L 650,358 L 651,357 L 651,356 L 652,355 L 652,354 L 653,353 L 653,352 L 654,351 L 654,350 L 656,348 L 656,347 L 658,345 L 658,344 L 659,343 L 659,342 L 661,340 L 661,339 L 666,334 L 666,333 L 674,325 L 675,325 L 681,319 L 682,319 L 686,315 L 687,315 L 689,313 L 690,313 L 691,312 L 692,312 L 693,311 L 694,311 L 695,310 L 696,310 L 697,309 L 698,309 L 699,308 L 700,308 L 701,307 L 703,307 L 704,306 L 705,306 L 706,305 L 710,305 L 711,304 L 705,304 L 704,303 Z" fill="black" /><path d="M 631,236 L 630,237 L 627,237 L 626,238 L 623,238 L 622,239 L 621,239 L 622,240 L 623,239 L 632,239 L 633,240 L 636,240 L 637,241 L 639,241 L 640,242 L 642,242 L 643,243 L 645,243 L 646,244 L 648,244 L 649,245 L 650,245 L 651,246 L 652,246 L 653,247 L 654,247 L 655,248 L 656,248 L 657,249 L 658,249 L 667,258 L 667,259 L 668,260 L 668,261 L 669,262 L 668,263 L 667,263 L 666,262 L 665,262 L 664,261 L 663,261 L 661,259 L 659,259 L 658,258 L 657,258 L 656,257 L 655,257 L 654,256 L 651,256 L 650,255 L 648,255 L 650,257 L 651,257 L 655,261 L 654,262 L 652,262 L 651,261 L 642,261 L 641,262 L 636,262 L 635,263 L 633,263 L 632,264 L 631,264 L 630,265 L 629,265 L 628,266 L 626,266 L 624,268 L 623,268 L 621,270 L 620,270 L 615,275 L 615,277 L 614,278 L 615,278 L 620,273 L 621,273 L 624,270 L 625,270 L 626,269 L 627,269 L 628,268 L 631,268 L 632,267 L 638,267 L 639,268 L 638,269 L 637,269 L 634,272 L 634,273 L 630,277 L 630,278 L 628,280 L 628,281 L 627,282 L 627,283 L 625,285 L 625,286 L 624,287 L 624,288 L 623,289 L 623,290 L 622,291 L 622,292 L 621,293 L 621,294 L 620,295 L 620,296 L 619,297 L 619,298 L 618,299 L 618,300 L 617,301 L 617,303 L 616,304 L 616,305 L 615,306 L 615,308 L 614,309 L 614,311 L 613,312 L 613,314 L 612,315 L 612,317 L 611,318 L 611,321 L 610,322 L 610,327 L 609,328 L 609,331 L 608,332 L 608,333 L 610,331 L 610,330 L 612,328 L 612,327 L 614,325 L 614,324 L 615,323 L 615,322 L 616,321 L 616,320 L 618,318 L 618,317 L 620,315 L 620,314 L 622,312 L 622,311 L 630,303 L 630,302 L 631,301 L 634,304 L 634,305 L 640,311 L 641,311 L 642,312 L 643,312 L 644,313 L 645,313 L 646,314 L 656,314 L 657,313 L 659,313 L 660,312 L 661,312 L 662,311 L 663,311 L 665,309 L 666,309 L 667,308 L 668,308 L 671,305 L 672,305 L 676,301 L 676,300 L 677,299 L 677,298 L 679,296 L 679,295 L 683,291 L 683,290 L 685,288 L 685,287 L 686,286 L 686,285 L 687,284 L 687,281 L 689,279 L 689,277 L 689,278 L 688,279 L 688,280 L 686,282 L 686,283 L 685,284 L 685,285 L 683,287 L 682,286 L 682,284 L 683,283 L 683,272 L 682,271 L 682,268 L 681,267 L 681,265 L 680,264 L 680,262 L 679,261 L 679,260 L 678,259 L 678,258 L 676,256 L 676,255 L 674,253 L 674,252 L 667,245 L 666,245 L 664,243 L 663,243 L 662,242 L 660,242 L 659,241 L 658,241 L 657,240 L 655,240 L 654,239 L 652,239 L 651,238 L 649,238 L 648,237 L 645,237 L 644,236 Z" fill="black" /><path d="M 713,221 L 713,222 L 715,224 L 715,225 L 716,226 L 716,228 L 717,229 L 717,231 L 718,232 L 718,233 L 719,234 L 719,235 L 720,236 L 720,238 L 721,239 L 721,241 L 722,242 L 722,244 L 723,245 L 723,249 L 724,250 L 724,254 L 725,255 L 725,271 L 724,272 L 724,274 L 726,272 L 726,271 L 727,270 L 727,266 L 728,265 L 728,256 L 727,255 L 727,250 L 726,249 L 726,246 L 725,245 L 725,243 L 724,242 L 724,240 L 723,239 L 723,238 L 722,237 L 722,235 L 720,233 L 720,232 L 719,231 L 719,230 L 718,229 L 718,228 L 717,227 L 717,226 L 715,224 L 715,223 Z" fill="black" /><path d="M 608,218 L 607,219 L 605,219 L 604,220 L 602,220 L 601,221 L 599,221 L 598,222 L 597,222 L 595,224 L 594,224 L 592,226 L 591,226 L 585,232 L 585,233 L 581,237 L 581,238 L 579,240 L 579,241 L 578,242 L 578,243 L 577,244 L 577,245 L 576,246 L 576,247 L 575,248 L 575,249 L 574,250 L 574,252 L 573,253 L 573,254 L 572,255 L 572,257 L 571,258 L 571,259 L 570,260 L 570,262 L 569,263 L 569,264 L 568,265 L 568,267 L 567,268 L 567,270 L 566,271 L 566,274 L 565,275 L 565,277 L 564,278 L 564,281 L 563,282 L 563,286 L 562,287 L 562,293 L 561,294 L 561,300 L 560,301 L 560,335 L 559,336 L 560,337 L 560,361 L 561,362 L 561,377 L 562,378 L 562,386 L 563,387 L 563,396 L 564,397 L 564,398 L 564,386 L 565,385 L 565,378 L 566,377 L 566,372 L 567,371 L 567,364 L 568,363 L 568,358 L 569,357 L 569,351 L 570,350 L 570,346 L 571,345 L 571,342 L 572,341 L 572,337 L 573,336 L 573,333 L 574,332 L 574,329 L 575,328 L 575,325 L 576,324 L 576,321 L 577,320 L 577,318 L 578,317 L 578,314 L 579,313 L 579,311 L 580,310 L 580,307 L 581,306 L 581,303 L 582,302 L 582,300 L 583,299 L 583,296 L 584,295 L 584,292 L 585,291 L 585,289 L 586,288 L 586,285 L 587,284 L 587,282 L 588,281 L 588,279 L 589,278 L 589,276 L 590,275 L 590,273 L 591,272 L 591,270 L 592,269 L 591,269 L 591,270 L 589,272 L 589,273 L 587,275 L 587,276 L 586,277 L 586,278 L 585,279 L 585,280 L 584,281 L 584,282 L 583,283 L 583,284 L 582,285 L 582,286 L 581,287 L 581,288 L 580,289 L 580,290 L 579,291 L 579,292 L 578,293 L 578,294 L 577,295 L 577,297 L 576,298 L 576,299 L 575,300 L 575,301 L 574,302 L 574,304 L 573,305 L 573,306 L 572,307 L 572,309 L 571,310 L 570,309 L 570,305 L 571,304 L 571,296 L 572,295 L 572,289 L 573,288 L 573,282 L 574,281 L 574,276 L 575,275 L 575,273 L 576,272 L 576,270 L 577,269 L 577,267 L 578,266 L 578,264 L 579,263 L 579,262 L 580,261 L 580,260 L 581,259 L 581,258 L 582,257 L 582,255 L 584,253 L 584,252 L 585,251 L 585,250 L 586,249 L 586,248 L 587,247 L 587,246 L 588,245 L 588,244 L 590,242 L 590,241 L 591,240 L 591,239 L 595,235 L 595,234 L 597,232 L 597,231 L 600,228 L 600,227 L 605,222 L 606,222 L 608,220 L 609,220 L 610,219 L 612,219 L 613,218 Z" fill="black" /><path d="M 685,213 L 685,214 L 687,216 L 687,218 L 688,219 L 688,220 L 689,221 L 689,222 L 690,223 L 690,224 L 691,225 L 691,226 L 692,227 L 692,229 L 693,230 L 693,232 L 694,233 L 694,236 L 695,237 L 695,239 L 696,240 L 696,244 L 697,245 L 697,263 L 696,264 L 697,264 L 697,263 L 698,262 L 698,259 L 699,258 L 699,254 L 700,253 L 700,250 L 699,249 L 700,248 L 699,247 L 699,241 L 698,240 L 698,236 L 697,235 L 697,234 L 696,233 L 696,231 L 695,230 L 695,228 L 694,227 L 694,225 L 692,223 L 692,222 L 690,220 L 690,219 L 689,218 L 689,217 L 687,215 L 687,214 L 686,214 Z" fill="black" /><path d="M 778,76 L 777,77 L 775,77 L 774,78 L 771,78 L 770,79 L 768,79 L 767,80 L 765,80 L 764,81 L 763,81 L 762,82 L 760,82 L 759,83 L 758,83 L 757,84 L 756,84 L 754,86 L 753,86 L 752,87 L 751,87 L 750,88 L 749,88 L 747,90 L 746,90 L 744,92 L 743,92 L 741,94 L 740,94 L 738,96 L 737,96 L 732,101 L 731,101 L 718,114 L 718,115 L 712,121 L 712,122 L 710,124 L 710,125 L 708,127 L 708,128 L 707,129 L 707,130 L 705,132 L 703,132 L 702,133 L 700,133 L 699,134 L 698,134 L 695,137 L 694,137 L 693,138 L 693,139 L 692,140 L 691,140 L 690,139 L 690,137 L 691,136 L 691,131 L 692,130 L 692,124 L 693,123 L 693,112 L 692,111 L 692,104 L 691,103 L 691,101 L 690,100 L 690,98 L 689,97 L 689,96 L 688,95 L 688,94 L 686,92 L 686,91 L 684,89 L 684,88 L 681,85 L 681,84 L 680,83 L 680,82 L 679,81 L 678,81 L 679,82 L 679,84 L 680,85 L 680,87 L 681,88 L 681,90 L 682,91 L 682,93 L 683,94 L 683,97 L 684,98 L 684,104 L 685,105 L 685,116 L 684,117 L 684,124 L 683,125 L 683,127 L 682,128 L 682,129 L 681,130 L 681,131 L 680,132 L 680,133 L 679,134 L 679,135 L 678,136 L 678,137 L 677,138 L 676,137 L 676,130 L 675,129 L 675,126 L 674,125 L 674,122 L 673,121 L 673,119 L 672,118 L 672,116 L 671,115 L 671,113 L 670,112 L 670,110 L 669,109 L 669,108 L 668,107 L 668,106 L 667,105 L 667,104 L 666,103 L 666,102 L 665,101 L 665,100 L 663,98 L 663,97 L 660,94 L 660,93 L 657,90 L 655,90 L 655,91 L 658,94 L 658,95 L 660,97 L 660,98 L 661,99 L 661,100 L 662,101 L 662,103 L 663,104 L 663,106 L 664,107 L 664,110 L 665,111 L 665,113 L 666,114 L 666,118 L 667,119 L 667,123 L 668,124 L 668,142 L 667,143 L 666,142 L 666,140 L 665,139 L 665,134 L 664,133 L 664,129 L 663,128 L 663,126 L 662,125 L 662,123 L 661,122 L 661,120 L 660,119 L 660,118 L 659,117 L 659,116 L 657,114 L 657,113 L 656,112 L 656,111 L 653,108 L 653,107 L 649,103 L 649,102 L 644,97 L 643,97 L 638,92 L 637,92 L 636,91 L 635,91 L 634,90 L 633,90 L 632,89 L 630,89 L 629,88 L 628,88 L 628,89 L 629,89 L 640,100 L 640,101 L 643,104 L 643,105 L 645,107 L 645,108 L 646,109 L 646,110 L 647,111 L 647,112 L 649,114 L 649,115 L 650,116 L 650,117 L 651,118 L 651,120 L 653,122 L 653,123 L 652,124 L 647,119 L 646,119 L 644,117 L 643,117 L 642,116 L 641,116 L 639,114 L 638,114 L 637,113 L 636,113 L 635,112 L 634,112 L 633,111 L 632,111 L 631,110 L 629,110 L 628,109 L 625,109 L 624,108 L 617,108 L 616,107 L 615,108 L 608,108 L 607,109 L 606,109 L 605,110 L 603,110 L 602,111 L 601,111 L 600,112 L 599,112 L 596,115 L 595,115 L 593,117 L 592,117 L 595,117 L 596,116 L 602,116 L 603,115 L 619,115 L 620,116 L 622,116 L 623,117 L 625,117 L 627,119 L 628,119 L 639,130 L 639,131 L 642,134 L 642,135 L 643,136 L 643,137 L 644,138 L 644,139 L 645,140 L 645,141 L 646,142 L 645,143 L 644,143 L 643,142 L 624,142 L 624,145 L 623,146 L 623,149 L 622,150 L 622,153 L 621,154 L 621,159 L 620,160 L 620,166 L 618,168 L 617,168 L 610,161 L 610,160 L 607,157 L 607,156 L 605,154 L 605,153 L 602,150 L 602,149 L 600,147 L 600,146 L 595,141 L 595,140 L 579,124 L 578,124 L 573,119 L 572,119 L 568,115 L 567,115 L 565,113 L 564,113 L 562,111 L 561,111 L 559,109 L 558,109 L 556,107 L 555,107 L 553,105 L 552,105 L 551,104 L 550,104 L 549,103 L 548,103 L 547,102 L 546,102 L 545,101 L 544,101 L 543,100 L 542,100 L 541,99 L 540,99 L 539,98 L 537,98 L 536,97 L 535,97 L 534,96 L 532,96 L 531,95 L 529,95 L 528,94 L 526,94 L 525,93 L 523,93 L 522,92 L 520,92 L 519,91 L 517,91 L 516,90 L 511,90 L 510,89 L 503,89 L 502,88 L 496,88 L 495,87 L 491,87 L 491,88 L 492,89 L 492,93 L 491,94 L 491,104 L 490,105 L 490,116 L 489,117 L 489,126 L 488,127 L 488,137 L 487,138 L 487,182 L 486,183 L 486,184 L 485,185 L 485,186 L 483,188 L 483,189 L 482,190 L 482,191 L 481,192 L 481,193 L 480,194 L 480,195 L 479,196 L 479,197 L 478,198 L 478,199 L 477,200 L 477,201 L 476,202 L 476,203 L 475,204 L 475,205 L 474,206 L 474,207 L 473,208 L 473,209 L 472,210 L 472,211 L 471,212 L 471,214 L 470,215 L 470,217 L 469,218 L 469,221 L 468,222 L 468,225 L 467,226 L 467,233 L 466,234 L 466,240 L 466,239 L 467,238 L 467,237 L 468,236 L 468,235 L 470,233 L 470,232 L 471,231 L 471,230 L 473,228 L 473,227 L 476,224 L 476,223 L 483,216 L 484,216 L 485,217 L 484,218 L 484,219 L 483,220 L 483,221 L 481,223 L 481,224 L 480,225 L 480,226 L 479,227 L 479,228 L 477,230 L 477,231 L 476,232 L 476,233 L 475,234 L 475,235 L 473,237 L 473,238 L 472,239 L 472,240 L 471,241 L 471,243 L 470,244 L 470,246 L 469,247 L 469,249 L 468,250 L 468,252 L 467,253 L 467,256 L 466,257 L 466,261 L 465,262 L 465,270 L 464,271 L 464,296 L 465,297 L 465,304 L 466,305 L 466,311 L 467,312 L 467,316 L 468,317 L 468,322 L 469,323 L 469,329 L 470,330 L 470,337 L 471,338 L 471,364 L 470,365 L 470,369 L 469,370 L 469,372 L 468,373 L 468,375 L 467,376 L 467,378 L 466,379 L 466,380 L 467,380 L 468,379 L 468,378 L 471,375 L 472,375 L 475,372 L 475,371 L 479,367 L 480,368 L 480,370 L 481,371 L 481,375 L 482,376 L 482,379 L 483,380 L 483,383 L 484,384 L 484,387 L 485,388 L 485,390 L 486,391 L 486,393 L 487,394 L 487,396 L 488,397 L 488,398 L 489,399 L 489,401 L 490,402 L 490,404 L 491,405 L 491,408 L 492,409 L 492,413 L 493,414 L 493,418 L 492,419 L 492,422 L 490,424 L 490,425 L 484,431 L 483,431 L 481,433 L 480,433 L 479,434 L 477,434 L 476,435 L 475,435 L 474,436 L 471,436 L 470,437 L 467,437 L 466,438 L 464,438 L 463,439 L 460,439 L 459,440 L 456,440 L 455,441 L 450,441 L 449,442 L 442,442 L 441,443 L 415,443 L 414,444 L 409,444 L 408,443 L 380,443 L 379,442 L 368,442 L 367,441 L 353,441 L 352,440 L 328,440 L 327,441 L 321,441 L 320,442 L 316,442 L 315,443 L 308,443 L 307,442 L 304,442 L 303,441 L 300,441 L 299,440 L 298,440 L 297,439 L 296,439 L 295,438 L 294,438 L 287,431 L 287,430 L 286,429 L 286,428 L 284,426 L 284,425 L 283,424 L 283,423 L 282,422 L 282,420 L 281,419 L 281,418 L 280,417 L 280,413 L 279,412 L 279,408 L 278,407 L 278,390 L 279,389 L 279,385 L 280,384 L 280,381 L 281,380 L 281,378 L 282,377 L 282,375 L 283,374 L 283,373 L 284,372 L 284,371 L 291,364 L 294,364 L 295,363 L 297,363 L 298,362 L 299,362 L 298,361 L 291,361 L 290,362 L 287,362 L 286,363 L 285,363 L 284,364 L 283,364 L 276,371 L 276,372 L 274,374 L 274,375 L 272,377 L 272,378 L 271,379 L 271,380 L 270,381 L 270,382 L 269,383 L 269,385 L 268,386 L 268,388 L 267,389 L 267,391 L 266,392 L 266,399 L 265,400 L 263,398 L 263,394 L 262,393 L 262,381 L 263,380 L 263,374 L 264,373 L 264,370 L 265,369 L 265,366 L 266,365 L 266,364 L 267,363 L 267,361 L 268,360 L 268,359 L 269,358 L 269,357 L 270,356 L 270,355 L 271,354 L 271,353 L 272,352 L 272,351 L 273,350 L 273,349 L 275,347 L 275,346 L 277,344 L 277,343 L 287,333 L 288,333 L 290,331 L 291,331 L 293,329 L 295,329 L 296,328 L 297,328 L 298,327 L 300,327 L 301,326 L 303,326 L 304,325 L 308,325 L 309,324 L 316,324 L 317,325 L 320,325 L 321,326 L 324,326 L 325,327 L 328,327 L 329,328 L 330,328 L 331,329 L 332,329 L 333,330 L 334,330 L 335,331 L 336,331 L 337,332 L 338,332 L 341,335 L 342,335 L 342,334 L 340,332 L 340,331 L 336,327 L 336,326 L 332,322 L 331,322 L 329,320 L 328,320 L 327,319 L 326,319 L 325,318 L 324,318 L 323,317 L 322,317 L 321,316 L 319,316 L 318,315 L 316,315 L 315,314 L 313,314 L 312,313 L 300,313 L 299,314 L 296,314 L 295,315 L 293,315 L 292,316 L 290,316 L 289,317 L 288,317 L 287,318 L 286,318 L 285,319 L 284,319 L 282,321 L 281,321 L 280,322 L 279,321 L 279,320 L 290,309 L 291,309 L 294,306 L 295,306 L 298,303 L 299,303 L 300,302 L 301,302 L 302,301 L 303,301 L 304,300 L 305,300 L 306,299 L 307,299 L 308,298 L 309,298 L 310,297 L 311,297 L 312,296 L 313,296 L 314,295 L 316,295 L 317,294 L 319,294 L 320,293 L 323,293 L 324,292 L 339,292 L 340,293 L 343,293 L 344,294 L 346,294 L 347,295 L 348,295 L 349,296 L 350,296 L 352,298 L 353,298 L 357,302 L 358,302 L 361,305 L 361,306 L 366,311 L 366,312 L 369,315 L 369,316 L 370,317 L 370,318 L 371,318 L 371,317 L 370,316 L 370,313 L 369,312 L 369,309 L 368,308 L 368,306 L 367,305 L 367,304 L 366,303 L 366,302 L 365,301 L 365,300 L 364,299 L 364,298 L 362,296 L 362,295 L 361,294 L 361,293 L 357,289 L 357,288 L 354,285 L 353,285 L 346,278 L 345,278 L 343,276 L 342,276 L 341,275 L 340,275 L 339,274 L 338,274 L 336,272 L 335,272 L 334,271 L 332,271 L 331,270 L 330,270 L 329,269 L 327,269 L 326,268 L 324,268 L 323,267 L 321,267 L 320,266 L 318,266 L 317,265 L 314,265 L 313,264 L 309,264 L 308,263 L 294,263 L 293,264 L 289,264 L 288,265 L 284,265 L 283,266 L 281,266 L 280,267 L 278,267 L 277,268 L 276,268 L 275,269 L 274,269 L 273,270 L 272,270 L 271,271 L 270,271 L 269,272 L 268,272 L 267,273 L 266,273 L 265,274 L 264,274 L 262,276 L 261,276 L 260,277 L 259,277 L 258,278 L 257,278 L 253,282 L 252,282 L 244,290 L 244,291 L 241,294 L 241,295 L 239,297 L 239,298 L 236,301 L 236,302 L 235,303 L 235,304 L 233,306 L 233,307 L 232,308 L 232,309 L 231,310 L 231,311 L 230,312 L 230,313 L 229,314 L 229,316 L 228,317 L 228,318 L 227,319 L 227,321 L 226,322 L 226,324 L 225,325 L 225,327 L 224,328 L 224,331 L 223,332 L 223,336 L 222,337 L 222,342 L 221,343 L 221,366 L 222,367 L 222,372 L 223,373 L 223,377 L 224,378 L 224,381 L 225,382 L 225,384 L 224,385 L 223,384 L 223,383 L 222,382 L 222,380 L 221,379 L 221,377 L 220,376 L 220,374 L 219,373 L 219,371 L 218,370 L 218,367 L 217,366 L 217,363 L 216,362 L 216,359 L 215,358 L 215,352 L 214,351 L 214,332 L 215,331 L 215,324 L 216,323 L 216,319 L 217,318 L 217,314 L 218,313 L 218,311 L 219,310 L 219,309 L 220,308 L 220,306 L 221,305 L 221,303 L 222,302 L 222,301 L 216,307 L 216,308 L 214,310 L 214,311 L 212,313 L 212,314 L 210,316 L 210,317 L 209,318 L 209,319 L 207,321 L 207,322 L 206,323 L 206,324 L 205,325 L 205,327 L 204,328 L 204,329 L 203,330 L 203,331 L 202,332 L 202,334 L 201,335 L 201,338 L 200,339 L 200,342 L 199,343 L 199,350 L 198,351 L 198,372 L 199,373 L 199,377 L 200,378 L 200,380 L 201,381 L 201,383 L 202,384 L 202,386 L 203,387 L 203,389 L 204,390 L 204,391 L 206,393 L 206,395 L 208,397 L 208,398 L 211,401 L 211,402 L 214,405 L 214,406 L 219,411 L 220,411 L 223,414 L 224,414 L 227,417 L 226,418 L 224,418 L 223,417 L 222,417 L 221,416 L 220,416 L 218,414 L 217,414 L 215,412 L 214,412 L 211,409 L 210,409 L 204,403 L 204,402 L 201,399 L 201,398 L 199,396 L 199,395 L 197,393 L 197,392 L 196,391 L 196,390 L 195,389 L 195,388 L 194,387 L 194,385 L 193,384 L 193,383 L 192,382 L 192,380 L 191,379 L 191,376 L 190,375 L 190,374 L 189,373 L 189,397 L 190,398 L 190,402 L 191,403 L 191,405 L 192,406 L 192,408 L 193,409 L 193,410 L 194,411 L 194,413 L 195,414 L 195,415 L 196,416 L 196,417 L 197,418 L 197,419 L 198,420 L 198,421 L 199,422 L 199,423 L 201,425 L 201,426 L 211,436 L 212,436 L 215,439 L 216,439 L 217,440 L 218,440 L 220,442 L 221,442 L 222,443 L 223,443 L 224,444 L 225,444 L 226,445 L 227,445 L 228,446 L 230,446 L 231,447 L 233,447 L 234,448 L 236,448 L 237,449 L 242,449 L 243,450 L 242,451 L 234,451 L 233,452 L 232,451 L 218,451 L 217,450 L 214,450 L 213,449 L 211,449 L 210,448 L 208,448 L 207,447 L 206,447 L 205,446 L 204,446 L 203,445 L 202,445 L 200,443 L 199,443 L 195,439 L 194,439 L 190,435 L 190,436 L 192,438 L 192,439 L 193,440 L 193,441 L 194,442 L 194,443 L 195,444 L 195,445 L 196,446 L 196,447 L 197,448 L 197,449 L 200,452 L 200,453 L 207,460 L 208,460 L 211,463 L 212,463 L 214,465 L 215,465 L 217,467 L 218,467 L 219,468 L 220,468 L 222,470 L 223,470 L 224,471 L 225,471 L 226,472 L 227,472 L 228,473 L 230,473 L 231,474 L 234,474 L 235,475 L 239,475 L 240,476 L 245,476 L 246,477 L 245,478 L 244,478 L 240,482 L 240,483 L 239,484 L 238,484 L 234,488 L 234,489 L 229,494 L 229,495 L 227,497 L 227,498 L 225,500 L 225,501 L 223,503 L 223,504 L 222,505 L 222,506 L 220,508 L 220,509 L 219,510 L 219,511 L 218,512 L 218,513 L 217,514 L 217,515 L 216,516 L 216,518 L 215,519 L 215,520 L 214,521 L 214,523 L 213,524 L 213,525 L 212,526 L 212,528 L 211,529 L 211,532 L 210,533 L 210,536 L 209,537 L 209,540 L 208,541 L 208,544 L 207,545 L 207,549 L 206,550 L 206,555 L 205,556 L 205,561 L 204,562 L 204,566 L 203,567 L 203,570 L 202,571 L 202,576 L 201,577 L 201,580 L 200,581 L 200,585 L 199,586 L 199,589 L 198,590 L 198,594 L 197,595 L 197,599 L 196,600 L 196,603 L 195,604 L 195,608 L 194,609 L 194,613 L 193,614 L 193,618 L 192,619 L 192,622 L 191,623 L 191,627 L 190,628 L 190,630 L 189,631 L 189,633 L 188,634 L 188,637 L 187,638 L 187,640 L 186,641 L 186,643 L 185,644 L 185,645 L 184,646 L 184,648 L 183,649 L 183,650 L 182,651 L 182,653 L 181,654 L 181,655 L 180,656 L 180,657 L 178,659 L 178,660 L 177,661 L 177,662 L 175,664 L 175,665 L 173,667 L 173,668 L 171,670 L 171,671 L 170,672 L 170,673 L 164,679 L 163,679 L 162,680 L 161,680 L 161,681 L 163,681 L 164,680 L 166,680 L 167,679 L 169,679 L 170,678 L 172,678 L 173,677 L 174,677 L 175,676 L 176,676 L 177,675 L 178,675 L 179,674 L 180,674 L 185,669 L 186,669 L 189,666 L 189,665 L 193,661 L 193,660 L 195,658 L 195,657 L 196,656 L 196,655 L 197,654 L 197,653 L 198,652 L 198,651 L 199,650 L 199,649 L 200,648 L 200,647 L 201,646 L 201,645 L 202,644 L 202,642 L 203,641 L 203,640 L 204,639 L 204,637 L 205,636 L 205,635 L 206,634 L 206,632 L 207,631 L 207,629 L 208,628 L 208,625 L 209,624 L 209,621 L 210,620 L 210,618 L 211,617 L 212,618 L 212,622 L 211,623 L 211,627 L 210,628 L 210,632 L 209,633 L 209,637 L 208,638 L 208,641 L 207,642 L 207,646 L 206,647 L 206,650 L 205,651 L 205,653 L 204,654 L 204,657 L 203,658 L 203,660 L 202,661 L 202,663 L 201,664 L 201,666 L 200,667 L 200,669 L 199,670 L 199,672 L 198,673 L 198,675 L 197,676 L 197,677 L 196,678 L 196,680 L 195,681 L 195,682 L 194,683 L 194,684 L 193,685 L 193,686 L 192,687 L 192,688 L 190,690 L 190,691 L 189,692 L 189,693 L 188,694 L 188,695 L 186,697 L 186,698 L 184,700 L 184,701 L 181,704 L 181,705 L 178,708 L 178,709 L 174,713 L 174,714 L 172,716 L 172,717 L 170,719 L 170,720 L 169,721 L 169,722 L 167,724 L 167,725 L 166,726 L 166,727 L 165,728 L 165,729 L 164,730 L 164,731 L 163,732 L 163,733 L 162,734 L 162,735 L 160,737 L 160,738 L 159,739 L 159,740 L 158,741 L 158,743 L 157,744 L 157,745 L 156,746 L 156,748 L 155,749 L 155,752 L 154,753 L 154,755 L 153,756 L 153,762 L 152,763 L 152,787 L 153,788 L 153,791 L 154,791 L 154,789 L 155,788 L 155,783 L 156,782 L 156,778 L 157,777 L 157,775 L 158,774 L 158,772 L 159,771 L 159,770 L 160,769 L 160,768 L 161,767 L 161,766 L 162,765 L 162,764 L 164,762 L 164,761 L 168,757 L 168,756 L 169,755 L 170,755 L 171,756 L 170,757 L 170,760 L 169,761 L 169,764 L 168,765 L 168,768 L 167,769 L 167,772 L 166,773 L 166,777 L 165,778 L 165,784 L 164,785 L 164,790 L 163,791 L 163,800 L 162,801 L 162,810 L 161,811 L 161,830 L 160,831 L 160,840 L 159,841 L 159,846 L 158,847 L 158,850 L 157,851 L 157,853 L 156,854 L 156,855 L 155,856 L 155,857 L 156,857 L 158,855 L 159,855 L 162,852 L 162,851 L 165,848 L 165,847 L 167,845 L 168,845 L 169,846 L 169,856 L 170,857 L 170,859 L 171,860 L 171,862 L 172,863 L 172,865 L 173,866 L 173,867 L 175,869 L 175,870 L 178,873 L 178,874 L 179,874 L 181,876 L 181,877 L 182,877 L 185,880 L 186,880 L 187,881 L 188,881 L 189,882 L 190,882 L 191,883 L 193,883 L 194,884 L 195,884 L 196,885 L 199,885 L 200,886 L 203,886 L 204,887 L 206,887 L 207,888 L 211,888 L 212,889 L 222,889 L 223,890 L 234,890 L 235,889 L 242,889 L 243,888 L 245,888 L 246,887 L 248,887 L 249,886 L 250,886 L 251,885 L 252,885 L 253,884 L 254,884 L 259,879 L 259,878 L 261,876 L 261,874 L 262,873 L 262,870 L 263,869 L 263,861 L 262,860 L 262,858 L 261,857 L 261,856 L 260,855 L 260,854 L 258,852 L 258,851 L 255,848 L 255,847 L 252,844 L 252,843 L 249,840 L 249,839 L 248,838 L 248,837 L 247,836 L 247,835 L 246,834 L 246,832 L 245,831 L 245,825 L 244,824 L 244,816 L 245,815 L 245,809 L 247,807 L 248,808 L 248,812 L 249,813 L 249,815 L 251,817 L 251,818 L 253,820 L 253,821 L 256,824 L 257,824 L 258,825 L 259,825 L 259,823 L 258,822 L 258,819 L 257,818 L 257,812 L 258,811 L 258,808 L 259,807 L 259,805 L 260,804 L 260,803 L 261,802 L 261,800 L 262,799 L 262,798 L 263,797 L 263,796 L 266,793 L 266,792 L 273,785 L 274,785 L 275,784 L 275,783 L 276,782 L 277,782 L 278,781 L 278,780 L 279,779 L 280,779 L 292,767 L 292,766 L 300,758 L 300,757 L 304,753 L 304,752 L 307,749 L 307,748 L 309,746 L 309,745 L 311,743 L 311,742 L 313,740 L 313,739 L 315,737 L 315,736 L 316,735 L 316,734 L 317,733 L 317,732 L 318,731 L 318,730 L 319,729 L 319,728 L 321,726 L 321,725 L 322,724 L 322,722 L 323,721 L 323,720 L 324,719 L 325,720 L 325,722 L 324,723 L 324,725 L 323,726 L 323,728 L 322,729 L 322,731 L 321,732 L 321,734 L 320,735 L 320,737 L 319,738 L 319,740 L 318,741 L 318,743 L 317,744 L 317,746 L 316,747 L 316,748 L 315,749 L 315,751 L 314,752 L 314,754 L 313,755 L 313,756 L 312,757 L 312,759 L 311,760 L 311,761 L 310,762 L 310,763 L 309,764 L 309,765 L 308,766 L 308,767 L 307,768 L 307,769 L 306,770 L 306,771 L 304,773 L 304,774 L 303,775 L 303,776 L 301,778 L 301,779 L 298,782 L 298,783 L 296,785 L 296,786 L 292,790 L 293,790 L 295,788 L 296,788 L 297,787 L 298,787 L 299,786 L 300,786 L 301,785 L 302,785 L 303,784 L 304,784 L 305,783 L 306,783 L 308,781 L 309,781 L 313,777 L 314,777 L 315,776 L 315,775 L 318,772 L 318,771 L 319,770 L 320,771 L 320,773 L 319,774 L 319,776 L 318,777 L 318,781 L 317,782 L 317,786 L 316,787 L 316,813 L 317,814 L 317,818 L 318,819 L 318,821 L 319,822 L 319,824 L 320,825 L 320,827 L 321,828 L 321,830 L 322,831 L 322,832 L 323,833 L 323,834 L 324,835 L 324,836 L 325,837 L 325,838 L 326,839 L 326,840 L 329,843 L 329,844 L 333,848 L 334,848 L 337,851 L 338,851 L 339,852 L 340,852 L 341,853 L 342,853 L 343,854 L 344,854 L 345,855 L 347,855 L 348,856 L 350,856 L 351,857 L 353,857 L 354,858 L 360,858 L 361,859 L 376,859 L 377,858 L 384,858 L 385,857 L 388,857 L 389,856 L 391,856 L 392,855 L 393,855 L 395,853 L 396,853 L 399,850 L 399,849 L 400,848 L 400,846 L 401,845 L 401,838 L 400,837 L 400,835 L 398,833 L 398,832 L 387,821 L 386,821 L 376,811 L 376,810 L 375,809 L 375,808 L 374,807 L 374,805 L 373,804 L 373,801 L 372,800 L 372,794 L 371,793 L 371,779 L 372,778 L 372,774 L 373,773 L 373,768 L 374,767 L 374,765 L 375,764 L 375,762 L 376,761 L 376,759 L 377,758 L 377,756 L 378,755 L 378,754 L 379,753 L 379,752 L 380,751 L 380,750 L 381,749 L 381,748 L 382,747 L 382,746 L 384,744 L 384,743 L 385,742 L 385,741 L 387,739 L 387,738 L 388,737 L 388,736 L 390,734 L 391,735 L 391,738 L 390,739 L 390,742 L 389,743 L 389,746 L 388,747 L 388,750 L 387,751 L 387,753 L 386,754 L 386,756 L 385,757 L 385,759 L 384,760 L 384,761 L 383,762 L 383,763 L 382,764 L 382,765 L 381,766 L 381,767 L 380,768 L 380,769 L 383,769 L 384,768 L 388,768 L 389,767 L 390,767 L 391,766 L 392,766 L 393,765 L 394,765 L 397,762 L 398,762 L 400,760 L 400,759 L 405,754 L 405,753 L 407,751 L 407,750 L 408,749 L 408,748 L 410,746 L 410,745 L 411,744 L 411,743 L 412,742 L 412,741 L 413,740 L 414,741 L 414,745 L 413,746 L 413,755 L 412,756 L 412,772 L 413,773 L 413,778 L 414,779 L 414,782 L 415,783 L 415,784 L 416,785 L 416,786 L 417,787 L 417,788 L 420,791 L 420,792 L 424,796 L 425,796 L 427,798 L 427,797 L 426,796 L 426,791 L 427,790 L 427,780 L 428,779 L 428,773 L 429,772 L 429,767 L 430,766 L 430,763 L 431,762 L 431,759 L 432,758 L 432,755 L 433,754 L 433,752 L 434,751 L 434,749 L 435,748 L 435,746 L 436,745 L 436,744 L 437,743 L 437,741 L 438,740 L 438,737 L 439,736 L 439,735 L 440,734 L 441,735 L 441,737 L 440,738 L 440,744 L 439,745 L 439,753 L 438,754 L 438,782 L 439,783 L 439,788 L 440,789 L 440,791 L 441,792 L 441,794 L 442,795 L 442,796 L 443,797 L 443,799 L 444,800 L 444,801 L 445,802 L 445,803 L 446,804 L 446,805 L 447,806 L 447,807 L 448,808 L 448,809 L 455,816 L 457,816 L 457,807 L 456,806 L 456,790 L 457,789 L 457,784 L 458,783 L 459,784 L 459,790 L 460,791 L 460,794 L 461,795 L 461,799 L 462,800 L 462,802 L 463,803 L 463,806 L 464,807 L 464,809 L 465,810 L 465,811 L 466,812 L 466,813 L 467,814 L 467,816 L 468,817 L 468,819 L 469,820 L 469,822 L 470,823 L 470,825 L 471,826 L 471,828 L 472,829 L 472,831 L 473,832 L 473,834 L 474,835 L 474,838 L 475,839 L 475,842 L 476,843 L 476,846 L 477,847 L 477,854 L 478,855 L 478,873 L 477,874 L 477,878 L 476,879 L 476,881 L 475,882 L 475,883 L 472,886 L 472,888 L 473,888 L 474,887 L 479,887 L 480,886 L 482,886 L 483,885 L 485,885 L 486,884 L 487,884 L 492,879 L 493,879 L 494,880 L 494,893 L 493,894 L 493,899 L 492,900 L 492,902 L 491,903 L 491,905 L 490,906 L 490,907 L 489,908 L 489,909 L 488,910 L 487,910 L 485,912 L 485,913 L 493,913 L 494,912 L 496,912 L 497,911 L 499,911 L 500,910 L 501,910 L 502,909 L 503,909 L 507,905 L 508,906 L 508,908 L 507,909 L 507,911 L 506,912 L 506,916 L 505,917 L 505,919 L 504,920 L 504,921 L 505,920 L 506,920 L 507,919 L 508,919 L 513,914 L 515,916 L 516,916 L 518,918 L 518,919 L 522,923 L 522,924 L 527,929 L 528,929 L 529,930 L 530,930 L 531,931 L 532,931 L 534,933 L 535,933 L 536,934 L 538,934 L 539,935 L 541,935 L 542,936 L 544,936 L 545,937 L 548,937 L 549,938 L 555,938 L 556,939 L 566,939 L 567,940 L 582,940 L 583,939 L 593,939 L 594,938 L 600,938 L 601,937 L 605,937 L 606,936 L 608,936 L 609,935 L 610,935 L 611,934 L 612,934 L 613,933 L 614,933 L 616,931 L 617,931 L 619,929 L 619,928 L 621,926 L 621,925 L 623,923 L 623,922 L 624,921 L 624,919 L 625,918 L 625,911 L 626,910 L 625,909 L 625,904 L 624,903 L 624,901 L 623,900 L 623,898 L 621,896 L 621,895 L 617,891 L 617,890 L 608,881 L 608,880 L 606,878 L 606,877 L 603,874 L 603,873 L 601,871 L 601,870 L 600,869 L 600,868 L 599,867 L 599,865 L 598,864 L 598,862 L 597,861 L 597,858 L 596,857 L 596,853 L 595,852 L 595,847 L 594,846 L 594,839 L 593,838 L 593,821 L 594,820 L 598,824 L 599,824 L 600,825 L 600,826 L 601,827 L 602,827 L 603,828 L 603,829 L 606,832 L 606,833 L 607,834 L 607,835 L 609,837 L 609,835 L 608,834 L 608,803 L 609,802 L 609,795 L 610,794 L 610,789 L 611,788 L 611,784 L 612,783 L 613,784 L 613,785 L 614,786 L 614,793 L 615,794 L 615,798 L 616,799 L 616,804 L 617,805 L 617,810 L 618,811 L 618,816 L 619,817 L 619,826 L 620,827 L 620,840 L 619,841 L 619,847 L 618,848 L 618,852 L 617,853 L 617,857 L 616,858 L 616,861 L 617,860 L 617,859 L 625,851 L 625,850 L 628,847 L 628,846 L 629,845 L 629,843 L 631,841 L 632,842 L 632,848 L 633,849 L 633,853 L 634,854 L 634,857 L 635,858 L 635,861 L 636,862 L 636,865 L 637,866 L 637,868 L 638,869 L 638,871 L 639,872 L 639,873 L 640,874 L 640,875 L 641,876 L 641,877 L 642,878 L 642,879 L 643,880 L 643,881 L 645,883 L 645,884 L 648,887 L 648,888 L 655,895 L 656,895 L 658,897 L 659,897 L 661,899 L 663,899 L 664,900 L 665,900 L 666,901 L 667,901 L 668,902 L 671,902 L 672,903 L 675,903 L 676,904 L 682,904 L 683,905 L 692,905 L 693,906 L 696,906 L 697,905 L 714,905 L 715,904 L 720,904 L 721,903 L 725,903 L 726,902 L 728,902 L 729,901 L 731,901 L 732,900 L 733,900 L 734,899 L 735,899 L 737,897 L 738,897 L 741,894 L 741,893 L 743,891 L 743,890 L 744,889 L 744,887 L 745,886 L 745,874 L 744,873 L 744,870 L 743,869 L 743,867 L 742,866 L 742,864 L 734,856 L 733,856 L 731,854 L 730,854 L 727,851 L 726,851 L 724,849 L 723,849 L 720,846 L 719,846 L 716,843 L 716,842 L 714,840 L 714,839 L 713,838 L 713,837 L 712,836 L 712,835 L 711,834 L 711,833 L 710,832 L 710,830 L 709,829 L 709,825 L 708,824 L 708,818 L 707,817 L 707,794 L 706,793 L 706,786 L 707,785 L 707,776 L 708,775 L 708,770 L 709,769 L 709,763 L 710,762 L 710,760 L 711,759 L 712,760 L 712,763 L 713,764 L 713,767 L 714,768 L 714,771 L 715,772 L 715,773 L 716,774 L 716,776 L 717,777 L 717,778 L 718,779 L 718,780 L 722,784 L 722,785 L 724,787 L 725,787 L 727,789 L 727,790 L 731,794 L 730,793 L 730,792 L 729,791 L 729,790 L 728,789 L 728,787 L 727,786 L 727,784 L 726,783 L 726,778 L 725,777 L 725,755 L 726,754 L 726,745 L 727,744 L 727,739 L 728,738 L 728,734 L 729,733 L 729,730 L 730,729 L 730,726 L 731,725 L 731,722 L 732,721 L 732,719 L 733,718 L 733,716 L 734,715 L 734,713 L 735,712 L 735,711 L 736,710 L 736,708 L 737,707 L 737,705 L 738,704 L 738,702 L 739,701 L 739,700 L 740,699 L 740,696 L 741,695 L 742,696 L 742,698 L 743,699 L 743,706 L 744,707 L 744,710 L 745,711 L 745,713 L 746,714 L 746,716 L 747,717 L 747,718 L 749,720 L 749,721 L 751,723 L 751,724 L 753,726 L 753,727 L 760,734 L 761,734 L 763,736 L 763,735 L 761,733 L 761,732 L 759,730 L 759,728 L 758,727 L 758,726 L 759,725 L 758,724 L 758,719 L 757,718 L 757,696 L 758,695 L 758,688 L 759,687 L 759,683 L 760,682 L 760,679 L 761,678 L 761,675 L 762,674 L 762,670 L 763,669 L 763,665 L 764,664 L 764,661 L 765,660 L 765,657 L 766,656 L 766,653 L 767,652 L 767,648 L 768,647 L 768,643 L 769,642 L 769,638 L 770,637 L 770,632 L 771,631 L 771,625 L 772,624 L 772,618 L 773,617 L 773,604 L 774,603 L 774,594 L 773,593 L 773,581 L 772,580 L 772,573 L 771,572 L 771,566 L 770,565 L 770,560 L 769,559 L 769,555 L 768,554 L 768,550 L 767,549 L 767,546 L 766,545 L 766,542 L 765,541 L 765,538 L 764,537 L 764,534 L 763,533 L 763,529 L 762,528 L 762,524 L 761,523 L 761,521 L 760,520 L 760,518 L 759,517 L 759,514 L 758,513 L 758,510 L 757,509 L 757,505 L 756,504 L 756,500 L 755,499 L 755,495 L 754,494 L 754,488 L 753,487 L 753,476 L 754,475 L 754,471 L 755,470 L 755,467 L 756,466 L 756,464 L 757,463 L 757,462 L 758,461 L 758,459 L 760,457 L 760,456 L 761,455 L 761,454 L 763,452 L 764,453 L 764,465 L 765,466 L 765,468 L 766,469 L 766,471 L 767,472 L 767,473 L 768,474 L 768,475 L 770,477 L 770,478 L 771,479 L 771,481 L 771,475 L 772,474 L 772,470 L 773,469 L 773,466 L 774,465 L 774,462 L 775,461 L 775,458 L 776,457 L 776,454 L 777,453 L 777,450 L 778,449 L 778,447 L 779,446 L 779,443 L 780,442 L 780,440 L 781,439 L 781,436 L 782,435 L 782,434 L 783,433 L 783,430 L 784,429 L 784,428 L 785,427 L 785,425 L 786,424 L 786,423 L 787,422 L 787,420 L 788,419 L 788,418 L 789,417 L 789,416 L 790,415 L 791,416 L 791,425 L 790,426 L 790,431 L 789,432 L 789,435 L 788,436 L 788,438 L 787,439 L 787,440 L 786,441 L 786,444 L 785,445 L 786,445 L 788,443 L 788,442 L 789,441 L 789,440 L 791,438 L 791,437 L 792,436 L 792,435 L 794,433 L 794,431 L 796,429 L 796,427 L 797,426 L 797,425 L 798,424 L 798,422 L 799,421 L 799,419 L 800,418 L 800,416 L 801,415 L 801,413 L 802,412 L 802,409 L 803,408 L 803,404 L 804,403 L 804,380 L 803,379 L 803,376 L 802,375 L 802,372 L 801,371 L 801,369 L 800,368 L 800,367 L 799,366 L 799,364 L 798,363 L 798,362 L 797,361 L 797,360 L 796,359 L 796,358 L 795,357 L 795,356 L 794,355 L 794,378 L 793,379 L 792,378 L 792,377 L 791,376 L 791,375 L 787,371 L 788,370 L 788,369 L 787,368 L 786,369 L 786,371 L 780,377 L 779,377 L 777,379 L 771,379 L 770,378 L 769,378 L 767,376 L 767,371 L 768,370 L 768,369 L 769,368 L 769,358 L 770,357 L 771,357 L 772,358 L 773,358 L 774,357 L 775,357 L 776,356 L 776,354 L 777,353 L 777,352 L 778,351 L 778,350 L 779,349 L 779,348 L 780,347 L 780,346 L 781,345 L 782,345 L 783,344 L 784,344 L 785,343 L 785,342 L 786,341 L 786,340 L 787,339 L 787,338 L 788,337 L 788,335 L 789,334 L 789,333 L 790,332 L 790,328 L 787,325 L 786,325 L 785,324 L 784,324 L 783,323 L 782,323 L 781,322 L 779,322 L 778,321 L 777,321 L 776,320 L 771,320 L 770,319 L 766,319 L 765,318 L 762,318 L 761,317 L 752,317 L 751,318 L 749,318 L 748,319 L 746,319 L 745,320 L 744,320 L 743,321 L 742,321 L 739,324 L 738,324 L 736,326 L 735,326 L 734,327 L 734,328 L 733,329 L 733,337 L 734,338 L 734,342 L 735,343 L 735,344 L 739,348 L 740,348 L 741,349 L 743,349 L 744,350 L 746,350 L 748,352 L 749,352 L 750,353 L 751,353 L 753,355 L 754,355 L 755,356 L 756,356 L 757,357 L 758,357 L 760,355 L 761,355 L 762,356 L 761,357 L 761,358 L 760,359 L 760,360 L 759,361 L 759,363 L 758,364 L 758,366 L 757,367 L 757,368 L 756,369 L 756,371 L 753,374 L 753,375 L 752,376 L 751,376 L 749,378 L 748,378 L 747,379 L 746,379 L 745,380 L 743,380 L 742,381 L 740,381 L 739,382 L 737,382 L 736,383 L 734,383 L 733,384 L 730,384 L 729,385 L 726,385 L 725,386 L 720,386 L 719,387 L 713,387 L 712,388 L 706,388 L 705,389 L 702,389 L 701,390 L 698,390 L 697,389 L 698,388 L 698,387 L 699,386 L 699,385 L 700,384 L 700,383 L 701,382 L 701,381 L 702,380 L 702,379 L 703,378 L 703,377 L 705,375 L 705,374 L 706,373 L 706,371 L 708,369 L 708,367 L 709,366 L 709,365 L 710,364 L 710,363 L 711,362 L 711,357 L 712,356 L 712,354 L 713,353 L 713,352 L 706,359 L 706,360 L 702,364 L 702,365 L 697,370 L 697,371 L 695,373 L 695,374 L 694,375 L 694,377 L 693,378 L 693,380 L 692,381 L 692,383 L 691,384 L 691,386 L 690,387 L 690,390 L 689,391 L 689,394 L 688,395 L 688,399 L 687,400 L 687,403 L 686,404 L 686,406 L 685,407 L 685,409 L 684,410 L 684,412 L 683,413 L 683,416 L 682,417 L 682,421 L 681,422 L 681,426 L 680,427 L 680,431 L 679,432 L 679,440 L 678,441 L 678,459 L 679,460 L 679,469 L 680,470 L 680,476 L 681,477 L 681,483 L 682,484 L 682,487 L 683,488 L 683,491 L 684,492 L 684,495 L 685,496 L 685,499 L 686,500 L 686,502 L 687,503 L 687,504 L 688,505 L 688,507 L 689,508 L 689,509 L 690,510 L 690,512 L 691,513 L 691,515 L 692,516 L 692,519 L 693,520 L 693,522 L 694,523 L 694,526 L 695,527 L 695,499 L 694,498 L 694,474 L 695,473 L 695,467 L 696,466 L 697,466 L 698,467 L 698,475 L 699,476 L 699,482 L 700,483 L 700,488 L 701,489 L 701,494 L 702,495 L 702,502 L 703,503 L 703,510 L 704,511 L 704,517 L 705,518 L 705,523 L 706,524 L 706,528 L 707,529 L 707,531 L 708,532 L 708,535 L 709,536 L 709,540 L 710,541 L 710,544 L 711,545 L 711,548 L 712,549 L 712,551 L 713,552 L 713,556 L 714,557 L 714,560 L 715,561 L 715,565 L 716,566 L 716,569 L 717,570 L 717,574 L 718,575 L 718,579 L 719,580 L 719,583 L 720,584 L 720,588 L 721,589 L 721,592 L 722,593 L 722,596 L 723,597 L 723,602 L 724,603 L 724,605 L 723,606 L 723,610 L 724,611 L 724,606 L 725,605 L 725,601 L 726,600 L 726,591 L 727,590 L 727,583 L 726,582 L 726,569 L 725,568 L 725,561 L 724,560 L 724,555 L 723,554 L 723,549 L 722,548 L 722,544 L 721,543 L 721,538 L 720,537 L 720,532 L 719,531 L 719,526 L 718,525 L 718,519 L 717,518 L 717,492 L 718,491 L 718,485 L 720,483 L 721,484 L 721,499 L 722,500 L 722,506 L 723,507 L 723,511 L 724,512 L 724,517 L 725,518 L 725,522 L 726,523 L 726,527 L 727,528 L 727,531 L 728,532 L 728,534 L 729,535 L 729,537 L 730,538 L 730,539 L 731,540 L 731,541 L 732,542 L 732,543 L 733,544 L 733,545 L 734,546 L 734,547 L 735,548 L 735,549 L 736,550 L 736,551 L 737,552 L 737,553 L 738,554 L 737,553 L 737,550 L 736,549 L 736,547 L 735,546 L 735,544 L 734,543 L 734,533 L 733,532 L 733,490 L 734,489 L 734,482 L 735,481 L 735,477 L 737,475 L 738,476 L 738,490 L 739,491 L 739,499 L 740,500 L 740,505 L 741,506 L 741,511 L 742,512 L 742,516 L 743,517 L 743,520 L 744,521 L 744,524 L 745,525 L 745,529 L 746,530 L 746,532 L 747,533 L 747,537 L 748,538 L 748,540 L 749,541 L 749,544 L 750,545 L 750,549 L 751,550 L 751,553 L 752,554 L 752,558 L 753,559 L 753,562 L 754,563 L 754,568 L 755,569 L 755,573 L 756,574 L 756,581 L 757,582 L 757,590 L 758,591 L 758,610 L 757,611 L 756,610 L 756,609 L 755,608 L 755,604 L 754,603 L 754,600 L 753,599 L 753,597 L 752,596 L 752,594 L 751,593 L 751,591 L 750,590 L 750,588 L 749,587 L 749,585 L 748,584 L 748,582 L 747,581 L 747,579 L 746,578 L 746,577 L 745,576 L 745,573 L 744,572 L 744,569 L 743,568 L 743,566 L 742,565 L 742,564 L 741,563 L 741,564 L 742,565 L 742,568 L 743,569 L 743,573 L 744,574 L 744,583 L 745,584 L 745,632 L 744,633 L 744,639 L 743,640 L 743,646 L 742,647 L 742,651 L 741,652 L 741,656 L 740,657 L 740,660 L 739,661 L 739,663 L 738,664 L 738,666 L 737,667 L 737,669 L 736,670 L 736,672 L 735,673 L 735,675 L 734,676 L 734,678 L 733,679 L 733,680 L 732,681 L 732,683 L 731,684 L 731,685 L 730,686 L 730,687 L 729,688 L 728,687 L 728,684 L 729,683 L 729,680 L 730,679 L 730,674 L 731,673 L 731,665 L 732,664 L 732,645 L 731,644 L 731,633 L 730,632 L 730,623 L 729,622 L 729,616 L 729,618 L 728,619 L 728,627 L 727,628 L 727,636 L 726,637 L 726,640 L 725,641 L 725,646 L 724,647 L 724,651 L 723,652 L 723,654 L 722,655 L 722,658 L 721,659 L 721,661 L 720,662 L 720,665 L 719,666 L 719,668 L 718,669 L 718,671 L 717,672 L 717,674 L 716,675 L 716,677 L 715,678 L 715,680 L 714,681 L 714,682 L 713,683 L 713,684 L 712,685 L 712,686 L 711,687 L 711,689 L 710,690 L 710,691 L 708,693 L 708,694 L 707,695 L 707,696 L 706,697 L 706,698 L 704,700 L 704,701 L 703,702 L 703,703 L 701,705 L 701,706 L 700,707 L 700,708 L 698,710 L 698,711 L 696,713 L 696,714 L 694,716 L 694,717 L 691,720 L 691,721 L 689,723 L 688,722 L 688,721 L 689,720 L 689,719 L 690,718 L 690,717 L 691,716 L 691,715 L 692,714 L 692,713 L 693,712 L 693,710 L 694,709 L 694,708 L 695,707 L 695,705 L 696,704 L 696,703 L 697,702 L 697,700 L 698,699 L 698,696 L 699,695 L 699,693 L 700,692 L 700,689 L 701,688 L 701,684 L 702,683 L 702,679 L 703,678 L 703,674 L 704,673 L 704,667 L 705,666 L 705,658 L 706,657 L 706,625 L 705,624 L 705,615 L 704,614 L 704,608 L 703,607 L 703,603 L 702,602 L 702,597 L 701,596 L 701,592 L 700,591 L 700,587 L 699,586 L 699,583 L 698,582 L 698,579 L 697,578 L 697,575 L 696,574 L 696,570 L 695,569 L 695,565 L 694,564 L 694,561 L 694,562 L 693,563 L 694,564 L 694,575 L 693,576 L 693,594 L 694,595 L 694,599 L 693,600 L 694,601 L 694,612 L 693,613 L 693,631 L 692,632 L 692,643 L 691,644 L 691,651 L 690,652 L 690,656 L 689,657 L 689,661 L 688,662 L 688,667 L 687,668 L 687,672 L 686,673 L 686,676 L 685,677 L 685,680 L 684,681 L 684,683 L 683,684 L 683,686 L 682,687 L 682,689 L 681,690 L 681,692 L 680,693 L 680,695 L 679,696 L 679,697 L 678,698 L 678,700 L 677,701 L 677,702 L 676,703 L 676,704 L 675,705 L 675,707 L 674,708 L 674,709 L 673,710 L 673,711 L 672,712 L 672,713 L 671,714 L 671,715 L 669,717 L 669,718 L 668,719 L 668,720 L 666,722 L 666,723 L 663,726 L 663,727 L 661,729 L 661,730 L 658,733 L 658,734 L 653,739 L 652,738 L 652,737 L 653,736 L 653,735 L 654,734 L 654,733 L 656,731 L 656,730 L 657,729 L 657,728 L 658,727 L 658,725 L 659,724 L 659,723 L 660,722 L 660,721 L 661,720 L 661,717 L 662,716 L 662,714 L 663,713 L 663,711 L 664,710 L 664,708 L 665,707 L 665,705 L 666,704 L 666,702 L 667,701 L 667,699 L 668,698 L 668,696 L 669,695 L 669,692 L 670,691 L 670,689 L 671,688 L 671,685 L 672,684 L 672,680 L 673,679 L 673,674 L 674,673 L 674,666 L 675,665 L 675,635 L 674,634 L 674,627 L 673,626 L 673,622 L 672,621 L 672,617 L 671,616 L 671,612 L 670,611 L 670,607 L 669,606 L 669,603 L 668,602 L 668,599 L 667,598 L 667,595 L 666,594 L 666,592 L 665,591 L 665,588 L 664,587 L 664,583 L 663,582 L 663,579 L 662,578 L 662,577 L 662,582 L 663,583 L 663,591 L 664,592 L 664,601 L 665,602 L 665,612 L 666,613 L 666,646 L 665,647 L 665,656 L 664,657 L 664,662 L 663,663 L 663,667 L 662,668 L 662,672 L 661,673 L 661,676 L 660,677 L 660,679 L 659,680 L 659,683 L 658,684 L 658,686 L 657,687 L 657,689 L 656,690 L 656,692 L 655,693 L 655,695 L 654,696 L 654,698 L 653,699 L 653,700 L 652,701 L 652,703 L 651,704 L 651,706 L 650,707 L 650,708 L 649,709 L 649,710 L 648,711 L 648,712 L 647,713 L 647,714 L 646,715 L 646,716 L 645,717 L 645,718 L 644,719 L 644,720 L 642,722 L 642,723 L 641,724 L 641,725 L 639,727 L 639,728 L 637,730 L 637,731 L 635,733 L 635,734 L 633,736 L 633,737 L 630,740 L 630,741 L 628,743 L 628,744 L 626,746 L 626,747 L 624,749 L 624,750 L 622,752 L 622,753 L 621,754 L 621,755 L 620,756 L 620,757 L 619,758 L 618,757 L 618,754 L 619,753 L 619,750 L 620,749 L 620,746 L 621,745 L 621,742 L 622,741 L 622,739 L 623,738 L 623,735 L 624,734 L 624,732 L 625,731 L 625,729 L 626,728 L 626,726 L 627,725 L 627,723 L 628,722 L 628,719 L 629,718 L 629,715 L 630,714 L 630,712 L 631,711 L 631,709 L 632,708 L 632,705 L 633,704 L 633,702 L 634,701 L 634,698 L 635,697 L 635,694 L 636,693 L 636,690 L 637,689 L 637,686 L 638,685 L 638,682 L 639,681 L 639,679 L 640,678 L 640,676 L 641,675 L 641,673 L 642,672 L 642,671 L 643,670 L 643,669 L 644,668 L 644,667 L 642,669 L 642,670 L 641,671 L 641,672 L 639,674 L 639,675 L 638,676 L 638,677 L 637,678 L 637,679 L 636,680 L 636,681 L 634,683 L 634,684 L 633,685 L 633,686 L 632,687 L 632,688 L 631,689 L 631,690 L 630,691 L 630,692 L 629,693 L 629,694 L 627,696 L 627,698 L 626,699 L 626,700 L 624,702 L 624,703 L 623,704 L 623,706 L 621,708 L 621,709 L 620,710 L 620,711 L 619,712 L 619,713 L 618,714 L 618,715 L 617,716 L 617,717 L 616,718 L 616,719 L 615,720 L 615,721 L 614,722 L 614,723 L 613,724 L 613,725 L 612,726 L 612,727 L 611,728 L 611,729 L 610,730 L 610,731 L 609,732 L 609,733 L 608,734 L 608,736 L 607,737 L 607,738 L 606,739 L 606,740 L 605,741 L 605,742 L 604,743 L 604,745 L 603,746 L 603,747 L 602,748 L 602,750 L 601,751 L 601,753 L 600,754 L 600,756 L 599,757 L 599,759 L 598,760 L 598,762 L 597,763 L 597,765 L 596,766 L 596,768 L 595,769 L 595,772 L 594,773 L 594,776 L 593,777 L 593,780 L 592,781 L 592,785 L 591,786 L 591,789 L 590,790 L 590,793 L 589,794 L 589,797 L 588,798 L 587,797 L 587,779 L 588,778 L 588,740 L 589,739 L 589,717 L 590,716 L 590,705 L 591,704 L 591,697 L 592,696 L 592,690 L 593,689 L 593,684 L 594,683 L 594,678 L 595,677 L 594,677 L 592,679 L 592,681 L 591,682 L 591,683 L 590,684 L 590,686 L 589,687 L 589,689 L 588,690 L 588,692 L 587,693 L 587,695 L 586,696 L 586,698 L 585,699 L 585,702 L 584,703 L 584,705 L 583,706 L 583,709 L 582,710 L 582,713 L 581,714 L 581,718 L 580,719 L 580,724 L 579,725 L 579,731 L 578,732 L 578,740 L 577,741 L 577,755 L 576,756 L 576,781 L 575,782 L 575,796 L 576,797 L 576,809 L 577,810 L 577,820 L 578,821 L 578,831 L 579,832 L 579,841 L 580,842 L 580,848 L 581,849 L 581,854 L 582,855 L 582,858 L 583,859 L 583,864 L 584,865 L 584,869 L 583,870 L 582,869 L 582,868 L 580,866 L 580,865 L 579,864 L 579,863 L 577,861 L 577,860 L 575,858 L 575,857 L 574,856 L 574,855 L 573,854 L 573,853 L 572,852 L 572,851 L 571,850 L 571,849 L 570,848 L 570,846 L 569,845 L 569,843 L 568,842 L 568,840 L 567,839 L 567,837 L 566,836 L 566,834 L 564,832 L 564,831 L 564,836 L 565,837 L 564,838 L 565,839 L 565,844 L 566,845 L 566,849 L 567,850 L 567,853 L 568,854 L 568,856 L 569,857 L 569,859 L 570,860 L 570,862 L 571,863 L 571,865 L 572,866 L 572,868 L 573,869 L 573,870 L 574,871 L 574,872 L 575,873 L 575,875 L 577,877 L 577,878 L 582,883 L 582,884 L 583,884 L 587,888 L 588,888 L 589,889 L 590,889 L 592,891 L 593,891 L 594,892 L 595,892 L 600,897 L 601,897 L 607,903 L 607,904 L 610,907 L 610,909 L 611,910 L 611,913 L 610,914 L 610,916 L 607,919 L 606,919 L 605,920 L 604,920 L 603,921 L 602,921 L 601,922 L 598,922 L 597,923 L 595,923 L 594,924 L 593,923 L 593,916 L 592,915 L 592,914 L 591,913 L 591,912 L 590,911 L 590,910 L 580,900 L 579,901 L 579,903 L 580,904 L 580,907 L 581,908 L 581,920 L 580,921 L 580,924 L 578,926 L 574,926 L 573,925 L 565,925 L 564,924 L 560,924 L 559,923 L 554,923 L 553,922 L 550,922 L 549,921 L 546,921 L 545,920 L 543,920 L 542,919 L 541,919 L 540,918 L 539,918 L 538,917 L 537,917 L 534,914 L 534,912 L 533,911 L 533,904 L 534,903 L 534,901 L 535,900 L 535,899 L 536,898 L 536,897 L 537,896 L 537,895 L 538,894 L 538,893 L 539,892 L 539,891 L 540,890 L 540,889 L 541,888 L 541,887 L 542,886 L 542,885 L 543,884 L 543,883 L 544,882 L 544,880 L 545,879 L 545,877 L 546,876 L 546,874 L 547,873 L 547,872 L 548,871 L 548,869 L 549,868 L 549,867 L 548,868 L 548,869 L 546,871 L 546,872 L 545,873 L 545,874 L 542,877 L 542,878 L 531,889 L 531,890 L 527,894 L 526,893 L 526,887 L 527,886 L 527,881 L 528,880 L 528,877 L 529,876 L 529,873 L 530,872 L 530,870 L 531,869 L 531,867 L 532,866 L 532,863 L 533,862 L 533,859 L 534,858 L 534,855 L 535,854 L 535,849 L 536,848 L 536,837 L 537,836 L 537,832 L 537,833 L 536,834 L 536,835 L 535,836 L 535,837 L 534,838 L 534,839 L 533,840 L 533,841 L 532,842 L 532,844 L 531,845 L 531,846 L 530,847 L 530,848 L 529,849 L 529,850 L 528,851 L 528,852 L 527,853 L 527,854 L 526,855 L 526,856 L 525,857 L 525,858 L 524,859 L 524,860 L 523,861 L 523,862 L 522,863 L 522,864 L 521,865 L 521,866 L 519,868 L 519,869 L 518,870 L 518,871 L 516,873 L 516,874 L 513,877 L 513,878 L 511,880 L 511,881 L 507,885 L 506,884 L 506,859 L 505,858 L 505,839 L 504,838 L 504,831 L 503,830 L 503,823 L 502,822 L 502,815 L 501,814 L 501,809 L 501,812 L 500,813 L 500,824 L 499,825 L 499,830 L 498,831 L 498,837 L 497,838 L 497,841 L 496,842 L 496,846 L 495,847 L 495,850 L 493,852 L 492,851 L 492,838 L 491,837 L 491,829 L 490,828 L 490,808 L 491,807 L 490,806 L 490,802 L 491,801 L 490,800 L 490,791 L 491,790 L 491,776 L 492,775 L 492,768 L 493,767 L 493,762 L 494,761 L 494,756 L 495,755 L 495,751 L 496,750 L 496,748 L 497,747 L 497,744 L 498,743 L 498,741 L 497,742 L 497,744 L 496,745 L 496,746 L 495,747 L 495,748 L 494,749 L 494,751 L 493,752 L 493,753 L 492,754 L 492,755 L 491,756 L 491,758 L 490,759 L 490,760 L 489,761 L 489,763 L 488,764 L 488,766 L 487,767 L 487,768 L 486,769 L 486,772 L 485,773 L 485,775 L 484,776 L 484,779 L 483,780 L 483,783 L 482,784 L 482,788 L 481,789 L 481,793 L 480,794 L 480,797 L 479,798 L 479,803 L 478,804 L 478,806 L 477,807 L 476,806 L 476,796 L 475,795 L 475,783 L 476,782 L 476,774 L 477,773 L 477,767 L 478,766 L 478,761 L 479,760 L 479,757 L 480,756 L 480,752 L 481,751 L 481,749 L 482,748 L 482,745 L 483,744 L 483,742 L 484,741 L 484,739 L 485,738 L 485,735 L 486,734 L 486,732 L 487,731 L 487,728 L 488,727 L 488,724 L 489,723 L 489,721 L 490,720 L 490,718 L 491,717 L 491,714 L 492,713 L 492,710 L 493,709 L 493,705 L 494,704 L 494,701 L 495,700 L 495,697 L 496,696 L 496,691 L 497,690 L 497,686 L 498,685 L 498,679 L 499,678 L 499,672 L 500,671 L 500,664 L 501,663 L 501,655 L 502,654 L 502,628 L 503,627 L 503,616 L 502,615 L 502,587 L 501,586 L 501,570 L 500,569 L 500,557 L 499,556 L 499,539 L 498,538 L 498,495 L 499,494 L 499,477 L 500,476 L 500,471 L 501,470 L 501,465 L 502,464 L 502,461 L 503,460 L 503,458 L 504,457 L 505,458 L 505,461 L 504,462 L 504,486 L 505,487 L 505,495 L 506,496 L 506,505 L 507,506 L 507,512 L 508,513 L 508,520 L 509,521 L 509,528 L 510,529 L 510,535 L 511,536 L 511,542 L 512,543 L 512,549 L 513,550 L 513,557 L 514,558 L 514,562 L 515,563 L 515,569 L 516,570 L 516,576 L 517,577 L 517,585 L 518,586 L 518,598 L 519,599 L 519,618 L 520,619 L 520,636 L 519,637 L 519,662 L 518,663 L 518,672 L 517,673 L 517,678 L 516,679 L 516,684 L 515,685 L 515,689 L 514,690 L 514,694 L 513,695 L 513,700 L 512,701 L 512,703 L 511,704 L 511,707 L 510,708 L 510,710 L 509,711 L 509,712 L 508,713 L 508,714 L 506,716 L 506,717 L 509,714 L 509,713 L 511,711 L 511,710 L 512,709 L 512,708 L 513,707 L 513,706 L 514,705 L 514,704 L 515,703 L 515,702 L 516,701 L 516,700 L 517,699 L 517,698 L 518,697 L 518,695 L 519,694 L 519,693 L 520,692 L 520,690 L 521,689 L 521,687 L 522,686 L 522,685 L 523,684 L 523,682 L 524,681 L 524,678 L 525,677 L 525,675 L 526,674 L 526,672 L 527,671 L 527,668 L 528,667 L 528,664 L 529,663 L 529,660 L 530,659 L 530,654 L 531,653 L 531,648 L 532,647 L 532,640 L 533,639 L 533,629 L 534,628 L 534,605 L 535,604 L 535,591 L 534,590 L 534,566 L 533,565 L 533,556 L 532,555 L 532,550 L 531,549 L 531,542 L 530,541 L 530,533 L 529,532 L 529,528 L 528,527 L 528,521 L 527,520 L 527,515 L 526,514 L 526,509 L 525,508 L 525,503 L 524,502 L 524,497 L 523,496 L 523,491 L 522,490 L 522,484 L 521,483 L 521,480 L 522,479 L 523,480 L 523,481 L 524,482 L 524,484 L 525,485 L 525,486 L 526,487 L 526,488 L 527,489 L 527,490 L 528,491 L 528,492 L 529,493 L 529,495 L 530,496 L 530,497 L 531,498 L 531,500 L 532,501 L 532,502 L 533,503 L 533,504 L 534,505 L 534,507 L 535,508 L 535,509 L 536,510 L 536,512 L 537,513 L 537,515 L 538,516 L 538,518 L 539,519 L 539,521 L 540,522 L 540,523 L 541,524 L 541,526 L 542,527 L 542,530 L 543,531 L 543,533 L 544,534 L 544,536 L 545,537 L 545,539 L 546,540 L 546,542 L 547,543 L 547,546 L 548,547 L 548,549 L 549,550 L 549,553 L 550,554 L 550,557 L 551,558 L 551,560 L 552,561 L 552,565 L 553,566 L 553,570 L 554,571 L 554,574 L 555,575 L 555,581 L 556,582 L 556,591 L 557,592 L 557,619 L 556,620 L 556,626 L 555,627 L 555,632 L 554,633 L 554,637 L 553,638 L 553,639 L 551,641 L 551,642 L 552,641 L 553,641 L 555,639 L 555,638 L 556,637 L 556,636 L 557,635 L 557,634 L 558,633 L 558,632 L 559,631 L 559,630 L 560,629 L 560,627 L 561,626 L 561,624 L 562,623 L 562,621 L 563,620 L 563,618 L 564,617 L 564,614 L 565,613 L 565,610 L 566,609 L 566,604 L 567,603 L 567,594 L 568,593 L 568,562 L 567,561 L 567,550 L 566,549 L 566,541 L 565,540 L 565,535 L 566,534 L 567,535 L 567,537 L 568,538 L 568,539 L 569,540 L 569,542 L 570,543 L 570,544 L 571,545 L 571,547 L 572,548 L 572,549 L 573,550 L 573,552 L 574,553 L 574,554 L 575,555 L 575,557 L 576,558 L 576,559 L 577,560 L 577,561 L 578,562 L 578,563 L 579,564 L 579,566 L 580,567 L 580,570 L 581,571 L 581,574 L 582,575 L 582,579 L 583,580 L 583,585 L 584,586 L 584,591 L 585,592 L 585,598 L 586,599 L 586,615 L 587,616 L 587,634 L 586,635 L 586,649 L 585,650 L 585,660 L 587,658 L 587,657 L 588,656 L 588,655 L 589,654 L 589,653 L 591,651 L 591,650 L 592,649 L 592,647 L 593,646 L 593,645 L 594,644 L 594,641 L 595,640 L 595,639 L 596,638 L 596,634 L 597,633 L 597,630 L 598,629 L 598,624 L 599,623 L 599,618 L 600,617 L 600,580 L 599,579 L 599,572 L 598,571 L 598,566 L 597,565 L 597,562 L 596,561 L 596,558 L 595,557 L 595,555 L 594,554 L 594,551 L 593,550 L 593,548 L 592,547 L 592,544 L 591,543 L 591,541 L 590,540 L 590,538 L 589,537 L 589,535 L 588,534 L 588,532 L 587,531 L 587,530 L 586,529 L 586,528 L 585,527 L 585,525 L 584,524 L 584,523 L 583,522 L 583,521 L 582,520 L 582,518 L 581,517 L 581,515 L 580,514 L 580,513 L 579,512 L 579,511 L 578,510 L 578,509 L 577,508 L 577,506 L 576,505 L 576,503 L 575,502 L 575,501 L 574,500 L 574,498 L 573,497 L 573,496 L 572,495 L 572,493 L 571,492 L 571,491 L 570,490 L 570,488 L 569,487 L 569,486 L 568,485 L 568,483 L 567,482 L 567,480 L 566,479 L 566,478 L 565,477 L 565,475 L 564,474 L 564,473 L 563,472 L 563,470 L 562,469 L 562,466 L 561,465 L 561,464 L 560,463 L 560,460 L 559,459 L 559,457 L 558,456 L 558,453 L 557,452 L 557,450 L 556,449 L 556,446 L 555,445 L 555,443 L 554,442 L 554,439 L 553,438 L 553,435 L 552,434 L 552,432 L 551,431 L 551,428 L 550,427 L 550,423 L 549,422 L 549,419 L 548,418 L 548,414 L 547,413 L 547,408 L 546,407 L 546,402 L 545,401 L 545,396 L 544,395 L 544,387 L 543,386 L 543,373 L 542,372 L 542,344 L 543,343 L 543,334 L 544,333 L 544,325 L 545,324 L 545,319 L 546,318 L 546,317 L 545,317 L 545,319 L 544,320 L 544,324 L 543,325 L 543,328 L 542,329 L 542,332 L 541,333 L 541,337 L 540,338 L 540,343 L 539,344 L 539,348 L 538,349 L 538,356 L 537,357 L 537,370 L 536,371 L 536,394 L 537,395 L 537,412 L 538,413 L 538,424 L 539,425 L 539,431 L 540,432 L 540,438 L 541,439 L 541,444 L 542,445 L 542,450 L 543,451 L 543,456 L 544,457 L 544,461 L 545,462 L 545,465 L 546,466 L 546,470 L 547,471 L 547,473 L 548,474 L 548,477 L 549,478 L 549,480 L 550,481 L 550,484 L 551,485 L 551,487 L 552,488 L 552,490 L 553,491 L 553,493 L 554,494 L 554,496 L 555,497 L 555,498 L 556,499 L 556,501 L 555,502 L 554,501 L 554,500 L 553,499 L 553,498 L 552,497 L 552,496 L 551,495 L 551,494 L 550,493 L 550,492 L 548,490 L 548,489 L 547,488 L 547,487 L 546,486 L 546,484 L 545,483 L 545,482 L 544,481 L 544,480 L 543,479 L 543,478 L 542,477 L 542,476 L 541,475 L 541,474 L 540,473 L 540,472 L 539,471 L 539,469 L 538,468 L 538,467 L 537,466 L 537,465 L 536,464 L 536,463 L 535,462 L 535,461 L 534,460 L 534,459 L 533,458 L 533,456 L 532,455 L 532,454 L 531,453 L 531,452 L 530,451 L 530,449 L 529,448 L 529,446 L 528,445 L 528,444 L 527,443 L 527,442 L 526,441 L 526,439 L 525,438 L 525,436 L 524,435 L 524,434 L 523,433 L 523,430 L 522,429 L 522,428 L 521,427 L 521,425 L 520,424 L 520,422 L 519,421 L 519,419 L 518,418 L 518,416 L 517,415 L 517,412 L 516,411 L 516,408 L 515,407 L 515,404 L 514,403 L 514,399 L 513,398 L 513,392 L 512,391 L 512,367 L 513,366 L 513,354 L 514,353 L 514,346 L 515,345 L 515,341 L 516,340 L 516,337 L 517,336 L 518,337 L 518,347 L 519,348 L 519,354 L 520,355 L 520,358 L 521,359 L 521,362 L 522,363 L 522,365 L 523,366 L 523,369 L 524,370 L 524,375 L 525,376 L 525,377 L 525,372 L 524,371 L 524,368 L 525,367 L 525,352 L 526,351 L 526,342 L 527,341 L 527,336 L 528,335 L 528,329 L 529,328 L 529,325 L 530,324 L 530,320 L 531,319 L 531,316 L 532,315 L 532,312 L 533,311 L 533,308 L 534,307 L 534,303 L 535,302 L 535,300 L 536,299 L 536,297 L 537,296 L 537,293 L 538,292 L 538,290 L 539,289 L 539,287 L 540,286 L 540,284 L 541,283 L 541,281 L 542,280 L 542,278 L 543,277 L 543,275 L 544,274 L 544,272 L 545,271 L 545,268 L 546,267 L 546,265 L 547,264 L 547,262 L 548,261 L 548,259 L 549,258 L 549,255 L 550,254 L 550,252 L 551,251 L 551,249 L 552,248 L 552,247 L 553,246 L 553,244 L 554,243 L 554,242 L 555,241 L 555,238 L 555,239 L 553,241 L 553,242 L 552,243 L 552,244 L 551,245 L 551,246 L 549,248 L 549,249 L 548,250 L 548,251 L 547,252 L 547,253 L 546,254 L 546,255 L 545,256 L 545,257 L 543,259 L 543,260 L 542,261 L 542,262 L 541,263 L 541,265 L 540,266 L 540,267 L 539,268 L 539,269 L 538,270 L 538,271 L 537,272 L 537,273 L 536,274 L 536,276 L 535,277 L 535,278 L 534,279 L 534,281 L 533,282 L 533,283 L 532,284 L 532,285 L 531,286 L 531,287 L 530,288 L 530,289 L 529,290 L 529,291 L 528,292 L 528,293 L 527,294 L 527,295 L 526,296 L 526,298 L 525,299 L 525,300 L 524,301 L 523,300 L 523,296 L 524,295 L 524,288 L 525,287 L 525,283 L 526,282 L 526,278 L 527,277 L 527,274 L 528,273 L 528,269 L 529,268 L 529,265 L 530,264 L 530,262 L 531,261 L 531,259 L 532,258 L 532,257 L 533,256 L 533,254 L 534,253 L 534,252 L 535,251 L 535,250 L 536,249 L 536,247 L 537,246 L 537,245 L 538,244 L 538,243 L 539,242 L 539,241 L 540,240 L 540,239 L 541,238 L 541,237 L 543,235 L 543,234 L 545,232 L 545,231 L 552,224 L 552,223 L 556,219 L 557,219 L 563,213 L 564,213 L 568,209 L 569,209 L 572,206 L 573,206 L 575,204 L 576,204 L 578,202 L 579,202 L 580,201 L 581,201 L 582,200 L 583,200 L 585,198 L 586,198 L 587,197 L 588,197 L 589,196 L 591,196 L 592,195 L 595,195 L 595,194 L 593,194 L 592,193 L 590,193 L 589,192 L 588,192 L 587,191 L 585,191 L 584,190 L 576,190 L 575,191 L 568,191 L 567,192 L 565,192 L 564,193 L 562,193 L 561,194 L 560,194 L 559,195 L 557,195 L 556,196 L 555,196 L 554,197 L 553,197 L 552,198 L 551,198 L 550,199 L 549,199 L 548,200 L 547,200 L 546,201 L 545,201 L 544,202 L 543,202 L 542,203 L 541,203 L 540,202 L 549,193 L 550,193 L 553,190 L 554,190 L 555,189 L 556,189 L 558,187 L 559,187 L 560,186 L 561,186 L 562,185 L 563,185 L 564,184 L 566,184 L 567,183 L 569,183 L 570,182 L 574,182 L 575,181 L 576,181 L 577,182 L 584,182 L 584,180 L 582,178 L 582,177 L 580,175 L 580,174 L 579,173 L 579,172 L 577,170 L 577,169 L 574,166 L 574,165 L 572,163 L 572,162 L 570,160 L 570,159 L 568,157 L 568,156 L 564,152 L 564,151 L 553,140 L 552,140 L 546,134 L 545,134 L 542,131 L 541,131 L 538,128 L 537,128 L 534,125 L 533,125 L 531,123 L 530,123 L 528,121 L 527,121 L 526,120 L 525,120 L 524,119 L 523,119 L 522,118 L 520,118 L 519,117 L 518,117 L 517,116 L 515,116 L 514,115 L 513,115 L 512,114 L 510,114 L 509,113 L 509,115 L 510,116 L 510,117 L 513,120 L 513,121 L 515,123 L 515,124 L 519,128 L 519,129 L 521,131 L 522,131 L 520,129 L 520,128 L 521,127 L 529,135 L 530,135 L 531,136 L 532,136 L 534,138 L 535,138 L 536,139 L 537,139 L 538,140 L 538,141 L 537,142 L 533,142 L 532,143 L 530,143 L 529,144 L 528,144 L 527,145 L 526,145 L 525,146 L 524,146 L 523,147 L 522,147 L 521,148 L 520,148 L 518,150 L 517,150 L 511,156 L 511,157 L 509,159 L 509,160 L 508,161 L 508,162 L 507,163 L 507,164 L 506,165 L 506,166 L 505,167 L 505,168 L 504,169 L 504,171 L 506,171 L 508,169 L 509,169 L 515,163 L 516,163 L 518,161 L 519,161 L 520,160 L 521,160 L 522,159 L 524,159 L 525,158 L 532,158 L 533,159 L 536,159 L 537,160 L 542,160 L 543,161 L 543,162 L 540,165 L 539,165 L 536,168 L 535,168 L 533,170 L 532,170 L 529,173 L 528,173 L 524,177 L 523,177 L 518,182 L 518,183 L 515,186 L 515,187 L 513,189 L 513,190 L 512,191 L 512,192 L 511,193 L 511,194 L 510,195 L 510,197 L 509,198 L 509,206 L 508,207 L 508,212 L 509,212 L 510,211 L 510,210 L 511,209 L 511,208 L 512,207 L 512,206 L 513,205 L 513,204 L 515,202 L 515,201 L 517,199 L 517,198 L 526,189 L 527,189 L 528,188 L 529,188 L 530,187 L 533,187 L 534,186 L 535,186 L 536,187 L 535,188 L 535,189 L 533,191 L 533,192 L 531,194 L 531,195 L 529,197 L 529,198 L 527,200 L 527,201 L 526,202 L 526,203 L 525,204 L 525,206 L 524,207 L 524,209 L 523,210 L 523,212 L 522,213 L 522,217 L 521,218 L 521,223 L 520,224 L 520,234 L 521,233 L 521,231 L 522,230 L 522,229 L 523,228 L 523,227 L 525,225 L 525,224 L 527,222 L 527,221 L 530,218 L 530,217 L 534,213 L 535,214 L 535,215 L 532,218 L 532,219 L 531,220 L 531,221 L 529,223 L 529,224 L 528,225 L 528,226 L 527,227 L 527,228 L 526,229 L 526,230 L 525,231 L 525,233 L 524,234 L 524,235 L 523,236 L 523,238 L 522,239 L 522,241 L 521,242 L 521,244 L 520,245 L 520,247 L 519,248 L 519,251 L 518,252 L 518,254 L 517,255 L 517,258 L 516,259 L 516,261 L 515,262 L 515,265 L 514,266 L 514,268 L 513,269 L 513,272 L 512,273 L 512,276 L 511,277 L 511,280 L 510,281 L 510,284 L 509,285 L 509,289 L 508,290 L 508,294 L 507,295 L 507,298 L 506,299 L 506,302 L 505,303 L 505,306 L 504,307 L 504,310 L 503,311 L 503,314 L 502,315 L 502,317 L 501,318 L 501,321 L 500,322 L 500,325 L 499,326 L 499,329 L 498,330 L 498,333 L 497,334 L 497,339 L 496,340 L 496,344 L 495,345 L 495,354 L 494,355 L 494,362 L 493,363 L 492,362 L 492,346 L 491,345 L 491,319 L 492,318 L 492,303 L 493,302 L 493,291 L 494,290 L 494,284 L 495,283 L 495,278 L 496,277 L 496,271 L 497,270 L 497,267 L 498,266 L 498,263 L 499,262 L 499,260 L 500,259 L 500,256 L 501,255 L 501,252 L 502,251 L 502,248 L 503,247 L 505,249 L 505,250 L 507,252 L 508,252 L 508,231 L 509,230 L 508,230 L 507,231 L 507,232 L 496,243 L 496,244 L 494,246 L 494,247 L 492,249 L 492,250 L 491,251 L 491,252 L 489,254 L 489,256 L 488,257 L 488,258 L 487,259 L 487,260 L 486,261 L 486,264 L 485,265 L 485,267 L 484,268 L 484,273 L 483,274 L 483,299 L 482,300 L 480,298 L 480,296 L 479,295 L 479,292 L 478,291 L 478,285 L 477,284 L 477,269 L 478,268 L 478,264 L 479,263 L 479,260 L 480,259 L 480,256 L 481,255 L 481,253 L 482,252 L 482,251 L 483,250 L 483,249 L 484,248 L 484,247 L 485,246 L 485,245 L 486,244 L 486,243 L 488,241 L 488,240 L 490,238 L 490,237 L 499,228 L 500,228 L 502,226 L 503,226 L 504,225 L 505,225 L 505,222 L 504,221 L 504,218 L 503,217 L 503,210 L 502,209 L 502,190 L 501,189 L 501,172 L 500,171 L 500,143 L 501,142 L 501,123 L 502,122 L 502,110 L 503,109 L 503,104 L 504,103 L 504,102 L 505,101 L 506,101 L 507,102 L 509,102 L 510,103 L 513,103 L 514,104 L 516,104 L 517,105 L 519,105 L 520,106 L 521,106 L 522,107 L 523,107 L 524,108 L 526,108 L 527,109 L 528,109 L 529,110 L 530,110 L 531,111 L 532,111 L 534,113 L 535,113 L 536,114 L 537,114 L 539,116 L 540,116 L 541,117 L 542,117 L 544,119 L 545,119 L 547,121 L 548,121 L 550,123 L 551,123 L 554,126 L 555,126 L 559,130 L 560,130 L 568,138 L 569,138 L 581,150 L 581,151 L 588,158 L 588,159 L 593,164 L 593,165 L 595,167 L 595,168 L 597,170 L 597,171 L 598,172 L 598,173 L 599,174 L 599,175 L 600,176 L 600,177 L 601,178 L 601,179 L 602,180 L 602,181 L 603,182 L 603,185 L 604,186 L 604,189 L 605,190 L 605,199 L 604,200 L 605,201 L 606,200 L 607,200 L 611,196 L 612,196 L 615,193 L 615,192 L 618,189 L 619,189 L 621,191 L 621,192 L 622,193 L 622,194 L 625,197 L 625,198 L 630,203 L 631,203 L 633,205 L 634,205 L 636,207 L 637,207 L 639,209 L 640,209 L 641,210 L 642,209 L 642,206 L 643,205 L 643,203 L 644,202 L 644,199 L 646,197 L 647,198 L 647,199 L 656,208 L 657,208 L 662,213 L 662,214 L 666,218 L 666,219 L 667,220 L 667,221 L 669,223 L 669,225 L 670,224 L 670,221 L 669,220 L 669,214 L 668,213 L 668,212 L 667,211 L 667,209 L 666,208 L 666,206 L 664,204 L 664,203 L 654,193 L 654,192 L 655,191 L 666,191 L 667,190 L 668,190 L 669,191 L 671,191 L 672,190 L 673,191 L 678,191 L 679,192 L 683,192 L 684,193 L 686,193 L 687,194 L 689,194 L 690,195 L 692,195 L 693,196 L 695,196 L 696,197 L 697,197 L 698,198 L 699,198 L 700,199 L 701,199 L 703,201 L 704,201 L 706,203 L 707,203 L 710,206 L 712,206 L 712,205 L 711,204 L 711,203 L 710,202 L 710,201 L 709,200 L 709,198 L 707,196 L 707,195 L 702,190 L 701,190 L 699,188 L 700,187 L 702,187 L 703,188 L 705,188 L 706,189 L 707,189 L 708,190 L 709,190 L 711,192 L 712,192 L 713,193 L 714,193 L 715,194 L 716,194 L 717,195 L 718,195 L 720,197 L 721,197 L 732,208 L 732,209 L 735,212 L 735,213 L 737,215 L 737,216 L 738,217 L 738,218 L 739,219 L 739,221 L 740,222 L 740,230 L 739,231 L 739,233 L 740,232 L 741,232 L 741,231 L 742,230 L 742,229 L 743,228 L 743,227 L 744,226 L 744,225 L 745,224 L 745,222 L 746,221 L 746,219 L 747,218 L 747,215 L 748,214 L 748,210 L 749,209 L 752,212 L 752,214 L 753,214 L 755,216 L 756,216 L 758,218 L 759,218 L 760,219 L 761,219 L 762,220 L 763,220 L 771,228 L 771,229 L 773,231 L 773,232 L 775,234 L 775,235 L 776,236 L 776,237 L 778,239 L 778,241 L 779,242 L 779,245 L 780,246 L 780,248 L 781,249 L 781,260 L 782,261 L 782,262 L 781,263 L 781,285 L 780,286 L 780,291 L 779,292 L 778,292 L 777,291 L 776,291 L 775,290 L 774,290 L 772,288 L 772,284 L 771,283 L 771,277 L 770,276 L 770,270 L 769,269 L 769,266 L 768,265 L 768,263 L 767,262 L 767,261 L 766,260 L 766,259 L 764,257 L 764,256 L 762,254 L 761,254 L 760,253 L 757,253 L 756,254 L 755,253 L 755,252 L 757,250 L 755,250 L 749,256 L 749,257 L 747,259 L 746,258 L 746,255 L 747,254 L 747,252 L 748,251 L 748,250 L 749,249 L 749,248 L 750,247 L 750,246 L 757,239 L 758,239 L 759,238 L 760,238 L 761,237 L 769,237 L 770,238 L 771,238 L 772,239 L 773,239 L 770,236 L 769,236 L 768,235 L 767,235 L 766,234 L 761,234 L 760,235 L 758,235 L 757,236 L 755,236 L 752,239 L 751,239 L 748,242 L 748,243 L 746,245 L 746,246 L 745,247 L 745,249 L 744,250 L 744,252 L 743,253 L 743,255 L 742,256 L 742,261 L 741,262 L 741,267 L 740,268 L 740,270 L 739,271 L 739,272 L 738,273 L 738,275 L 737,276 L 737,277 L 736,278 L 736,281 L 735,282 L 735,284 L 734,285 L 733,285 L 732,284 L 732,283 L 731,282 L 731,281 L 729,279 L 728,279 L 729,280 L 729,283 L 730,284 L 730,285 L 731,286 L 731,288 L 733,290 L 733,291 L 738,296 L 739,296 L 740,297 L 741,297 L 742,298 L 743,298 L 744,299 L 746,299 L 747,300 L 750,300 L 751,301 L 754,301 L 755,302 L 759,302 L 760,303 L 763,303 L 764,304 L 767,304 L 768,305 L 770,305 L 771,306 L 773,306 L 774,307 L 776,307 L 777,308 L 779,308 L 780,309 L 781,309 L 782,310 L 783,310 L 786,313 L 787,313 L 792,318 L 792,319 L 793,320 L 793,321 L 795,323 L 795,327 L 796,328 L 796,333 L 797,334 L 797,335 L 800,338 L 800,339 L 803,342 L 803,343 L 805,345 L 805,346 L 807,348 L 807,349 L 808,350 L 808,351 L 809,352 L 809,353 L 810,354 L 810,355 L 812,357 L 812,359 L 813,360 L 813,361 L 814,362 L 814,364 L 815,365 L 815,367 L 816,368 L 816,372 L 817,373 L 817,378 L 818,379 L 818,387 L 817,388 L 817,395 L 816,396 L 816,400 L 815,401 L 815,404 L 814,405 L 814,407 L 813,408 L 813,410 L 812,411 L 812,413 L 811,414 L 811,415 L 810,416 L 810,417 L 809,418 L 809,420 L 808,421 L 808,422 L 807,423 L 807,425 L 806,426 L 806,427 L 805,428 L 805,429 L 804,430 L 804,431 L 803,432 L 803,433 L 802,434 L 802,435 L 800,437 L 800,438 L 799,439 L 799,440 L 798,441 L 798,442 L 796,444 L 796,445 L 795,446 L 795,447 L 794,448 L 794,449 L 792,451 L 792,452 L 791,453 L 791,454 L 790,455 L 790,456 L 789,457 L 789,458 L 787,460 L 787,461 L 786,462 L 786,463 L 785,464 L 785,465 L 784,466 L 784,467 L 783,468 L 783,469 L 782,470 L 782,471 L 781,472 L 781,473 L 780,474 L 780,476 L 779,477 L 779,486 L 778,487 L 779,488 L 779,493 L 780,494 L 780,496 L 781,497 L 781,498 L 783,500 L 783,501 L 790,508 L 791,508 L 793,510 L 795,510 L 793,508 L 793,507 L 792,506 L 792,500 L 791,499 L 791,489 L 792,488 L 792,483 L 793,482 L 793,480 L 794,479 L 794,478 L 795,477 L 795,475 L 796,474 L 796,473 L 797,472 L 797,471 L 798,470 L 798,469 L 800,467 L 800,466 L 801,465 L 801,464 L 802,463 L 802,462 L 804,460 L 804,459 L 805,458 L 805,457 L 806,456 L 806,455 L 808,453 L 808,452 L 809,451 L 809,450 L 811,448 L 811,447 L 812,446 L 812,445 L 813,444 L 813,443 L 814,442 L 814,441 L 815,440 L 815,439 L 816,438 L 816,437 L 817,436 L 817,435 L 818,434 L 818,433 L 819,432 L 819,431 L 820,430 L 820,429 L 821,428 L 821,426 L 822,425 L 822,423 L 823,422 L 823,420 L 824,419 L 824,417 L 825,416 L 825,414 L 826,413 L 826,410 L 827,409 L 827,405 L 828,404 L 828,401 L 829,400 L 829,395 L 830,394 L 830,387 L 831,386 L 831,375 L 830,374 L 830,362 L 829,361 L 829,356 L 828,355 L 828,352 L 827,351 L 827,348 L 826,347 L 826,345 L 825,344 L 825,342 L 824,341 L 824,340 L 823,339 L 823,338 L 822,337 L 822,336 L 820,334 L 820,333 L 818,331 L 818,330 L 816,328 L 816,327 L 814,325 L 814,324 L 812,322 L 812,321 L 809,318 L 809,317 L 804,312 L 804,311 L 800,307 L 799,307 L 797,305 L 797,304 L 796,303 L 796,298 L 797,297 L 797,291 L 798,290 L 798,284 L 799,283 L 799,273 L 800,272 L 802,274 L 802,276 L 803,277 L 803,279 L 804,280 L 804,282 L 805,283 L 805,285 L 806,286 L 806,287 L 807,288 L 807,289 L 808,290 L 808,292 L 809,293 L 809,295 L 809,287 L 810,286 L 810,279 L 811,278 L 811,250 L 810,249 L 810,242 L 809,241 L 809,238 L 808,237 L 808,233 L 807,232 L 807,230 L 806,229 L 806,227 L 805,226 L 805,224 L 804,223 L 804,222 L 803,221 L 803,219 L 802,218 L 802,217 L 801,216 L 801,215 L 800,214 L 800,213 L 799,212 L 799,211 L 798,210 L 798,209 L 797,208 L 797,207 L 795,205 L 795,204 L 793,202 L 793,201 L 791,199 L 791,198 L 788,195 L 789,194 L 790,194 L 799,203 L 799,204 L 802,207 L 802,208 L 804,210 L 804,211 L 805,212 L 805,213 L 806,214 L 806,215 L 807,216 L 807,217 L 808,218 L 808,220 L 809,219 L 809,215 L 808,214 L 808,210 L 807,209 L 807,207 L 806,206 L 806,204 L 805,203 L 805,201 L 804,200 L 804,198 L 803,197 L 803,195 L 802,194 L 802,193 L 801,192 L 801,190 L 799,188 L 799,187 L 798,186 L 798,185 L 796,183 L 796,182 L 795,181 L 795,180 L 792,177 L 792,176 L 791,175 L 791,172 L 790,171 L 790,148 L 789,147 L 789,132 L 788,131 L 788,118 L 787,117 L 787,104 L 786,103 L 786,85 L 785,84 L 785,76 Z" fill="black" /></svg>